<?xml version="1.0" standalone="no"?>
<!DOCTYPE svg PUBLIC "-//W3C//DTD SVG 1.1//EN" "http://www.w3.org/Graphics/SVG/1.1/DTD/svg11.dtd" >
<svg xmlns="http://www.w3.org/2000/svg">
<metadata>
This is a custom SVG webfont generated by Font Squirrel.
Copyright   : Copyright c Eva Grinder 2007 All rights reserved
Designer    : Eva Grinder
Foundry     : Eva Grinder
</metadata>
<defs>
<font id="webfont0w6F9eXo" horiz-adv-x="1433" >
<font-face units-per-em="2048" ascent="1638" descent="-410" />
<missing-glyph horiz-adv-x="536" />
<glyph horiz-adv-x="0" />
<glyph horiz-adv-x="0" />
<glyph unicode=" "  horiz-adv-x="536" />
<glyph unicode="&#x09;" horiz-adv-x="536" />
<glyph unicode="&#xa0;" horiz-adv-x="536" />
<glyph unicode="!" horiz-adv-x="309" d="M16 117q0 -68 40 -102.5t106 -34.5q63 0 101 39.5t38 101.5q0 57 -43 89t-104 32q-59 0 -98.5 -31t-39.5 -94zM20 1360l46 -932l26 6q27 6 60 6l88 -12l49 932q0 43 -32 78t-99 35q-74 0 -106 -34t-32 -79z" />
<glyph unicode="&#x22;" horiz-adv-x="653" />
<glyph unicode="#" horiz-adv-x="1429" />
<glyph unicode="$" horiz-adv-x="1306" />
<glyph unicode="%" horiz-adv-x="1687" />
<glyph unicode="&#x26;" horiz-adv-x="1499" d="M123 377q0 -201 158.5 -307.5t423.5 -106.5q242 0 384 108.5t142 293.5v229q0 53 13 64.5t83 11.5h111v133q0 -6 -328 -6l-303 6v-133h100q33 0 51.5 -5.5t25.5 -17.5t8 -18t1 -23v-284q0 -98 -73.5 -165t-200.5 -67q-150 0 -245 85t-95 218q0 121 63.5 199t178.5 78v133 q-98 0 -167 64.5t-69 171t72.5 169t167.5 62.5q217 0 217 -189v-34h184v256l-43 26q-41 27 -140.5 53.5t-215.5 26.5q-193 0 -333 -95t-140 -292q0 -63 22.5 -116.5t54 -83t64.5 -50t55 -27.5l23 -8v-12l-39 -16q-39 -16 -86 -50t-86 -110t-39 -172z" />
<glyph unicode="'" horiz-adv-x="589" d="M102 1221v20l115 264q10 16 17.5 23.5t26 14.5t50.5 7h140q27 0 34 -15t-10 -32l-250 -282h-123z" />
<glyph unicode="(" horiz-adv-x="649" d="M123 696q0 195 48 371t116.5 286.5t138.5 192.5t119 117l47 37h119v-29l-39 -37q-37 -39 -92.5 -121.5t-109.5 -190.5t-92 -269.5t-38 -335.5t38 -336t92 -269.5t109.5 -190.5t92.5 -122l39 -37v-28h-119l-47 37q-49 39 -119 122.5t-138.5 191.5t-116.5 271.5t-48 339.5z " />
<glyph unicode=")" horiz-adv-x="804" d="M123 -238l37 37q39 39 93 122t109.5 190.5t93.5 269.5t38 336t-38 335.5t-93.5 269.5t-109.5 190.5t-93 121.5l-37 37v29h119l49 -37q47 -39 116.5 -123t138 -191.5t117 -271.5t48.5 -340q0 -195 -48.5 -371t-117 -286.5t-138 -192.5t-116.5 -116l-49 -37h-119v28z" />
<glyph unicode="*" horiz-adv-x="712" d="M84 1284l18 14q18 14 39 17q33 12 52 8l16 -4q-20 -4 -52 -37t-44 -65q-6 -31 -6.5 -61t6.5 -36l22 31q23 33 49 57q16 12 66.5 37t75.5 47q6 6 27.5 35t35.5 35q4 0 4 -12q-4 -6 -12 -17q-35 -49 -25 -73q6 -27 22.5 -48.5t44.5 -44t34 -30.5l28 -43q2 0 2 6q-2 23 7 43 q35 113 -7 172q-20 39 -61 39q-25 0 -29 12q0 4 17 4q31 -8 63 -4q33 6 90.5 38t63.5 34q-43 31 -101 22q-66 -12 -118 -82l-17 -8l-2 19q0 4 5 17t9.5 29.5t4.5 32.5q-2 25 -15 56l-10 30l-22 -34q-20 -33 -21 -60q0 -23 31 -57q8 -8 10 -19v-12l-14 -2q-6 0 -33 18.5 t-78 18.5q-66 0 -125 -55.5t-51 -67.5zM344 1350l10 6q10 4 11 6q4 4 12 6h8l-14 -14z" />
<glyph unicode="+" horiz-adv-x="921" />
<glyph unicode="," horiz-adv-x="425" d="M70 98q0 51 32.5 89t104.5 38q70 0 109.5 -35.5t39.5 -93.5q0 -63 -41 -138t-82 -118l-40 -43h-123v21q23 18 44 41.5t41.5 53.5t13.5 57.5t-46 43.5q-53 23 -53 84z" />
<glyph unicode="-" horiz-adv-x="675" d="M82 389v164h512v-164h-512z" />
<glyph unicode="." horiz-adv-x="423" d="M70 100q0 -68 40 -102.5t105 -34.5q63 0 101 40t38 101q0 57 -43 89t-104 32q-59 0 -98 -31t-39 -94z" />
<glyph unicode="/" horiz-adv-x="985" d="M0 -223l844 1923h39l102 -47l-852 -1919h-41z" />
<glyph unicode="0" horiz-adv-x="1218" d="M82 471q0 217 153.5 362.5t376.5 145.5q215 0 370 -146.5t155 -361.5q0 -213 -155 -356.5t-370 -143.5q-223 0 -376.5 143.5t-153.5 356.5zM319 471q0 -135 82 -233.5t211 -98.5q125 0 205 98.5t80 233.5q0 141 -80 240.5t-205 99.5q-129 0 -211 -99.5t-82 -240.5z" />
<glyph unicode="1" horiz-adv-x="735" d="M61 0q0 8 314 8l299 -8v127q-94 0 -134 7t-49.5 18.5t-9.5 42.5v755h-186q0 -139 -234 -139v-129h205v-414q0 -80 -46 -110.5t-159 -30.5v-127z" />
<glyph unicode="2" horiz-adv-x="1073" d="M102 0l394 6l475 -6v270h-144q0 -102 -98 -102h-342q-2 35 78 88t177 106.5t178 143.5t81 190q0 141 -115.5 212t-289.5 71q-100 0 -198.5 -34t-145.5 -68l-50 -33v-213h158q0 82 63.5 131t155.5 49q78 0 134.5 -35t56.5 -102q0 -53 -77 -122t-173 -125t-192.5 -131 t-125.5 -138v-158z" />
<glyph unicode="3" horiz-adv-x="960" d="M41 649h162q2 66 56 115t151 49q63 0 119.5 -37t56.5 -112q0 -106 -87 -167t-180 -61v-170q311 0 312 -215q0 -119 -84 -178t-199 -59q-72 0 -137.5 17t-93.5 34l-29 18h-43v-172l37 -14q37 -16 110.5 -30.5t147.5 -14.5q254 0 396.5 121t142.5 325q0 92 -44 158 t-98.5 91.5t-97.5 33.5l-45 10v6q2 2 28.5 14.5t46 23.5t48 36t48 53.5t34 72.5t14.5 95q0 145 -108.5 216t-272.5 71q-98 0 -195.5 -37t-146.5 -74l-49 -39v-180z" />
<glyph unicode="4" horiz-adv-x="1142" d="M102 0h605v-348h217l-6 348h184v164h-184v786h-211q-25 0 -315 -374.5t-290 -411.5v-164zM324 164q0 27 96 158l190 247l97 119v-524h-383z" />
<glyph unicode="5" horiz-adv-x="997" d="M82 -117v-170l39 -16q39 -14 112.5 -29.5t143.5 -15.5q252 0 395 132t143 314q0 160 -104 272.5t-315 112.5q-41 0 -99 -8l-57 -10v291h520v194q-33 0 -150.5 -3t-177.5 -3q-74 0 -201.5 3t-168.5 3v-669h41l51 10q53 12 121 12q145 0 219 -72.5t74 -179.5 q0 -104 -71 -170.5t-212 -66.5q-74 0 -139.5 17t-93.5 34l-29 18h-41z" />
<glyph unicode="6" horiz-adv-x="1067" d="M82 588q0 -170 16.5 -260t67.5 -181q47 -82 148.5 -129t222.5 -47q195 0 321.5 126t126.5 339q0 176 -106.5 285.5t-268.5 109.5q-72 0 -144.5 -15t-109.5 -30l-37 -16q4 162 104.5 261t246.5 99q57 0 111.5 -18t80.5 -35l27 -18h41v170l-33 14q-31 14 -95.5 29.5 t-129.5 15.5q-143 0 -259 -60.5t-186.5 -161.5t-107.5 -224t-37 -254zM317 424l7 223l63 12q63 14 133 15q106 0 171 -75t67 -187q4 -299 -213 -299q-115 0 -171.5 92t-56.5 219z" />
<glyph unicode="7" horiz-adv-x="1124" d="M82 641h164q0 74 25.5 97.5t80.5 23.5l221 4q223 2 224 -4q-6 -74 -58.5 -163t-123 -179t-141.5 -191.5t-119 -232.5t-48 -266v-58h234q-14 152 51 329t152 306l181 267q93 138 117 200v176q0 -8 -462 -8l-498 8v-309z" />
<glyph unicode="8" horiz-adv-x="1126" d="M82 324q0 -127 130 -240t333 -113q225 0 362 105.5t137 273.5q0 80 -36.5 146.5t-81.5 101.5t-82 53l-37 21l29 20q27 23 60.5 57.5t61 89t27.5 107.5q0 170 -129 257t-297 87q-166 0 -300 -94t-134 -250q0 -53 16.5 -99t40 -76t51 -54.5t52 -37.5t39.5 -20l16 -6 q-8 0 -43 -15t-86 -47t-90 -103.5t-39 -163.5zM297 326q0 61 55.5 119.5t110.5 84.5l55 27l68 -25q66 -23 133 -82t67 -128q0 -102 -65.5 -152.5t-165.5 -50.5q-109 0 -183.5 55.5t-74.5 151.5zM356 963q0 94 66.5 143t144.5 49t151 -58.5t73 -152.5q0 -47 -25 -89 t-54.5 -63.5t-54.5 -33.5l-24 -13l-68 25q-70 23 -139.5 77.5t-69.5 115.5z" />
<glyph unicode="9" horiz-adv-x="1077" d="M82 506q0 -195 129 -300.5t289 -105.5q80 0 144.5 26t88.5 50l25 27q2 -57 0 -104.5t-18.5 -103.5t-47 -94t-91 -64.5t-142.5 -26.5q-72 0 -137.5 18t-96.5 37l-28 18h-39v-170l32 -16q33 -14 107 -29.5t154 -15.5q133 0 230 34.5t157.5 94t96.5 154t48 196.5t12 238 q0 178 -40 304t-108.5 189.5t-143 90t-164.5 26.5q-207 0 -332 -132t-125 -341zM317 532q0 121 52.5 208t165.5 87q70 0 117.5 -33.5t65 -81.5t29 -99.5t6.5 -88.5t-1 -49q0 -82 -49.5 -145.5t-157.5 -63.5q-111 0 -169.5 77.5t-58.5 188.5z" />
<glyph unicode=":" horiz-adv-x="423" d="M70 100q0 -68 40 -102.5t105 -34.5q63 0 101 40t38 101q0 57 -43 89t-104 32q-59 0 -98 -31t-39 -94zM70 731q0 -68 40 -102.5t105 -34.5q63 0 101 40t38 101q0 57 -43 89t-104 32q-59 0 -98 -31t-39 -94z" />
<glyph unicode=";" horiz-adv-x="425" d="M70 98q0 51 32.5 89t104.5 38q70 0 109.5 -35.5t39.5 -93.5q0 -63 -41 -138t-82 -118l-40 -43h-123v21q23 18 44 41.5t41.5 53.5t13.5 57.5t-46 43.5q-53 23 -53 84zM70 731q0 -68 40 -102.5t105 -34.5q63 0 101 40t38 101q0 57 -43 89t-104 32q-59 0 -98 -31t-39 -94z " />
<glyph unicode="&#x3c;" horiz-adv-x="901" />
<glyph unicode="=" horiz-adv-x="921" />
<glyph unicode="&#x3e;" horiz-adv-x="901" />
<glyph unicode="?" horiz-adv-x="882" d="M20 1122h164q0 78 73 142.5t187 64.5q80 0 133.5 -46t53.5 -99q0 -37 -21.5 -78t-52.5 -74t-63 -71l-63 -69q-44 -48 -59.5 -67.5t-44 -65.5t-38.5 -86t-17.5 -103.5t-5.5 -141.5l37 6q37 6 62 6l96 -12q-12 119 23.5 216t97 162.5t125 125t109.5 130.5t46 148 q0 143 -116.5 213t-278.5 70q-131 0 -242.5 -41t-158.5 -82l-46 -41v-207zM236 117q0 -68 39.5 -102.5t105.5 -34.5q63 0 101 39.5t38 101.5q0 57 -43 89t-104 32q-59 0 -98 -31t-39 -94z" />
<glyph unicode="@" horiz-adv-x="1996" d="M121 416q2 -184 52 -329.5t132 -236t194.5 -149.5t229.5 -83t246 -24q164 0 305 40t201 79l59 41v127h-33l-53 -33q-51 -35 -177 -68.5t-273 -33.5q-346 0 -520.5 177t-174.5 569q0 231 114 395t288 237.5t387 73.5q260 0 419.5 -150.5t159.5 -451.5q10 -248 -51 -356.5 t-145 -108.5q-45 0 -63.5 22.5t-18.5 79.5v689h-68l-35 -33q-35 -35 -36 -31l-39 23q-41 25 -115 47t-143 22q-180 0 -300 -122.5t-120 -338.5q0 -272 99 -395t292 -123q68 0 135.5 31t101.5 61l35 31l56 -114h43q88 18 142 33.5t129 46t120 72.5t89 103.5t64.5 151.5 t20.5 207q0 356 -210 554t-558 198q-129 0 -257 -26t-262 -93.5t-234.5 -169t-165 -267t-62.5 -374.5zM764 457q0 147 59.5 237t184.5 90q18 0 36.5 -1t34.5 -4l32 -6q15 -3 28.5 -5t24 -5t17.5 -6t11 -3l4 -2l2 -332q2 -276 -201 -277q-117 0 -175 85.5t-58 228.5z" />
<glyph unicode="A" horiz-adv-x="1484" d="M41 0q0 6 217 6l299 -6v123q-96 0 -134 29q-27 21 -28 62q0 16 4 34l52 164q0 4 268 4l266 -4l47 -168q2 -10 2 -20q0 -42 -29 -68q-36 -33 -126 -33v-123q0 6 309 6l256 -6v123q-49 0 -72.5 22.5t-46 69.5t-227.5 631t-201 588q0 -6 -152 -7l-161 7l-426 -1203 q-23 -59 -45.5 -83.5t-71.5 -24.5v-123zM504 578q12 66 110 358l99 293l100 -287q100 -285 119 -364q0 -6 -217 -7z" />
<glyph unicode="B" horiz-adv-x="1333" d="M102 0l123 4q123 4 199 4q63 0 184 -4t226 -4q123 0 214 38t137 99.5t66.5 127t20.5 134.5q0 160 -105.5 256.5t-255.5 114.5v10q37 10 70 26.5t83 49.5t81 91.5t31 131.5q0 174 -134.5 264.5t-377.5 90.5q0 -6 -291 -7l-260 7v-123q90 0 133 -16.5t50 -36t5 -62.5 q6 0 6 -418l-6 -452q0 -115 -40 -159t-159 -44v-123zM541 680h88q190 0 276 -82t86 -219q0 -100 -67.5 -168t-175.5 -68h-50q-84 0 -118.5 50.5t-34.5 109.5zM541 823v467h94q117 0 196.5 -53t79.5 -176q0 -109 -84 -172.5t-227 -63.5z" />
<glyph unicode="C" horiz-adv-x="1320" d="M102 727q2 -340 181.5 -552t500.5 -212q113 0 214.5 20.5t158.5 46t90 46.5l33 20v266q-78 0 -78 -2l-18 -32q-18 -33 -57.5 -74t-121 -74t-186.5 -33q-215 0 -329.5 166t-114.5 420q0 252 118.5 406.5t315.5 154.5q244 0 260 -209v-30h201v297l-47 28q-47 31 -160 60.5 t-244 29.5q-125 0 -246.5 -44t-229 -131t-174.5 -234.5t-67 -333.5z" />
<glyph unicode="D" horiz-adv-x="1507" d="M102 0l316 6q37 0 149.5 -3t257.5 -3q283 0 452 188.5t169 507.5q0 342 -221 559q-96 94 -244 138q-141 41 -285 41h-14q-53 0 -155.5 -1t-145.5 -1l-264 2v-121q90 0 132 -15.5t49 -37t7 -72.5q6 0 6 -410q0 -119 -3 -280.5t-3 -182.5q0 -117 -43 -154.5t-160 -37.5 v-123zM545 743q0 537 6 541q0 6 121 6q231 0 367.5 -153.5t136.5 -446.5q0 -272 -96.5 -408.5t-305.5 -136.5l-67 -2q-156 0 -156 199q-6 0 -6 401z" />
<glyph unicode="E" horiz-adv-x="1318" d="M102 0l119 4q119 4 207 4l819 -8v348h-162q0 -184 -202 -184h-330q-4 0 -4 467h184q35 0 54.5 -6.5t26.5 -26.5t8 -31.5t1 -50.5h123v383h-127q0 -39 -1 -47t-5 -31.5t-13 -29t-26.5 -11.5t-44.5 -6h-180l4 496h289q68 0 110.5 -15.5t60 -47t22.5 -57.5t5 -67h146v351 l-301 -4q-301 -4 -449 -5l-323 9v-123q131 -2 161.5 -30t30.5 -105q6 -119 6 -445q0 -174 -6 -407q0 -117 -45 -159t-158 -42v-123z" />
<glyph unicode="F" horiz-adv-x="1220" d="M102 0l322 6l350 -6v123q-158 0 -187.5 19.5t-33.5 119.5q-4 0 -4 350h160q33 0 52 -6t27.5 -24.5t10.5 -34t2 -49.5h119v383h-123q0 -37 -2 -54.5t-10.5 -37t-28 -26.5t-54.5 -7h-153l4 514h285q117 -2 158.5 -48t41.5 -137h142v349l-269 -4q-268 -4 -374 -5l-420 9 v-123q68 0 107.5 -7.5t57 -28t20.5 -39.5t3 -60t3 -174.5t3 -223.5t-3 -250.5t-3 -203.5q0 -119 -47 -160t-156 -41v-123z" />
<glyph unicode="G" horiz-adv-x="1466" d="M102 706.5q0 -161.5 44 -291.5t115 -213t166 -138.5t190.5 -78t193.5 -22.5q131 0 254 33t180 65l58 35v375q0 27 1 38t9 23.5t24.5 16.5t46.5 4v133q0 -6 -227 -6l-340 6v-133h162q63 0 79.5 -13.5t16.5 -56.5v-282l-26 -17q-27 -14 -89.5 -29.5t-136.5 -15.5 q-449 0 -448 596q0 250 124 404.5t326 154.5q141 0 207 -57t66 -152v-30h205v297l-46 28q-45 31 -158.5 60.5t-248.5 29.5q-90 0 -186.5 -24.5t-197.5 -82.5t-181 -142t-131.5 -218.5t-51.5 -296z" />
<glyph unicode="H" horiz-adv-x="1669" d="M102 0q0 6 310 6l295 -6v123q-88 0 -126 12t-43.5 28.5t-5.5 63.5l-4 439q0 6 306 6l309 -6l-4 -361q0 -98 -37 -140t-139 -42v-123l323 6l281 -6v123q-127 0 -160 20.5t-33 73.5l-6 516l6 404q0 90 43 132t150 42v123q0 -6 -316 -7l-288 7v-123q117 0 146.5 -23.5 t29.5 -85.5l4 -368l-309 -5l-306 5q4 0 4 303q0 96 37 135t138 39v123q0 -6 -306 -7l-299 7v-123q119 0 155 -23.5t36 -79.5l6 -430q0 -76 -3 -249t-3 -218q0 -106 -45 -147t-146 -41v-123z" />
<glyph unicode="I" horiz-adv-x="839" d="M102 0l328 8l307 -8v123q-123 0 -159.5 21.5t-36.5 70.5q-6 0 -6 563q0 131 3 235.5t3 114.5q0 96 36.5 139.5t149.5 43.5v123l-127 -4q-127 -4 -180 -5l-307 9v-123q90 0 132 -13.5t50 -32t8 -57.5l4 -149q3 -100 3 -191q0 -46 -1 -90q0 -86 -3 -260t-3 -213 q0 -94 -46 -138t-155 -44v-123z" />
<glyph unicode="J" horiz-adv-x="829" d="M-41 -285v-157l27 -25q27 -25 94 -49.5t151 -24.5q178 0 275 142q76 111 76 344l-9 250q-6 250 -6 583l6 340q2 102 40 147.5t135 45.5v123q0 -6 -316 -7l-334 7v-123q156 0 195 -30t39 -112q6 0 6 -391l-6 -930q-4 -109 -33 -147q-37 -53 -125 -53q-53 0 -96 16.5 t-58 32.5l-16 18h-45z" />
<glyph unicode="K" horiz-adv-x="1603" d="M102 0q0 6 299 6l293 -6v123q-113 0 -135 20.5t-22 98.5v293q0 12 86 75l88 66l86 -103q86 -104 174 -223t94 -149q1 -7 1 -14q0 -32 -26 -47q-31 -17 -90 -17v-123q0 6 328 6l285 -6v123q-94 0 -162 80l-246 305q-244 307 -244 315l437 420l47 37q18 14 43.5 22.5 t64.5 8.5v123q0 -6 -268 -7l-268 7v-123q127 0 127 -56q0 -49 -260.5 -275t-296.5 -228v405q0 86 42 120t138 34v123q0 -6 -297 -7l-316 7v-123q68 0 107 -7.5t55.5 -29t20.5 -37.5t4 -57l4 -148q4 -150 4 -254l-8 -452q0 -115 -37 -159t-152 -44v-123z" />
<glyph unicode="L" horiz-adv-x="1189" d="M72 0l374 8l723 -6v348h-163q-2 -102 -47.5 -144t-153.5 -42h-283q-6 0 -6 614l6 363q0 96 45 133t135 37v123q0 -6 -288 -7l-328 7v-2v-2v-3v-2v-2v-2v-2v-2v-2v-2v-2v-2v-2v-2v-2v-4v-2v-2v-4v-2v-3v-4v-2v-4v-2v-4v-2v-4v-4v-2v-4v-4v-4v-3v-4v-4v-4v-4v-16 q129 0 159.5 -27t30.5 -106q6 0 7 -400l-7 -452q0 -121 -49 -162t-155 -41v-123z" />
<glyph unicode="M" horiz-adv-x="1982" d="M82 0q0 6 250 6l268 -6v123q-104 0 -132 25.5t-28 101.5l11 299q12 297 30 575q72 -186 194 -569t177 -535h233q225 793 340 1104q53 -556 53 -768q0 -35 -1 -61q-4 -88 -54.5 -130t-126.5 -42v-123q0 6 332 6l273 -6v123q-109 0 -136.5 29.5t-33.5 134.5l-35 385 q-37 387 -37 493q0 68 46 107t126 39v123q0 -6 -248 -7l-246 7q-74 -201 -200.5 -634t-143.5 -478q-14 61 -151 469.5t-240 642.5q-70 -2 -225 -7l-250 7v-123q66 0 103.5 -7.5t53 -31t18.5 -43t3 -64.5l-51 -821q-10 -117 -44 -169t-128 -52v-123z" />
<glyph unicode="N" horiz-adv-x="1673" d="M102 0q0 6 285 6l281 -6v123q-121 0 -150 27.5t-29 121.5l-8 506v57q0 142 8 287q78 -104 353.5 -589.5t322.5 -532.5q0 4 158 4l125 -4q-6 0 -6 778q0 76 3 205t3 139q0 96 41 142.5t133 46.5v123q0 -6 -299 -7l-262 7v-2v-2v-3v-2v-2v-2v-2v-2v-2v-4v-2v-2v-2v-2v-2v-4 v-2v-2v-4v-3v-2v-4v-2v-4v-2v-4v-2v-4v-4v-2v-4v-4v-5v-2v-4v-4v-4v-18q63 0 101 -8.5t52.5 -31t17.5 -37.5t3 -54l6 -402q0 -238 -6 -483q-25 39 -329 572.5t-365 566.5q0 -6 -209 -7l-219 7v-123q57 0 90 -7.5t46 -31t15 -42t2 -65.5q6 0 6 -387q0 -113 -3 -287t-3 -204 q0 -86 -39 -125t-125 -39v-123z" />
<glyph unicode="O" horiz-adv-x="1595" d="M102 719q0 -209 75 -377t238 -273.5t392 -105.5q213 0 371.5 110.5t236.5 288t78 390.5q0 317 -185.5 517.5t-521.5 200.5q-281 0 -482.5 -206.5t-201.5 -544.5zM375 733.5q0 106.5 21.5 202.5t66.5 181t127 135.5t188 50.5q201 0 317.5 -162t116.5 -424q0 -111 -18 -207 t-61 -183t-123 -137.5t-191 -50.5q-121 0 -211 54.5t-139 145.5t-71.5 189.5t-22.5 205z" />
<glyph unicode="P" horiz-adv-x="1228" d="M102 0l293 6l328 -6v123q-131 0 -166 32.5t-35 112.5l-4 322l232 2q197 0 327.5 114.5t130.5 288.5q0 203 -146.5 321t-377.5 118q-76 0 -174 -3.5t-152 -3.5l-247 7v-123q57 0 89.5 -8.5t46 -31t16.5 -41t3 -59.5q6 0 6 -393q0 -111 -3 -288t-3 -203q0 -164 -164 -164 v-123zM518 739l4 549h115q106 0 174 -44t90.5 -97t26.5 -98l4 -43q0 -125 -70.5 -196t-187.5 -71h-156z" />
<glyph unicode="Q" horiz-adv-x="1597" d="M102 719q0 338 202 544.5t482 206.5q336 0 521.5 -200.5t185.5 -517.5q0 -207 -87 -393.5t-232 -292.5l221 -216q12 -14 5 -28.5t-34 -14.5l-164 -2q-59 0 -80 33l-121 158q-104 -33 -194 -33q-229 0 -392 105.5t-238 273.5t-75 377zM375 733.5q0 -106.5 22.5 -205 t71.5 -189.5t139 -145.5t211 -54.5q109 0 187.5 48.5t123 132t63.5 182t19 215.5q0 262 -116.5 424t-317.5 162q-106 0 -188 -50.5t-127 -135.5t-66.5 -181t-21.5 -202.5z" />
<glyph unicode="R" horiz-adv-x="1490" d="M102 0q0 6 285 6l309 -6v123q-104 0 -129.5 27.5t-25.5 101.5l-4 381q121 0 259 -155.5t165 -264.5q4 -16 3 -29q0 -61 -79 -61v-123q0 6 256 6l309 -6v123q-113 0 -152 61l-227 342q-55 84 -203 129v9q98 18 181.5 56t150 121t66.5 195q0 209 -155 303.5t-415 94.5 q-25 0 -147.5 -3.5t-173.5 -3.5q-43 0 -92.5 1.5l-82 2.5t-57.5 3h-24v-123q59 0 94 -7.5t50.5 -29t19.5 -38.5t4 -54q6 0 6 -404l-6 -473q0 -92 -42 -137t-143 -45v-123zM537 764l4 526h108q147 0 243.5 -61.5t96.5 -198.5q0 -115 -109.5 -190.5t-273.5 -75.5h-69z" />
<glyph unicode="S" horiz-adv-x="1222" d="M102 115l66 -37q68 -39 191.5 -77t236.5 -38q238 0 381 117t143 303q0 86 -29.5 153.5t-93 120t-113.5 82t-141 72.5l-104 47q-74 33 -103.5 50.5t-73.5 48t-61.5 67.5t-17.5 82q0 66 58.5 131.5t174.5 65.5q211 0 232 -158l-2 -68h201v275l-52 28q-49 31 -157.5 60.5 t-227.5 29.5q-219 0 -351 -111.5t-132 -281.5q0 -139 80 -228t223 -163q39 -20 116 -56t116.5 -57.5t89 -56.5t71 -76t21.5 -90q0 -92 -69.5 -149.5t-170.5 -57.5q-152 0 -225.5 60.5t-73.5 161.5l-2 55h-201v-305z" />
<glyph unicode="T" horiz-adv-x="1337" d="M41 1059h166q0 119 74.5 165t267.5 46v-492l-6 -520q0 -47 -10.5 -71.5t-56.5 -44t-138 -19.5v-123l334 6l321 -6v2v2v2v2v2v2v2v2v2v2v3v2v2v2v4v2v2v4v2v2v4v2v4v2v4v2v5v4v2v4v4v4v2v4v4v4v4v19q-129 0 -163.5 29.5t-34.5 105.5q-6 0 -7 520v492q193 0 269 -44 t76 -167h163v375q0 -6 -630 -7l-625 7v-375z" />
<glyph unicode="U" horiz-adv-x="1615" d="M61 1309q57 0 92 -7.5t50.5 -24.5t18.5 -32.5t3 -44.5q6 0 6 -422q0 -90 -3 -177t-3 -138q0 -92 30 -176t95.5 -159t187 -120t285.5 -45q156 0 268.5 47t174 131t89 185.5t27.5 224.5l-6 227l6 340q0 190 172 191v125q0 -6 -278 -7l-307 7v-2v-2v-3v-2v-2v-2v-2v-2v-2v-2 v-2v-2v-4v-2v-2v-2v-2v-4v-2v-2v-5v-2v-4v-2v-2v-4v-4v-2v-4v-2v-4v-4v-2v-5v-4v-2v-4v-4v-4v-16q84 0 126 -18.5t50 -42t10 -70.5q6 0 6 -400v-211q0 -418 -325 -417q-190 0 -273.5 114.5t-83.5 335.5l6 518q0 102 45 146.5t142 44.5v125q0 -6 -322 -7l-289 7v-125z" />
<glyph unicode="V" horiz-adv-x="1509" d="M20 1311q43 0 68 -14.5t33 -35t20 -42.5l490 -1219q0 6 135 6q14 1 30 1q30 0 64 -3l51 -4l224 586q225 588 227 588q35 86 59.5 111.5t67.5 25.5v123q0 -6 -203 -7l-313 7v-123q111 0 140 -30q20 -20 20 -56q0 -18 -5 -39q-23 -123 -149.5 -473.5t-177.5 -450.5 q-59 106 -188.5 441t-155.5 458q-6 25 -6 45q0 104 147 105v123q0 -6 -344 -7l-234 7v-123z" />
<glyph unicode="W" horiz-adv-x="2197" d="M20 1311q35 0 58.5 -7.5t37 -27t16.5 -25.5t13 -32l478 -1219q0 4 127 4l124 -4l281 547l227 -547q0 4 138 4l120 -4l418 1204q39 106 127 107v123q0 -4 -250 -4l-280 4v-2v-2v-3v-2v-2v-2v-2v-2v-2v-4v-2v-2v-2v-2v-2v-4v-2v-2v-4v-3v-2v-4v-2v-4v-2v-4v-2v-4v-4v-2v-4 v-4v-5v-2v-4v-4v-4v-18q100 0 141 -26q33 -20 33 -59q0 -10 -2 -20q-16 -94 -127 -439t-174 -503l-107 270l-103 269q-48 125 -82 234.5t-40 162.5q-1 8 -1 15q0 53 41 73q46 23 126 23v123q0 -4 -328 -4l-268 4v-123q104 0 143 -99l80 -214.5t62 -190.5q0 -43 -110 -273.5 t-138 -269.5q-74 156 -204 486.5t-146 425.5q-5 24 -5 44q0 38 18 59q28 32 95 32v123q0 -4 -272 -4q-51 0 -159 3q-65 2 -90 1h-18v-123z" />
<glyph unicode="X" horiz-adv-x="1570" d="M41 0l90 4q90 4 139 4l322 -8v123q-117 0 -117 67q0 39 128 195q126 154 142.5 154t133 -150.5t122.5 -187.5q2 -9 2 -17q0 -27 -21 -42q-28 -19 -93 -19v-123l321 8l324 -8v123q-82 0 -145 63q-109 109 -263.5 295.5t-199.5 255.5l395 492q70 82 174 82v123 q0 -6 -283 -7l-266 7v-123q72 0 96.5 -15.5t20.5 -48.5q-4 -49 -126 -198.5t-140 -149.5q-14 0 -124 148.5t-120 187.5q-3 11 -3 20q0 26 21 38q29 17 86 18v123q0 -6 -335 -7l-277 7v-123q57 0 96 -15.5t82 -70.5l391 -529q0 -20 -165 -214l-265 -300l-16 -14 q-14 -16 -50 -30.5t-77 -14.5v-123z" />
<glyph unicode="Y" horiz-adv-x="1413" d="M20 1311q39 0 62.5 -17.5t62.5 -74.5l203 -330q201 -328 221 -369q23 -43 25 -78l4 -32l-2 -166q0 -74 -27.5 -97.5t-142.5 -23.5l2 -123q0 8 317 8l285 -8v123q-84 0 -120 13.5t-42 33.5t-6 74v200q0 47 21 103q57 135 420 717q23 29 38 37t52 10v123q0 -6 -217 -7 l-273 7v-123q70 0 106 -27q25 -18 24 -52q0 -15 -5 -34q-16 -61 -123.5 -238.5t-161.5 -244.5q-25 23 -155.5 231.5t-141.5 255.5q-3 15 -3 28q0 35 24 54q33 27 90 27v123q0 -6 -293 -7l-244 7v-123z" />
<glyph unicode="Z" horiz-adv-x="1304" d="M82 0l524 6l617 -6v369h-166q0 -98 -44 -141.5t-165 -43.5h-455q0 53 104.5 174t277.5 301.5t263 292.5q164 205 164 297v185q0 -6 -608 -7l-471 7v-361h168q0 94 45 135t160 41h456q0 -59 -90 -167.5t-278.5 -295t-261.5 -266.5q-240 -262 -240 -336v-184z" />
<glyph unicode="[" horiz-adv-x="512" />
<glyph unicode="\" horiz-adv-x="985" />
<glyph unicode="]" horiz-adv-x="512" />
<glyph unicode="^" horiz-adv-x="962" />
<glyph unicode="_" horiz-adv-x="1024" d="M0 -205h1024v-123h-1024v123z" />
<glyph unicode="`" horiz-adv-x="548" />
<glyph unicode="a" horiz-adv-x="1032" d="M72 219q0 -86 75.5 -167t214.5 -81q94 0 162 24.5t97.5 48.5t33.5 24l80 -88h41l64 10q66 10 141 10v123q-39 0 -57.5 1t-40 8t-28.5 22.5t-7 42.5v467q0 94 -33 154.5t-93 87t-116.5 35.5t-134.5 9q-98 0 -182 -27.5t-121 -54.5l-35 -28v-181h164q0 84 45 116t139 32 q80 0 107.5 -37t27.5 -111v-84l-122 -22q-123 -20 -220 -59q-123 -49 -162.5 -119t-39.5 -156zM311 252q0 63 48.5 107t104.5 60.5t105 22.5l47 7v-193q0 -74 -44 -107.5t-107 -33.5q-70 0 -112 33.5t-42 103.5z" />
<glyph unicode="b" horiz-adv-x="1093" d="M31 1434h31q15 0 28.5 -1t26 -4.5t23 -10.5t16.5 -16t10 -25.5t4 -37.5q6 0 6 -561l-6 -778h102l74 102q4 0 42 -32.5t112.5 -65.5t167.5 -33q174 0 279.5 132.5t105.5 375.5q0 125 -40 221.5t-101.5 147.5t-126 76.5t-126.5 25.5q-68 0 -129 -18.5t-98 -35.5t-43 -17 l4 688h-59l-92 -11q-92 -10 -211 -10v-112zM385 399l8 353l60 8q59 8 118.5 8t104.5 -19.5t70.5 -49t41 -71.5t20.5 -78t5 -77q0 -326 -203 -326q-121 0 -173 73t-52 179z" />
<glyph unicode="c" horiz-adv-x="960" d="M72 436q0 -121 42 -214t110.5 -145t145 -79t156.5 -27q104 0 197.5 26t134.5 50l41 25v176h-53l-33 -31q-33 -29 -103.5 -58.5t-146.5 -29.5q-125 0 -193.5 86t-68.5 242q0 53 11.5 107t37 109.5t76.5 89.5t123 34q59 0 99 -29t53.5 -64.5t15.5 -64.5l4 -29h178v221 l-39 29q-39 31 -123 60.5t-174 29.5q-207 0 -349 -132t-142 -382z" />
<glyph unicode="d" horiz-adv-x="1148" d="M82 477q0 -254 109.5 -380t271.5 -126q88 0 162.5 33t111.5 66l39 32l80 -122h37l65 10q68 10 150 10v123q-43 0 -63.5 1t-45 8t-34 23.5t-9.5 45.5q-6 0 -6 577l6 789h-53l-88 -11q-90 -10 -227 -10v-112q41 0 60.5 -2t45 -11.5t36.5 -32t11 -61.5v-446q-4 0 -39.5 17 t-97 34.5t-131.5 17.5q-154 0 -272.5 -124t-118.5 -349zM313 473q0 164 71 231.5t179 67.5q39 0 85 -5t70.5 -9t22.5 -2l4 -361q2 -102 -55 -173.5t-168 -71.5q-209 -1 -209 323z" />
<glyph unicode="e" horiz-adv-x="1032" d="M72 440q0 -209 111.5 -339t344.5 -130q104 0 198.5 24.5t135.5 49.5l41 25l2 166h-57l-31 -27q-31 -27 -98.5 -53.5t-140.5 -26.5q-123 0 -195 69.5t-80 213.5v20h647v72q0 82 -17.5 153.5t-59.5 141t-126.5 110.5t-205.5 41q-57 0 -116.5 -15t-124 -53t-115 -93.5 t-82 -146.5t-31.5 -202zM315 571q0 20 10.5 55.5t32 78.5t67.5 72.5t107 29.5q72 0 119 -46t61 -96q10 -38 10 -73q0 -11 -1 -21h-406z" />
<glyph unicode="f" horiz-adv-x="784" d="M51 0q55 0 155.5 4t135.5 4t137.5 -4t151.5 -4v123q-125 0 -155 19.5t-30 74.5l-4 559h209v146h-209q4 0 4 225q0 201 152 201q45 0 78 -11.5t60.5 -32t33.5 -22.5h33v51v68l2 33l-27 20q-29 20 -85 39.5t-111 19.5q-168 0 -260.5 -105t-92.5 -249l4 -237h-182v-146h182 l-4 -502q-2 -84 -42 -117.5t-136 -33.5v-123z" />
<glyph unicode="g" horiz-adv-x="1038" d="M72 475q0 -98 19.5 -184t61.5 -160t118.5 -117t181.5 -43q61 0 117.5 19.5t89 43t53.5 44.5l18 18v-188q0 -147 -75.5 -212t-194.5 -65q-76 0 -138.5 20.5t-86.5 41.5l-25 22h-41v-157l29 -25q29 -25 102.5 -49.5t163.5 -24.5q115 0 204 31t140 78t83 111.5t43 122 t11 116.5q0 35 -3 253t-3 280l6 471h-53l-111 -54q-4 0 -110.5 41t-208.5 41q-156 0 -273.5 -128t-117.5 -347zM303 471q4 295 252 301q23 0 46.5 -1t42 -3t34.5 -5l27 -5q10 -2 16 -4l6 -2q4 0 4 -351q0 -129 -63.5 -190t-155.5 -61q-209 0 -209 309v12z" />
<glyph unicode="h" horiz-adv-x="1222" d="M61 0l265 6l213 -6v123q-82 0 -100.5 16.5t-18.5 59.5l-4 520l76 18q76 16 145 17q113 0 144.5 -60.5t31.5 -206.5v-223q0 -80 -35 -110.5t-110 -30.5v-123l256 6l237 -6v123q-76 0 -96.5 12t-20.5 47v379q0 381 -319 381q-78 0 -155.5 -25.5t-114.5 -52.5l-39 -24l4 727 h-47l-97 -11q-96 -10 -215 -10v-112q45 0 68 -3.5t45.5 -21.5t22.5 -57q6 0 6 -574q0 -127 -3 -309t-3 -203q0 -82 -30 -112.5t-106 -30.5v-123z" />
<glyph unicode="i" horiz-adv-x="712" d="M61 0l129 4q129 4 172 4l289 -8v123q-131 0 -161.5 16.5t-30.5 67.5l-2 502l-2 233h-62l-88 -10q-88 -10 -233 -10v-113q33 0 50 -1t44 -5t40 -13.5t24.5 -29t11.5 -45.5v-471q0 -121 -181 -121v-123zM166 1294q0 -76 41 -113.5t108 -37.5q63 0 102.5 44t39.5 111 q0 66 -44 101t-108 35q-59 0 -99 -34t-40 -106z" />
<glyph unicode="j" horiz-adv-x="571" d="M-51 -332v-145l18 -15q20 -16 66.5 -32.5t99.5 -16.5q156 0 246 103q70 80 70 256l-7 592l7 532h-62l-22 -4q-25 -6 -109 -11t-203 -5v-2v-2v-3v-2v-2v-2v-2v-2v-2v-2v-2v-2v-4v-2v-2v-2v-4v-2v-2v-5v-2v-4v-2v-4v-4v-2v-4v-2v-4v-4v-4v-2v-5v-4v-18q37 0 55.5 -1t46 -5 t41 -14.5t23.5 -29t10 -46.5q6 0 7 -303v-598q0 -100 -32 -144.5t-102 -44.5q-39 0 -67.5 11.5t-38.5 21.5l-10 12h-37zM131 1296q0 -51 41 -95t110.5 -44t104.5 43t35 105q0 57 -39 93t-109 36q-74 0 -108.5 -41.5t-34.5 -96.5z" />
<glyph unicode="k" horiz-adv-x="1232" d="M61 0q0 6 244 6l238 -6v123q-68 0 -86.5 13.5t-18.5 49.5v162l168 121l154 -256q12 -25 12 -42q0 -48 -84 -48v-123q0 6 266 6l238 -6v123q-82 2 -129 53q-106 119 -281 416q55 47 105.5 96t115 85t121.5 36h39v113q0 -6 -200 -7l-322 7v-113h49q66 0 66 -35 q0 -33 -149.5 -151.5t-168.5 -118.5q-6 0 -6 274l6 789h-49l-104 -11q-104 -10 -213 -10v-112q37 0 56 -2t44 -12.5t35 -33t10 -61.5q0 -6 3 -223t3 -324q0 -61 -1 -156.5t-2 -173t-3 -137.5v-59q0 -72 -37 -100.5t-119 -28.5v-123z" />
<glyph unicode="l" horiz-adv-x="702" d="M51 0l318 8l282 -8v123q-127 0 -156.5 21.5t-29.5 78.5l-6 555l4 789h-55l-93 -11q-94 -10 -241 -10v-112q47 0 67.5 -2t49 -12.5t40 -36t11.5 -70.5q4 -43 4 -254t-2 -475.5t-2 -298.5q0 -162 -191 -162v-123z" />
<glyph unicode="m" horiz-adv-x="1806" d="M61 0q0 6 211 6l267 -6v123q-57 0 -83 11t-29 19.5t-7 41.5q-4 0 -4 256l4 286l51 17q49 14 127 14q119 0 168 -57.5t49 -214.5v-195q0 -178 -153 -178v-123l221 6l268 -6l-2 123q-57 0 -85 9t-30 14.5t-6 29.5l-4 109q-4 109 -4 188l-2 256l55 21q57 18 131 18 q68 0 112 -21.5t63.5 -63.5t25.5 -83t6 -102v-197q0 -102 -35 -140t-119 -38v-123q0 6 259 6l229 -6v123q-82 0 -98.5 9t-16.5 44v385v15q0 170 -91 270q-95 104 -263 104q-74 0 -158 -25.5t-131 -52.5l-45 -24l-24 24q-27 27 -91.5 52.5t-140.5 25.5q-66 0 -138.5 -24.5 t-113.5 -48.5l-41 -25l-45 90l-76 -10q-76 -10 -211 -10v-113q33 0 51.5 -3t40 -14.5t32 -39t10.5 -72.5l4 -229l-4 -199q-2 -61 -29 -95t-105 -34v-123z" />
<glyph unicode="n" horiz-adv-x="1241" d="M82 0v123q127 0 131 143l6 193l-6 250q0 57 -28.5 78.5t-92.5 21.5v113q94 0 153.5 5t84 10t37.5 5l45 -78q2 0 37.5 21.5t101 43t141.5 21.5q145 0 259 -99t114 -292v-364q0 -33 4 -45.5t29.5 -21.5t81.5 -9v-119q0 6 -256 6l-248 -6v123q172 0 172 194v170 q0 162 -54.5 222.5t-175.5 60.5q-78 0 -131 -8l-53 -10q-4 0 -4 -275l2 -274q0 -33 4 -46.5t32 -23.5t87 -10v-123q0 6 -238 6z" />
<glyph unicode="o" horiz-adv-x="1062" d="M72 440q0 -469 460 -469q201 0 330 137.5t129 387.5q0 135 -42 229t-113.5 141t-145.5 65.5t-160 18.5q-84 0 -161.5 -28.5t-146 -87t-109.5 -161t-41 -233.5zM301 451q0 178 53.5 267t173.5 89q111 0 174.5 -75t63.5 -224q0 -389 -223 -389q-242 0 -242 332z" />
<glyph unicode="p" horiz-adv-x="1167" d="M51 -389v-123q0 8 289 8l278 -8v123q-82 0 -120.5 14.5t-45 30.5t-6.5 57v2v2v2v2v3v2v2v2v2v2v2v2v2v2v2v2v2v2v2v2v2v2v2v2v2v3v2v2v2v2v2v2v2v2v2v2v2v2v2v4v2v2v2v2v2v3v4v2v2v2v4v2v2v2v4v2v2v4v2v2v4v3v2v4v2v2v4v2v4v2v2v4v2v4v2v5v2v4v2v4v2v4v2v4v2v4v2v4v2v5v4 v2v4v2v4v4v2v4v4v2v4v4v3v4v4v2v4v4v2v4v4v4v2v4v5v4v4v2v4v4v4v4v2v4v4v4v5v4v2v4v18q0 -4 30 -32.5t96.5 -60.5t142.5 -32q174 0 279.5 131t105.5 371q0 215 -114 346t-271 131q-104 0 -215 -41l-109 -41l-59 74l-78 -10q-78 -10 -188 -10v-113q41 0 61 -3t47 -13.5 t38 -38t11 -72.5q6 0 6 -334q0 -125 -3 -330.5t-3 -238.5q0 -88 -40 -128t-132 -40zM442 410l4 344l66 8q68 6 113 6q246 0 245 -295q0 -326 -202 -326q-98 0 -162 71t-64 192z" />
<glyph unicode="q" horiz-adv-x="1134" d="M76 475q0 -252 110.5 -378t272.5 -126q78 0 145.5 31t95.5 64l31 30v-311q0 -174 -192 -174v-123q0 6 290 6l285 -6v123q-78 0 -112.5 13.5t-41 29.5t-6.5 59q0 66 -6 594l6 615h-57l-111 -54l-110 41q-109 41 -211 41q-57 0 -119.5 -24.5t-126 -75.5t-103.5 -148.5 t-40 -226.5zM309 471q0 297 244 297q63 0 121 -6l57 -8l6 -357q2 -119 -58.5 -183t-158.5 -64q-211 -1 -211 321z" />
<glyph unicode="r" horiz-adv-x="882" d="M61 0l293 6l258 -6v123q-84 0 -117.5 11t-39.5 28.5t-9 70.5v504l39 21q39 18 84 18q100 0 101 -84v-39h182v256l-61 21q-61 20 -144 20q-59 0 -120.5 -24.5t-98.5 -50t-39 -25.5l-57 92l-86 -10q-86 -10 -185 -10v-113q57 0 85 -4t49.5 -26.5t21.5 -67.5q4 0 4 -260 l-4 -172q4 -156 -156 -156v-123z" />
<glyph unicode="s" horiz-adv-x="886" d="M82 676q0 -88 53 -147.5t128 -88t149.5 -52t128 -60.5t53.5 -92q0 -53 -48 -86t-110 -33q-88 0 -140 46t-52 138h-158v-215l43 -29q43 -29 128 -57.5t169 -28.5q186 0 282.5 81t96.5 212q0 66 -26.5 115t-76 81t-96.5 50t-113.5 40.5t-99.5 37.5q-102 45 -102 117 q0 51 44 82.5t107 31.5q80 0 115 -33.5t35 -109.5h151v188l-32 21q-33 23 -113 44t-176 21q-141 0 -240.5 -74.5t-99.5 -199.5z" />
<glyph unicode="t" horiz-adv-x="813" d="M41 778h186v-512q0 -123 82 -209t211 -86q78 0 140.5 23.5t87.5 46.5l24 25v116h-37l-35 -16q-37 -16 -75 -16q-104 0 -137 54t-33 206v368h299v144h-297l2 258h-174q0 -168 -50.5 -223.5t-193.5 -55.5v-123z" />
<glyph unicode="u" horiz-adv-x="1189" d="M51 809q41 0 61.5 -3t39 -25.5t18.5 -69.5v-387q0 -168 107.5 -260.5t252.5 -92.5q76 0 151 35t110 68l36 35l95 -129l79 10q80 10 168 10v113q-154 0 -153 112q-4 0 -4 318l4 399h-43q-170 -20 -309 -20v-113q53 0 77.5 -4t42 -25.5t17.5 -66.5v-367q0 -88 -54.5 -142 t-138.5 -54q-129 0 -168 69.5t-39 249.5l7 473h-52q-184 -20 -305 -20v-113z" />
<glyph unicode="v" horiz-adv-x="1075" d="M20 799q35 0 50.5 -12.5t31.5 -45.5l338 -741q0 4 119 4l107 -4l309 733q18 41 33.5 53.5t46.5 12.5v123q0 -6 -181 -7l-212 7v-123q72 0 94 -18q15 -12 15 -38q0 -12 -3 -26q-14 -76 -78.5 -245t-111.5 -269q-133 287 -211 506q-8 21 -8 36q0 21 14 33q25 20 86 21v123 q0 -6 -238 -7l-201 7v-123z" />
<glyph unicode="w" horiz-adv-x="1607" d="M20 799q51 0 66.5 -10.5t36.5 -51.5l317 -737q0 4 95 4l112 -4l88 172q88 172 94 172l144 -344q0 4 106 4l109 -4l311 729q23 43 38 56.5t50 13.5v123q0 -6 -182 -7l-199 7v-123q72 0 90 -27q9 -13 9.5 -33t-9.5 -47q-12 -45 -98 -268t-90 -223q-6 -2 -46 117l-78 238 q-38 118 -46 149q-5 18 -5 32q0 62 93 62v123q0 -6 -231 -7l-187 7v-123q35 0 52.5 -5.5t22.5 -11.5t15 -24q2 -2 7 -14l9 -25l11 -33l12 -37l11.5 -35.5t8.5 -31t3 -21.5t-2 -8q0 -16 -83 -181t-91 -165q-4 0 -37 78l-69 170l-66 172l-31 80q-8 22 -8 37q0 21 13 33 q24 22 65 22v123q0 -6 -197 -7l-234 7v-123z" />
<glyph unicode="x" horiz-adv-x="1208" d="M61 0q0 6 170 6l256 -6v123q-61 0 -61 37q0 23 82 100l80 78l71 -72q70 -74 72 -102q2 -23 -18.5 -32t-46.5 -9v-123q0 6 288 6l193 -6v123q-78 0 -119 41l-143 151q-141 154 -141.5 162t132 141.5t136.5 131.5q61 45 133 49v123q0 -6 -170 -7l-238 7v-123q72 0 72 -47 q0 -25 -76 -99l-78 -73l-73 79q-74 80 -74 103q0 37 61 37v123q0 -6 -227 -7l-252 7v-123q94 0 143 -58l127 -139q127 -139 129 -156q0 -10 -124 -135l-127 -125q-47 -37 -82 -50t-95 -13v-123z" />
<glyph unicode="y" horiz-adv-x="1150" d="M20 799q45 0 64.5 -9.5t44.5 -48.5l195 -356q195 -354 196 -381q-20 -80 -33.5 -123t-44 -113.5t-77 -105.5t-107.5 -37q-45 0 -80 10.5t-47 20.5l-10 12h-37v-145l18 -15q20 -16 68.5 -32.5t105.5 -16.5q242 0 334 234l121 303l139 342q139 342 172 401q20 39 42 49.5 t61 10.5v123q0 -6 -209 -7l-213 7v-123q55 0 80.5 -15.5t25.5 -54.5q0 -55 -87 -272t-95 -217t-124.5 219t-116.5 268q0 72 88 72v123q0 -6 -238 -7l-236 7v-123z" />
<glyph unicode="z" horiz-adv-x="993" d="M92 0q0 6 389 6l420 -6v285h-135q0 -121 -100 -121h-320q0 25 134 147l269 256q134 133 134 181v174q0 -6 -402 -7l-389 7v-277h137q0 133 86 133h340q0 -31 -139 -154l-279 -257q-140 -133 -145 -183v-184z" />
<glyph unicode="{" horiz-adv-x="634" d="M123 705l20 -7q18 -6 43 -28.5t44.5 -87t19.5 -160.5v-25q0 -90 1 -134t3 -120.5t9 -115.5t19.5 -95.5t32 -85t46 -58.5t64.5 -42t87 -12q70 0 117 16l47 19v102h-25q-82 -29 -149 8q-41 37 -58.5 103.5t-16.5 125t7 164t6 162.5q0 90 -23.5 153.5t-50 88t-51.5 33.5 l-22 8l22 8q25 8 51.5 32.5t50 88t23.5 153.5q0 86 -5 206t-4 165t16.5 97.5t54.5 86.5q55 39 145 11h29v100l-47 18q-47 16 -117 17q-68 0 -117 -29t-75.5 -79t-44 -116.5t-20.5 -143.5t-5 -158.5t0 -161.5q0 -250 -127 -279v-28z" />
<glyph unicode="|" horiz-adv-x="389" />
<glyph unicode="}" horiz-adv-x="634" d="M-61 -129h24q82 -29 150 8q41 37 58 103.5t16 125t-7 164t-6 162.5q0 90 23.5 153.5t50 88t51.5 33.5l23 8l-23 8q-25 8 -51.5 32.5t-50 88t-23.5 153.5q0 86 5 206t4 165t-16 97.5t-54 86.5q-55 39 -146 11h-28v100l47 18q47 16 116 17q68 0 117 -29t76 -79t44 -116.5 t20 -143.5t5.5 -158.5t0.5 -161.5q0 -250 127 -279v-28l-21 -7q-18 -6 -43 -28.5t-44 -87t-19 -160.5v-25q0 -90 -1.5 -134t-3.5 -120.5t-9 -115.5t-19.5 -95.5t-31.5 -85t-46 -58.5t-64.5 -42t-87.5 -12q-70 0 -116 16l-47 19v102z" />
<glyph unicode="~" horiz-adv-x="956" />
<glyph unicode="&#xa1;" horiz-adv-x="514" />
<glyph unicode="&#xa2;" horiz-adv-x="1044" />
<glyph unicode="&#xa3;" horiz-adv-x="1241" />
<glyph unicode="&#xa4;" horiz-adv-x="1306" />
<glyph unicode="&#xa5;" horiz-adv-x="1400" />
<glyph unicode="&#xa6;" horiz-adv-x="389" />
<glyph unicode="&#xa7;" horiz-adv-x="1081" d="M109 530q0 -102 61 -180t148.5 -123t174.5 -85t148 -92t61 -118q0 -63 -48 -107t-134 -44q-88 0 -141 43t-53 113v30h-187v-198l45 -31q43 -29 138.5 -57.5t199.5 -28.5q182 0 290 96t108 217q0 61 -27 116.5t-58.5 86.5t-58.5 49l-26 16l34 25q35 23 77 61.5t77 105.5 t35 138q0 86 -61.5 154.5t-148.5 112.5l-174 85q-87 41 -148.5 93.5t-61.5 113.5q0 76 53 119t135 43t118 -33.5t36 -109.5v-35h180v217l-37 20q-37 23 -113.5 44.5t-158.5 21.5q-80 0 -151.5 -15.5t-137 -48t-104.5 -95t-39 -146.5q0 -66 45 -134.5t90 -105.5l47 -35 l-37 -22q-37 -23 -80 -58.5t-79.5 -95.5t-36.5 -123zM326 571q0 37 18 75t42 62.5l42 41.5l18 14l50 -21q49 -20 108.5 -55t108.5 -93t49 -120q0 -53 -33 -97t-65 -63l-33 -18l-49 18q-47 18 -103.5 50t-104.5 88.5t-48 117.5z" />
<glyph unicode="&#xa8;" horiz-adv-x="946" />
<glyph unicode="&#xa9;" horiz-adv-x="1814" />
<glyph unicode="&#xaa;" horiz-adv-x="819" />
<glyph unicode="&#xab;" horiz-adv-x="1173" d="M123 420q0 27 172 223l172 197h147v-31l-274 -389l274 -389v-31h-147l-172 195q-172 194 -172 225zM575 420q0 27 164 223l164 197h148v-31l-275 -389l275 -389v-31h-148l-164 195q-164 194 -164 225z" />
<glyph unicode="&#xac;" horiz-adv-x="983" />
<glyph unicode="&#xad;" horiz-adv-x="675" d="M82 389v164h512v-164h-512z" />
<glyph unicode="&#xae;" horiz-adv-x="1814" />
<glyph unicode="&#xaf;" horiz-adv-x="778" />
<glyph unicode="&#xb0;" horiz-adv-x="634" />
<glyph unicode="&#xb1;" horiz-adv-x="921" />
<glyph unicode="&#xb2;" horiz-adv-x="698" />
<glyph unicode="&#xb3;" horiz-adv-x="690" />
<glyph unicode="&#xb4;" horiz-adv-x="548" />
<glyph unicode="&#xb5;" horiz-adv-x="1277" />
<glyph unicode="&#xb6;" horiz-adv-x="1304" />
<glyph unicode="&#xb7;" horiz-adv-x="423" d="M82 696q0 -68 37 -102.5t96 -34.5q57 0 92 40t35 101q0 57 -39 89t-96 32q-53 0 -89 -31t-36 -94z" />
<glyph unicode="&#xb8;" horiz-adv-x="548" />
<glyph unicode="&#xb9;" horiz-adv-x="552" />
<glyph unicode="&#xba;" horiz-adv-x="794" />
<glyph unicode="&#xbb;" horiz-adv-x="1173" d="M123 0v31l274 389l-274 389v31h147l164 -195q164 -195 164 -225q0 -27 -164 -223l-164 -197h-147zM559 0v31l275 389l-275 389v31h148l172 -195q172 -195 172 -225q0 -27 -172 -223l-172 -197h-148z" />
<glyph unicode="&#xbc;" horiz-adv-x="1585" />
<glyph unicode="&#xbd;" horiz-adv-x="1695" />
<glyph unicode="&#xbe;" horiz-adv-x="1638" />
<glyph unicode="&#xbf;" horiz-adv-x="1005" />
<glyph unicode="&#xc0;" />
<glyph unicode="&#xc1;" />
<glyph unicode="&#xc2;" />
<glyph unicode="&#xc3;" />
<glyph unicode="&#xc4;" d="M41 0q0 6 211 6l262 -6v123q-84 0 -110.5 25.5t-18.5 66.5l59 197q0 4 244 4l258 -4l51 -189q8 -53 -21.5 -76.5t-113.5 -23.5v-123q0 6 299 6l232 -6v123q-39 0 -56.5 12t-36.5 51q-20 45 -212.5 644.5t-188.5 603.5q0 -6 -164 -7l-162 7l-423 -1213 q-23 -57 -43.5 -77.5t-65.5 -20.5v-123zM342 1700q0 -72 39 -108t102 -36q61 0 98 41t37 107q0 61 -41.5 95t-101.5 34q-57 0 -95 -32.5t-38 -100.5zM498 578q12 66 108 358l96 293l93 -287q90 -285 102 -364q0 -6 -213 -7zM848 1700q0 -72 39 -108t102 -36q61 0 98 41 t37 107q0 61 -42 95t-101 34q-57 0 -95 -32.5t-38 -100.5z" />
<glyph unicode="&#xc5;" d="M41 0q0 6 211 6l262 -6v123q-84 0 -110.5 25.5t-18.5 66.5l59 197q0 4 244 4l258 -4l51 -189q8 -53 -21.5 -76.5t-113.5 -23.5v-123q0 6 299 6l232 -6v123q-39 0 -56.5 12t-36.5 51q-20 45 -212.5 644.5t-188.5 603.5q0 -6 -164 -7l-162 7l-423 -1213 q-23 -57 -43.5 -77.5t-65.5 -20.5v-123zM498 578q12 66 108 358l96 293l93 -287q90 -285 102 -364q0 -6 -213 -7zM504 1712q0 92 63.5 145.5t159.5 53.5q98 0 160.5 -53.5t62.5 -145.5t-63.5 -145.5t-159.5 -53.5t-159.5 53.5t-63.5 145.5zM639 1712q0 -41 23.5 -65.5 t64.5 -24.5t65.5 24.5t24.5 65.5t-24.5 66.5t-65.5 25.5q-39 0 -63.5 -25.5t-24.5 -66.5z" />
<glyph unicode="&#xc6;" horiz-adv-x="1941" />
<glyph unicode="&#xc7;" horiz-adv-x="1230" />
<glyph unicode="&#xc8;" horiz-adv-x="1173" />
<glyph unicode="&#xc9;" horiz-adv-x="1177" />
<glyph unicode="&#xca;" horiz-adv-x="1185" />
<glyph unicode="&#xcb;" horiz-adv-x="1191" />
<glyph unicode="&#xcc;" horiz-adv-x="788" />
<glyph unicode="&#xcd;" horiz-adv-x="839" />
<glyph unicode="&#xce;" horiz-adv-x="847" />
<glyph unicode="&#xcf;" horiz-adv-x="987" />
<glyph unicode="&#xd0;" horiz-adv-x="1484" />
<glyph unicode="&#xd1;" horiz-adv-x="1611" />
<glyph unicode="&#xd2;" horiz-adv-x="1521" />
<glyph unicode="&#xd3;" horiz-adv-x="1595" />
<glyph unicode="&#xd4;" horiz-adv-x="1595" />
<glyph unicode="&#xd5;" horiz-adv-x="1595" />
<glyph unicode="&#xd6;" horiz-adv-x="1595" d="M102 719q0 -209 75 -377t238 -273.5t392 -105.5q213 0 371.5 110.5t236.5 288t78 390.5q0 317 -185.5 517.5t-521.5 200.5q-281 0 -482.5 -206.5t-201.5 -544.5zM375 733.5q0 106.5 21.5 202.5t66.5 181t127 135.5t188 50.5q201 0 317.5 -162t116.5 -424q0 -111 -18 -207 t-61 -183t-123 -137.5t-191 -50.5q-121 0 -211 54.5t-139 145.5t-71.5 189.5t-22.5 205zM375 1700q0 -72 39 -108t102 -36q61 0 98 41t37 107q0 61 -42 95t-101 34q-57 0 -95 -32.5t-38 -100.5zM977 1698q0 -72 39 -108t102 -36q61 0 98 41t37 107q0 61 -42 95t-101 34 q-57 0 -95 -32.5t-38 -100.5z" />
<glyph unicode="&#xd7;" horiz-adv-x="901" />
<glyph unicode="&#xd8;" horiz-adv-x="1601" />
<glyph unicode="&#xd9;" horiz-adv-x="1562" />
<glyph unicode="&#xda;" horiz-adv-x="1552" />
<glyph unicode="&#xdb;" horiz-adv-x="1558" />
<glyph unicode="&#xdc;" horiz-adv-x="1566" />
<glyph unicode="&#xdd;" horiz-adv-x="1359" />
<glyph unicode="&#xde;" horiz-adv-x="1259" />
<glyph unicode="&#xdf;" horiz-adv-x="1312" />
<glyph unicode="&#xe0;" horiz-adv-x="952" />
<glyph unicode="&#xe1;" horiz-adv-x="956" />
<glyph unicode="&#xe2;" horiz-adv-x="952" />
<glyph unicode="&#xe3;" horiz-adv-x="946" />
<glyph unicode="&#xe4;" horiz-adv-x="1042" d="M72 219q0 -86 75.5 -167t214.5 -81q94 0 162 24.5t97.5 48.5t33.5 24l80 -88h41l64 10q66 10 141 10v123q-39 0 -57.5 1t-40 8t-28.5 22.5t-7 42.5v467q0 94 -33 154.5t-93 87t-116.5 35.5t-134.5 9q-98 0 -182 -27.5t-121 -54.5l-35 -28v-181h164q0 84 45 116t139 32 q80 0 107.5 -37t27.5 -111v-84l-122 -22q-123 -20 -220 -59q-123 -49 -162.5 -119t-39.5 -156zM174 1208q0 -68 36 -101.5t95 -33.5q55 0 89 39t34 100q0 57 -38 87t-93 30q-123 0 -123 -121zM311 252q0 63 48.5 107t104.5 60.5t105 22.5l47 7v-193q0 -74 -44 -107.5 t-107 -33.5q-70 0 -112 33.5t-42 103.5zM578 1208q0 -66 35.5 -100.5t93 -34.5t91 39t33.5 100q0 57 -38.5 87t-94.5 30q-51 0 -85.5 -29t-34.5 -92z" />
<glyph unicode="&#xe5;" horiz-adv-x="1042" d="M72 219q0 -86 75.5 -167t214.5 -81q94 0 162 24.5t97.5 48.5t33.5 24l80 -88h41l64 10q66 10 141 10v123q-39 0 -57.5 1t-40 8t-28.5 22.5t-7 42.5v467q0 94 -33 154.5t-93 87t-116.5 35.5t-134.5 9q-98 0 -182 -27.5t-121 -54.5l-35 -28v-181h164q0 84 45 116t139 32 q80 0 107.5 -37t27.5 -111v-84l-122 -22q-123 -20 -220 -59q-123 -49 -162.5 -119t-39.5 -156zM270 1220.5q0 90.5 62.5 142.5t156.5 52q98 0 159 -52t61 -142.5t-62.5 -142.5t-157 -52t-157 52t-62.5 142.5zM311 252q0 63 48.5 107t104.5 60.5t105 22.5l47 7v-193 q0 -74 -44 -107.5t-107 -33.5q-70 0 -112 33.5t-42 103.5zM403 1221q0 -39 24 -63.5t62.5 -24.5t63.5 23.5t25 64.5t-25 65.5t-63.5 24.5t-62.5 -24.5t-24 -65.5z" />
<glyph unicode="&#xe6;" horiz-adv-x="1587" />
<glyph unicode="&#xe7;" horiz-adv-x="960" />
<glyph unicode="&#xe8;" horiz-adv-x="1011" />
<glyph unicode="&#xe9;" horiz-adv-x="1011" />
<glyph unicode="&#xea;" horiz-adv-x="1011" />
<glyph unicode="&#xeb;" horiz-adv-x="1011" />
<glyph unicode="&#xec;" horiz-adv-x="690" />
<glyph unicode="&#xed;" horiz-adv-x="696" />
<glyph unicode="&#xee;" horiz-adv-x="692" />
<glyph unicode="&#xef;" horiz-adv-x="669" />
<glyph unicode="&#xf0;" horiz-adv-x="1083" />
<glyph unicode="&#xf1;" horiz-adv-x="1206" />
<glyph unicode="&#xf2;" horiz-adv-x="1062" />
<glyph unicode="&#xf3;" horiz-adv-x="1062" />
<glyph unicode="&#xf4;" horiz-adv-x="1062" />
<glyph unicode="&#xf5;" horiz-adv-x="1062" />
<glyph unicode="&#xf6;" horiz-adv-x="1062" d="M72 440q0 -469 460 -469q201 0 330 137.5t129 387.5q0 135 -42 229t-113.5 141t-145.5 65.5t-160 18.5q-84 0 -161.5 -28.5t-146 -87t-109.5 -161t-41 -233.5zM209 1208q0 -68 36 -101.5t95 -33.5q55 0 89 39t34 100q0 57 -38 87t-93 30q-123 0 -123 -121zM301 451 q0 178 53.5 267t173.5 89q109 0 168.5 -78t59.5 -229q0 -188 -46 -284.5t-167 -96.5q-242 0 -242 332zM612 1208q0 -66 36 -100.5t93.5 -34.5t91 39t33.5 100q0 57 -39 87t-94 30q-51 0 -86 -29t-35 -92z" />
<glyph unicode="&#xf7;" horiz-adv-x="1044" />
<glyph unicode="&#xf8;" horiz-adv-x="1083" />
<glyph unicode="&#xf9;" horiz-adv-x="1163" />
<glyph unicode="&#xfa;" horiz-adv-x="1157" />
<glyph unicode="&#xfb;" horiz-adv-x="1163" />
<glyph unicode="&#xfc;" horiz-adv-x="1163" />
<glyph unicode="&#xfd;" horiz-adv-x="1161" />
<glyph unicode="&#xfe;" horiz-adv-x="1198" />
<glyph unicode="&#xff;" horiz-adv-x="1202" />
<glyph unicode="&#x131;" horiz-adv-x="638" />
<glyph unicode="&#x141;" horiz-adv-x="1220" />
<glyph unicode="&#x142;" horiz-adv-x="690" />
<glyph unicode="&#x152;" horiz-adv-x="2074" />
<glyph unicode="&#x153;" horiz-adv-x="1699" />
<glyph unicode="&#x160;" horiz-adv-x="1265" />
<glyph unicode="&#x161;" horiz-adv-x="907" />
<glyph unicode="&#x178;" horiz-adv-x="1316" />
<glyph unicode="&#x17d;" horiz-adv-x="1345" />
<glyph unicode="&#x17e;" horiz-adv-x="993" />
<glyph unicode="&#x192;" horiz-adv-x="1091" />
<glyph unicode="&#x2c6;" horiz-adv-x="806" />
<glyph unicode="&#x2c7;" horiz-adv-x="817" />
<glyph unicode="&#x2d8;" horiz-adv-x="690" />
<glyph unicode="&#x2d9;" horiz-adv-x="454" />
<glyph unicode="&#x2da;" horiz-adv-x="610" />
<glyph unicode="&#x2db;" horiz-adv-x="489" />
<glyph unicode="&#x2dc;" horiz-adv-x="806" />
<glyph unicode="&#x2dd;" horiz-adv-x="911" />
<glyph unicode="&#x2000;" horiz-adv-x="954" />
<glyph unicode="&#x2001;" horiz-adv-x="1910" />
<glyph unicode="&#x2002;" horiz-adv-x="954" />
<glyph unicode="&#x2003;" horiz-adv-x="1910" />
<glyph unicode="&#x2004;" horiz-adv-x="636" />
<glyph unicode="&#x2005;" horiz-adv-x="477" />
<glyph unicode="&#x2006;" horiz-adv-x="317" />
<glyph unicode="&#x2007;" horiz-adv-x="317" />
<glyph unicode="&#x2008;" horiz-adv-x="237" />
<glyph unicode="&#x2009;" horiz-adv-x="380" />
<glyph unicode="&#x200a;" horiz-adv-x="104" />
<glyph unicode="&#x2010;" horiz-adv-x="675" d="M82 389v164h512v-164h-512z" />
<glyph unicode="&#x2011;" horiz-adv-x="675" d="M82 389v164h512v-164h-512z" />
<glyph unicode="&#x2012;" horiz-adv-x="675" d="M82 389v164h512v-164h-512z" />
<glyph unicode="&#x2013;" horiz-adv-x="1024" />
<glyph unicode="&#x2014;" horiz-adv-x="2048" />
<glyph unicode="&#x2018;" horiz-adv-x="303" />
<glyph unicode="&#x2019;" horiz-adv-x="303" />
<glyph unicode="&#x201a;" horiz-adv-x="548" />
<glyph unicode="&#x201c;" horiz-adv-x="661" />
<glyph unicode="&#x201d;" horiz-adv-x="661" />
<glyph unicode="&#x201e;" horiz-adv-x="931" />
<glyph unicode="&#x2020;" horiz-adv-x="1044" />
<glyph unicode="&#x2021;" horiz-adv-x="1044" />
<glyph unicode="&#x2022;" horiz-adv-x="897" />
<glyph unicode="&#x2026;" horiz-adv-x="1517" d="M82 117q0 -68 37 -102.5t96 -34.5q57 0 92 39.5t35 101.5q0 57 -39 89t-96 32q-53 0 -89 -31t-36 -94zM625 117q0 -68 36.5 -102.5t96.5 -34.5q57 0 92 39.5t35 101.5q0 57 -39 89t-96 32q-53 0 -89 -31t-36 -94zM1176 117q0 -68 36.5 -102.5t96.5 -34.5q57 0 92 39.5 t35 101.5q0 57 -39 89t-97 32q-53 0 -88.5 -31t-35.5 -94z" />
<glyph unicode="&#x202f;" horiz-adv-x="380" />
<glyph unicode="&#x2030;" horiz-adv-x="2248" />
<glyph unicode="&#x2039;" horiz-adv-x="737" d="M123 420q0 27 172 223l172 197h147v-31l-274 -389l274 -389v-31h-147l-172 195q-172 194 -172 225z" />
<glyph unicode="&#x203a;" horiz-adv-x="737" d="M123 0v31l274 389l-274 389v31h147l172 -195q172 -195 172 -225q0 -27 -172 -223l-172 -197h-147z" />
<glyph unicode="&#x2044;" horiz-adv-x="1253" />
<glyph unicode="&#x205f;" horiz-adv-x="477" />
<glyph unicode="&#x20ac;" horiz-adv-x="1478" />
<glyph unicode="&#x2122;" horiz-adv-x="1824" />
<glyph unicode="&#x2212;" horiz-adv-x="921" />
<glyph unicode="&#xe000;" horiz-adv-x="920" d="M0 920h920v-920h-920v920z" />
<glyph unicode="&#xf761;" horiz-adv-x="1384" />
<glyph unicode="&#xf762;" horiz-adv-x="1366" />
<glyph unicode="&#xf763;" horiz-adv-x="1366" />
<glyph unicode="&#xf764;" horiz-adv-x="1472" />
<glyph unicode="&#xf765;" horiz-adv-x="1359" />
<glyph unicode="&#xf766;" horiz-adv-x="1226" />
<glyph unicode="&#xf767;" horiz-adv-x="1464" />
<glyph unicode="&#xf768;" horiz-adv-x="1599" />
<glyph unicode="&#xf769;" horiz-adv-x="958" />
<glyph unicode="&#xf770;" horiz-adv-x="958" />
<glyph unicode="&#xf771;" horiz-adv-x="1636" />
<glyph unicode="&#xf772;" horiz-adv-x="1220" />
<glyph unicode="&#xf773;" horiz-adv-x="1923" />
<glyph unicode="&#xf774;" horiz-adv-x="1697" />
<glyph unicode="&#xf775;" horiz-adv-x="1542" />
<glyph unicode="&#xf776;" horiz-adv-x="1308" />
<glyph unicode="&#xf777;" horiz-adv-x="1550" />
<glyph unicode="&#xf778;" />
<glyph unicode="&#xf779;" horiz-adv-x="1325" />
<glyph unicode="&#xf780;" horiz-adv-x="1476" />
<glyph unicode="&#xf781;" horiz-adv-x="1681" />
<glyph unicode="&#xf782;" horiz-adv-x="1517" />
<glyph unicode="&#xf783;" horiz-adv-x="2080" />
<glyph unicode="&#xf784;" horiz-adv-x="1662" />
<glyph unicode="&#xf785;" horiz-adv-x="1345" />
<glyph unicode="&#xf786;" horiz-adv-x="1378" />
<glyph unicode="&#xf787;" horiz-adv-x="1384" />
<glyph unicode="&#xf788;" horiz-adv-x="1384" />
<glyph unicode="&#xf790;" horiz-adv-x="1542" />
<glyph unicode="&#xf8f3;" horiz-adv-x="620" />
<glyph unicode="&#xf8f4;" horiz-adv-x="518" />
<glyph unicode="&#xf8f5;" horiz-adv-x="587" />
<glyph unicode="&#xf8f6;" horiz-adv-x="491" />
<glyph unicode="&#xf8f7;" horiz-adv-x="1515" />
<glyph unicode="&#xf8f8;" horiz-adv-x="714" />
<glyph unicode="&#xf8f9;" horiz-adv-x="1843" d="M-4 461q-2 -41 11 -66.5t13 4.5q0 104 136 105q33 0 64.5 15.5t45.5 29.5l17 16q18 18 47 21h28q-25 -25 -37 -45.5t-12 -28.5v-10l-59 -62q-16 -20 -12 -42.5t16 -39.5l12 -16q-25 0 -72 -65.5t-47 -159.5q0 -76 20.5 -117t35.5 -41q2 0 7 22.5t48 55.5q39 31 122 66.5 t122 56.5q63 33 114.5 98.5t77 121.5t54 99t55.5 43q2 0 -14.5 -33.5t-37 -96t-20.5 -118.5q0 -86 41 -181t82 -150.5t55 -55.5q0 33 10.5 55.5t53.5 61.5q41 37 56 98.5t11 102.5l-4 43q59 0 112.5 28.5t75 51t21.5 18.5q0 -49 -67 -98q-45 -37 -71 -63.5t-48.5 -76 t-22.5 -110.5q0 -63 13 -121l12 -59q8 -37 -4.5 -64.5t-12.5 -34.5q104 51 182.5 141.5t78.5 213.5q0 61 -24 134t-24 136q8 0 39 -59.5t31 -120.5q0 -43 39 -83t85 -64.5t88 -56.5t48 -58q4 -16 1 -34t-1 -32t12 -14l48 270q8 61 -49.5 110.5t-133 73t-138 46t-62.5 36.5 q0 2 45 2q16 0 92 -25.5t137 -25.5q66 0 117 30t76.5 64.5t55.5 64.5t56 30q0 31 -65.5 50t-143.5 19q-76 0 -138 -30.5t-94 -68.5t-70 -69.5t-70 -31.5v8q0 10 12 24l28 31q15 16 27 57t12 99q0 47 -13 77.5t-11 30.5q16 0 46 -17.5t30 -39.5q0 -14 -13 -31q12 0 24.5 14.5 t10.5 36.5q-4 72 -92 138.5t-147 66.5q0 20 -28 42t-52 22q-31 0 -56.5 -16.5t-35.5 -32.5l-13 -19q0 131 -63 131q-23 0 -42.5 -9t-29.5 -17.5t-12 -8.5q-45 0 -45 -26q0 -10 18.5 -27.5t20.5 -13.5q0 16 13 25.5t26 9.5l14 2q16 -4 41.5 -21.5t40.5 -36.5q8 -6 6 -13 t-10 -7q-6 0 -22.5 5t-49.5 11t-78 6q0 12 -20.5 37t-46.5 50l-29 28q-4 6 -12 21q-10 16 -11 6q0 -18 -9 -32.5t-20.5 -26t-18.5 -54.5t-3 -115q2 -33 -13 -50t-32 -17q31 61 14.5 124.5t-43.5 63.5q-18 0 -91.5 -21.5t-73.5 -35.5q0 -88 20.5 -125t63.5 -51 q20 -6 32.5 -16.5t14.5 -18.5l2 -6q-53 -6 -106.5 8t-157.5 14q-96 0 -187.5 -63.5t-95.5 -126.5zM305 420.5q-2 21.5 8 21.5l99 7l-47 -23q-45 -25 -46 -27q-12 0 -14 21.5zM412 596q0 4 61.5 12t58.5 6l-10 -8q-10 -6 -24 -8q-18 -6 -51 -7t-35 5zM549 602q0 14 10 14 q6 0 15.5 -7t5.5 -7h-31zM553 631q0 20 17.5 43.5t25.5 23.5q33 0 37 -10q-25 0 -43.5 -28.5t-36.5 -28.5zM563 627l19 8q20 8 53 8q20 0 35 6l14 6l10 -8q10 -10 11 -16q0 8 -68 8q-10 0 -42 -9t-32 -3zM575 481q0 4 89.5 29t123.5 25q2 0 -3 -3.5t-16 -7.5t-28 -9l-34 -11 q-18 -6 -37 -11.5t-35.5 -9.5t-29.5 -6t-21.5 -1t-8.5 5zM666 592q10 0 30.5 8t38.5 8q23 0 47.5 -29.5t12.5 -29.5q-23 0 -76 20zM811 549q0 49 18.5 85t16.5 116l14 20q12 20 41 42t62 22q14 -2 -14.5 -110t-43.5 -116q-18 -8 -47 -33.5t-47 -25.5zM819 526q0 4 11.5 13.5 t19.5 9.5q33 0 33 -10q2 -6 -7.5 -40t-19.5 -32q-8 2 -22.5 25.5t-14.5 33.5zM887 449q0 23 11 52t13 29q8 0 33 -8t43 -8q31 0 57 8l25 8q14 -35 52 -55t67 -24l31 -2q0 -25 16 -45.5t16 -32.5q0 -8 -10 -9q-41 0 -98.5 34t-104.5 34q-27 0 -46 -3t-27 -8l-15 -9l-4 -2 q-12 0 -35.5 16.5t-23.5 24.5zM946 629q8 27 25.5 100.5t19.5 77.5l4 14q25 0 41 -78q8 -41 -4 -92q-23 0 -53 -12zM999 846l25 10q27 12 49 12l55 -10l-22 -6q-23 -6 -43 -4zM1004 831q6 2 33.5 3.5t68.5 -8t55 -25.5q37 -39 86 -71t49 -25q0 -27 -18 -52l-18 -24l-64 20 q0 61 -48 104.5t-95 61.5zM1212 561l35 21l-10 -37q-10 -35 -10 -47l-6 20q-9 20 -9 43z" />
<glyph unicode="&#xf8fa;" horiz-adv-x="1128" d="M4 1214q0 -47 31 -78.5t59 -39.5l31 -9q0 -14 35 -51t65 -37q0 -160 39 -304t86 -233t88 -205t43 -224l-43 -66q-41 -68 -83 -200t-42 -263h41q0 115 33 226.5t66 165.5l32 53v-43q0 -41 -14 -120t-43 -151h82q12 172 10 281l-4 109q0 39 84 148.5t174 109.5 q68 0 118 -18.5t72.5 -47.5t32 -50.5t11.5 -39.5q8 -59 -2 -84l-23 -61q-2 -14 -53 -39q-2 -2 -11.5 -13.5t-19.5 -19.5t-25 -14q-8 -4 -28.5 -17.5t-26.5 -15.5q-6 0 -22.5 -14.5t-24.5 -14.5q-129 0 -129 -22q-39 0 -39 -25q0 -12 8.5 -18.5t16.5 -6.5l8 -2q18 -23 31 -22 q37 0 65.5 19.5t34.5 19.5q14 0 40 38t40 38q0 -8 -10.5 -25.5t-10.5 -34.5q0 -33 21 -33q16 0 18 40t-2 50q0 10 18.5 20.5t18.5 6.5q0 -29 18.5 -64.5t49.5 -35.5q23 0 22 45q0 16 -12 44t-12 46q0 10 10 23.5t16 13.5q-2 -55 10.5 -90t30.5 -35q16 0 17 31q0 14 -21.5 56 t-21.5 58q0 23 4 37l6 14l22 -63q23 -63 45 -63q18 0 22.5 15t-1.5 32.5t-14.5 36t-8.5 20.5l11 -2q8 -2 16 5t8 26q0 20 -43 72.5t-45 66.5q-4 18 -13 35.5t-35 45t-80 45t-128 17.5t-141.5 -58t-95.5 -116l-31 -57q0 88 -36 188.5t-78 183t-76.5 226t-34.5 307.5 q18 0 18 -16q0 -14 11.5 -35t25.5 -21q12 0 20 11l9 10q2 0 9 -20.5t17 -20.5q18 0 23 -8q2 -6 2 -17q4 -70 76 -69q20 2 39.5 -12.5t25.5 -16.5q20 -6 21 -82q0 -86 45 -86l28 2l4 -12q6 -12 26.5 -25.5t51.5 -13.5q27 0 27 24q0 41 -86 41q45 0 45 15q0 63 -82 63 q-12 0 -23.5 10.5t-16.5 22.5l-9 23q-4 10 0 10q25 -12 47 -12t60 15t38 25q0 31 -82 31q-18 0 -42.5 -18.5t-33.5 -18.5q-14 0 -29.5 10.5t-15.5 18.5q8 0 28 22.5t20 53.5q0 8 2 16t4 15l4 12q8 23 -6 22q-20 0 -54 -55l-34 -55q-8 0 -11 32l-2 33q18 10 48 53.5t30 65.5 q0 35 -27 35q-14 0 -50 -56.5t-70 -60.5q-14 -6 -27 2l-12 6v33q0 2 9 15.5t16.5 36t7.5 50.5q0 10 37.5 49.5t37.5 57.5q0 37 -20.5 51.5t-41 15.5t-20.5 5t60.5 48t60.5 77q0 20 3 37.5t3 27.5q0 51 -34 51q-31 0 -39.5 23.5t-46.5 23.5q-31 2 -48.5 -7t-33.5 -9 q-14 0 -21.5 -11t-17.5 -11q-23 0 -51.5 -30t-28.5 -61q0 -94 38 -159.5t38 -81.5l-52 -140q-6 23 -34 60l-29 37q0 47 -31 90t-57.5 43t-50 -15.5t-23.5 -44.5zM295 1012q27 35 27 170q0 14 13 26.5t13 6t-4 -49.5t-4 -47q0 -55 -8 -55t-17 -29l-8 -28z" />
<glyph unicode="&#xf8fb;" horiz-adv-x="1228" d="M-31 1526q0 -4 5.5 -9.5t7.5 -9.5v-18q2 0 12 9t22 9q82 -2 143.5 -33.5t92.5 -71.5t48 -91t21.5 -80t4.5 -47q-4 -35 2 -342t30 -441q8 -63 88 -237l78 -174q10 -68 21.5 -183.5t25 -198.5t39.5 -169l52 55q-12 33 -42 189.5t-28 250.5q2 203 48 393.5t108.5 313.5 t125 195.5t101.5 72.5l196 -16q25 -2 38.5 -28.5t19.5 -26.5q8 0 -9.5 50t-31.5 62q-27 27 -105 27q-41 2 -132 -24.5t-101 -26.5q-45 2 -195 -58l-147 -59q-14 0 -62.5 18.5t-48.5 3.5q-2 -37 80 -55t131 -18q33 0 69 8t58 18l41 19q18 8 26.5 4t8.5 -23q-66 -90 -120 -224 t-79.5 -221t-27.5 -87l-27 47q-27 45 -59.5 90t-49 45t-32 -33.5t-23.5 -33.5q-27 92 -40 290.5t-11 337t2 197.5q0 66 21 65l18 -28q18 -29 18 -43q-2 -12 -14 -39t-8 -27q20 0 41.5 28t34.5 56l10 27q35 -2 58.5 -41t40 -77t30.5 -38q10 0 4 21q-4 18 -4 30q0 20 9 49 t9 60q2 121 -127 211t-272 92q-29 0 -68 -5t-67.5 -10t-30.5 -5q-10 0 -32.5 7t-32.5 7q-13 0 -13 -6zM412 309q0 33 32 33q12 0 15 27l4 26q10 0 26.5 -98t14.5 -162q2 0 -21.5 38t-47 82t-23.5 54zM514 326q6 0 36 -50.5t30 -64.5q0 -6 -11.5 -89t-13.5 -83l-23 63 q-8 23 -15 123.5t-3 100.5z" />
<glyph unicode="&#xf8fc;" horiz-adv-x="909" d="M66 20q0 -29 49 -28q16 0 49 14l31 14q-6 -35 -25 -34q-27 0 -51.5 -13.5t-24.5 -35.5q0 -20 35 -21q25 0 43 18.5t18 16.5q0 -41 -14 -47l-41 -21q-39 -20 -39 -45q0 -10 23 -10q18 0 42.5 23.5t24.5 13.5q0 -27 -36.5 -49.5t-36.5 -32.5q0 -14 20 -14q8 0 23.5 14 t15.5 8q0 -10 -21.5 -41t-23.5 -49q0 -14 16 -14q12 0 21 18l8 16l-4 -32q-4 -35 12 -35q20 0 21 41q2 12 -6.5 38.5t-8.5 41.5q0 20 8.5 35.5t8.5 31.5q0 4 -1 13.5t-1 17.5q0 12 4 31.5t4 46.5q0 12 6 24.5t6 26.5q0 18 6 43q0 4 10.5 22.5t10.5 20.5l6 14l6 21q0 4 6 11 t8 16q4 6 7.5 20t5.5 16q8 10 25.5 26.5t23.5 29.5q16 53 33 73q4 4 19 14.5t30 26.5q47 55 94 76q29 16 106 -2q33 -12 49.5 -26.5t26.5 -49.5l135 -356h58l-84 211q-86 213 -90 256q-4 94 -54 186q-2 4 -12 -6t-12 -2q-10 18 -2 41t6 41q0 2 -4 31.5t-2 51t12 21.5 q6 0 31.5 -4t42.5 -4q27 0 49.5 26.5t22.5 51.5q0 18 -48.5 37.5t-70.5 19.5q-14 0 -25 -10l-12 -12q0 27 -33 63.5t-65 36.5q-39 0 -56.5 -28.5t-21.5 -57.5l-2 -28l-27 6q-25 8 -41 8q-25 0 -53.5 -12.5t-28.5 -32.5q0 -25 36 -46.5t71 -31.5l37 -8l-11 -4 q-10 -4 -19 -17.5t-9 -29.5q0 -29 23.5 -47.5t53.5 -18.5q23 0 39 12q8 4 11 -2q6 -10 32.5 -27.5t26.5 -37.5q0 -4 -11.5 -2t-11.5 -4q0 -33 17.5 -68t35 -57.5t17.5 -26.5q-6 -4 -17.5 -3t-37 7t-37.5 6q-35 2 -88 46t-72 44l-37 39q-39 39 -61 39q-4 0 -35 32t-72 32 t-61.5 -4t-34.5 -21.5t-14 -54.5q0 -61 21.5 -89t72.5 -28q6 0 22.5 -8t43.5 -8q94 0 94 -2q0 -16 37 -58l39 -41q-27 -35 -38.5 -42t-41.5 3q-106 80 -162 80q-59 0 -60 -49q0 -25 30 -42t40 -17l43 -41q43 -41 64 -47h20l-12 -23q-12 -16 -33.5 -17t-41 7t-46.5 17.5 t-43 9.5q-47 0 -47 -17q0 -31 72.5 -42t105.5 -5q-8 -20 -28.5 -22t-51.5 6t-39 8q-57 0 -57 -27q0 -18 31.5 -28.5t60.5 -10.5q20 0 39 7l18 6q-4 -20 -23.5 -45t-43.5 -25q-14 0 -25.5 4t-23.5 4q-20 0 -34.5 -9.5t-14.5 -23.5zM283 317q2 -4 20.5 -9t28.5 -5l-13 -31 q-2 6 -24 29q-16 16 -12 16zM416 500q6 0 32.5 -18.5t26.5 -16.5l-14 -12q-14 -12 -21 -13q-4 0 -16 30t-8 30z" />
<glyph unicode="&#xf8fd;" horiz-adv-x="1794" />
<glyph unicode="&#xf8fe;" horiz-adv-x="1531" d="M41 516q2 -2 52 37t104 53q84 16 129 8l45 -6q-49 -6 -137.5 -96t-114.5 -182q-20 -80 -16.5 -157t18.5 -95l20 37q20 37 67.5 95t100.5 99q51 39 183.5 102.5t197.5 118.5q25 20 78 96t90 93q10 0 10 -35q-72 -80 -94 -130t-10 -105q18 -74 63 -131.5t115 -115t88 -77.5 q35 -35 60 -78l22 -43q2 0 1 2t-1 14.5t-1 26.5t2 39t11 49q98 305 -6 471q-29 43 -76 65.5t-88 22.5h-24q-25 -2 -34 3t-19 34q0 8 41 8q84 -18 169 -6q92 14 245 100.5t165 90.5q-49 37 -128 50t-142 1q-160 -33 -314 -209q-12 -12 -28 -16l-15 -7l-6 19q-4 16 0 31 q2 6 15.5 42.5t23.5 82t10 90.5q-2 61 -32 145l-29 84l-27 -37q-27 -39 -52 -103.5t-25 -119.5q0 -70 65 -148q25 -25 27 -53l4 -28l-41 -5q-20 0 -41 15.5t-40.5 34t-74.5 34t-137 15.5q-92 0 -187.5 -47t-154.5 -107.5t-96 -111t-31 -60.5zM743 682l48 41q10 8 32 10l25 4 l-43 -39z" />
<glyph unicode="&#xfb01;" horiz-adv-x="1316" d="M61 0q55 0 155.5 4t135.5 4t122 -4t136 -4v123q-57 0 -90 4t-46 19.5t-15 26.5t-2 44l-4 561l239 10q152 -4 154 -104v-440q0 -121 -180 -121v-123l129 4q129 4 172 4l288 -8v123q-131 0 -161.5 16.5t-30.5 67.5l-2 502l-2 233h-62l-88 -10q-88 -10 -233 -10h-223 q4 0 4 225q0 201 151 201q147 0 191 -95q25 -55 55.5 -82.5t87.5 -27.5t93 33.5t36 85.5q0 61 -63.5 120.5t-182 95t-227.5 35.5q-168 0 -263 -105t-95 -249l4 -237h-183v-144h183l-4 -504q-2 -84 -42 -117.5t-137 -33.5v-123z" />
<glyph unicode="&#xfb02;" horiz-adv-x="1349" d="M51 0q55 0 155.5 4t135.5 4t122 -4t136 -4v123q-102 0 -128 19.5t-26 74.5l-4 559h209v146h-209q4 0 4 225q0 94 34 143t110 58q51 6 122.5 0.5t90.5 -15.5q43 -23 43 -104q4 -43 4 -233.5t-2 -431t-2 -279.5q0 -162 -191 -162v-123l318 8l282 -8v123q-127 0 -156.5 21.5 t-29.5 78.5l-6 555l4 750h-55l-70 -15q-72 -14 -162 -14l-198 14q-168 0 -260.5 -105t-92.5 -249l4 -237h-182v-146h182l-4 -502q-2 -84 -42 -117.5t-136 -33.5v-123z" />
<glyph horiz-adv-x="645" />
<glyph horiz-adv-x="1024" />
<glyph horiz-adv-x="1280" />
<glyph horiz-adv-x="1255" />
<glyph horiz-adv-x="1185" />
<glyph horiz-adv-x="1200" />
<glyph horiz-adv-x="1198" />
<glyph horiz-adv-x="1191" />
<glyph horiz-adv-x="1128" />
<glyph horiz-adv-x="1273" />
<glyph horiz-adv-x="1173" />
<glyph horiz-adv-x="876" />
<glyph horiz-adv-x="1024" />
</font>
</defs>
</svg>
