<?xml version="1.0" encoding="utf-8"?>
<!-- Generator: Adobe Illustrator 15.0.0, SVG Export Plug-In  -->
<!DOCTYPE svg PUBLIC "-//W3C//DTD SVG 1.1//EN" "http://www.w3.org/Graphics/SVG/1.1/DTD/svg11.dtd" [
	<!ENTITY ns_flows "http://ns.adobe.com/Flows/1.0/">
]>
<svg version="1.1"
	 xmlns="http://www.w3.org/2000/svg" xmlns:xlink="http://www.w3.org/1999/xlink" xmlns:a="http://ns.adobe.com/AdobeSVGViewerExtensions/3.0/"
	 x="0px" y="0px" width="180px" height="20px" viewBox="39.333 222.167 180 20"
	 overflow="visible" enable-background="new 39.333 222.167 180 20" xml:space="preserve">
<defs>
</defs>
<rect display="none" fill="#414241" width="254" height="286"/>
<path fill="#E6E7E8" d="M49.738,234.874l1.235,0.153c-0.195,0.722-0.556,1.281-1.083,1.68s-1.2,0.598-2.019,0.598
	c-1.032,0-1.85-0.317-2.454-0.952c-0.604-0.636-0.906-1.527-0.906-2.674c0-1.186,0.306-2.107,0.917-2.762
	c0.611-0.656,1.403-0.983,2.377-0.983c0.943,0,1.713,0.321,2.311,0.963s0.896,1.546,0.896,2.71c0,0.07-0.002,0.177-0.006,0.318
	h-5.259c0.044,0.775,0.263,1.368,0.657,1.779c0.394,0.412,0.885,0.618,1.474,0.618c0.438,0,0.812-0.115,1.123-0.346
	C49.311,235.747,49.556,235.379,49.738,234.874z M45.813,232.942h3.938c-0.053-0.594-0.204-1.039-0.451-1.335
	c-0.381-0.46-0.875-0.69-1.481-0.69c-0.549,0-1.011,0.184-1.385,0.551S45.853,232.327,45.813,232.942z"/>
<path fill="#E6E7E8" d="M54.433,237.146l-2.683-7.053h1.262l1.514,4.224c0.164,0.456,0.314,0.93,0.452,1.421
	c0.106-0.371,0.254-0.818,0.445-1.341l1.567-4.304h1.229l-2.669,7.053H54.433z"/>
<path fill="#E6E7E8" d="M64.102,234.874l1.235,0.153c-0.195,0.722-0.556,1.281-1.083,1.68s-1.2,0.598-2.019,0.598
	c-1.032,0-1.85-0.317-2.454-0.952c-0.604-0.636-0.906-1.527-0.906-2.674c0-1.186,0.306-2.107,0.917-2.762
	c0.611-0.656,1.403-0.983,2.377-0.983c0.943,0,1.713,0.321,2.311,0.963s0.896,1.546,0.896,2.71c0,0.07-0.002,0.177-0.006,0.318
	h-5.259c0.044,0.775,0.263,1.368,0.657,1.779c0.394,0.412,0.885,0.618,1.474,0.618c0.438,0,0.812-0.115,1.123-0.346
	C63.674,235.747,63.92,235.379,64.102,234.874z M60.177,232.942h3.938c-0.053-0.594-0.204-1.039-0.451-1.335
	c-0.381-0.46-0.875-0.69-1.481-0.69c-0.549,0-1.011,0.184-1.385,0.551S60.217,232.327,60.177,232.942z"/>
<path fill="#E6E7E8" d="M66.824,237.146v-7.053H67.9v1.069c0.274-0.5,0.528-0.83,0.76-0.989s0.488-0.239,0.767-0.239
	c0.403,0,0.812,0.128,1.229,0.386l-0.412,1.108c-0.292-0.173-0.584-0.259-0.876-0.259c-0.261,0-0.496,0.078-0.704,0.236
	c-0.208,0.156-0.356,0.375-0.445,0.653c-0.133,0.425-0.199,0.89-0.199,1.395v3.692H66.824z"/>
<path fill="#E6E7E8" d="M71.313,239.861l-0.133-1.122c0.261,0.07,0.489,0.106,0.684,0.106c0.266,0,0.478-0.044,0.638-0.133
	c0.159-0.089,0.29-0.213,0.392-0.372c0.075-0.119,0.197-0.416,0.365-0.89c0.022-0.066,0.058-0.164,0.106-0.292l-2.676-7.066h1.288
	l1.468,4.084c0.19,0.519,0.361,1.062,0.511,1.634c0.137-0.549,0.301-1.085,0.491-1.606l1.508-4.111h1.195l-2.683,7.172
	c-0.288,0.775-0.511,1.309-0.67,1.601c-0.213,0.394-0.456,0.683-0.73,0.866c-0.275,0.184-0.603,0.276-0.983,0.276
	C71.853,240.008,71.596,239.959,71.313,239.861z"/>
<path fill="#E6E7E8" d="M79.269,237.146H78.16v-9.735h1.195v3.474c0.505-0.633,1.149-0.95,1.933-0.95
	c0.434,0,0.844,0.088,1.232,0.263c0.387,0.175,0.706,0.42,0.956,0.736c0.25,0.317,0.446,0.699,0.588,1.146s0.212,0.925,0.212,1.434
	c0,1.209-0.299,2.143-0.896,2.803s-1.315,0.989-2.151,0.989c-0.833,0-1.485-0.347-1.959-1.042V237.146z M79.255,233.566
	c0,0.845,0.115,1.456,0.346,1.833c0.376,0.615,0.885,0.923,1.527,0.923c0.522,0,0.974-0.228,1.354-0.681
	c0.381-0.454,0.571-1.131,0.571-2.029c0-0.92-0.183-1.6-0.548-2.038s-0.807-0.657-1.325-0.657c-0.522,0-0.974,0.227-1.354,0.68
	C79.446,232.052,79.255,232.708,79.255,233.566z"/>
<path fill="#E6E7E8" d="M85.285,233.619c0-1.306,0.363-2.272,1.089-2.901c0.606-0.523,1.346-0.784,2.218-0.784
	c0.969,0,1.762,0.317,2.377,0.953c0.616,0.636,0.923,1.513,0.923,2.633c0,0.907-0.136,1.622-0.409,2.142
	c-0.272,0.521-0.668,0.924-1.188,1.212s-1.088,0.432-1.703,0.432c-0.987,0-1.786-0.316-2.394-0.949
	C85.589,235.722,85.285,234.81,85.285,233.619z M86.514,233.619c0,0.903,0.197,1.579,0.591,2.028c0.394,0.45,0.89,0.675,1.488,0.675
	c0.593,0,1.086-0.226,1.48-0.678c0.394-0.451,0.591-1.14,0.591-2.065c0-0.871-0.198-1.532-0.594-1.982
	c-0.396-0.449-0.889-0.674-1.478-0.674c-0.598,0-1.094,0.225-1.488,0.671C86.71,232.041,86.514,232.716,86.514,233.619z"/>
<path fill="#E6E7E8" d="M97.869,237.146v-0.89c-0.447,0.699-1.104,1.049-1.972,1.049c-0.562,0-1.079-0.155-1.55-0.465
	c-0.472-0.31-0.837-0.742-1.096-1.298c-0.259-0.556-0.389-1.194-0.389-1.916c0-0.704,0.117-1.342,0.352-1.916
	c0.234-0.573,0.586-1.013,1.056-1.318c0.469-0.305,0.994-0.458,1.574-0.458c0.425,0,0.804,0.09,1.136,0.269
	c0.332,0.18,0.602,0.414,0.81,0.701v-3.493h1.189v9.735H97.869z M94.091,233.626c0,0.903,0.19,1.578,0.571,2.025
	c0.38,0.447,0.83,0.671,1.348,0.671c0.522,0,0.966-0.214,1.332-0.642c0.365-0.427,0.548-1.078,0.548-1.955
	c0-0.965-0.186-1.674-0.558-2.125c-0.372-0.451-0.83-0.678-1.375-0.678c-0.531,0-0.975,0.217-1.332,0.651
	C94.269,232.008,94.091,232.692,94.091,233.626z"/>
<path fill="#E6E7E8" d="M100.804,239.861l-0.133-1.122c0.261,0.07,0.489,0.106,0.684,0.106c0.266,0,0.478-0.044,0.638-0.133
	c0.159-0.089,0.29-0.213,0.392-0.372c0.075-0.119,0.197-0.416,0.365-0.89c0.022-0.066,0.058-0.164,0.106-0.292l-2.676-7.066h1.288
	l1.468,4.084c0.19,0.519,0.361,1.062,0.511,1.634c0.137-0.549,0.301-1.085,0.491-1.606l1.508-4.111h1.195l-2.683,7.172
	c-0.288,0.775-0.511,1.309-0.67,1.601c-0.213,0.394-0.456,0.683-0.73,0.866c-0.275,0.184-0.603,0.276-0.983,0.276
	C101.344,240.008,101.087,239.959,100.804,239.861z"/>
<path fill="#E6E7E8" d="M110.958,235.04l1.183-0.186c0.066,0.474,0.25,0.837,0.554,1.089c0.304,0.253,0.728,0.379,1.272,0.379
	c0.549,0,0.955-0.112,1.221-0.335c0.266-0.225,0.398-0.486,0.398-0.787c0-0.271-0.117-0.482-0.352-0.638
	c-0.164-0.106-0.57-0.241-1.222-0.405c-0.876-0.221-1.484-0.412-1.823-0.574c-0.338-0.162-0.596-0.385-0.77-0.671
	c-0.176-0.286-0.263-0.601-0.263-0.946c0-0.314,0.071-0.605,0.216-0.873c0.144-0.268,0.34-0.49,0.588-0.668
	c0.186-0.137,0.439-0.253,0.76-0.348c0.321-0.096,0.666-0.144,1.033-0.144c0.553,0,1.039,0.08,1.457,0.239s0.728,0.375,0.927,0.647
	s0.337,0.636,0.411,1.093l-1.168,0.159c-0.053-0.363-0.207-0.646-0.462-0.851c-0.255-0.203-0.614-0.305-1.079-0.305
	c-0.549,0-0.941,0.09-1.176,0.271s-0.352,0.395-0.352,0.638c0,0.155,0.049,0.294,0.146,0.419c0.098,0.128,0.25,0.234,0.458,0.318
	c0.12,0.045,0.472,0.146,1.056,0.306c0.846,0.226,1.436,0.411,1.77,0.554c0.334,0.145,0.597,0.354,0.787,0.628
	s0.285,0.616,0.285,1.022c0,0.398-0.115,0.773-0.348,1.126s-0.568,0.624-1.006,0.817c-0.439,0.191-0.936,0.288-1.488,0.288
	c-0.916,0-1.615-0.19-2.096-0.571C111.397,236.353,111.091,235.788,110.958,235.04z"/>
<path fill="#E6E7E8" d="M118.236,237.146v-9.735h1.195v3.493c0.557-0.646,1.262-0.97,2.111-0.97c0.522,0,0.977,0.103,1.361,0.31
	c0.385,0.205,0.66,0.49,0.826,0.853c0.166,0.363,0.25,0.89,0.25,1.581v4.469h-1.195v-4.469c0-0.598-0.13-1.033-0.389-1.305
	c-0.26-0.273-0.625-0.409-1.1-0.409c-0.354,0-0.688,0.093-0.999,0.276s-0.534,0.432-0.667,0.746s-0.199,0.748-0.199,1.302v3.858
	H118.236z"/>
<path fill="#E6E7E8" d="M125.355,233.619c0-1.306,0.362-2.272,1.088-2.901c0.607-0.523,1.346-0.784,2.219-0.784
	c0.969,0,1.762,0.317,2.377,0.953s0.924,1.513,0.924,2.633c0,0.907-0.137,1.622-0.409,2.142c-0.272,0.521-0.669,0.924-1.188,1.212
	s-1.088,0.432-1.703,0.432c-0.987,0-1.785-0.316-2.395-0.949C125.659,235.722,125.355,234.81,125.355,233.619z M126.584,233.619
	c0,0.903,0.196,1.579,0.59,2.028c0.395,0.45,0.891,0.675,1.488,0.675c0.593,0,1.086-0.226,1.48-0.678
	c0.395-0.451,0.592-1.14,0.592-2.065c0-0.871-0.199-1.532-0.595-1.982c-0.396-0.449-0.89-0.674-1.478-0.674
	c-0.598,0-1.094,0.225-1.488,0.671C126.78,232.041,126.584,232.716,126.584,233.619z"/>
<path fill="#E6E7E8" d="M137.985,237.146v-1.036c-0.55,0.797-1.295,1.195-2.238,1.195c-0.416,0-0.805-0.079-1.165-0.239
	c-0.361-0.159-0.629-0.359-0.804-0.601s-0.298-0.536-0.368-0.887c-0.049-0.234-0.073-0.606-0.073-1.115v-4.37h1.195v3.912
	c0,0.624,0.024,1.045,0.073,1.262c0.074,0.314,0.234,0.561,0.478,0.74s0.545,0.269,0.903,0.269s0.695-0.092,1.01-0.275
	s0.536-0.434,0.667-0.751c0.13-0.316,0.196-0.775,0.196-1.377v-3.779h1.195v7.053H137.985z"/>
<path fill="#E6E7E8" d="M140.9,237.146v-9.735h1.195v9.735H140.9z"/>
<path fill="#E6E7E8" d="M148.523,237.146v-0.89c-0.447,0.699-1.104,1.049-1.973,1.049c-0.562,0-1.078-0.155-1.55-0.465
	s-0.837-0.742-1.096-1.298s-0.389-1.194-0.389-1.916c0-0.704,0.117-1.342,0.353-1.916c0.234-0.573,0.586-1.013,1.055-1.318
	c0.47-0.305,0.994-0.458,1.574-0.458c0.426,0,0.804,0.09,1.136,0.269c0.332,0.18,0.603,0.414,0.81,0.701v-3.493h1.189v9.735H148.523
	z M144.745,233.626c0,0.903,0.19,1.578,0.571,2.025s0.83,0.671,1.348,0.671c0.522,0,0.967-0.214,1.332-0.642
	c0.365-0.427,0.547-1.078,0.547-1.955c0-0.965-0.186-1.674-0.557-2.125c-0.373-0.451-0.83-0.678-1.375-0.678
	c-0.531,0-0.975,0.217-1.332,0.651C144.924,232.008,144.745,232.692,144.745,233.626z"/>
<path fill="#E6E7E8" d="M156.393,237.146h-1.109v-9.735h1.195v3.474c0.506-0.633,1.149-0.95,1.934-0.95
	c0.434,0,0.844,0.088,1.231,0.263s0.706,0.42,0.956,0.736c0.25,0.317,0.446,0.699,0.588,1.146s0.213,0.925,0.213,1.434
	c0,1.209-0.299,2.143-0.896,2.803s-1.315,0.989-2.152,0.989c-0.832,0-1.484-0.347-1.959-1.042V237.146z M156.379,233.566
	c0,0.845,0.115,1.456,0.346,1.833c0.377,0.615,0.886,0.923,1.527,0.923c0.522,0,0.975-0.228,1.355-0.681
	c0.381-0.454,0.57-1.131,0.57-2.029c0-0.92-0.182-1.6-0.547-2.038s-0.808-0.657-1.326-0.657c-0.521,0-0.973,0.227-1.354,0.68
	C156.57,232.052,156.379,232.708,156.379,233.566z"/>
<path fill="#E6E7E8" d="M167.682,234.874l1.236,0.153c-0.195,0.722-0.557,1.281-1.083,1.68s-1.2,0.598-2.019,0.598
	c-1.031,0-1.85-0.317-2.454-0.952c-0.604-0.636-0.906-1.527-0.906-2.674c0-1.186,0.306-2.107,0.917-2.762
	c0.61-0.656,1.402-0.983,2.377-0.983c0.943,0,1.713,0.321,2.311,0.963s0.896,1.546,0.896,2.71c0,0.07-0.002,0.177-0.006,0.318h-5.26
	c0.044,0.775,0.264,1.368,0.657,1.779c0.394,0.412,0.886,0.618,1.474,0.618c0.439,0,0.812-0.115,1.123-0.346
	C167.255,235.747,167.5,235.379,167.682,234.874z M163.758,232.942h3.938c-0.053-0.594-0.203-1.039-0.451-1.335
	c-0.381-0.46-0.875-0.69-1.48-0.69c-0.55,0-1.012,0.184-1.385,0.551C164.004,231.835,163.797,232.327,163.758,232.942z"/>
<path fill="#E6E7E8" d="M174.482,237.146v-6.123h-1.057v-0.93h1.057v-0.75c0-0.474,0.041-0.826,0.125-1.056
	c0.115-0.31,0.318-0.562,0.608-0.754s0.696-0.289,1.218-0.289c0.337,0,0.709,0.04,1.116,0.12l-0.179,1.042
	c-0.248-0.044-0.483-0.066-0.705-0.066c-0.362,0-0.619,0.077-0.77,0.232s-0.227,0.445-0.227,0.87v0.65h1.375v0.93h-1.375v6.123
	H174.482z"/>
<path fill="#E6E7E8" d="M182.577,236.275c-0.442,0.376-0.869,0.642-1.278,0.797c-0.41,0.155-0.85,0.232-1.318,0.232
	c-0.775,0-1.37-0.188-1.786-0.567c-0.417-0.379-0.624-0.862-0.624-1.451c0-0.346,0.078-0.66,0.235-0.946s0.363-0.515,0.618-0.688
	c0.254-0.173,0.541-0.304,0.859-0.392c0.234-0.062,0.589-0.121,1.062-0.18c0.965-0.115,1.676-0.252,2.132-0.411
	c0.005-0.164,0.007-0.269,0.007-0.312c0-0.487-0.113-0.83-0.339-1.029c-0.306-0.271-0.759-0.405-1.361-0.405
	c-0.562,0-0.978,0.1-1.245,0.296c-0.268,0.197-0.467,0.546-0.594,1.046l-1.17-0.159c0.107-0.501,0.281-0.904,0.525-1.212
	c0.243-0.308,0.596-0.545,1.056-0.711s0.993-0.249,1.601-0.249c0.602,0,1.091,0.071,1.467,0.213c0.377,0.142,0.653,0.319,0.83,0.534
	c0.178,0.215,0.301,0.486,0.373,0.813c0.039,0.204,0.059,0.571,0.059,1.103v1.594c0,1.111,0.025,1.814,0.076,2.108
	c0.052,0.294,0.152,0.577,0.303,0.847h-1.248C182.691,236.897,182.612,236.607,182.577,236.275z M182.478,233.606
	c-0.435,0.177-1.085,0.327-1.952,0.451c-0.492,0.07-0.84,0.15-1.043,0.239s-0.361,0.218-0.471,0.388
	c-0.111,0.171-0.166,0.36-0.166,0.568c0,0.318,0.12,0.584,0.361,0.797s0.594,0.318,1.059,0.318c0.461,0,0.871-0.1,1.229-0.302
	c0.359-0.201,0.623-0.478,0.791-0.827c0.128-0.27,0.192-0.668,0.192-1.195V233.606z"/>
<path fill="#E6E7E8" d="M185.539,237.146v-7.053h1.068v0.99c0.222-0.346,0.516-0.623,0.883-0.834
	c0.368-0.21,0.787-0.315,1.256-0.315c0.522,0,0.951,0.108,1.285,0.325s0.57,0.521,0.707,0.91c0.558-0.823,1.283-1.235,2.178-1.235
	c0.699,0,1.238,0.194,1.613,0.581c0.377,0.388,0.564,0.984,0.564,1.79v4.841h-1.188v-4.442c0-0.479-0.039-0.822-0.117-1.032
	c-0.077-0.211-0.218-0.381-0.422-0.509c-0.203-0.128-0.441-0.192-0.717-0.192c-0.496,0-0.907,0.165-1.234,0.494
	c-0.328,0.33-0.492,0.858-0.492,1.584v4.098h-1.195v-4.582c0-0.531-0.098-0.93-0.292-1.195s-0.514-0.398-0.956-0.398
	c-0.336,0-0.647,0.088-0.934,0.266c-0.285,0.178-0.492,0.436-0.621,0.777c-0.128,0.34-0.191,0.832-0.191,1.474v3.659H185.539z"/>
<path fill="#E6E7E8" d="M196.423,233.619c0-1.306,0.362-2.272,1.089-2.901c0.606-0.523,1.346-0.784,2.219-0.784
	c0.969,0,1.762,0.317,2.377,0.953s0.923,1.513,0.923,2.633c0,0.907-0.136,1.622-0.409,2.142c-0.271,0.521-0.668,0.924-1.188,1.212
	c-0.521,0.288-1.088,0.432-1.703,0.432c-0.988,0-1.786-0.316-2.395-0.949C196.727,235.722,196.423,234.81,196.423,233.619z
	 M197.651,233.619c0,0.903,0.196,1.579,0.591,2.028c0.395,0.45,0.891,0.675,1.488,0.675c0.592,0,1.086-0.226,1.48-0.678
	c0.394-0.451,0.591-1.14,0.591-2.065c0-0.871-0.198-1.532-0.595-1.982c-0.396-0.449-0.889-0.674-1.477-0.674
	c-0.598,0-1.094,0.225-1.488,0.671C197.848,232.041,197.651,232.716,197.651,233.619z"/>
<path fill="#E6E7E8" d="M209.053,237.146v-1.036c-0.549,0.797-1.295,1.195-2.238,1.195c-0.416,0-0.805-0.079-1.164-0.239
	c-0.361-0.159-0.629-0.359-0.805-0.601c-0.174-0.241-0.297-0.536-0.368-0.887c-0.049-0.234-0.073-0.606-0.073-1.115v-4.37h1.195
	v3.912c0,0.624,0.024,1.045,0.073,1.262c0.075,0.314,0.235,0.561,0.478,0.74c0.244,0.18,0.545,0.269,0.904,0.269
	c0.357,0,0.694-0.092,1.009-0.275s0.536-0.434,0.667-0.751c0.131-0.316,0.196-0.775,0.196-1.377v-3.779h1.195v7.053H209.053z"/>
<path fill="#E6E7E8" d="M211.518,235.04l1.182-0.186c0.066,0.474,0.251,0.837,0.555,1.089c0.303,0.253,0.727,0.379,1.271,0.379
	c0.549,0,0.956-0.112,1.222-0.335c0.266-0.225,0.398-0.486,0.398-0.787c0-0.271-0.117-0.482-0.353-0.638
	c-0.163-0.106-0.57-0.241-1.221-0.405c-0.877-0.221-1.484-0.412-1.823-0.574s-0.596-0.385-0.771-0.671s-0.262-0.601-0.262-0.946
	c0-0.314,0.071-0.605,0.215-0.873c0.145-0.268,0.34-0.49,0.588-0.668c0.186-0.137,0.439-0.253,0.761-0.348
	c0.321-0.096,0.665-0.144,1.032-0.144c0.554,0,1.039,0.08,1.458,0.239c0.418,0.159,0.728,0.375,0.927,0.647s0.336,0.636,0.411,1.093
	l-1.169,0.159c-0.053-0.363-0.207-0.646-0.461-0.851c-0.255-0.203-0.615-0.305-1.08-0.305c-0.549,0-0.94,0.09-1.175,0.271
	c-0.235,0.182-0.353,0.395-0.353,0.638c0,0.155,0.049,0.294,0.146,0.419c0.098,0.128,0.25,0.234,0.459,0.318
	c0.119,0.045,0.471,0.146,1.055,0.306c0.846,0.226,1.436,0.411,1.771,0.554c0.334,0.145,0.597,0.354,0.786,0.628
	c0.191,0.274,0.286,0.616,0.286,1.022c0,0.398-0.116,0.773-0.349,1.126s-0.568,0.624-1.006,0.817
	c-0.438,0.191-0.935,0.288-1.488,0.288c-0.916,0-1.614-0.19-2.095-0.571C211.957,236.353,211.65,235.788,211.518,235.04z"/>
</svg>
