<?xml version="1.0" encoding="utf-8"?>
<!-- Generator: Adobe Illustrator 15.0.0, SVG Export Plug-In  -->
<!DOCTYPE svg PUBLIC "-//W3C//DTD SVG 1.1//EN" "http://www.w3.org/Graphics/SVG/1.1/DTD/svg11.dtd" [
	<!ENTITY ns_flows "http://ns.adobe.com/Flows/1.0/">
]>
<svg version="1.1"
	 xmlns="http://www.w3.org/2000/svg" xmlns:xlink="http://www.w3.org/1999/xlink" xmlns:a="http://ns.adobe.com/AdobeSVGViewerExtensions/3.0/"
	 x="0px" y="0px" width="136px" height="136px" viewBox="-11.085 -10.732 136 136"
	 overflow="visible" enable-background="new -11.085 -10.732 136 136" xml:space="preserve">
<defs>
</defs>
<circle fill="#41BFB5" cx="25.701" cy="25.833" r="24.414"/>
<g>
	<defs>
		<rect id="SVGID_5_" y="0.872" width="50.572" height="50.571"/>
	</defs>
	<clipPath id="SVGID_6_">
		<use xlink:href="#SVGID_5_"  overflow="visible"/>
	</clipPath>
	<path clip-path="url(#SVGID_6_)" fill="#1AA294" d="M36.159,21.077c0.117-2.683-0.667-4.839-1.724-6.566
		c-1.057-1.727-2.974-3.429-5.084-3.237c-1.262,0.115-1.806,0.59-2.092,1.267c-0.288,0.677-0.354,2.204-0.354,2.852v16.146
		c3.061-0.407,5.889-2.182,7.665-4.984C35.56,24.989,36.081,22.908,36.159,21.077"/>
	<path clip-path="url(#SVGID_6_)" fill="#1AA294" d="M25.328,1.125c-13.693,0-24.793,10.93-24.793,24.413
		c0,12.523,9.544,22.809,21.877,24.214c0.613,0.03,0.965-0.029,1.253-0.274c0.235-0.2,0.339-0.532,0.339-0.817l0.014-14.55
		c-6.677-0.694-12.017-6.198-11.935-12.957c0.079-6.455,4.524-11.627,10.409-12.845c0.155-0.032,0.261-0.062,0.344,0.021
		c0.09,0.09,0.038,0.311,0.038,0.311l-0.444,2.162c0,0-0.03,0.134-0.07,0.175c-0.04,0.04-0.091,0.061-0.152,0.08
		c-2.557,0.8-4.869,2.525-5.984,4.62c-0.93,1.746-1.535,3.05-1.535,5.426c0,5.117,4.023,9.805,9.33,10.442V15.392
		c0-1.688,0.088-3.659,1.081-5.006c0.775-1.05,2.125-1.697,4.254-1.697c3.062,0,6.729,2.248,8.581,7.104
		c0.56,1.468,0.891,3.329,0.886,5.335c-0.016,6.738-5.269,12.252-11.916,12.975l-0.013,14.56c0,0.385,0.121,0.67,0.345,0.842
		c0.269,0.208,0.495,0.294,1.246,0.229c0.279-0.023,0.81-0.091,1.037-0.129c11.697-1.96,20.602-11.99,20.602-24.066
		C50.122,12.055,39.021,1.125,25.328,1.125"/>
</g>
<circle fill="#71BF44" cx="89.374" cy="24.96" r="24.414"/>
<g>
	<defs>
		<rect id="SVGID_4_" x="64.437" width="50.571" height="50.572"/>
	</defs>
	<clipPath id="SVGID_7_">
		<use xlink:href="#SVGID_4_"  overflow="visible"/>
	</clipPath>
	<path clip-path="url(#SVGID_7_)" fill="#4EB748" d="M100.595,20.205c0.116-2.683-0.667-4.84-1.724-6.566s-2.974-3.429-5.085-3.236
		c-1.262,0.114-1.805,0.589-2.092,1.266c-0.288,0.677-0.354,2.204-0.354,2.852v16.146c3.06-0.408,5.889-2.182,7.664-4.984
		C99.996,24.117,100.515,22.036,100.595,20.205"/>
	<path clip-path="url(#SVGID_7_)" fill="#4EB748" d="M89.763,0.253c-13.692,0-24.793,10.93-24.793,24.413
		c0,12.523,9.544,22.809,21.878,24.215c0.612,0.03,0.965-0.029,1.252-0.275c0.236-0.199,0.34-0.531,0.34-0.816l0.015-14.55
		c-6.677-0.695-12.018-6.198-11.936-12.957c0.079-6.455,4.525-11.627,10.409-12.845c0.154-0.032,0.262-0.062,0.344,0.021
		C87.362,7.55,87.31,7.77,87.31,7.77l-0.445,2.162c0,0-0.029,0.135-0.069,0.176c-0.04,0.04-0.092,0.061-0.152,0.079
		c-2.557,0.8-4.869,2.526-5.986,4.62c-0.929,1.746-1.533,3.05-1.533,5.427c0,5.117,4.023,9.805,9.33,10.441V14.52
		c0-1.687,0.088-3.658,1.081-5.006c0.774-1.05,2.124-1.696,4.254-1.696c3.062,0,6.729,2.247,8.582,7.104
		c0.559,1.468,0.891,3.329,0.885,5.335c-0.016,6.738-5.27,12.252-11.916,12.975l-0.013,14.559c0,0.385,0.121,0.669,0.345,0.842
		c0.269,0.207,0.494,0.293,1.247,0.229c0.278-0.024,0.809-0.091,1.036-0.129c11.697-1.96,20.603-11.989,20.603-24.065
		C114.558,11.183,103.457,0.253,89.763,0.253"/>
</g>
<circle fill="#F2727C" cx="25.701" cy="88.612" r="24.414"/>
<g>
	<defs>
		<rect id="SVGID_3_" y="63.603" width="50.572" height="50.572"/>
	</defs>
	<clipPath id="SVGID_8_">
		<use xlink:href="#SVGID_3_"  overflow="visible"/>
	</clipPath>
	<path clip-path="url(#SVGID_8_)" fill="#E7495B" d="M36.159,83.807c0.117-2.684-0.667-4.839-1.724-6.566
		c-1.057-1.726-2.974-3.428-5.084-3.236c-1.262,0.115-1.806,0.59-2.092,1.266c-0.288,0.677-0.354,2.204-0.354,2.852v16.146
		c3.061-0.408,5.889-2.182,7.665-4.983C35.56,87.719,36.081,85.638,36.159,83.807"/>
	<path clip-path="url(#SVGID_8_)" fill="#E7495B" d="M25.328,63.855c-13.693,0-24.793,10.931-24.793,24.415
		c0,12.522,9.544,22.808,21.877,24.214c0.613,0.03,0.965-0.029,1.253-0.276c0.235-0.199,0.339-0.531,0.339-0.816l0.014-14.55
		c-6.677-0.695-12.017-6.198-11.935-12.957c0.079-6.454,4.524-11.628,10.409-12.846c0.155-0.031,0.261-0.061,0.344,0.022
		c0.09,0.09,0.038,0.311,0.038,0.311l-0.444,2.162c0,0-0.03,0.135-0.07,0.175s-0.091,0.061-0.152,0.08
		c-2.557,0.8-4.869,2.525-5.984,4.621c-0.93,1.746-1.535,3.05-1.535,5.427c0,5.116,4.023,9.804,9.33,10.441V78.123
		c0-1.688,0.088-3.659,1.081-5.007c0.775-1.049,2.125-1.696,4.254-1.696c3.062,0,6.729,2.247,8.581,7.104
		c0.56,1.468,0.891,3.329,0.886,5.335c-0.016,6.738-5.269,12.252-11.916,12.974l-0.013,14.56c0,0.385,0.121,0.669,0.345,0.842
		c0.269,0.208,0.495,0.293,1.246,0.229c0.279-0.024,0.81-0.091,1.037-0.129c11.697-1.961,20.602-11.991,20.602-24.066
		C50.122,74.785,39.021,63.855,25.328,63.855"/>
</g>
<circle fill="#FAAB68" cx="89.374" cy="88.612" r="24.414"/>
<g>
	<defs>
		<rect id="SVGID_2_" x="64.437" y="63.603" width="50.571" height="50.572"/>
	</defs>
	<clipPath id="SVGID_10_">
		<use xlink:href="#SVGID_2_"  overflow="visible"/>
	</clipPath>
	<path clip-path="url(#SVGID_10_)" fill="#F6862A" d="M100.595,83.807c0.116-2.684-0.667-4.839-1.724-6.566
		c-1.057-1.726-2.974-3.428-5.085-3.236c-1.262,0.115-1.805,0.59-2.092,1.266c-0.288,0.677-0.354,2.204-0.354,2.852v16.146
		c3.06-0.408,5.889-2.182,7.664-4.983C99.996,87.719,100.515,85.638,100.595,83.807"/>
	<path clip-path="url(#SVGID_10_)" fill="#F6862A" d="M89.763,63.855c-13.692,0-24.793,10.931-24.793,24.415
		c0,12.522,9.544,22.808,21.878,24.214c0.612,0.03,0.965-0.029,1.252-0.276c0.236-0.199,0.34-0.531,0.34-0.816l0.015-14.55
		c-6.677-0.695-12.018-6.198-11.936-12.957c0.079-6.454,4.525-11.628,10.409-12.846c0.154-0.031,0.262-0.061,0.344,0.022
		c0.091,0.09,0.038,0.311,0.038,0.311l-0.445,2.162c0,0-0.029,0.135-0.069,0.175s-0.092,0.061-0.152,0.08
		c-2.557,0.8-4.869,2.525-5.986,4.621c-0.929,1.746-1.533,3.05-1.533,5.427c0,5.116,4.023,9.804,9.33,10.441V78.123
		c0-1.688,0.088-3.659,1.081-5.007c0.774-1.049,2.124-1.696,4.254-1.696c3.062,0,6.729,2.247,8.582,7.104
		c0.559,1.468,0.891,3.329,0.885,5.335c-0.016,6.738-5.27,12.252-11.916,12.974l-0.013,14.56c0,0.385,0.121,0.669,0.345,0.842
		c0.269,0.208,0.494,0.293,1.247,0.229c0.278-0.024,0.809-0.091,1.036-0.129c11.697-1.961,20.603-11.991,20.603-24.066
		C114.558,74.785,103.457,63.855,89.763,63.855"/>
</g>
</svg>
