<?xml version="1.0" encoding="utf-8"?>
<!-- Generator: Adobe Illustrator 15.0.0, SVG Export Plug-In  -->
<!DOCTYPE svg PUBLIC "-//W3C//DTD SVG 1.1//EN" "http://www.w3.org/Graphics/SVG/1.1/DTD/svg11.dtd" [
	<!ENTITY ns_flows "http://ns.adobe.com/Flows/1.0/">
]>
<svg version="1.1"
	 xmlns="http://www.w3.org/2000/svg" xmlns:xlink="http://www.w3.org/1999/xlink" xmlns:a="http://ns.adobe.com/AdobeSVGViewerExtensions/3.0/"
	 x="0px" y="0px" width="220px" height="60px" viewBox="19.333 202.167 220 60"
	 overflow="visible" enable-background="new 19.333 202.167 220 60" xml:space="preserve">
<defs>
</defs>
<rect display="none" fill="#414241" width="254" height="286"/>
<g>
	<g>
		<path fill="#E6E7E8" d="M35.123,252.148v-27.378h-4.722v-4.157h4.722v-3.355c0-2.118,0.188-3.691,0.564-4.722
			c0.515-1.385,1.42-2.508,2.717-3.369c1.296-0.861,3.113-1.293,5.449-1.293c1.504,0,3.167,0.179,4.988,0.535l-0.802,4.662
			c-1.108-0.197-2.158-0.297-3.147-0.297c-1.623,0-2.771,0.346-3.444,1.039s-1.01,1.99-1.01,3.89v2.91h6.147v4.157h-6.147v27.378
			H35.123z"/>
		<path fill="#E6E7E8" d="M71.32,248.258c-1.979,1.683-3.885,2.872-5.716,3.563c-1.832,0.693-3.796,1.04-5.895,1.04
			c-3.464,0-6.127-0.847-7.987-2.539c-1.861-1.692-2.792-3.854-2.792-6.488c0-1.544,0.352-2.954,1.054-4.23
			c0.703-1.278,1.624-2.302,2.762-3.074c1.138-0.771,2.42-1.355,3.845-1.752c1.049-0.277,2.632-0.544,4.751-0.802
			c4.315-0.515,7.493-1.128,9.532-1.841c0.02-0.732,0.03-1.197,0.03-1.396c0-2.178-0.504-3.712-1.514-4.604
			c-1.366-1.207-3.396-1.811-6.087-1.811c-2.514,0-4.37,0.44-5.567,1.321c-1.198,0.881-2.084,2.44-2.658,4.677l-5.227-0.713
			c0.476-2.236,1.257-4.043,2.346-5.418c1.089-1.377,2.663-2.436,4.722-3.178c2.059-0.743,4.444-1.113,7.156-1.113
			c2.692,0,4.879,0.316,6.562,0.949c1.683,0.634,2.919,1.431,3.712,2.391c0.791,0.961,1.346,2.173,1.663,3.637
			c0.179,0.912,0.267,2.555,0.267,4.93v7.127c0,4.969,0.114,8.111,0.342,9.428c0.227,1.317,0.678,2.579,1.351,3.786h-5.582
			C71.835,251.04,71.479,249.743,71.32,248.258z M70.875,236.322c-1.94,0.791-4.85,1.465-8.73,2.019
			c-2.197,0.316-3.752,0.673-4.662,1.069c-0.911,0.396-1.614,0.975-2.108,1.737c-0.495,0.762-0.743,1.608-0.743,2.538
			c0,1.425,0.539,2.614,1.619,3.563c1.079,0.949,2.657,1.425,4.736,1.425c2.058,0,3.89-0.449,5.493-1.351
			c1.604-0.9,2.781-2.134,3.534-3.697c0.574-1.207,0.861-2.989,0.861-5.345V236.322z"/>
		<path fill="#E6E7E8" d="M84.563,252.148v-31.535h4.78v4.425c0.99-1.545,2.306-2.787,3.95-3.727c1.642-0.939,3.513-1.41,5.611-1.41
			c2.336,0,4.251,0.484,5.746,1.455c1.494,0.969,2.549,2.326,3.162,4.067c2.494-3.682,5.741-5.522,9.74-5.522
			c3.128,0,5.532,0.865,7.215,2.598s2.524,4.4,2.524,8.003v21.646h-5.315v-19.865c0-2.139-0.173-3.677-0.52-4.618
			c-0.347-0.939-0.975-1.696-1.885-2.271c-0.911-0.573-1.979-0.861-3.207-0.861c-2.218,0-4.059,0.738-5.523,2.213
			s-2.197,3.836-2.197,7.082v18.321h-5.345V231.66c0-2.376-0.436-4.157-1.307-5.346c-0.871-1.187-2.297-1.782-4.276-1.782
			c-1.504,0-2.895,0.396-4.172,1.188s-2.202,1.95-2.776,3.475s-0.861,3.722-0.861,6.592v16.361H84.563z"/>
		<path fill="#E6E7E8" d="M189.71,252.148v-4.632c-2.454,3.563-5.79,5.345-10.007,5.345c-1.861,0-3.599-0.356-5.212-1.069
			c-1.613-0.712-2.811-1.608-3.593-2.687c-0.781-1.079-1.331-2.401-1.648-3.965c-0.218-1.049-0.325-2.712-0.325-4.989v-19.538h5.344
			v17.489c0,2.792,0.108,4.673,0.326,5.643c0.337,1.405,1.049,2.51,2.139,3.311c1.089,0.803,2.435,1.202,4.039,1.202
			c1.604,0,3.106-0.409,4.513-1.231c1.405-0.821,2.4-1.94,2.984-3.355c0.583-1.415,0.875-3.47,0.875-6.161v-16.896h5.346v31.535
			H189.71z"/>
		<path fill="#E6E7E8" d="M200.727,242.736l5.286-0.832c0.297,2.118,1.123,3.741,2.479,4.869c1.356,1.129,3.252,1.692,5.688,1.692
			c2.454,0,4.275-0.499,5.463-1.499c1.188-0.999,1.781-2.172,1.781-3.519c0-1.208-0.523-2.157-1.573-2.851
			c-0.732-0.476-2.554-1.078-5.463-1.812c-3.921-0.989-6.637-1.846-8.151-2.568c-1.516-0.723-2.663-1.723-3.444-2.999
			c-0.782-1.277-1.174-2.688-1.174-4.231c0-1.405,0.322-2.707,0.966-3.904c0.643-1.198,1.52-2.193,2.627-2.984
			c0.832-0.614,1.965-1.133,3.4-1.56c1.435-0.425,2.974-0.638,4.617-0.638c2.475,0,4.648,0.355,6.518,1.068
			c1.871,0.713,3.252,1.678,4.143,2.895c0.891,1.219,1.505,2.847,1.842,4.885l-5.227,0.713c-0.237-1.623-0.926-2.89-2.064-3.801
			c-1.138-0.91-2.746-1.365-4.825-1.365c-2.455,0-4.206,0.405-5.256,1.217c-1.049,0.812-1.573,1.762-1.573,2.852
			c0,0.692,0.218,1.316,0.653,1.87c0.435,0.574,1.118,1.05,2.05,1.426c0.533,0.198,2.107,0.652,4.721,1.365
			c3.78,1.01,6.419,1.836,7.913,2.479s2.667,1.579,3.519,2.806c0.852,1.229,1.277,2.753,1.277,4.574c0,1.781-0.521,3.458-1.56,5.033
			c-1.038,1.573-2.538,2.79-4.498,3.651s-4.178,1.292-6.651,1.292c-4.099,0-7.221-0.852-9.369-2.554
			C202.69,248.604,201.321,246.081,200.727,242.736z"/>
	</g>
</g>
<g display="none">
	<defs>
		<rect id="SVGID_3_" x="124.686" y="183.149" width="33.684" height="33.685"/>
	</defs>
	<clipPath id="SVGID_4_" display="inline">
		<use xlink:href="#SVGID_3_"  display="none" overflow="visible"/>
	</clipPath>
	<path clip-path="url(#SVGID_4_)" d="M148.769,196.605c0.078-1.786-0.443-3.223-1.146-4.372c-0.705-1.15-1.98-2.285-3.389-2.156
		c-0.841,0.076-1.202,0.393-1.393,0.843c-0.19,0.45-0.235,1.468-0.235,1.899v10.754c2.038-0.271,3.923-1.453,5.105-3.319
		C148.369,199.214,148.716,197.827,148.769,196.605"/>
	<path clip-path="url(#SVGID_4_)" d="M141.557,183.317c-9.123,0-16.516,7.28-16.516,16.26c0,8.343,6.357,15.194,14.571,16.13
		c0.409,0.021,0.643-0.019,0.835-0.182c0.156-0.134,0.227-0.355,0.227-0.545l0.007-9.691c-4.444-0.462-8.003-4.128-7.947-8.63
		c0.052-4.299,3.014-7.746,6.934-8.557c0.102-0.021,0.172-0.04,0.229,0.015c0.059,0.06,0.024,0.208,0.024,0.208l-0.296,1.439
		c0,0-0.02,0.089-0.046,0.117c-0.027,0.026-0.063,0.041-0.103,0.052c-1.704,0.533-3.242,1.684-3.986,3.078
		c-0.62,1.165-1.021,2.03-1.021,3.615c0,3.407,2.678,6.53,6.211,6.956V192.82c0-1.124,0.061-2.438,0.724-3.334
		c0.518-0.7,1.414-1.13,2.833-1.13c2.039,0,4.481,1.497,5.715,4.73c0.374,0.979,0.596,2.219,0.588,3.556
		c-0.008,4.487-3.508,8.161-7.933,8.642l-0.011,9.698c0,0.257,0.083,0.447,0.229,0.562c0.183,0.139,0.332,0.195,0.831,0.151
		c0.186-0.016,0.54-0.061,0.69-0.085c7.792-1.308,13.723-7.988,13.723-16.03C158.07,190.598,150.678,183.317,141.557,183.317"/>
</g>
<g>
	<defs>
		<rect id="SVGID_2_" x="131.204" y="219.497" width="34.481" height="34.481"/>
	</defs>
	<clipPath id="SVGID_5_">
		<use xlink:href="#SVGID_2_"  overflow="visible"/>
	</clipPath>
	<path clip-path="url(#SVGID_5_)" fill="#E7495B" d="M155.858,233.271c0.079-1.829-0.455-3.298-1.174-4.476
		c-0.722-1.178-2.027-2.338-3.469-2.207c-0.859,0.078-1.23,0.402-1.426,0.863s-0.24,1.504-0.24,1.945v11.008
		c2.086-0.277,4.015-1.488,5.225-3.398C155.448,235.94,155.803,234.522,155.858,233.271"/>
	<path clip-path="url(#SVGID_5_)" fill="#E7495B" d="M148.475,219.669c-9.338,0-16.905,7.453-16.905,16.646
		c0,8.539,6.507,15.551,14.916,16.51c0.419,0.019,0.657-0.02,0.854-0.188c0.16-0.135,0.232-0.362,0.232-0.555l0.008-9.922
		c-4.551-0.474-8.193-4.226-8.137-8.833c0.054-4.4,3.085-7.929,7.098-8.76c0.105-0.021,0.177-0.041,0.235,0.016
		c0.061,0.061,0.024,0.213,0.024,0.213l-0.303,1.473c0,0-0.021,0.092-0.047,0.119c-0.027,0.027-0.065,0.042-0.105,0.054
		c-1.743,0.546-3.317,1.724-4.079,3.149c-0.634,1.193-1.046,2.08-1.046,3.701c0,3.489,2.74,6.686,6.357,7.121v-11.016
		c0-1.15,0.063-2.496,0.74-3.414c0.529-0.716,1.447-1.156,2.899-1.156c2.088,0,4.589,1.531,5.852,4.843
		c0.383,1.001,0.609,2.271,0.603,3.64c-0.01,4.593-3.591,8.354-8.121,8.846l-0.012,9.927c0,0.262,0.085,0.456,0.235,0.574
		c0.186,0.142,0.338,0.199,0.85,0.157c0.19-0.019,0.553-0.063,0.708-0.089c7.976-1.337,14.046-8.175,14.046-16.409
		C165.379,227.122,157.812,219.669,148.475,219.669"/>
</g>
</svg>
