<?xml version="1.0" standalone="no"?>
<!DOCTYPE svg PUBLIC "-//W3C//DTD SVG 1.1//EN" "http://www.w3.org/Graphics/SVG/1.1/DTD/svg11.dtd" >
<svg xmlns="http://www.w3.org/2000/svg">
<metadata>
This is a custom SVG webfont generated by Font Squirrel.
Copyright   : URWCopyright 1999 by URW Design  Development
</metadata>
<defs>
<font id="IsonormBeckerRegular" horiz-adv-x="915" vert-adv-y="2048" >
<font-face units-per-em="2048" ascent="1636" descent="-412" />
<missing-glyph horiz-adv-x="393" />
<glyph unicode=" " horiz-adv-x="393" vert-adv-y="0" />
<glyph unicode="!" horiz-adv-x="479" vert-adv-y="1633" d="M190 78q0 36 28 62q24 22 58 22q35 0 61 -28q22 -24 22 -56q0 -38 -28 -63q-24 -22 -56 -22q-38 0 -63 28q-22 24 -22 57zM207 484v820q0 25 10 40q21 36 61 36t61 -36q10 -16 10 -40v-820q0 -24 -10 -40q-21 -36 -61 -36t-61 36q-10 16 -10 40z" />
<glyph unicode="&#x22;" horiz-adv-x="693" vert-adv-y="1633" d="M109 974q0 43 4 64l40 228q10 57 17 75q15 37 62 37q33 0 51 -25q15 -20 15 -48q0 -37 -5 -64l-40 -228q-8 -56 -19 -77q-18 -35 -61 -35q-31 0 -49 25q-15 19 -15 48zM395 974q0 39 4 64l41 228q11 60 17 75q15 37 61 37q33 0 51 -25q15 -20 15 -49q0 -40 -4 -63 l-40 -228q-9 -55 -20 -77q-18 -35 -60 -35q-31 0 -50 25q-15 19 -15 48z" />
<glyph unicode="#" horiz-adv-x="957" vert-adv-y="1633" d="M27 519q0 40 36 61q16 10 40 10h132l33 186h-110q-25 0 -41 10q-36 21 -36 61t36 61q16 10 41 10h135l45 255q11 63 71 63q25 0 45 -16q22 -17 22 -53q0 -29 -6 -62l-33 -187h170l45 255q11 63 71 63q26 0 45 -16q22 -17 22 -53q0 -29 -6 -62l-33 -187h103q24 0 40 -10 q36 -21 36 -61t-36 -61q-16 -10 -40 -10h-128l-33 -186h106q24 0 40 -10q36 -21 36 -61t-36 -61q-16 -10 -40 -10h-131l-44 -254q-5 -23 -17 -38q-22 -25 -55 -25q-24 0 -44 16q-26 21 -26 56q0 8 2 16l40 229h-170l-44 -254q-5 -23 -17 -38q-22 -25 -55 -25q-24 0 -44 16 q-26 21 -26 56q0 8 2 16l40 229h-107q-24 0 -40 10q-36 21 -36 61zM379 590h170l33 186h-170z" />
<glyph unicode="$" horiz-adv-x="967" vert-adv-y="1633" d="M69 188q0 29 24 49q15 13 33 13q25 0 54 -13q21 -9 97 -44q96 -43 152 -49v492l-120 82q-213 146 -213 311q0 126 92 221q88 90 241 112v108q0 24 10 40q21 36 61 36t61 -36q10 -16 10 -40v-109q91 -12 168 -46q123 -53 123 -116q0 -30 -22 -51q-16 -15 -32 -15 q-29 0 -79 29q-77 44 -158 57v-508l127 -85q115 -77 153 -139q42 -68 42 -152q0 -184 -175 -279q-63 -33 -147 -48v-122q0 -24 -10 -40q-21 -36 -61 -36t-61 36q-10 16 -10 40v114q-96 8 -180 40q-180 70 -180 148zM238 1037q0 -76 68 -138q43 -38 123 -92v409 q-51 -11 -88 -30q-103 -54 -103 -149zM571 151q54 13 91 37q83 52 83 136q0 70 -62 128q-34 31 -112 87v-388z" />
<glyph unicode="%" horiz-adv-x="1882" vert-adv-y="1633" d="M47 1058q0 135 98 226q88 82 221 82q143 0 234 -106q75 -86 75 -205q0 -138 -98 -229q-88 -82 -216 -82q-148 0 -240 106q-74 86 -74 208zM189 1055q0 -82 59 -132q44 -37 113 -37q79 0 125 49q47 49 47 121q0 80 -59 131q-44 37 -116 37q-75 0 -122 -49t-47 -120z M450 65q0 21 15 43l825 1223q24 35 62 35q34 0 55 -27q16 -19 16 -45q0 -20 -15 -43l-825 -1223q-24 -35 -62 -35q-34 0 -55 27q-16 19 -16 45zM1208 308q0 135 98 227q87 82 221 82q143 0 234 -106q75 -87 75 -205q0 -139 -98 -230q-88 -82 -216 -82q-148 0 -239 106 q-75 87 -75 208zM1350 306q0 -83 59 -133q44 -37 113 -37q80 0 125 49q47 49 47 122q0 80 -59 131q-44 37 -116 37q-75 0 -122 -49t-47 -120z" />
<glyph unicode="&#x26;" horiz-adv-x="1071" vert-adv-y="1633" d="M91 305q0 117 106 229l146 154l-103 155q-79 120 -79 218q0 123 89 213q92 92 222 92q133 0 227 -92q87 -86 87 -212q0 -137 -106 -243l-150 -150l204 -306l144 116q60 48 98 48q27 0 48 -22q17 -19 17 -45q0 -27 -26 -50q-6 -6 -40 -34l-163 -136l79 -114q24 -35 24 -63 t-20 -46t-50 -18q-29 0 -46 17q-11 10 -24 29l-75 109q-60 -50 -94 -74q-112 -81 -214 -81q-117 0 -208 91q-93 93 -93 215zM233 299q0 -68 51 -115q47 -43 107 -43q90 0 234 136l-203 296l-120 -129q-69 -75 -69 -145zM303 1058q0 -49 33 -101l109 -169l133 136 q26 25 50 73q16 31 16 61q0 70 -57 121q-50 45 -115 45q-74 0 -124 -57q-45 -50 -45 -109z" />
<glyph unicode="'" horiz-adv-x="406" vert-adv-y="1633" d="M109 974q0 43 4 64l40 228q10 57 17 75q15 37 62 37q33 0 51 -25q15 -20 15 -48q0 -37 -5 -64l-40 -228q-8 -56 -19 -77q-18 -35 -61 -35q-31 0 -49 25q-15 19 -15 48z" />
<glyph unicode="(" horiz-adv-x="488" vert-adv-y="1633" d="M110 631q0 209 77 487q45 160 86 221q22 32 58 32q27 0 44 -20t17 -46q0 -27 -49 -160q-91 -245 -91 -527q0 -286 96 -546q43 -116 43 -148q0 -30 -21 -49q-20 -17 -45 -17q-35 0 -59 38q-33 52 -80 225q-76 274 -76 510z" />
<glyph unicode=")" horiz-adv-x="488" vert-adv-y="1633" d="M96 -76q0 27 49 160q91 245 91 527q0 287 -96 546q-43 116 -43 148q0 30 21 49q20 17 46 17q34 0 58 -38q33 -52 80 -224q76 -275 76 -511q0 -222 -77 -487q-49 -167 -86 -221q-22 -32 -57 -32q-28 0 -45 20t-17 46z" />
<glyph unicode="*" horiz-adv-x="735" vert-adv-y="1633" d="M95 1063q0 31 23 49q10 8 60 27l75 28l-65 97q-16 23 -16 47q0 23 16 43q22 28 55 28q29 0 48 -23q3 -3 30 -43l36 -54l77 85q26 28 57 28q27 0 50 -20q22 -20 22 -50q0 -27 -48 -76l-50 -52l119 -46q54 -21 54 -70q0 -33 -23 -53q-18 -17 -40 -17q-13 0 -66 18l-75 26 v-110q0 -35 -20 -56q-21 -22 -54 -22q-37 0 -56 32q-9 14 -9 78v79l-96 -38q-17 -7 -34 -7q-32 0 -54 27q-16 21 -16 45z" />
<glyph unicode="+" vert-adv-y="1633" d="M109 683q0 40 36 61q16 10 40 10h201v201q0 24 10 40q21 36 61 36t61 -36q10 -16 10 -40v-201h201q24 0 40 -10q36 -21 36 -61t-36 -61q-16 -10 -40 -10h-201v-201q0 -24 -10 -40q-21 -36 -61 -36t-61 36q-10 16 -10 40v201h-201q-24 0 -40 10q-36 21 -36 61z" />
<glyph unicode="," horiz-adv-x="370" vert-adv-y="1633" d="M74 -189q0 37 10 75l46 172q13 54 26 74q19 30 57 30q29 0 46 -19q19 -21 19 -47q0 -37 -10 -75l-46 -172q-17 -59 -24 -73q-16 -32 -57 -32q-31 0 -48 19q-19 21 -19 48z" />
<glyph unicode="-" horiz-adv-x="550" vert-adv-y="1633" d="M0 506q0 40 36 61q16 10 40 10h398q24 0 40 -10q36 -21 36 -61t-36 -61q-16 -10 -40 -10h-398q-24 0 -40 10q-36 21 -36 61z" />
<glyph unicode="." horiz-adv-x="370" vert-adv-y="1633" d="M101 78q0 36 28 62q24 22 58 22q35 0 61 -28q22 -24 22 -56q0 -38 -28 -63q-24 -22 -56 -22q-38 0 -63 28q-22 24 -22 57z" />
<glyph unicode="/" horiz-adv-x="960" vert-adv-y="1633" d="M93 61q0 18 10 37l629 1234q22 43 63 43q31 0 53 -20q20 -19 20 -39q0 -30 -29 -87l-610 -1196q-22 -43 -66 -43q-28 0 -49 20q-21 21 -21 51z" />
<glyph unicode="0" vert-adv-y="1633" d="M110 687q0 293 99 491q95 188 253 188q97 0 180 -93q90 -100 133 -295q30 -131 30 -287q0 -288 -99 -498q-44 -93 -120 -151q-57 -43 -129 -43q-101 0 -185 96q-88 102 -132 304q-30 135 -30 288zM252 683q0 -274 78 -438q50 -104 127 -104q84 0 136 123q70 164 70 420 q0 170 -36 311q-58 229 -171 229q-82 0 -134 -123q-70 -165 -70 -418z" />
<glyph unicode="1" vert-adv-y="1633" d="M183 1016q0 34 63 97l118 118q91 91 126 117q23 17 50 17q37 0 48 -27q12 -30 12 -94v-1169q0 -24 -10 -40q-21 -36 -61 -36t-61 36q-10 16 -10 40v1045q-30 -31 -106 -105q-68 -67 -102 -67q-26 0 -48 24q-19 21 -19 44z" />
<glyph unicode="2" vert-adv-y="1633" d="M108 54q0 28 40 90l381 591q79 123 98 157q38 71 38 138q0 90 -61 143q-58 51 -147 51q-73 0 -121 -38q-39 -32 -74 -98q-26 -48 -43 -60q-18 -13 -38 -13q-31 0 -53 24q-20 23 -20 54q0 58 51 124q65 83 168 123q66 26 139 26q161 0 263 -108q81 -86 81 -216 q0 -86 -25 -150q-23 -58 -75 -137l-401 -613h415q24 0 40 -10q36 -21 36 -61t-36 -61q-16 -10 -40 -10h-512q-104 0 -104 54z" />
<glyph unicode="3" vert-adv-y="1633" d="M83 71q0 40 36 61q16 10 40 10h215q112 0 165 29q47 27 71 82q33 73 33 159q0 262 -247 262h-91q-25 0 -40 10q-36 21 -36 61t36 61q16 10 40 10h90q84 0 145 36q98 59 98 173q0 79 -48 132q-59 66 -213 66h-218q-24 0 -40 10q-36 21 -36 61t36 61q16 10 40 10h210 q166 0 255 -54q72 -44 115 -127q41 -77 41 -163q0 -165 -136 -271q141 -96 141 -323q0 -219 -114 -335q-90 -92 -261 -92h-251q-24 0 -40 10q-36 21 -36 61z" />
<glyph unicode="4" vert-adv-y="1633" d="M63 327q0 20 13 66l231 811q28 103 41 126q21 36 61 36q31 0 50 -23q13 -17 13 -44q0 -29 -18 -93l-227 -803h316v256q0 24 10 40q21 36 61 36t61 -36q10 -16 10 -40v-256h128q24 0 40 -10q36 -21 36 -61t-36 -61q-16 -10 -40 -10h-128v-186q0 -24 -10 -40 q-21 -36 -61 -36t-61 36q-10 16 -10 40v186h-372q-108 0 -108 66z" />
<glyph unicode="5" vert-adv-y="1633" d="M168 71q0 40 36 61q16 10 40 10h162q107 0 165 59q45 46 56 105q8 45 8 99q0 174 -70 234q-57 49 -152 49h-152q-88 1 -88 88v501q-2 86 88 88h457q24 0 40 -10q36 -21 36 -61t-36 -61q-16 -10 -40 -10h-403v-393h80q208 0 298 -109q84 -101 84 -314q0 -141 -40 -222 q-92 -185 -309 -185h-184q-24 0 -40 10q-36 21 -36 61z" />
<glyph unicode="6" vert-adv-y="1633" d="M118 413v193q0 369 241 612q83 84 165 125q48 23 76 23q31 0 54 -25q18 -19 18 -42q0 -24 -21 -48q-15 -16 -74 -51q-116 -69 -195 -179q-76 -108 -90 -201h159q180 0 265 -81q98 -93 98 -309q0 -206 -90 -317q-92 -114 -264 -114q-126 0 -214 68q-128 98 -128 346z M260 398q0 -112 33 -171q48 -86 172 -86q119 0 164 74q43 71 43 200q0 146 -57 206q-54 57 -165 57h-174q-15 -92 -16 -186v-94z" />
<glyph unicode="7" vert-adv-y="1633" d="M102 1294q0 40 36 61q16 10 40 10h495q116 0 116 -61q0 -28 -11 -67l-116 -421h37q24 0 40 -10q36 -21 36 -61t-36 -61q-16 -10 -40 -10h-76l-122 -445l-19 -68q-22 -83 -34 -112q-21 -50 -68 -50q-37 0 -57 27q-12 17 -12 37t22 94l143 517h-45q-24 0 -40 10 q-36 21 -36 61t36 61q16 10 40 10h83l113 407h-449q-24 0 -40 10q-36 21 -36 61z" />
<glyph unicode="8" vert-adv-y="1633" d="M110 392q0 183 46 272q25 47 74 93q-102 114 -102 272q0 144 82 237q89 100 243 100q150 0 239 -93q97 -100 97 -253q0 -149 -107 -263q56 -50 82 -99q41 -79 41 -226q0 -211 -67 -304q-42 -60 -123 -94q-81 -35 -170 -35q-156 0 -249 103q-64 70 -77 155q-9 54 -9 135z M248 427q0 -141 41 -214q42 -72 167 -72q119 0 163 71t44 209q0 134 -48 198q-49 66 -169 66q-112 0 -156 -69q-42 -67 -42 -189zM270 1024q0 -82 41 -138q42 -59 140 -59q99 0 148 58q48 56 48 141q0 73 -36 126q-49 72 -153 72q-94 0 -145 -66q-43 -56 -43 -134z" />
<glyph unicode="9" vert-adv-y="1633" d="M100 936q0 203 91 316q92 114 263 114q127 0 214 -68q128 -98 128 -346v-193q0 -368 -241 -612q-83 -84 -165 -125q-47 -23 -76 -23q-31 0 -54 25q-18 19 -18 42q0 24 21 48q15 16 74 51q116 69 195 180q75 106 90 200h-159q-180 0 -265 81q-98 93 -98 310zM242 950 q0 -146 57 -206q54 -57 165 -57h174q16 91 16 186v94q0 112 -33 171q-48 86 -172 86q-119 0 -164 -75q-43 -71 -43 -199z" />
<glyph unicode=":" horiz-adv-x="370" vert-adv-y="1633" d="M101 78q0 36 28 62q24 22 58 22q35 0 61 -28q22 -24 22 -56q0 -38 -28 -63q-24 -22 -56 -22q-38 0 -63 28q-22 24 -22 57zM101 621q0 36 28 62q24 22 58 22q35 0 61 -28q22 -24 22 -56q0 -38 -28 -63q-24 -22 -56 -22q-38 0 -63 28q-22 24 -22 57z" />
<glyph unicode=";" horiz-adv-x="370" vert-adv-y="1633" d="M74 -189q0 37 10 75l46 172q13 54 26 74q19 30 57 30q29 0 46 -19q19 -21 19 -47q0 -37 -10 -75l-46 -172q-17 -59 -24 -73q-16 -32 -57 -32q-31 0 -48 19q-19 21 -19 48zM114 621q0 36 28 62q24 22 58 22q35 0 61 -28q22 -24 22 -56q0 -38 -28 -63q-24 -22 -56 -22 q-38 0 -63 28q-22 24 -22 57z" />
<glyph unicode="&#x3c;" horiz-adv-x="1024" vert-adv-y="1633" d="M68 616v134l887 417v-154l-721 -330l721 -330v-155z" />
<glyph unicode="=" vert-adv-y="1633" d="M109 487q0 40 36 61q16 10 40 10h544q24 0 40 -10q36 -21 36 -61t-36 -61q-16 -10 -40 -10h-544q-24 0 -40 10q-36 21 -36 61zM109 878q0 40 36 61q16 10 40 10h544q24 0 40 -10q36 -21 36 -61t-36 -61q-16 -10 -40 -10h-544q-24 0 -40 10q-36 21 -36 61z" />
<glyph unicode="&#x3e;" horiz-adv-x="1024" vert-adv-y="1633" d="M69 198v155l721 330l-721 330v154l887 -417v-134z" />
<glyph unicode="?" horiz-adv-x="858" vert-adv-y="1633" d="M88 1231q0 38 50 70q52 34 137 59q81 24 155 24q113 0 202 -51q148 -84 148 -251q0 -113 -68 -186q-17 -18 -154 -119q-50 -38 -50 -114v-175q0 -24 -10 -40q-21 -36 -61 -36t-61 36q-10 16 -10 40v179q0 95 26 141q16 30 48 56q20 17 102 75q96 68 96 143q0 62 -52 107 q-62 53 -158 53q-86 0 -196 -53q-51 -24 -82 -24q-25 0 -45 22q-17 20 -17 44zM353 78q0 36 28 62q24 22 58 22q35 0 61 -28q22 -24 22 -56q0 -38 -28 -63q-24 -22 -56 -22q-38 0 -63 28q-22 24 -22 57z" />
<glyph unicode="@" horiz-adv-x="1132" vert-adv-y="1633" d="M112 361v643q-3 190 114 288q91 74 264 73h243q293 -7 292 -315v-530q-1 -81 -21 -101q-21 -25 -71 -26h-195q-142 0 -215 42q-62 36 -101 103q-40 69 -40 143q0 104 72 186q81 91 242 91h187v56q-2 129 -35 164q-39 45 -112 45h-268q-113 -1 -160 -49q-53 -50 -54 -192 v-599q1 -143 54 -192q50 -49 160 -49h333q24 0 40 -10q36 -21 36 -61t-36 -61q-16 -10 -40 -10h-311q-375 -6 -378 361zM534 678q0 -71 63 -110q45 -28 117 -28h169v276h-141q-88 0 -135 -21q-33 -14 -54 -50q-19 -31 -19 -67z" />
<glyph unicode="A" horiz-adv-x="1043" vert-adv-y="1633" d="M44 68q0 13 5 28l398 1182q29 88 81 88q44 0 61 -37q9 -20 21 -54l385 -1179q5 -16 5 -29q0 -26 -19 -46q-21 -23 -52 -23q-52 0 -69 54l-93 276h-493l-90 -277q-17 -53 -69 -53q-31 0 -52 23q-19 21 -19 47zM321 470h403l-197 605z" />
<glyph unicode="B" horiz-adv-x="1105" vert-adv-y="1633" d="M189 87v1191v6q0 39 23 63q22 18 60 18h4h260q101 0 151 -11q132 -28 205 -142q57 -89 57 -195q0 -74 -22.5 -133t-79.5 -135q168 -152 168 -344q0 -161 -113 -279q-120 -126 -376 -126h-250h-4q-43 0 -66 24q-18 25 -17 63zM331 142h232q112 0 183 44q52 31 87 90 q40 66 40 133q0 100 -82 198q-27 32 -70 66h-390v-531zM331 815h392q84 100 84 198q0 68 -41 124q-63 86 -214 86h-221v-408z" />
<glyph unicode="C" horiz-adv-x="853" vert-adv-y="1633" d="M133 361v643v9q0 183 114 279q90 73 259 73h5h243q24 0 40 -10q36 -21 36 -61t-36 -61q-16 -10 -40 -10h-265q-112 -1 -160 -49q-53 -50 -54 -192v-599q1 -142 54 -192q50 -49 160 -49h265q24 0 40 -10q36 -21 36 -61t-36 -61q-16 -10 -40 -10h-243h-12q-363 0 -366 361z " />
<glyph unicode="D" horiz-adv-x="1147" vert-adv-y="1633" d="M189 87v1191v6q0 39 23 63q22 18 60 18h4h359q134 -1 208 -31q78 -32 126 -103q47 -63 50 -227v-643q0 -102 -19 -162q-71 -199 -349 -199h-16h-359h-4q-43 0 -66 24q-18 25 -17 63zM331 142h332q111 0 165 58q48 55 49 183v599q-1 139 -60 194q-52 47 -154 47h-332 v-1081z" />
<glyph unicode="E" vert-adv-y="1633" d="M189 87v1191v6q0 39 23 63q22 18 60 18h4h519q24 0 40 -10q36 -21 36 -61t-36 -61q-16 -10 -40 -10h-464v-408h327q24 0 40 -10q36 -21 36 -61t-36 -61q-16 -10 -40 -10h-327v-531h464q24 0 40 -10q36 -21 36 -61t-36 -61q-16 -10 -40 -10h-519h-4q-43 0 -66 24 q-18 25 -17 63z" />
<glyph unicode="F" vert-adv-y="1633" d="M189 75v1203v6q0 39 23 63q22 18 60 18h4h519q24 0 40 -10q36 -21 36 -61t-36 -61q-16 -10 -40 -10h-464v-408h464q24 0 40 -10q36 -21 36 -61t-36 -61q-16 -10 -40 -10h-464v-598q0 -24 -10 -40q-21 -36 -61 -36t-61 36q-10 16 -10 40z" />
<glyph unicode="G" horiz-adv-x="1081" vert-adv-y="1633" d="M133 362v642v6q0 355 378 355h6h370q24 0 40 -10q36 -21 36 -61t-36 -61q-16 -10 -40 -10h-398q-116 0 -168 -59q-45 -51 -46 -182v-599q1 -142 63 -200q26 -23 60 -32q33 -9 91 -9h332v536h-127q-24 0 -40 10q-36 21 -36 61t36 61q16 10 40 10h182q46 0 67 -23 q20 -21 20 -71v-632q-1 -60 -23 -77q-20 -17 -63 -17h-360h-10q-156 0 -247 61q-127 91 -127 295v6z" />
<glyph unicode="H" horiz-adv-x="1199" vert-adv-y="1633" d="M187 75v1215q0 24 10 40q21 36 61 36t61 -36q10 -16 10 -40v-465h541v465q0 24 10 40q21 36 61 36t61 -36q10 -16 10 -40v-1215q0 -24 -10 -40q-21 -36 -61 -36t-61 36q-10 16 -10 40v608h-541v-608q0 -24 -10 -40q-21 -36 -61 -36t-61 36q-10 16 -10 40z" />
<glyph unicode="I" horiz-adv-x="517" vert-adv-y="1633" d="M187 75v1215q0 24 10 40q21 36 61 36t61 -36q10 -16 10 -40v-1215q0 -24 -10 -40q-21 -36 -61 -36t-61 36q-10 16 -10 40z" />
<glyph unicode="J" horiz-adv-x="725" vert-adv-y="1633" d="M12 71q0 40 36 61q16 10 40 10h165q171 9 171 219v22v907q0 24 10 40q21 36 61 36t61 -36q10 -16 10 -40v-929q-1 -159 -53 -233q-52 -80 -162 -113q-50 -15 -121 -15h-142q-24 0 -40 10q-36 21 -36 61z" />
<glyph unicode="K" horiz-adv-x="1057" vert-adv-y="1633" d="M187 75v1215q0 24 10 40q21 36 61 36t61 -36q10 -16 10 -40v-540l579 594q24 24 54 24q29 0 50 -21t21 -50t-24 -53l-398 -411l364 -692q29 -54 29 -75q0 -25 -18 -45q-21 -24 -54 -24q-31 0 -51 26q-11 14 -29 49l-11 21l-332 632l-180 -166v-484q0 -24 -10 -40 q-21 -36 -61 -36t-61 36q-10 16 -10 40z" />
<glyph unicode="L" horiz-adv-x="887" vert-adv-y="1633" d="M188 87v1203q0 24 10 40q21 36 61 36t61 -36q10 -16 10 -40v-1148h464q24 0 40 -10q36 -21 36 -61t-36 -61q-16 -10 -40 -10h-519h-4q-43 0 -66 24q-18 25 -17 63z" />
<glyph unicode="M" horiz-adv-x="1356" vert-adv-y="1633" d="M187 75v1161q0 130 70 130q41 0 77 -59l344 -568l343 568q36 59 77 59q70 0 70 -130v-1161q0 -24 -10 -40q-21 -36 -61 -36t-61 36q-10 16 -10 40v957l-251 -414q-20 -33 -42 -59q-25 -29 -55 -29q-31 0 -56 29q-22 26 -42 59l-251 414v-957q0 -24 -10 -40 q-21 -36 -61 -36t-61 36q-10 16 -10 40z" />
<glyph unicode="N" horiz-adv-x="1204" vert-adv-y="1633" d="M187 75v1161q0 130 68 130q46 0 77 -55l543 -963v942q0 24 10 40q21 36 61 36t61 -36q10 -16 10 -40v-1159q0 -132 -70 -132q-26 0 -46 22q-17 19 -40 60l-532 956v-962q0 -24 -10 -40q-21 -36 -61 -36t-61 36q-10 16 -10 40z" />
<glyph unicode="O" horiz-adv-x="1062" vert-adv-y="1633" d="M116 456v459q0 196 106 313q59 66 143 103q82 35 168 35q124 0 230 -68q93 -60 141 -166q42 -92 42 -191v-517q0 -121 -64 -232q-58 -98 -161 -149q-89 -44 -188 -44q-183 0 -306 133q-67 72 -90 156q-21 73 -21 168zM258 456q0 -162 76 -237q79 -78 198 -78 q133 0 212 97q60 73 60 207v475q0 140 -66 214q-80 90 -209 90q-131 0 -208 -93q-63 -77 -63 -218v-457z" />
<glyph unicode="P" horiz-adv-x="1100" vert-adv-y="1633" d="M189 75v1203v6q0 39 23 63q22 18 60 18h4h301q188 0 304 -98q147 -125 147 -324q0 -205 -145 -315q-122 -92 -280 -92h-272v-461q0 -24 -10 -40q-21 -36 -61 -36t-61 36q-10 16 -10 40zM331 678h251q120 0 190 48q114 77 114 225q0 110 -68 186q-78 86 -243 86h-244v-545 z" />
<glyph unicode="Q" horiz-adv-x="1062" vert-adv-y="1633" d="M116 456v459q0 184 93 298q60 75 152 116q83 37 172 37q116 0 218 -60q102 -61 154 -175q41 -91 41 -190v-517q-1 -100 -38 -181l119 -95q56 -45 56 -80q0 -28 -23 -47q-23 -20 -48 -20t-58 25l-126 96q-122 -123 -295 -123q-190 0 -315 143q-60 69 -81 146 q-21 73 -21 168zM258 456q0 -153 67 -227q79 -88 206 -88q106 0 185 69l-80 63q-47 37 -47 73q0 31 26 53q20 18 42 18q25 0 79 -41l56 -42q12 50 12 111v475q0 132 -57 203q-80 101 -217 101q-132 0 -209 -93q-63 -77 -63 -218v-457z" />
<glyph unicode="R" horiz-adv-x="1114" vert-adv-y="1633" d="M189 75v1203v6q0 39 23 63q22 18 60 18h4h301q131 0 211 -38q120 -57 186 -173q54 -96 54 -204q0 -149 -96 -265q-56 -68 -155 -117l216 -435q22 -45 22 -73q0 -26 -20 -44q-19 -17 -44 -17q-40 0 -69 57l-248 480h-303v-461q0 -24 -10 -40q-21 -36 -61 -36t-61 36 q-10 16 -10 40zM331 678h251q131 0 211 66q93 77 93 208t-94 206q-81 65 -217 65h-244v-545z" />
<glyph unicode="S" horiz-adv-x="962" vert-adv-y="1633" d="M65 188q0 29 24 49q15 13 34 13q26 0 53 -13l98 -47q102 -49 205 -49q112 0 193 52q75 48 75 130q0 80 -83 146q-46 36 -252 175q-179 121 -240 187q-80 87 -80 198q0 104 66 190q112 147 338 147q159 0 290 -76q72 -43 72 -91q0 -30 -22 -51q-16 -15 -35 -15 q-22 0 -76 29q-116 62 -220 62t-185 -48q-86 -51 -86 -140q0 -61 48 -116q65 -75 359 -259q141 -88 186 -146q62 -78 62 -182q0 -154 -128 -247q-120 -87 -296 -87q-136 0 -273 64q-127 60 -127 125z" />
<glyph unicode="T" horiz-adv-x="872" vert-adv-y="1633" d="M22 1294q0 40 36 61q16 10 40 10h677q24 0 40 -10q36 -21 36 -61t-36 -61q-16 -10 -40 -10h-265v-1148q0 -24 -10 -40q-21 -36 -63 -36q-43 0 -64 36q-10 16 -10 40v1148h-265q-25 0 -40 10q-36 21 -36 61z" />
<glyph unicode="U" horiz-adv-x="1147" vert-adv-y="1633" d="M159 457v833q0 24 10 40q21 36 61 36t61 -36q10 -16 10 -40v-837q0 -105 26 -158q40 -83 118 -124q57 -30 129 -30q127 0 206 92q45 52 57 108q10 44 10 112v837q0 24 10 40q21 36 61 36t61 -36q10 -16 10 -40v-833q0 -125 -27 -200q-44 -120 -152 -190 q-105 -68 -236 -68q-150 0 -264 88q-102 80 -135 206q-16 64 -16 164z" />
<glyph unicode="V" horiz-adv-x="1048" vert-adv-y="1633" d="M41 1297q0 27 19 47q21 23 52 23q52 0 69 -53l343 -1047l342 1047q18 53 70 53q31 0 52 -23q19 -20 19 -47q0 -12 -5 -27l-407 -1215q-19 -56 -73 -56q-49 0 -68 59l-408 1212q-5 14 -5 27z" />
<glyph unicode="W" horiz-adv-x="1318" vert-adv-y="1633" d="M45 1296q0 32 25 54q20 17 46 17q58 0 71 -61l208 -962l174 507q27 77 38 91q15 22 52 22t53 -22q10 -14 37 -91l174 -507l208 962q14 61 71 61q26 0 46 -18q25 -21 25 -53q0 -9 -2 -19l-254 -1183q-21 -96 -77 -96q-28 0 -43 14q-15 15 -49 104l-189 563l-189 -563 q-34 -90 -49 -104t-43 -14q-56 0 -76 96l-255 1183q-2 11 -2 19z" />
<glyph unicode="X" horiz-adv-x="1048" vert-adv-y="1633" d="M34 1294q0 30 20 51q21 21 50 21q39 0 62 -35l358 -529l357 529q24 35 62 35q34 0 55 -27q16 -19 16 -44q0 -22 -15 -44l-389 -576l379 -561q14 -21 14 -43q0 -30 -20 -51q-21 -21 -50 -21q-39 0 -62 35l-347 513l-347 -513q-23 -35 -61 -35q-35 0 -56 26q-15 20 -15 45 q0 23 14 44l379 561l-390 576q-14 22 -14 43z" />
<glyph unicode="Y" horiz-adv-x="1048" vert-adv-y="1633" d="M32 1294q0 30 20 51q21 21 50 21q39 0 63 -35l357 -527l357 527q24 35 62 35q34 0 55 -27q16 -19 16 -44q0 -22 -15 -44l-404 -586v-590q0 -24 -10 -40q-21 -36 -61 -36t-61 36q-10 16 -10 40v590l-404 586q-15 22 -15 43z" />
<glyph unicode="Z" horiz-adv-x="901" vert-adv-y="1633" d="M33 1294q0 40 36 61q16 10 40 10h618q135 0 135 -60q0 -29 -27 -78l-604 -1085h560q24 0 40 -10q36 -21 36 -61t-36 -61q-16 -10 -40 -10h-655q-98 0 -98 62q0 27 37 94l594 1067h-560q-24 0 -40 10q-36 21 -36 61z" />
<glyph unicode="[" horiz-adv-x="536" vert-adv-y="1633" d="M153 -9v1246q1 82 27 106q20 21 84 22h98q24 0 40 -10q36 -21 36 -61t-36 -61q-15 -10 -40 -10h-67v-1218h67q24 0 40 -10q36 -21 36 -61q0 -41 -36 -61q-16 -10 -40 -10h-98q-65 2 -84 22q-26 24 -27 106z" />
<glyph unicode="\" horiz-adv-x="960" vert-adv-y="1633" d="M93 1316q0 24 26 43q21 16 47 16q41 0 63 -43l629 -1234q10 -20 10 -37q0 -34 -27 -56q-19 -15 -44 -15q-44 0 -66 43l-609 1196q-29 56 -29 87z" />
<glyph unicode="]" horiz-adv-x="536" vert-adv-y="1633" d="M97 -66q0 40 36 61q16 10 40 10h67v1218h-67q-25 0 -40 10q-36 21 -36 61t36 61q16 10 40 10h98q64 -1 84 -22q26 -24 27 -106v-1246q-1 -82 -27 -106q-19 -21 -84 -22h-98q-24 0 -40 10q-36 21 -36 61z" />
<glyph unicode="^" horiz-adv-x="1024" vert-adv-y="1633" d="M65 768l358 601h177l358 -601h-148l-300 494l-299 -494h-146z" />
<glyph unicode="_" horiz-adv-x="1024" vert-adv-y="1633" d="M0 -147h1024v-103h-1024v103z" />
<glyph unicode="`" horiz-adv-x="1024" vert-adv-y="1633" d="M325 1408q0 34 27 54q15 11 32 11q29 0 50 -21q20 -20 44 -55l70 -99q43 -62 43 -94q0 -21 -14 -37q-18 -21 -47 -21q-41 0 -70 42l-115 164q-20 28 -20 56z" />
<glyph unicode="a" horiz-adv-x="905" vert-adv-y="1633" d="M73 287q0 104 72 186q81 91 241 91h242v56q-2 130 -35 165q-38 45 -112 45h-313q-24 0 -40 10q-36 21 -36 61t36 61q16 10 40 10h287q82 0 139 -17q176 -55 176 -289v-10v-529q-1 -81 -21 -101q-21 -25 -71 -26h-249q-142 0 -215 42q-62 36 -101 103q-40 69 -40 142z M225 284q0 -70 62 -109q46 -28 117 -28h224v275h-195q-88 0 -136 -21q-32 -14 -53 -49q-19 -31 -19 -68z" />
<glyph unicode="b" horiz-adv-x="962" vert-adv-y="1633" d="M155 87v1203q0 24 10 40q21 36 61 36t61 -36q10 -16 10 -40v-318h237h3q178 0 258 -102q50 -59 52 -214v-340v-12q0 -305 -306 -304h-16h-283h-4q-43 0 -66 24q-18 25 -17 63zM297 142h226q100 1 142 48q39 44 40 135v322q-1 91 -40 135q-42 47 -142 48h-226v-688z" />
<glyph unicode="c" horiz-adv-x="706" vert-adv-y="1633" d="M116 316v340q-1 315 300 316h180q29 0 54 -22q22 -20 22 -48q0 -29 -25 -51q-24 -21 -52 -21h-168q-88 0 -127 -35q-28 -24 -36 -68q-6 -32 -6 -80v-322q0 -80 15 -110q29 -71 154 -73h172q29 0 51 -22q22 -20 22 -51q0 -35 -30 -55q-21 -14 -60 -14h-166 q-301 1 -300 316z" />
<glyph unicode="d" horiz-adv-x="962" vert-adv-y="1633" d="M123 316v340q3 172 68 233q83 83 245 83h237v318q0 24 10 40q21 36 61 36t61 -36q10 -16 10 -40v-1203q1 -44 -23 -69q-23 -18 -64 -18h-283h-17q-305 0 -305 303v13zM265 325q1 -91 40 -135q42 -47 142 -48h226v688h-226q-100 -1 -142 -48q-39 -44 -40 -135v-322z" />
<glyph unicode="e" horiz-adv-x="868" vert-adv-y="1633" d="M107 319v300q0 103 47 186q47 81 126 126q74 42 162 42q131 0 226 -87q113 -104 113 -305q0 -106 -17 -137q-14 -27 -78 -27h-437v-70q1 -122 34 -161q34 -43 149 -44h277q24 0 40 -10q36 -21 36 -61t-36 -61q-16 -10 -40 -10h-280q-122 1 -188 30q-95 42 -119 159 q-15 70 -15 130zM249 559h389q0 86 -11 126q-37 146 -181 146q-147 0 -187 -145q-10 -38 -10 -127z" />
<glyph unicode="f" horiz-adv-x="659" vert-adv-y="1633" d="M93 901q0 40 36 62q15 9 40 9h61q-1 42 -1 62q0 189 90 261q89 71 225 71q61 0 86 -28q18 -20 18 -42q0 -41 -32 -60q-11 -7 -106 -20q-96 -13 -121 -74q-18 -44 -18 -123q0 -14 1 -47h204q24 0 40 -10q36 -21 36 -61t-36 -61q-16 -10 -40 -10h-204v-755q0 -24 -10 -40 q-21 -36 -61 -36t-61 36q-10 16 -10 40v755h-61q-23 0 -40 10q-36 21 -36 61z" />
<glyph unicode="g" horiz-adv-x="963" vert-adv-y="1633" d="M115 -342q0 33 27 55q20 17 56 17h290q107 1 147 42q33 39 33 166v62h-228h-17q-305 0 -305 306v10v340q3 172 68 233q83 83 245 83h237q108 -2 126 -35q15 -23 16 -86v-943q-1 -178 -85 -253q-49 -44 -122 -59q-42 -8 -115 -8h-297q-34 0 -58 26q-18 19 -18 44zM260 325 q1 -91 40 -135q42 -47 142 -48h226v688h-226q-100 -1 -142 -48q-39 -44 -40 -135v-322z" />
<glyph unicode="h" horiz-adv-x="981" vert-adv-y="1633" d="M154 69v1221q0 24 10 40q21 36 61 36t61 -36q10 -16 10 -40v-318h245q98 -1 150 -25q101 -48 133 -146q21 -65 22 -182v-544q0 -24 -10 -40q-21 -36 -61 -36t-61 36q-10 16 -10 40v533q0 93 -11 125q-18 66 -90 87q-38 10 -96 10h-211v-755q0 -24 -10 -40 q-21 -36 -61 -36t-61 36q-10 16 -10 34z" />
<glyph unicode="i" horiz-adv-x="451" vert-adv-y="1633" d="M142 1311q0 36 28 61q23 22 57 22q35 0 60 -28q22 -24 22 -55q0 -37 -28 -62q-24 -22 -55 -22q-37 0 -62 28q-22 24 -22 56zM154 75v822q0 24 10 40q21 36 61 36t61 -36q10 -16 10 -40v-822q0 -24 -10 -40q-21 -36 -61 -36t-61 36q-10 16 -10 40z" />
<glyph unicode="j" horiz-adv-x="452" vert-adv-y="1633" d="M-129 -341q0 43 37 59q16 7 117 15q73 6 101 61q28 54 29 158v945q0 24 10 40q21 36 61 36t61 -36q10 -16 10 -40v-959q0 -177 -49 -245q-26 -37 -68 -60q-84 -46 -203 -46q-106 0 -106 72zM137 1311q0 36 28 61q24 22 57 22q35 0 60 -28q22 -24 22 -55q0 -37 -28 -62 q-24 -22 -55 -22q-37 0 -62 28q-22 24 -22 56z" />
<glyph unicode="k" horiz-adv-x="887" vert-adv-y="1633" d="M154 75v1215q0 24 10 40q21 36 61 36t61 -36q10 -16 10 -40v-673l391 304q65 52 87 52q31 0 53 -27q15 -18 15 -43q0 -40 -53 -81l-230 -180l241 -475q40 -79 40 -117q0 -20 -21 -36q-20 -15 -45 -15q-40 0 -66 50l-264 508l-148 -121v-361q0 -24 -10 -40 q-21 -36 -61 -36t-61 36q-10 16 -10 40z" />
<glyph unicode="l" horiz-adv-x="465" vert-adv-y="1633" d="M144 281v1009q0 24 10 40q21 36 61 36t61 -36q10 -16 10 -40v-986q1 -88 22 -124q15 -26 44 -42l38 -20q30 -16 30 -50q0 -35 -20 -53q-19 -16 -43 -16q-56 0 -115 39q-69 47 -89 133q-9 41 -9 110z" />
<glyph unicode="m" horiz-adv-x="1233" vert-adv-y="1633" d="M154 75v782q0 75 35 96q24 17 111 19h438q125 -1 189 -20q171 -47 170 -286v-591q0 -24 -10 -40q-21 -36 -61 -36t-61 36q-10 16 -10 40v561q-1 86 -21 128q-22 43 -87 57q-49 9 -153 9v-755q0 -24 -10 -40q-21 -36 -61 -36t-61 36q-10 16 -10 40v755h-256v-755 q0 -24 -10 -40q-21 -36 -61 -36t-61 36q-10 16 -10 40z" />
<glyph unicode="n" horiz-adv-x="981" vert-adv-y="1633" d="M154 75v795q0 55 19 75q24 26 105 27h262q176 -1 250 -99q54 -71 56 -254v-544q0 -24 -10 -40q-21 -36 -61 -36t-61 36q-10 16 -10 40v533q-1 143 -46 183q-45 39 -151 39h-211v-755q0 -24 -10 -40q-21 -36 -61 -36t-61 36q-10 16 -10 40z" />
<glyph unicode="o" horiz-adv-x="901" vert-adv-y="1633" d="M100 376v220q0 139 63 230q51 74 134 113q72 34 154 34q121 0 215 -71q136 -102 136 -306v-220q0 -139 -63 -230q-51 -74 -134 -113q-72 -34 -154 -34q-121 0 -215 71q-136 102 -136 306zM242 415q0 -128 50 -198q53 -76 159 -76t159 76q50 70 50 198v135q0 281 -208 281 q-112 0 -168 -87q-42 -67 -42 -194v-135z" />
<glyph unicode="p" horiz-adv-x="962" vert-adv-y="1633" d="M154 -317v1159q0 82 27 106q26 23 92 24h251q129 0 195 -37q128 -78 127 -279v-340q-1 -316 -302 -316h-11h-237v-317q0 -24 -10 -40q-21 -36 -61 -36t-61 36q-10 16 -10 40zM296 142h226q103 0 144 39q38 41 38 130v357q0 85 -41 126q-39 36 -128 36h-239v-688z" />
<glyph unicode="q" horiz-adv-x="962" vert-adv-y="1633" d="M116 316v340q1 140 62 220q50 64 132 84q50 12 128 12h250q71 -1 98 -28q22 -25 22 -102v-1159q0 -24 -10 -40q-21 -36 -61 -36t-61 36q-10 16 -10 40v317h-237h-11q-301 0 -302 316zM258 311q0 -98 46 -138q42 -31 136 -31h226v688h-239q-98 0 -136 -45 q-33 -39 -33 -117v-357z" />
<glyph unicode="r" horiz-adv-x="716" vert-adv-y="1633" d="M154 75v791q0 62 25 86q16 19 77 20h227q62 0 114 -33q48 -30 78 -80q29 -48 29 -98q0 -63 -63 -63q-28 0 -47 21q-6 6 -42 65q-20 33 -70 41q-28 5 -68 5h-118v-755q0 -24 -10 -40q-21 -36 -61 -36t-61 36q-10 16 -10 40z" />
<glyph unicode="s" horiz-adv-x="820" vert-adv-y="1633" d="M69 169q0 29 24 52q17 16 39 16q28 0 90 -34q123 -66 238 -66q80 0 118 30q35 29 35 69q0 48 -56 90q-27 21 -189 105q-138 71 -195 124q-76 71 -76 170q0 84 57 151q83 97 257 97q128 0 246 -55q46 -21 46 -61q0 -30 -19 -52q-18 -21 -50 -21t-105 23q-79 24 -129 24 q-88 0 -137 -47q-24 -24 -24 -57q0 -53 56 -91q31 -21 156 -87q159 -84 207 -121q97 -75 97 -191q0 -107 -92 -172q-93 -66 -228 -66q-148 0 -287 77q-79 44 -79 93z" />
<glyph unicode="t" horiz-adv-x="607" vert-adv-y="1633" d="M41 901q0 40 36 61q17 10 40 10h61v318q0 24 10 40q21 36 61 36t61 -36q10 -16 10 -40v-318h204q24 0 40 -10q36 -21 36 -61t-36 -61q-16 -10 -40 -10h-204v-755q0 -24 -10 -40q-21 -36 -61 -36t-61 36q-10 16 -10 40v755h-61q-25 0 -40 9q-36 22 -36 62z" />
<glyph unicode="u" horiz-adv-x="981" vert-adv-y="1633" d="M135 362v535q0 24 10 40q21 36 61 36t61 -36q10 -16 10 -40v-533q0 -131 45 -179q40 -43 152 -43h211v755q0 24 10 40q21 36 61 36t61 -36q10 -16 10 -40v-796q0 -60 -26 -82q-22 -19 -69 -19h-291q-113 1 -162 27q-140 73 -144 335z" />
<glyph unicode="v" horiz-adv-x="763" vert-adv-y="1633" d="M39 904q0 26 19 47q21 23 51 23q53 0 70 -53l204 -638l200 638q17 53 70 53q31 0 52 -22q19 -22 19 -47q0 -12 -5 -28l-247 -782q-28 -96 -91 -96q-29 2 -48 18q-20 20 -38 78l-251 782q-5 15 -5 27z" />
<glyph unicode="w" horiz-adv-x="1052" vert-adv-y="1633" d="M45 905q0 29 23 51q20 19 48 19q56 0 70 -59l157 -628l106 340q24 76 78 76q52 0 76 -76l106 -340l157 628q15 59 71 59q27 0 47 -19q23 -22 23 -53q0 -9 -3 -21l-205 -821q-16 -62 -64 -62q-49 0 -74 69l-139 382l-131 -382q-23 -69 -74 -69q-48 0 -64 62l-205 821 q-3 13 -3 23z" />
<glyph unicode="x" horiz-adv-x="778" vert-adv-y="1633" d="M45 901q0 31 21 52q20 20 50 20q39 0 62 -36l211 -326l211 326q23 36 62 36q34 0 55 -26q16 -20 16 -45q0 -22 -14 -43l-245 -379l238 -367q14 -22 14 -43q0 -30 -21 -51q-21 -20 -50 -20q-39 0 -62 36l-204 315l-204 -315q-23 -36 -62 -36q-34 0 -55 26q-16 20 -16 46 q0 20 14 42l238 367l-245 379q-14 22 -14 42z" />
<glyph unicode="y" horiz-adv-x="778" vert-adv-y="1633" d="M44 -341q0 31 29 51q10 7 79 23q35 8 53 39q4 10 21 62l93 279l-270 762q-5 15 -5 28q0 26 19 47q20 24 51 24q52 0 70 -52l209 -620l200 619q17 53 69 53q31 0 52 -23q19 -21 19 -48q0 -12 -6 -28l-361 -1062q-43 -128 -91 -173q-52 -49 -131 -49q-58 0 -83 27 q-17 18 -17 41z" />
<glyph unicode="z" horiz-adv-x="773" vert-adv-y="1633" d="M40 901q0 40 36 61q16 10 40 10h523q93 0 93 -64q0 -36 -57 -120l-432 -645h412q23 0 40 -10q36 -21 36 -62q0 -40 -36 -61q-16 -10 -40 -10h-459q-154 0 -154 72q0 27 37 82l454 676h-417q-24 0 -40 10q-36 21 -36 61z" />
<glyph unicode="{" horiz-adv-x="536" vert-adv-y="1633" d="M27 613q0 51 55 73q44 18 61 50q13 25 13 70v467q-2 94 92 92h106q46 0 66 -21q21 -21 21 -50t-21 -50q-20 -21 -66 -21h-56v-424q0 -90 -34 -131q-22 -26 -79 -54q63 -31 85 -63q28 -41 28 -122v-424h56q45 0 66 -21t21 -50t-21 -50q-20 -21 -66 -21h-106q-94 -3 -92 92 v467q0 45 -13 70q-17 32 -61 50q-55 22 -55 71z" />
<glyph unicode="|" horiz-adv-x="1024" vert-adv-y="1633" d="M434 -341v1706h155v-1706h-155z" />
<glyph unicode="}" horiz-adv-x="536" vert-adv-y="1633" d="M94 -66q0 29 21 50q20 21 66 21h56v424q0 91 34 131q23 26 79 54q-63 31 -85 63q-28 41 -28 122v424h-56q-45 0 -66 21t-21 50t21 50t66 21h106q94 2 92 -92v-467q0 -88 74 -120q55 -22 55 -72t-55 -72q-44 -18 -61 -50q-13 -26 -13 -70v-467q2 -94 -92 -92h-106 q-46 0 -66 21q-21 21 -21 50z" />
<glyph unicode="~" horiz-adv-x="1365" vert-adv-y="1633" d="M193 1256q38 78 81 130q81 98 194 98q79 0 235 -80q88 -44 121 -55q44 -15 79 -15q100 0 187 154l83 -65q-42 -86 -83 -135q-82 -95 -192 -95q-51 0 -124 31q-40 16 -112 52q-137 68 -201 68q-68 0 -120 -60q-30 -34 -64 -94z" />
<glyph unicode="&#xa0;" horiz-adv-x="393" vert-adv-y="1633" />
<glyph unicode="&#xa1;" horiz-adv-x="479" vert-adv-y="1633" d="M120 889q0 36 28 62q24 22 58 22q36 0 61 -28q22 -24 22 -56q0 -38 -28 -63q-24 -22 -56 -22q-38 0 -63 28q-22 24 -22 57zM129 -338v820q0 24 10 40q21 36 61 36t61 -36q10 -16 10 -40v-820q0 -24 -10 -40q-21 -36 -61 -36t-61 36q-10 16 -10 40z" />
<glyph unicode="&#xa2;" horiz-adv-x="706" vert-adv-y="1633" d="M115 316v340q0 188 114 270q54 36 147 44v92q0 24 10 40q21 36 61 36t61 -36q10 -16 10 -40v-90h76q34 0 59 -27q17 -18 17 -43q0 -22 -15 -41q-24 -31 -57 -31h-80v-688h80q33 0 57 -31q15 -19 15 -41q0 -28 -22 -48q-24 -22 -54 -22h-76v-109q0 -24 -10 -40 q-21 -36 -61 -36t-61 36q-10 16 -10 40v111q-109 9 -170 63q-90 83 -91 251zM257 325q0 -80 15 -110q25 -55 104 -69v680q-51 -10 -77 -31q-28 -25 -36 -68q-6 -32 -6 -80v-322z" />
<glyph unicode="&#xa3;" vert-adv-y="1633" d="M30 748q0 40 36 61q16 10 40 10h81v181q0 136 59 220q42 61 115 100q87 46 186 46q127 0 249 -74q70 -42 70 -82q0 -27 -19 -45q-14 -12 -39 -12q-29 0 -89 24q-117 47 -176 47q-100 0 -166 -67q-48 -49 -48 -107v-231h268q24 0 40 -10q36 -21 36 -61t-36 -61 q-16 -10 -40 -10h-268v-535h464q25 0 41 -10q36 -21 36 -61t-36 -61q-16 -10 -41 -10h-515q-52 0 -72 24q-19 22 -19 66v587h-81q-24 0 -40 10q-36 21 -36 61z" />
<glyph unicode="&#xa4;" vert-adv-y="1633" d="M45 341q0 30 25 55l111 111q-51 84 -51 176q0 91 51 176l-111 111q-24 23 -24 54q0 29 21 49q20 21 49 21q31 0 54 -24l111 -111q83 51 176 51t176 -51l111 111q24 24 54 24t50 -20q21 -21 21 -50q0 -30 -24 -54l-111 -111q51 -82 51 -176t-51 -176l111 -111 q24 -24 24 -54t-20 -50q-21 -21 -50 -21q-31 0 -55 24l-111 111q-84 -51 -176 -51t-176 51l-111 -111q-24 -24 -54 -24t-50 20q-21 21 -21 50zM272 682q0 -76 55 -131q54 -54 131 -54q76 0 131 54q54 54 54 131q0 79 -54 131q-57 55 -133 55q-74 0 -129 -55 q-55 -54 -55 -131z" />
<glyph unicode="&#xa5;" horiz-adv-x="966" vert-adv-y="1633" d="M32 1294q0 30 20 51q21 21 51 21q41 0 62 -35l316 -527l316 527q21 35 62 35q34 0 55 -27q16 -19 16 -44q0 -20 -15 -44l-363 -586v-54h146q24 0 40 -10q36 -21 36 -61t-36 -61q-16 -10 -40 -10h-146v-104h146q24 0 40 -10q36 -21 36 -61t-36 -61q-16 -10 -40 -10h-146 v-148q0 -24 -10 -40q-21 -36 -61 -36t-61 36q-10 16 -10 40v148h-146q-24 0 -40 10q-36 21 -36 61t36 61q16 10 40 10h146v104h-146q-24 0 -40 10q-36 21 -36 61t36 61q16 10 40 10h146v54l-363 586q-15 24 -15 43z" />
<glyph unicode="&#xa6;" horiz-adv-x="1024" vert-adv-y="1633" d="M434 314h155v-655h-155v655zM434 682v683h155v-683h-155z" />
<glyph unicode="&#xa7;" horiz-adv-x="991" vert-adv-y="1633" d="M81 568q0 89 67 174q65 83 181 126q-52 52 -72 78q-59 78 -59 164q0 114 96 193q89 74 210 74q140 0 254 -70q69 -43 69 -97q0 -28 -24 -48q-21 -17 -43 -17t-85 38q-88 52 -166 52q-82 0 -131 -48q-38 -37 -38 -82q0 -56 69 -115l229 -194q119 -99 142 -122 q72 -69 100 -122q29 -54 29 -112q0 -121 -104 -225q-38 -38 -124 -92q47 -45 78 -82q82 -98 82 -188q0 -116 -102 -196q-96 -76 -239 -76q-144 0 -293 91q-85 52 -85 109q0 29 21 49q18 18 36 18q23 0 58 -22q75 -48 121 -72q63 -31 141 -31q102 0 161 61q34 35 34 74 q0 64 -85 138l-197 169q-13 11 -65 53q-144 116 -202 192q-64 82 -64 158zM223 573q0 -53 62 -109l283 -253q199 110 199 219q0 44 -30 87q-18 26 -69 70l-218 187q-106 -27 -166 -86q-61 -61 -61 -115z" />
<glyph unicode="&#xa8;" horiz-adv-x="1024" vert-adv-y="1633" d="M225 1309q0 36 28 62q24 22 58 22q36 0 62 -28q22 -25 22 -57q0 -37 -28 -63q-24 -22 -57 -22q-38 0 -63 28q-22 25 -22 58zM628 1309q0 36 28 62q24 22 58 22q36 0 62 -28q22 -25 22 -57q0 -37 -28 -63q-24 -22 -57 -22q-38 0 -63 28q-22 24 -22 58z" />
<glyph unicode="&#xa9;" horiz-adv-x="1657" vert-adv-y="1633" d="M146 688q0 294 226 501q193 176 468 176q174 0 330 -92q159 -93 249 -249q92 -158 92 -341t-92 -342q-91 -158 -249 -249q-159 -92 -341 -92q-183 0 -342 92t-249 249q-92 160 -92 347zM288 683q0 -145 72 -270q73 -125 198 -198q126 -72 270 -72q145 0 271 72 q126 73 197 198q73 126 73 274q0 233 -179 397q-153 139 -370 139q-139 0 -262 -72q-126 -75 -198 -198q-72 -125 -72 -270zM556 537v292q-2 123 77 190q61 49 172 49h141q22 0 39 -10q35 -21 35 -61t-35 -61q-17 -10 -39 -10h-154q-54 -1 -72 -20q-21 -20 -22 -90v-266 q1 -71 22 -90q20 -20 72 -20h154q22 0 39 -10q35 -21 35 -61q0 -41 -35 -61q-17 -10 -39 -10h-141q-112 0 -172 49q-78 63 -77 190z" />
<glyph unicode="&#xaa;" horiz-adv-x="559" vert-adv-y="1633" d="M30 737q0 70 50 124q55 61 162 61h110q-3 58 -14 70q-13 13 -41 13h-182q-22 0 -39 10q-35 21 -35 61t35 61q17 10 39 10h167q213 3 212 -206v-293q0 -55 -18 -76q-22 -26 -65 -26h-145q-90 0 -139 28q-43 24 -70 68q-27 46 -27 95zM178 735q0 -44 74 -44h100v89h-83 q-91 0 -91 -45z" />
<glyph unicode="&#xab;" horiz-adv-x="1013" vert-adv-y="1633" d="M93 504q0 20 13 39q10 15 62 67l188 189q35 34 47 41q17 9 37 9q31 0 50 -22q18 -20 18 -49q0 -31 -23 -55l-219 -219l219 -218q23 -24 23 -55q0 -34 -23 -55q-18 -16 -45 -16q-21 0 -40 11q-11 6 -44 39l-188 189q-57 56 -66 73q-9 16 -9 32zM505 504q0 20 13 39 q9 14 62 67l189 189q34 34 47 41q17 9 37 9q31 0 50 -21q18 -21 18 -50q0 -31 -24 -55l-219 -219l219 -218q24 -24 24 -55q0 -34 -23 -55q-18 -16 -45 -16q-22 0 -40 11q-12 6 -44 39l-189 189q-57 57 -66 73t-9 32z" />
<glyph unicode="&#xac;" horiz-adv-x="1024" vert-adv-y="1633" d="M68 431v136h887v-567h-151v431h-736z" />
<glyph unicode="&#xad;" horiz-adv-x="550" vert-adv-y="1633" d="M0 506q0 40 36 61q16 10 40 10h398q24 0 40 -10q36 -21 36 -61t-36 -61q-16 -10 -40 -10h-398q-24 0 -40 10q-36 21 -36 61z" />
<glyph unicode="&#xae;" horiz-adv-x="1529" vert-adv-y="1633" d="M82 688q0 294 226 501q193 176 468 176q174 0 330 -92q159 -93 249 -249q92 -158 92 -341t-92 -342q-91 -158 -249 -249q-159 -92 -341 -92q-183 0 -342 92t-249 249q-92 160 -92 347zM224 683q0 -145 72 -270q73 -125 198 -198q126 -72 270 -72q145 0 271 72 q126 73 197 198q73 126 73 274q0 233 -179 397q-153 139 -370 139q-139 0 -262 -72q-126 -75 -198 -198q-72 -125 -72 -270zM511 365v630q-1 35 24 57q22 16 57 16h174q120 0 195 -58q96 -74 96 -187q0 -70 -42 -133q-24 -34 -93 -79l112 -204q16 -30 16 -51q0 -26 -22 -43 q-19 -16 -45 -16q-41 0 -67 45l-135 237h-128v-214q0 -21 -10 -36q-21 -32 -61 -32t-61 32q-10 15 -10 36zM653 721h116q63 0 103 26q43 27 43 76q0 51 -43 78q-41 25 -107 25h-112v-205z" />
<glyph unicode="&#xaf;" horiz-adv-x="393" vert-adv-y="1633" d="M-257 192q0 40 36 62q16 10 40 10h362q24 0 40 -10q36 -22 36 -62q0 -39 -36 -60q-16 -10 -40 -10h-362q-24 0 -40 10q-36 21 -36 60z" />
<glyph unicode="&#xb0;" horiz-adv-x="765" vert-adv-y="1633" d="M109 1094q0 118 91 201q77 70 187 70q116 0 198 -90q70 -78 70 -183q0 -121 -90 -203q-79 -70 -183 -70q-121 0 -203 91q-70 77 -70 184zM251 1092q0 -58 43 -97q38 -34 88 -34q58 0 97 44q34 37 34 88q0 56 -44 96q-37 34 -89 34q-55 0 -95 -44q-34 -37 -34 -87z" />
<glyph unicode="&#xb1;" vert-adv-y="0" d="M109 136q0 40 36 61q16 10 40 10h544q24 0 40 -10q36 -21 36 -61t-36 -61q-16 -10 -40 -10h-544q-24 0 -40 10q-36 21 -36 61zM109 683q0 40 36 61q16 10 40 10h201v201q0 24 10 40q21 36 61 36t61 -36q10 -16 10 -40v-201h201q24 0 40 -10q36 -21 36 -61t-36 -61 q-16 -10 -40 -10h-201v-201q0 -24 -10 -40q-21 -36 -61 -36t-61 36q-10 16 -10 40v201h-201q-24 0 -40 10q-36 21 -36 61z" />
<glyph unicode="&#xb2;" horiz-adv-x="633" vert-adv-y="1633" d="M84 607q0 26 28 68l221 326q54 80 64 100t10 47q0 35 -26 55t-65 20q-32 0 -51 -14q-17 -13 -35 -44q-33 -58 -74 -58q-31 0 -53 24q-19 22 -19 51q0 69 79 129q71 54 159 54q106 0 173 -69q56 -57 56 -142t-63 -176l-199 -290h182q22 0 39 -10q35 -21 35 -61t-35 -61 q-17 -10 -39 -10h-297q-39 0 -62 14q-28 17 -28 47z" />
<glyph unicode="&#xb3;" horiz-adv-x="633" vert-adv-y="1633" d="M69 617q0 40 35 61q17 10 39 10h125q56 0 81 12q45 23 45 105q0 114 -114 114h-52q-23 0 -40 10q-35 21 -35 61t36 61q16 10 39 10h52q40 0 68 15q43 24 43 69q0 78 -122 78h-126q-23 0 -39 10q-35 21 -35 61t35 61q17 10 39 10h122q104 0 163 -34q49 -30 78 -83 q27 -50 27 -106q0 -54 -22 -95q-12 -21 -37 -53q35 -49 46 -77q16 -39 16 -102q0 -136 -75 -209q-61 -60 -172 -60h-146q-22 0 -39 10q-35 21 -35 61z" />
<glyph unicode="&#xb4;" horiz-adv-x="1024" vert-adv-y="1633" d="M432 1205q0 31 44 93l71 99q24 35 45 54q21 21 49 21q33 0 50 -32q9 -16 9 -33q0 -28 -20 -56l-117 -163q-29 -42 -70 -42q-34 0 -52 28q-9 15 -9 31z" />
<glyph unicode="&#xb5;" horiz-adv-x="1000" vert-adv-y="1633" d="M135 -317v1214q0 24 10 40q21 36 61 36t61 -36q10 -16 10 -40v-533q0 -131 45 -179q40 -43 152 -43h211v755q0 24 10 40q21 36 61 36t61 -36q10 -16 10 -40v-796q0 -60 -26 -82q-22 -19 -69 -19h-291q-118 2 -170 31l6 -31v-317q0 -24 -10 -40q-21 -36 -61 -36t-61 36 q-10 16 -10 40z" />
<glyph unicode="&#xb6;" horiz-adv-x="983" vert-adv-y="1633" d="M41 943q0 133 72 240q123 182 378 182h296q46 1 70 -24q18 -25 17 -63v-1462q0 -24 -10 -40q-21 -36 -61 -36t-61 36q-10 16 -10 40v1407h-124v-1407q0 -24 -10 -40q-21 -36 -61 -36t-61 36q-10 16 -10 40v720q-97 3 -160 26q-164 61 -225 193q-40 88 -40 188z" />
<glyph unicode="&#xb7;" horiz-adv-x="370" vert-adv-y="1633" d="M101 505q0 36 28 62q24 22 58 22q36 0 61 -28q22 -24 22 -57q0 -37 -28 -62q-24 -22 -56 -22q-38 0 -63 28q-22 24 -22 57z" />
<glyph unicode="&#xb8;" horiz-adv-x="1024" vert-adv-y="1633" d="M412 -319q0 31 43 93l57 81q25 35 45 55q21 21 49 21q17 0 32 -11q27 -20 27 -55q0 -28 -19 -55l-103 -146q-28 -41 -70 -41q-25 0 -43 17t-18 41z" />
<glyph unicode="&#xb9;" horiz-adv-x="633" vert-adv-y="1633" d="M127 1140q0 33 45 75l68 66q57 54 79 69q21 14 44 14q65 0 65 -98v-647q0 -22 -10 -38q-21 -36 -61 -36t-61 36q-10 16 -10 38v507l-10 -10q-49 -46 -81 -46q-28 0 -49 24q-19 21 -19 46z" />
<glyph unicode="&#xba;" horiz-adv-x="557" vert-adv-y="1633" d="M45 786v121q0 87 41 145q67 95 192 95t193 -95q41 -58 41 -145v-121q0 -86 -41 -145q-68 -95 -193 -95q-124 0 -192 95q-41 59 -41 145zM187 807q0 -119 91 -119q92 0 92 119v75q0 123 -91 123q-92 0 -92 -123v-75z" />
<glyph unicode="&#xbb;" horiz-adv-x="1013" vert-adv-y="1633" d="M93 230q0 32 24 56l218 218l-218 219q-24 24 -24 55q0 34 23 55q18 16 45 16q21 0 40 -11q11 -6 44 -39l189 -189q55 -56 65 -73q9 -16 9 -33q0 -19 -13 -38q-10 -16 -61 -67l-189 -189q-36 -35 -47 -42q-17 -9 -37 -9q-31 0 -50 22q-18 20 -18 49zM505 230q0 32 24 56 l219 218l-219 219q-24 24 -24 55q0 34 23 55q18 16 45 16q21 0 40 -11q11 -6 44 -39l189 -189q57 -57 66 -73t9 -33q0 -19 -13 -38q-9 -14 -62 -67l-189 -189q-35 -35 -47 -42q-17 -9 -37 -9q-31 0 -50 22q-18 20 -18 49z" />
<glyph unicode="&#xbc;" horiz-adv-x="1489" vert-adv-y="1633" d="M127 1140q0 33 45 75l68 66q57 54 79 69q21 14 44 14q65 0 65 -98v-647q0 -22 -10 -38q-21 -36 -61 -36t-61 36q-10 16 -10 38v507l-10 -10q-49 -46 -81 -46q-28 0 -49 24q-19 21 -19 46zM441 23q0 14 6 31l474 1302q19 53 66 53q22 0 38 -13q22 -16 22 -40 q0 -30 -20 -84l-459 -1262q-19 -53 -66 -53q-29 0 -46 23q-15 18 -15 43zM915 212q0 17 9 46l133 448q18 60 27 76q21 37 62 37q32 0 52 -26q14 -18 14 -39q0 -24 -12 -64l-120 -404h113v110q0 22 10 38q21 36 61 36q41 0 61 -36q10 -17 10 -38v-110h44q22 0 39 -10 q35 -21 35 -61t-35 -61q-17 -10 -39 -10h-44v-71q0 -22 -10 -38q-20 -36 -61 -36q-40 0 -61 36q-10 16 -10 38v71h-186q-92 0 -92 68z" />
<glyph unicode="&#xbd;" horiz-adv-x="1489" vert-adv-y="1633" d="M127 1140q0 33 45 75l68 66q57 54 79 69q21 14 44 14q65 0 65 -98v-647q0 -22 -10 -38q-21 -36 -61 -36t-61 36q-10 16 -10 38v507l-10 -10q-49 -46 -81 -46q-28 0 -49 24q-19 21 -19 46zM441 23q0 14 6 31l474 1302q19 53 66 53q22 0 38 -13q22 -16 22 -40 q0 -30 -20 -84l-459 -1262q-19 -53 -66 -53q-29 0 -46 23q-15 18 -15 43zM940 61q0 27 28 68l221 326q45 67 55 84q19 33 19 63q0 35 -26 55q-25 20 -65 20q-32 0 -51 -14q-17 -13 -35 -44q-33 -58 -74 -58q-31 0 -53 24q-19 22 -19 51q0 69 78 129q71 54 160 54 q106 0 173 -69q56 -57 56 -142t-63 -176l-199 -290h182q22 0 39 -10q35 -21 35 -61t-35 -61q-17 -10 -39 -10h-297q-39 0 -62 14q-28 17 -28 47z" />
<glyph unicode="&#xbe;" horiz-adv-x="1489" vert-adv-y="1633" d="M69 617q0 40 35 61q17 10 39 10h125q56 0 81 12q45 23 45 105q0 114 -114 114h-52q-23 0 -40 10q-35 21 -35 61t36 61q16 10 39 10h52q40 0 68 15q43 24 43 69q0 78 -122 78h-126q-23 0 -39 10q-35 21 -35 61t35 61q17 10 39 10h122q104 0 163 -34q49 -30 78 -83 q27 -50 27 -106q0 -54 -22 -95q-12 -21 -37 -53q35 -49 46 -77q16 -39 16 -102q0 -136 -75 -209q-61 -60 -172 -60h-146q-22 0 -39 10q-35 21 -35 61zM441 23q0 14 6 31l474 1302q19 53 66 53q22 0 38 -13q22 -16 22 -40q0 -30 -20 -84l-459 -1262q-19 -53 -66 -53 q-29 0 -46 23q-15 18 -15 43zM914 212q0 17 8 46l134 448q18 60 27 76q21 37 62 37q32 0 52 -26q14 -18 14 -39q0 -24 -12 -64l-120 -404h113v110q0 22 10 38q21 36 61 36q41 0 61 -36q10 -17 10 -38v-110h44q22 0 39 -10q35 -21 35 -61t-35 -61q-17 -10 -39 -10h-44v-71 q0 -22 -10 -38q-20 -36 -61 -36q-40 0 -61 36q-10 16 -10 38v71h-186q-92 0 -92 68z" />
<glyph unicode="&#xbf;" horiz-adv-x="858" vert-adv-y="1633" d="M77 -116q0 113 68 186q17 18 154 119q50 38 50 114v175q0 24 10 40q21 36 61 36t61 -36q10 -16 10 -40v-179q0 -95 -26 -141q-16 -30 -48 -56q-20 -17 -102 -75q-96 -68 -96 -143q0 -63 52 -107q62 -53 158 -53q86 0 196 53q51 24 82 24q25 0 45 -22q17 -20 17 -44 q0 -38 -50 -70q-52 -34 -137 -59q-81 -24 -155 -24q-113 0 -202 51q-148 84 -148 251zM336 889q0 36 28 62q24 22 58 22q36 0 61 -28q22 -24 22 -56q0 -38 -28 -63q-24 -22 -56 -22q-38 0 -63 28q-22 24 -22 57z" />
<glyph unicode="&#xc0;" horiz-adv-x="1043" vert-adv-y="1633" d="M44 68q0 13 5 28l398 1182q29 88 81 88q44 0 61 -37q9 -20 21 -54l385 -1179q5 -16 5 -29q0 -26 -19 -46q-21 -23 -52 -23q-52 0 -69 54l-93 276h-493l-90 -277q-17 -53 -69 -53q-31 0 -52 23q-19 21 -19 47zM321 470h403l-197 605zM335 1722q0 34 27 54q15 11 32 11 q29 0 50 -21q20 -20 44 -55l70 -99q43 -62 43 -94q0 -21 -14 -37q-18 -21 -47 -21q-41 0 -70 42l-115 164q-20 29 -20 56z" />
<glyph unicode="&#xc1;" horiz-adv-x="1043" vert-adv-y="1633" d="M44 68q0 13 5 28l398 1182q29 88 81 88q44 0 61 -37q9 -20 21 -54l385 -1179q5 -16 5 -29q0 -26 -19 -46q-21 -23 -52 -23q-52 0 -69 54l-93 276h-493l-90 -277q-17 -53 -69 -53q-31 0 -52 23q-19 21 -19 47zM321 470h403l-197 605zM442 1519q0 31 44 93l71 99 q24 35 45 55t49 20q33 0 50 -32q9 -16 9 -33q0 -28 -20 -56l-117 -163q-29 -42 -70 -42q-34 0 -52 28q-9 15 -9 31z" />
<glyph unicode="&#xc2;" horiz-adv-x="1043" vert-adv-y="1633" d="M44 68q0 13 5 28l398 1182q29 88 81 88q44 0 61 -37q9 -20 21 -54l385 -1179q5 -16 5 -29q0 -26 -19 -46q-21 -23 -52 -23q-52 0 -69 54l-93 276h-493l-90 -277q-17 -53 -69 -53q-31 0 -52 23q-19 21 -19 47zM321 470h403l-197 605zM260 1521q0 35 62 93l89 83 q33 31 55 46q24 17 51 17h4q32 0 56 -17q20 -14 55 -46l88 -83q63 -59 63 -93q0 -31 -27 -49q-16 -11 -37 -11q-33 0 -62 27l-136 127l-135 -127q-31 -28 -63 -28q-28 0 -47 20q-16 17 -16 41z" />
<glyph unicode="&#xc3;" horiz-adv-x="1043" vert-adv-y="1633" d="M44 68q0 13 5 28l398 1182q29 88 81 88q44 0 61 -37q9 -20 21 -54l385 -1179q5 -16 5 -29q0 -26 -19 -46q-21 -23 -52 -23q-52 0 -69 54l-93 276h-493l-90 -277q-17 -53 -69 -53q-31 0 -52 23q-19 21 -19 47zM321 470h403l-197 605zM236 1554q0 31 66 100q74 78 114 78 q17 0 92 -40t105 -40q27 0 54 34q38 47 72 47q32 0 52 -22q16 -18 16 -40q0 -37 -57 -105q-64 -78 -106 -78q-26 0 -67 21l-80 40q-52 26 -64 26q-17 0 -72 -55q-26 -26 -56 -26q-27 0 -46 17q-23 21 -23 43z" />
<glyph unicode="&#xc4;" horiz-adv-x="1043" vert-adv-y="1633" d="M44 68q0 13 5 28l398 1182q29 88 81 88q44 0 61 -37q9 -20 21 -54l385 -1179q5 -16 5 -29q0 -26 -19 -46q-21 -23 -52 -23q-52 0 -69 54l-93 276h-493l-90 -277q-17 -53 -69 -53q-31 0 -52 23q-19 21 -19 47zM321 470h403l-197 605zM235 1582q0 36 28 62q24 22 58 22 q36 0 62 -28q22 -25 22 -57q0 -37 -28 -63q-25 -22 -57 -22q-38 0 -63 28q-22 25 -22 58zM638 1582q0 36 28 62q25 22 58 22q36 0 62 -28q22 -25 22 -57q0 -38 -28 -63q-25 -22 -57 -22q-38 0 -63 28q-22 24 -22 58z" />
<glyph unicode="&#xc5;" horiz-adv-x="1043" vert-adv-y="1633" d="M44 68q0 13 5 28l398 1182q29 88 81 88q44 0 61 -37q9 -20 21 -54l385 -1179q5 -16 5 -29q0 -26 -19 -46q-21 -23 -52 -23q-52 0 -69 54l-93 276h-493l-90 -277q-17 -53 -69 -53q-31 0 -52 23q-19 21 -19 47zM321 470h403l-197 605zM326 1624q0 84 65 144q55 50 134 50 q83 0 142 -65q50 -56 50 -130q0 -87 -65 -146q-56 -50 -130 -50q-87 0 -146 65q-50 55 -50 132zM429 1623q0 -41 31 -69q26 -24 62 -24q40 0 68 31q24 26 24 62q0 40 -31 68q-26 24 -63 24q-39 0 -67 -31q-24 -26 -24 -61z" />
<glyph unicode="&#xc6;" horiz-adv-x="1468" vert-adv-y="1633" d="M39 57q0 18 11 38l587 1020q91 156 134 210q30 39 84 40h491q24 0 40 -10q36 -21 36 -61t-36 -61q-15 -10 -40 -10h-464v-408h327q24 0 40 -10q36 -21 36 -61t-36 -61q-16 -10 -40 -10h-327v-531h464q24 0 40 -10q36 -21 36 -61t-36 -61q-16 -10 -40 -10h-519 q-46 -1 -70 24q-18 24 -17 63v331h-348l-208 -365q-31 -54 -85 -54q-26 0 -41 15q-19 19 -19 43zM465 550h275v483z" />
<glyph unicode="&#xc7;" horiz-adv-x="853" vert-adv-y="1633" d="M133 361v643q-3 190 114 288q91 74 264 73h243q24 0 40 -10q36 -21 36 -61t-36 -61q-16 -10 -40 -10h-265q-112 -1 -160 -49q-53 -50 -54 -192v-599q1 -142 54 -192q50 -49 160 -49h265q24 0 40 -10q36 -21 36 -61t-36 -61q-16 -10 -40 -10h-243q-375 -6 -378 361z M357 -319q0 31 43 93l57 81q24 35 45 55q21 21 49 21q17 0 32 -11q27 -20 27 -55q0 -27 -20 -55l-102 -146q-28 -41 -70 -41q-34 0 -52 27q-9 15 -9 31z" />
<glyph unicode="&#xc8;" vert-adv-y="1633" d="M189 87v1191v6q0 39 23 63q22 18 60 18h4h519q24 0 40 -10q36 -21 36 -61t-36 -61q-16 -10 -40 -10h-464v-408h327q24 0 40 -10q36 -21 36 -61t-36 -61q-16 -10 -40 -10h-327v-531h464q24 0 40 -10q36 -21 36 -61t-36 -61q-16 -10 -40 -10h-519h-4q-43 0 -66 24 q-18 25 -17 63zM338 1722q0 34 27 54q15 11 32 11q29 0 50 -21q20 -20 44 -55l70 -99q43 -62 43 -94q0 -21 -14 -37q-18 -21 -47 -21q-41 0 -70 42l-115 164q-20 29 -20 56z" />
<glyph unicode="&#xc9;" vert-adv-y="1633" d="M189 87v1191v6q0 39 23 63q22 18 60 18h4h519q24 0 40 -10q36 -21 36 -61t-36 -61q-16 -10 -40 -10h-464v-408h327q24 0 40 -10q36 -21 36 -61t-36 -61q-16 -10 -40 -10h-327v-531h464q24 0 40 -10q36 -21 36 -61t-36 -61q-16 -10 -40 -10h-519h-4q-43 0 -66 24 q-18 25 -17 63zM446 1519q0 31 44 93l71 99q24 35 45 55t49 20q33 0 50 -32q9 -16 9 -33q0 -28 -20 -56l-117 -163q-29 -42 -70 -42q-34 0 -52 28q-9 15 -9 31z" />
<glyph unicode="&#xca;" vert-adv-y="1633" d="M189 87v1191v6q0 39 23 63q22 18 60 18h4h519q24 0 40 -10q36 -21 36 -61t-36 -61q-16 -10 -40 -10h-464v-408h327q24 0 40 -10q36 -21 36 -61t-36 -61q-16 -10 -40 -10h-327v-531h464q24 0 40 -10q36 -21 36 -61t-36 -61q-16 -10 -40 -10h-519h-4q-43 0 -66 24 q-18 25 -17 63zM264 1521q0 35 62 93l89 83q33 31 55 46q24 17 51 17h4q32 0 56 -17q20 -14 55 -46l88 -83q63 -59 63 -93q0 -31 -27 -49q-16 -11 -37 -11q-33 0 -62 27l-136 127l-135 -127q-31 -28 -63 -28q-28 0 -47 20q-16 17 -16 41z" />
<glyph unicode="&#xcb;" vert-adv-y="1633" d="M189 87v1191v6q0 39 23 63q22 18 60 18h4h519q24 0 40 -10q36 -21 36 -61t-36 -61q-16 -10 -40 -10h-464v-408h327q24 0 40 -10q36 -21 36 -61t-36 -61q-16 -10 -40 -10h-327v-531h464q24 0 40 -10q36 -21 36 -61t-36 -61q-16 -10 -40 -10h-519h-4q-43 0 -66 24 q-18 25 -17 63zM238 1582q0 36 28 62q24 22 58 22q36 0 62 -28q22 -25 22 -57q0 -37 -28 -63q-25 -22 -57 -22q-38 0 -63 28q-22 25 -22 58zM641 1582q0 36 28 62q25 22 58 22q36 0 62 -28q22 -25 22 -57q0 -38 -28 -63q-25 -22 -57 -22q-38 0 -63 28q-22 24 -22 58z" />
<glyph unicode="&#xcc;" horiz-adv-x="517" vert-adv-y="1633" d="M187 75v1215q0 24 10 40q21 36 61 36t61 -36q10 -16 10 -40v-1215q0 -24 -10 -40q-21 -36 -61 -36t-61 36q-10 16 -10 40zM71 1722q0 34 27 54q15 11 32 11q29 0 50 -21q20 -20 44 -55l70 -99q43 -62 43 -94q0 -21 -14 -37q-18 -21 -47 -21q-41 0 -70 42l-115 164 q-20 29 -20 56z" />
<glyph unicode="&#xcd;" horiz-adv-x="517" vert-adv-y="1633" d="M187 75v1215q0 24 10 40q21 36 61 36t61 -36q10 -16 10 -40v-1215q0 -24 -10 -40q-21 -36 -61 -36t-61 36q-10 16 -10 40zM178 1519q0 31 44 93l71 99q24 35 45 55t49 20q33 0 50 -32q9 -16 9 -33q0 -28 -20 -56l-117 -163q-29 -42 -70 -42q-34 0 -52 28q-9 15 -9 31z " />
<glyph unicode="&#xce;" horiz-adv-x="517" vert-adv-y="1633" d="M187 75v1215q0 24 10 40q21 36 61 36t61 -36q10 -16 10 -40v-1215q0 -24 -10 -40q-21 -36 -61 -36t-61 36q-10 16 -10 40zM-3 1521q0 35 62 93l89 83q33 31 55 46q24 17 51 17h4q32 0 56 -17q20 -14 55 -46l88 -83q63 -59 63 -93q0 -31 -27 -49q-16 -11 -37 -11 q-33 0 -62 27l-136 127l-135 -127q-31 -28 -63 -28q-28 0 -47 20q-16 17 -16 41z" />
<glyph unicode="&#xcf;" horiz-adv-x="517" vert-adv-y="1633" d="M187 75v1215q0 24 10 40q21 36 61 36t61 -36q10 -16 10 -40v-1215q0 -24 -10 -40q-21 -36 -61 -36t-61 36q-10 16 -10 40zM40 1582q0 36 28 62q24 22 58 22q36 0 62 -28q22 -25 22 -57q0 -37 -28 -63q-25 -22 -57 -22q-38 0 -63 28q-22 25 -22 58zM307 1582q0 36 28 62 q25 22 58 22q36 0 62 -28q22 -25 22 -57q0 -38 -28 -63q-25 -22 -57 -22q-38 0 -63 28q-22 24 -22 58z" />
<glyph unicode="&#xd0;" horiz-adv-x="1147" vert-adv-y="1633" d="M27 748q0 42 34 62q15 9 38 9h88v459q-2 44 23 69q23 19 64 18h359q134 -1 208 -31q78 -32 126 -103q47 -63 50 -227v-643q0 -102 -19 -162q-73 -205 -365 -199h-359q-46 -1 -70 24q-18 25 -17 63v590h-88q-23 0 -38 9q-34 20 -34 62zM329 142h332q111 0 165 58 q48 55 49 184v598q-1 139 -59 194q-53 47 -155 47h-332v-404h227q23 0 39 -9q34 -20 34 -62q0 -41 -34 -62q-16 -9 -39 -9h-227v-535z" />
<glyph unicode="&#xd1;" horiz-adv-x="1204" vert-adv-y="1633" d="M187 75v1161q0 130 68 130q46 0 77 -55l543 -963v942q0 24 10 40q21 36 61 36t61 -36q10 -16 10 -40v-1159q0 -132 -70 -132q-26 0 -46 22q-17 19 -40 60l-532 956v-962q0 -24 -10 -40q-21 -36 -61 -36t-61 36q-10 16 -10 40zM316 1554q0 31 66 100q74 78 114 78 q17 0 92 -40t105 -40q27 0 54 34q38 47 72 47q32 0 52 -22q16 -18 16 -40q0 -37 -57 -105q-64 -78 -106 -78q-26 0 -67 21l-80 40q-52 26 -64 26q-17 0 -72 -55q-26 -26 -56 -26q-27 0 -46 17q-23 21 -23 43z" />
<glyph unicode="&#xd2;" horiz-adv-x="1062" vert-adv-y="1633" d="M116 456v459q0 196 106 313q59 66 143 103q82 35 168 35q124 0 230 -68q93 -60 141 -166q42 -92 42 -191v-517q0 -121 -64 -232q-58 -98 -161 -149q-89 -44 -188 -44q-183 0 -306 133q-67 72 -90 156q-21 73 -21 168zM258 456q0 -162 76 -237q79 -78 198 -78 q133 0 212 97q60 73 60 207v475q0 140 -66 214q-80 90 -209 90q-131 0 -208 -93q-63 -77 -63 -218v-457zM344 1722q0 34 27 54q15 11 32 11q29 0 50 -21q20 -20 44 -55l70 -99q43 -62 43 -94q0 -21 -14 -37q-18 -21 -47 -21q-41 0 -70 42l-115 164q-20 29 -20 56z" />
<glyph unicode="&#xd3;" horiz-adv-x="1062" vert-adv-y="1633" d="M116 456v459q0 196 106 313q59 66 143 103q82 35 168 35q124 0 230 -68q93 -60 141 -166q42 -92 42 -191v-517q0 -121 -64 -232q-58 -98 -161 -149q-89 -44 -188 -44q-183 0 -306 133q-67 72 -90 156q-21 73 -21 168zM258 456q0 -162 76 -237q79 -78 198 -78 q133 0 212 97q60 73 60 207v475q0 140 -66 214q-80 90 -209 90q-131 0 -208 -93q-63 -77 -63 -218v-457zM451 1519q0 31 44 93l71 99q24 35 45 55t49 20q33 0 50 -32q9 -16 9 -33q0 -28 -20 -56l-117 -163q-29 -42 -70 -42q-34 0 -52 28q-9 15 -9 31z" />
<glyph unicode="&#xd4;" horiz-adv-x="1062" vert-adv-y="1633" d="M116 456v459q0 196 106 313q59 66 143 103q82 35 168 35q124 0 230 -68q93 -60 141 -166q42 -92 42 -191v-517q0 -121 -64 -232q-58 -98 -161 -149q-89 -44 -188 -44q-183 0 -306 133q-67 72 -90 156q-21 73 -21 168zM258 456q0 -162 76 -237q79 -78 198 -78 q133 0 212 97q60 73 60 207v475q0 140 -66 214q-80 90 -209 90q-131 0 -208 -93q-63 -77 -63 -218v-457zM269 1521q0 35 62 93l89 83q33 31 55 46q24 17 51 17h4q32 0 56 -17q20 -14 55 -46l88 -83q63 -59 63 -93q0 -31 -27 -49q-16 -11 -37 -11q-33 0 -62 27l-136 127 l-135 -127q-31 -28 -63 -28q-28 0 -47 20q-16 17 -16 41z" />
<glyph unicode="&#xd5;" horiz-adv-x="1062" vert-adv-y="1633" d="M116 456v459q0 196 106 313q59 66 143 103q82 35 168 35q124 0 230 -68q93 -60 141 -166q42 -92 42 -191v-517q0 -121 -64 -232q-58 -98 -161 -149q-89 -44 -188 -44q-183 0 -306 133q-67 72 -90 156q-21 73 -21 168zM258 456q0 -162 76 -237q79 -78 198 -78 q133 0 212 97q60 73 60 207v475q0 140 -66 214q-80 90 -209 90q-131 0 -208 -93q-63 -77 -63 -218v-457zM245 1554q0 31 66 100q74 78 114 78q17 0 92 -40t105 -40q27 0 54 34q38 47 72 47q32 0 52 -22q16 -18 16 -40q0 -37 -57 -105q-64 -78 -106 -78q-26 0 -67 21l-80 40 q-52 26 -64 26q-17 0 -72 -55q-26 -26 -56 -26q-27 0 -46 17q-23 21 -23 43z" />
<glyph unicode="&#xd6;" horiz-adv-x="1062" vert-adv-y="1633" d="M116 456v459q0 196 106 313q59 66 143 103q82 35 168 35q124 0 230 -68q93 -60 141 -166q42 -92 42 -191v-517q0 -121 -64 -232q-58 -98 -161 -149q-89 -44 -188 -44q-183 0 -306 133q-67 72 -90 156q-21 73 -21 168zM258 456q0 -162 76 -237q79 -78 198 -78 q133 0 212 97q60 73 60 207v475q0 140 -66 214q-80 90 -209 90q-131 0 -208 -93q-63 -77 -63 -218v-457zM244 1582q0 36 28 62q24 22 58 22q36 0 62 -28q22 -25 22 -57q0 -37 -28 -63q-25 -22 -57 -22q-38 0 -63 28q-22 25 -22 58zM647 1582q0 36 28 62q25 22 58 22 q36 0 62 -28q22 -25 22 -57q0 -38 -28 -63q-25 -22 -57 -22q-38 0 -63 28q-22 24 -22 58z" />
<glyph unicode="&#xd7;" vert-adv-y="1633" d="M173 451q0 30 23 53l179 179l-171 173q-29 29 -29 54q0 32 25 55q20 18 43 18q29 0 61 -32l170 -168l171 168q31 30 61 30q23 0 42 -16q24 -21 24 -49q0 -30 -28 -59l-170 -174l171 -173q28 -28 28 -53q0 -21 -12 -40q-21 -34 -57 -34q-29 0 -54 25l-176 176l-171 -168 q-32 -32 -69 -32q-23 0 -40 18q-21 21 -21 49z" />
<glyph unicode="&#xd8;" horiz-adv-x="1062" vert-adv-y="1633" d="M114 45q0 14 11 34l60 109q-26 42 -41 83q-26 69 -26 185v459q0 145 54 242q54 96 155 154q97 55 208 55q140 0 256 -87l19 28q35 48 43 55t22 7q21 0 46 -19q25 -18 25 -35q0 -13 -20 -49l-46 -83q67 -106 68 -242v-517q0 -117 -60 -224q-58 -103 -165 -157 q-89 -44 -187 -44q-142 0 -263 91l-6 -11q-44 -80 -93 -80q-32 0 -49 20q-11 14 -11 26zM260 456q0 -53 11 -112l450 809q-83 71 -190 71q-123 0 -199 -83q-72 -79 -72 -228v-457zM342 213q84 -72 192 -72q123 0 201 85q71 76 71 219v475q0 41 -12 108z" />
<glyph unicode="&#xd9;" horiz-adv-x="1147" vert-adv-y="1633" d="M159 457v833q0 24 10 40q21 36 61 36t61 -36q10 -16 10 -40v-837q0 -105 26 -158q40 -83 118 -124q57 -30 129 -30q127 0 206 92q45 52 57 108q10 44 10 112v837q0 24 10 40q21 36 61 36t61 -36q10 -16 10 -40v-833q0 -125 -27 -200q-44 -120 -152 -190 q-105 -68 -236 -68q-150 0 -264 88q-102 80 -135 206q-16 64 -16 164zM387 1722q0 34 27 54q15 11 32 11q29 0 50 -21q20 -20 44 -55l70 -99q43 -62 43 -94q0 -21 -14 -37q-18 -21 -47 -21q-41 0 -70 42l-115 164q-20 29 -20 56z" />
<glyph unicode="&#xda;" horiz-adv-x="1147" vert-adv-y="1633" d="M159 457v833q0 24 10 40q21 36 61 36t61 -36q10 -16 10 -40v-837q0 -105 26 -158q40 -83 118 -124q57 -30 129 -30q127 0 206 92q45 52 57 108q10 44 10 112v837q0 24 10 40q21 36 61 36t61 -36q10 -16 10 -40v-833q0 -125 -27 -200q-44 -120 -152 -190 q-105 -68 -236 -68q-150 0 -264 88q-102 80 -135 206q-16 64 -16 164zM494 1519q0 31 44 93l71 99q24 35 45 55t49 20q33 0 50 -32q9 -16 9 -33q0 -28 -20 -56l-117 -163q-29 -42 -70 -42q-34 0 -52 28q-9 15 -9 31z" />
<glyph unicode="&#xdb;" horiz-adv-x="1147" vert-adv-y="1633" d="M159 457v833q0 24 10 40q21 36 61 36t61 -36q10 -16 10 -40v-837q0 -105 26 -158q40 -83 118 -124q57 -30 129 -30q127 0 206 92q45 52 57 108q10 44 10 112v837q0 24 10 40q21 36 61 36t61 -36q10 -16 10 -40v-833q0 -125 -27 -200q-44 -120 -152 -190 q-105 -68 -236 -68q-150 0 -264 88q-102 80 -135 206q-16 64 -16 164zM312 1521q0 35 62 93l89 83q33 31 55 46q24 17 51 17h4q32 0 56 -17q20 -14 55 -46l88 -83q63 -59 63 -93q0 -31 -27 -49q-16 -11 -37 -11q-33 0 -62 27l-136 127l-135 -127q-31 -28 -63 -28 q-28 0 -47 20q-16 17 -16 41z" />
<glyph unicode="&#xdc;" horiz-adv-x="1147" vert-adv-y="1633" d="M159 457v833q0 24 10 40q21 36 61 36t61 -36q10 -16 10 -40v-837q0 -105 26 -158q40 -83 118 -124q57 -30 129 -30q127 0 206 92q45 52 57 108q10 44 10 112v837q0 24 10 40q21 36 61 36t61 -36q10 -16 10 -40v-833q0 -125 -27 -200q-44 -120 -152 -190 q-105 -68 -236 -68q-150 0 -264 88q-102 80 -135 206q-16 64 -16 164zM287 1582q0 36 28 62q24 22 58 22q36 0 62 -28q22 -25 22 -57q0 -37 -28 -63q-25 -22 -57 -22q-38 0 -63 28q-22 25 -22 58zM690 1582q0 36 28 62q25 22 58 22q36 0 62 -28q22 -25 22 -57q0 -38 -28 -63 q-25 -22 -57 -22q-38 0 -63 28q-22 24 -22 58z" />
<glyph unicode="&#xdd;" horiz-adv-x="1048" vert-adv-y="1633" d="M32 1294q0 30 20 51q21 21 50 21q39 0 63 -35l357 -527l357 527q24 35 62 35q34 0 55 -27q16 -19 16 -44q0 -22 -15 -44l-404 -586v-590q0 -24 -10 -40q-21 -36 -61 -36t-61 36q-10 16 -10 40v590l-404 586q-15 22 -15 43zM444 1519q0 31 44 93l71 99q24 35 45 55t49 20 q33 0 50 -32q9 -16 9 -33q0 -28 -20 -56l-117 -163q-29 -42 -70 -42q-34 0 -52 28q-9 15 -9 31z" />
<glyph unicode="&#xde;" horiz-adv-x="1100" vert-adv-y="1633" d="M187 75v1215q0 24 10 40q21 36 61 36t61 -36q10 -16 10 -40v-129h246q188 0 304 -98q147 -125 147 -325q0 -205 -145 -315q-122 -92 -280 -92h-272v-256q0 -24 -10 -40q-21 -36 -61 -36t-61 36q-10 16 -10 40zM329 473h251q120 0 190 48q114 77 114 226q0 110 -68 186 q-78 86 -243 86h-244v-546z" />
<glyph unicode="&#xdf;" horiz-adv-x="1097" vert-adv-y="1633" d="M155 75v980q-1 184 107 261q76 53 248 53h166q114 0 187 -46q119 -76 119 -261q0 -163 -102 -244q45 -36 70 -82q30 -59 30 -122v-262q0 -113 -18 -168q-24 -74 -80 -121q-78 -64 -166 -64q-40 0 -63 26q-18 20 -18 45q0 32 25 51q13 10 65 20q49 9 75 38q37 43 38 150 v210q-1 107 -17 141q-16 45 -92 59q-60 11 -75 29q-18 23 -18 52q0 30 21 48q11 10 50 15q133 19 133 166q0 178 -198 178h-125q-147 1 -196 -63q-23 -34 -24 -125v-964q0 -24 -10 -40q-21 -36 -61 -36t-61 36q-10 16 -10 40z" />
<glyph unicode="&#xe0;" horiz-adv-x="905" vert-adv-y="1633" d="M73 287q0 104 72 186q81 91 241 91h242v56q-2 130 -35 165q-38 45 -112 45h-313q-24 0 -40 10q-36 21 -36 61t36 61q16 10 40 10h287q82 0 139 -17q176 -55 176 -289v-10v-529q-1 -81 -21 -101q-21 -25 -71 -26h-249q-142 0 -215 42q-62 36 -101 103q-40 69 -40 142z M225 284q0 -70 62 -109q46 -28 117 -28h224v275h-195q-88 0 -136 -21q-32 -14 -53 -49q-19 -31 -19 -68zM231 1408q0 34 27 54q15 11 32 11q29 0 50 -21q20 -20 44 -55l70 -99q43 -62 43 -94q0 -21 -14 -37q-18 -21 -47 -21q-41 0 -70 42l-115 164q-20 28 -20 56z" />
<glyph unicode="&#xe1;" horiz-adv-x="905" vert-adv-y="1633" d="M73 287q0 104 72 186q81 91 241 91h242v56q-2 130 -35 165q-38 45 -112 45h-313q-24 0 -40 10q-36 21 -36 61t36 61q16 10 40 10h287q82 0 139 -17q176 -55 176 -289v-10v-529q-1 -81 -21 -101q-21 -25 -71 -26h-249q-142 0 -215 42q-62 36 -101 103q-40 69 -40 142z M225 284q0 -70 62 -109q46 -28 117 -28h224v275h-195q-88 0 -136 -21q-32 -14 -53 -49q-19 -31 -19 -68zM339 1205q0 31 44 93l71 99q24 35 45 54q21 21 49 21q33 0 50 -32q9 -16 9 -33q0 -28 -20 -56l-117 -163q-29 -42 -70 -42q-34 0 -52 28q-9 15 -9 31z" />
<glyph unicode="&#xe2;" horiz-adv-x="905" vert-adv-y="1633" d="M73 287q0 104 72 186q81 91 241 91h242v56q-2 130 -35 165q-38 45 -112 45h-313q-24 0 -40 10q-36 21 -36 61t36 61q16 10 40 10h287q82 0 139 -17q176 -55 176 -289v-10v-529q-1 -81 -21 -101q-21 -25 -71 -26h-249q-142 0 -215 42q-62 36 -101 103q-40 69 -40 142z M225 284q0 -70 62 -109q46 -28 117 -28h224v275h-195q-88 0 -136 -21q-32 -14 -53 -49q-19 -31 -19 -68zM157 1221q0 34 62 93l89 83q33 31 55 46q24 16 51 16h4q32 0 56 -16q20 -14 55 -46l88 -83q63 -59 63 -93q0 -32 -27 -50q-16 -11 -37 -11q-32 0 -62 28l-136 127 l-135 -127q-30 -28 -63 -28q-28 0 -47 20q-16 17 -16 41z" />
<glyph unicode="&#xe3;" horiz-adv-x="905" vert-adv-y="1633" d="M73 287q0 104 72 186q81 91 241 91h242v56q-2 130 -35 165q-38 45 -112 45h-313q-24 0 -40 10q-36 21 -36 61t36 61q16 10 40 10h287q82 0 139 -17q176 -55 176 -289v-10v-529q-1 -81 -21 -101q-21 -25 -71 -26h-249q-142 0 -215 42q-62 36 -101 103q-40 69 -40 142z M225 284q0 -70 62 -109q46 -28 117 -28h224v275h-195q-88 0 -136 -21q-32 -14 -53 -49q-19 -31 -19 -68zM133 1253q0 31 66 100q74 78 114 78q17 0 92 -39q75 -40 105 -40q27 0 54 34q38 47 72 47q32 0 52 -22q16 -18 16 -40q0 -37 -57 -105q-64 -78 -106 -78q-26 0 -67 21 l-80 39q-51 26 -64 26q-17 0 -72 -55q-26 -26 -56 -26q-27 0 -46 17q-23 20 -23 43z" />
<glyph unicode="&#xe4;" horiz-adv-x="905" vert-adv-y="1633" d="M73 287q0 104 72 186q81 91 241 91h242v56q-2 130 -35 165q-38 45 -112 45h-313q-24 0 -40 10q-36 21 -36 61t36 61q16 10 40 10h287q82 0 139 -17q176 -55 176 -289v-10v-529q-1 -81 -21 -101q-21 -25 -71 -26h-249q-142 0 -215 42q-62 36 -101 103q-40 69 -40 142z M225 284q0 -70 62 -109q46 -28 117 -28h224v275h-195q-88 0 -136 -21q-32 -14 -53 -49q-19 -31 -19 -68zM131 1309q0 36 28 62q24 22 58 22q36 0 62 -28q22 -25 22 -57q0 -37 -28 -63q-24 -22 -57 -22q-38 0 -63 28q-22 25 -22 58zM534 1309q0 36 28 62q24 22 58 22 q36 0 62 -28q22 -25 22 -57q0 -37 -28 -63q-24 -22 -57 -22q-38 0 -63 28q-22 24 -22 58z" />
<glyph unicode="&#xe5;" horiz-adv-x="905" vert-adv-y="1633" d="M73 287q0 104 72 186q81 91 241 91h242v56q-2 130 -35 165q-38 45 -112 45h-313q-24 0 -40 10q-36 21 -36 61t36 61q16 10 40 10h287q82 0 139 -17q180 -56 176 -299v-529q-1 -81 -21 -101q-21 -25 -71 -26h-249q-142 0 -215 42q-62 36 -101 103q-40 69 -40 142z M223 1312q0 84 65 144q55 50 134 50q83 0 142 -65q50 -56 50 -130q0 -87 -65 -146q-55 -50 -130 -50q-88 0 -146 65q-50 56 -50 132zM225 284q0 -70 62 -109q46 -28 117 -28h224v275h-195q-88 0 -136 -21q-32 -14 -53 -49q-19 -31 -19 -68zM326 1311q0 -41 31 -69 q27 -24 61 -24q41 0 69 31q24 27 24 62q0 40 -31 68q-26 24 -63 24q-39 0 -67 -31q-24 -26 -24 -61z" />
<glyph unicode="&#xe6;" horiz-adv-x="1389" vert-adv-y="1633" d="M73 285q0 101 72 182q81 92 241 92h242v61q-2 130 -35 165q-39 45 -112 45h-313q-24 0 -40 10q-36 21 -36 61t36 61q16 10 40 10h287q80 0 139 -17q72 -21 124 -90q31 29 53 46q81 62 192 62q131 0 226 -87q113 -103 113 -305q0 -107 -17 -137q-14 -27 -78 -27h-437v-70 q1 -121 34 -161q34 -43 149 -44h277q24 0 40 -10q36 -21 36 -61t-36 -61q-16 -10 -40 -10h-280q-133 1 -195 34q-24 -33 -77 -34h-249q-142 0 -215 42q-62 36 -101 103q-40 68 -40 140zM225 282q0 -69 62 -107q46 -28 117 -28h224v270h-195q-89 0 -136 -21q-32 -14 -53 -49 q-19 -30 -19 -65zM770 559h390q-1 86 -11 126q-38 146 -182 146q-197 0 -197 -244v-28z" />
<glyph unicode="&#xe7;" horiz-adv-x="706" vert-adv-y="1633" d="M116 316v340q-1 315 300 316h180q29 0 54 -22q22 -20 22 -48q0 -29 -25 -51q-24 -21 -52 -21h-168q-88 0 -127 -35q-28 -24 -36 -68q-6 -32 -6 -80v-322q0 -80 15 -110q29 -71 154 -73h172q29 0 51 -22q22 -20 22 -51q0 -35 -30 -55q-21 -14 -60 -14h-166 q-301 1 -300 316zM254 -319q0 30 44 93l56 81q25 35 45 55q21 21 49 21q17 0 32 -11q27 -20 27 -55q0 -28 -19 -55l-102 -146q-29 -41 -71 -41q-34 0 -52 27q-9 15 -9 31z" />
<glyph unicode="&#xe8;" horiz-adv-x="868" vert-adv-y="1633" d="M107 319v300q0 103 47 186q47 81 126 126q74 42 162 42q131 0 226 -87q113 -104 113 -305q0 -106 -17 -137q-14 -27 -78 -27h-437v-70q1 -122 34 -161q34 -43 149 -44h277q24 0 40 -10q36 -21 36 -61t-36 -61q-16 -10 -40 -10h-280q-122 1 -188 30q-95 42 -119 159 q-15 70 -15 130zM249 559h389q0 86 -11 126q-37 146 -181 146q-147 0 -187 -145q-10 -38 -10 -127zM261 1408q0 34 27 54q15 11 32 11q29 0 50 -21q20 -20 44 -55l70 -99q43 -62 43 -94q0 -21 -14 -37q-18 -21 -47 -21q-41 0 -70 42l-115 164q-20 28 -20 56z" />
<glyph unicode="&#xe9;" horiz-adv-x="868" vert-adv-y="1633" d="M107 319v300q0 103 47 186q47 81 126 126q74 42 162 42q131 0 226 -87q113 -104 113 -305q0 -106 -17 -137q-14 -27 -78 -27h-437v-70q1 -122 34 -161q34 -43 149 -44h277q24 0 40 -10q36 -21 36 -61t-36 -61q-16 -10 -40 -10h-280q-122 1 -188 30q-95 42 -119 159 q-15 70 -15 130zM249 559h389q0 86 -11 126q-37 146 -181 146q-147 0 -187 -145q-10 -38 -10 -127zM368 1205q0 31 44 93l71 99q24 35 45 54q21 21 49 21q33 0 50 -32q9 -16 9 -33q0 -28 -20 -56l-117 -163q-29 -42 -70 -42q-34 0 -52 28q-9 15 -9 31z" />
<glyph unicode="&#xea;" horiz-adv-x="868" vert-adv-y="1633" d="M107 319v300q0 103 47 186q47 81 126 126q74 42 162 42q131 0 226 -87q113 -104 113 -305q0 -106 -17 -137q-14 -27 -78 -27h-437v-70q1 -122 34 -161q34 -43 149 -44h277q24 0 40 -10q36 -21 36 -61t-36 -61q-16 -10 -40 -10h-280q-122 1 -188 30q-95 42 -119 159 q-15 70 -15 130zM249 559h389q0 86 -11 126q-37 146 -181 146q-147 0 -187 -145q-10 -38 -10 -127zM186 1221q0 34 62 93l89 83q33 31 55 46q24 16 51 16h4q32 0 56 -16q20 -14 55 -46l88 -83q63 -59 63 -93q0 -32 -27 -50q-16 -11 -37 -11q-32 0 -62 28l-136 127l-135 -127 q-30 -28 -63 -28q-28 0 -47 20q-16 17 -16 41z" />
<glyph unicode="&#xeb;" horiz-adv-x="868" vert-adv-y="1633" d="M107 319v300q0 103 47 186q47 81 126 126q74 42 162 42q131 0 226 -87q113 -104 113 -305q0 -106 -17 -137q-14 -27 -78 -27h-437v-70q1 -122 34 -161q34 -43 149 -44h277q24 0 40 -10q36 -21 36 -61t-36 -61q-16 -10 -40 -10h-280q-122 1 -188 30q-95 42 -119 159 q-15 70 -15 130zM249 559h389q0 86 -11 126q-37 146 -181 146q-147 0 -187 -145q-10 -38 -10 -127zM161 1309q0 36 28 62q24 22 58 22q36 0 62 -28q22 -25 22 -57q0 -37 -28 -63q-24 -22 -57 -22q-38 0 -63 28q-22 25 -22 58zM564 1309q0 36 28 62q24 22 58 22q36 0 62 -28 q22 -25 22 -57q0 -37 -28 -63q-24 -22 -57 -22q-38 0 -63 28q-22 24 -22 58z" />
<glyph unicode="&#xec;" horiz-adv-x="451" vert-adv-y="1633" d="M154 75v822q0 24 10 40q21 36 61 36t61 -36q10 -16 10 -40v-822q0 -24 -10 -40q-21 -36 -61 -36t-61 36q-10 16 -10 40zM38 1408q0 34 27 54q15 11 32 11q29 0 50 -21q20 -20 44 -55l70 -99q43 -62 43 -94q0 -21 -14 -37q-18 -21 -47 -21q-41 0 -70 42l-115 164 q-20 28 -20 56z" />
<glyph unicode="&#xed;" horiz-adv-x="450" vert-adv-y="1633" d="M154 75v822q0 24 10 40q21 36 61 36t61 -36q10 -16 10 -40v-822q0 -24 -10 -40q-21 -36 -61 -36t-61 36q-10 16 -10 40zM145 1205q0 31 44 93l71 99q24 35 45 54q21 21 49 21q33 0 50 -32q9 -16 9 -33q0 -28 -20 -56l-117 -163q-29 -42 -70 -42q-34 0 -52 28q-9 15 -9 31 z" />
<glyph unicode="&#xee;" horiz-adv-x="450" vert-adv-y="1633" d="M154 75v822q0 24 10 40q21 36 61 36t61 -36q10 -16 10 -40v-822q0 -24 -10 -40q-21 -36 -61 -36t-61 36q-10 16 -10 40zM-36 1221q0 34 62 93l89 83q33 31 55 46q24 16 51 16h4q32 0 56 -16q20 -14 55 -46l88 -83q63 -59 63 -93q0 -32 -27 -50q-16 -11 -37 -11 q-32 0 -62 28l-136 127l-135 -127q-30 -28 -63 -28q-28 0 -47 20q-16 17 -16 41z" />
<glyph unicode="&#xef;" horiz-adv-x="451" vert-adv-y="1633" d="M154 75v822q0 24 10 40q21 36 61 36t61 -36q10 -16 10 -40v-822q0 -24 -10 -40q-21 -36 -61 -36t-61 36q-10 16 -10 40zM7 1309q0 36 28 62q24 22 58 22q36 0 62 -28q22 -25 22 -57q0 -37 -28 -63q-24 -22 -57 -22q-38 0 -63 28q-22 25 -22 58zM274 1309q0 36 28 62 q24 22 58 22q36 0 62 -28q22 -25 22 -57q0 -38 -28 -63q-24 -22 -57 -22q-38 0 -63 28q-22 24 -22 58z" />
<glyph unicode="&#xf0;" horiz-adv-x="901" vert-adv-y="1633" d="M100 335v220q0 139 63 230q51 74 134 113q72 34 155 34q64 0 129 -24q-40 92 -112 176l-97 -63q-20 -13 -42 -13q-30 0 -52 21q-20 20 -20 49q0 39 37 62l62 41q-15 11 -33 23q-55 38 -68 50q-30 27 -30 52q0 23 24 42q21 18 48 18q68 0 190 -100l94 60q21 14 42 14 q30 0 51 -21q20 -20 20 -50q0 -39 -36 -62l-69 -45q88 -108 142 -252q71 -193 70 -355v-179q0 -139 -63 -230q-51 -74 -134 -113q-72 -34 -154 -34q-121 0 -215 70q-81 61 -117 172q-19 57 -19 94zM242 415q0 -128 50 -198q53 -76 159 -76t159 76q50 70 50 198v94 q0 281 -208 281q-112 0 -168 -87q-42 -67 -42 -194v-94z" />
<glyph unicode="&#xf1;" horiz-adv-x="981" vert-adv-y="1633" d="M154 75v795q0 55 19 75q24 26 105 27h262q176 -1 250 -99q54 -71 56 -254v-544q0 -24 -10 -40q-21 -36 -61 -36t-61 36q-10 16 -10 40v533q-1 143 -46 183q-45 39 -151 39h-211v-755q0 -24 -10 -40q-21 -36 -61 -36t-61 36q-10 16 -10 40zM205 1253q0 31 66 100 q74 78 114 78q17 0 92 -39q75 -40 105 -40q27 0 54 34q38 47 72 47q32 0 52 -22q16 -18 16 -40q0 -37 -57 -105q-64 -78 -106 -78q-26 0 -67 21l-80 39q-51 26 -64 26q-17 0 -72 -55q-26 -26 -56 -26q-27 0 -46 17q-23 20 -23 43z" />
<glyph unicode="&#xf2;" horiz-adv-x="901" vert-adv-y="1633" d="M100 376v220q0 139 63 230q51 74 134 113q72 34 154 34q121 0 215 -71q136 -102 136 -306v-220q0 -139 -63 -230q-51 -74 -134 -113q-72 -34 -154 -34q-121 0 -215 71q-136 102 -136 306zM242 415q0 -128 50 -198q53 -76 159 -76t159 76q50 70 50 198v135q0 281 -208 281 q-112 0 -168 -87q-42 -67 -42 -194v-135zM264 1408q0 34 27 54q15 11 32 11q29 0 50 -21q20 -20 44 -55l70 -99q43 -62 43 -94q0 -21 -14 -37q-18 -21 -47 -21q-41 0 -70 42l-115 164q-20 28 -20 56z" />
<glyph unicode="&#xf3;" horiz-adv-x="901" vert-adv-y="1633" d="M100 376v220q0 139 63 230q51 74 134 113q72 34 154 34q121 0 215 -71q136 -102 136 -306v-220q0 -139 -63 -230q-51 -74 -134 -113q-72 -34 -154 -34q-121 0 -215 71q-136 102 -136 306zM242 415q0 -128 50 -198q53 -76 159 -76t159 76q50 70 50 198v135q0 281 -208 281 q-112 0 -168 -87q-42 -67 -42 -194v-135zM371 1205q0 31 44 93l71 99q24 35 45 54q21 21 49 21q33 0 50 -32q9 -16 9 -33q0 -28 -20 -56l-117 -163q-29 -42 -70 -42q-34 0 -52 28q-9 15 -9 31z" />
<glyph unicode="&#xf4;" horiz-adv-x="901" vert-adv-y="1633" d="M100 376v220q0 139 63 230q51 74 134 113q72 34 154 34q121 0 215 -71q136 -102 136 -306v-220q0 -139 -63 -230q-51 -74 -134 -113q-72 -34 -154 -34q-121 0 -215 71q-136 102 -136 306zM242 415q0 -128 50 -198q53 -76 159 -76t159 76q50 70 50 198v135q0 281 -208 281 q-112 0 -168 -87q-42 -67 -42 -194v-135zM189 1221q0 34 62 93l89 83q33 31 55 46q24 16 51 16h4q32 0 56 -16q20 -14 55 -46l88 -83q63 -59 63 -93q0 -32 -27 -50q-16 -11 -37 -11q-32 0 -62 28l-136 127l-135 -127q-30 -28 -63 -28q-28 0 -47 20q-16 17 -16 41z" />
<glyph unicode="&#xf5;" horiz-adv-x="901" vert-adv-y="1633" d="M100 376v220q0 139 63 230q51 74 134 113q72 34 154 34q121 0 215 -71q136 -102 136 -306v-220q0 -139 -63 -230q-51 -74 -134 -113q-72 -34 -154 -34q-121 0 -215 71q-136 102 -136 306zM242 415q0 -128 50 -198q53 -76 159 -76t159 76q50 70 50 198v135q0 281 -208 281 q-112 0 -168 -87q-42 -67 -42 -194v-135zM165 1253q0 31 66 100q74 78 114 78q17 0 92 -39q75 -40 105 -40q27 0 54 34q38 47 72 47q32 0 52 -22q16 -18 16 -40q0 -37 -57 -105q-64 -78 -106 -78q-26 0 -67 21l-80 39q-51 26 -64 26q-17 0 -72 -55q-26 -26 -56 -26 q-27 0 -46 17q-23 20 -23 43z" />
<glyph unicode="&#xf6;" horiz-adv-x="901" vert-adv-y="1633" d="M100 376v220q0 139 63 230q51 74 134 113q72 34 154 34q121 0 215 -71q136 -102 136 -306v-220q0 -139 -63 -230q-51 -74 -134 -113q-72 -34 -154 -34q-121 0 -215 71q-136 102 -136 306zM242 415q0 -128 50 -198q53 -76 159 -76t159 76q50 70 50 198v135q0 281 -208 281 q-112 0 -168 -87q-42 -67 -42 -194v-135zM164 1309q0 36 28 62q24 22 58 22q36 0 62 -28q22 -25 22 -57q0 -37 -28 -63q-24 -22 -57 -22q-38 0 -63 28q-22 25 -22 58zM567 1309q0 36 28 62q24 22 58 22q36 0 62 -28q22 -25 22 -57q0 -37 -28 -63q-24 -22 -57 -22 q-38 0 -63 28q-22 24 -22 58z" />
<glyph unicode="&#xf7;" vert-adv-y="1633" d="M114 687q0 34 38 62h551q98 0 98 -63q0 -29 -21 -46q-29 -24 -75 -24h-495q-96 0 -96 71zM373 412q0 36 28 62q24 22 58 22q36 0 61 -28q22 -24 22 -56q0 -38 -28 -63q-24 -22 -56 -22q-38 0 -63 28q-22 24 -22 57zM373 955q0 36 28 62q24 22 58 22q36 0 61 -28 q22 -24 22 -56q0 -38 -28 -63q-24 -22 -56 -22q-38 0 -63 28q-22 24 -22 57z" />
<glyph unicode="&#xf8;" horiz-adv-x="901" vert-adv-y="1633" d="M100 376v220q0 139 63 230q51 74 134 113q72 34 154 34q103 0 195 -57l11 16q24 37 62 37q34 0 55 -26q16 -20 16 -46q0 -20 -14 -42l-28 -43q54 -85 54 -216v-220q0 -139 -63 -230q-51 -74 -134 -113q-72 -34 -154 -34q-102 0 -195 57l-10 -16q-24 -36 -63 -36 q-33 0 -54 25q-16 20 -16 47q0 20 13 41l28 42q-53 87 -54 217zM242 415q0 -55 11 -103l315 485q-54 34 -116 34q-111 0 -168 -87q-42 -66 -42 -194v-135zM334 176q56 -35 117 -35q106 0 159 76q50 70 50 198v135q0 58 -10 111z" />
<glyph unicode="&#xf9;" horiz-adv-x="981" vert-adv-y="1633" d="M135 362v535q0 24 10 40q21 36 61 36t61 -36q10 -16 10 -40v-533q0 -131 45 -179q40 -43 152 -43h211v755q0 24 10 40q21 36 61 36t61 -36q10 -16 10 -40v-796q0 -60 -26 -82q-22 -19 -69 -19h-291q-113 1 -162 27q-140 73 -144 335zM303 1408q0 34 27 54q15 11 32 11 q29 0 50 -21q20 -20 44 -55l70 -99q43 -62 43 -94q0 -21 -14 -37q-18 -21 -47 -21q-41 0 -70 42l-115 164q-20 28 -20 56z" />
<glyph unicode="&#xfa;" horiz-adv-x="981" vert-adv-y="1633" d="M135 362v535q0 24 10 40q21 36 61 36t61 -36q10 -16 10 -40v-533q0 -131 45 -179q40 -43 152 -43h211v755q0 24 10 40q21 36 61 36t61 -36q10 -16 10 -40v-796q0 -60 -26 -82q-22 -19 -69 -19h-291q-113 1 -162 27q-140 73 -144 335zM411 1205q0 31 44 93l71 99 q24 35 45 54q21 21 49 21q33 0 50 -32q9 -16 9 -33q0 -28 -20 -56l-117 -163q-29 -42 -70 -42q-34 0 -52 28q-9 15 -9 31z" />
<glyph unicode="&#xfb;" horiz-adv-x="981" vert-adv-y="1633" d="M135 362v535q0 24 10 40q21 36 61 36t61 -36q10 -16 10 -40v-533q0 -131 45 -179q40 -43 152 -43h211v755q0 24 10 40q21 36 61 36t61 -36q10 -16 10 -40v-796q0 -60 -26 -82q-22 -19 -69 -19h-291q-113 1 -162 27q-140 73 -144 335zM229 1221q0 34 62 93l89 83 q33 31 55 46q24 16 51 16h4q32 0 56 -16q20 -14 55 -46l88 -83q63 -59 63 -93q0 -32 -27 -50q-16 -11 -37 -11q-32 0 -62 28l-136 127l-135 -127q-30 -28 -63 -28q-28 0 -47 20q-16 17 -16 41z" />
<glyph unicode="&#xfc;" horiz-adv-x="981" vert-adv-y="1633" d="M135 362v535q0 24 10 40q21 36 61 36t61 -36q10 -16 10 -40v-533q0 -131 45 -179q40 -43 152 -43h211v755q0 24 10 40q21 36 61 36t61 -36q10 -16 10 -40v-796q0 -60 -26 -82q-22 -19 -69 -19h-291q-113 1 -162 27q-140 73 -144 335zM204 1309q0 36 28 62q24 22 58 22 q36 0 62 -28q22 -25 22 -57q0 -37 -28 -63q-24 -22 -57 -22q-38 0 -63 28q-22 25 -22 58zM607 1309q0 36 28 62q24 22 58 22q36 0 62 -28q22 -25 22 -57q0 -37 -28 -63q-24 -22 -57 -22q-38 0 -63 28q-22 24 -22 58z" />
<glyph unicode="&#xfd;" horiz-adv-x="778" vert-adv-y="1633" d="M44 -341q0 31 29 51q10 7 79 23q35 8 53 39q4 10 21 62l93 279l-270 762q-5 15 -5 28q0 26 19 47q20 24 51 24q52 0 70 -52l209 -620l200 619q17 53 69 53q31 0 52 -23q19 -21 19 -48q0 -12 -6 -28l-361 -1062q-43 -128 -91 -173q-52 -49 -131 -49q-58 0 -83 27 q-17 18 -17 41zM309 1205q0 31 44 93l71 99q24 35 45 54q21 21 49 21q33 0 50 -32q9 -16 9 -33q0 -28 -20 -56l-117 -163q-29 -42 -70 -42q-34 0 -52 28q-9 15 -9 31z" />
<glyph unicode="&#xfe;" horiz-adv-x="962" vert-adv-y="1633" d="M154 -317v1607q0 24 10 40q21 36 61 36t61 -36q10 -16 10 -40v-318h228q129 0 195 -37q128 -78 127 -279v-340q-1 -322 -313 -316h-237v-317q0 -24 -10 -40q-21 -36 -61 -36t-61 36q-10 16 -10 40zM296 142h226q103 0 144 39q38 41 38 130v357q0 85 -41 126 q-39 36 -128 36h-239v-688z" />
<glyph unicode="&#xff;" horiz-adv-x="778" vert-adv-y="1633" d="M44 -341q0 31 29 51q10 7 79 23q35 8 53 39q4 10 21 62l93 279l-270 762q-5 15 -5 28q0 26 19 47q20 24 51 24q52 0 70 -52l209 -620l200 619q17 53 69 53q31 0 52 -23q19 -21 19 -48q0 -12 -6 -28l-361 -1062q-43 -128 -91 -173q-52 -49 -131 -49q-58 0 -83 27 q-17 18 -17 41zM102 1309q0 36 28 62q24 22 58 22q36 0 62 -28q22 -25 22 -57q0 -37 -28 -63q-24 -22 -57 -22q-38 0 -63 28q-22 25 -22 58zM505 1309q0 36 28 62q24 22 58 22q36 0 62 -28q22 -25 22 -57q0 -37 -28 -63q-24 -22 -57 -22q-38 0 -63 28q-22 24 -22 58z" />
<glyph unicode="&#x131;" horiz-adv-x="450" vert-adv-y="1633" d="M154 75v822q0 24 10 40q21 36 61 36t61 -36q10 -16 10 -40v-822q0 -24 -10 -40q-21 -36 -61 -36t-61 36q-10 16 -10 40z" />
<glyph unicode="&#x152;" horiz-adv-x="1531" vert-adv-y="1633" d="M116 457v458q0 179 96 299q124 152 323 152q138 0 269 -91q-2 90 87 90h519q24 0 40 -10q36 -21 36 -61t-36 -61q-15 -10 -40 -10h-464v-408h327q24 0 40 -10q36 -21 36 -61t-36 -61q-16 -10 -40 -10h-327v-531h464q24 0 40 -10q36 -21 36 -61t-36 -61q-16 -10 -40 -10 h-519q-90 -5 -87 87v21q-112 -109 -271 -109q-127 0 -236 70q-181 114 -181 388zM258 457q0 -140 55 -213q36 -49 99 -77q57 -26 120 -26q135 0 212 98q60 75 60 206v475q0 132 -71 214q-78 89 -201 89q-128 0 -204 -84q-70 -78 -70 -227v-455z" />
<glyph unicode="&#x153;" horiz-adv-x="1420" vert-adv-y="1633" d="M100 376v219q0 123 48 208q44 78 125 124q80 46 176 46q130 0 235 -84q20 -16 46 -41q28 36 64 60q97 65 205 65q126 0 222 -87q113 -103 113 -305q0 -107 -17 -137q-14 -27 -78 -27h-437v-70q1 -122 34 -161q35 -43 149 -44h277q24 0 40 -10q36 -21 36 -61t-36 -61 q-16 -10 -40 -10h-280q-212 -1 -275 105q-108 -106 -258 -106q-136 0 -234 88q-115 102 -115 289zM242 415q0 -127 50 -198q53 -76 158 -76q106 0 159 76q50 71 50 198v135q0 281 -207 281q-123 0 -178 -103q-32 -61 -32 -178v-135zM802 559h389q0 86 -10 126 q-38 146 -182 146q-148 0 -187 -145q-10 -38 -10 -127z" />
<glyph unicode="&#x178;" horiz-adv-x="1048" vert-adv-y="1633" d="M32 1294q0 30 20 51q21 21 50 21q39 0 63 -35l357 -527l357 527q24 35 62 35q34 0 55 -27q16 -19 16 -44q0 -22 -15 -44l-404 -586v-590q0 -24 -10 -40q-21 -36 -61 -36t-61 36q-10 16 -10 40v590l-404 586q-15 22 -15 43zM237 1582q0 36 28 62q24 22 58 22q36 0 62 -28 q22 -25 22 -57q0 -37 -28 -63q-25 -22 -57 -22q-38 0 -63 28q-22 25 -22 58zM640 1582q0 36 28 62q25 22 58 22q36 0 62 -28q22 -25 22 -57q0 -38 -28 -63q-25 -22 -57 -22q-38 0 -63 28q-22 24 -22 58z" />
<glyph unicode="&#x2c6;" horiz-adv-x="1024" vert-adv-y="1633" d="M251 1221q0 34 62 93l89 83q33 31 55 46q24 16 51 16h4q32 0 56 -16q20 -14 55 -46l88 -83q63 -59 63 -93q0 -32 -27 -50q-16 -11 -37 -11q-32 0 -62 28l-136 127l-135 -127q-30 -28 -63 -28q-28 0 -47 20q-16 17 -16 41z" />
<glyph unicode="&#x2c9;" horiz-adv-x="1024" vert-adv-y="1633" d="M255 1308q0 40 36 62q16 10 40 10h362q24 0 40 -10q36 -22 36 -62q0 -39 -36 -60q-16 -10 -40 -10h-362q-24 0 -40 10q-36 21 -36 60z" />
<glyph unicode="&#x2dc;" horiz-adv-x="1024" vert-adv-y="1633" d="M227 1253q0 31 66 100q74 78 114 78q17 0 92 -39q75 -40 105 -40q27 0 54 34q38 47 72 47q32 0 52 -22q16 -18 16 -40q0 -37 -57 -105q-64 -78 -106 -78q-26 0 -67 21l-80 39q-51 26 -64 26q-17 0 -72 -55q-26 -26 -56 -26q-27 0 -46 17q-23 20 -23 43z" />
<glyph unicode="&#x2000;" horiz-adv-x="909" vert-adv-y="0" />
<glyph unicode="&#x2001;" horiz-adv-x="1818" vert-adv-y="0" />
<glyph unicode="&#x2002;" horiz-adv-x="909" vert-adv-y="0" />
<glyph unicode="&#x2003;" horiz-adv-x="1818" vert-adv-y="0" />
<glyph unicode="&#x2004;" horiz-adv-x="606" vert-adv-y="0" />
<glyph unicode="&#x2005;" horiz-adv-x="454" vert-adv-y="0" />
<glyph unicode="&#x2006;" horiz-adv-x="303" vert-adv-y="0" />
<glyph unicode="&#x2007;" horiz-adv-x="303" vert-adv-y="0" />
<glyph unicode="&#x2008;" horiz-adv-x="227" vert-adv-y="0" />
<glyph unicode="&#x2009;" horiz-adv-x="363" vert-adv-y="0" />
<glyph unicode="&#x200a;" horiz-adv-x="101" vert-adv-y="0" />
<glyph unicode="&#x2010;" horiz-adv-x="550" vert-adv-y="1633" d="M0 506q0 40 36 61q16 10 40 10h398q24 0 40 -10q36 -21 36 -61t-36 -61q-16 -10 -40 -10h-398q-24 0 -40 10q-36 21 -36 61z" />
<glyph unicode="&#x2011;" horiz-adv-x="550" vert-adv-y="1633" d="M0 506q0 40 36 61q16 10 40 10h398q24 0 40 -10q36 -21 36 -61t-36 -61q-16 -10 -40 -10h-398q-24 0 -40 10q-36 21 -36 61z" />
<glyph unicode="&#x2012;" horiz-adv-x="550" vert-adv-y="1633" d="M0 506q0 40 36 61q16 10 40 10h398q24 0 40 -10q36 -21 36 -61t-36 -61q-16 -10 -40 -10h-398q-24 0 -40 10q-36 21 -36 61z" />
<glyph unicode="&#x2013;" vert-adv-y="1633" d="M110 506q0 40 36 61q16 10 40 10h543q24 0 40 -10q36 -21 36 -61t-36 -61q-16 -10 -40 -10h-543q-24 0 -40 10q-36 21 -36 61z" />
<glyph unicode="&#x2014;" horiz-adv-x="943" vert-adv-y="1633" d="M0 506q0 40 36 61q16 10 40 10h792q24 0 40 -10q36 -21 36 -61t-36 -61q-16 -10 -40 -10h-792q-24 0 -40 10q-36 21 -36 61z" />
<glyph unicode="&#x2018;" horiz-adv-x="376" vert-adv-y="1633" d="M86 1025q0 37 10 75l46 171q17 59 24 73q16 32 57 32q31 0 48 -19q19 -21 19 -48q0 -37 -10 -75l-46 -171q-13 -55 -26 -75q-19 -30 -57 -30q-29 0 -46 19q-19 21 -19 48z" />
<glyph unicode="&#x2019;" horiz-adv-x="375" vert-adv-y="1633" d="M86 1025q0 37 10 75l46 171q13 55 26 75q19 30 57 30q29 0 46 -19q19 -21 19 -48q0 -37 -10 -75l-46 -171q-15 -56 -24 -73q-16 -32 -57 -32q-31 0 -48 19q-19 21 -19 48z" />
<glyph unicode="&#x201a;" horiz-adv-x="376" vert-adv-y="1633" d="M86 -189q0 37 10 75l46 172q13 54 26 74q19 30 57 30q29 0 46 -19q19 -21 19 -47q0 -37 -10 -75l-46 -172q-17 -59 -24 -73q-16 -32 -57 -32q-31 0 -48 19q-19 21 -19 48z" />
<glyph unicode="&#x201c;" horiz-adv-x="731" vert-adv-y="1633" d="M86 1025q0 37 10 75l46 171q17 59 24 73q16 32 57 32q31 0 48 -19q19 -21 19 -48q0 -37 -10 -75l-46 -171q-13 -55 -26 -75q-19 -30 -57 -30q-29 0 -46 19q-19 21 -19 48zM441 1025q0 37 10 75l46 171q17 59 24 73q16 32 57 32q31 0 48 -19q19 -21 19 -48q0 -37 -10 -75 l-46 -171q-13 -55 -26 -75q-19 -30 -57 -30q-29 0 -46 19q-19 21 -19 48z" />
<glyph unicode="&#x201d;" horiz-adv-x="731" vert-adv-y="1633" d="M86 1025q0 37 10 75l46 171q13 55 26 75q19 30 57 30q29 0 46 -19q19 -21 19 -48q0 -37 -10 -75l-46 -171q-15 -56 -24 -73q-16 -32 -57 -32q-31 0 -48 19q-19 21 -19 48zM441 1025q0 37 10 75l46 171q13 55 26 75q19 30 57 30q29 0 46 -19q19 -21 19 -48q0 -37 -10 -75 l-46 -171q-15 -56 -24 -73q-16 -32 -57 -32q-31 0 -48 19q-19 21 -19 48z" />
<glyph unicode="&#x201e;" horiz-adv-x="731" vert-adv-y="1633" d="M86 -189q0 37 10 75l46 172q13 54 26 74q19 30 57 30q29 0 46 -19q19 -21 19 -47q0 -37 -10 -75l-46 -172q-17 -59 -24 -73q-16 -32 -57 -32q-31 0 -48 19q-19 21 -19 48zM441 -189q0 37 10 75l46 172q13 54 26 74q19 30 57 30q29 0 46 -19q19 -21 19 -47q0 -37 -10 -75 l-46 -172q-17 -59 -24 -73q-16 -32 -57 -32q-31 0 -48 19q-19 21 -19 48z" />
<glyph unicode="&#x2022;" horiz-adv-x="1365" vert-adv-y="1633" d="M401 693q0 121 84 202q85 83 204 83q113 0 196 -83q84 -83 84 -201t-84 -201q-83 -83 -200 -83t-200 83q-84 83 -84 200z" />
<glyph unicode="&#x2026;" horiz-adv-x="1109" vert-adv-y="1633" d="M101 78q0 36 28 62q24 22 58 22q35 0 61 -28q22 -24 22 -56q0 -38 -28 -63q-24 -22 -56 -22q-38 0 -63 28q-22 24 -22 57zM471 78q0 36 28 62q24 22 58 22q35 0 61 -28q22 -24 22 -56q0 -38 -28 -63q-24 -22 -56 -22q-38 0 -63 28q-22 24 -22 57zM840 78q0 36 28 62 q24 22 58 22q35 0 61 -28q22 -24 22 -56q0 -38 -28 -63q-24 -22 -56 -22q-38 0 -63 28q-22 24 -22 57z" />
<glyph unicode="&#x202f;" horiz-adv-x="363" vert-adv-y="0" />
<glyph unicode="&#x2039;" horiz-adv-x="601" vert-adv-y="1633" d="M93 504q0 20 13 39q10 15 62 67l188 189q35 34 47 41q17 9 37 9q31 0 50 -22q18 -20 18 -49q0 -31 -23 -55l-219 -219l219 -218q23 -24 23 -55q0 -34 -23 -55q-18 -16 -45 -16q-21 0 -40 11q-11 6 -44 39l-188 189q-57 56 -66 73q-9 16 -9 32z" />
<glyph unicode="&#x203a;" horiz-adv-x="601" vert-adv-y="1633" d="M93 230q0 32 24 56l218 218l-218 219q-24 24 -24 55q0 34 23 55q18 16 45 16q21 0 40 -11q11 -6 44 -39l189 -189q55 -56 65 -73q9 -16 9 -33q0 -19 -13 -38q-10 -16 -61 -67l-189 -189q-36 -35 -47 -42q-17 -9 -37 -9q-31 0 -50 22q-18 20 -18 49z" />
<glyph unicode="&#x205f;" horiz-adv-x="454" vert-adv-y="0" />
<glyph unicode="&#x20ac;" horiz-adv-x="1446" vert-adv-y="1633" d="M14 742l49 120h169q45 161 149 284t247 188q140 64 298 64q284 0 506 -213l-51 -122q-185 215 -457 215q-257 0 -436 -191q-91 -97 -131 -225h780h159l-49 -120h-915q-2 -37 -2 -58t2 -60h866l-50 -120h-791q28 -94 95 -183q77 -101 189 -161q132 -72 282 -72 q275 0 458 215v-170q-213 -166 -455 -166q-223 0 -406 126q-215 148 -288 411h-216l49 120h146q-2 40 -2 61q0 24 2 57h-197z" />
<glyph unicode="&#x2122;" horiz-adv-x="1408" vert-adv-y="1633" d="M41 1294q0 40 36 61q16 10 38 10h393q22 0 38 -10q36 -21 36 -61t-35 -61q-16 -10 -39 -10h-124v-636q0 -22 -10 -39q-21 -35 -63 -35q-41 0 -62 35q-10 17 -10 39v636h-124q-22 0 -39 10q-35 21 -35 61zM643 587v673q0 106 70 106q41 0 71 -49l174 -287l173 287 q30 49 71 49q70 0 70 -106v-673q0 -23 -10 -39q-21 -35 -61 -35t-61 35q-10 16 -10 39v448l-90 -149q-40 -65 -82 -65q-43 0 -83 65l-90 149v-448q0 -23 -10 -39q-21 -35 -61 -35t-61 35q-10 16 -10 39z" />
<glyph unicode="&#xe000;" horiz-adv-x="975" vert-adv-y="1949" d="M0 975h975v-975h-975v975z" />
<glyph unicode="&#xfb01;" horiz-adv-x="1110" vert-adv-y="1633" d="M801 1311q0 36 28 61q23 22 57 22q35 0 60 -28q22 -24 22 -55q0 -37 -28 -62q-24 -22 -55 -22q-37 0 -62 28q-22 24 -22 56zM813 75v822q0 24 10 40q21 36 61 36t61 -36q10 -16 10 -40v-822q0 -24 -10 -40q-21 -36 -61 -36t-61 36q-10 16 -10 40zM93 901q0 40 36 62 q15 9 40 9h61q-1 42 -1 62q0 189 90 261q89 71 225 71q61 0 86 -28q18 -20 18 -42q0 -41 -32 -60q-11 -7 -106 -20q-96 -13 -121 -74q-18 -44 -18 -123q0 -14 1 -47h204q24 0 40 -10q36 -21 36 -61t-36 -61q-16 -10 -40 -10h-204v-755q0 -24 -10 -40q-21 -36 -61 -36t-61 36 q-10 16 -10 40v755h-61q-23 0 -40 10q-36 21 -36 61z" />
<glyph unicode="&#xfb02;" horiz-adv-x="1124" vert-adv-y="1633" d="M803 281v1009q0 24 10 40q21 36 61 36t61 -36q10 -16 10 -40v-986q1 -88 22 -124q15 -26 44 -42l38 -20q30 -16 30 -50q0 -35 -20 -53q-19 -16 -43 -16q-56 0 -115 39q-69 47 -89 133q-9 41 -9 110zM93 901q0 40 36 62q15 9 40 9h61q-1 42 -1 62q0 189 90 261 q89 71 225 71q61 0 86 -28q18 -20 18 -42q0 -41 -32 -60q-11 -7 -106 -20q-96 -13 -121 -74q-18 -44 -18 -123q0 -14 1 -47h204q24 0 40 -10q36 -21 36 -61t-36 -61q-16 -10 -40 -10h-204v-755q0 -24 -10 -40q-21 -36 -61 -36t-61 36q-10 16 -10 40v755h-61q-23 0 -40 10 q-36 21 -36 61z" />
<glyph unicode="&#xfb03;" horiz-adv-x="1769" vert-adv-y="1633" d="M1460 1311q0 36 28 61q23 22 57 22q35 0 60 -28q22 -24 22 -55q0 -37 -28 -62q-24 -22 -55 -22q-37 0 -62 28q-22 24 -22 56zM1472 75v822q0 24 10 40q21 36 61 36t61 -36q10 -16 10 -40v-822q0 -24 -10 -40q-21 -36 -61 -36t-61 36q-10 16 -10 40zM752 901q0 40 36 62 q15 9 40 9h61q-1 42 -1 62q0 189 90 261q89 71 225 71q61 0 86 -28q18 -20 18 -42q0 -41 -32 -60q-11 -7 -106 -20q-96 -13 -121 -74q-18 -44 -18 -123q0 -14 1 -47h204q24 0 40 -10q36 -21 36 -61t-36 -61q-16 -10 -40 -10h-204v-755q0 -24 -10 -40q-21 -36 -61 -36t-61 36 q-10 16 -10 40v755h-61q-23 0 -40 10q-36 21 -36 61zM93 901q0 40 36 62q15 9 40 9h61q-1 42 -1 62q0 189 90 261q89 71 225 71q61 0 86 -28q18 -20 18 -42q0 -41 -32 -60q-11 -7 -106 -20q-96 -13 -121 -74q-18 -44 -18 -123q0 -14 1 -47h204q24 0 40 -10q36 -21 36 -61 t-36 -61q-16 -10 -40 -10h-204v-755q0 -24 -10 -40q-21 -36 -61 -36t-61 36q-10 16 -10 40v755h-61q-23 0 -40 10q-36 21 -36 61z" />
<glyph unicode="&#xfb04;" horiz-adv-x="1783" vert-adv-y="1633" d="M1462 281v1009q0 24 10 40q21 36 61 36t61 -36q10 -16 10 -40v-986q1 -88 22 -124q15 -26 44 -42l38 -20q30 -16 30 -50q0 -35 -20 -53q-19 -16 -43 -16q-56 0 -115 39q-69 47 -89 133q-9 41 -9 110zM752 901q0 40 36 62q15 9 40 9h61q-1 42 -1 62q0 189 90 261 q89 71 225 71q61 0 86 -28q18 -20 18 -42q0 -41 -32 -60q-11 -7 -106 -20q-96 -13 -121 -74q-18 -44 -18 -123q0 -14 1 -47h204q24 0 40 -10q36 -21 36 -61t-36 -61q-16 -10 -40 -10h-204v-755q0 -24 -10 -40q-21 -36 -61 -36t-61 36q-10 16 -10 40v755h-61q-23 0 -40 10 q-36 21 -36 61zM93 901q0 40 36 62q15 9 40 9h61q-1 42 -1 62q0 189 90 261q89 71 225 71q61 0 86 -28q18 -20 18 -42q0 -41 -32 -60q-11 -7 -106 -20q-96 -13 -121 -74q-18 -44 -18 -123q0 -14 1 -47h204q24 0 40 -10q36 -21 36 -61t-36 -61q-16 -10 -40 -10h-204v-755 q0 -24 -10 -40q-21 -36 -61 -36t-61 36q-10 16 -10 40v755h-61q-23 0 -40 10q-36 21 -36 61z" />
<glyph horiz-adv-x="1024" vert-adv-y="1633" d="M225 1582q0 36 28 62q24 22 58 22q36 0 62 -28q22 -25 22 -57q0 -37 -28 -63q-25 -22 -57 -22q-38 0 -63 28q-22 25 -22 58zM628 1582q0 36 28 62q25 22 58 22q36 0 62 -28q22 -25 22 -57q0 -38 -28 -63q-25 -22 -57 -22q-38 0 -63 28q-22 24 -22 58z" />
<glyph horiz-adv-x="1024" vert-adv-y="1633" d="M432 1519q0 31 44 93l71 99q24 35 45 55t49 20q33 0 50 -32q9 -16 9 -33q0 -28 -20 -56l-117 -163q-29 -42 -70 -42q-34 0 -52 28q-9 15 -9 31z" />
<glyph horiz-adv-x="1024" vert-adv-y="1633" d="M325 1722q0 34 27 54q15 11 32 11q29 0 50 -21q20 -20 44 -55l70 -99q43 -62 43 -94q0 -21 -14 -37q-18 -21 -47 -21q-41 0 -70 42l-115 164q-20 29 -20 56z" />
<glyph horiz-adv-x="1024" vert-adv-y="1633" d="M293 1309q0 36 28 62q24 22 58 22q36 0 62 -28q22 -25 22 -57q0 -37 -28 -63q-24 -22 -57 -22q-38 0 -63 28q-22 25 -22 58zM560 1309q0 36 28 62q24 22 58 22q36 0 62 -28q22 -25 22 -57q0 -38 -28 -63q-24 -22 -57 -22q-38 0 -63 28q-22 24 -22 58z" />
<glyph horiz-adv-x="1024" vert-adv-y="1633" d="M251 1521q0 35 62 93l89 83q33 31 55 46q24 17 51 17h4q32 0 56 -17q20 -14 55 -46l88 -83q63 -59 63 -93q0 -31 -27 -49q-16 -11 -37 -11q-33 0 -62 27l-136 127l-135 -127q-31 -28 -63 -28q-28 0 -47 20q-16 17 -16 41z" />
<glyph horiz-adv-x="1024" vert-adv-y="1633" d="M227 1554q0 31 66 100q74 78 114 78q17 0 92 -40t105 -40q27 0 54 34q38 47 72 47q32 0 52 -22q16 -18 16 -40q0 -37 -57 -105q-64 -78 -106 -78q-26 0 -67 21l-80 40q-52 26 -64 26q-17 0 -72 -55q-26 -26 -56 -26q-27 0 -46 17q-23 21 -23 43z" />
<glyph horiz-adv-x="1024" vert-adv-y="1633" d="M293 1582q0 36 28 62q24 22 58 22q36 0 62 -28q22 -25 22 -57q0 -37 -28 -63q-25 -22 -57 -22q-38 0 -63 28q-22 25 -22 58zM560 1582q0 36 28 62q25 22 58 22q36 0 62 -28q22 -25 22 -57q0 -38 -28 -63q-25 -22 -57 -22q-38 0 -63 28q-22 24 -22 58z" />
<glyph horiz-adv-x="1024" vert-adv-y="1633" d="M317 1624q0 84 65 144q55 50 134 50q83 0 142 -65q50 -56 50 -130q0 -87 -65 -146q-56 -50 -130 -50q-87 0 -146 65q-50 55 -50 132zM420 1623q0 -41 31 -69q26 -24 62 -24q40 0 68 31q24 26 24 62q0 40 -31 68q-26 24 -63 24q-39 0 -67 -31q-24 -26 -24 -61z" />
</font>
</defs>
</svg>
