<?xml version="1.0" encoding="utf-8"?>
<!-- Generator: Adobe Illustrator 15.0.0, SVG Export Plug-In  -->
<!DOCTYPE svg PUBLIC "-//W3C//DTD SVG 1.1//EN" "http://www.w3.org/Graphics/SVG/1.1/DTD/svg11.dtd" [
	<!ENTITY ns_flows "http://ns.adobe.com/Flows/1.0/">
]>
<svg version="1.1"
	 xmlns="http://www.w3.org/2000/svg" xmlns:xlink="http://www.w3.org/1999/xlink" xmlns:a="http://ns.adobe.com/AdobeSVGViewerExtensions/3.0/"
	 x="0px" y="0px" width="44px" height="44px" viewBox="-0.948 -0.754 44 44"
	 overflow="visible" enable-background="new -0.948 -0.754 44 44" xml:space="preserve">
<defs>
</defs>
<circle display="none" fill="#4EB748" cx="21.052" cy="21.246" r="20.16"/>
<text transform="matrix(1 0 0 1 14.5576 30.3354)" display="none" opacity="0.54" fill="#FFFFFF" font-family="'ArialMT'" font-size="30.24">b</text>
<circle display="none" fill="#4EB748" cx="21.142" cy="20.7" r="20.16"/>
<text transform="matrix(1 0 0 1 14.0303 28.1187)" display="none" opacity="0.54" fill="#FFFFFF" font-family="'ArialMT'" font-size="30.24">y</text>
<circle display="none" fill="#1AA294" cx="21.193" cy="20.755" r="20.16"/>
<text transform="matrix(1 0 0 1 16.4761 30.5171)" display="none" opacity="0.54" fill="#FFFFFF" font-family="'ArialMT'" font-size="30.24">f</text>
<circle display="none" fill="#1AA294" cx="20.843" cy="20.427" r="20.16"/>
<text transform="matrix(1 0 0 1 12.3491 29.5171)" display="none" opacity="0.54" fill="#FFFFFF" font-family="'ArialMT'" font-size="30.24">a</text>
<circle display="none" fill="#E7495B" cx="21.193" cy="20.755" r="20.16"/>
<text transform="matrix(1 0 0 1 9.0801 28.1812)" display="none" opacity="0.54" fill="#FFFFFF" font-family="'ArialMT'" font-size="30.24">m</text>
<circle display="none" fill="#E7495B" cx="20.843" cy="20.428" r="20.16"/>
<text transform="matrix(1 0 0 1 12.5894 29.1821)" display="none" opacity="0.54" fill="#FFFFFF" font-family="'ArialMT'" font-size="30.24">o</text>
<circle display="none" fill="#F6862A" cx="20.791" cy="20.419" r="20.16"/>
<text transform="matrix(1 0 0 1 12.1816 30.5171)" display="none" opacity="0.54" fill="#FFFFFF" font-family="'ArialMT'" font-size="30.24">u</text>
<circle display="none" fill="#F6862A" cx="20.843" cy="20.427" r="20.16"/>
<text transform="matrix(1 0 0 1 13.7305 28.8452)" display="none" opacity="0.54" fill="#FFFFFF" font-family="'ArialMT'" font-size="30.24">s</text>
<circle display="none" fill="#F6862A" cx="20.843" cy="20.427" r="20.16"/>
<text transform="matrix(1 0 0 1 17.7305 28.8452)" display="none" opacity="0.54" fill="#FFFFFF" font-family="'ArialMT'" font-size="30.24">i</text>
<circle display="none" fill="#E4E036" cx="20.843" cy="20.427" r="20.16"/>
<circle display="none" fill="#FFFFFF" cx="21.066" cy="20.459" r="20.011"/>
<g display="none">
	<defs>
		<rect id="SVGID_1_" width="41.452" height="41.453"/>
	</defs>
	<clipPath id="SVGID_2_" display="inline">
		<use xlink:href="#SVGID_1_"  display="none" overflow="visible"/>
	</clipPath>
	<path clip-path="url(#SVGID_2_)" d="M29.525,16.722c0.097-2.222-0.551-4.006-1.427-5.435C27.226,9.859,25.64,8.45,23.89,8.608
		c-1.043,0.094-1.493,0.488-1.729,1.048c-0.239,0.56-0.294,1.824-0.294,2.36V25.38c2.53-0.336,4.874-1.805,6.341-4.125
		C29.03,19.96,29.46,18.238,29.525,16.722"/>
	<path clip-path="url(#SVGID_2_)" d="M20.56,0.207c-11.333,0-20.523,9.048-20.523,20.209c0,10.366,7.901,18.877,18.11,20.043
		c0.507,0.024,0.799-0.024,1.037-0.229c0.195-0.165,0.281-0.44,0.281-0.676l0.012-12.043c-5.527-0.575-9.948-5.131-9.88-10.726
		c0.066-5.342,3.745-9.624,8.616-10.631c0.129-0.027,0.216-0.052,0.285,0.017c0.074,0.075,0.031,0.257,0.031,0.257l-0.368,1.79
		c0,0-0.025,0.112-0.059,0.146c-0.033,0.033-0.076,0.05-0.125,0.066c-2.117,0.661-4.031,2.09-4.954,3.824
		c-0.77,1.445-1.271,2.524-1.271,4.492c0,4.236,3.331,8.115,7.723,8.642V12.017c0-1.396,0.073-3.029,0.896-4.144
		c0.641-0.869,1.758-1.404,3.521-1.404c2.535,0,5.57,1.86,7.103,5.88c0.466,1.215,0.738,2.755,0.734,4.417
		c-0.015,5.577-4.361,10.141-9.864,10.74l-0.01,12.052c0,0.318,0.099,0.553,0.287,0.696c0.221,0.171,0.408,0.243,1.029,0.19
		c0.23-0.021,0.671-0.075,0.86-0.107c9.68-1.622,17.053-9.924,17.053-19.92C41.083,9.255,31.896,0.207,20.56,0.207"/>
</g>
<circle fill="#999999" cx="20.843" cy="21.427" r="20.16"/>
<g>
	<g>
		<path fill="#FFFFFF" d="M10.43,16.202c5.527,4.898,11.055,9.795,16.583,14.693c2.885,2.556,7.144-1.672,4.242-4.242
			C25.728,21.755,20.2,16.857,14.672,11.96C11.788,9.404,7.528,13.631,10.43,16.202L10.43,16.202z"/>
	</g>
</g>
<g>
	<g>
		<path fill="#FFFFFF" d="M25.637,11.057c-4.93,5.499-9.858,10.998-14.787,16.498c-2.574,2.871,1.655,7.129,4.242,4.242
			c4.929-5.499,9.858-10.998,14.787-16.498C32.453,12.428,28.224,8.17,25.637,11.057L25.637,11.057z"/>
	</g>
</g>
<circle fill="#915AA4" cx="20.971" cy="21.375" r="20.181"/>
<line fill="none" stroke="#FFFFFF" stroke-width="4" stroke-linecap="round" x1="20.874" y1="21.581" x2="20.842" y2="11.738"/>
<line fill="none" stroke="#FFFFFF" stroke-width="4" stroke-linecap="round" x1="25.865" y1="27.601" x2="21.005" y2="22.152"/>
</svg>
