<?xml version="1.0" encoding="utf-8"?>
<!-- Generator: Adobe Illustrator 15.0.0, SVG Export Plug-In  -->
<!DOCTYPE svg PUBLIC "-//W3C//DTD SVG 1.1//EN" "http://www.w3.org/Graphics/SVG/1.1/DTD/svg11.dtd" [
	<!ENTITY ns_flows "http://ns.adobe.com/Flows/1.0/">
]>
<svg version="1.1"
	 xmlns="http://www.w3.org/2000/svg" xmlns:xlink="http://www.w3.org/1999/xlink" xmlns:a="http://ns.adobe.com/AdobeSVGViewerExtensions/3.0/"
	 x="0px" y="0px" width="44px" height="44px" viewBox="-1.579 -1.013 44 44"
	 overflow="visible" enable-background="new -1.579 -1.013 44 44" xml:space="preserve">
<defs>
</defs>
<circle display="none" fill="#4EB748" cx="20.421" cy="20.987" r="20.16"/>
<text transform="matrix(1 0 0 1 13.9268 30.0767)" display="none" opacity="0.54" fill="#FFFFFF" font-family="'ArialMT'" font-size="30.24">b</text>
<circle display="none" fill="#4EB748" cx="20.511" cy="20.441" r="20.16"/>
<text transform="matrix(1 0 0 1 13.3994 27.8599)" display="none" opacity="0.54" fill="#FFFFFF" font-family="'ArialMT'" font-size="30.24">y</text>
<circle display="none" fill="#1AA294" cx="20.562" cy="20.496" r="20.16"/>
<text transform="matrix(1 0 0 1 15.8452 30.2583)" display="none" opacity="0.54" fill="#FFFFFF" font-family="'ArialMT'" font-size="30.24">f</text>
<circle display="none" fill="#1AA294" cx="20.212" cy="20.168" r="20.16"/>
<text transform="matrix(1 0 0 1 11.7183 29.2583)" display="none" opacity="0.54" fill="#FFFFFF" font-family="'ArialMT'" font-size="30.24">a</text>
<circle display="none" fill="#E7495B" cx="20.562" cy="20.497" r="20.16"/>
<text transform="matrix(1 0 0 1 8.4492 27.9224)" display="none" opacity="0.54" fill="#FFFFFF" font-family="'ArialMT'" font-size="30.24">m</text>
<circle display="none" fill="#E7495B" cx="20.212" cy="20.169" r="20.16"/>
<text transform="matrix(1 0 0 1 11.9585 28.9233)" display="none" opacity="0.54" fill="#FFFFFF" font-family="'ArialMT'" font-size="30.24">o</text>
<circle fill="#F6862A" cx="20.16" cy="20.16" r="20.16"/>
<text transform="matrix(1 0 0 1 11.5508 30.2583)" opacity="0.54" fill="#FFFFFF" font-family="'ArialMT'" font-size="30.24">u</text>
<circle display="none" fill="#F6862A" cx="20.212" cy="20.168" r="20.16"/>
<text transform="matrix(1 0 0 1 13.0996 28.5864)" display="none" opacity="0.54" fill="#FFFFFF" font-family="'ArialMT'" font-size="30.24">s</text>
<circle display="none" fill="#F6862A" cx="20.212" cy="20.168" r="20.16"/>
<text transform="matrix(1 0 0 1 17.0996 28.5864)" display="none" opacity="0.54" fill="#FFFFFF" font-family="'ArialMT'" font-size="30.24">i</text>
</svg>
