<?xml version="1.0" standalone="no"?>
<!DOCTYPE svg PUBLIC "-//W3C//DTD SVG 1.1//EN" "http://www.w3.org/Graphics/SVG/1.1/DTD/svg11.dtd" >
<svg xmlns="http://www.w3.org/2000/svg">
<metadata>
This is a custom SVG webfont generated by Font Squirrel.
Copyright   :  1989 1995 2002 Adobe Systems Incorporated All rights reserved
Designer    : Adrian Frutiger
Foundry URL : httpwwwadobecomtype
</metadata>
<defs>
<font id="SerifaStd55Roman" horiz-adv-x="1138" >
<font-face units-per-em="2048" ascent="1339" descent="-709" />
<missing-glyph horiz-adv-x="569" />
<glyph unicode=" "  horiz-adv-x="569" />
<glyph unicode="&#x09;" horiz-adv-x="569" />
<glyph unicode="&#xa0;" horiz-adv-x="569" />
<glyph unicode="!" horiz-adv-x="796" d="M297 1339h205l-35 -1020h-135zM303 0v193h193v-193h-193z" />
<glyph unicode="&#x22;" d="M324 868v471h155v-471h-155zM659 868v471h156v-471h-156z" />
<glyph unicode="#" d="M66 418v119h227l41 270h-209v119h227l62 415h137l-62 -415h254l62 415h137l-61 -415h192v-119h-211l-41 -270h191v-119h-207l-64 -418h-137l64 418h-254l-64 -418h-139l65 418h-210zM430 537h254l41 270h-254z" />
<glyph unicode="$" d="M94 997q0 166 118 264.5t284 98.5v176h118v-176q176 -39 242 -150h6v129h156v-442h-158q6 143 -57.5 228t-188.5 104v-463l25 -8q113 -35 176.5 -61.5t126 -71.5t89 -109.5t26.5 -155.5q0 -176 -124 -277t-319 -103v-191h-118v201q-156 35 -236 166h-6v-156h-156v453h160 q0 -133 62.5 -221.5t175.5 -110.5v500q-205 59 -303.5 138.5t-98.5 237.5zM287 997q0 -61 51 -105t158 -85v422q-88 -12 -148.5 -72t-60.5 -160zM614 111q102 8 176 72.5t74 176.5q0 86 -59.5 134.5t-190.5 87.5v-471z" />
<glyph unicode="%" horiz-adv-x="1820" d="M236 1006q0 154 76.5 254t230.5 100q150 0 218 -99.5t68 -254.5q0 -162 -68.5 -259.5t-217.5 -97.5q-158 0 -232.5 98.5t-74.5 258.5zM379 1006q0 -100 37 -175t127 -75q143 0 143 250q0 248 -143 247q-164 1 -164 -247zM461 -37l778 1413h129l-778 -1413h-129zM991 336 q0 154 77 254t230 100q150 0 218.5 -99t68.5 -255q0 -162 -68.5 -259t-218.5 -97q-158 0 -232.5 98t-74.5 258zM1135 336q0 -100 36.5 -175t126.5 -75q143 0 144 250q0 248 -144 248q-163 0 -163 -248z" />
<glyph unicode="&#x26;" horiz-adv-x="1593" d="M117 365q0 262 305 393q-63 59 -94 91t-64 95.5t-33 130.5q0 139 109 212t264 73q160 0 260.5 -68.5t100.5 -216.5q0 -227 -281 -348l340 -348q90 135 88 278h-166v131h506v-131h-184q0 -205 -129 -389l135 -137h205v-131h-320l-139 141q-145 -162 -442 -161 q-201 0 -331 98.5t-130 286.5zM309 365q0 -115 79 -184.5t196 -69.5q193 0 331 135l-387 397q-219 -98 -219 -278zM424 1075q0 -27 9 -53.5t30.5 -57t35 -47t46.5 -50t37 -40.5q8 6 37.5 25.5t42 29t37 29t34.5 34.5l25 37q14 22 20 44.5t6 48.5q0 154 -182 154 q-78 0 -128 -39t-50 -115z" />
<glyph unicode="'" horiz-adv-x="569" d="M207 868v471h155v-471h-155z" />
<glyph unicode="(" horiz-adv-x="681" d="M96 610q0 473 324 869h151q-137 -182 -209.5 -409.5t-72.5 -459.5q0 -223 73.5 -448t200.5 -408h-153q-139 190 -226.5 425.5t-87.5 430.5z" />
<glyph unicode=")" horiz-adv-x="681" d="M111 -246q137 182 209.5 409.5t72.5 459.5q0 223 -73.5 448t-200.5 408h153q139 -190 226.5 -426t87.5 -430q0 -473 -324 -869h-151z" />
<glyph unicode="*" d="M238 1040l49 158l237 -121l-39 262h164l-35 -262l238 113l49 -158l-260 -43l180 -192l-143 -97l-111 236l-127 -229l-135 98l189 184z" />
<glyph unicode="+" horiz-adv-x="1228" d="M96 440v156h441v440h155v-440h441v-156h-441v-440h-155v440h-441z" />
<glyph unicode="," horiz-adv-x="569" d="M182 0v205h205v-205l-86 -266h-119l88 266h-88z" />
<glyph unicode="-" horiz-adv-x="681" d="M98 473v156h486v-156h-486z" />
<glyph unicode="." horiz-adv-x="569" d="M182 0v205h205v-205h-205z" />
<glyph unicode="/" horiz-adv-x="796" d="M41 -20l559 1380h156l-559 -1380h-156z" />
<glyph unicode="0" d="M96 670q0 100 11.5 189t44 183.5t84 162t138.5 111.5t199.5 44t198.5 -44t136 -111.5t82 -162t42 -183.5t10 -189q0 -690 -469 -690q-477 0 -477 690zM289 670q0 -88 4 -156t21.5 -147.5t46 -132t83 -88t129.5 -35.5q61 0 109.5 22.5t77 67.5t48 94t28 119.5t11.5 126 t3 129.5q0 104 -8 183t-33 174t-85 148.5t-151 53.5q-284 0 -284 -559z" />
<glyph unicode="1" d="M207 893v188q131 92 315 258h185v-1208h202v-131h-583v131h200v1018q-33 -35 -76.5 -73t-72.5 -59.5t-89.5 -65.5t-80.5 -58z" />
<glyph unicode="2" d="M100 0v215q39 37 177.5 152.5t238.5 206t188.5 212t88.5 213.5q0 106 -62.5 168t-163.5 62q-121 0 -191.5 -76t-70.5 -203h-192q10 199 131 304.5t323 105.5q176 0 297 -93t121 -268q0 -100 -55.5 -206.5t-152.5 -207t-185 -177t-196.5 -161.5t-141.5 -116h594v221h156 v-352h-904z" />
<glyph unicode="3" d="M109 371h192q4 -125 73.5 -192.5t192.5 -67.5q100 0 175 68.5t75 172.5q0 264 -323 264v132q135 0 222 55t87 182q0 113 -62.5 178.5t-173.5 65.5q-109 0 -178.5 -69.5t-77.5 -182.5h-192q2 174 130 278.5t318 104.5q184 0 306 -84t122 -268q0 -141 -83 -228.5 t-224 -101.5v-4q137 -2 229.5 -90t92.5 -232q0 -186 -121 -279t-322 -93q-458 0 -458 391z" />
<glyph unicode="4" d="M53 346v197l574 796h223v-862h201v-131h-201v-215h201v-131h-584v131h203v215h-617zM182 477h488v678h-4z" />
<glyph unicode="5" d="M139 358h193q0 -104 64.5 -175.5t174.5 -71.5q137 0 210 82.5t73 236.5q0 135 -68.5 215t-203.5 80q-86 0 -158 -48t-96 -132h-168l22 794h795v-131h-627l-22 -503h4q27 70 106.5 110.5t167.5 40.5q207 0 317.5 -108.5t110.5 -317.5q0 -215 -120.5 -332.5t-342.5 -117.5 q-195 0 -313.5 95t-118.5 283z" />
<glyph unicode="6" d="M109 639q0 721 540 721q166 0 262.5 -88t96.5 -250h-181q0 207 -202 207q-184 0 -271 -193q-66 -158 -65 -418h4q27 106 117 172t208 66q188 0 300 -113.5t112 -300.5q0 -211 -118.5 -336.5t-327.5 -125.5q-475 0 -475 659zM319 418q0 -129 71 -218t194 -89t188.5 90 t65.5 217q0 139 -63.5 223t-190.5 84q-115 0 -190 -95t-75 -212z" />
<glyph unicode="7" d="M115 950v389h934v-155q-266 -520 -525 -1184h-192q215 539 547 1208h-609v-258h-155z" />
<glyph unicode="8" d="M119 352q0 145 82 234.5t227 105.5v2q-135 20 -214 100t-79 214q0 168 131 260t307 92q180 0 307.5 -85t127.5 -255q0 -139 -78 -221t-217 -105v-4q152 -25 229.5 -102.5t77.5 -227.5q0 -188 -126 -284t-321 -96q-199 0 -326.5 89.5t-127.5 282.5zM299 369 q0 -125 75 -191.5t199.5 -66.5t195.5 70.5t71 193.5q0 115 -71 180.5t-196 65.5q-121 0 -197.5 -65.5t-76.5 -186.5zM315 991.5q0 -108.5 75 -174t183 -65.5q111 0 182.5 65.5t71.5 177.5q0 115 -71.5 174.5t-182.5 59.5q-117 0 -187.5 -64.5t-70.5 -173z" />
<glyph unicode="9" d="M109 897q0 211 118.5 337t327.5 126q475 0 475 -660q0 -721 -541 -720q-166 0 -262 88t-96 249h180q0 -207 203 -206q184 0 270 192q66 158 66 418h-4q-27 -106 -117 -172t-209 -66q-188 0 -299.5 114t-111.5 300zM272 922q0 -137 67 -222.5t193 -85.5q117 0 195 94.5 t78 213t-64.5 213t-179.5 94.5q-141 0 -215 -90t-74 -217z" />
<glyph unicode=":" horiz-adv-x="569" d="M182 0v205h205v-205h-205zM182 729v205h205v-205h-205z" />
<glyph unicode=";" horiz-adv-x="569" d="M182 0v205h205v-205l-86 -266h-119l88 266h-88zM182 729v205h205v-205h-205z" />
<glyph unicode="&#x3c;" horiz-adv-x="1228" d="M94 449v139l1041 465v-154l-850 -381l850 -381v-153z" />
<glyph unicode="=" horiz-adv-x="1228" d="M96 231v156h1037v-156h-1037zM96 649v156h1037v-156h-1037z" />
<glyph unicode="&#x3e;" horiz-adv-x="1228" d="M94 -16v153l850 381l-850 381v154l1041 -465v-139z" />
<glyph unicode="?" horiz-adv-x="1024" d="M76 991q6 174 132 271.5t310 97.5q174 0 291 -83t117 -245q0 -55 -12.5 -104t-23.5 -79t-48 -74t-51.5 -58.5t-73 -65.5t-72.5 -65q-68 -61 -85 -113.5t-17 -153.5h-183q0 111 27 185t64.5 117t119.5 116q18 16 29 25q70 61 101.5 113.5t31.5 130.5q0 100 -60.5 155.5 t-169 55.5t-170 -60.5t-65.5 -165.5h-192zM356 0v193h193v-193h-193z" />
<glyph unicode="@" horiz-adv-x="1638" d="M156 674q0 287 204.5 486.5t489.5 199.5q262 0 447.5 -162t185.5 -410q0 -227 -148.5 -377.5t-292.5 -150.5q-49 0 -81.5 28.5t-34.5 84.5h-4q-100 -113 -219 -113t-196 85t-77 208q0 197 121 352.5t305 155.5q145 0 211 -143l37 112h125l-148 -514q-18 -59 -18 -92 q0 -45 39 -45q96 0 179 124t83 271q0 211 -148.5 339t-365.5 128q-244 0 -403.5 -169t-159.5 -408.5t165.5 -402.5t411.5 -163q129 0 248 54.5t199 146.5h123q-90 -150 -244 -234.5t-330 -84.5q-297 0 -500.5 200.5t-203.5 493.5zM586 567q0 -78 43 -127t106 -49 q111 0 193 123t82 244q0 70 -45 121t-105 51q-113 0 -193.5 -118t-80.5 -245z" />
<glyph unicode="A" horiz-adv-x="1593" d="M31 0v131h147l514 1208h215l508 -1208h148v-131h-551v131h205l-130 311h-600l-133 -317h209v-125h-532zM543 573h491l-243 592z" />
<glyph unicode="B" horiz-adv-x="1366" d="M59 0v131h207v1077h-207v131h607q72 0 116.5 -2t114.5 -12t114 -33.5t88 -60.5t65.5 -100.5t21.5 -147.5q0 -111 -73 -192.5t-193 -100.5v-4h7q138 0 218 -80q82 -82 82 -229q0 -96 -31 -166t-80 -110t-126 -63.5t-151.5 -30.5t-172.5 -7h-607zM446 131h220q82 0 140 9.5 t113.5 33t85 74.5t29.5 129q0 59 -20.5 102t-52 67.5t-82 39t-99.5 19.5t-114 5h-220v-479zM446 741h216q74 0 126 8.5t102 33t76.5 74.5t26.5 126q0 63 -22.5 108.5t-52 67t-81 33.5t-85 14t-86.5 2h-220v-467z" />
<glyph unicode="C" horiz-adv-x="1478" d="M117 669.5q0 327.5 175 509t505 181.5q106 0 227 -48t172 -138h4v165h156v-479h-156q-16 180 -120.5 274.5t-282.5 94.5q-233 0 -360.5 -140.5t-127.5 -418.5q0 -250 126 -404.5t362 -154.5q156 0 264 93t108 251h193q0 -240 -161 -357.5t-404 -117.5q-330 0 -505 181 t-175 508.5z" />
<glyph unicode="D" horiz-adv-x="1478" d="M61 0v131h205v1077h-205v131h494q158 0 275.5 -15t226 -59t177.5 -117t109.5 -192.5t40.5 -283.5t-40.5 -284t-109.5 -193.5t-177.5 -117.5t-227 -60.5t-274.5 -16.5h-494zM446 131h109q152 0 261.5 23.5t197.5 82t133 167t45 266t-45 266t-133 167t-197.5 82 t-261.5 23.5h-109v-1077z" />
<glyph unicode="E" horiz-adv-x="1366" d="M82 0v131h205v1077h-205v131h1167v-405h-155v274h-627v-467h299v193h156v-516h-156v192h-299v-479h627v287h155v-418h-1167z" />
<glyph unicode="F" horiz-adv-x="1251" d="M59 1208v131h1133v-424h-156v293h-590v-467h293v174h156v-501h-156v196h-293v-479h244v-131h-629v131h205v1077h-207z" />
<glyph unicode="G" horiz-adv-x="1593" d="M117 669.5q0 327.5 175 509t505 181.5q111 0 222 -50t159 -139h4v168h155v-477h-153q-12 176 -111.5 271.5t-275.5 95.5q-233 0 -360.5 -140.5t-127.5 -418.5q0 -250 126 -404.5t362 -154.5q180 0 287.5 117.5t105.5 299.5h-227v131h575v-131h-182v-528h-168v190h-4 q-57 -92 -168 -151t-219 -59q-330 0 -505 181t-175 508.5z" />
<glyph unicode="H" horiz-adv-x="1593" d="M61 0v131h205v1077h-205v131h590v-131h-205v-467h701v467h-205v131h590v-131h-205v-1077h205v-131h-590v131h205v479h-701v-479h205v-131h-590z" />
<glyph unicode="I" horiz-adv-x="681" d="M47 0v131h205v1077h-205v131h590v-131h-205v-1077h205v-131h-590z" />
<glyph unicode="J" horiz-adv-x="1024" d="M39 416h192q0 -305 215 -305q203 0 203 319v778h-198v131h542v-131h-164v-819q0 -82 -18 -150.5t-60 -129t-123 -95t-194 -34.5q-211 0 -303 111.5t-92 324.5z" />
<glyph unicode="K" horiz-adv-x="1366" d="M61 0v131h205v1077h-205v131h590v-131h-205v-489l521 489h-170v131h510v-131h-111l-532 -495l544 -582h144v-131h-543v131h168l-531 576v-576h205v-131h-590z" />
<glyph unicode="L" horiz-adv-x="1251" d="M61 0v131h205v1077h-205v131h627v-131h-242v-1077h564v322h155v-453h-1104z" />
<glyph unicode="M" horiz-adv-x="1933" d="M57 0v131h205v1077h-205v131h521l387 -1122h4l405 1122h502v-131h-205v-1077h205v-131h-569v131h184v1077h-4l-438 -1208h-164l-439 1208h-4v-1077h185v-131h-570z" />
<glyph unicode="N" horiz-adv-x="1593" d="M53 0v131h213v1077h-213v131h482l620 -1130h4v999h-205v131h586v-131h-213v-1208h-242l-647 1171h-4v-1040h205v-131h-586z" />
<glyph unicode="O" horiz-adv-x="1593" d="M117 669.5q0 327.5 175 509t504.5 181.5t505 -181.5t175.5 -509t-175.5 -508.5t-505 -181t-504.5 181t-175 508.5zM309 670q0 -246 131 -402.5t356.5 -156.5t356.5 156.5t131 402.5q0 279 -127 419t-360.5 140t-360.5 -140t-127 -419z" />
<glyph unicode="P" horiz-adv-x="1251" d="M61 0v131h205v1077h-205v131h584q92 0 165 -8t145.5 -33.5t120.5 -68.5t78 -116t30 -173t-30 -173t-78 -116t-120.5 -69.5t-145.5 -34.5t-165 -8h-199v-408h246v-131h-631zM446 670h199q78 0 130 8t106.5 32.5t82 82t27.5 147.5t-27.5 147.5t-83 82t-105.5 31.5t-130 7 h-199v-538z" />
<glyph unicode="Q" horiz-adv-x="1593" d="M117 669.5q0 327.5 175 509t504.5 181.5t505 -181.5t175.5 -508.5q0 -168 -59.5 -314.5t-184.5 -220.5v-4h328v-131h-478q-35 -2 -93 -8t-66 -6q-72 -6 -127 -6q-330 0 -505 181t-175 508.5zM309 670q0 -246 131 -402.5t356.5 -156.5t356.5 156.5t131 402.5 q0 279 -127 419t-360.5 140t-360.5 -140t-127 -419z" />
<glyph unicode="R" horiz-adv-x="1366" d="M61 0v131h205v1077h-205v131h570q82 0 137 -3t127 -13t118 -34.5t90 -62.5t64.5 -100.5t20.5 -146.5q0 -143 -80 -233.5t-223 -102.5v-4q121 -12 172 -107q18 -33 41.5 -108.5t31.5 -95.5l58 -197h155v-131h-299l-90 297q-31 104 -49 148t-56 82t-91 47.5t-152 9.5h-160 v-453h205v-131h-590zM446 715h150q68 0 101.5 1t90 8t86 23.5t61.5 45t46 75.5t14 111q0 66 -26.5 112t-60.5 68.5t-97 33.5t-102 13t-113 2h-150v-493z" />
<glyph unicode="S" d="M94 997q0 174 131 268.5t322 94.5q94 0 181 -40t128 -110h6v129h156v-442h-158q0 11 1 22q0 145 -76 225q-81 85 -238 85q-106 0 -183 -58.5t-77 -173.5q0 -80 83 -131t269 -108q113 -35 176.5 -61.5t126 -71.5t89 -109.5t26.5 -155.5q0 -178 -126 -279t-325 -101 q-240 0 -346 176h-6v-156h-156v453h160q0 -158 87 -250t239 -92q111 0 195.5 63.5t84.5 185.5q0 96 -74.5 145.5t-252.5 100.5q-88 25 -147.5 46.5t-120 54t-96.5 70.5t-57.5 94t-21.5 126z" />
<glyph unicode="T" horiz-adv-x="1366" d="M84 901v438h1196v-438h-156v307h-352v-1077h221v-131h-622v131h221v1077h-352v-307h-156z" />
<glyph unicode="U" horiz-adv-x="1478" d="M31 1208v131h577v-131h-215v-696q0 -401 350 -401q348 0 349 401v696h-201v131h555v-131h-174v-696q0 -532 -533 -532q-526 0 -526 532v696h-182z" />
<glyph unicode="V" horiz-adv-x="1478" d="M33 1208v131h520v-131h-207l402 -1026l407 1026h-207v131h500v-131h-117l-489 -1208h-205l-490 1208h-114z" />
<glyph unicode="W" horiz-adv-x="2048" d="M39 1208v131h508v-131h-211l250 -1028h4l323 1159h256l314 -1159h4l252 1028h-211v131h487v-131h-121l-297 -1208h-241l-324 1188h-4l-332 -1188h-241l-295 1208h-121z" />
<glyph unicode="X" horiz-adv-x="1478" d="M35 0v131h139l453 576l-396 501h-147v131h559v-131h-203l303 -385l304 385h-191v131h539v-131h-148l-395 -501l457 -576h133v-131h-574v131h222l-363 457l-360 -457h225v-131h-557z" />
<glyph unicode="Y" horiz-adv-x="1366" d="M31 1208v131h526v-131h-211l344 -506l354 506h-210v131h503v-131h-112l-459 -653v-424h227v-131h-635v131h228v424l-443 653h-112z" />
<glyph unicode="Z" horiz-adv-x="1251" d="M80 0v176l878 1032h-708v-280h-156v411h1055v-168l-885 -1040h750v287h155v-418h-1089z" />
<glyph unicode="[" horiz-adv-x="681" d="M182 -246v1725h318v-119h-162v-1487h162v-119h-318z" />
<glyph unicode="\" horiz-adv-x="796" d="M41 1360h156l559 -1380h-156z" />
<glyph unicode="]" horiz-adv-x="681" d="M182 -127h162v1487h-162v119h318v-1725h-318v119z" />
<glyph unicode="^" horiz-adv-x="1228" d="M111 471l432 868h143l432 -868h-157l-347 705l-346 -705h-157z" />
<glyph unicode="_" horiz-adv-x="1024" d="M0 -154h1024v-102h-1024v102z" />
<glyph unicode="`" horiz-adv-x="569" d="M14 1368h226l176 -295h-131z" />
<glyph unicode="a" d="M84 268q0 82 33 140.5t78 89t119.5 47t132 20.5t141.5 4h180v56q0 109 -55.5 153.5t-169.5 44.5q-109 0 -172.5 -33.5t-71.5 -125.5h-180q6 102 65.5 169.5t144.5 94t191 26.5q193 0 304.5 -61.5t111.5 -226.5v-535h164v-131h-332v193h-4q-29 -106 -113 -159.5 t-200 -53.5q-156 0 -261.5 71.5t-105.5 216.5zM264 268q0 -84 59.5 -120.5t147.5 -36.5q147 0 222 92t75 235h-141q-68 0 -112 -3t-111.5 -17.5t-103.5 -52.5t-36 -97z" />
<glyph unicode="b" horiz-adv-x="1251" d="M47 0v131h164v1077h-164v131h332v-575h4q39 88 131 139t193 51q215 0 337.5 -131t122.5 -356q0 -223 -120.5 -355t-339.5 -132q-104 0 -197.5 56t-126.5 154h-4v-190h-332zM379 467q0 -164 83 -260t245 -96q131 0 205.5 97t74.5 259q0 150 -74.5 253t-205.5 103 q-162 0 -245 -102t-83 -254z" />
<glyph unicode="c" horiz-adv-x="1024" d="M76 467q0 227 132 357t353 130q184 0 262 -137h4v117h131v-352h-133q-10 111 -80.5 176t-183.5 65q-143 0 -224 -102.5t-81 -254t81 -253.5t224 -102q102 0 171 51t83 151h156q-6 -162 -124 -247.5t-286 -85.5q-221 0 -353 130t-132 357z" />
<glyph unicode="d" horiz-adv-x="1251" d="M84 467q0 217 123 352t330 135q106 0 200 -51t131 -141h4v446h-165v131h333v-1208h164v-131h-332v178h-4q-37 -88 -129 -143t-202 -55q-225 0 -339 134t-114 353zM264 467q0 -150 79 -253t230 -103q145 0 222 103t77 253q0 158 -75.5 257t-223.5 99q-154 0 -231.5 -99 t-77.5 -257z" />
<glyph unicode="e" d="M98 467q0 227 134.5 357t363.5 130q236 0 342 -145t109 -389h-768q0 -309 339 -309q92 0 175.5 48t89.5 132h155q-2 -109 -73.5 -181.5t-167 -101t-201.5 -28.5q-229 0 -363.5 130t-134.5 357zM279 551h600q-8 129 -84 200.5t-211 71.5q-127 0 -216 -73.5t-89 -198.5z " />
<glyph unicode="f" horiz-adv-x="681" d="M49 803v131h182v100q0 172 78 249t264 77q14 0 156 -17v-131q-141 16 -160 17q-102 0 -136 -52.5t-34 -142.5v-100h224v-131h-224v-672h203v-131h-532v131h161v672h-182z" />
<glyph unicode="g" horiz-adv-x="1251" d="M76 487q0 209 118.5 338t329.5 129q117 0 210 -47t136 -143h2v170h332v-131h-164v-498q0 -18 1 -88q1 -35 1 -61t-1 -44q-1 -36 -5 -93.5t-15 -102.5t-30 -82q-100 -193 -430 -192q-88 0 -157.5 10t-139 37.5t-106.5 85t-35 143.5h192q0 -145 244 -145q174 0 243.5 76.5 t69.5 252.5v105h-4q-37 -96 -132 -145.5t-206 -49.5q-211 0 -332.5 130t-121.5 345zM256 487q0 -154 80 -249t231 -95q147 0 226 97.5t79 246.5q0 143 -75.5 239.5t-212.5 96.5q-164 0 -246 -87t-82 -249z" />
<glyph unicode="h" horiz-adv-x="1251" d="M80 0v131h162v1077h-162v131h330v-575h4q33 88 120 139t193 51q172 0 252 -85t80 -255v-483h162v-131h-492v131h162v449q0 119 -49 181t-166 62q-129 0 -197.5 -80.5t-68.5 -212.5v-399h161v-131h-491z" />
<glyph unicode="i" horiz-adv-x="569" d="M57 0v131h162v672h-162v131h330v-803h162v-131h-492zM195 1147v192h192v-192h-192z" />
<glyph unicode="j" horiz-adv-x="569" d="M2 -211q61 -16 125 -16q57 0 81.5 38.5t24.5 157.5v834h-172v131h340v-965q0 -184 -53 -255.5t-201 -71.5q-45 0 -145 18v129zM209 1147v192h192v-192h-192z" />
<glyph unicode="k" d="M55 0v131h162v1077h-162v131h330v-845l369 305v4h-148v131h473v-131h-135l-254 -211l297 -461h115v-131h-430v131h123l-230 358l-180 -149v-209h147v-131h-477z" />
<glyph unicode="l" horiz-adv-x="569" d="M57 0v131h162v1077h-162v131h330v-1208h162v-131h-492z" />
<glyph unicode="m" horiz-adv-x="1820" d="M59 0v131h162v672h-162v131h330v-166h4q29 88 109 137t186 49q219 0 301 -186q39 88 119 137t178 49q162 0 249 -83t87 -242v-498h162v-131h-492v131h162v393q0 53 -2 87t-13.5 79t-30.5 70.5t-59 44t-96 18.5q-127 0 -187 -84t-60 -215v-393h161v-131h-491v131h162v393 q1 29 0 54q0 37 -1 63q-3 43 -20.5 90t-60.5 69.5t-115 22.5q-127 0 -189.5 -89t-62.5 -220v-383h162v-131h-492z" />
<glyph unicode="n" horiz-adv-x="1251" d="M80 0v131h162v672h-162v131h330v-170h4q33 88 120 139t193 51q172 0 252 -85t80 -255v-483h162v-131h-492v131h162v449q0 119 -49 181t-166 62q-129 0 -197.5 -80.5t-68.5 -212.5v-399h161v-131h-491z" />
<glyph unicode="o" d="M76 467q0 227 134 357t363 130q227 0 358.5 -130t131.5 -357t-131 -357t-359 -130q-229 0 -363 130t-134 357zM256 467q0 -154 83 -255t234.5 -101t230.5 101t79 255t-79 255t-230.5 101t-234.5 -101t-83 -255z" />
<glyph unicode="p" horiz-adv-x="1251" d="M47 -207h164v1010h-164v131h332v-186h4q37 92 124 149t200 57q215 0 337.5 -131t122.5 -356q0 -223 -120.5 -355t-339.5 -132q-231 0 -324 200h-4v-387h164v-131h-496v131zM379 467q0 -164 83 -260t245 -96q131 0 205.5 97t74.5 259q0 150 -74.5 253t-205.5 103 q-162 0 -245 -102t-83 -254z" />
<glyph unicode="q" horiz-adv-x="1251" d="M84 453q0 227 113.5 364t334.5 137q109 0 205.5 -57t130.5 -149h4v186h332v-131h-164v-1010h164v-131h-493v131h161v365h-4q-102 -178 -348 -178q-197 0 -316.5 137t-119.5 336zM264 453q0 -152 80 -247t227 -95q145 0 223 101t78 250.5t-77.5 255t-223.5 105.5 q-160 0 -233.5 -102t-73.5 -268z" />
<glyph unicode="r" horiz-adv-x="796" d="M72 0v131h161v672h-161v131h329v-191h5q20 102 98 156.5t188 54.5q31 0 76 -4v-137q-68 10 -100 10q-266 0 -267 -438v-254h193v-131h-522z" />
<glyph unicode="s" horiz-adv-x="1024" d="M111 0v326h131q2 -123 96 -174q72 -41 209 -41q70 0 131 37.5t61 107.5q0 27 -7 47.5t-23.5 33.5t-30.5 22.5t-42 15.5t-43 9t-48 6t-45 5q-190 33 -252 62q-129 61 -129 205q0 139 109.5 215.5t252.5 76.5q213 0 285 -133h4v113h131v-307h-131q0 113 -76 159 q-57 37 -180 37q-92 0 -159.5 -32.5t-67.5 -112.5q0 -31 15 -52.5t51 -33.5t61.5 -18.5t80 -14.5t72.5 -12q61 -10 86 -15.5t78 -19.5t76.5 -30.5t55.5 -44t44.5 -66.5t12.5 -90q0 -152 -115 -226.5t-275 -74.5q-92 0 -173 37.5t-111 111.5h-4v-129h-131z" />
<glyph unicode="t" horiz-adv-x="796" d="M37 803v131h182v205l168 57v-262h305v-131h-305v-545q0 -147 102 -147q47 0 72 30.5t30 62.5t5 83h143q0 -152 -64.5 -229.5t-209.5 -77.5q-70 0 -117 19t-72.5 48t-38 81t-15.5 93t-3 111v471h-182z" />
<glyph unicode="u" horiz-adv-x="1251" d="M43 803v131h330v-580q0 -121 48 -182t167 -61q131 0 198.5 79.5t67.5 212.5v400h-162v131h330v-803h162v-131h-330v162h-4q-27 -84 -114 -133t-191 -49q-176 0 -258 86t-82 253v484h-162z" />
<glyph unicode="v" d="M27 803v131h458v-131h-170l254 -647l267 647h-170v131h444v-131h-115l-329 -803h-205l-320 803h-114z" />
<glyph unicode="w" horiz-adv-x="1820" d="M31 803v131h485v-131h-184l209 -647h4l260 778h231l252 -778h4l217 647h-184v131h463v-131h-123l-276 -803h-218l-258 780h-4l-268 -780h-217l-270 803h-123z" />
<glyph unicode="x" d="M31 0v131h106l328 346l-313 326h-103v131h453v-131h-137l219 -240l229 240h-156v131h437v-131h-103l-309 -326l322 -346h104v-131h-471v131h154l-234 256l-242 -256h168v-131h-452z" />
<glyph unicode="y" d="M35 803v131h467v-131h-180l268 -627l264 627h-180v131h440v-131h-102l-383 -891q-27 -63 -40.5 -91t-41 -71t-54 -61.5t-69.5 -32.5t-98 -14q-43 0 -129 12v127q8 0 42.5 -4t55.5 -4q41 0 69.5 12t48 37.5t31 49.5t27.5 63.5t29 64.5l-363 803h-102z" />
<glyph unicode="z" horiz-adv-x="1024" d="M100 0v131l613 672h-453v-182h-143v313h801v-131l-619 -672h485v203h144v-334h-828z" />
<glyph unicode="{" horiz-adv-x="681" d="M115 551v131q72 0 118 71.5t46 184.5v276q0 119 63.5 192t146.5 73h138v-131h-101q-92 0 -92 -170v-273q0 -131 -60.5 -202.5t-111.5 -84.5v-4q20 -6 45 -22.5t55.5 -48t51 -90t20.5 -131.5v-267q-4 -170 92 -170h101v-131h-138q-84 0 -147 73t-63 191v271 q0 113 -46 187.5t-118 74.5z" />
<glyph unicode="|" horiz-adv-x="454" d="M150 -512v2048h155v-2048h-155z" />
<glyph unicode="}" horiz-adv-x="681" d="M55 -115h101q92 0 92 170v273q0 131 60.5 202.5t111.5 83.5v4q-20 6 -45 22.5t-55.5 48.5t-51 90.5t-20.5 131.5v267q4 170 -92 170h-101v131h138q84 0 147 -73t63 -192v-270q0 -113 46.5 -187.5t117.5 -74.5v-131q-72 0 -118 -71.5t-46 -184.5v-277q0 -119 -63.5 -191.5 t-146.5 -72.5h-138v131z" />
<glyph unicode="~" horiz-adv-x="1228" d="M141 483q92 176 248 176q86 0 197 -49l84 -37l45 -22q37 -18 62.5 -26.5t56.5 -8.5q39 0 74.5 26.5t54 51t51.5 74.5l73 -115q-41 -55 -67.5 -86t-77.5 -60.5t-108 -29.5q-80 0 -166 43l-99 51q-82 45 -180 45q-106 0 -174 -147z" />
<glyph unicode="&#xa1;" horiz-adv-x="796" d="M295 -338l35 1020h135l35 -1020h-205zM301 809v192h193v-192h-193z" />
<glyph unicode="&#xa2;" d="M139 471q0 201 110.5 335t305.5 148v156h107v-156q160 -25 223 -145h4v125h131v-352h-133q-8 100 -68.5 165.5t-156.5 75.5v-710q88 6 146 58t69 142h155q-6 -150 -109.5 -235.5t-260.5 -95.5v-156h-107v160q-195 20 -305.5 150t-110.5 335zM319 471q0 -135 60.5 -230.5 t175.5 -119.5v696q-115 -23 -175.5 -117t-60.5 -229z" />
<glyph unicode="&#xa3;" d="M63 657v131h179v123q0 219 95 334t314 115q180 0 268.5 -75t100.5 -253h-168q0 96 -53.5 146.5t-147.5 50.5q-242 0 -241 -287v-154h258v-131h-258v-526h440v209h156v-340h-934v131h170v526h-179z" />
<glyph unicode="&#xa4;" d="M53 248l115 114q-106 133 -107 308q0 176 107 309l-115 115l94 94l115 -115q137 104 307 105q172 0 305 -105l119 115l94 -94l-116 -115q106 -133 106 -309q0 -172 -104 -305l114 -113l-94 -94l-114 112q-131 -109 -310 -108q-174 0 -307 106l-115 -114zM217 669.5 q0 -161.5 101.5 -263t251 -101.5t251 101.5t101.5 263t-101.5 263t-251 101.5t-251 -101.5t-101.5 -263z" />
<glyph unicode="&#xa5;" d="M-18 1208v131h438v-131h-152l307 -499l318 499h-156v131h420v-131h-108l-328 -522h276v-106h-342l-14 -23v-135h356v-107h-356v-184h205v-131h-565v131h204v184h-356v107h356v135l-14 23h-342v106h279l-318 522h-108z" />
<glyph unicode="&#xa6;" horiz-adv-x="454" d="M150 358h155v-716h-155v716zM150 666v716h155v-716h-155z" />
<glyph unicode="&#xa7;" d="M156 602q0 78 51 140.5t133 80.5v4q-168 61 -168 246q0 137 118 212t265 75q209 0 305 -68.5t96 -273.5h-192q0 117 -47 164t-158 47q-82 0 -144.5 -36t-62.5 -120q0 -63 55.5 -102t161.5 -78l162 -57q119 -45 185.5 -105.5t66.5 -161.5q0 -86 -46 -150.5t-128 -90.5v-4 q162 -53 162 -244q0 -154 -116 -230.5t-280 -76.5q-193 0 -305 79.5t-110 264.5h192q0 -119 53.5 -166t169.5 -47q86 0 151 43t65 133q0 33 -15.5 60.5t-38 45t-64.5 36t-77 29.5t-95.5 30.5t-103.5 33.5q-121 41 -181 101.5t-60 185.5zM336 602q0 -41 18.5 -67.5t39 -37 t63.5 -26.5l250 -88q41 23 68.5 61.5t27.5 83.5t-23.5 77t-41 41t-70.5 32l-13 6l-219 82q-43 -23 -71.5 -68t-28.5 -96z" />
<glyph unicode="&#xa8;" horiz-adv-x="569" d="M-6 1153v205h192v-205h-192zM383 1153v205h192v-205h-192z" />
<glyph unicode="&#xa9;" horiz-adv-x="1638" d="M129 669.5q0 284.5 201.5 487.5t488.5 203t488.5 -203t201.5 -487.5t-201.5 -487t-488.5 -202.5t-488.5 202.5t-201.5 487zM272 670q0 -248 153 -410t394.5 -162t394 162t152.5 410t-152.5 409.5t-394 161.5t-394.5 -161.5t-153 -409.5zM428 672q0 188 110.5 307 t297.5 119q137 0 234 -76t116 -213h-125q-16 76 -76.5 123t-146.5 47q-125 0 -196 -86t-71 -219q0 -129 74 -220.5t197 -91.5q88 0 147.5 49.5t71.5 129.5h127q-27 -137 -121 -217t-225 -80q-184 0 -299 122t-115 306z" />
<glyph unicode="&#xaa;" horiz-adv-x="739" d="M61 958q0 188 332 189q25 0 59.5 -5t49.5 -5v34q0 98 -142 99q-147 0 -155 -78h-119q4 88 78 128t182 40q127 0 201 -36t74 -134v-305h100v-90h-219v118h-4q-14 -63 -67.5 -97t-129.5 -34q-100 0 -170 44t-70 132zM180 958q0 -41 40 -63.5t93 -22.5q188 8 189 183 q-12 0 -40 1t-42 1q-47 0 -76 -2t-73 -10.5t-67.5 -30t-23.5 -56.5z" />
<glyph unicode="&#xab;" d="M223 471l168 406h156l-166 -406l160 -405h-150zM592 471l168 406h155l-165 -406l159 -405h-149z" />
<glyph unicode="&#xac;" horiz-adv-x="1228" d="M96 649v156h1037v-586h-156v430h-881z" />
<glyph unicode="&#xad;" horiz-adv-x="681" d="M98 473v156h486v-156h-486z" />
<glyph unicode="&#xae;" horiz-adv-x="1638" d="M129 669.5q0 284.5 201.5 487.5t488.5 203t488.5 -203t201.5 -487.5t-201.5 -487t-488.5 -202.5t-488.5 202.5t-201.5 487zM272 670q0 -248 153 -410t394.5 -162t394 162t152.5 410t-152.5 409.5t-394 161.5t-394.5 -161.5t-153 -409.5zM551 266v805h305q147 0 215 -55 t68 -174q0 -111 -49.5 -160t-157.5 -66l229 -350h-137l-215 346h-139v-346h-119zM670 719h147q104 0 153.5 23.5t49.5 107.5q0 123 -182 115h-168v-246z" />
<glyph unicode="&#xaf;" horiz-adv-x="569" d="M0 1165v131h569v-131h-569z" />
<glyph unicode="&#xb0;" horiz-adv-x="819" d="M106 1057q0 131 86.5 217t217.5 86t217 -86t86 -217t-86 -217t-217 -86t-217.5 86t-86.5 217zM213 1057q0 -82 57.5 -139.5t139.5 -57.5t139 57.5t57 139.5t-57 139t-139 57t-139.5 -57t-57.5 -139z" />
<glyph unicode="&#xb1;" horiz-adv-x="1228" d="M96 0v156h1037v-156h-1037zM96 553v156h441v327h155v-327h441v-156h-441v-328h-155v328h-441z" />
<glyph unicode="&#xb2;" horiz-adv-x="739" d="M76 543v129q16 14 149 119.5t208 185.5t75 137q0 63 -33 101t-96 38q-74 0 -115 -44t-43 -111h-131q2 127 80 194.5t209 67.5q119 0 196.5 -60.5t75.5 -185.5q4 -84 -79 -173t-209.5 -179t-149.5 -113h346v105h107v-211h-590z" />
<glyph unicode="&#xb3;" horiz-adv-x="739" d="M80 803h131q6 -166 162 -166q63 0 104 38t41 93q0 139 -192 133v107q182 0 182 129q0 49 -34 82.5t-101 33.5q-143 0 -154 -153h-131q-2 123 79 191.5t206 68.5q119 0 198.5 -52.5t79.5 -162.5q0 -80 -54 -130t-146 -59v-4q92 -2 151.5 -51t59.5 -141q0 -113 -79 -171.5 t-210 -58.5q-293 1 -293 273z" />
<glyph unicode="&#xb4;" horiz-adv-x="569" d="M154 1073l176 295h225l-270 -295h-131z" />
<glyph unicode="&#xb5;" horiz-adv-x="1251" d="M43 803v131h330v-580q0 -121 48 -182t167 -61q131 0 198.5 79.5t67.5 212.5v400h-162v131h330v-803h162v-131h-330v162h-4q-27 -84 -114 -133t-191 -49q-109 0 -172 34v-352h-168v1141h-162z" />
<glyph unicode="&#xb6;" horiz-adv-x="1228" d="M57 950q0 197 125 293t348 96h512v-1585h-155v1454h-238v-1454h-155v819q-193 0 -315 107.5t-122 269.5z" />
<glyph unicode="&#xb7;" horiz-adv-x="569" d="M145 536.5q0 57.5 42 98.5t98 41q57 0 98 -41t41 -98.5t-41 -98.5t-98 -41q-55 0 -97.5 41t-42.5 98.5z" />
<glyph unicode="&#xb8;" horiz-adv-x="569" d="M57 -399l39 71q88 -33 146 -32q47 0 74.5 24.5t27.5 65.5q0 35 -25.5 57.5t-58.5 22.5q-25 0 -96 -15l-33 35l129 170h90l-88 -123q61 10 84 10q70 0 112 -37.5t42 -109.5q0 -80 -72 -129t-156 -49q-104 0 -215 39z" />
<glyph unicode="&#xb9;" horiz-adv-x="739" d="M111 1083v113q74 49 204 152h127v-699h125v-106h-389v106h133v580q-18 -18 -44.5 -39t-47 -34t-55.5 -37t-53 -36z" />
<glyph unicode="&#xba;" horiz-adv-x="739" d="M49 1075q0 125 89 205t234.5 80t231.5 -79t86 -206q0 -137 -85 -215t-232 -78q-150 0 -237 78t-87 215zM180 1075q0 -84 51.5 -143.5t141.5 -59.5q88 0 137 59.5t49 143.5q0 82 -49 138.5t-139 56.5q-88 0 -139.5 -57.5t-51.5 -137.5z" />
<glyph unicode="&#xbb;" d="M223 66l166 405l-160 406h150l168 -406l-168 -405h-156zM592 66l166 405l-160 406h150l167 -406l-167 -405h-156z" />
<glyph unicode="&#xbc;" horiz-adv-x="1708" d="M121 1083v113q74 49 205 152h127v-699h125v-106h-390v106h134v580q-18 -18 -45 -39t-47.5 -34t-55.5 -37t-53 -36zM356 -37l834 1413h123l-834 -1413h-123zM887 203v129l373 473h149v-496h125v-106h-125v-97h125v-106h-379v106h123v97h-391zM977 309h301v375h-4z" />
<glyph unicode="&#xbd;" horiz-adv-x="1708" d="M76 1083v113q74 49 205 152h127v-699h124v-106h-389v106h133v580q-18 -18 -44.5 -39t-47 -34t-55.5 -37t-53 -36zM315 -37l834 1413h123l-834 -1413h-123zM1010 0v129q16 14 149 119.5t208 185.5t75 137q0 63 -33 101.5t-96 38.5q-74 0 -115 -44t-43 -112h-131 q2 127 80 194.5t209 67.5q119 0 196.5 -60.5t75.5 -185.5q4 -84 -79 -173t-210 -179t-149 -113h346v105h106v-211h-589z" />
<glyph unicode="&#xbe;" horiz-adv-x="1708" d="M72 803h131q6 -166 162 -166q63 0 104 38t41 93q0 139 -193 133v107q182 0 183 129q0 49 -34 82.5t-101 33.5q-143 0 -154 -153h-131q-2 123 79 191.5t206 68.5q119 0 198.5 -52.5t79.5 -162.5q0 -80 -54 -130t-147 -59v-4q92 -2 151.5 -51t59.5 -141 q0 -113 -78.5 -171.5t-209.5 -58.5q-293 1 -293 273zM371 -37l833 1413h123l-833 -1413h-123zM891 203v129l373 473h149v-496h125v-106h-125v-97h125v-106h-379v106h123v97h-391zM981 309h301v375h-4z" />
<glyph unicode="&#xbf;" horiz-adv-x="1024" d="M98 -31q0 55 12.5 104.5t23.5 79t48 73.5t51.5 58.5t73 65.5t72.5 66q68 61 85 113.5t17 152.5h183q0 -111 -27 -184.5t-64.5 -116.5t-119.5 -117q-18 -16 -29 -24q-70 -61 -101.5 -113.5t-31.5 -130.5q0 -100 60.5 -155.5t169 -55.5t170 60.5t65.5 164.5h192 q-6 -174 -132 -271t-310 -97q-174 0 -291 82.5t-117 244.5zM475 809v192h193v-192h-193z" />
<glyph unicode="&#xc0;" horiz-adv-x="1593" d="M31 0v131h147l514 1208h215l508 -1208h148v-131h-551v131h205l-130 311h-600l-133 -317h209v-125h-532zM526 1729h226l176 -295h-131zM543 573h491l-243 592z" />
<glyph unicode="&#xc1;" horiz-adv-x="1593" d="M31 0v131h147l514 1208h215l508 -1208h148v-131h-551v131h205l-130 311h-600l-133 -317h209v-125h-532zM543 573h491l-243 592zM666 1434l176 295h225l-270 -295h-131z" />
<glyph unicode="&#xc2;" horiz-adv-x="1593" d="M31 0v131h147l514 1208h215l508 -1208h148v-131h-551v131h205l-130 311h-600l-133 -317h209v-125h-532zM487 1434l213 295h195l211 -295h-160l-141 188l-139 -188h-179zM543 573h491l-243 592z" />
<glyph unicode="&#xc3;" horiz-adv-x="1593" d="M31 0v131h147l514 1208h215l508 -1208h148v-131h-551v131h205l-130 311h-600l-133 -317h209v-125h-532zM463 1491q14 90 69.5 155.5t141.5 65.5q59 0 131 -29l63 -24q66 -27 105 -27q37 0 59.5 29t28.5 68h106q-8 -92 -65.5 -158t-134.5 -66q-47 0 -136 31l-59 20 q-82 29 -106 29q-76 0 -99 -94h-104zM543 573h491l-243 592z" />
<glyph unicode="&#xc4;" horiz-adv-x="1593" d="M31 0v131h147l514 1208h215l508 -1208h148v-131h-551v131h205l-130 311h-600l-133 -317h209v-125h-532zM506 1513v205h192v-205h-192zM543 573h491l-243 592zM895 1513v205h192v-205h-192z" />
<glyph unicode="&#xc5;" horiz-adv-x="1593" d="M31 0v131h147l514 1208h215l508 -1208h148v-131h-551v131h205l-130 311h-600l-133 -317h209v-125h-532zM543 573h491l-243 592zM588 1595q0 86 60.5 147.5t148.5 61.5q86 0 147.5 -61.5t61.5 -147.5q0 -88 -61.5 -148.5t-147.5 -60.5q-88 0 -148.5 60.5t-60.5 148.5z M678 1595q0 -49 36 -83.5t83 -34.5t82.5 34.5t35.5 84t-35.5 82t-82.5 36.5q-49 0 -85 -36t-34 -83z" />
<glyph unicode="&#xc6;" horiz-adv-x="2048" d="M27 0v131h84l731 1208h1083v-405h-156v274h-643l70 -467h266v193h156v-516h-156v192h-248l72 -479h483v287h156v-418h-1018v131h203l-47 311h-584l-190 -311h207v-131h-469zM559 573h485l-94 635h-4z" />
<glyph unicode="&#xc7;" horiz-adv-x="1478" d="M117 670q0 328 175 509t505 181q106 0 227 -48t172 -138h4v165h156v-479h-156q-16 180 -120.5 274.5t-282.5 94.5q-233 0 -360.5 -140.5t-127.5 -418.5q0 -250 126 -404.5t362 -154.5q156 0 264 93t108 251h193q0 -240 -161 -357.5t-404 -117.5h-6l-74 -103q61 10 84 10 q70 0 111.5 -37.5t41.5 -109.5q0 -80 -71.5 -129t-155.5 -49q-104 0 -215 39l39 71q88 -33 145 -32q47 0 75 24.5t28 65.5q0 35 -25.5 57.5t-58.5 22.5q-25 0 -97 -15l-32 35l116 154q-285 27 -435 206t-150 480z" />
<glyph unicode="&#xc8;" horiz-adv-x="1366" d="M82 0v131h205v1077h-205v131h1167v-405h-155v274h-627v-467h299v193h156v-516h-156v192h-299v-479h627v287h155v-418h-1167zM414 1729h225l176 -295h-131z" />
<glyph unicode="&#xc9;" horiz-adv-x="1366" d="M82 0v131h205v1077h-205v131h1167v-405h-155v274h-627v-467h299v193h156v-516h-156v192h-299v-479h627v287h155v-418h-1167zM553 1434l176 295h225l-270 -295h-131z" />
<glyph unicode="&#xca;" horiz-adv-x="1366" d="M82 0v131h205v1077h-205v131h1167v-405h-155v274h-627v-467h299v193h156v-516h-156v192h-299v-479h627v287h155v-418h-1167zM375 1434l213 295h194l211 -295h-159l-142 188l-139 -188h-178z" />
<glyph unicode="&#xcb;" horiz-adv-x="1366" d="M82 0v131h205v1077h-205v131h1167v-405h-155v274h-627v-467h299v193h156v-516h-156v192h-299v-479h627v287h155v-418h-1167zM393 1513v205h193v-205h-193zM782 1513v205h193v-205h-193z" />
<glyph unicode="&#xcc;" horiz-adv-x="681" d="M47 0v131h205v1077h-205v131h590v-131h-205v-1077h205v-131h-590zM72 1729h225l176 -295h-131z" />
<glyph unicode="&#xcd;" horiz-adv-x="681" d="M47 0v131h205v1077h-205v131h590v-131h-205v-1077h205v-131h-590zM211 1434l176 295h225l-270 -295h-131z" />
<glyph unicode="&#xce;" horiz-adv-x="681" d="M33 1434l213 295h194l211 -295h-159l-142 188l-139 -188h-178zM47 0v131h205v1077h-205v131h590v-131h-205v-1077h205v-131h-590z" />
<glyph unicode="&#xcf;" horiz-adv-x="681" d="M47 0v131h205v1077h-205v131h590v-131h-205v-1077h205v-131h-590zM51 1513v205h193v-205h-193zM440 1513v205h193v-205h-193z" />
<glyph unicode="&#xd0;" horiz-adv-x="1478" d="M61 0v131h205v502h-205v131h205v444h-205v131h494q158 0 275.5 -15t226 -59t177.5 -117t109.5 -192.5t40.5 -283.5t-40.5 -284t-109.5 -193.5t-177.5 -117.5t-227 -60.5t-274.5 -16.5h-494zM446 131h109q152 0 261.5 23.5t197.5 82t133 167t45 266t-45 266t-133 167 t-197.5 82t-261.5 23.5h-109v-444h353v-131h-353v-502z" />
<glyph unicode="&#xd1;" horiz-adv-x="1593" d="M53 0v131h213v1077h-213v131h482l620 -1130h4v999h-205v131h586v-131h-213v-1208h-242l-647 1171h-4v-1040h205v-131h-586zM463 1491q14 90 69.5 155.5t141.5 65.5q59 0 131 -29l63 -24q66 -27 105 -27q37 0 59.5 29t28.5 68h106q-8 -92 -65.5 -158t-134.5 -66 q-47 0 -136 31l-59 20q-82 29 -106 29q-76 0 -99 -94h-104z" />
<glyph unicode="&#xd2;" horiz-adv-x="1593" d="M117 669.5q0 327.5 175 509t504.5 181.5t505 -181.5t175.5 -509t-175.5 -508.5t-505 -181t-504.5 181t-175 508.5zM309 670q0 -246 131 -402.5t356.5 -156.5t356.5 156.5t131 402.5q0 279 -127 419t-360.5 140t-360.5 -140t-127 -419zM526 1729h226l176 -295h-131z" />
<glyph unicode="&#xd3;" horiz-adv-x="1593" d="M117 669.5q0 327.5 175 509t504.5 181.5t505 -181.5t175.5 -509t-175.5 -508.5t-505 -181t-504.5 181t-175 508.5zM309 670q0 -246 131 -402.5t356.5 -156.5t356.5 156.5t131 402.5q0 279 -127 419t-360.5 140t-360.5 -140t-127 -419zM666 1434l176 295h225l-270 -295 h-131z" />
<glyph unicode="&#xd4;" horiz-adv-x="1593" d="M117 669.5q0 327.5 175 509t504.5 181.5t505 -181.5t175.5 -509t-175.5 -508.5t-505 -181t-504.5 181t-175 508.5zM309 670q0 -246 131 -402.5t356.5 -156.5t356.5 156.5t131 402.5q0 279 -127 419t-360.5 140t-360.5 -140t-127 -419zM487 1434l213 295h195l211 -295 h-160l-141 188l-139 -188h-179z" />
<glyph unicode="&#xd5;" horiz-adv-x="1593" d="M117 669.5q0 327.5 175 509t504.5 181.5t505 -181.5t175.5 -509t-175.5 -508.5t-505 -181t-504.5 181t-175 508.5zM309 670q0 -246 131 -402.5t356.5 -156.5t356.5 156.5t131 402.5q0 279 -127 419t-360.5 140t-360.5 -140t-127 -419zM463 1491q14 90 69.5 155.5 t141.5 65.5q59 0 131 -29l63 -24q66 -27 105 -27q37 0 59.5 29t28.5 68h106q-8 -92 -65.5 -158t-134.5 -66q-47 0 -136 31l-59 20q-82 29 -106 29q-76 0 -99 -94h-104z" />
<glyph unicode="&#xd6;" horiz-adv-x="1593" d="M117 669.5q0 327.5 175 509t504.5 181.5t505 -181.5t175.5 -509t-175.5 -508.5t-505 -181t-504.5 181t-175 508.5zM309 670q0 -246 131 -402.5t356.5 -156.5t356.5 156.5t131 402.5q0 279 -127 419t-360.5 140t-360.5 -140t-127 -419zM506 1513v205h192v-205h-192z M895 1513v205h192v-205h-192z" />
<glyph unicode="&#xd7;" horiz-adv-x="1228" d="M145 154l365 364l-365 365l105 104l362 -364l367 364l104 -104l-366 -365l366 -364l-104 -105l-367 367l-362 -367z" />
<glyph unicode="&#xd8;" horiz-adv-x="1593" d="M117 670q0 328 175 509t505 181q272 0 436 -123l143 164l76 -62l-145 -168q170 -172 170 -501q0 -328 -175.5 -509t-504.5 -181q-266 0 -428 118l-140 -159l-75 61l141 162q-178 182 -178 508zM309 670q0 -223 105 -373l714 821q-121 111 -331 111q-233 0 -360.5 -140 t-127.5 -419zM477 223q123 -113 320 -112q236 0 361.5 154.5t125.5 404.5q0 240 -90 372z" />
<glyph unicode="&#xd9;" horiz-adv-x="1478" d="M31 1208v131h577v-131h-215v-696q0 -401 350 -401q348 0 349 401v696h-201v131h555v-131h-174v-696q0 -532 -533 -532q-526 0 -526 532v696h-182zM469 1729h225l176 -295h-131z" />
<glyph unicode="&#xda;" horiz-adv-x="1478" d="M31 1208v131h577v-131h-215v-696q0 -401 350 -401q348 0 349 401v696h-201v131h555v-131h-174v-696q0 -532 -533 -532q-526 0 -526 532v696h-182zM608 1434l176 295h226l-271 -295h-131z" />
<glyph unicode="&#xdb;" horiz-adv-x="1478" d="M31 1208v131h577v-131h-215v-696q0 -401 350 -401q348 0 349 401v696h-201v131h555v-131h-174v-696q0 -532 -533 -532q-526 0 -526 532v696h-182zM430 1434l213 295h195l211 -295h-160l-141 188l-140 -188h-178z" />
<glyph unicode="&#xdc;" horiz-adv-x="1478" d="M31 1208v131h577v-131h-215v-696q0 -401 350 -401q348 0 349 401v696h-201v131h555v-131h-174v-696q0 -532 -533 -532q-526 0 -526 532v696h-182zM449 1513v205h192v-205h-192zM838 1513v205h192v-205h-192z" />
<glyph unicode="&#xdd;" horiz-adv-x="1366" d="M31 1208v131h526v-131h-211l344 -506l354 506h-210v131h503v-131h-112l-459 -653v-424h227v-131h-635v131h228v424l-443 653h-112zM553 1434l176 295h225l-270 -295h-131z" />
<glyph unicode="&#xde;" horiz-adv-x="1251" d="M61 0v131h205v1077h-205v131h627v-131h-242v-135h199q92 0 165 -8t145.5 -33.5t120.5 -68.5t78 -116t30 -173.5t-30 -173t-78 -115.5t-120.5 -69.5t-145.5 -35t-165 -8.5h-199v-141h242v-131h-627zM446 403h199q78 0 130 8.5t106.5 33t82 82t27.5 147.5t-27.5 147.5 t-83 82t-105.5 31.5t-130 7h-199v-539z" />
<glyph unicode="&#xdf;" d="M35 0v131h162v795q0 434 405 434q410 0 410 -336q0 -137 -82 -210t-221 -79v-4q162 -12 257 -100t95 -240q0 -225 -115 -308t-352 -83v131q150 0 218.5 57.5t68.5 202.5q0 137 -81 202.5t-220 65.5v132q117 0 184 57t67 176q0 98 -59 151.5t-158 53.5q-139 0 -194 -79 t-55 -224v-795h100v-131h-430z" />
<glyph unicode="&#xe0;" d="M84 268q0 82 33 140.5t78 89t119.5 47t132 20.5t141.5 4h180v56q0 109 -55.5 153.5t-169.5 44.5q-109 0 -172.5 -33.5t-71.5 -125.5h-180q6 102 65.5 169.5t144.5 94t191 26.5q193 0 304.5 -61.5t111.5 -226.5v-535h164v-131h-332v193h-4q-29 -106 -113 -159.5 t-200 -53.5q-156 0 -261.5 71.5t-105.5 216.5zM264 268q0 -84 59.5 -120.5t147.5 -36.5q147 0 222 92t75 235h-141q-68 0 -112 -3t-111.5 -17.5t-103.5 -52.5t-36 -97zM299 1368h225l176 -295h-131z" />
<glyph unicode="&#xe1;" d="M84 268q0 82 33 140.5t78 89t119.5 47t132 20.5t141.5 4h180v56q0 109 -55.5 153.5t-169.5 44.5q-109 0 -172.5 -33.5t-71.5 -125.5h-180q6 102 65.5 169.5t144.5 94t191 26.5q193 0 304.5 -61.5t111.5 -226.5v-535h164v-131h-332v193h-4q-29 -106 -113 -159.5 t-200 -53.5q-156 0 -261.5 71.5t-105.5 216.5zM264 268q0 -84 59.5 -120.5t147.5 -36.5q147 0 222 92t75 235h-141q-68 0 -112 -3t-111.5 -17.5t-103.5 -52.5t-36 -97zM438 1073l176 295h226l-271 -295h-131z" />
<glyph unicode="&#xe2;" d="M84 268q0 82 33 140.5t78 89t119.5 47t132 20.5t141.5 4h180v56q0 109 -55.5 153.5t-169.5 44.5q-109 0 -172.5 -33.5t-71.5 -125.5h-180q6 102 65.5 169.5t144.5 94t191 26.5q193 0 304.5 -61.5t111.5 -226.5v-535h164v-131h-332v193h-4q-29 -106 -113 -159.5 t-200 -53.5q-156 0 -261.5 71.5t-105.5 216.5zM260 1073l213 295h195l211 -295h-160l-141 189l-140 -189h-178zM264 268q0 -84 59.5 -120.5t147.5 -36.5q147 0 222 92t75 235h-141q-68 0 -112 -3t-111.5 -17.5t-103.5 -52.5t-36 -97z" />
<glyph unicode="&#xe3;" d="M84 268q0 82 33 140.5t78 89t119.5 47t132 20.5t141.5 4h180v56q0 109 -55.5 153.5t-169.5 44.5q-109 0 -172.5 -33.5t-71.5 -125.5h-180q6 102 65.5 169.5t144.5 94t191 26.5q193 0 304.5 -61.5t111.5 -226.5v-535h164v-131h-332v193h-4q-29 -106 -113 -159.5 t-200 -53.5q-156 0 -261.5 71.5t-105.5 216.5zM236 1130q14 90 69 156t141 66q59 0 132 -29l63 -25q66 -27 104 -26q37 0 59.5 28.5t29.5 67.5h106q-8 -92 -65.5 -157.5t-135.5 -65.5q-47 0 -135 31l-59 20q-82 29 -107 29q-74 0 -98 -95h-104zM264 268q0 -84 59.5 -120.5 t147.5 -36.5q147 0 222 92t75 235h-141q-68 0 -112 -3t-111.5 -17.5t-103.5 -52.5t-36 -97z" />
<glyph unicode="&#xe4;" d="M84 268q0 82 33 140.5t78 89t119.5 47t132 20.5t141.5 4h180v56q0 109 -55.5 153.5t-169.5 44.5q-109 0 -172.5 -33.5t-71.5 -125.5h-180q6 102 65.5 169.5t144.5 94t191 26.5q193 0 304.5 -61.5t111.5 -226.5v-535h164v-131h-332v193h-4q-29 -106 -113 -159.5 t-200 -53.5q-156 0 -261.5 71.5t-105.5 216.5zM264 268q0 -84 59.5 -120.5t147.5 -36.5q147 0 222 92t75 235h-141q-68 0 -112 -3t-111.5 -17.5t-103.5 -52.5t-36 -97zM279 1153v205h192v-205h-192zM668 1153v205h192v-205h-192z" />
<glyph unicode="&#xe5;" d="M84 268q0 82 33 140.5t78 89t119.5 47t132 20.5t141.5 4h180v56q0 109 -55.5 153.5t-169.5 44.5q-109 0 -172.5 -33.5t-71.5 -125.5h-180q6 102 65.5 169.5t144.5 94t191 26.5q193 0 304.5 -61.5t111.5 -226.5v-535h164v-131h-332v193h-4q-29 -106 -113 -159.5 t-200 -53.5q-156 0 -261.5 71.5t-105.5 216.5zM264 268q0 -84 59.5 -120.5t147.5 -36.5q147 0 222 92t75 235h-141q-68 0 -112 -3t-111.5 -17.5t-103.5 -52.5t-36 -97zM360 1262q0 86 60.5 147t148.5 61q86 0 147.5 -61t61.5 -147q0 -88 -61.5 -148.5t-147.5 -60.5 q-88 0 -148.5 60.5t-60.5 148.5zM451 1262q0 -49 35.5 -84t82.5 -35t83 34.5t36 84t-36 82t-83 36.5q-49 0 -84.5 -35.5t-33.5 -82.5z" />
<glyph unicode="&#xe6;" horiz-adv-x="1593" d="M74 272q0 72 25.5 124.5t65.5 81t98.5 46t111.5 22.5t121 5h217v80q0 98 -47.5 145t-161.5 47q-197 0 -213 -151h-180q6 147 118.5 214.5t262.5 67.5q129 0 209.5 -32.5t121.5 -122.5q90 156 307 155q125 0 207 -37.5t123 -114.5t55.5 -165t12.5 -217h-660 q0 -139 71 -224t210 -85q86 0 148.5 52t62.5 136h156q-6 -164 -112 -241.5t-278 -77.5q-121 0 -223 61t-131 168h-4q-33 -111 -132 -170t-220 -59q-150 0 -246 74.5t-96 217.5zM254 266q0 -156 188 -155q137 0 204 89t67 220h-215q-45 0 -70 -2t-63.5 -10.5t-59 -23.5 t-36 -45t-15.5 -73zM868 551h492q0 127 -48 199.5t-173 72.5t-197 -77.5t-74 -194.5z" />
<glyph unicode="&#xe7;" horiz-adv-x="1024" d="M76 467q0 227 132 357t353 130q184 0 262 -137h4v117h131v-352h-133q-10 111 -80.5 176t-183.5 65q-143 0 -224 -102.5t-81 -254t81 -253.5t224 -102q102 0 171 51t83 151h156q-6 -162 -123 -247.5t-285 -85.5l-74 -103q61 10 84 10q70 0 112 -37.5t42 -109.5 q0 -80 -71.5 -129t-155.5 -49q-104 0 -215 39l39 71q88 -33 145 -32q47 0 74.5 24.5t27.5 65.5q0 35 -25.5 57.5t-58.5 22.5q-25 0 -96 -15l-33 35l119 156q-186 25 -293.5 151.5t-107.5 329.5z" />
<glyph unicode="&#xe8;" d="M98 467q0 227 134.5 357t363.5 130q236 0 342 -145t109 -389h-768q0 -309 339 -309q92 0 175.5 48t89.5 132h155q-2 -109 -73.5 -181.5t-167 -101t-201.5 -28.5q-229 0 -363.5 130t-134.5 357zM279 551h600q-8 129 -84 200.5t-211 71.5q-127 0 -216 -73.5t-89 -198.5z M299 1368h225l176 -295h-131z" />
<glyph unicode="&#xe9;" d="M98 467q0 227 134.5 357t363.5 130q236 0 342 -145t109 -389h-768q0 -309 339 -309q92 0 175.5 48t89.5 132h155q-2 -109 -73.5 -181.5t-167 -101t-201.5 -28.5q-229 0 -363.5 130t-134.5 357zM279 551h600q-8 129 -84 200.5t-211 71.5q-127 0 -216 -73.5t-89 -198.5z M438 1073l176 295h226l-271 -295h-131z" />
<glyph unicode="&#xea;" d="M98 467q0 227 134.5 357t363.5 130q236 0 342 -145t109 -389h-768q0 -309 339 -309q92 0 175.5 48t89.5 132h155q-2 -109 -73.5 -181.5t-167 -101t-201.5 -28.5q-229 0 -363.5 130t-134.5 357zM260 1073l213 295h195l211 -295h-160l-141 189l-140 -189h-178zM279 551h600 q-8 129 -84 200.5t-211 71.5q-127 0 -216 -73.5t-89 -198.5z" />
<glyph unicode="&#xeb;" d="M98 467q0 227 134.5 357t363.5 130q236 0 342 -145t109 -389h-768q0 -309 339 -309q92 0 175.5 48t89.5 132h155q-2 -109 -73.5 -181.5t-167 -101t-201.5 -28.5q-229 0 -363.5 130t-134.5 357zM279 551h600q-8 129 -84 200.5t-211 71.5q-127 0 -216 -73.5t-89 -198.5z M279 1153v205h192v-205h-192zM668 1153v205h192v-205h-192z" />
<glyph unicode="&#xec;" horiz-adv-x="569" d="M14 1368h226l176 -295h-131zM57 0v131h162v672h-162v131h330v-803h162v-131h-492z" />
<glyph unicode="&#xed;" horiz-adv-x="569" d="M57 0v131h162v672h-162v131h330v-803h162v-131h-492zM154 1073l176 295h225l-270 -295h-131z" />
<glyph unicode="&#xee;" horiz-adv-x="569" d="M-25 1073l213 295h195l211 -295h-160l-141 189l-139 -189h-179zM57 0v131h162v672h-162v131h330v-803h162v-131h-492z" />
<glyph unicode="&#xef;" horiz-adv-x="569" d="M-6 1153v205h192v-205h-192zM57 0v131h162v672h-162v131h330v-803h162v-131h-492zM383 1153v205h192v-205h-192z" />
<glyph unicode="&#xf0;" d="M76 467q0 227 134 357t363 130q129 0 244 -98h4q-100 158 -276 285l-205 -103l-74 76l187 96q-41 35 -166 109l114 86q135 -78 199 -125l219 113l74 -80l-203 -103q172 -131 272.5 -303t100.5 -440q0 -217 -132 -352t-358 -135q-229 0 -363 130t-134 357zM256 467 q0 -154 83 -255t234.5 -101t230.5 98t79 258q0 166 -78 261t-232 95q-152 0 -234.5 -101t-82.5 -255z" />
<glyph unicode="&#xf1;" horiz-adv-x="1251" d="M80 0v131h162v672h-162v131h330v-170h4q33 88 120 139t193 51q172 0 252 -85t80 -255v-483h162v-131h-492v131h162v449q0 119 -49 181t-166 62q-129 0 -197.5 -80.5t-68.5 -212.5v-399h161v-131h-491zM293 1130q14 90 69.5 156t141.5 66q59 0 131 -29l63 -25 q66 -27 105 -26q37 0 59.5 28.5t28.5 67.5h106q-8 -92 -65.5 -157.5t-134.5 -65.5q-47 0 -135 31l-60 20q-82 29 -106 29q-74 0 -99 -95h-104z" />
<glyph unicode="&#xf2;" d="M76 467q0 227 134 357t363 130q227 0 358.5 -130t131.5 -357t-131 -357t-359 -130q-229 0 -363 130t-134 357zM256 467q0 -154 83 -255t234.5 -101t230.5 101t79 255t-79 255t-230.5 101t-234.5 -101t-83 -255zM299 1368h225l176 -295h-131z" />
<glyph unicode="&#xf3;" d="M76 467q0 227 134 357t363 130q227 0 358.5 -130t131.5 -357t-131 -357t-359 -130q-229 0 -363 130t-134 357zM256 467q0 -154 83 -255t234.5 -101t230.5 101t79 255t-79 255t-230.5 101t-234.5 -101t-83 -255zM438 1073l176 295h226l-271 -295h-131z" />
<glyph unicode="&#xf4;" d="M76 467q0 227 134 357t363 130q227 0 358.5 -130t131.5 -357t-131 -357t-359 -130q-229 0 -363 130t-134 357zM256 467q0 -154 83 -255t234.5 -101t230.5 101t79 255t-79 255t-230.5 101t-234.5 -101t-83 -255zM260 1073l213 295h195l211 -295h-160l-141 189l-140 -189 h-178z" />
<glyph unicode="&#xf5;" d="M76 467q0 227 134 357t363 130q227 0 358.5 -130t131.5 -357t-131 -357t-359 -130q-229 0 -363 130t-134 357zM236 1130q14 90 69 156t141 66q59 0 132 -29l63 -25q66 -27 104 -26q37 0 59.5 28.5t29.5 67.5h106q-8 -92 -65.5 -157.5t-135.5 -65.5q-47 0 -135 31l-59 20 q-82 29 -107 29q-74 0 -98 -95h-104zM256 467q0 -154 83 -255t234.5 -101t230.5 101t79 255t-79 255t-230.5 101t-234.5 -101t-83 -255z" />
<glyph unicode="&#xf6;" d="M76 467q0 227 134 357t363 130q227 0 358.5 -130t131.5 -357t-131 -357t-359 -130q-229 0 -363 130t-134 357zM256 467q0 -154 83 -255t234.5 -101t230.5 101t79 255t-79 255t-230.5 101t-234.5 -101t-83 -255zM279 1153v205h192v-205h-192zM668 1153v205h192v-205h-192z " />
<glyph unicode="&#xf7;" horiz-adv-x="1228" d="M96 440v156h1037v-156h-1037zM475 94.5q0 57.5 42 98t97 40.5q57 0 98.5 -40.5t41.5 -98.5q0 -53 -41 -96t-97 -43q-57 0 -99 41t-42 98.5zM475 942q0 57 42 98t97 41q57 0 98.5 -41t41.5 -98q0 -53 -41 -96t-97 -43q-57 0 -99 41t-42 98z" />
<glyph unicode="&#xf8;" d="M76 467q0 227 134 357t363 130q176 0 295 -77l109 122l63 -61l-104 -117q127 -131 127 -354q0 -227 -131 -357t-359 -130q-186 0 -305 83l-104 -116l-64 53l105 119q-129 123 -129 348zM256 467q0 -131 61 -221l447 512q-76 66 -191 65q-152 0 -234.5 -101t-82.5 -255z M373 180q80 -70 200 -69q152 0 231 101t79 255q0 135 -60 225z" />
<glyph unicode="&#xf9;" horiz-adv-x="1251" d="M43 803v131h330v-580q0 -121 48 -182t167 -61q131 0 198.5 79.5t67.5 212.5v400h-162v131h330v-803h162v-131h-330v162h-4q-27 -84 -114 -133t-191 -49q-176 0 -258 86t-82 253v484h-162zM326 1368h225l176 -295h-131z" />
<glyph unicode="&#xfa;" horiz-adv-x="1251" d="M43 803v131h330v-580q0 -121 48 -182t167 -61q131 0 198.5 79.5t67.5 212.5v400h-162v131h330v-803h162v-131h-330v162h-4q-27 -84 -114 -133t-191 -49q-176 0 -258 86t-82 253v484h-162zM496 1073l176 295h225l-270 -295h-131z" />
<glyph unicode="&#xfb;" horiz-adv-x="1251" d="M43 803v131h330v-580q0 -121 48 -182t167 -61q131 0 198.5 79.5t67.5 212.5v400h-162v131h330v-803h162v-131h-330v162h-4q-27 -84 -114 -133t-191 -49q-176 0 -258 86t-82 253v484h-162zM287 1073l213 295h194l211 -295h-160l-141 189l-139 -189h-178z" />
<glyph unicode="&#xfc;" horiz-adv-x="1251" d="M43 803v131h330v-580q0 -121 48 -182t167 -61q131 0 198.5 79.5t67.5 212.5v400h-162v131h330v-803h162v-131h-330v162h-4q-27 -84 -114 -133t-191 -49q-176 0 -258 86t-82 253v484h-162zM305 1153v205h193v-205h-193zM694 1153v205h193v-205h-193z" />
<glyph unicode="&#xfd;" d="M35 803v131h467v-131h-180l268 -627l264 627h-180v131h440v-131h-102l-383 -891q-27 -63 -40.5 -91t-41 -71t-54 -61.5t-69.5 -32.5t-98 -14q-43 0 -129 12v127q8 0 42.5 -4t55.5 -4q41 0 69.5 12t48 37.5t31 49.5t27.5 63.5t29 64.5l-363 803h-102zM438 1073l176 295 h226l-271 -295h-131z" />
<glyph unicode="&#xfe;" horiz-adv-x="1251" d="M47 -207h164v1415h-164v131h332v-591h4q37 94 128 150t220 56q199 0 317.5 -132t118.5 -355t-120.5 -355t-339.5 -132q-231 0 -324 200h-4v-387h164v-131h-496v131zM379 467q0 -164 83 -260t245 -96q131 0 205.5 97t74.5 259q0 150 -74.5 253t-205.5 103 q-162 0 -245 -102t-83 -254z" />
<glyph unicode="&#xff;" d="M35 803v131h467v-131h-180l268 -627l264 627h-180v131h440v-131h-102l-383 -891q-27 -63 -40.5 -91t-41 -71t-54 -61.5t-69.5 -32.5t-98 -14q-43 0 -129 12v127q8 0 42.5 -4t55.5 -4q41 0 69.5 12t48 37.5t31 49.5t27.5 63.5t29 64.5l-363 803h-102zM279 1153v205h192 v-205h-192zM668 1153v205h192v-205h-192z" />
<glyph unicode="&#x152;" horiz-adv-x="2048" d="M117 669.5q0 327.5 175 509t505 181.5q70 0 245 -14q72 -6 287 -7h578v-405h-156v274h-563v-467h250v193h155v-516h-155v192h-250v-479h571v287h156v-418h-778q-121 0 -246 -14q-43 -6 -94 -6q-330 0 -505 181t-175 508.5zM309 670q0 -246 131 -402.5t357 -156.5 q80 0 211 22v1075q-20 2 -61.5 8.5t-78.5 9.5t-71 3q-233 0 -360.5 -140t-127.5 -419z" />
<glyph unicode="&#x153;" horiz-adv-x="1705" d="M76 469q0 213 120.5 349t335.5 136q125 0 226.5 -51t132.5 -155h4q37 98 131 152t217 54q125 0 207 -40t123 -117.5t56.5 -165.5t15.5 -211h-676q0 -127 74.5 -218t201.5 -91q98 0 160.5 47t69.5 141h155q-2 -162 -106.5 -240.5t-272.5 -78.5q-127 0 -222 57t-138 164 q-59 -117 -147.5 -169t-219.5 -52q-213 0 -330.5 137t-117.5 352zM256 469q0 -96 23.5 -173t87 -131t161.5 -54q143 0 214 106.5t71 255.5q0 147 -64.5 248.5t-207.5 101.5q-285 0 -285 -354zM969 551h508q0 272 -238 272q-123 0 -194.5 -77.5t-75.5 -194.5z" />
<glyph unicode="&#x178;" horiz-adv-x="1366" d="M31 1208v131h526v-131h-211l344 -506l354 506h-210v131h503v-131h-112l-459 -653v-424h227v-131h-635v131h228v424l-443 653h-112zM393 1513v205h193v-205h-193zM782 1513v205h193v-205h-193z" />
<glyph unicode="&#x2c6;" horiz-adv-x="569" d="M-25 1073l213 295h195l211 -295h-160l-141 189l-139 -189h-179z" />
<glyph unicode="&#x2dc;" horiz-adv-x="569" d="M-49 1130q14 90 69.5 156t141.5 66q59 0 131 -29l63 -25q66 -27 105 -26q37 0 59.5 28.5t28.5 67.5h106q-8 -92 -65.5 -157.5t-134.5 -65.5q-47 0 -136 31l-59 20q-82 29 -106 29q-76 0 -99 -95h-104z" />
<glyph unicode="&#x2000;" horiz-adv-x="901" />
<glyph unicode="&#x2001;" horiz-adv-x="1804" />
<glyph unicode="&#x2002;" horiz-adv-x="901" />
<glyph unicode="&#x2003;" horiz-adv-x="1804" />
<glyph unicode="&#x2004;" horiz-adv-x="600" />
<glyph unicode="&#x2005;" horiz-adv-x="450" />
<glyph unicode="&#x2006;" horiz-adv-x="299" />
<glyph unicode="&#x2007;" horiz-adv-x="299" />
<glyph unicode="&#x2008;" horiz-adv-x="225" />
<glyph unicode="&#x2009;" horiz-adv-x="360" />
<glyph unicode="&#x200a;" horiz-adv-x="98" />
<glyph unicode="&#x2010;" horiz-adv-x="681" d="M98 473v156h486v-156h-486z" />
<glyph unicode="&#x2011;" horiz-adv-x="681" d="M98 473v156h486v-156h-486z" />
<glyph unicode="&#x2012;" horiz-adv-x="681" d="M98 473v156h486v-156h-486z" />
<glyph unicode="&#x2013;" horiz-adv-x="1024" d="M0 485v131h1024v-131h-1024z" />
<glyph unicode="&#x2014;" horiz-adv-x="2048" d="M0 485v131h2048v-131h-2048z" />
<glyph unicode="&#x2018;" horiz-adv-x="569" d="M182 868v205l86 266h119l-88 -266h88v-205h-205z" />
<glyph unicode="&#x2019;" horiz-adv-x="569" d="M182 868l88 267h-88v204h205v-204l-86 -267h-119z" />
<glyph unicode="&#x201a;" horiz-adv-x="569" d="M182 0v205h205v-205l-86 -266h-119l88 266h-88z" />
<glyph unicode="&#x201c;" d="M274 868v205l86 266h119l-88 -266h88v-205h-205zM659 868v205l86 266h119l-88 -266h88v-205h-205z" />
<glyph unicode="&#x201d;" d="M274 868l88 267h-88v204h205v-204l-86 -267h-119zM659 868l89 267h-89v204h205v-204l-86 -267h-119z" />
<glyph unicode="&#x201e;" d="M274 0v205h205v-205l-86 -266h-119l88 266h-88zM659 0v205h205v-205l-86 -266h-119l89 266h-89z" />
<glyph unicode="&#x2022;" horiz-adv-x="1024" d="M176 670q0 139 97.5 237.5t236.5 98.5t237.5 -98.5t98.5 -237.5q0 -137 -99.5 -235.5t-236.5 -98.5t-235.5 98.5t-98.5 235.5z" />
<glyph unicode="&#x2026;" horiz-adv-x="2048" d="M240 0v205h204v-205h-204zM922 0v205h204v-205h-204zM1604 0v205h204v-205h-204z" />
<glyph unicode="&#x202f;" horiz-adv-x="360" />
<glyph unicode="&#x2039;" horiz-adv-x="569" d="M123 471l168 406h155l-165 -406l159 -405h-149z" />
<glyph unicode="&#x203a;" horiz-adv-x="569" d="M123 66l166 405l-160 406h150l167 -406l-167 -405h-156z" />
<glyph unicode="&#x205f;" horiz-adv-x="450" />
<glyph unicode="&#x20ac;" d="M29 457l39 129h96q-4 57 -4 86q0 6 2 22.5t2 24.5h-135l39 129h108q37 231 167 369.5t329 138.5q160 0 231 -123v106h156v-372v-2h-158q-2 66 -23.5 113.5t-49 72.5t-62.5 39t-55.5 17t-38.5 3q-115 0 -200 -101t-114 -261h445l-39 -129h-420q0 -6 -1 -20.5t-1 -20.5 q0 -61 4 -92h395l-39 -129h-342q29 -150 103 -240t196 -90q106 0 173 62.5t69 168.5h174v-6q0 -49 -17.5 -105.5t-59.5 -120t-129 -104t-205 -40.5q-207 0 -329 124.5t-157 350.5h-149z" />
<glyph unicode="&#x2122;" horiz-adv-x="2027" d="M131 1208v131h676v-131h-260v-712h-156v712h-260zM946 496v843h236l241 -620l238 620h235v-843h-155v688h-4l-264 -688h-103l-264 688h-4v-688h-156z" />
<glyph unicode="&#xe000;" horiz-adv-x="935" d="M0 935h935v-935h-935v935z" />
<glyph unicode="&#xfb01;" horiz-adv-x="1251" d="M70 0v131h182v672h-182v131h182v119q0 162 103.5 234.5t306.5 72.5q82 0 142 -12.5t111.5 -42t79 -86t31.5 -138.5h-190q0 76 -51.5 112t-133.5 36q-104 0 -167.5 -47t-63.5 -133v-115h631v-803h161v-131h-491v131h162v672h-463v-672h162v-131h-512z" />
<glyph unicode="&#xfb02;" horiz-adv-x="1251" d="M70 0v131h182v672h-182v131h182v117q0 145 116.5 227t299.5 82q119 0 383 -39v-1190h161v-131h-491v131h162v1073q-96 25 -213 25t-183.5 -54.5t-66.5 -125.5v-115h233v-131h-233v-672h162v-131h-512z" />
<glyph unicode="&#xfb03;" horiz-adv-x="1933" d="M1421 0v131h162v672h-162v131h330v-803h162v-131h-492zM1559 1147v192h192v-192h-192zM731 803v131h182v100q0 172 78 249t264 77q14 0 156 -17v-131q-141 16 -160 17q-102 0 -136 -52.5t-34 -142.5v-100h224v-131h-224v-672h203v-131h-532v131h161v672h-182zM49 803v131 h182v100q0 172 78 249t264 77q14 0 156 -17v-131q-141 16 -160 17q-102 0 -136 -52.5t-34 -142.5v-100h224v-131h-224v-672h203v-131h-532v131h161v672h-182z" />
<glyph unicode="&#xfb04;" horiz-adv-x="1933" d="M1421 0v131h162v1077h-162v131h330v-1208h162v-131h-492zM731 803v131h182v100q0 172 78 249t264 77q14 0 156 -17v-131q-141 16 -160 17q-102 0 -136 -52.5t-34 -142.5v-100h224v-131h-224v-672h203v-131h-532v131h161v672h-182zM49 803v131h182v100q0 172 78 249 t264 77q14 0 156 -17v-131q-141 16 -160 17q-102 0 -136 -52.5t-34 -142.5v-100h224v-131h-224v-672h203v-131h-532v131h161v672h-182z" />
</font>
</defs>
</svg>
