<?xml version="1.0" standalone="no"?>
<!DOCTYPE svg PUBLIC "-//W3C//DTD SVG 1.1//EN" "http://www.w3.org/Graphics/SVG/1.1/DTD/svg11.dtd" >
<svg xmlns="http://www.w3.org/2000/svg">
<metadata></metadata>
<defs>
<font id="MyriadProBlackSemiExtBdIt" horiz-adv-x="1228" >
<font-face units-per-em="2048" ascent="1536" descent="-512" />
<missing-glyph horiz-adv-x="409" />
<glyph unicode="&#xfb01;" horiz-adv-x="1273" d="M61 0l136 725h-125l53 283h125l6 28q23 123 82 213t145 140.5t184 74t212 23.5q91 0 178 -20t133 -46l-96 -280q-113 51 -240 51q-213 0 -238 -148l-6 -36h631l-190 -1008h-365l135 725h-262l-135 -725h-363z" />
<glyph unicode="&#xfb02;" horiz-adv-x="1273" d="M59 0l136 725h-125l53 283h125l8 47q16 91 72.5 178t148.5 151q153 107 412 107q103 0 221.5 -27t200.5 -78l-260 -1386h-365l221 1184q-29 22 -108 22q-73 0 -123.5 -49.5t-61.5 -122.5l-4 -26h164l-53 -283h-162l-135 -725h-365z" />
<glyph unicode="&#xfb03;" horiz-adv-x="1945" d="M55 0l135 725h-124l53 283h125l8 32q49 194 149 297q125 125 338 125q55 0 110 -15t83 -30l-117 -266q-32 16 -74 16q-46 0 -75 -26q-38 -36 -56 -115l-4 -18h316l6 28q21 99 64.5 176.5t101.5 128.5t132.5 84.5t154 47.5t169.5 14q91 0 179 -20t133 -46l-97 -280 q-113 51 -239 51q-213 0 -238 -148l-6 -36h631l-191 -1008h-364l135 725h-262l-133 -725h-367l135 725h-311l-135 -725h-365z" />
<glyph unicode="&#xfb04;" horiz-adv-x="1945" d="M55 0l135 725h-124l53 283h125l4 20q41 201 149 309q125 125 336 125q104 0 195 -41l-109 -270q-40 16 -78 16q-49 0 -79 -30q-38 -38 -52 -109l-4 -20h314l8 47q16 91 72.5 178t148.5 151q153 107 412 107q103 0 221 -27t200 -78l-260 -1386h-364l221 1184 q-29 22 -109 22q-73 0 -123 -49.5t-61 -122.5l-4 -26h164l-53 -283h-162l-135 -725h-365l135 725h-311l-135 -725h-365z" />
<glyph horiz-adv-x="0" />
<glyph horiz-adv-x="2048" />
<glyph unicode=" "  horiz-adv-x="409" />
<glyph unicode="&#x09;" horiz-adv-x="409" />
<glyph unicode="&#xa0;" horiz-adv-x="409" />
<glyph unicode="!" horiz-adv-x="604" d="M20 168q0 104 68 175t176 71q86 0 142.5 -55.5t56.5 -145.5q0 -104 -68.5 -171t-177.5 -67h-2q-86 0 -140.5 54t-54.5 139zM156 477l114 903h383l-229 -903h-268z" />
<glyph unicode="&#x22;" horiz-adv-x="923" d="M166 809l65 614h342l-172 -614h-235zM625 809l65 614h342l-172 -614h-235z" />
<glyph unicode="#" d="M41 336l37 229h211l67 205h-176l35 229h211l106 332h220l-107 -332h189l106 332h221l-106 -332h168l-35 -229h-205l-65 -205h169l-36 -229h-211l-103 -336h-223l104 336h-186l-102 -336h-224l105 336h-170zM510 565h186l66 205h-187z" />
<glyph unicode="$" d="M4 141l123 277q162 -133 401 -133q85 0 138 25t53 71q0 42 -43 74.5t-152 74.5q-54 21 -98 42.5t-94 55.5t-84 72t-57 90.5t-23 112.5q0 175 130 287t341 131l35 168h239l-30 -168q192 -8 321 -92l-121 -268q-147 92 -348 92q-75 0 -117.5 -26t-42.5 -62q0 -37 52 -69.5 t184 -86.5q324 -130 324 -379q0 -80 -28 -147t-74.5 -115t-111.5 -83.5t-135.5 -56t-148.5 -28.5l-37 -184h-240l33 184q-109 6 -219 48.5t-170 92.5z" />
<glyph unicode="%" horiz-adv-x="2023" d="M133 868q0 209 136.5 348.5t355.5 139.5h2q151 0 246.5 -88.5t95.5 -245.5q0 -210 -139 -350t-345 -140q-153 0 -252.5 89.5t-99.5 246.5zM416 872q0 -58 27 -94.5t73 -36.5q55 0 96 50.5t57.5 112t16.5 118.5q0 58 -25.5 91.5t-74.5 33.5h-2q-53 0 -93 -49t-57.5 -110 t-17.5 -116zM436 -25l979 1377h209l-977 -1377h-211zM1100 311q0 209 136 348.5t355 139.5h2q151 0 246.5 -88.5t95.5 -245.5q0 -210 -138.5 -350t-344.5 -140q-153 0 -252.5 89.5t-99.5 246.5zM1382 315q0 -58 27.5 -94.5t73.5 -36.5q55 0 96 50.5t57.5 112t16.5 118.5 t-25.5 91t-75.5 34h-2q-53 0 -93 -49t-57.5 -110t-17.5 -116z" />
<glyph unicode="&#x26;" horiz-adv-x="1540" d="M37 365q0 261 334 411l2 4q-78 106 -78 219q0 172 132 289t349 117q79 0 150.5 -21t129 -61t91 -105t33.5 -147q0 -117 -88 -201t-254 -157v-4q23 -33 80.5 -100t82.5 -101q124 129 205 332h344q-69 -175 -152 -308t-216 -253q95 -133 235 -279h-444q-17 16 -42.5 46 t-31.5 36q-166 -107 -381 -107q-214 0 -347.5 101t-133.5 289zM414 430q0 -77 54 -128.5t157 -51.5h2q26 0 51 7t36 12.5t34 19.5q-170 199 -246 301q-88 -77 -88 -160zM621 1040q0 -81 65 -149q68 24 118 69t50 105q0 46 -30.5 76t-82.5 30h-2q-50 0 -84 -37t-34 -94z" />
<glyph unicode="'" horiz-adv-x="464" d="M166 811l65 612h342l-172 -612h-235z" />
<glyph unicode="(" horiz-adv-x="716" d="M129 301q0 682 391 1110h260q-167 -229 -263.5 -512.5t-96.5 -572.5q0 -164 13 -288.5t50 -268.5h-256q-98 254 -98 532z" />
<glyph unicode=")" horiz-adv-x="716" d="M-33 -231q167 229 264 512.5t97 572.5q0 163 -13.5 287.5t-50.5 269.5h256q98 -254 98 -532q0 -682 -391 -1110h-260z" />
<glyph unicode="*" horiz-adv-x="1019" d="M127 848l47 244l322 -82l-2 4l-197 272l225 119l72 -336h4l158 336l192 -119l-270 -272l2 -4l367 82l-48 -244l-335 63v-4l206 -264l-223 -123l-76 336h-4l-153 -336l-195 123l268 264v4z" />
<glyph unicode="+" horiz-adv-x="1220" d="M74 432v230h407v428h242v-428h407v-230h-407v-432h-242v432h-407z" />
<glyph unicode="," horiz-adv-x="602" d="M-129 -236q162 339 242 637l389 21q-153 -343 -371 -637z" />
<glyph unicode="-" horiz-adv-x="724" d="M35 393l47 246h602l-47 -246h-602z" />
<glyph unicode="." horiz-adv-x="602" d="M35 172q0 104 68 175t176 71q86 0 142 -55.5t56 -145.5q0 -104 -68.5 -170.5t-177.5 -66.5h-2q-86 0 -140 53.5t-54 138.5z" />
<glyph unicode="/" horiz-adv-x="698" d="M-31 -82l627 1487h248l-627 -1487h-248z" />
<glyph unicode="0" d="M80 487q0 83 12.5 168.5t40 171t66.5 163t95.5 145t124 116.5t154.5 77t185 28q112 0 196.5 -37t136.5 -104t77.5 -155t25.5 -196q0 -124 -25.5 -247.5t-80 -239.5t-132 -205t-190 -143t-244.5 -54h-2q-219 0 -329.5 138t-110.5 374zM440 483q0 -31 1.5 -55t8 -58 t18.5 -56.5t35.5 -39t55.5 -16.5h2q56 0 104 48.5t77.5 119.5t50.5 155.5t29.5 153t8.5 115.5q0 223 -118 223q-56 0 -103.5 -48.5t-78 -119.5t-52 -155t-30.5 -153t-9 -114z" />
<glyph unicode="1" d="M297 1159l428 172h289l-250 -1331h-348l186 995h-4l-295 -121z" />
<glyph unicode="2" d="M-6 0l43 225l383 273q99 70 158.5 116.5t114.5 99t79.5 99t24.5 92.5q0 70 -52 108t-131 38q-184 0 -321 -80l-80 256q96 58 224.5 93.5t260.5 35.5q137 0 243.5 -44t170.5 -135.5t64 -218.5q0 -76 -23.5 -145t-58 -121.5t-91 -105.5t-106.5 -89.5t-121 -82.5l-160 -103 v-4h463l-57 -307h-1028z" />
<glyph unicode="3" d="M8 86l113 281q59 -32 154 -60t202 -28q109 0 174.5 34.5t65.5 98.5q0 151 -291 151h-49l53 273h43q127 0 213 35.5t86 97.5q0 38 -39 63t-119 25q-191 0 -331 -72l-60 264q91 50 212.5 78.5t238.5 28.5q55 0 108 -6.5t109.5 -20.5t103 -40t84.5 -61.5t59 -88t21 -117.5 q0 -116 -86.5 -199.5t-230.5 -113.5l-2 -4q114 -16 187 -93t73 -200q0 -88 -38 -161.5t-101 -123.5t-146 -85t-170.5 -51t-175.5 -16q-151 0 -277.5 31.5t-183.5 79.5z" />
<glyph unicode="4" d="M20 303l48 242l612 786h489l-141 -751h152l-52 -277h-151l-57 -303h-349l58 303h-609zM436 580h244l53 227q6 23 33 129t39 160h-8q-117 -177 -207 -303l-152 -209z" />
<glyph unicode="5" d="M27 72l92 284q48 -30 140.5 -53.5t186.5 -23.5q70 0 133 13.5t112.5 51t49.5 94.5q0 31 -9 56.5t-34 49t-65.5 39.5t-107 25.5t-154.5 9.5q-47 0 -199 -10l203 723h831l-61 -307h-531l-41 -133q27 4 68 4q196 0 324 -82q74 -49 117.5 -131t43.5 -184q0 -103 -35 -188.5 t-97 -147t-147 -104t-185 -63t-211 -20.5q-143 0 -259 28t-165 69z" />
<glyph unicode="6" d="M63 477q0 207 86 385.5t240 294.5q126 96 297 147.5t356 51.5q57 0 115 -8l-55 -289q-35 4 -113 4q-189 -4 -314 -69t-171 -154l2 -4q113 71 272 71q72 0 139 -26t121.5 -74.5t87.5 -127t33 -175.5q0 -107 -42.5 -203.5t-117.5 -168.5t-184 -114.5t-235 -42.5 q-245 0 -381 138t-136 364zM424 449q0 -81 45.5 -136t116.5 -55h2q47 0 84.5 19t60 49t34 64.5t11.5 68.5q0 84 -48 131t-120 47q-104 0 -161 -90q-25 -39 -25 -78v-20z" />
<glyph unicode="7" d="M43 0q500 680 748 1020v4h-617l59 307h1027l-46 -235q-447 -647 -755 -1096h-416z" />
<glyph unicode="8" d="M33 326q0 127 76.5 220.5t203.5 139.5l2 4q-64 44 -99.5 109t-35.5 137q0 131 80.5 228.5t204.5 144.5t270 47h2q87 0 164.5 -20t141 -60t100.5 -106.5t37 -151.5q0 -103 -63 -178t-167 -119l-2 -4q85 -43 137 -122t52 -165q0 -90 -35.5 -166t-94.5 -128.5t-138 -89.5 t-165 -54t-176 -17q-229 1 -362 98.5t-133 252.5zM424 383q0 -61 44.5 -99t113.5 -38h2q61 0 111 37.5t50 105.5q0 64 -45.5 106t-111.5 62q-71 -12 -117.5 -60t-46.5 -114zM535 961q0 -53 46 -90t109 -52q48 11 91.5 50.5t43.5 95.5q0 55 -38.5 87.5t-94.5 32.5h-2 q-63 0 -109 -38t-46 -86z" />
<glyph unicode="9" d="M90 -16l41 290q14 -3 129 -6q164 3 287 60q157 76 215 192l-2 4q-42 -39 -109 -58.5t-137 -19.5q-83 0 -155.5 24.5t-129.5 71t-90 122t-33 170.5q0 146 79.5 266t216 188t300.5 68q240 0 372 -137.5t132 -378.5q0 -202 -90 -381t-242 -295q-119 -92 -282 -140.5 t-332 -48.5q-105 0 -170 9zM483 883q0 -76 45.5 -120t110.5 -44q106 0 156 57q20 24 28 43q11 25 11 80q0 74 -43.5 124t-120.5 50h-2q-73 0 -129 -57t-56 -133z" />
<glyph unicode=":" horiz-adv-x="602" d="M35 168q0 104 68 175t176 71q86 0 142 -55.5t56 -145.5q0 -104 -68.5 -171t-177.5 -67h-2q-86 0 -140 54t-54 139zM154 803q0 104 67.5 175t175.5 71q86 0 142.5 -55.5t56.5 -145.5q0 -104 -68.5 -171t-177.5 -67h-2q-86 0 -140 54t-54 139z" />
<glyph unicode=";" horiz-adv-x="602" d="M-129 -236q162 339 242 637l389 21q-153 -343 -371 -637zM164 803q0 104 68 175t176 71q86 0 142 -55.5t56 -145.5q0 -104 -68.5 -171t-177.5 -67h-2q-86 0 -140 54t-54 139z" />
<glyph unicode="&#x3c;" horiz-adv-x="1220" d="M70 432v225l999 433v-254l-731 -289v-4l731 -289v-254z" />
<glyph unicode="=" horiz-adv-x="1220" d="M61 207v229h1057v-229h-1057zM61 657v230h1057v-230h-1057z" />
<glyph unicode="&#x3e;" horiz-adv-x="1220" d="M141 0v254l731 289v4l-731 289v254l1000 -433v-225z" />
<glyph unicode="?" horiz-adv-x="1028" d="M213 168q0 104 68 175t176 71q86 0 142 -55.5t56 -145.5q0 -105 -68.5 -171.5t-176.5 -66.5h-2q-86 0 -140.5 54t-54.5 139zM246 1298q170 107 416 107q67 0 129.5 -15t119 -47t91 -91t34.5 -138q0 -30 -6 -59t-12 -51t-23.5 -49.5t-27 -42t-36.5 -43.5t-38 -39.5 t-45 -43.5t-45 -43q-54 -51 -82.5 -100.5t-46.5 -118.5q-2 -8 -5 -23t-5 -22h-363q4 40 8 58q31 164 180 321q28 30 77.5 72t74.5 69.5t25 51.5q0 32 -23.5 49t-83.5 20q-158 0 -258 -63z" />
<glyph unicode="@" horiz-adv-x="1648" d="M86 438q0 158 59.5 299.5t164 246.5t257 166.5t328.5 61.5q137 0 259.5 -43.5t213.5 -121.5t144 -193t53 -250q0 -209 -120 -341t-304 -132q-76 0 -127 34.5t-66 104.5h-4q-101 -139 -262 -139q-113 0 -182.5 74t-69.5 205q0 91 34.5 174.5t96.5 148t157.5 103 t209.5 38.5q73 0 152 -15.5t116 -37.5l-55 -391q-11 -67 -1.5 -101.5t44.5 -35.5q72 -3 134 79.5t62 235.5q0 197 -136 324t-372 127q-120 0 -227.5 -41t-188.5 -116t-129 -187.5t-48 -247.5q0 -251 149.5 -390.5t400.5 -139.5q173 0 299 55l39 -144q-96 -37 -182.5 -51 t-210.5 -14q-186 0 -341.5 78.5t-251 230t-95.5 346.5zM682 446q0 -57 24 -86.5t68 -29.5q49 0 94 50.5t56 137.5l18 154q-32 4 -45 4q-94 0 -154.5 -69.5t-60.5 -160.5z" />
<glyph unicode="A" horiz-adv-x="1437" d="M-51 0l690 1380h489l197 -1380h-393l-25 340h-407l-150 -340h-401zM608 618h279l-25 244q-19 189 -28 258h-5q-16 -35 -53.5 -126t-58.5 -134z" />
<glyph unicode="B" horiz-adv-x="1327" d="M31 20l250 1334q185 37 426 37q215 0 356 -50q96 -33 158.5 -107.5t62.5 -176.5q0 -230 -272 -312v-4q104 -33 163.5 -110.5t59.5 -190.5q0 -213 -215 -344q-177 -106 -582 -106q-276 0 -407 30zM436 279q44 -5 119 -5q79 0 140.5 15t104 53.5t42.5 97.5q0 38 -15 65.5 t-38 43t-59.5 25t-72 12t-82.5 2.5h-81zM551 852h104q116 0 183 34.5t67 100.5q0 117 -188 117q-73 0 -119 -8z" />
<glyph unicode="C" horiz-adv-x="1355" d="M109 608q0 235 109 410t298 274q220 113 524 113q117 0 210 -19.5t141 -42.5l-95 -290q-125 45 -280 45q-193 0 -314 -78q-92 -58 -143 -155.5t-51 -225.5q0 -169 108 -262.5t295 -93.5q170 0 285 47l39 -287q-147 -68 -424 -68q-144 0 -267.5 37t-222.5 111.5 t-155.5 198.5t-56.5 286z" />
<glyph unicode="D" horiz-adv-x="1558" d="M31 20l256 1338q186 33 434 33q359 0 551 -131q237 -162 237 -486q0 -183 -71.5 -332.5t-206.5 -253.5q-134 -103 -315.5 -150.5t-444.5 -47.5q-297 0 -440 30zM455 287q38 -6 123 -6q118 0 221.5 34t169.5 99q137 131 137 348q0 176 -101 257t-282 81q-61 0 -115 -8z " />
<glyph unicode="E" horiz-adv-x="1191" d="M27 0l260 1380h952l-59 -307h-586l-41 -219h553l-59 -307h-551l-45 -240h616l-57 -307h-983z" />
<glyph unicode="F" horiz-adv-x="1171" d="M27 0l260 1380h940l-60 -307h-573l-47 -248h540l-59 -307h-541l-96 -518h-364z" />
<glyph unicode="G" horiz-adv-x="1564" d="M104 594q0 191 78 343.5t219 258.5q264 199 680 199q141 0 258.5 -21t171.5 -47l-104 -303q-59 25 -150.5 44t-189.5 19q-212 0 -354 -88q-94 -60 -147.5 -156t-53.5 -216q0 -87 29 -153t81.5 -104.5t119.5 -57.5t149 -19q92 0 145 22l43 220h-215l58 288h575l-143 -749 q-291 -88 -533 -88q-307 0 -502 141q-99 72 -157 191.5t-58 275.5z" />
<glyph unicode="H" horiz-adv-x="1503" d="M29 0l260 1380h364l-96 -510h512l96 510h367l-260 -1380h-367l105 547h-514l-103 -547h-364z" />
<glyph unicode="I" horiz-adv-x="614" d="M16 0l260 1380h365l-260 -1380h-365z" />
<glyph unicode="J" horiz-adv-x="927" d="M-72 14l72 308q97 -29 182 -29q110 0 172 59.5t92 212.5l154 815h365l-168 -878q-53 -279 -190.5 -403t-405.5 -124q-77 0 -154.5 10.5t-118.5 28.5z" />
<glyph unicode="K" horiz-adv-x="1380" d="M27 0l260 1380h360l-108 -579h4q13 17 121 141l378 438h471l-598 -589l361 -791h-402l-247 573l-156 -137l-84 -436h-360z" />
<glyph unicode="L" horiz-adv-x="1136" d="M27 0l260 1380h364l-198 -1061h585l-59 -319h-952z" />
<glyph unicode="M" horiz-adv-x="1853" d="M6 0l338 1380h522l17 -348q0 -11 12 -205t12 -315h11q85 234 225 524l166 344h530l-197 -1380h-364l84 514q74 437 106 602h-4q-192 -420 -274 -588l-244 -499h-291l-30 497q-13 221 -31 590h-4q-23 -103 -65 -309t-62 -293l-117 -514h-340z" />
<glyph unicode="N" horiz-adv-x="1501" d="M27 0l260 1380h463l135 -401q81 -244 147 -530h6q2 170 58 469l86 462h348l-260 -1380h-402l-153 459q-118 363 -160 532h-8q-15 -143 -94 -563l-80 -428h-346z" />
<glyph unicode="O" horiz-adv-x="1628" d="M106 598q0 177 62.5 326.5t177.5 257.5q114 107 264.5 165t323.5 58q142 0 260 -41.5t204 -119.5t133.5 -198t47.5 -270q0 -176 -60.5 -324t-172.5 -255q-111 -106 -262 -164t-328 -58h-2q-187 0 -333 73t-230.5 215.5t-84.5 334.5zM500 623q0 -167 78.5 -258t226.5 -91 h2q132 0 235 103q67 67 105.5 167.5t38.5 209.5q0 77 -16 139.5t-49.5 111t-91.5 75t-136 26.5q-139 0 -246 -107q-70 -70 -108.5 -170t-38.5 -206z" />
<glyph unicode="P" horiz-adv-x="1261" d="M27 0l254 1350q143 41 413 41q247 0 391 -74q199 -104 199 -336q0 -245 -197 -389q-176 -131 -483 -131q-25 0 -51 2t-49.5 4.5t-30.5 3.5l-90 -471h-356zM526 766q58 -12 127 -12q112 0 188.5 53t76.5 139q0 158 -203 158q-75 0 -125 -8z" />
<glyph unicode="Q" horiz-adv-x="1628" d="M106 604q0 163 57 305.5t161 249.5q119 122 278 184t336 62q139 0 256.5 -42t202.5 -120.5t132.5 -197t47.5 -265.5q0 -168 -57 -314t-162 -251q-91 -91 -207 -145v-4q239 -53 307 -64l-110 -289q-302 87 -590 226q-84 41 -117 45q-110 9 -206.5 55t-170 123.5t-116 192 t-42.5 249.5zM500 618q0 -164 78.5 -254t226.5 -90h2q132 0 235 103q68 69 106 171t38 214q0 71 -16 131t-49 109t-90.5 76.5t-133.5 27.5q-141 0 -248 -107q-70 -70 -109.5 -172t-39.5 -209z" />
<glyph unicode="R" horiz-adv-x="1333" d="M29 0l258 1350q146 41 432 41q253 0 393 -62q201 -91 201 -305q0 -146 -82 -234.5t-234 -142.5l-2 -8q98 -49 129 -238q8 -45 20 -144.5t23 -165t25 -91.5h-377q-26 77 -53 322q-13 114 -58 154t-141 40h-74l-98 -516h-362zM541 784h127q114 0 189 47t75 134 q0 75 -60.5 107t-154.5 32q-67 0 -117 -8z" />
<glyph unicode="S" horiz-adv-x="1179" d="M-12 92l129 295q175 -100 389 -100q79 0 132.5 27.5t53.5 82.5q0 45 -44.5 78t-149.5 78q-49 21 -89.5 42t-88 56t-80 73.5t-54.5 94t-22 117.5q0 145 84 253t221 162t305 54q228 0 389 -74l-116 -303q-47 25 -131 47q-74 19 -152 19h-21q-93 0 -140.5 -28t-47.5 -67 q0 -12 3.5 -23t12.5 -21.5t17.5 -19t24.5 -18.5t26.5 -16.5t32 -17t32.5 -15.5t35 -15.5t33 -14.5q149 -66 232 -155.5t83 -219.5q0 -101 -35 -184t-94 -138.5t-140 -93.5t-171 -55t-188 -17q-163 3 -282.5 36.5t-188.5 80.5z" />
<glyph unicode="T" horiz-adv-x="1241" d="M147 1069l62 311h1139l-60 -311h-393l-199 -1069h-364l198 1069h-383z" />
<glyph unicode="U" horiz-adv-x="1484" d="M127 467q0 78 18 184l138 729h364l-141 -749q-14 -68 -14 -164q2 -77 54.5 -135t153.5 -58q125 0 201 86t111 271l141 749h365l-140 -739q-26 -139 -65 -243t-97 -186t-137 -133t-184.5 -77.5t-239.5 -26.5h-12q-243 0 -377 123q-138 126 -139 369z" />
<glyph unicode="V" horiz-adv-x="1454" d="M168 1380h369l71 -532q42 -334 56 -492h4q74 183 225 482l266 542h410l-750 -1380h-436z" />
<glyph unicode="W" horiz-adv-x="1945" d="M188 1380h365l4 -516v-487h4q62 153 182 493l183 510h424l-15 -542q-6 -259 -14 -449h4q57 162 172 481l189 510h391l-633 -1380h-404l2 520q0 188 11 481h-4q-123 -371 -172 -501l-189 -500h-418z" />
<glyph unicode="X" horiz-adv-x="1347" d="M-82 0l553 705l-285 675h392l77 -223q57 -168 78 -237h6q32 56 75 132.5t63 110.5l124 217h453l-528 -671l303 -709h-395l-91 240q-16 44 -44.5 126t-41.5 117h-4q-26 -45 -72 -128t-73 -130l-131 -225h-459z" />
<glyph unicode="Y" horiz-adv-x="1351" d="M137 1380h391l86 -313q9 -31 24 -80t25 -85t19 -75h4q114 186 150 248l180 305h452l-643 -790l-112 -590h-365l109 575z" />
<glyph unicode="Z" horiz-adv-x="1286" d="M-51 0l37 201l798 860v8h-573l59 311h1090l-39 -202l-784 -859v-8h634l-57 -311h-1165z" />
<glyph unicode="[" horiz-adv-x="716" d="M-2 -229l311 1634h447l-37 -197h-178l-238 -1241h178l-37 -196h-446z" />
<glyph unicode="\" horiz-adv-x="739" d="M90 1405h248l344 -1487h-248z" />
<glyph unicode="]" horiz-adv-x="716" d="M-18 -229l36 196h179l237 1241h-178l37 197h446l-311 -1634h-446z" />
<glyph unicode="^" horiz-adv-x="1220" d="M39 352l430 979h221l430 -979h-264l-276 697h-5l-276 -697h-260z" />
<glyph unicode="_" horiz-adv-x="1024" d="M-141 -256l20 102h1024l-20 -102h-1024z" />
<glyph unicode="`" horiz-adv-x="819" d="M188 1454h347l188 -328h-268z" />
<glyph unicode="a" horiz-adv-x="1245" d="M49 350q0 106 28 203.5t89.5 185t150.5 152.5t219.5 103t288.5 38q196 0 379 -59l-106 -518q-18 -94 -30 -226q-10 -106 -10 -190q0 -20 1 -39h-340q8 117 10 178h-4q-114 -203 -338 -203q-145 0 -241.5 102t-96.5 273zM436 414q0 -71 32 -109.5t79 -38.5q28 0 55.5 14 t57 47.5t55.5 99t43 157.5l35 166q-35 6 -70 6q-80 0 -147.5 -53t-103.5 -131t-36 -158z" />
<glyph unicode="b" horiz-adv-x="1261" d="M74 285q0 87 26 211l199 970h367l-113 -542h4q56 49 138 78.5t173 29.5q155 0 244.5 -102.5t89.5 -263.5q0 -96 -25 -190.5t-81 -186t-137.5 -160.5t-204 -111.5t-269.5 -42.5q-209 -1 -311 83q-100 82 -100 221v6zM457 348q3 -46 31 -71t71 -25q67 0 127.5 51 t95.5 130.5t35 160.5q0 67 -32.5 107t-88.5 40q-76 0 -138.5 -67t-86.5 -191l-4 -26q-11 -55 -11 -90q0 -11 1 -19z" />
<glyph unicode="c" horiz-adv-x="985" d="M59 420q0 175 90 314.5t253 218.5t370 79q126 0 223 -33l-86 -272q-58 23 -137 23q-151 0 -238.5 -86.5t-87.5 -208.5q0 -96 58 -143.5t137 -47.5q112 0 205 41l4 -272q-119 -58 -315 -58q-96 0 -179.5 26t-151 78t-106.5 139.5t-39 201.5z" />
<glyph unicode="d" horiz-adv-x="1263" d="M55 383q0 129 48.5 246.5t135 207t215.5 142.5t281 53q70 0 131 -20l90 454h363l-193 -1011q-46 -237 -49 -455h-344l8 150h-4q-118 -175 -340 -175q-64 0 -123 24.5t-109 72t-80 128t-30 183.5zM440 444q0 -93 39 -135.5t92 -42.5q63 0 121 65t86 212l37 176 q-43 37 -113 37q-115 0 -188.5 -92t-73.5 -220z" />
<glyph unicode="e" horiz-adv-x="1150" d="M57 426q0 93 27.5 181.5t82.5 165.5t130.5 135t177.5 91t217 33q110 0 199 -34.5t146 -111t57 -184.5q0 -180 -172 -260q-155 -72 -453 -72q-33 0 -68 1q11 -37 39 -62q62 -53 195 -53q173 0 311 66l21 -259q-170 -88 -422 -88q-233 0 -360.5 115t-127.5 336zM436 633 q178 0 245 18.5t67 63.5v2q0 23 -27.5 41t-71.5 18q-95 0 -150 -47t-63 -96z" />
<glyph unicode="f" horiz-adv-x="745" d="M57 0l136 725h-125l53 283h125l10 57q37 215 176 326q120 100 320 100q104 0 163 -27l-53 -290q-43 16 -96 16q-57 0 -98 -36t-52 -93l-10 -53h185l-54 -283h-182l-135 -725h-363z" />
<glyph unicode="g" horiz-adv-x="1259" d="M39 -367l78 277q41 -23 133 -38t164 -15q113 0 184.5 50.5t97.5 180.5l9 41h-5q-60 -61 -123.5 -89t-150.5 -28q-162 0 -264.5 109.5t-102.5 279.5q0 100 28.5 192t88.5 172t144.5 139.5t205 93.5t262.5 34q233 0 420 -71l-147 -822q-29 -156 -81 -274.5t-146 -188.5 q-151 -110 -418 -110q-249 0 -377 67zM451 442q0 -78 36 -115.5t91 -37.5q64 0 118 60t78 192l39 202q-32 13 -94 13q-115 0 -191.5 -92t-76.5 -222z" />
<glyph unicode="h" horiz-adv-x="1253" d="M18 0l277 1466h364l-106 -565h4q144 131 320 131q138 0 208 -78t70 -211q0 -83 -18 -178l-107 -565h-364l98 524q12 62 12 117q0 100 -88 100q-79 0 -139 -91.5t-90 -250.5l-76 -399h-365z" />
<glyph unicode="i" horiz-adv-x="606" d="M18 0l191 1008h364l-190 -1008h-365zM254 1274q0 89 61.5 140.5t143.5 51.5q76 0 127 -44.5t51 -121.5q0 -89 -61 -139.5t-150 -50.5h-2q-71 0 -120.5 44.5t-49.5 119.5z" />
<glyph unicode="j" horiz-adv-x="659" d="M-160 -416l41 277q25 -4 66 -4q23 0 40 6t36 23.5t34 54.5t25 94l182 973h363l-181 -977q-47 -257 -159 -369q-96 -96 -283 -96q-96 0 -164 18zM295 1274q0 89 61.5 140.5t143.5 51.5q76 0 127 -44.5t51 -121.5q0 -89 -61 -139.5t-150 -50.5h-2q-71 0 -120.5 44.5 t-49.5 119.5z" />
<glyph unicode="k" horiz-adv-x="1249" d="M18 0l277 1466h364l-163 -862h4q18 21 49 59.5t45 55.5l237 289h467l-460 -404l317 -604h-418l-178 401l-121 -110l-55 -291h-365z" />
<glyph unicode="l" horiz-adv-x="608" d="M20 0l281 1466h365l-281 -1466h-365z" />
<glyph unicode="m" horiz-adv-x="1832" d="M18 0l119 657q31 166 56 351h311l-17 -162h2q136 186 361 186q66 0 118 -19t81 -49t45 -60t18 -58q71 97 164 141.5t192 44.5q134 0 199.5 -77.5t65.5 -211.5q0 -69 -15 -161l-106 -582h-350l94 524q12 70 12 109q0 48 -22.5 78t-63.5 30q-74 0 -133 -96t-86 -246 l-74 -399h-350l96 524q13 76 13 103q0 114 -80 114q-77 0 -139 -96.5t-89 -245.5l-71 -399h-351z" />
<glyph unicode="n" horiz-adv-x="1255" d="M18 0l123 657q23 114 60 351h323l-18 -166h4q143 190 367 190q141 0 209.5 -77.5t68.5 -211.5q0 -75 -14 -161l-111 -582h-364l98 524q10 58 10 111q0 51 -18.5 78.5t-65.5 27.5q-75 0 -138 -91t-93 -251l-76 -399h-365z" />
<glyph unicode="o" horiz-adv-x="1271" d="M61 416q0 130 48 243.5t133 196t208 129.5t267 47q135 0 244 -51t174 -150t65 -229q0 -120 -33 -221.5t-93 -175.5t-142.5 -126.5t-181 -78t-209.5 -25.5h-2q-96 0 -180.5 27t-152 79.5t-106.5 138.5t-39 196zM444 420q0 -82 40 -125t108 -43h2q56 0 101 33t70.5 84.5 t38.5 107t13 107.5q0 76 -35.5 124t-109.5 48q-61 0 -107.5 -36t-71.5 -91t-37 -109t-12 -100z" />
<glyph unicode="p" horiz-adv-x="1265" d="M-57 -410l186 988q37 199 61 442h330l-14 -137h4q62 73 147 111t179 38q166 0 265 -115.5t99 -295.5q0 -130 -43.5 -247.5t-121 -206t-194.5 -140.5t-255 -52q-56 0 -109.5 14t-81.5 34h-4l-84 -433h-364zM449 305q50 -53 126 -53q64 0 120 50.5t88 131.5t32 168 q0 59 -30.5 99t-86.5 40q-86 0 -146 -82t-85 -223z" />
<glyph unicode="q" horiz-adv-x="1267" d="M55 383q0 99 27 192t86 176.5t144.5 145.5t211 98.5t277.5 36.5q74 0 159.5 -10t127.5 -18t135 -27l-256 -1387h-367l127 539h-4q-57 -79 -142 -116.5t-180 -37.5q-147 0 -246.5 110.5t-99.5 297.5zM440 430q0 -79 33 -121.5t86 -42.5q69 0 131 67.5t90 211.5l39 192 q-42 19 -110 19q-61 0 -113.5 -30.5t-85.5 -78.5t-51.5 -105t-18.5 -112z" />
<glyph unicode="r" horiz-adv-x="856" d="M18 0l103 543q15 79 25 172.5t17.5 187t8.5 105.5h315q-8 -141 -13 -215h5q58 107 148 173t204 66h62l-72 -352h-45q-50 0 -92 -11t-73 -29t-56.5 -47t-42 -58t-31 -69t-23 -74.5t-16.5 -78.5l-59 -313h-365z" />
<glyph unicode="s" horiz-adv-x="962" d="M-16 70l86 252q184 -84 321 -84q101 0 101 51q0 26 -29 48t-98 48q-52 21 -93.5 44t-82 57t-63 80t-22.5 100q0 171 139.5 268.5t362.5 97.5q197 0 305 -57l-86 -252q-120 47 -243 47q-107 0 -107 -51q0 -38 131 -90q42 -16 69 -28t69.5 -38t68 -53.5t45 -71t19.5 -94.5 q1 -178 -145 -275q-141 -94 -366 -94h-14q-112 3 -212.5 28.5t-155.5 66.5z" />
<glyph unicode="t" horiz-adv-x="786" d="M72 725l53 283h125l37 192l370 98l-53 -290h209l-55 -283h-209l-49 -231q-19 -83 -19 -129q0 -76 82 -76q57 0 84 2l-47 -289q-66 -27 -199 -27q-142 0 -217 59.5t-75 160.5q0 86 22 198l66 332h-125z" />
<glyph unicode="u" horiz-adv-x="1255" d="M84 264q0 81 18 180l107 564h364l-98 -525q-12 -70 -12 -114q0 -42 20 -70.5t64 -28.5q77 0 140 90t93 248l76 400h365l-123 -658q-24 -118 -60 -350h-323l18 162h-4q-160 -187 -371 -187q-137 0 -205.5 74.5t-68.5 214.5z" />
<glyph unicode="v" horiz-adv-x="1193" d="M86 1008h375l47 -375q8 -68 22 -161.5t17 -119.5h8q37 94 123 293l162 363h422l-596 -1008h-375z" />
<glyph unicode="w" horiz-adv-x="1613" d="M96 1008h367l-4 -359q1 -26 1 -56q0 -112 -9 -290h4q18 57 42.5 119t53 129t39.5 96l149 361h297l13 -342q5 -153 5 -264q0 -55 -1 -99h4q23 75 125 367l129 338h370l-499 -1008h-351l-14 258q-4 75 -12 346h-4q-28 -71 -64 -171t-59 -152l-121 -281h-350z" />
<glyph unicode="x" horiz-adv-x="1179" d="M-102 0l469 526l-275 482h408l51 -107q60 -125 82 -174h6q25 34 66.5 93t54.5 77l78 111h430l-457 -484l266 -524h-407l-56 125q-33 73 -75 186h-7q-12 -19 -49 -79.5t-65 -102.5l-86 -129h-434z" />
<glyph unicode="y" horiz-adv-x="1153" d="M-33 -154q98 20 178 70q101 63 158 156q12 19 4 53l-225 883h385l61 -377q10 -65 39 -228h4q81 214 84 222l158 383h389l-358 -680q-117 -225 -220 -371t-208 -242q-93 -87 -203.5 -133.5t-183.5 -52.5z" />
<glyph unicode="z" horiz-adv-x="1044" d="M-51 0l39 211l260 240q163 152 299 258l2 4h-434l57 295h889l-41 -217l-254 -236q-16 -14 -63.5 -58t-73 -67t-70 -60.5t-86.5 -70.5l-2 -4h477l-57 -295h-942z" />
<glyph unicode="{" horiz-adv-x="716" d="M78 500l33 176q53 4 89.5 18t55 38t26 42.5t13.5 46.5q7 43 20 154t23 162q51 268 362 268h99l-39 -201h-39q-59 0 -90 -32.5t-47 -100.5q-7 -29 -17 -110t-18 -130q-10 -66 -28.5 -110t-48.5 -70t-65.5 -39.5t-89.5 -21.5v-4q69 -10 114.5 -46.5t45.5 -105.5 q0 -60 -39 -196q-41 -144 -41 -189q0 -40 24 -59t64 -19h39l-37 -200h-75q-67 0 -115.5 9.5t-90 33t-62.5 68.5t-21 112q0 19 2.5 39t8 45.5t9.5 39.5t13.5 47t11.5 42q3 10 14.5 50.5t15.5 55.5t8.5 41t4.5 45q0 93 -133 101z" />
<glyph unicode="|" horiz-adv-x="524" d="M172 -512v2048h242v-2048h-242z" />
<glyph unicode="}" horiz-adv-x="716" d="M-61 -229l38 200h39q59 0 90.5 32.5t47.5 100.5q6 28 16 108t18 132q19 127 72 176.5t160 65.5v4q-69 10 -114.5 46t-45.5 105q0 16 2 34.5t7.5 41.5t9 37.5t11.5 43.5t11 40q3 13 10.5 40.5t11 42.5t8.5 36t7 37.5t2 31.5q0 40 -24 59t-64 19h-39l37 201h76 q67 0 115.5 -9.5t89.5 -33t62 -68.5t21 -112q0 -76 -43 -211q-45 -141 -45 -195q0 -92 133 -100l-32 -176q-53 -4 -89.5 -18t-55.5 -38.5t-26.5 -43t-13.5 -46.5q-7 -43 -20 -153.5t-23 -161.5q-51 -268 -362 -268h-98z" />
<glyph unicode="~" horiz-adv-x="1220" d="M76 371q0 223 77.5 324.5t227.5 101.5q74 0 135.5 -22.5t151.5 -74.5q54 -31 75.5 -42.5t50.5 -23t48 -11.5q55 0 65 161h238q15 -430 -297 -430q-78 0 -147 29t-160 86q-109 66 -148 66q-65 0 -82 -164h-235z" />
<glyph unicode="&#xa1;" horiz-adv-x="604" d="M-63 -385l229 903h268l-115 -903h-382zM127 782q0 104 68.5 171t177.5 67h2q86 0 140 -54t54 -139q0 -104 -67.5 -174.5t-175.5 -70.5q-86 0 -142.5 55.5t-56.5 144.5z" />
<glyph unicode="&#xa2;" d="M182 608q0 118 43.5 220.5t118.5 177t174.5 125t214.5 71.5l33 184h242l-33 -174q117 -5 186 -36l-108 -275q-71 33 -172 33q-134 0 -215.5 -77t-81.5 -198q0 -72 33 -121t82 -69t110 -20q92 0 184 40l23 -268q-113 -54 -240 -57l-33 -187h-241l37 193q-175 35 -263 145 q-94 117 -94 293z" />
<glyph unicode="&#xa3;" d="M18 0l31 193q66 23 143.5 81t114.5 125q33 52 23 115h-207l49 262h152q3 129 30 217q53 172 190.5 267.5t340.5 95.5q91 0 159 -17.5t103 -42.5l-98 -276q-63 35 -166 35q-87 0 -137.5 -42t-65.5 -110q-12 -56 -6 -127h293l-49 -262h-252q-5 -41 -31 -94 q-33 -68 -98 -109v-4h546l-45 -307h-1020z" />
<glyph unicode="&#xa4;" d="M35 1100l166 172l172 -191q101 72 250 72h2q146 0 247 -72l172 191l166 -172l-196 -172q73 -97 73 -234q0 -142 -83 -243l192 -179l-164 -163l-162 198q-47 -38 -113 -60t-134 -22t-134.5 22t-113.5 60l-162 -198l-164 163l193 179q-84 102 -84 243q0 137 73 234z M426 694q0 -106 62 -163.5t135 -57.5t134.5 57.5t61.5 163.5q0 98 -60 154.5t-136 56.5h-2q-75 0 -135 -57t-60 -154z" />
<glyph unicode="&#xa5;" d="M55 311l33 168h330l22 129h-331l32 168h242l-250 555h387l70 -262q6 -25 27 -110t30 -134h6q16 27 65 111.5t79 132.5l168 262h421l-477 -555h244l-33 -168h-338l-22 -129h338l-33 -168h-336l-59 -311h-342l57 311h-330z" />
<glyph unicode="&#xa6;" horiz-adv-x="524" d="M172 356h242v-716h-242v716zM172 664v716h242v-716h-242z" />
<glyph unicode="&#xa7;" horiz-adv-x="1277" d="M59 -70l99 222q67 -47 166.5 -80t191.5 -33q85 0 133.5 21t48.5 61q0 37 -44 64.5t-152 62.5q-36 11 -57 18t-58.5 21t-61.5 25.5t-58 29t-56 34.5t-46.5 41t-38 48t-23 55t-9.5 64q0 105 71.5 186.5t180.5 116.5q-63 68 -63 149q0 79 33.5 142.5t88 105t127 69.5 t146.5 40t151 12q242 0 383 -86l-84 -219q-142 71 -327 71q-87 0 -135 -24t-48 -66q0 -33 46.5 -58t166.5 -62q67 -21 115 -39.5t101.5 -49t87 -64t55.5 -82.5t22 -108q0 -97 -65.5 -174.5t-161.5 -119.5q74 -60 74 -160q0 -66 -23 -121t-64 -93t-92.5 -67t-112.5 -45.5 t-120 -24.5t-119 -8q-290 0 -469 125zM410 670q0 -91 159 -142q189 -60 240 -90q34 16 59 45t25 60q0 87 -109 131q-39 16 -145 55t-137 53q-35 -11 -63.5 -39.5t-28.5 -70.5v-2z" />
<glyph unicode="&#xa8;" horiz-adv-x="819" d="M147 1268q0 83 54.5 132.5t134.5 49.5q69 0 111 -43t42 -109q0 -83 -53 -131.5t-129 -48.5h-2q-65 0 -111.5 40.5t-46.5 109.5zM612 1268q0 83 54.5 132.5t134.5 49.5q69 0 111 -43t42 -109q0 -83 -53 -131.5t-129 -48.5h-2q-65 0 -111.5 40.5t-46.5 109.5z" />
<glyph unicode="&#xa9;" horiz-adv-x="1386" d="M92 696q0 128 50 245t135 201.5t202.5 134.5t247.5 50h2q128 0 244.5 -50t200 -134.5t133 -201.5t49.5 -245q0 -130 -49.5 -247.5t-133.5 -202.5t-200.5 -135t-245.5 -50q-130 0 -247.5 50t-202.5 135t-135 202.5t-50 247.5zM242 694q0 -137 65 -252.5t176 -182 t242 -66.5q97 -1 186 38.5t153.5 106.5t103 160t38.5 196q0 136 -64.5 251.5t-175.5 183t-241 67.5h-2q-130 0 -241 -67.5t-175.5 -183t-64.5 -251.5zM375 684q0 114 58 202.5t147.5 133.5t191.5 45q73 0 141.5 -18t87.5 -41l-32 -121q-26 14 -82 29.5t-113 15.5 q-111 0 -175 -62t-64 -178q0 -106 67.5 -173.5t171.5 -67.5q133 0 207 51l33 -119q-100 -68 -256 -68q-179 0 -281 104.5t-102 266.5z" />
<glyph unicode="&#xaa;" horiz-adv-x="937" d="M127 795q0 82 29 154.5t87.5 132.5t159 95t232.5 35q88 0 173 -18.5t134 -40.5l-70 -397q-14 -84 -14 -203h-250v92h-2q-89 -108 -241 -108q-99 0 -168.5 66t-69.5 192zM406 846q0 -55 26 -84t68 -29q39 0 72 26.5t49 65.5l28 191q-35 14 -71 14q-78 0 -125 -58t-47 -126 z" />
<glyph unicode="&#xab;" horiz-adv-x="1052" d="M41 516l262 399h270l-286 -399l198 -399h-243zM487 516l263 399h270l-287 -399l199 -399h-244z" />
<glyph unicode="&#xac;" horiz-adv-x="1220" d="M41 657v230h1057v-682h-242v452h-815z" />
<glyph unicode="&#xad;" horiz-adv-x="724" d="M35 393l47 246h602l-47 -246h-602z" />
<glyph unicode="&#xae;" horiz-adv-x="880" d="M166 1036q0 152 114 260.5t275 108.5h2q159 0 271 -108t112 -261q0 -154 -112 -262t-273 -108t-275 108t-114 262zM289 1034q0 -113 75.5 -191.5t188.5 -78.5q114 -1 190 78t76 194q0 114 -76 192.5t-190 78.5h-2q-112 0 -187 -79t-75 -194zM393 868v328q60 12 160 12 q102 0 143 -26q37 -23 37 -72q0 -24 -22 -44.5t-58 -29.5v-4q57 -18 72 -86q9 -44 23 -78h-132q-9 10 -22 66q-9 47 -51 47h-31v-113h-119zM516 1057h27q27 0 41 10.5t14 26.5q0 36 -51 36q-5 0 -16 -1t-15 -1v-71z" />
<glyph unicode="&#xb0;" horiz-adv-x="819" d="M156 1057q-1 91 47.5 171t133.5 128.5t185 48.5h2q149 0 246.5 -94.5t97.5 -233.5q0 -141 -107.5 -244.5t-258.5 -103.5q-152 0 -249 93.5t-97 234.5zM362 1057q0 -67 42 -108.5t108 -41.5q65 0 107.5 50.5t42.5 119.5q0 67 -37.5 108.5t-102.5 41.5h-2q-64 0 -111 -51.5 t-47 -118.5z" />
<glyph unicode="&#xb1;" horiz-adv-x="1220" d="M41 0v229h1057v-229h-1057zM41 637v229h408v336h241v-336h408v-229h-408v-340h-241v340h-408z" />
<glyph unicode="&#xb2;" horiz-adv-x="798" d="M92 834l25 133l155 102q160 105 233 168.5t73 114.5q0 69 -99 69q-108 0 -205 -65l-49 174q148 112 361 112q54 0 103 -10t99 -34t79.5 -73t29.5 -118q0 -55 -19.5 -100.5t-65 -87t-78 -64t-100.5 -64.5q-11 -7 -16 -10l-53 -32v-5h283l-41 -210h-715z" />
<glyph unicode="&#xb3;" horiz-adv-x="794" d="M98 909l97 187q38 -30 103.5 -53t125.5 -23q56 0 94.5 19t38.5 53t-48.5 55.5t-129.5 21.5h-35l33 164h31q73 0 126.5 16.5t53.5 49.5q0 20 -22.5 33.5t-67.5 13.5q-59 0 -126 -21t-106 -49l-26 176q137 90 348 90q74 0 143.5 -19t121.5 -65.5t52 -111.5q0 -72 -61 -118 t-162 -68v-5q72 -7 130 -51t58 -121q0 -67 -36 -118.5t-96 -81.5t-132 -45t-151 -15q-106 0 -201 22t-156 64z" />
<glyph unicode="&#xb4;" horiz-adv-x="819" d="M322 1126l188 328h346l-266 -328h-268z" />
<glyph unicode="&#xb5;" horiz-adv-x="1247" d="M-33 -410q-7 30 4.5 135.5t28.5 200.5l201 1082h362l-96 -525q-22 -120 3 -166.5t93 -46.5q51 0 96 50t70 114q7 15 14 45l103 529h364l-123 -658q-10 -51 8 -71.5t60 -22.5l-63 -258q-52 -23 -127 -23q-93 0 -144.5 49t-68.5 150h-9q-48 -92 -106.5 -141t-147.5 -49 q-90 0 -135 39l-14 -78q-47 -266 -45 -355h-328z" />
<glyph unicode="&#xb6;" horiz-adv-x="1214" d="M139 874q0 130 54 228t152 158t228 90t289 30q265 0 367 -24l-281 -1462h-248l238 1245h-156l-237 -1245h-248l123 634q-6 2 -18.5 6.5t-18.5 6.5q-119 50 -181.5 137t-62.5 196z" />
<glyph unicode="&#xb8;" horiz-adv-x="819" d="M43 -381l57 133q56 -37 115 -37q28 0 48 11.5t20 35.5q0 60 -160 70l108 178h201l-63 -94q60 -15 98.5 -49.5t38.5 -85.5q0 -59 -26.5 -102.5t-70.5 -66t-90 -32.5t-96 -10q-118 0 -180 49z" />
<glyph unicode="&#xb9;" horiz-adv-x="647" d="M205 1530l287 102h258l-152 -798h-301l106 563h-2l-172 -64z" />
<glyph unicode="&#xba;" horiz-adv-x="874" d="M109 838q0 174 119 274t313 100h2q71 0 133 -18.5t111.5 -54.5t78.5 -96.5t29 -137.5q0 -167 -121 -267.5t-330 -100.5q-88 0 -163 35t-123.5 105t-48.5 161zM387 829q0 -50 25.5 -82t66.5 -32q46 0 79 36t46.5 81.5t13.5 91.5q0 51 -23 80.5t-67 29.5h-2q-46 0 -79 -36 t-46.5 -81t-13.5 -88z" />
<glyph unicode="&#xbb;" horiz-adv-x="1048" d="M25 117l286 399l-198 399h243l201 -399l-262 -399h-270zM471 117l287 399l-199 399h244l201 -399l-263 -399h-270z" />
<glyph unicode="&#xbc;" horiz-adv-x="1884" d="M207 1243l287 103h258l-152 -799h-301l107 563h-3l-172 -63zM326 -25l1001 1381h217l-1001 -1381h-217zM926 176l30 152l435 481h362l-86 -455h109l-35 -178h-109l-33 -176h-278l33 176h-428zM1231 356l8 -2h150l20 111q5 28 21 85t22 87h-6q-69 -104 -117 -160z" />
<glyph unicode="&#xbd;" horiz-adv-x="1884" d="M180 1243l287 103h258l-152 -799h-301l107 563h-2l-172 -63zM274 -25l1014 1381h205l-1014 -1381h-205zM993 0l25 133l156 103q165 111 235 171t70 111q0 33 -25 51.5t-74 18.5q-106 0 -204 -66l-50 174q150 113 361 113q42 0 81.5 -5.5t82.5 -21.5t74.5 -41.5t52 -68.5 t20.5 -99q0 -55 -20.5 -101t-62 -84.5t-80 -65.5t-98.5 -64q-11 -7 -17 -10l-54 -33v-4h283l-41 -211h-715z" />
<glyph unicode="&#xbe;" horiz-adv-x="1884" d="M53 623l97 186q38 -30 103.5 -53t125.5 -23q56 0 94.5 19t38.5 53t-48.5 56t-129.5 22h-35l33 164h30q73 0 127 16t54 49q0 20 -22.5 33.5t-67.5 13.5q-59 0 -126.5 -21t-105.5 -48l-26 176q137 90 348 90q54 0 108 -11.5t101.5 -34.5t77.5 -62t30 -89q0 -137 -221 -186 l-2 -4q72 -7 130 -51t58 -121q0 -67 -36 -118.5t-96 -81.5t-132 -45t-151 -15q-106 0 -201 22t-156 64zM393 -25l1002 1381h217l-1002 -1381h-217zM946 176l31 152l434 481h363l-86 -455h108l-35 -178h-108l-33 -176h-279l33 176h-428zM1251 356l9 -2h149l21 111q5 28 21 85 t22 87h-7q-72 -109 -116 -160z" />
<glyph unicode="&#xbf;" horiz-adv-x="1028" d="M-16 -119q0 30 5.5 59t12.5 51t23.5 49t27.5 43t36.5 43.5t37.5 40t44.5 43.5t45.5 44q54 51 82.5 100.5t46.5 118.5l10 45h363q-4 -38 -8 -57q-31 -163 -181 -324q-28 -30 -77 -71.5t-74 -69t-25 -51.5q0 -32 24 -49.5t83 -20.5q156 0 258 64l55 -242 q-170 -107 -416 -107q-67 0 -129.5 15t-119 47t-91 91t-34.5 138zM365 782q0 105 68.5 171.5t176.5 66.5h2q86 0 140.5 -54t54.5 -139q0 -104 -68 -174.5t-176 -70.5q-86 0 -142 55t-56 145z" />
<glyph unicode="&#xc0;" horiz-adv-x="1437" d="M-51 0l690 1380h489l197 -1380h-393l-25 340h-407l-150 -340h-401zM483 1720h398l168 -260h-320zM608 618h279l-25 244q-19 189 -28 258h-5q-16 -35 -53.5 -126t-58.5 -134z" />
<glyph unicode="&#xc1;" horiz-adv-x="1437" d="M-51 0l690 1380h489l197 -1380h-393l-25 340h-407l-150 -340h-401zM608 618h279l-25 244q-19 189 -28 258h-5q-16 -35 -53.5 -126t-58.5 -134zM709 1454l168 266h397l-246 -266h-319z" />
<glyph unicode="&#xc2;" horiz-adv-x="1437" d="M-51 0l690 1380h489l197 -1380h-393l-25 340h-407l-150 -340h-401zM535 1454l260 266h286l172 -266h-245l-84 117h-4l-113 -117h-272zM608 618h279l-25 244q-19 189 -28 258h-5q-16 -35 -53.5 -126t-58.5 -134z" />
<glyph unicode="&#xc3;" horiz-adv-x="1437" d="M-51 0l690 1380h489l197 -1380h-393l-25 340h-407l-150 -340h-401zM567 1460q23 147 82 220t144 73q63 0 135 -41q3 -2 9.5 -6.5t9.5 -6.5l9 -6l9 -6t8 -5t8 -4.5t7.5 -3.5t8 -3t7.5 -1.5t8 -0.5q28 0 43 20t30 74h168q-22 -153 -79 -219.5t-150 -66.5q-70 0 -137 39 q-6 4 -21.5 14t-22 13.5t-17.5 7t-21 3.5q-43 0 -66 -94h-172zM608 618h279l-25 244q-19 189 -28 258h-5q-16 -35 -53.5 -126t-58.5 -134z" />
<glyph unicode="&#xc4;" horiz-adv-x="1437" d="M-51 0l690 1380h489l197 -1380h-393l-25 340h-407l-150 -340h-401zM494 1591q0 80 51.5 128t128.5 48q68 0 108.5 -41t40.5 -104q0 -80 -51.5 -127t-124.5 -47h-2q-62 0 -106.5 38.5t-44.5 104.5zM608 618h279l-25 244q-19 189 -28 258h-5q-16 -35 -53.5 -126t-58.5 -134 zM958 1591q0 80 52 128t129 48q68 0 108.5 -41t40.5 -104q0 -80 -51.5 -127t-124.5 -47h-2q-62 0 -107 38.5t-45 104.5z" />
<glyph unicode="&#xc5;" horiz-adv-x="1437" d="M-51 0l690 1380h489l197 -1380h-393l-25 340h-407l-150 -340h-401zM608 618h279l-25 244q-19 189 -28 258h-5q-16 -35 -53.5 -126t-58.5 -134zM668 1618q-4 110 76.5 173.5t205.5 63.5h2q99 0 168.5 -48.5t69.5 -147.5q-4 -110 -86 -168.5t-205 -58.5q-59 0 -109 20 t-84.5 63t-37.5 103zM834 1632q0 -37 23 -59.5t61 -22.5q45 0 74.5 28.5t29.5 68.5t-23 64t-63 24h-2q-43 0 -71.5 -29t-28.5 -74z" />
<glyph unicode="&#xc6;" horiz-adv-x="1998" d="M-82 0l870 1380h1188l-57 -307h-600l-8 -219h567l-59 -307h-512l-4 -240h575l-59 -307h-885l10 330h-438l-191 -330h-397zM688 635h268l13 307q1 28 2 83t2 83h-6q-14 -25 -43 -75.5t-43 -74.5z" />
<glyph unicode="&#xc7;" horiz-adv-x="1355" d="M109 608q0 235 109 410t298 274q220 113 524 113q117 0 210 -19.5t141 -42.5l-95 -290q-125 45 -280 45q-193 0 -314 -78q-92 -58 -143 -155.5t-51 -225.5q0 -169 108 -262.5t295 -93.5q161 0 285 57l39 -285q-66 -32 -171 -56t-204 -24l-41 -59q61 -15 99 -51t38 -92 q0 -52 -26.5 -91.5t-70 -60.5t-90 -31t-95.5 -10q-118 0 -180 49l57 119q58 -33 115 -33q28 0 47.5 11.5t19.5 35.5q0 60 -160 70l101 152q-261 37 -413 195.5t-152 428.5z" />
<glyph unicode="&#xc8;" horiz-adv-x="1191" d="M27 0l260 1380h952l-59 -307h-586l-41 -219h553l-59 -307h-551l-45 -240h616l-57 -307h-983zM406 1720h397l168 -260h-320z" />
<glyph unicode="&#xc9;" horiz-adv-x="1191" d="M27 0l260 1380h952l-59 -307h-586l-41 -219h553l-59 -307h-551l-45 -240h616l-57 -307h-983zM584 1454l168 266h397l-246 -266h-319z" />
<glyph unicode="&#xca;" horiz-adv-x="1191" d="M27 0l260 1380h952l-59 -307h-586l-41 -219h553l-59 -307h-551l-45 -240h616l-57 -307h-983zM412 1454l260 266h286l172 -266h-245l-84 117h-4l-113 -117h-272z" />
<glyph unicode="&#xcb;" horiz-adv-x="1191" d="M27 0l260 1380h952l-59 -307h-586l-41 -219h553l-59 -307h-551l-45 -240h616l-57 -307h-983zM401 1591q0 80 52 128t129 48q68 0 108.5 -41t40.5 -104q0 -80 -51.5 -127t-124.5 -47h-2q-62 0 -107 38.5t-45 104.5zM866 1591q0 80 52 128t129 48q68 0 108.5 -41t40.5 -104 q0 -80 -51.5 -127t-124.5 -47h-2q-62 0 -107 38.5t-45 104.5z" />
<glyph unicode="&#xcc;" horiz-adv-x="614" d="M16 0l260 1380h365l-260 -1380h-365zM96 1720h398l168 -260h-320z" />
<glyph unicode="&#xcd;" horiz-adv-x="614" d="M16 0l260 1380h365l-260 -1380h-365zM297 1454l168 266h397l-246 -266h-319z" />
<glyph unicode="&#xce;" horiz-adv-x="614" d="M16 0l260 1380h365l-260 -1380h-365zM102 1454l260 266h287l172 -266h-246l-83 117h-5l-112 -117h-273z" />
<glyph unicode="&#xcf;" horiz-adv-x="614" d="M16 0l260 1380h365l-260 -1380h-365zM92 1591q0 80 51.5 128t128.5 48q68 0 109 -41t41 -104q0 -80 -51.5 -127t-124.5 -47h-2q-62 0 -107 38.5t-45 104.5zM557 1591q0 80 51.5 128t128.5 48q68 0 109 -41t41 -104q0 -80 -51.5 -127t-124.5 -47h-2q-62 0 -107 38.5 t-45 104.5z" />
<glyph unicode="&#xd0;" horiz-adv-x="1599" d="M12 547l62 311h159l95 500q186 33 420 33q378 0 557 -115q118 -75 181.5 -200.5t63.5 -295.5q0 -184 -72 -336.5t-206 -255.5t-315.5 -150.5t-444.5 -47.5q-298 0 -440 30l102 527h-162zM496 287q38 -6 122 -6q118 0 222 34t170 99q137 131 137 342q0 344 -373 344 q-71 0 -125 -8l-45 -234h268l-59 -311h-268z" />
<glyph unicode="&#xd1;" horiz-adv-x="1501" d="M27 0l260 1380h463l135 -401q81 -244 147 -530h6q2 170 58 469l86 462h348l-260 -1380h-402l-153 459q-118 363 -160 532h-8q-15 -143 -94 -563l-80 -428h-346zM616 1460q23 147 82 220t144 73q63 0 135 -41q3 -2 9.5 -6.5t9.5 -6.5l9 -6l9 -6t8 -5t8 -4.5t7.5 -3.5t8 -3 t7.5 -1.5t8 -0.5q28 0 43.5 20t30.5 74h168q-22 -153 -79.5 -219.5t-150.5 -66.5q-70 0 -137 39q-6 4 -21.5 14t-22 13.5t-17.5 7t-21 3.5q-43 0 -66 -94h-172z" />
<glyph unicode="&#xd2;" horiz-adv-x="1628" d="M106 598q0 177 62.5 326.5t177.5 257.5q114 107 264.5 165t323.5 58q142 0 260 -41.5t204 -119.5t133.5 -198t47.5 -270q0 -176 -60.5 -324t-172.5 -255q-111 -106 -262 -164t-328 -58h-2q-187 0 -333 73t-230.5 215.5t-84.5 334.5zM500 623q0 -167 78.5 -258t226.5 -91 h2q132 0 235 103q67 67 105.5 167.5t38.5 209.5q0 77 -16 139.5t-49.5 111t-91.5 75t-136 26.5q-139 0 -246 -107q-70 -70 -108.5 -170t-38.5 -206zM569 1720h398l168 -260h-320z" />
<glyph unicode="&#xd3;" horiz-adv-x="1628" d="M106 598q0 177 62.5 326.5t177.5 257.5q114 107 264.5 165t323.5 58q142 0 260 -41.5t204 -119.5t133.5 -198t47.5 -270q0 -176 -60.5 -324t-172.5 -255q-111 -106 -262 -164t-328 -58h-2q-187 0 -333 73t-230.5 215.5t-84.5 334.5zM500 623q0 -167 78.5 -258t226.5 -91 h2q132 0 235 103q67 67 105.5 167.5t38.5 209.5q0 77 -16 139.5t-49.5 111t-91.5 75t-136 26.5q-139 0 -246 -107q-70 -70 -108.5 -170t-38.5 -206zM784 1464l168 267h398l-246 -267h-320z" />
<glyph unicode="&#xd4;" horiz-adv-x="1628" d="M106 598q0 177 62.5 326.5t177.5 257.5q114 107 264.5 165t323.5 58q142 0 260 -41.5t204 -119.5t133.5 -198t47.5 -270q0 -176 -60.5 -324t-172.5 -255q-111 -106 -262 -164t-328 -58h-2q-187 0 -333 73t-230.5 215.5t-84.5 334.5zM500 623q0 -167 78.5 -258t226.5 -91 h2q132 0 235 103q67 67 105.5 167.5t38.5 209.5q0 77 -16 139.5t-49.5 111t-91.5 75t-136 26.5q-139 0 -246 -107q-70 -70 -108.5 -170t-38.5 -206zM590 1454l260 266h287l172 -266h-246l-84 117h-4l-113 -117h-272z" />
<glyph unicode="&#xd5;" horiz-adv-x="1628" d="M106 598q0 177 62.5 326.5t177.5 257.5q114 107 264.5 165t323.5 58q142 0 260 -41.5t204 -119.5t133.5 -198t47.5 -270q0 -176 -60.5 -324t-172.5 -255q-111 -106 -262 -164t-328 -58h-2q-187 0 -333 73t-230.5 215.5t-84.5 334.5zM500 623q0 -167 78.5 -258t226.5 -91 h2q132 0 235 103q67 67 105.5 167.5t38.5 209.5q0 77 -16 139.5t-49.5 111t-91.5 75t-136 26.5q-139 0 -246 -107q-70 -70 -108.5 -170t-38.5 -206zM643 1460q23 148 81.5 220.5t143.5 72.5q64 0 136 -41q3 -2 13 -9t13.5 -9.5t11.5 -8t12.5 -7t10.5 -4.5t11.5 -4t10.5 -1 q28 0 43.5 20t30.5 74h168q-22 -153 -79 -219.5t-150 -66.5q-70 0 -137 39q-6 4 -21.5 14t-22 13.5t-17.5 7t-21 3.5q-43 0 -66 -94h-172z" />
<glyph unicode="&#xd6;" horiz-adv-x="1628" d="M106 598q0 177 62.5 326.5t177.5 257.5q114 107 264.5 165t323.5 58q142 0 260 -41.5t204 -119.5t133.5 -198t47.5 -270q0 -176 -60.5 -324t-172.5 -255q-111 -106 -262 -164t-328 -58h-2q-187 0 -333 73t-230.5 215.5t-84.5 334.5zM500 623q0 -167 78.5 -258t226.5 -91 h2q132 0 235 103q67 67 105.5 167.5t38.5 209.5q0 77 -16 139.5t-49.5 111t-91.5 75t-136 26.5q-139 0 -246 -107q-70 -70 -108.5 -170t-38.5 -206zM590 1591q0 80 51.5 128t128.5 48q68 0 109 -41t41 -104q0 -80 -52 -127t-125 -47h-2q-62 0 -106.5 38.5t-44.5 104.5z M1055 1591q0 80 51.5 128t128.5 48q68 0 108.5 -41t40.5 -104q0 -80 -51.5 -127t-124.5 -47h-2q-62 0 -106.5 38.5t-44.5 104.5z" />
<glyph unicode="&#xd7;" horiz-adv-x="1220" d="M33 162l381 377l-381 376l160 162l376 -383l377 383l160 -162l-381 -376l381 -377l-160 -162l-377 383l-376 -383z" />
<glyph unicode="&#xd8;" horiz-adv-x="1628" d="M98 8l152 170q-144 170 -144 438q0 333 242 564q111 108 257 166.5t308 58.5q215 0 355 -80l170 193l190 -162l-170 -193q121 -149 121 -415q0 -156 -62.5 -300t-173.5 -251q-109 -104 -259 -163t-308 -59q-182 0 -313 64l-187 -209zM502 465h4l541 612q-57 29 -142 29 q-134 0 -237.5 -82t-151.5 -209q-68 -176 -14 -350zM682 291q50 -17 115 -17q130 0 227 75t143 196q59 147 31 323h-4z" />
<glyph unicode="&#xd9;" horiz-adv-x="1484" d="M127 467q0 78 18 184l138 729h364l-141 -749q-14 -68 -14 -164q2 -77 54.5 -135t153.5 -58q125 0 201 86t111 271l141 749h365l-140 -739q-26 -139 -65 -243t-97 -186t-137 -133t-184.5 -77.5t-239.5 -26.5q-251 -3 -389.5 123t-138.5 369zM532 1720h398l168 -260h-320z " />
<glyph unicode="&#xda;" horiz-adv-x="1484" d="M127 467q0 78 18 184l138 729h364l-141 -749q-14 -68 -14 -164q2 -77 54.5 -135t153.5 -58q125 0 201 86t111 271l141 749h365l-140 -739q-26 -139 -65 -243t-97 -186t-137 -133t-184.5 -77.5t-239.5 -26.5q-251 -3 -389.5 123t-138.5 369zM733 1454l168 266h397 l-245 -266h-320z" />
<glyph unicode="&#xdb;" horiz-adv-x="1484" d="M127 467q0 78 18 184l138 729h364l-141 -749q-14 -68 -14 -164q2 -77 54.5 -135t153.5 -58q125 0 201 86t111 271l141 749h365l-140 -739q-26 -139 -65 -243t-97 -186t-137 -133t-184.5 -77.5t-239.5 -26.5q-251 -3 -389.5 123t-138.5 369zM553 1454l260 266h287 l172 -266h-246l-84 117h-4l-113 -117h-272z" />
<glyph unicode="&#xdc;" horiz-adv-x="1484" d="M127 467q0 78 18 184l138 729h364l-141 -749q-14 -68 -14 -164q2 -77 54.5 -135t153.5 -58q125 0 201 86t111 271l141 749h365l-140 -739q-26 -139 -65 -243t-97 -186t-137 -133t-184.5 -77.5t-239.5 -26.5q-251 -3 -389.5 123t-138.5 369zM537 1591q0 80 51.5 128 t128.5 48q68 0 108.5 -41t40.5 -104q0 -80 -51.5 -127t-124.5 -47h-2q-62 0 -106.5 38.5t-44.5 104.5zM1001 1591q0 80 52 128t129 48q68 0 108.5 -41t40.5 -104q0 -80 -51.5 -127t-124.5 -47h-2q-62 0 -107 38.5t-45 104.5z" />
<glyph unicode="&#xdd;" horiz-adv-x="1351" d="M137 1380h391l86 -313q9 -31 24 -80t25 -85t19 -75h4q114 186 150 248l180 305h452l-643 -790l-112 -590h-365l109 575zM618 1454l168 266h398l-246 -266h-320z" />
<glyph unicode="&#xde;" horiz-adv-x="1261" d="M27 0l260 1380h356l-45 -245q75 6 145 6q223 0 349 -90q149 -107 149 -295q0 -112 -35.5 -202t-96 -149.5t-145 -99t-178 -57t-200.5 -17.5q-82 0 -156 11l-47 -242h-356zM485 537q50 -13 127 -13q111 0 185.5 47t74.5 134q0 149 -217 149q-62 0 -112 -8z" />
<glyph unicode="&#xdf;" horiz-adv-x="1290" d="M18 0l177 928q51 270 210 416.5t429 146.5q65 0 126.5 -13t117.5 -41.5t98 -69.5t67 -101t25 -133q0 -127 -88 -203q-32 -20 -48.5 -31.5t-38.5 -32t-32 -43.5t-10 -51q0 -56 49 -139q88 -153 88 -260q0 -106 -36 -184.5t-100.5 -124t-146.5 -67.5t-182 -22 q-83 0 -150.5 17t-103.5 39l84 264q65 -37 158 -37q104 0 104 72q0 40 -51 129q-32 55 -45.5 80t-30 74t-16.5 92q0 92 58 169.5t151 131.5q26 37 26 75q0 53 -34 85t-89 32q-78 0 -139 -66.5t-90 -218.5l-172 -913h-365z" />
<glyph unicode="&#xe0;" horiz-adv-x="1245" d="M49 350q0 106 28 203.5t89.5 185t150.5 152.5t219.5 103t288.5 38q196 0 379 -59l-106 -518q-17 -94 -29.5 -226t-9.5 -229h-340q8 117 10 178h-4q-114 -203 -338 -203q-145 0 -241.5 102t-96.5 273zM391 1454h346l189 -328h-269zM436 414q0 -71 32 -109.5t79 -38.5 q28 0 55.5 14t57 47.5t55.5 99t43 157.5l35 166q-35 6 -70 6q-80 0 -147.5 -53t-103.5 -131t-36 -158z" />
<glyph unicode="&#xe1;" horiz-adv-x="1245" d="M49 350q0 106 28 203.5t89.5 185t150.5 152.5t219.5 103t288.5 38q196 0 379 -59l-106 -518q-17 -94 -29.5 -226t-9.5 -229h-340q8 117 10 178h-4q-114 -203 -338 -203q-145 0 -241.5 102t-96.5 273zM436 414q0 -71 32 -109.5t79 -38.5q28 0 55.5 14t57 47.5t55.5 99 t43 157.5l35 166q-35 6 -70 6q-80 0 -147.5 -53t-103.5 -131t-36 -158zM647 1126l189 328h346l-267 -328h-268z" />
<glyph unicode="&#xe2;" horiz-adv-x="1245" d="M49 350q0 106 28 203.5t89.5 185t150.5 152.5t219.5 103t288.5 38q196 0 379 -59l-106 -518q-17 -94 -29.5 -226t-9.5 -229h-340q8 117 10 178h-4q-114 -203 -338 -203q-145 0 -241.5 102t-96.5 273zM436 414q0 -71 32 -109.5t79 -38.5q28 0 55.5 14t57 47.5t55.5 99 t43 157.5l35 166q-35 6 -70 6q-80 0 -147.5 -53t-103.5 -131t-36 -158zM444 1126l263 328h254l169 -328h-227l-90 156h-4l-115 -156h-250z" />
<glyph unicode="&#xe3;" horiz-adv-x="1245" d="M49 350q0 106 28 203.5t89.5 185t150.5 152.5t219.5 103t288.5 38q196 0 379 -59l-106 -518q-17 -94 -29.5 -226t-9.5 -229h-340q8 117 10 178h-4q-114 -203 -338 -203q-145 0 -241.5 102t-96.5 273zM436 414q0 -71 32 -109.5t79 -38.5q28 0 55.5 14t57 47.5t55.5 99 t43 157.5l35 166q-35 6 -70 6q-80 0 -147.5 -53t-103.5 -131t-36 -158zM436 1128q21 147 81 220t145 73q65 0 133 -41q62 -43 86 -43q27 0 41 19.5t32 75.5h168q-22 -153 -80 -220t-151 -67q-87 0 -146 45q-45 33 -75 33q-18 0 -35.5 -27t-26.5 -68h-172z" />
<glyph unicode="&#xe4;" horiz-adv-x="1245" d="M49 350q0 106 28 203.5t89.5 185t150.5 152.5t219.5 103t288.5 38q196 0 379 -59l-106 -518q-17 -94 -29.5 -226t-9.5 -229h-340q8 117 10 178h-4q-114 -203 -338 -203q-145 0 -241.5 102t-96.5 273zM360 1268q0 83 54.5 132.5t134.5 49.5q69 0 111 -43t42 -109 q0 -83 -53 -131.5t-129 -48.5h-2q-65 0 -111.5 40.5t-46.5 109.5zM436 414q0 -71 32 -109.5t79 -38.5q28 0 55.5 14t57 47.5t55.5 99t43 157.5l35 166q-35 6 -70 6q-80 0 -147.5 -53t-103.5 -131t-36 -158zM825 1268q0 83 54.5 132.5t134.5 49.5q69 0 111 -43t42 -109 q0 -83 -53 -131.5t-129 -48.5h-2q-65 0 -111.5 40.5t-46.5 109.5z" />
<glyph unicode="&#xe5;" horiz-adv-x="1245" d="M49 350q0 106 28 203.5t89.5 185t150.5 152.5t219.5 103t288.5 38q196 0 379 -59l-106 -518q-17 -94 -29.5 -226t-9.5 -229h-340q8 117 10 178h-4q-114 -203 -338 -203q-145 0 -241.5 102t-96.5 273zM436 414q0 -71 32 -109.5t79 -38.5q28 0 55.5 14t57 47.5t55.5 99 t43 157.5l35 166q-35 6 -70 6q-80 0 -147.5 -53t-103.5 -131t-36 -158zM512 1290q-4 110 77.5 174t207.5 64h2q99 0 168 -49t69 -148q-4 -110 -86.5 -168.5t-206.5 -58.5q-59 0 -109 20t-84.5 63t-37.5 103zM680 1305q0 -37 23 -59.5t61 -22.5q45 0 74.5 28t29.5 70 q0 40 -23 64t-63 24h-2q-43 0 -71.5 -28.5t-28.5 -75.5z" />
<glyph unicode="&#xe6;" horiz-adv-x="1720" d="M8 268q0 93 45 168t115.5 122t164 78.5t183.5 45t182 14.5l2 9q1 5 -2 13.5t-13.5 19.5t-27.5 21t-46.5 16.5t-67.5 6.5q-170 0 -314 -98l-55 223q70 48 175.5 86.5t236.5 38.5q110 0 191 -35t120 -104h6q60 63 154 101t209 38q101 0 180.5 -27.5t125 -72.5t68.5 -96 t23 -103q0 -77 -25.5 -136.5t-72 -97.5t-111 -64t-142.5 -36.5t-166.5 -15t-182.5 1.5q3 -36 26 -59q66 -66 209 -66q95 0 166.5 15.5t157.5 50.5l2 -254q-167 -97 -412 -97q-114 0 -208 42t-144 118h-8q-167 -160 -396 -160q-152 0 -250 81.5t-98 211.5zM385 332 q0 -80 104 -80q58 0 104.5 38t59.5 103l13 70q-41 -1 -82 -6.5t-89.5 -18.5t-79 -40.5t-30.5 -65.5zM1001 633q139 -9 221.5 3t82.5 62v2q0 31 -28 53.5t-83 22.5q-83 0 -135 -48t-58 -95z" />
<glyph unicode="&#xe7;" horiz-adv-x="978" d="M53 420q0 175 90 314.5t253 218.5t370 79q126 0 223 -33l-86 -272q-57 23 -137 23q-151 0 -238.5 -86.5t-87.5 -208.5q0 -96 58 -143.5t137 -47.5q112 0 205 41l4 -272q-51 -24 -111.5 -39t-97.5 -17l-41 -61q60 -15 98.5 -52.5t38.5 -94.5q0 -55 -26.5 -95.5t-68.5 -62 t-85 -31.5t-86 -10q-60 0 -114 13t-83 36l58 133q63 -37 118 -37q64 0 64 47q0 60 -160 70l98 150q-185 20 -289 135.5t-104 302.5z" />
<glyph unicode="&#xe8;" horiz-adv-x="1150" d="M57 426q0 93 27.5 181.5t82.5 165.5t130.5 135t177.5 91t217 33q110 0 199 -34.5t146 -111t57 -184.5q0 -179 -172 -259.5t-521 -71.5q11 -37 39 -62q62 -53 195 -53q173 0 311 66l21 -259q-170 -88 -422 -88q-233 0 -360.5 115t-127.5 336zM319 1454h347l188 -328h-268z M436 633q178 0 245 18.5t67 63.5v2q0 23 -27.5 41t-71.5 18q-95 0 -150 -47t-63 -96z" />
<glyph unicode="&#xe9;" horiz-adv-x="1150" d="M57 426q0 93 27.5 181.5t82.5 165.5t130.5 135t177.5 91t217 33q110 0 199 -34.5t146 -111t57 -184.5q0 -179 -172 -259.5t-521 -71.5q11 -37 39 -62q62 -53 195 -53q173 0 311 66l21 -259q-170 -88 -422 -88q-233 0 -360.5 115t-127.5 336zM436 633q178 0 245 18.5 t67 63.5v2q0 23 -27.5 41t-71.5 18q-95 0 -150 -47t-63 -96zM559 1126l189 328h346l-267 -328h-268z" />
<glyph unicode="&#xea;" horiz-adv-x="1150" d="M57 426q0 93 27.5 181.5t82.5 165.5t130.5 135t177.5 91t217 33q110 0 199 -34.5t146 -111t57 -184.5q0 -179 -172 -259.5t-521 -71.5q11 -37 39 -62q62 -53 195 -53q173 0 311 66l21 -259q-170 -88 -422 -88q-233 0 -360.5 115t-127.5 336zM346 1126l262 328h254 l170 -328h-227l-90 156h-4l-115 -156h-250zM436 633q178 0 245 18.5t67 63.5v2q0 23 -27.5 41t-71.5 18q-95 0 -150 -47t-63 -96z" />
<glyph unicode="&#xeb;" horiz-adv-x="1150" d="M57 426q0 93 27.5 181.5t82.5 165.5t130.5 135t177.5 91t217 33q110 0 199 -34.5t146 -111t57 -184.5q0 -179 -172 -259.5t-521 -71.5q11 -37 39 -62q62 -53 195 -53q173 0 311 66l21 -259q-170 -88 -422 -88q-233 0 -360.5 115t-127.5 336zM313 1268q0 83 54.5 132.5 t134.5 49.5q69 0 111 -43t42 -109q0 -83 -53 -131.5t-129 -48.5h-2q-65 0 -111.5 40.5t-46.5 109.5zM436 633q178 0 245 18.5t67 63.5v2q0 23 -27.5 41t-71.5 18q-95 0 -150 -47t-63 -96zM778 1268q0 83 54.5 132.5t134.5 49.5q69 0 111 -43t42 -109q0 -83 -53 -131.5 t-129 -48.5h-2q-65 0 -111.5 40.5t-46.5 109.5z" />
<glyph unicode="&#xec;" horiz-adv-x="606" d="M18 0l191 1008h364l-190 -1008h-365zM29 1454h346l188 -328h-268z" />
<glyph unicode="&#xed;" horiz-adv-x="606" d="M18 0l191 1008h364l-190 -1008h-365zM264 1126l189 328h346l-267 -328h-268z" />
<glyph unicode="&#xee;" horiz-adv-x="606" d="M18 0l191 1008h364l-190 -1008h-365zM74 1126l262 328h254l170 -328h-228l-90 156h-4l-114 -156h-250z" />
<glyph unicode="&#xef;" horiz-adv-x="606" d="M18 0l191 1008h364l-190 -1008h-365zM41 1268q0 83 54 132.5t134 49.5q69 0 111.5 -43t42.5 -109q0 -83 -53 -131.5t-129 -48.5h-2q-65 0 -111.5 40.5t-46.5 109.5zM506 1268q0 83 54 132.5t134 49.5q69 0 111.5 -43t42.5 -109q0 -83 -53 -131.5t-129 -48.5h-2 q-65 0 -111.5 40.5t-46.5 109.5z" />
<glyph unicode="&#xf0;" horiz-adv-x="1271" d="M49 422q0 114 46.5 213.5t125 168t183.5 107.5t221 39q86 0 145 -30l4 4q-46 98 -119 149l-360 -139l-41 145l252 99q-77 51 -184 86l153 202q194 -59 356 -166l343 127l45 -143l-248 -92q101 -90 163 -237.5t62 -321.5q0 -137 -43.5 -256t-125 -208.5t-207 -141.5 t-279.5 -52q-137 0 -247 50t-177.5 153t-67.5 244zM432 426q0 -72 40 -123t110 -51h2q56 0 100 27t69 70t37.5 90.5t12.5 95.5q0 44 -4 62t-17 38q-38 51 -131 51q-95 0 -157 -81.5t-62 -178.5z" />
<glyph unicode="&#xf1;" horiz-adv-x="1255" d="M18 0l123 657q23 114 60 351h323l-18 -166h4q143 190 367 190q141 0 209.5 -77.5t68.5 -211.5q0 -75 -14 -161l-111 -582h-364l98 524q10 58 10 111q0 51 -18.5 78.5t-65.5 27.5q-75 0 -138 -91t-93 -251l-76 -399h-365zM422 1128q21 147 80.5 220t144.5 73q65 0 133 -41 q62 -43 86 -43q27 0 41.5 19.5t32.5 75.5h168q-22 -153 -80 -220t-151 -67q-87 0 -146 45q-45 33 -76 33q-18 0 -35 -27t-26 -68h-172z" />
<glyph unicode="&#xf2;" horiz-adv-x="1271" d="M61 416q0 130 48 243.5t133 196t208 129.5t267 47q135 0 244 -51t174 -150t65 -229q0 -120 -33 -221.5t-93 -175.5t-142.5 -126.5t-181 -78t-209.5 -25.5h-2q-96 0 -180.5 27t-152 79.5t-106.5 138.5t-39 196zM348 1454h346l189 -328h-269zM444 420q0 -82 40 -125 t108 -43h2q56 0 101 33t70.5 84.5t38.5 107t13 107.5q0 76 -35.5 124t-109.5 48q-61 0 -107.5 -36t-71.5 -91t-37 -109t-12 -100z" />
<glyph unicode="&#xf3;" horiz-adv-x="1271" d="M61 416q0 130 48 243.5t133 196t208 129.5t267 47q135 0 244 -51t174 -150t65 -229q0 -120 -33 -221.5t-93 -175.5t-142.5 -126.5t-181 -78t-209.5 -25.5h-2q-96 0 -180.5 27t-152 79.5t-106.5 138.5t-39 196zM444 420q0 -82 40 -125t108 -43h2q56 0 101 33t70.5 84.5 t38.5 107t13 107.5q0 76 -35.5 124t-109.5 48q-61 0 -107.5 -36t-71.5 -91t-37 -109t-12 -100zM580 1126l188 328h346l-266 -328h-268z" />
<glyph unicode="&#xf4;" horiz-adv-x="1271" d="M61 416q0 130 48 243.5t133 196t208 129.5t267 47q135 0 244 -51t174 -150t65 -229q0 -120 -33 -221.5t-93 -175.5t-142.5 -126.5t-181 -78t-209.5 -25.5h-2q-96 0 -180.5 27t-152 79.5t-106.5 138.5t-39 196zM387 1126l262 328h254l170 -328h-227l-90 156h-4l-115 -156 h-250zM444 420q0 -82 40 -125t108 -43h2q56 0 101 33t70.5 84.5t38.5 107t13 107.5q0 76 -35.5 124t-109.5 48q-61 0 -107.5 -36t-71.5 -91t-37 -109t-12 -100z" />
<glyph unicode="&#xf5;" horiz-adv-x="1271" d="M61 416q0 130 48 243.5t133 196t208 129.5t267 47q135 0 244 -51t174 -150t65 -229q0 -120 -33 -221.5t-93 -175.5t-142.5 -126.5t-181 -78t-209.5 -25.5h-2q-96 0 -180.5 27t-152 79.5t-106.5 138.5t-39 196zM399 1128q21 147 81 220t145 73q65 0 133 -41q62 -43 86 -43 q27 0 41.5 19.5t32.5 75.5h167q-22 -153 -80 -220t-151 -67q-86 0 -145 45q-45 33 -76 33q-18 0 -35.5 -27t-26.5 -68h-172zM444 420q0 -82 40 -125t108 -43h2q56 0 101 33t70.5 84.5t38.5 107t13 107.5q0 76 -35.5 124t-109.5 48q-61 0 -107.5 -36t-71.5 -91t-37 -109 t-12 -100z" />
<glyph unicode="&#xf6;" horiz-adv-x="1271" d="M61 416q0 130 48 243.5t133 196t208 129.5t267 47q135 0 244 -51t174 -150t65 -229q0 -120 -33 -221.5t-93 -175.5t-142.5 -126.5t-181 -78t-209.5 -25.5h-2q-96 0 -180.5 27t-152 79.5t-106.5 138.5t-39 196zM344 1268q0 83 54 132.5t134 49.5q69 0 111.5 -43t42.5 -109 q0 -83 -53 -131.5t-129 -48.5h-2q-65 0 -111.5 40.5t-46.5 109.5zM444 420q0 -82 40 -125t108 -43h2q56 0 101 33t70.5 84.5t38.5 107t13 107.5q0 76 -35.5 124t-109.5 48q-61 0 -107.5 -36t-71.5 -91t-37 -109t-12 -100zM809 1268q0 83 54 132.5t134 49.5q69 0 111.5 -43 t42.5 -109q0 -83 -53 -131.5t-129 -48.5h-2q-65 0 -111.5 40.5t-46.5 109.5z" />
<glyph unicode="&#xf7;" horiz-adv-x="1220" d="M72 432v230h1056v-230h-1056zM422 182q0 82 49 130t129 48t128.5 -47.5t49.5 -130.5q0 -81 -49 -129.5t-129 -48.5h-2q-79 0 -127.5 48.5t-48.5 129.5zM422 911q0 82 49 130.5t129 48.5t128.5 -48t49.5 -131q0 -81 -49 -129.5t-129 -48.5h-2q-79 0 -127.5 48.5 t-48.5 129.5z" />
<glyph unicode="&#xf8;" horiz-adv-x="1271" d="M45 -45l137 154q-58 53 -89.5 133.5t-31.5 177.5q0 129 48 241.5t133 194.5t208 129t267 47q137 0 239 -51l146 162l100 -96l-131 -146q61 -50 95 -132t34 -171q0 -147 -51 -266.5t-139 -196.5t-203 -118.5t-246 -41.5q-162 0 -266 58l-158 -176zM434 444q0 -33 2 -45 l4 -2l312 353q-36 20 -84 20q-47 0 -87.5 -25.5t-66.5 -63.5t-45 -83.5t-27 -85t-8 -68.5zM502 262q36 -24 90 -24q49 0 89.5 23.5t67 59t44.5 80.5t26 86.5t8 77.5q0 31 -2 51h-6z" />
<glyph unicode="&#xf9;" horiz-adv-x="1255" d="M84 264q0 81 18 180l107 564h364l-98 -525q-12 -70 -12 -114q0 -42 20 -70.5t64 -28.5q77 0 140 90t93 248l76 400h365l-123 -658q-24 -118 -60 -350h-323l18 162h-4q-160 -187 -371 -187q-137 0 -205.5 74.5t-68.5 214.5zM348 1454h346l189 -328h-269z" />
<glyph unicode="&#xfa;" horiz-adv-x="1255" d="M84 264q0 81 18 180l107 564h364l-98 -525q-12 -70 -12 -114q0 -42 20 -70.5t64 -28.5q77 0 140 90t93 248l76 400h365l-123 -658q-24 -118 -60 -350h-323l18 162h-4q-160 -187 -371 -187q-137 0 -205.5 74.5t-68.5 214.5zM582 1126l188 328h346l-266 -328h-268z" />
<glyph unicode="&#xfb;" horiz-adv-x="1255" d="M84 264q0 81 18 180l107 564h364l-98 -525q-12 -70 -12 -114q0 -42 20 -70.5t64 -28.5q77 0 140 90t93 248l76 400h365l-123 -658q-24 -118 -60 -350h-323l18 162h-4q-160 -187 -371 -187q-137 0 -205.5 74.5t-68.5 214.5zM399 1126l263 328h253l170 -328h-227l-90 156 h-4l-115 -156h-250z" />
<glyph unicode="&#xfc;" horiz-adv-x="1255" d="M84 264q0 81 18 180l107 564h364l-98 -525q-12 -70 -12 -114q0 -42 20 -70.5t64 -28.5q77 0 140 90t93 248l76 400h365l-123 -658q-24 -118 -60 -350h-323l18 162h-4q-160 -187 -371 -187q-137 0 -205.5 74.5t-68.5 214.5zM352 1268q0 83 54.5 132.5t134.5 49.5 q69 0 111 -43t42 -109q0 -83 -53 -131.5t-129 -48.5h-2q-65 0 -111.5 40.5t-46.5 109.5zM817 1268q0 83 54.5 132.5t134.5 49.5q69 0 111 -43t42 -109q0 -83 -53 -131.5t-129 -48.5h-2q-65 0 -111.5 40.5t-46.5 109.5z" />
<glyph unicode="&#xfd;" horiz-adv-x="1153" d="M-33 -154q98 20 178 70q101 63 158 156q12 19 4 53l-225 883h385l61 -377q10 -65 39 -228h4q81 214 84 222l158 383h389l-358 -680q-117 -225 -220 -371t-208 -242q-93 -87 -203.5 -133.5t-183.5 -52.5zM520 1126l189 328h346l-267 -328h-268z" />
<glyph unicode="&#xfe;" horiz-adv-x="1273" d="M-57 -410l338 1807h364l-90 -484h4q34 47 107 83t168 36q173 0 271.5 -114.5t98.5 -296.5q0 -130 -43.5 -247.5t-121 -206t-194.5 -140.5t-255 -52q-58 0 -112.5 15t-82.5 35h-4l-84 -435h-364zM444 305q63 -51 127 -51q104 0 174 102.5t70 243.5q0 59 -30.5 100 t-86.5 41q-85 0 -144.5 -84t-86.5 -231z" />
<glyph unicode="&#xff;" horiz-adv-x="1153" d="M-33 -154q98 20 178 70q101 63 158 156q12 19 4 53l-225 883h385l61 -377q10 -65 39 -228h4q81 214 84 222l158 383h389l-358 -680q-117 -225 -220 -371t-208 -242q-93 -87 -203.5 -133.5t-183.5 -52.5zM274 1268q0 83 54.5 132.5t134.5 49.5q69 0 111 -43t42 -109 q0 -83 -53 -131.5t-129 -48.5h-2q-65 0 -111.5 40.5t-46.5 109.5zM739 1268q0 83 54.5 132.5t134.5 49.5q69 0 111 -43t42 -109q0 -83 -53 -131.5t-129 -48.5h-2q-65 0 -111.5 40.5t-46.5 109.5z" />
<glyph unicode="&#x152;" horiz-adv-x="2082" d="M88 594q0 243 114.5 427.5t322.5 284t479 99.5q53 0 93 -2.5t80.5 -6.5t47.5 -5q128 -11 157 -11h748l-59 -307h-586l-41 -219h553l-60 -307h-551l-45 -240h617l-57 -307h-830q-45 0 -106 -10q-79 -15 -203 -15q-193 0 -344 70.5t-240.5 212.5t-89.5 336zM483 618 q0 -162 103 -253t260 -91q65 0 127 19l149 790q-54 23 -143 23q-215 0 -355.5 -138t-140.5 -350z" />
<glyph unicode="&#x153;" horiz-adv-x="1839" d="M57 434q0 171 79 309t213.5 213.5t297.5 75.5q244 0 354 -153h5q146 153 385 153q95 0 171 -26.5t123 -71t72 -99t25 -114.5q0 -363 -676 -350q0 -24 33 -54q67 -57 198 -57q164 0 303 62l19 -248q-173 -99 -412 -99q-236 0 -354 152h-6q-131 -152 -371 -152 q-94 0 -176 29t-145.5 84.5t-100.5 144.5t-37 201zM440 440q0 -84 39 -134t103 -50h2q57 0 102.5 32t71.5 81.5t39.5 102.5t13.5 101q0 88 -35 138.5t-108 50.5q-58 0 -104 -32.5t-72 -83t-39 -104t-13 -102.5zM1143 633q55 -3 108.5 -1t95.5 7t67.5 20t25.5 39v2 q0 30 -28 53t-89 23q-76 0 -122 -46.5t-58 -96.5z" />
<glyph unicode="&#x178;" horiz-adv-x="1351" d="M137 1380h391l86 -313q9 -31 24 -80t25 -85t19 -75h4q114 186 150 248l180 305h452l-643 -790l-112 -590h-365l109 575zM420 1591q0 80 51.5 128t128.5 48q68 0 109 -41t41 -104q0 -80 -52 -127t-125 -47h-2q-62 0 -106.5 38.5t-44.5 104.5zM885 1591q0 80 51.5 128 t128.5 48q68 0 108.5 -41t40.5 -104q0 -80 -51.5 -127t-124.5 -47h-2q-62 0 -106.5 38.5t-44.5 104.5z" />
<glyph unicode="&#x2c6;" horiz-adv-x="819" d="M180 1126l262 328h254l170 -328h-227l-90 156h-4l-115 -156h-250z" />
<glyph unicode="&#x2dc;" horiz-adv-x="819" d="M223 1128q21 147 81 220t145 73q65 0 133 -41q62 -43 86 -43q27 0 41 19.5t32 75.5h168q-22 -153 -80 -220t-151 -67q-87 0 -146 45q-45 33 -75 33q-18 0 -35.5 -27t-26.5 -68h-172z" />
<glyph unicode="&#x2000;" horiz-adv-x="927" />
<glyph unicode="&#x2001;" horiz-adv-x="1855" />
<glyph unicode="&#x2002;" horiz-adv-x="927" />
<glyph unicode="&#x2003;" horiz-adv-x="1855" />
<glyph unicode="&#x2004;" horiz-adv-x="618" />
<glyph unicode="&#x2005;" horiz-adv-x="463" />
<glyph unicode="&#x2006;" horiz-adv-x="309" />
<glyph unicode="&#x2007;" horiz-adv-x="309" />
<glyph unicode="&#x2008;" horiz-adv-x="231" />
<glyph unicode="&#x2009;" horiz-adv-x="371" />
<glyph unicode="&#x200a;" horiz-adv-x="103" />
<glyph unicode="&#x2010;" horiz-adv-x="724" d="M35 393l47 246h602l-47 -246h-602z" />
<glyph unicode="&#x2011;" horiz-adv-x="724" d="M35 393l47 246h602l-47 -246h-602z" />
<glyph unicode="&#x2012;" horiz-adv-x="724" d="M35 393l47 246h602l-47 -246h-602z" />
<glyph unicode="&#x2013;" horiz-adv-x="1024" d="M37 403l43 226h901l-43 -226h-901z" />
<glyph unicode="&#x2014;" horiz-adv-x="2048" d="M37 403l43 226h1925l-43 -226h-1925z" />
<glyph unicode="&#x2018;" horiz-adv-x="641" d="M139 805q148 330 348 600l244 18q-147 -308 -227 -600z" />
<glyph unicode="&#x2019;" horiz-adv-x="641" d="M139 805q142 298 228 600l364 18q-155 -340 -348 -600z" />
<glyph unicode="&#x201a;" horiz-adv-x="641" d="M-100 -236q160 334 241 637l389 21q-155 -346 -370 -637z" />
<glyph unicode="&#x201c;" horiz-adv-x="1118" d="M139 805q148 330 348 600l244 18q-147 -308 -227 -600zM616 805q146 326 349 600l243 18q-147 -308 -227 -600z" />
<glyph unicode="&#x201d;" horiz-adv-x="1118" d="M139 805q142 298 228 600l364 18q-155 -340 -348 -600zM616 805q142 298 228 600l364 18q-155 -340 -348 -600z" />
<glyph unicode="&#x201e;" horiz-adv-x="1118" d="M-127 -236q162 339 242 637l389 21q-153 -343 -371 -637zM406 -236q160 334 241 637l389 21q-155 -346 -370 -637z" />
<glyph unicode="&#x2022;" horiz-adv-x="784" d="M74 539q-3 127 89 218t220 91q129 0 220 -90.5t91 -218.5t-91 -219t-220 -91h-2q-127 0 -217 90t-90 220z" />
<glyph unicode="&#x2026;" horiz-adv-x="2048" d="M53 172q0 104 68 175t176 71q86 0 142.5 -55.5t56.5 -145.5q0 -104 -68.5 -170.5t-177.5 -66.5h-2q-86 0 -140.5 53.5t-54.5 138.5zM737 172q0 104 68 175t176 71q86 0 142.5 -55.5t56.5 -145.5q0 -104 -68.5 -170.5t-177.5 -66.5h-2q-86 0 -140.5 53.5t-54.5 138.5z M1421 172q0 104 68 175t176 71q86 0 142.5 -55.5t56.5 -145.5q0 -104 -68.5 -170.5t-177.5 -66.5h-2q-86 0 -140.5 53.5t-54.5 138.5z" />
<glyph unicode="&#x202f;" horiz-adv-x="371" />
<glyph unicode="&#x2039;" horiz-adv-x="606" d="M41 516l262 399h270l-286 -399l198 -399h-243z" />
<glyph unicode="&#x203a;" horiz-adv-x="602" d="M25 117l286 399l-198 399h243l201 -399l-262 -399h-270z" />
<glyph unicode="&#x205f;" horiz-adv-x="463" />
<glyph unicode="&#x20ac;" d="M6 463l35 168h141q6 43 15 82h-140l35 168h154q84 216 290.5 345.5t452.5 129.5q223 0 367 -72l-113 -274q-107 47 -272 47q-101 0 -197 -48.5t-137 -127.5h500l-39 -168h-529q-7 -32 -14 -82h526l-34 -168h-486q53 -189 285 -189q78 0 157.5 16t126.5 34l37 -275 q-152 -74 -383 -74q-260 0 -422 125t-186 363h-170z" />
<glyph unicode="&#x2122;" horiz-adv-x="1536" d="M215 1223v157h533v-157h-168v-402h-201v402h-164zM793 821l32 559h318l14 -77q9 -44 35 -197h2q24 116 45 197l18 77h293l27 -559h-195l-6 209q-1 34 0 114.5t0 129.5h-12q-10 -46 -28.5 -130.5t-24.5 -109.5l-43 -203h-189l-32 203q-5 28 -17.5 112t-19.5 128h-13 q-5 -234 -6 -244l-8 -209h-190z" />
</font>
</defs>
</svg>
