<?xml version="1.0" encoding="utf-8"?>
<!-- Generator: Adobe Illustrator 15.0.0, SVG Export Plug-In  -->
<!DOCTYPE svg PUBLIC "-//W3C//DTD SVG 1.1//EN" "http://www.w3.org/Graphics/SVG/1.1/DTD/svg11.dtd" [
	<!ENTITY ns_flows "http://ns.adobe.com/Flows/1.0/">
]>
<svg version="1.1"
	 xmlns="http://www.w3.org/2000/svg" xmlns:xlink="http://www.w3.org/1999/xlink" xmlns:a="http://ns.adobe.com/AdobeSVGViewerExtensions/3.0/"
	 x="0px" y="0px" width="68px" height="68px" viewBox="-0.5 -0.375 68 68"
	 overflow="visible" enable-background="new -0.5 -0.375 68 68" xml:space="preserve">
<defs>
</defs>
<circle display="none" fill="none" stroke="#010101" stroke-width="3" cx="33.5" cy="33.5" r="32"/>
<line display="none" fill="none" stroke="#010101" stroke-width="6" stroke-linecap="round" x1="34.617" y1="32.674" x2="34.568" y2="17.065"/>
<line display="none" fill="none" stroke="#010101" stroke-width="6" stroke-linecap="round" x1="42.534" y1="42.221" x2="34.826" y2="33.58"/>
<circle display="none" fill="none" stroke="#010101" stroke-width="3" cx="33.5" cy="33.592" r="32"/>
<line display="none" fill="none" stroke="#010101" stroke-width="6" stroke-linecap="round" x1="20.113" y1="27.039" x2="48.547" y2="26.952"/>
<line display="none" fill="none" stroke="#010101" stroke-width="6" stroke-linecap="round" x1="19.113" y1="40.728" x2="47.547" y2="40.641"/>
<line display="none" fill="none" stroke="#010101" stroke-width="6" stroke-linecap="round" x1="38.246" y1="47.013" x2="40.868" y2="21.228"/>
<line display="none" fill="none" stroke="#010101" stroke-width="6" stroke-linecap="round" x1="26.454" y1="47.013" x2="29.076" y2="21.228"/>
<circle fill="none" stroke="#010101" stroke-width="3" cx="34.086" cy="33.5" r="32"/>
<path display="none" fill="none" stroke="#010101" stroke-width="5" d="M15.077,35.12c0,4.643,5.156,7.161,7.962,7.18
	c6.649,0.044,11.047-7.708,11.047-7.708s5.051-8.303,10.912-8.39c3.063-0.046,7.787,3.499,7.787,8.39
	c0,4.908-2.835,7.707-6.58,7.708C39.486,42.301,33.1,32.589,33.1,32.589s-4.287-6.387-9.799-6.387
	C19.802,26.202,15.077,30.055,15.077,35.12z"/>
<circle display="none" fill="#414141" cx="33.918" cy="33.56" r="25"/>
<path display="none" fill="#FFFFFF" d="M45.461,28.914c0.122-2.816-0.7-5.081-1.811-6.895c-1.109-1.812-3.123-3.601-5.339-3.398
	c-1.325,0.12-1.896,0.619-2.197,1.329c-0.302,0.711-0.373,2.314-0.373,2.994V39.9c3.215-0.428,6.186-2.291,8.049-5.234
	C44.831,33.023,45.378,30.839,45.461,28.914"/>
<path display="none" fill="#FFFFFF" d="M34.087,7.963c-14.38,0-26.037,11.479-26.037,25.638c0,13.15,10.022,23.951,22.975,25.428
	c0.643,0.032,1.013-0.03,1.316-0.288c0.245-0.21,0.356-0.559,0.356-0.857l0.014-15.279c-7.012-0.729-12.619-6.509-12.533-13.605
	c0.082-6.778,4.752-12.211,10.931-13.489c0.163-0.034,0.274-0.065,0.361,0.021c0.096,0.096,0.04,0.327,0.04,0.327l-0.467,2.27
	c0,0-0.031,0.142-0.073,0.185c-0.043,0.042-0.098,0.063-0.161,0.084c-2.685,0.839-5.112,2.651-6.284,4.851
	c-0.978,1.834-1.612,3.203-1.612,5.699c0,5.373,4.226,10.296,9.799,10.965V22.945c0-1.771,0.092-3.842,1.135-5.257
	c0.813-1.103,2.23-1.781,4.467-1.781c3.216,0,7.066,2.359,9.012,7.46c0.588,1.541,0.936,3.495,0.931,5.603
	c-0.018,7.075-5.534,12.866-12.514,13.625l-0.014,15.289c0,0.403,0.128,0.704,0.362,0.885c0.282,0.218,0.52,0.308,1.309,0.24
	c0.293-0.025,0.851-0.096,1.089-0.136c12.283-2.059,21.635-12.59,21.635-25.272C60.122,19.441,48.466,7.963,34.087,7.963"/>
<g>
	<g>
		<path d="M30.498,15.29C20.062,18.236,15.54,33.004,25.37,39.776c4.759,3.279,9.137,3.861,14.526,1.754
			c5.794-2.266,9.518-9.078,8.25-15.219c-1.186-5.741-6.678-13.228-13.222-9.094c-3.107,1.963-2.324,6.919-2.318,10.047
			c0.02,10.474-0.011,20.949-0.033,31.423c-0.004,1.935,2.996,1.935,3,0c0.026-12.124-0.383-24.318,0.028-36.432
			c0.124-3.65,4.021-3.562,6.248-1.841c1.629,1.261,2.489,3.36,3.103,5.232c1.052,3.212,0.07,6.815-1.657,9.565
			c-2.653,4.224-8.395,5.455-12.808,3.93c-10.504-3.631-9.56-18.032,0.81-20.96C33.154,17.657,32.363,14.763,30.498,15.29
			L30.498,15.29z"/>
	</g>
</g>
</svg>
