<?xml version="1.0" standalone="no"?>
<!DOCTYPE svg PUBLIC "-//W3C//DTD SVG 1.1//EN" "http://www.w3.org/Graphics/SVG/1.1/DTD/svg11.dtd" >
<svg xmlns="http://www.w3.org/2000/svg">
<metadata>
This is a custom SVG webfont generated by Font Squirrel.
Copyright   : Copyright c Hannes von Dhren 2006 All rights reserved
Designer    : Hannes von Dhren
Foundry     : Hannes von Dhren
</metadata>
<defs>
<font id="HVDPosterCleanRegular" horiz-adv-x="1024" >
<font-face units-per-em="2048" ascent="1638" descent="-410" />
<missing-glyph horiz-adv-x="819" />
<glyph unicode=" "  horiz-adv-x="819" />
<glyph unicode="&#x09;" horiz-adv-x="819" />
<glyph unicode="&#xa0;" horiz-adv-x="819" />
<glyph unicode="!" horiz-adv-x="538" d="M92 145q0 16 6 27.5t14.5 23t17.5 23.5t15 33h17q4 -4 7 -6t5 -4q14 14 23.5 18t25 3t44 -4t79.5 -3q23 0 37 -15.5t22.5 -38t11.5 -46t3 -37.5v-92q-35 -25 -48.5 -40.5t-39.5 -15.5q-4 0 -9.5 2t-9.5 4q-2 0 -14 -1t-26.5 -2t-27 -2t-14.5 -1q-8 0 -18 11 q-4 -4 -6 -5.5t-4 -5.5q-4 4 -4 5t-4 6h-9q-4 -4 -4 -6.5t-6 -2.5l-11 10q-11 9 -24.5 20t-25 21.5t-11.5 12.5v57q0 6 -6 24.5t-6 26.5zM102 502v401q0 94 5.5 145.5t9.5 83t3 56t-9 65.5q-8 6 -9 19q0 2 1 27.5t1 54t1 53.5t1 27q2 0 25 3t48.5 5t48 4t24.5 2q2 2 14.5 7 t25.5 10t25.5 8.5t18.5 3.5q8 0 24.5 -15.5t33 -37t30.5 -43t16 -33.5l-22 -820q2 -10 -7.5 -26.5t-23.5 -31.5t-30.5 -28.5t-26.5 -15.5q-16 -4 -32.5 -5t-29.5 1q-16 2 -28 4q-25 0 -38.5 5t-24.5 14.5t-26.5 24t-48.5 32.5z" />
<glyph unicode="&#x22;" horiz-adv-x="743" d="M78 1419l24 45q55 0 99 2q37 2 66.5 2t31.5 2q-2 -27 1 -71.5t8 -98t10.5 -108.5t6.5 -100t-2.5 -74t-15.5 -31q-2 0 -15 -16.5t-24 -18.5q-4 0 -19.5 -1t-33.5 -1t-33.5 -1t-19.5 -1q-6 0 -19.5 11.5t-27 26.5t-23.5 28l-10 12zM403 1411q0 4 8.5 12.5t17.5 15.5t17 11 l9 4h86h88q-2 0 0 -16.5t7 -37t9 -37.5t4 -20l2 -43q0 -4 1 -40.5t2 -88t2 -107.5t3 -99q-16 -14 -36.5 -32t-26.5 -20q-6 0 -9 1t-12 1q-10 8 -10 6.5t-12 -6.5h-14h-23h-22q-10 0 -15 -2q-10 6 -11 5.5t-11 7.5q-10 14 -26.5 32.5t-16.5 24.5t4 9t4 9q2 -6 -3 22t-5 73 l-4 301q0 4 -3.5 7t-3.5 7z" />
<glyph unicode="#" horiz-adv-x="1503" d="M45 283q2 37 2 56v30v12q0 2 -2 4q10 51 27.5 92t50.5 51l125 -4q2 35 -4 54.5t-6 27.5v69q0 34 2 64l-31 2q-27 0 -46.5 -1t-36.5 4.5t-35.5 21.5t-45.5 53q2 37 2 57v29v13q0 2 -2 4q10 51 27.5 92t50.5 51l123 -2l8 166q0 27 -1 46t4 37.5t21.5 37t53.5 45.5 q37 -2 56.5 -3t29.5 -1t12 1t4 3q51 -10 92 -28.5t52 -49.5l-7 -262l238 -4l8 178q0 27 -1 46t4 37.5t21.5 37t53.5 45.5q37 -2 56.5 -3t29.5 -1t12 1t4 3q51 -10 92 -28.5t52 -49.5l-6 -273l163 -4q10 -4 33 -12t45.5 -18.5t40 -22.5t17.5 -22q0 -6 3 -7.5t3 -11.5 q0 -6 -6.5 -24.5t-6.5 -26.5q0 -23 -2 -55.5t-10 -63.5t-25.5 -52.5t-48.5 -21.5l-213 9l-4 -205l174 -2q10 -4 33 -12.5t45.5 -18.5t40 -22.5t17.5 -22.5q0 -6 3 -7t3 -11q0 -8 -6.5 -25.5t-6.5 -28.5q0 -23 -2 -54.5t-10 -62t-25.5 -52t-48.5 -21.5l-225 8v-33 q-4 -10 -12 -32.5t-18.5 -45t-22.5 -40t-23 -17.5q-6 0 -7 -3t-11 -3q-6 0 -24.5 5t-26.5 5q-23 0 -55.5 2t-63.5 10.5t-52.5 27t-21.5 48.5l4 90q-72 0 -132 1t-95 1l-2 -49q-4 -10 -12.5 -32.5t-18.5 -45t-22.5 -40t-22.5 -17.5q-6 0 -7 -3t-11 -3q-6 0 -24.5 5t-26.5 5 q-23 0 -56 2t-63.5 10.5t-52 27t-21.5 48.5l6 105l-12 2q-27 0 -46.5 -2t-36.5 4t-35.5 22.5t-45.5 53.5zM561 518l250 -6l-4 8q0 14 -1 44t-2 60.5t-1 58.5v42q-72 0 -135.5 2t-102.5 0z" />
<glyph unicode="$" horiz-adv-x="1097" d="M80 891v86q0 31 28.5 76t65.5 87t69.5 70.5t41.5 28.5q6 -2 10 13.5t6 31.5q2 20 2 47l-4 119l18 31q31 2 60 2q25 0 52.5 -1t49.5 -5q-4 -31 -3 -56.5t4 -47t6 -39t1 -29.5q-2 -10 16.5 -21.5t37.5 -11.5q12 0 28 6q8 2 19 6l-2 166l6 31q39 2 74 4q29 2 55 2h37 q6 -23 7 -51.5t1 -57.5v-53q0 -25 4 -37q2 -6 10 -8t17 -2h13l114 -4q4 -2 6 -2q33 -29 51 -49.5t26.5 -39t10.5 -40t2 -51.5q0 -31 -1 -40.5t-8 -14.5t-25.5 -14t-53.5 -38l-492 16q-25 0 -36 -2t-14 -6t-2 -12t1 -23v-43q0 -31 4 -36l342 -5q61 -27 113.5 -49t89.5 -49.5 t58.5 -65.5t21.5 -100q0 -170 -63.5 -264t-174.5 -129q-8 0 -11 -10t-5 -25q-2 -16 -2 -37l4 -118l-18 -31q-31 -2 -60 -2q-25 0 -53.5 1t-48.5 5q0 41 -3 85t-5 67q0 10 -7.5 17t-17.5 7q-6 0 -17.5 -1t-23.5 -1q-14 -2 -31 -2l2 -129l-4 -20q-4 -8 -7 -15.5t-7 -7.5h-76 q-16 0 -29.5 -1t-23.5 -1h-25q-4 14 -6 36.5t-3 47t-2 47.5t-3 35q-2 6 -19.5 8t-36 3t-31.5 2t-9 1q-12 0 -27.5 13.5t-30 31t-28 35.5t-21.5 29v106q35 35 48.5 54.5t22.5 28.5t20.5 11t41.5 2q4 0 25.5 -1t49.5 -2l55 -2q28 -1 40 -1q12 -4 30.5 -5t39 1t40 4t34.5 2h74 q28 0 42.5 1t18.5 2l4 1q6 8 11 25.5t3 35t-14 31t-39 13.5q-10 0 -19.5 -1t-23.5 -1q-6 -2 -7 1t-9 -1q-258 0 -380 84t-122 215z" />
<glyph unicode="%" horiz-adv-x="1394" d="M63 1262q6 33 15 57q4 23 9 40t3 17q2 0 6 9.5t8.5 21.5t8.5 21.5t6 9.5t10 4t17.5 10t16.5 10t9 4l25 4q25 4 54.5 8.5t55 8.5t27.5 4q39 -2 58 -2h28h10h4q31 -4 62.5 -27.5t56.5 -56.5t39 -69t12 -62l-12 -223q-8 -72 -43 -109t-94 -63h-242q-6 -6 -8 -7 q-25 0 -44.5 17.5t-33.5 40t-25.5 46t-19.5 36.5q-14 18 -13 48t1 54zM185 325.5q1 18.5 10 28.5q41 47 80.5 91t62.5 92q4 4 6 13t6 15q31 37 42 53.5t18 22.5q10 16 20 22.5t21 22.5q4 4 2 5t0 5l57 70q18 20 23.5 30.5t8.5 17.5t8 15.5t23 28.5q2 2 13.5 12.5t25 23.5 t24.5 25.5t13 18.5q2 0 3 4t10 12q0 6 1 10.5t9 14.5t22.5 28.5t40.5 53.5q12 16 17.5 22.5t9.5 12.5q8 12 15 20t13.5 15.5t13.5 15.5t15 22l37 37q4 6 12.5 22.5t12.5 22.5q6 6 11 8.5t9 8.5q4 4 7 11t12 17q12 14 43.5 19.5t44.5 1.5l4 -4q-2 2 13 -6.5t33.5 -19.5 t36 -22.5t21.5 -17.5q14 -8 19.5 -9t19.5 -11q10 -8 8 -25.5t-8 -37t-14 -35t-11 -21.5l-499 -645q-6 -10 -41 -62.5t-78 -113t-86 -111.5t-68 -61q-14 8 -36.5 23.5t-26.5 19.5q4 -4 -8.5 7t-30.5 27.5t-35.5 32t-23.5 19.5q-2 2 -5.5 15t-5.5 30.5t-1 36zM735 223l15 246 q8 78 47 120t104 70h168q8 0 20.5 4.5t26.5 0.5h10q8 0 17.5 -1t16.5 -3l7 -1q6 6 9 7q29 0 49 -18.5t36.5 -44t27.5 -51.5t22 -40q16 -20 15 -52t-1 -61l6 -161q-8 -35 -16 -64q-6 -25 -10.5 -45t-1.5 -18q-2 0 -6.5 -10.5t-9.5 -24t-10 -23.5t-7 -10t-11.5 -5t-18.5 -11.5 t-17.5 -11.5t-10.5 -5l-27 -4q-28 -4 -61.5 -8t-61.5 -8t-28 -6l-100 2q-2 -2 -7 0t-3 0q-35 4 -69 30.5t-61.5 62.5t-44 74.5t-14.5 69.5z" />
<glyph unicode="&#x26;" horiz-adv-x="1189" d="M51 319.5q0 55.5 10.5 111.5t23.5 100t21 51q4 2 19.5 19t31 36.5t29 36t15.5 16.5l182 96q-55 88 -93 162t-46 141.5t18.5 136t99.5 148.5l39 33q98 74 184.5 90t158 -4t128 -66.5t93.5 -95.5l61 -84q18 -25 22.5 -69.5t-1 -90t-15.5 -81t-18 -41.5q-4 -2 -14.5 -17.5 t-21.5 -32t-21 -30.5l-9 -15l-133 -96q2 -4 -4 -9t-14.5 -11t-12.5 -14.5t0 -18.5q4 0 4 -3t-1 -6t-1 -4t5 3q2 0 6 -4.5t15 -22.5t33.5 -54t63.5 -100q2 -4 18.5 8.5t38 24.5t43 14.5t38.5 -18.5q2 -4 20 -29.5t38.5 -56.5t37 -56.5t18.5 -27.5q8 -16 -5 -34.5t-31.5 -34 t-36 -26.5t-15.5 -15q8 -10 18.5 -31t22.5 -43q8 -12 8 -32.5t-3 -40t-8 -35t-7 -17.5q-43 -27 -74 -47q-27 -16 -43 -29.5t0 -9.5v-2q-2 0 -11 -5t-21.5 -10.5t-23.5 -11.5t-20 -10q-27 12 -42 30.5t-24 36t-17.5 32t-20.5 22.5q-76 -59 -164 -93t-172 -40t-154.5 17.5 t-109.5 80.5l-135 197q-21 26 -21 81.5zM375 444q0 -10 10 -32.5t24.5 -47t30 -46t23.5 -29.5q4 -4 17.5 -14.5t23.5 -14.5l129 92l-105 189zM543 1122.5q0 -14.5 16 -41.5q2 -6 5 -14t7 -16l17 -13q25 -41 39 -55t23 -15t12.5 4t5.5 3l57 49q16 12 17 32.5t-5 41t-18 38 t-21 25.5q-2 2 -10 11.5t-17 18.5l-18 17q-8 8 -12 11l-84 -52q4 -6 -1 -11t-9 -12t-4 -21.5z" />
<glyph unicode="'" horiz-adv-x="399" d="M78 1419l24 45q55 0 99 2q37 2 66.5 2t31.5 2q-2 -27 1 -71.5t8 -98t10.5 -108.5t6.5 -100t-2.5 -74t-15.5 -31q-2 0 -15 -16.5t-24 -18.5q-4 0 -19.5 -1t-33.5 -1t-33.5 -1t-19.5 -1q-6 0 -19.5 11.5t-27 26.5t-23.5 28l-10 12z" />
<glyph unicode="(" horiz-adv-x="638" d="M66 365l10 335v234q0 37 2 65.5t2 51.5q0 49 28.5 100t64.5 93t67.5 69.5t38.5 27.5q-4 0 4 2.5t14 6.5q25 18 36 31.5t18 21.5t16.5 11t29.5 3h32q17 0 24 -6h43h6q6 0 12 -6t12 -6q-6 0 1.5 -1t15.5 -7q10 -6 10 -31l-6 -45q-10 -43 -3 -70.5t3 -23.5v-80q-4 -2 -4 -5 t-8 -3q-39 0 -93.5 -6.5t-89.5 -22.5v-211q8 -20 7 -39.5t-5 -75t-7 -168t3 -319.5q6 2 20.5 2t30 -1t28.5 -3t17 -2q14 4 31 3t37 -3q29 -4 44 -11.5t15 -46.5v-36v-77q0 -42 -1 -77t-1 -37q-2 -4 -21 -4h-41q-22 0 -40 1l-18 1q-25 10 -41 10q-10 8 -20.5 8t-20.5 5 q-12 2 -37 10t-25 4q-25 18 -56.5 43.5t-62 55.5t-54 60.5t-30.5 57.5q-18 23 -26 55.5t-12 55.5z" />
<glyph unicode=")" horiz-adv-x="681" d="M59 281q6 2 21.5 3t31.5 1h29h19q0 -2 9 -4t20.5 -3.5t21.5 -1.5h16q10 4 32 9.5t22 31.5q0 8 1 12.5t1 12.5q-2 104 -3 164.5t-1 97.5t1 59.5t1 49.5l-13 368q0 8 4 11.5t2 9.5q-2 27 -7 27.5t-5 3.5q-4 -2 -2 -2.5t-6 -0.5q-41 0 -86 -8t-80 11q-2 20 -2 68t1 95t3 82 t4 27q0 2 11.5 3t25.5 1h26q11 0 11 2h43h8q14 -2 25 -6q10 -4 16 -6t8 -2q4 2 6 -2t7 -4q6 0 16 -7.5t20 -11.5l13 -8q57 -37 105 -91t85 -115.5t59.5 -124t26.5 -115.5l8 -371q0 -37 -11 -93.5t-33.5 -118t-54.5 -123.5t-72 -111.5t-89 -80t-104 -30.5q-29 0 -50.5 5 t-35.5 1q-18 0 -25.5 7t-19.5 9h-49l-1 20q-1 19 -2 49t-2.5 64.5t-2.5 64.5t-2 50z" />
<glyph unicode="*" horiz-adv-x="1093" d="M133 1391.5q-2 15.5 4 25.5q10 12 18.5 23.5t18.5 13.5q10 12 17.5 15.5t9.5 11.5q18 18 29.5 23t26.5 7t36.5 2t58.5 11l215 -215q16 14 26.5 21t20.5 16l41 55q4 4 16.5 13t22.5 38l20 19q17 17 38.5 37t39 37.5t19.5 17.5t17.5 -11.5t32 -26t30.5 -25.5t16 -13 q23 -2 46.5 -16.5t33.5 -22.5q6 -6 6 -28.5t-3 -50.5t-8 -52.5t-11 -34.5l-203 -192q16 -16 28.5 -33t22.5 -27q29 -23 40 -34t38 -15q2 -2 19.5 -20.5t37 -40t37 -39t17.5 -19.5t-14.5 -19.5t-31 -38t-30.5 -36.5t-17 -18q0 6 0 -9.5t-12 -19.5q0 -10 -9 -26.5t-17 -24.5 q-6 -6 -24.5 -2t-40 13t-42 19.5t-31.5 16.5l-174 184l-190 -182q-6 -10 -24.5 -14.5t-40 -5.5t-41 1t-29.5 9q-27 18 -34 29.5t-30 33.5q-18 18 -21 27.5t-1 22t3 30.5t-7 55l208 211l-182 193q-10 6 -19.5 19t-15.5 29.5t-8 32z" />
<glyph unicode="+" horiz-adv-x="1179" d="M48 658.5q1 21.5 5 39.5q0 25 5 38.5t14.5 24.5t24 26.5t32.5 48.5h305q2 20 4 33.5t2 25.5l-8 68q0 25 -5 39t-5 24q0 2 1 27.5t1 54.5t1 53.5t1 26.5q2 0 20.5 3t41 5t41 4t20.5 2q14 10 38.5 16.5t45.5 12.5q8 0 24.5 -15.5t33 -37t30.5 -43t16 -33.5l-6 -279 q23 -2 44.5 -4t33.5 -2l27 8q6 0 19 -3t26 5q6 8 18 9q2 0 27.5 -1t54.5 -1t53.5 -1.5t26.5 -1.5q0 -2 3 -24.5t5 -48t4 -48t2 -24.5q2 -4 2 -24q6 -6 16.5 -28t10.5 -32q0 -8 -15.5 -18.5t-37 -19.5t-43 -16t-33.5 -9l-254 6l-6 -262q2 -10 -7.5 -26.5t-23.5 -32t-30.5 -29 t-26.5 -15.5h-90q-25 0 -34 5t-16.5 14.5t-19.5 24t-45 32.5v297l-266 8q-10 -2 -26.5 1t-32 9.5t-29 16.5t-15.5 20q-6 29 -5 50.5z" />
<glyph unicode="," horiz-adv-x="540" d="M84 -172q0 18 2 22q6 14 20 19q2 0 21.5 1t42.5 3q27 2 59 4q4 29 9 51q4 20 6 38t0 22q-2 2 -21.5 5t-42.5 5q-27 2 -59 4q-8 6 -15 12q-14 10 -16 11q-2 0 -2 33.5t1 74.5t3 76t4 35t13.5 6t23.5 12l33 17l106 -13q41 -4 75 -8t38 0q4 2 10 -9t15 -26q8 -16 20 -39 q-8 -90 -14 -161q-4 -61 -9.5 -112.5t-5.5 -55.5t-13 -24.5t-37.5 -45.5t-57.5 -44.5t-74 -19.5q-82 2 -103.5 1t-23.5 6q-2 2 -4 20.5t-3 40t-1 39.5z" />
<glyph unicode="-" horiz-adv-x="909" d="M145 598v33v43l6 6l3 6q8 10 9 8t13 11q2 2 9.5 8t29.5 16h18q10 -2 14.5 -1t14.5 1q4 0 6 -2t13 2h208h46q2 -2 34.5 0t55.5 0q6 0 28.5 2t30.5 2q33 0 51.5 -12t28.5 -30.5t13 -40t3 -38.5q0 -14 -3 -36.5t-13 -44t-28.5 -37t-49.5 -15.5q-14 0 -16 1t-13 -1 q-66 2 -84 3t-26 1q-16 4 -39 0t-31 2h-35h-8h-24q-4 0 -18.5 1t-33 3.5t-35 3.5t-24.5 1h-4q-31 4 -40 4h-17q-10 8 -21.5 14t-13.5 14q-16 12 -31.5 22.5t-24.5 31.5q-2 10 -2 18z" />
<glyph unicode="." horiz-adv-x="520" d="M100 162v102q14 10 29.5 26.5t22.5 18.5q10 6 17 6t28 4q16 4 29.5 3.5t41.5 3.5q8 0 19.5 2t19.5 2q6 0 16.5 -6.5t20.5 -14.5q4 0 3 -2t5 -2q23 0 37 -29.5t21.5 -64.5t10.5 -66.5t3 -33.5q0 -23 -17.5 -47.5t-31.5 -49.5q-23 -2 -43 -4q-16 -2 -33.5 -3t-28.5 -3 q-16 -2 -33.5 1t-56.5 3q0 2 -10 6t-22.5 9.5t-23.5 12.5t-13 15q-4 23 -7.5 58t-3.5 53z" />
<glyph unicode="/" horiz-adv-x="1169" d="M62 325.5q1 18.5 10 28.5q41 47 81 91t62 92q4 4 6 13t6 15q31 37 42.5 53.5t17.5 22.5q4 8 9 13t9 12q6 10 13.5 16t11.5 14l121 162q10 10 18 20.5t18 24.5q14 16 26.5 25.5t21.5 36.5q23 14 51 48t56 72.5t52.5 72.5t38.5 48q4 6 12.5 22.5t12.5 22.5q6 6 11 8.5 t9 8.5q4 4 6 11t13 17q12 14 43.5 19.5t44.5 1.5l4 -4q25 -14 33 -21.5t18 -14.5t29.5 -18.5t62.5 -31.5q10 -8 8 -25.5t-8 -37t-14 -35t-10 -21.5l-500 -645q-6 -10 -41 -62.5t-78 -113t-86 -111.5t-67 -61q-14 8 -37 23.5t-27 19.5q-8 6 -14 13t-37 34q-4 10 -6 8t-13 6 q-6 4 -12 9t-16 16q-2 2 -5 15t-5.5 30.5t-1.5 36z" />
<glyph unicode="0" d="M63 352l5 473q2 16 7 41t9 49.5t8 45t4 28.5q0 27 35 72t81 88t88 73.5t56 32.5q4 4 19.5 14.5t34 22t36 19.5t23.5 6q4 0 18.5 -3t32 -5t35.5 -3t33 3q16 0 20 -3t21 -3q20 -6 44.5 -20.5t39.5 -29.5q39 -23 85 -66.5t85 -97t66.5 -109.5t31.5 -101l-6 -344 q6 -51 -9.5 -118t-33.5 -114q-8 -16 -50 -63t-93.5 -97.5t-100.5 -90.5t-70 -40q-18 0 -53 3t-71.5 7.5t-67.5 8.5t-39 8q-16 4 -40.5 11t-47.5 22q-8 4 -39 27.5t-64.5 54t-61.5 61.5t-30 49q0 8 -15.5 35.5t-25.5 52.5zM420 305q2 -8 4 -9t2 -5q6 -2 28.5 -3t50 -1t56.5 1 t49 3q2 45 3 81t3 74.5t3.5 85t3.5 111.5l18 410h-50q-28 0 -52 -2q-14 0 -42 -5.5t-44 -11.5q-2 -41 -5.5 -93t-5.5 -100t-4 -83t-2 -39z" />
<glyph unicode="1" horiz-adv-x="720" d="M76 1194q4 4 9 21.5t10 39t12.5 44t15.5 38.5l170 6q-2 0 17.5 -1t47 -2t57.5 -1h52q14 10 35.5 3t32.5 -3q6 2 22 -13t33.5 -36.5t32 -44t16.5 -35.5l-23 -1089q2 -10 -7 -26.5t-23.5 -32t-30.5 -29t-27 -15.5q-14 -2 -23 0t-18.5 3.5t-20.5 1.5t-30 -5q-25 0 -38 5.5 t-24.5 14.5t-26.5 23.5t-48 32.5v402q0 70 3 115.5t6 76.5t6 50.5t3 33.5l2 285v27q0 22 7 38l-7 4q-12 -2 -32.5 6.5t-73.5 0.5h-74l-34 33q-15 16 -29 28z" />
<glyph unicode="2" d="M39 199q0 8 2 24.5t2 24.5q0 4 1 19.5t3 36t4 42t6 37.5q6 4 17.5 14.5t23.5 22.5l23 22l16 17q18 18 35.5 36.5t34.5 39.5q10 6 30.5 28.5t36.5 32.5q0 -2 12.5 9t30.5 30l39 39q20 20 35 37q16 8 40 29.5t51.5 46t56 50t55.5 42.5l16 206q0 10 -8 13.5t-6 7.5 q-6 0 -43 -1t-77 -1h-73q-33 0 -32 2l-25 -6q0 -8 -6 -27.5t-6 -30.5v-65q0 -29 -18.5 -63.5t-59.5 -45.5q-29 -2 -56.5 2t-45.5 9q-2 2 -11 14l-18 28q-10 15 -18.5 28.5t-8.5 15.5q0 4 3 40.5t7.5 78.5t7.5 78t3 40q0 14 16.5 36t35.5 42t36.5 36.5t21.5 18.5 q14 4 36 11.5t41.5 13.5t33.5 11t18 5q6 0 21.5 -1t32 -2t32 -2t23.5 1q12 0 29.5 -2t36 -3t34 -2t21.5 -1h28q4 -2 13.5 -6t7.5 -2q61 -29 113.5 -74t89.5 -98.5t57.5 -110.5t20.5 -110q0 -72 -32 -136.5t-80 -121t-103.5 -104.5t-103.5 -87t-80 -69.5t-32 -51.5 q0 -8 9.5 -15t17.5 -7t10 3t13 3q6 0 19 -2t28 -6q16 -4 52 -6.5t93 -28.5q12 -2 19.5 -4t23.5 -6q14 -14 19.5 -28.5t5.5 -16.5q0 -4 13 -11.5t1 -27.5q-10 -18 -23.5 -43t-23.5 -41q-2 -2 -8 -13.5t-14.5 -25t-16.5 -23.5t-14 -10h-66l-18 -4q-12 0 -23.5 4t-36 9t-68.5 6 t-120 -5q-14 0 -30.5 1t-41 3t-60.5 4t-91 4h-19q-2 2 -17.5 14.5t-33.5 28t-32.5 30t-14.5 20.5z" />
<glyph unicode="3" d="M20 1090q0 14 13.5 41.5t31 55t34 49t22.5 24.5q8 20 25.5 40.5t34 37t30.5 27.5t16 11q6 0 32 11.5t48 21.5q41 12 92.5 23.5t102.5 11.5l63 2q6 2 37 -11.5t53 -27.5q0 -2 12.5 -5t22.5 -7q123 -80 185.5 -188.5t62.5 -219.5q0 -8 -6 -26.5t-15.5 -37t-20.5 -32.5 t-24 -17q-29 -16 -53 -27t-24 -28q0 -12 31.5 -31.5t70.5 -55.5t70.5 -93t31.5 -143q0 -51 -6 -109.5t-27.5 -115t-60.5 -108.5t-104 -89l-142 -49q-47 2 -108.5 -5.5t-118.5 -9.5q-18 -4 -35 -6q-14 -2 -28.5 -3t-22.5 -1q-4 0 -14 4t-20.5 9t-19.5 11.5t-9 10.5l-17 11 q-16 11 -37.5 25.5t-41 32t-27.5 29.5q-25 20 -45.5 45t-24.5 47q-4 12 -9 38l-10 51q-5 26 -9.5 45.5t-4.5 21.5v22v62q0 14 -4 24q31 25 53.5 38.5t51.5 13.5q45 0 98 -6q-2 -2 16.5 -4.5t22.5 1.5t11 -2t17 -16l18 -20q9 -10 15 -15l15 -198q-4 4 4 -7.5t16 -5.5 q16 4 18.5 3t14.5 8l74 4q6 0 9 -3.5t9 -3.5q20 0 35.5 3.5t30 6.5t31 3t38.5 -8l54 57q-4 92 -7.5 120.5t-3.5 35.5v12q0 25 -2 49.5t-2 46.5q-10 6 -14 7t-17 -3q-51 0 -78.5 -2t-42 -4t-21.5 -4t-19 0t-25.5 15.5t-25 29.5t-18.5 30.5t-7 20.5q0 33 -3 62.5t-3 60.5 q0 4 12 17.5t26.5 27.5t26.5 26l13 11q10 0 24 1t29 1q4 0 16 -9t41 -1q4 10 8 18t4 17q0 6 -4 11t-4 9q0 61 -2 105.5t-2 50.5q0 10 -5 24.5t-5 28.5q0 6 -5 10t-16 -4q-20 2 -28 2t-25.5 -1t-54.5 -2t-115 -1q-10 0 -17 3t-20 -1q-10 -10 -10 -24v-27l14 -221 q-10 -16 -27.5 -32.5t-33.5 -37.5q-20 -4 -47 -4h-51q-25 0 -44.5 2t-25.5 6q-43 39 -50 83t-9 91q-2 37 -5.5 63t-3.5 32z" />
<glyph unicode="4" horiz-adv-x="1083" d="M49 795l35 491q0 20 2 34.5t9 26t22.5 23.5t40.5 31h135q20 0 38.5 -16.5t33 -39t22.5 -45t8 -34.5l-20 -222q0 -10 8 -35.5t18 -39.5q-6 -6 12.5 -8.5t50.5 -4.5t71.5 -4t74.5 -8q8 8 19.5 14.5t21.5 16.5q-8 86 -9 129t-1 49t2 25.5t3 40t3 39t2 22.5q0 8 -5 19.5 t-5 19.5q0 4 3 11t3 11q0 8 9.5 20.5t20.5 25t22 23.5l16 15q12 4 37.5 6.5t53.5 2.5t51.5 -2t31.5 -7q35 -23 54.5 -48t28.5 -53t11 -55.5t2 -51.5l-12 -560l16 -428q4 -55 8 -102t4 -55q0 -10 -11 -33t-27 -37l-232 14q-2 4 0 5.5t-16 -5.5q-10 6 -24.5 20.5t-27 30 t-22.5 33t-12 29.5q-4 49 -4 73v31q0 18 3 39t-1 37v350q-6 0 -10.5 3.5t-10.5 3.5q-10 0 -21.5 -5.5t-17.5 -5.5q16 0 -87 11.5t-351 -0.5q-49 25 -64.5 65.5t-15.5 63.5z" />
<glyph unicode="5" horiz-adv-x="1177" d="M84 879.5q-2 76.5 2 128.5v47q-2 20 -2 23v28v16q0 4 12.5 14.5t26.5 21.5t25.5 22.5t11.5 17.5q12 0 28.5 -1t65.5 -2t146.5 -3t269.5 -6q6 -4 10 -3t10 -1q4 -2 48 -3t99.5 -2t108.5 -2t76 -1q31 -16 45 -37t19.5 -42.5t4.5 -44t-1 -40.5q0 -12 -3.5 -35t-12.5 -46.5 t-27.5 -41t-51.5 -17.5q-6 0 -8 3.5t-8 3.5q-10 0 -21.5 -2.5t-30 -4.5t-46 -2t-70.5 4q-2 -2 -43 3.5t-94 11.5t-107.5 8t-81.5 -6l-9 1q-9 1 -21.5 0t-21.5 -5t-9 -15v-82q0 -6 3 -28.5t7 -40.5q2 4 42 3t90 -2t97.5 -2t65.5 1q72 -25 136.5 -66t113.5 -92t78.5 -111.5 t29.5 -123.5q0 -49 -53 -106.5t-123.5 -105.5t-140.5 -79t-102 -31h-19q-4 0 -58 3t-123 7t-134.5 7.5t-93.5 5.5h-26q-9 0 -30 4q-23 0 -43 26.5t-37 42.5q-8 -4 -5 29t1 82v43q0 14 22.5 30.5t37.5 28.5q16 0 23 -2l22 -6h37q27 0 62.5 -2t78.5 -5t86 -5q100 -8 223 -17 q12 2 32.5 -5t33.5 -3q2 2 5 25.5t5 52.5t3 52.5t1 27.5q0 8 -2 19.5t-2 17.5q0 14 -15.5 15t-51 -2t-92 -7t-136.5 0q-4 -2 -42 -3t-83 -3q-53 -2 -117 -6q-18 4 -25 3t-12.5 -2t-10.5 -3t-19 0q-14 14 -31.5 30.5t-38.5 30.5v12q0 10 2 11q2 6 -1 61t-6 129t-5 150.5z" />
<glyph unicode="6" horiz-adv-x="1069" d="M31 430q0 6 3 16.5t3 18.5t1 27.5t2 70.5t2 144.5t-1 250.5q0 43 39 113t94 136.5t116.5 114.5t104.5 48q14 2 54 1t92.5 -4t111 -7t110.5 -8t91 -7.5t51 -1.5q33 -31 52.5 -48t30.5 -31.5t15.5 -28.5t4.5 -39q0 -8 -2 -20.5t-2 -53.5q-14 -16 -41 -35.5t-43 -25.5 q-27 2 -65 3t-75 3t-65.5 4t-36.5 6q-6 -4 -30.5 -4t-51.5 2t-48.5 4t-21.5 4q-10 -4 -25.5 -4t-30.5 2t-27.5 2t-14.5 -2q-8 -10 -19 -10h-21q-9 0 -16 -6t-7 -27q2 -55 2 -86v-46q0 -15 -1 -19t-1 -6q-2 -10 -3.5 -16.5t3.5 -10.5q12 -14 39.5 -12t63.5 7t76 8t74 -9 q12 6 41 6q51 -6 109.5 -54t108 -113.5t81 -136.5t31.5 -120q0 -70 -33.5 -145.5t-87 -139t-123 -104.5t-139.5 -41h-24q-14 -4 -26.5 -1t-29.5 5h-10q-6 0 -23.5 1t-50 3t-86.5 6q-29 6 -39 19.5t-28 21.5q-35 8 -79 50t-84 98.5t-67.5 118t-27.5 108.5zM385 322 q0 -12 4 -37t4 -31q0 -10 2 -11t-2 -16q8 0 44 3t79 5.5t83 2.5t58 -5q4 -6 14 -6h15q0 8 3 30t6 46.5t6.5 44t3.5 23.5v26q0 2 1 18.5t1 34t1 33t1 19.5q0 14 -5.5 34.5t-9.5 30.5q8 20 3 18.5t-15 0.5h-12l-256 12q-4 0 -6 1t-7 -3q-4 -20 -15 -44t-1 -38v-192z" />
<glyph unicode="7" horiz-adv-x="1189" d="M31 959.5q0 5.5 2 18.5t2 38.5t-4 75.5q0 8 11 20t26.5 24.5t30.5 22.5l22 15h14q-6 -2 44 -2.5t131 2t176.5 6.5t180.5 7t144 5t66 2q16 2 43.5 0t62.5 -2h12q20 -12 41 -27q16 -12 31.5 -26.5t22.5 -30.5v-184q-68 -100 -144 -205t-153.5 -209t-156.5 -206.5 t-153 -194.5q-23 -29 -68.5 -53.5t-80.5 -28.5q-10 0 -19.5 -2t-26 -3.5t-41 -1.5t-65.5 5q-4 2 -10 14t-12 27.5t-11.5 29t-5.5 19.5q0 25 7.5 30t23.5 27q8 10 22.5 32.5t29 46t27.5 42t17 22.5q4 6 7.5 13.5t7.5 13.5q10 12 21 32.5t28 31.5l338 448q4 16 0 22.5t0 20.5 q-2 2 -2 4t-6 2q-10 0 -37 -1t-86.5 -3t-158.5 -6t-255 -10q-16 10 -29.5 22.5t-29.5 18.5q-14 8 -14.5 12t-16.5 12q-6 6 -6 11.5z" />
<glyph unicode="8" horiz-adv-x="1200" d="M39 315q0 2 1 7.5t2 19.5t2 43t1 80q14 33 43 75t62.5 83t68.5 75.5t64 57.5q8 6 9 23.5t-5 29.5l-6 10q-6 10 -15.5 23.5t-22 26t-24.5 16.5q-29 8 -49 29.5t-33.5 51t-20.5 61.5t-7 60q-4 51 -5.5 70t-1.5 29q0 53 45.5 106.5t103.5 96.5t114.5 69.5t78.5 26.5 q8 0 20.5 -1t22.5 -3q8 -2 38 -2h59q18 4 65 -5.5t86 -11.5q10 -2 22.5 -9t22.5 -17q8 -4 33 -19.5t52.5 -33t51 -32t31.5 -16.5h15q31 0 60.5 -40t53 -89t36.5 -92t13 -49q0 -18 -18 -49t-45 -69t-58.5 -78t-58 -72.5t-45 -55t-18.5 -24.5q0 -25 32.5 -51.5t72.5 -57 t73 -66.5t33 -79q0 -4 -2 -10.5t-4.5 -17.5t-2.5 -29.5t5 -49.5q4 -33 -24 -89t-73 -111.5t-97 -95.5t-95 -40q-4 0 -11.5 -1t-47.5 -2t-129 -3t-255 -2q-4 0 -15 4t-7 -2q-49 16 -101.5 42t-96.5 63t-71.5 85t-27.5 111zM383 344q0 -20 12 -41q0 -4 7.5 -6t11.5 -10 q6 4 15 8t15 4q16 0 85 -10t196 -6q4 -4 6 -2t6 2v235q0 18 -4 39l-321 12q0 -8 -12.5 -37.5t-12.5 -50.5q0 -43 -1 -67.5t-1 -39t-1 -20.5t-1 -10zM428 961q0 -25 9 -38.5t29.5 -17.5t57.5 -4q-10 0 18.5 -1t67.5 -4t77 -7t48 -8q8 4 11.5 5t13.5 5v289q-2 8 -12 12 q-2 -2 -2.5 -5t-8.5 -3q-100 16 -152.5 22t-79 7t-37.5 -2t-26 -5q-6 -12 -8 -22t-6 -23v-137v-63z" />
<glyph unicode="9" horiz-adv-x="1150" d="M28 152.5q1 5.5 1 9.5v8v82q8 14 16 27.5t19.5 26.5t29 25.5t45.5 28.5q27 -10 52.5 -12t52.5 -2h52q26 0 52 -4q-2 -4 31 -4t74 1t74.5 2t35.5 1q-14 0 6.5 -3t51 -6t59.5 -6t31 -1q10 0 30 10q-4 -4 9 41q0 12 3 25.5t1 25.5q-2 14 -5.5 20.5t-5.5 15.5t-2 27.5t4 55.5 v13v25v24v16q-4 4 -3 4t-5 0q-10 0 -11 -2t-5 -6h-55q-23 2 -43.5 2t-55.5 2q-10 2 -31.5 6t-46 10t-50 11t-44.5 10q-41 -6 -73.5 5t-47.5 11q-16 0 -36.5 16.5t-41 38t-38 43t-29.5 31.5q-8 8 -21.5 19.5t-26.5 24.5t-22.5 28.5t-9.5 33.5q0 10 -1 34t-1 49.5t2 46t8 22.5 q14 39 42 74t61 65.5t68.5 57t66.5 49.5l15 4q15 4 35 8t38 5t25 -1q2 0 43 3t89 7t89 9l41 4q4 2 9 2t23.5 -5.5t57.5 -19.5t112 -41q0 -4 5.5 -4t3.5 0q72 -57 128 -137t70 -166l8 -455q0 -115 -32.5 -210t-120.5 -173q-59 -29 -96 -48t-59.5 -30.5t-34 -15.5t-15.5 -2 q-2 0 -40 -3t-85 -7q-53 -6 -123 -10q6 0 -85 8t-296 0q-12 2 -24.5 15t-23.5 29.5t-17 34t-6 29.5q-2 6 -1 11.5zM418 868q4 -29 24 -32q6 -4 13 -5h30q25 0 77 -1t151 -7q16 -2 24 12.5t8 24.5l-18 264q-25 -6 -43 -2l-256 -18q0 -14 -8 -29v-6q0 -4 1 -24.5t0 -61.5 t-3 -115z" />
<glyph unicode=":" horiz-adv-x="540" d="M90 104q0 8 6 27t6 25v57q0 2 11.5 12.5t25 21.5t24.5 20l11 9l156 3q27 0 40 -15.5t48 -40.5v-92q0 -16 -3 -38.5t-11.5 -45t-22.5 -38t-37 -15.5q-55 0 -84 -2t-44 -3t-25.5 1t-30.5 8h-17q-6 20 -15 32.5t-17.5 24t-14.5 22.5t-6 27zM104 815q0 23 17.5 47.5 t32.5 48.5q2 2 24.5 3t51 0t55 -2t37.5 -1q8 2 23 1t30.5 -5t28 -12t14.5 -21q4 -23 7 -57.5t3 -52.5v-102q-4 -12 -16.5 -21.5t-38.5 -15.5q0 -2 -3 -4.5t-14.5 -5.5t-34 -6t-61.5 -9l-84 21q-23 0 -37 29.5t-21 64.5t-10.5 65.5t-3.5 34.5z" />
<glyph unicode=";" horiz-adv-x="540" d="M109 -172q0 18 2 22q6 14 20 19q2 0 21.5 1t42.5 3q27 2 59 4q4 29 8 51q4 20 6 38t0 22q-2 2 -21.5 5t-41.5 5q-27 2 -60 4q-8 6 -14 12q-14 10 -16 11q-2 0 -2 33.5t1 74.5t3 76t4 35t13 6t24 12l32 17l107 -13q41 -4 75 -8t38 0q4 2 10 -9t14 -26q8 -16 21 -39 q-8 -90 -15 -161q-4 -61 -9 -112.5t-5 -55.5t-13.5 -24.5t-38 -45.5t-57 -44.5t-73.5 -19.5q-82 2 -103.5 1t-23.5 6q-2 2 -4 20.5t-3 40t-1 39.5zM127 815q0 23 17.5 47.5t31.5 48.5q23 2 43 4q16 2 33.5 3.5t28.5 3.5q16 -4 33 -4h57q0 -2 10 -6.5t22.5 -9.5t23.5 -12 t13 -16q4 -23 7.5 -57.5t3.5 -52.5v-102q-8 -6 -20.5 -16.5t-34 -21t-58.5 -18.5t-94 -10q-16 0 -24.5 12.5t-20.5 12.5q-23 0 -37.5 29.5t-21.5 64.5t-10 65.5t-3 34.5z" />
<glyph unicode="&#x3c;" horiz-adv-x="1226" d="M81 786.5q-1 22.5 3 30.5q0 47 49 78t113.5 50.5t127 30.5t91.5 19q27 6 80 19.5t116.5 28t131 29.5t125 27.5t97.5 20.5t50 8q14 0 26.5 -13t21.5 -30.5t13 -35t4 -23.5q-4 -20 -5 -41.5t5 -42.5q6 -61 -23.5 -95t-66.5 -24l-344 -49q-8 2 -39.5 -9t-67.5 -23.5 t-63.5 -21.5t-27.5 -5q-2 2 -4 -11.5t-2 -7.5q16 -12 40.5 -20t49 -15.5t45 -13.5t30.5 -14h11q31 -12 92 -27.5t127.5 -31t123 -31t76.5 -31.5q16 -12 23.5 -35.5t10.5 -50.5t3 -52v-40q0 -10 -3 -25.5t-11 -30t-22.5 -24.5t-34.5 -10q-6 0 -12.5 4t-12.5 4q-4 0 -16.5 5 t-25.5 11t-22.5 10.5t-7.5 0.5q-100 33 -164.5 52t-105.5 31.5t-61 17.5l-33 8l-21 5q-8 2 -20 6q-10 6 -21.5 9.5t-25.5 7.5l-27 10q-20 8 -63 24.5t-123 45.5q-16 8 -56 19t-120 58l-23 27q0 33 -2 67.5t-5 65.5t-4 53.5z" />
<glyph unicode="=" horiz-adv-x="743" d="M103 824.5q-1 27.5 1 27.5q0 -2 16.5 0t37.5 7l37 9q16 4 20 4l43 2q2 0 40 1.5t89 2.5t107.5 2t99.5 3q14 -16 31.5 -37t19.5 -27q0 2 -4 -22.5t-8 -52t-5 -49t5 -15.5q-14 -10 -32.5 -26.5t-25.5 -16.5q-6 0 -11 2t-17 0h-10q2 2 -27 3t-80 1t-120.5 -2t-151.5 -8 q-4 -2 -4 -4t-7 -2q-4 0 -12 8t-15 17.5t-11 17.5l-5 8v86q0 33 -1 60.5zM129 502q27 -2 72 1t98 8t108.5 10t100.5 6t73.5 -2t30.5 -15q0 -2 16.5 -15.5t18.5 -23.5q0 -4 1 -19.5t1 -34t1 -33.5t1 -19q0 -6 -11 -19.5t-26.5 -27t-27.5 -23.5l-13 -10l-393 -4l-45 24 q0 55 -2 98q-2 37 -3 67t-1 32z" />
<glyph unicode="&#x3e;" horiz-adv-x="1308" d="M123 346q0 6 3 20.5t3 22.5q0 6 -3 21.5t-3 19.5q0 55 17.5 86t60.5 31l12 2q35 8 73 10t66 16l32 4q32 3 70 7t69.5 8t33.5 4q6 0 36 9t63.5 19.5t61 19.5t30.5 9q6 0 8 2q0 -2 1 2l2 9q1 4 2 7q-15 13 -40 21.5t-49.5 15.5t-46 13t-29.5 14h-10q-31 12 -92.5 26.5 t-128 30t-123 32t-76.5 32.5q-16 12 -23.5 36t-10.5 50.5t-3 50.5v41q0 10 3 25.5t11.5 30t22.5 24.5t35 10q6 0 12 -4t12 -4q10 0 34 -10t38 -16l401 -119q16 -6 27.5 -9t34 -11.5t68.5 -26t135 -51.5q16 -8 53 -18.5t98 -45.5q6 0 13.5 -6t11.5 -8q14 -18 14 -22v-5 q0 2 3 -9t7 -13q2 -43 3 -72t2 -50.5t1 -37.5v-35q0 -31 -26.5 -54.5t-66.5 -42t-90 -31.5t-96 -22.5t-85 -15.5t-57 -12q-29 -6 -78 -19.5t-107.5 -28t-121 -29.5t-116 -27.5t-90 -20.5t-47.5 -8q-16 0 -27 13t-20.5 30.5t-13.5 35t-4 23.5z" />
<glyph unicode="?" d="M33 1382q0 20 8 24.5t29 29.5q12 10 33.5 8t37.5 2q0 -2 33 -1t81 3t105.5 4t106.5 4t82 4t35 2h82q33 0 85 -38t102 -89t86 -104t36 -84v-135q0 -6 -17.5 -37t-31.5 -49q-59 -68 -127 -104t-127 -64q-27 -6 -44.5 -4t-36 4t-44 3t-66.5 -7q-4 2 -21 2h-39q-22 0 -38 1 t-16 5q0 -4 1 -41t3 -80q2 -51 4 -113q0 -29 -3 -59.5t-44 -44.5l-17 -6q-20 0 -50 2t-58.5 4t-50 3t-25.5 -1q-23 29 -47.5 57.5t-24.5 57.5q0 4 3 6t3 10q0 6 -3 8t-3 6q2 51 3 91t1 74t1 64.5t1 63.5q-4 4 -9 29t-5 31q0 18 1 28.5t7 17.5t16.5 13t28.5 16q12 -4 59.5 -2 t100.5 4.5t99.5 3.5t56.5 -4q2 0 35.5 -1t75.5 -3t78 -4t44 -4q-2 0 1 -1t7.5 1t7.5 9.5t1 21.5q0 14 -4.5 31.5t0.5 58.5q0 6 5 13t5 16q0 2 -1 13t-5 22.5t-11.5 19.5t-19.5 6q-27 4 -51.5 -1t-63.5 -1q-6 2 -44 -1t-88 -7t-105.5 -9t-100.5 -8.5t-69.5 -3.5t-14.5 7 q-16 0 -30.5 16t-26.5 16q0 14 -2 42t-3 56.5t-2 50t-1 25.5zM88 104q0 8 6 27t6 25v57q0 2 11.5 12.5t25 21.5t24.5 20l11 9l156 3q27 0 40 -15.5t48 -40.5v-92q0 -16 -3 -38.5t-11.5 -45t-22.5 -38t-37 -15.5q-55 0 -84 -2t-44 -3t-25.5 1t-30.5 8h-17q-6 20 -15 32.5 t-17.5 24t-14.5 22.5t-6 27z" />
<glyph unicode="@" horiz-adv-x="1499" d="M61 1100q12 31 24.5 75t32 89t48.5 86t76 63q10 6 29.5 17.5t41 20.5t43 15.5t37.5 3.5q31 -4 65 -6t40 -2h51l31 -1q31 -1 75.5 -3t97 -4t96.5 -4t73 -3l28 -1q33 -2 61.5 -12.5t24.5 -6.5q70 6 129.5 -17.5t101.5 -63t66.5 -91t26.5 -98.5q8 -10 13 -29.5t11 -29.5 q0 -6 2 -27l5 -41q2 -20 3 -37.5t-1 -17.5q4 -35 5 -72t3 -53l-17 -211q0 -8 -22.5 -46t-53 -79t-62.5 -74.5t-50 -33.5q-2 0 -30.5 -3.5t-62.5 -6.5t-64.5 -5t-37.5 -2l5 2h-7q-53 0 -127.5 7.5t-144.5 -5.5q-43 2 -65.5 3t-33 1t-11.5 -1l-1 -1q-35 4 -68.5 31t-61 62.5 t-44 74.5t-14.5 70l14 246q8 78 47 119.5t105 70.5q100 0 155.5 1t81 2t30.5 2t7 1q29 0 49.5 -18.5t37 -44t27.5 -51t22 -39.5q16 -20 15 -52t-1 -61l6 -162q0 -10 12.5 -10t27.5 3t28.5 4t13.5 -5l-10 491q4 23 -9.5 28t-25.5 1h-48h-94q-54 0 -116 1t-115 2t-92 1h-47 h-28q-24 0 -51.5 1t-51.5 1h-29q-6 -2 -12 -2q-4 -2 -9.5 -2t-9.5 -2q-2 -2 -3 -11t-2 -21.5t-1 -23.5v-16q0 -2 2 -56t4 -135t5.5 -174t5.5 -174t4 -135.5t2 -56.5q6 2 22.5 -3t40 -10t52 -9t59.5 -2q2 2 14 4t25.5 4t26 3t12.5 -1q14 0 26.5 -2t54.5 -4t127 -3t244 1h80 q10 0 20.5 -8.5t17.5 -17.5t12 -17l5 -8v-56v-84q0 -43 -2 -76.5t-8 -33.5t-23.5 1t-38 2t-35.5 0t-15 -3q-45 2 -78 2h-88q-55 0 -150.5 1t-267.5 5q-2 -4 -27.5 -3t-54.5 3q-37 2 -80 4q-47 0 -96 28.5t-89 75t-64.5 103.5t-24.5 117zM653 719q6 -35 7.5 -50.5t7.5 -23.5 q10 4 13 1t7 -1t22.5 3t30.5 1q4 0 14.5 -1t14.5 1h16q4 0 5.5 -1t3.5 -1h12l-4 197l-115 -4q-10 -2 -18 -6.5t-8 -16.5z" />
<glyph unicode="A" horiz-adv-x="1042" d="M41 74q0 6 4 14t4 16q0 6 6 21.5t12.5 32t10.5 29t0 12.5l147 565q4 12 10.5 33.5t10.5 27.5l82 289q8 23 18 71t47 134q0 6 7.5 16.5t9.5 14.5l24 22q10 16 15.5 12t11.5 -2q45 2 74.5 4.5t52 3.5t41.5 1h37q33 0 57.5 -35t43.5 -89.5t32.5 -121t24 -129t16.5 -113.5 t12 -76q8 -37 21.5 -102.5t29 -143t31.5 -159.5t29.5 -151.5t21.5 -120t8 -62.5q0 -23 -14 -39t-32.5 -26.5t-36 -16.5t-25.5 -6q-6 0 -21.5 4t-23.5 4q-6 0 -11.5 -4t-11.5 -4q-57 0 -89 22.5t-32 81.5q0 6 -3 37t-10 65t-19.5 61.5t-32.5 27.5q-61 6 -100 7t-64 0t-38 -3 t-21 -4q-31 -20 -46.5 -49t-26.5 -61.5t-20.5 -66.5t-27.5 -63q-25 -41 -61 -44t-68 -3q-10 0 -29.5 -1t-39 4t-34 19.5t-14.5 43.5zM422 567q4 -8 16 -8h60q6 0 22.5 -2t32.5 -5t29.5 -7t15.5 -6q16 -2 14 -3t15 -4q2 5 2 16q0 8 -1 20q-3 28 -9.5 66t-16.5 78t-18.5 75.5 t-14.5 59t-6 25.5v8q0 3 -3 15t-8 36.5t-17 72.5q-4 -23 -21.5 -83.5t-38 -129t-37 -128t-16.5 -77.5v-19z" />
<glyph unicode="B" horiz-adv-x="1177" d="M53 1323l9 14q9 14 22.5 33t27 35t19.5 22q20 -4 37.5 -2t28.5 2h41h12h2h12q139 -16 212 -22t106.5 -8t41 -2t17.5 -2q16 -4 24.5 -8.5t22.5 -6.5q59 -27 116.5 -67.5t101.5 -92t69.5 -109.5t25.5 -116q0 -43 -24.5 -82t-52 -69.5t-51 -53t-23.5 -32.5l33 -27 q33 -27 75.5 -66.5t85.5 -88t66 -91.5l6 -155q-2 -57 -53 -117.5t-117.5 -109t-132.5 -75.5q-54 -23 -81 -23q-6 0 -11 1q-49 0 -60.5 -3t-19.5 -3h-51q-4 0 -18.5 2t-31 4t-29.5 1t-11 -7q-27 -2 -40 -2h-20h-10h-3q-3 0 -16.5 1t-40.5 1h-77q-16 0 -34.5 -1t-59.5 1 q-20 0 -41 22.5t-37 38.5l-19 369q2 -12 1 5.5t-2 45t-3 54t2 34.5l3 13q3 12 3 52t-6 115.5t-24 202.5q0 10 1 19.5t0 36t-3 81t-8 156.5q0 20 -6.5 45t-6.5 35zM403 332q-2 -7 -1 -14q0 -17 12 -25q16 -12 43 -17q21 -3 44 -3h11q29 1 49 3q27 2 45 3q13 0 22 -1 q19 -3 42 5q10 0 23.5 -2t23.5 2l-17 272q-10 0 -20 -1t-30.5 -1t-53.5 1t-90 1q-14 -6 -23.5 -9t-25.5 -3q-10 0 -23.5 -2t-17.5 -11q-2 -12 -5 -22t-8 -14v-162zM414 1094q13 -50 13 -85q0 -48 2 -62q3 -22 19.5 -31t65.5 -9q14 0 26 -2q4 -1 6 0q6 0 9 2q12 6 22.5 5 t18.5 2.5t12 16.5t8 50q2 8 1 13t-3 19.5t-1 44t5 89.5h-15q-11 0 -25.5 -1t-26.5 -1h-16q-4 0 -23.5 3t-30.5 3q-10 0 -27.5 -2t-33.5 -2q0 -4 -2 -11t-4 -42z" />
<glyph unicode="C" horiz-adv-x="972" d="M61 1018q0 37 24 63.5t32 61.5q4 18 30.5 49t59.5 62.5t65.5 58t51.5 39.5q24 24 52 23q6 0 13 -1q16 4 30.5 6t26.5 2q20 0 46 2t92 7q2 0 21.5 -7.5t39 -15.5t34.5 -14t13 -6q8 -4 12.5 -5.5t14.5 -5.5q41 -23 66.5 -49t43 -56t28.5 -60.5t22 -59.5l8 -178 q0 -10 -7.5 -25.5t-17.5 -31t-22.5 -25.5t-24.5 -10q-27 0 -46 -1t-39.5 -2t-44 -2t-56.5 1q-4 2 -9.5 2t-9.5 10q-20 33 -32.5 39t-12.5 24q0 6 2 35t2 37v57q4 12 -14 16.5t-43 6.5t-47.5 1t-24.5 1l-24 -8q-12 -4 -8 -27l12 -661q4 -27 26.5 -36t48 -10t49 3t27.5 2 q12 6 13.5 15t-1.5 19.5t-8.5 21.5t-5.5 24q0 8 4.5 17t4.5 17q0 6 -4.5 28t-4.5 32q0 12 5.5 33.5t14.5 43t24.5 38t37.5 16.5q18 0 41 -3t84 -3q12 0 19.5 2t29.5 4l37 -33q18 -16 27 -45v-266q-4 -18 -11.5 -39t-15.5 -37q-10 -25 -45 -62.5t-76 -73.5t-79.5 -61.5 t-55.5 -25.5q-8 0 -51 1t-93 6t-94 14.5t-53 25.5q-8 6 -12 7t-7 3t-6 6t-11 15l-138 139q-27 66 -42 92.5t-22 41.5t-10.5 33.5t-3.5 67.5v543q0 12 -1 14.5t-1 16.5z" />
<glyph unicode="D" horiz-adv-x="1120" d="M84 1154q-2 18 -2 36q0 28 4 58q6 50 29.5 92t79.5 49q12 0 28.5 -1.5t26.5 -1.5l319 23q7 5 11 5q3 0 4 -3q2 -6 18 -2q90 -16 163 -62.5t126 -109.5t85 -137t38 -144l26 -510q-14 -53 -50 -118.5t-84 -127t-103 -107.5t-109 -56q-12 -6 -28.5 -13.5t-33 -13.5t-28.5 -9 t-14 -3q-4 -4 -11.5 -4t-29.5 -4q-20 -2 -61.5 -5t-87.5 -7q-35 -2 -67 -2h-22q-43 1 -69 8q-18 6 -42 21t-44.5 32.5t-36 32t-15.5 18.5q0 12 6.5 38t4.5 34q0 8 -3 8t-6 10q-4 43 -6 152.5t-4 247t-4 278.5t-4 248q0 6 -4 50zM387 1063l4 -293l37 -408q2 -16 31.5 -15 t91.5 5q18 2 36.5 -2t37.5 -10q4 2 6 0q1 -1 2 -1q3 0 10 3q6 0 12.5 2t10.5 4l-37 739q-10 2 -33 4.5t-47.5 4.5t-43.5 2h-22q-8 0 -16 -5.5t-18 -5.5q-6 -2 -12.5 2.5t-14.5 0.5l-33 -3z" />
<glyph unicode="E" horiz-adv-x="983" d="M84 1339q0 6 7 15.5t18.5 18.5t22.5 15.5t18 6.5q4 0 74.5 3t171 4t209 1t188.5 -4q25 -2 45 -24.5t43 -41.5l6 -151q-2 -12 -12.5 -25.5t-47.5 -13.5q-16 -10 -30.5 -11.5t-36.5 -1.5l-363 -6l-41 -6v-12q2 -14 1 -36l-2 -43q-1 -22 -1 -38v-20v-46q0 -30 15 -36 q2 0 7 -5l9 -10q0 -2 11.5 -3t24.5 0t24.5 2t15.5 1l43 2q2 0 40 1.5t89 2.5t107.5 2t99.5 3q14 -16 31.5 -37t19.5 -27q0 2 -1 -19.5t-3 -48t-4 -49t-4 -22.5q-10 -8 -31 -25.5t-27 -17.5t-11 1t-17 1l-84 -2l-342 6q-6 -4 -5.5 -13t5.5 -14q4 -6 8 -27.5t0 -25.5l4 -12 v-30q0 -22 2 -48l4 -53q2 -27 4 -41q0 -6 1 -35t1 -68q27 -2 71 -2h95h105q53 0 96 -3t70.5 -9t29.5 -18q0 -2 16.5 -15.5t18.5 -23.5q0 -4 1 -19.5t1 -34t1 -34t1 -19.5q0 -6 -10 -19t-23.5 -26.5t-27 -24t-17.5 -10.5q-2 0 -44 1t-104.5 1t-136 1.5t-139.5 2.5 q-33 1 -61 0.5t-51 -0.5q-47 -1 -56 -1l-47 -7q-12 0 -25.5 8.5t-25.5 20.5t-21.5 25.5t-11.5 21.5v64q0 4 1 15t3 23.5t2 22.5t-4 10q-2 15 -2 35q0 23 3 51q2 20 2 37q0 28 -5 49v79q0 67 1 156t2 189q1 50 1 96t-1 88q-1 83 -3 134t-6 43q-2 4 -2 52t-4 103z" />
<glyph unicode="F" horiz-adv-x="1150" d="M63 104l29 805v412q0 6 25.5 31.5t44.5 48.5h41q10 0 62 -1t157 -1q6 0 48 -1t101.5 -2t126 -3t124 -3t95 -2.5t39.5 -1.5q31 0 51.5 -18t33 -41.5t17.5 -44t5 -25.5v-37q0 -13 -6 -24.5t-23.5 -25t-50.5 -40.5h-8h-10q-29 2 -53 -3q-6 -1 -14 -1q-22 0 -56 11 q-2 0 -10.5 -1t-36 -1t-84 1t-154.5 5q-8 6 -49 2q-10 4 -20.5 2t-16.5 -2q-10 0 -15 -7.5t-7.5 -16.5t-2.5 -17v-10v-22v-41q0 -24 1.5 -50.5t3.5 -44.5q2 -16 22.5 -35.5t40.5 -19.5q80 0 180.5 -11.5t188.5 -11.5q12 0 52 -4q27 -3 50 -3q12 0 23 1h18q10 -29 23.5 -47.5 t13.5 -40.5v-7v-14v-29q0 -19 -2 -55q-2 -18 -33 -41.5t-53 -29.5q-41 0 -67.5 -2t-55.5 8q-23 8 -41 6t-66 -2q2 0 -20.5 2t-55 3t-69.5 3t-68 2h-30q-8 0 -19.5 5t-25.5 -1q-4 0 -14.5 -3t-10.5 -13v-199l-10 -297q-4 -23 -24.5 -52.5t-32.5 -45.5h-29q-18 -2 -50 -2 t-50 10q-29 8 -38.5 4t-23.5 -4q-29 0 -44 3t-25.5 13.5t-20 28.5t-21.5 51z" />
<glyph unicode="G" horiz-adv-x="1157" d="M88 426l6 336l5 51q3 31 7 102v175q18 49 41 85.5t41.5 61.5t30.5 37l12 12q0 12 22.5 32.5t51.5 39.5q33 23 76 45q8 0 11 4t5 4q2 6 16.5 12.5t33 10.5t36 7t23.5 5q8 0 28.5 1t41 3t36.5 2h19h80q6 -2 11 -4t17 -6q8 -2 22.5 -8.5t29 -13.5t27.5 -13t20 -8 q37 -29 73.5 -68t66.5 -82t50.5 -87t24.5 -83v-121v-38q0 -10 -7.5 -18.5t-27 -24t-57.5 -56.5h-13q-41 -2 -65.5 -2t-46.5 10q-18 10 -38 27.5t-32 46.5q-8 0 -4 6t0 9l6 100v121q-4 4 -9 7t-7 7q-2 8 -9.5 10t-32 1t-72.5 -5t-134 -10q-10 0 -38 8q-11 3 -26 3 q-22 0 -51 -7l-5 -26q-3 -15 -3 -21v-696l37 -121q14 -2 15 -6t11.5 -7.5t44 -6.5t115.5 -3l70 -14l94 2q2 -2 5 -2t3 4v31q0 12 2 41v82v6q0 6 -3 8t-5 6q-14 -4 -34.5 -6t-42 -3t-43 -1t-36.5 2q-35 2 -47 25.5t-12 33.5l-4 84q0 20 18.5 43t46.5 31q8 0 14.5 -1t37 -4 t97 -7t196.5 -9q27 -27 48 -41t21 -49l-4 -118l-2 -107q2 -53 -34 -106.5t-88 -98.5t-112.5 -76.5t-105.5 -44.5q-6 -2 -15 -2q-7 0 -15 1q-19 3 -21 6q-17 2 -35 2t-36 -2q-36 -4 -58 12q-14 12 -44 18t-64 12.5t-67.5 18.5t-54.5 39q-14 6 -44.5 42t-62.5 86t-55.5 108.5 t-23.5 107.5z" />
<glyph unicode="H" horiz-adv-x="1290" d="M90 102l16 699l21 381q0 6 2 43t9 80t24.5 76.5t52.5 33.5q8 0 18.5 -3t61.5 -3q10 0 25.5 -4t17.5 0h51l17 -16q10 -10 20 -21.5t15 -23t1 -21.5v-272q-2 -10 -4 -29l-4 -37q-2 -18 -3 -33.5t-1 -19.5q0 -10 17.5 -17.5t40 -12.5t43 -8t24.5 -3q6 0 6 5t4 5l199 -6 q4 0 39 -3q5 0 10 -1q29 0 53 16q0 -6 2 37t3 99.5t2 107.5t1 59q0 27 2.5 37t0.5 33q4 10 4 18v19q16 23 30.5 42t40.5 19q20 4 45 6q23 2 52.5 0t66.5 -10q31 -6 48.5 -19.5t25.5 -29.5t9 -36.5t1 -39.5l-37 -1052q0 -6 -9 -30t-23.5 -50.5t-29 -48t-26.5 -21.5h-102 q-10 0 -23.5 -3t-21.5 -3q-37 0 -54.5 27.5t-46.5 60.5l11 254q10 55 11 120.5t17 119.5q-29 16 -58.5 9t-62.5 -7q-10 0 -24 2t-28.5 5t-27 6t-14.5 3q-8 -2 -18 -4t-17 -2q-10 0 -34.5 1t-34.5 1h-39q-8 0 -13.5 4t-15.5 4q-6 0 -15 -2t-18.5 -5t-13.5 -10t0 -16l-22 -422 q-4 -18 -6.5 -41.5t-7.5 -45t-18 -38t-40 -20.5q-57 -11 -86 -11q-10 0 -16 2q-25 5 -31 5q-45 0 -65.5 17.5t-37.5 23.5q-12 6 -12 20z" />
<glyph unicode="I" horiz-adv-x="577" d="M106 1311q0 31 22 49t52.5 26.5t63 10.5t55.5 2q8 0 26.5 5t24.5 5q10 0 11 -3t8 -3q10 0 22 -17.5t22.5 -40t18.5 -45t12 -32.5l25 -1114q-4 -16 -17.5 -38t-33 -43.5t-44 -38t-48.5 -20.5q-2 2 -4 2h-13h-29q-19 0 -57 -2q-37 27 -53 45.5t-21.5 37t-4.5 38t1 45.5 l-16 312q2 6 2 34v72q0 43 -1 96.5t-1 108.5q0 8 6 28.5t4 55.5q-4 39 -10 82t-10 114z" />
<glyph unicode="J" d="M66 416q4 22 3 41q0 13 -1 25q-4 30 -2 26v24q10 6 29.5 16.5t42 18.5t45 12.5t40.5 -1.5q12 -4 30.5 -1t37.5 -6q37 -16 54 -42.5t25.5 -58.5t11.5 -63.5t11 -59.5t24.5 -47t53.5 -26q31 -4 67 -10q10 -2 18 -1q24 0 44 11q14 2 21.5 10.5t11.5 14.5l4 8q2 4 2 10 l-18 697q-6 2 -29 2q-6 6 -38 8t-77 3q-23 1 -47 1t-50 -1q-52 -1 -95 -3q-19 -3 -44 -3q-13 0 -27 1q-42 2 -81 2q-8 0 -18.5 10t-20.5 22.5t-17 22.5l-7 11v18q0 16 1 37.5t1 42.5v31l10 11q10 11 22.5 24.5t24.5 23.5t16 10h17q76 2 116.5 3t61 3t26 3t11.5 1 q12 -2 35.5 -3t40.5 3q4 0 16 2.5t25.5 4.5t24.5 4t16 2q23 0 40 -1t50 3q-6 0 7 0h31q17 0 31.5 -2t14.5 -4l11 2q11 2 24.5 5t25.5 5t16 2q31 0 30 -1t9 1h13q27 -27 55.5 -59.5t46.5 -59.5v-821q0 -129 -96 -221t-271 -146q-25 -8 -49 -15q-10 -3 -24 -3q-21 0 -51 6 q-23 0 -31 2t-17 2q-6 4 -8 8t-6 2q-39 2 -72.5 27t-62.5 57.5t-53.5 64.5t-44.5 48q-29 23 -44.5 58.5t-15.5 62.5q0 2 -4 14t-10 25.5t-10 26t-4 16.5z" />
<glyph unicode="K" horiz-adv-x="1290" d="M68 94l77 1192q4 14 14.5 40t24 48.5t27.5 40t27 17.5q8 0 18 -1t25.5 -2.5t39 -3.5t58.5 -4q25 -18 49.5 -50t34.5 -60v-430q41 29 93 74.5t107.5 97t109.5 103.5t101.5 93t83 67.5t54.5 26.5h26h15q6 0 14 -1l25 -3q6 -6 22 -24.5t34.5 -40t33 -43t14.5 -33.5 q0 -47 -27.5 -79t-67.5 -61.5t-82 -63t-69 -85.5l166 -878q0 -29 -24.5 -52.5t-47.5 -31.5h-14q-14 -2 -26.5 -2t-22.5 2q-20 4 -61 8q-8 0 -21.5 12.5t-26 28.5t-23.5 33.5t-13 27.5q0 23 -11.5 60t-9.5 65q-8 12 -16 47t-16.5 74t-14.5 72t-8 43q-18 72 -29.5 150.5 t-42.5 150.5q-12 4 -14 2t-15 -2q-6 0 -41.5 -15.5t-76.5 -41t-78 -61.5t-45 -79l-25 -452q4 -12 -3 -22.5t-18.5 -19t-24.5 -16.5t-23 -18l-109 6h-18q-12 0 -26 1l-27 2q-13 1 -21 1q-8 16 -31.5 43t-23.5 47z" />
<glyph unicode="L" horiz-adv-x="1030" d="M74 1235q0 10 1 27.5t-1 31.5q0 20 25.5 45t39.5 29h4q12 4 27.5 5t52.5 5q12 4 23 4h22q12 0 29.5 1t46.5 10q3 1 6 1q11 0 20 -12q11 -14 19 -34.5t14 -38.5l9 -25l28 -835q2 -12 3 -30t5.5 -35t12.5 -30.5t24 -15.5h21l25 -1q26 -1 63 -2t80 -2t81 -1t62.5 1t26.5 5 q6 -4 20 0q6 2 13 6q25 0 40 -11t24 -26.5t12 -29t3 -17.5q0 -8 -2 -47t-6 -125q-2 -23 -32.5 -39t-53.5 -33l-336 -14l-2 -2q-2 -2 -2 -4q-43 0 -56 1t-9 3q-20 -4 -54 -6t-43 -2q-10 0 -20 2t-57 2q-4 0 -32 -2t-42 2q-4 0 -17.5 8t-29 20.5t-27.5 28t-12 29.5q0 63 4 124 q1 12 1 24q0 47 -13 87q0 6 -5.5 15.5t-5.5 15.5q0 51 -2 69.5t-2 28.5v35q0 18 -2 37v92q2 23 1 41.5t-2 36t-4 37.5t-5 49q-4 16 -3 49t2 68t2 66.5t-1 46.5q-4 10 -5 19t-3 13q0 31 2 40t4 12.5t0 9.5t-8 30q0 14 3 27.5t3 28.5q0 10 -5 26.5t-5 24.5z" />
<glyph unicode="M" horiz-adv-x="1206" d="M55 1287v26q0 8 17 24l24 25q6 6 14.5 11t30.5 11q18 10 53 6t74 -6q43 -37 97.5 -88t106.5 -106t95 -111.5t64 -101.5q4 6 23.5 44t46 90t54 110.5t50.5 107.5q20 27 40.5 30t43.5 23q14 8 20 15.5t23 7.5q14 0 25.5 -1t23.5 -1h29h43q6 0 19 -14.5t25.5 -32t21.5 -33.5 t7 -20v-1149q2 -16 -16 -41t-35 -43l-22 -4q-25 -9 -49 -9q-10 0 -20 1q-19 3 -40 3q-17 0 -35 -2q-8 2 -19 11.5t-21.5 22.5t-18.5 27.5t-10 29.5l-6 712q0 10 2 14.5t-5 14.5q-25 -31 -42 -67t-35.5 -73.5t-43 -75.5t-61.5 -69h-16q-6 2 -8 -1t-7.5 -3t-18.5 3t-46 18 q-25 2 -52.5 38.5t-52 79.5t-40 79t-13.5 36l-35 6q-4 -8 -4 -28l21 -150l14 -522q0 -10 -2 -34t-10 -49.5t-24.5 -45t-47.5 -19.5q-10 0 -26.5 -2t-61.5 -2h-67q6 0 -2.5 1t-21.5 6.5t-29.5 17.5t-26.5 35l-11 1130q-2 8 -3 23.5t-2 32t-1 31.5z" />
<glyph unicode="N" horiz-adv-x="1179" d="M51 1247q2 6 14.5 20.5t28 28t29.5 23.5t20 10h54q4 2 9 -1t5 -1q86 -41 151.5 -111.5t123 -154.5t111.5 -175t118 -171q0 2 3 -2t3 -2q10 -6 10 12l21 567q10 25 34.5 42.5t47.5 35.5l161 8q6 0 16.5 -12t21.5 -28.5t19.5 -33t10.5 -22.5l8 -1116q0 -31 -24.5 -57.5 t-57.5 -26.5q-27 0 -68 -1h-13q-39 0 -95 5q-10 2 -11 3t-11 7q-18 4 -36 18.5t-33 33t-26.5 37t-17.5 30.5q-10 16 -22.5 38.5t-23.5 42t-19.5 35t-8.5 19.5t-11 18.5t-32.5 44t-51.5 78t-67 121.5q-16 23 -28.5 32t-20.5 13l19 -469q0 -8 -7.5 -24.5t-19.5 -32.5 t-26.5 -28.5t-28.5 -12.5q-10 -4 -38 -5t-57.5 -1t-55 2t-34.5 4q-20 12 -39.5 47t-27.5 58z" />
<glyph unicode="O" horiz-adv-x="1103" d="M66 358l12 338v236q0 37 2 65.5t2 51.5q0 49 35 100t79 94t83.5 70.5t48.5 27.5q4 2 10 3.5t10 5.5q31 18 45.5 31.5t23.5 21.5t20.5 11t35.5 3q12 0 40 -4t28 -2h51h8q4 0 11 -1t14 -1h12q10 0 23.5 -6t26.5 -14.5t25.5 -15.5t18.5 -9q68 -37 124 -91t99 -115.5t70 -125 t31 -117.5l10 -370q0 -37 -13.5 -93.5t-39 -119t-63.5 -124t-85 -111.5t-104.5 -80.5t-122.5 -30.5q-4 0 -18.5 1t-32 2t-32.5 2t-17 1q-12 -2 -19.5 -2t-20 2t-34 6t-64.5 10q-4 2 -10 6q-4 4 -11 7.5t-18 7.5q-29 18 -68.5 43.5t-76.5 56.5t-65.5 61.5t-36.5 57.5 q-23 23 -33 55t-14 55zM414 285q27 0 57.5 -1t58 -3t50 -4.5t30.5 -4.5q14 6 38 11.5t28 9.5q10 4 10 20q0 96 -4 163t-8 112t-5 73.5t5 49.5l-15 370q0 12 1.5 14.5t-1.5 12.5l-18 22q-25 0 -54.5 -1t-60 -4t-59.5 -9t-49 -14v-211q2 -8 3 -22.5t3 -30t3 -30.5t1 -24z" />
<glyph unicode="P" horiz-adv-x="983" d="M51 174q2 55 6 78v293q0 16 3 26.5t-1 20.5v88q4 25 6.5 38t3.5 27.5t1 36.5v65q0 42 1 110.5t3 177.5q0 12 1 30.5t1 37t1 34.5t1 23q0 10 10 32.5t24.5 45t32 39t29.5 12.5q4 4 17 10q10 5 15 4h3q6 0 13 -3t43 -4t111 -1t216 4q27 0 49.5 -10.5t44.5 -26.5q6 0 17 -7 l23 -15l23 -14q11 -7 19 -9q102 -66 145 -143.5t43 -167.5q0 -43 -41 -96.5t-92 -99.5t-100 -78t-64 -34q-16 -6 -37.5 -8t-55.5 -3t-81 -3t-114 -8v-41l-6 -479q0 -10 -10.5 -24.5t-25 -30t-28.5 -28t-22 -20.5h-13q-23 -8 -48 -8q-12 0 -24 2q-38 6 -67 10 q-10 0 -22.5 17.5t-23.5 38t-19.5 39t-10.5 22.5zM379 977q0 -29 13.5 -57.5t13.5 -38.5l38 2l10 3q3 1 16 3t47 4l101 6q8 -6 15 -2q0 8 3 16.5t7 30t8 62.5t11 118q0 4 -11.5 12.5t-15.5 10.5l-240 -4q-10 -10 -11 -19.5t-1 -19.5q-4 -76 -4 -97v-30z" />
<glyph unicode="Q" horiz-adv-x="1183" d="M55 926q6 63 45 129.5t94.5 127t117 107.5t114.5 70l137 2q8 0 40 7q17 4 30 4q11 0 20 -3q45 0 90 -35t85 -81t71 -91t47 -67q23 -33 33 -83t10 -95v-519q0 -29 20.5 -34t26.5 -7q4 0 9.5 -1t9.5 3q8 2 10 6.5t12 2.5q29 -27 45.5 -49.5t23.5 -44t8 -42t1 -45.5 q0 -12 -4 -36.5t-15.5 -47t-31 -40t-49.5 -17.5q-2 0 -19.5 1t-39 2t-38 1t-14.5 0q-4 0 -38 2t-102.5 5t-178 4t-263.5 1q-55 8 -109 49.5t-97 97.5t-69 118.5t-24 111.5zM395 1008l31 -467q4 -39 7 -63.5t5 -42t4 -33t7 -35.5q10 4 19 2t17 -4q6 2 29 1t49 -1h49 q23 0 29 4q12 6 16 11q3 4 4 11q0 4 -4 27q-2 14 -2 41q-4 90 -5 122.5t-1 40t1 8.5t1 27v50l-12 362l-186 -10q-20 -4 -39 -14t-19 -37z" />
<glyph unicode="R" horiz-adv-x="1130" d="M63 195q0 2 2.5 11t5.5 43t5 100.5t4 181.5q1 77 1 181v110q-1 175 -5 427q0 27 14 54.5t34.5 50t45.5 38t47 17.5q10 0 72.5 5t141.5 12.5t158 11.5q39 2 69 2t51 -2l131 -58q35 -23 84 -61.5t71 -79.5q12 -23 23.5 -56.5t18.5 -65.5t12.5 -56.5t5.5 -26.5v-129 q0 -23 -32 -65.5t-71 -90t-70.5 -87t-31.5 -54.5q0 -14 19.5 -55t48 -95.5t61.5 -115.5t61.5 -114.5t48 -92.5t19.5 -49q0 -8 -8 -20.5t-18.5 -24.5t-21.5 -24l-18 -17q-23 -10 -54.5 -10t-62 3t-54 7t-31.5 4l-72 62q-6 12 -11 17t-8.5 11t-6.5 15.5t-7 29.5q0 4 -15 38 t-31.5 76t-31 81t-14.5 55q0 8 -12.5 34t-28.5 55.5t-31.5 56t-21.5 34.5q-18 10 -39 4t-57 5h-23q-31 -29 -33 -53.5t-2 -57.5l6 -369q-6 -29 -32.5 -53.5t-38.5 -40.5h-94q-23 2 -33 2h-16q-5 0 -6 -1t-7 -1q-18 0 -36.5 15.5t-34 39t-24.5 48t-9 43.5q0 6 -2.5 20.5 t-4.5 24.5zM414 825q0 -14 9 -28.5t32 -14.5q18 0 45.5 -4t61.5 -8t68 -5h9q29 0 55 5q10 0 20.5 2t10.5 14l14 353q0 1 1.5 9.5t1.5 12.5q0 11 -13 21l-283 -6q-18 -4 -25 -23.5t-7 -28.5v-299z" />
<glyph unicode="S" horiz-adv-x="1097" d="M80 973v110q0 31 36 76t82 86t88 71t52 30q4 0 23.5 5t40 12t37.5 12l18 5h467q2 0 3 -1t3 -1q33 -29 51 -49t26.5 -38.5t10.5 -40t2 -52.5t-1 -45t-9.5 -24.5t-26.5 -23.5t-53 -42l-492 16q-25 0 -36 -17.5t-14 -41t-2 -48t1 -38.5q0 -12 1 -41t5 -35l342 -4 q123 -53 203 -149.5t80 -217.5q0 -84 -52.5 -165.5t-125 -143t-149.5 -96.5q-62 -28 -106 -28q-10 0 -20 1h-10l-356 -22q-12 0 -27.5 11t-30 26.5t-27 32t-20.5 26.5v141q35 35 48.5 54.5t22.5 28.5t20.5 11.5t41.5 2.5q4 0 25.5 -1t49.5 -2l55 -3q28 -1 40 -1 q12 -4 30.5 -5t39 1t40 4t34.5 2q47 0 69.5 -1t32.5 1.5t15.5 5.5t21.5 13q0 -4 2 35t4 139q-8 4 -24.5 11t-20.5 7q-10 0 -19.5 -1t-23.5 -1h-16q-129 0 -223.5 38t-157 97.5t-92 130t-29.5 136.5z" />
<glyph unicode="T" horiz-adv-x="1042" d="M37 1169q0 8 2 24.5t4 66.5q-4 16 -4 30q0 29 16 55q25 38 60 66l26 -4h37q123 0 221 -2q41 0 81 -1t71 -2t48 -2l17 -1q35 0 69 -10q14 -4 29 -5q21 0 44 9q18 2 33 2h27h30h41q57 -29 112 -78q-2 -39 -2 -62v-32q0 -10 1 -14.5t1 -6.5q-4 -12 -14 -29.5t-24.5 -35 t-28.5 -30.5t-25 -17h-215q-27 6 -36 -4.5t-9 -30.5l-16 -965q2 -12 -7.5 -29.5t-24.5 -34t-32.5 -31.5t-27.5 -22q-12 0 -18.5 -4t-12.5 -7t-14.5 -3t-26.5 10h-72l-17 18l-24 23q-12 12 -21 24.5t-9 22.5l10 656l20 372h-34h-17q-10 0 -30.5 2.5t-30.5 2.5h-10h-15 q-10 0 -31.5 1t-60.5 5q-8 6 -33.5 17t-48.5 28q-8 16 -8 28z" />
<glyph unicode="U" horiz-adv-x="1036" d="M43 285v186q4 25 3 33t-1 33v61q0 8 2 38t4 60.5t3 54t-1 17.5q0 16 2 41t2 37q0 10 4.5 12t-4.5 10q0 49 1 90t1 48q0 18 7.5 24t-3.5 21q0 59 1.5 74.5t1.5 25.5t2 18.5t2 28.5q0 -4 -2 13.5t-2 23.5q0 8 2 16.5t2 16.5q0 2 9 11t23.5 21.5t31 26.5t28.5 27h112 q18 -29 34 -45.5t27 -29.5t17 -26.5t6 -35.5l-16 -412v-305h11h36q27 0 73 1t122 1q8 2 12 0t10 16l39 748q0 4 10.5 20.5t23.5 33.5t25.5 31.5t18.5 14.5q53 0 75.5 1t32 2t16.5 1t32 -2q23 -12 40 -46t29 -54l-6 -918q-6 -33 -26.5 -62.5t-43 -53t-41.5 -37.5l-18 -15 q-6 0 -10 1t-15 5q-10 -2 -17 -4t-24.5 -4t-50 -4t-96 -5t-163 -9t-249.5 -15q-6 0 -13 -2t-15 -2q-35 20 -60.5 61.5t-56.5 80.5z" />
<glyph unicode="V" horiz-adv-x="1126" d="M51 1292q-2 0 2 11q10 16 29.5 38.5t40.5 42.5q14 14 52 13q13 -1 25 -1q24 0 46 3q6 2 22.5 -10.5t26.5 -22.5q10 -23 17 -56.5t16 -82.5q-10 25 -2 -10t30.5 -102.5t58.5 -156t79 -170.5q16 -16 17 -24t11 -14q16 -53 25.5 -76t14.5 -32t9 -13t11 -19l8 -6q4 4 7 9 t7 14q6 43 9 59t6.5 34.5t7.5 51.5t14 111q0 -2 4 11t10.5 30.5t10.5 34t4 22.5q0 -2 5 19.5t12 60.5t16.5 92t17.5 117q0 16 7 35.5t18.5 39t21.5 36t16 26.5q16 10 21.5 18.5t8.5 13.5t7 7t19 2q14 0 37.5 1t33.5 3q12 2 23.5 1t17.5 -1q10 0 11.5 5t7.5 5q20 0 35.5 -16 t25.5 -36.5t16.5 -39t6.5 -24.5q0 -4 -7.5 -54.5t-17.5 -119t-24.5 -143.5t-28.5 -130q-20 -76 -30.5 -163t-21 -175t-25.5 -175t-44 -163t-74 -137t-116 -98q-2 -1 -11.5 -1t-25.5 1q-33 2 -74 8t-77 15t-44 26q-18 37 -38.5 95t-40 122.5t-38 131.5t-33 120t-22.5 87 t-8 38q0 16 -7 39.5t-16.5 47t-15.5 41t-2 21.5q-10 31 -14 46.5t-8.5 25.5t-8.5 19l-12 28q-2 18 -13.5 45t-27.5 69t-34.5 102.5t-37.5 146.5q0 6 -2 12t-2 12t-2 6z" />
<glyph unicode="W" horiz-adv-x="1378" d="M82 1395q0 2 8 13t18.5 26.5t22.5 31t21 27.5q34 3 54 3q10 0 16 -1q19 -2 26 -2q33 0 44 3t34 7h12q10 -10 24.5 -22.5t27.5 -25.5t22.5 -28.5t7.5 -27.5l14 -645l17 -240q16 18 44 55l55 74q28 37 52.5 65.5t36.5 28.5l115 6l192 -190q2 0 4 2t3 26.5t1 82t-2 167.5 l-24 314v88q0 14 -2 17t-3 11.5t-3 32t-2 80.5q0 8 -2.5 12.5t-4.5 11.5t-2 19.5t4 38.5q4 25 22.5 44.5t33.5 35.5h41q10 0 20 -6l12 3q12 3 27 5l29 4q14 2 18 2h18q9 0 9 -2q10 -4 26.5 -16.5t33 -29.5t26.5 -33.5t8 -28.5l45 -1262q-2 -10 -13.5 -25.5t-26.5 -31 t-31.5 -27.5t-26.5 -16q-2 -2 -21.5 -4t-47.5 -1t-58.5 10t-57.5 29q-45 23 -75.5 59t-59.5 64q-6 8 -29.5 38t-52 65t-56.5 66.5t-40 43.5q0 -6 -13.5 -29.5t-38 -57t-55 -74.5t-62.5 -82t-61.5 -79t-52.5 -65q-12 -16 -35.5 -25.5t-43.5 -19.5q-2 -2 -13 -2 q-10 -2 -28.5 -2t-51.5 -4q-4 0 -8 2q-6 2 -4 4q-4 2 -13 14.5t-20.5 29t-19.5 31.5t-8 21l-23 306q0 4 4 5t4 7t-5 20.5t-5 24.5q-2 49 -2 70v27v9v19q-2 49 -7 94t-5 51q0 -2 -2 21.5t-5 61.5t-6.5 84t-6.5 87t-5 70t-2 33q2 55 3 84.5t1 44t-1 19.5t-1 10t-1 14.5 t-1 36.5q0 23 -5 54.5t-5 37.5z" />
<glyph unicode="X" horiz-adv-x="1110" d="M37 1204l16 40t19 38q8 10 19 12t23.5 1t26 -2t23.5 5h49q47 -14 84 -49t68.5 -79t59.5 -91t58 -84q23 43 41.5 90.5t40 93.5t51 89t74.5 78q4 8 11.5 18t25.5 20l12 -1q12 -1 32 -2t43.5 0t45.5 8q1 3 9 2h9q15 -2 31 -2q18 -23 36 -40.5t18 -35.5q0 -8 -17.5 -49 t-44.5 -98.5t-57.5 -125t-57 -129t-44 -111.5t-17.5 -73q0 -18 18.5 -57t41 -81t41 -75t20.5 -37q23 -47 56.5 -111.5t65 -125t54 -103.5t22.5 -47q0 -6 -7 -34.5t-23 -41.5l-178 -12q-63 0 -103.5 35t-70 85t-56 106.5t-59.5 99.5q-33 -41 -49.5 -90.5t-35 -100.5t-48 -101 t-88.5 -93l-203 -11q-23 0 -35 16.5t-20 35.5q6 27 19 66.5t29.5 81.5t32 77t25.5 49l139 393z" />
<glyph unicode="Y" horiz-adv-x="964" d="M63 1272q6 18 15.5 25.5t19.5 15.5q6 2 11.5 4t11.5 4q18 4 53 3t51 3h5q43 0 81 -39q41 -41 72 -94t51.5 -102.5t26.5 -59.5q0 -18 16 -26q18 16 26.5 43.5t8.5 29.5q16 31 38.5 61.5t45.5 84.5q8 10 12 17t10.5 16.5t17.5 21.5t30 31l6 6q8 8 11 16t19 10t65.5 6.5 t102.5 4.5q4 0 12.5 -5.5t16.5 -14.5t14.5 -17t6.5 -14q0 -8 -23 -55.5t-54.5 -109t-64.5 -124t-49 -99.5q-18 -39 -42.5 -80.5t-49.5 -84.5t-43.5 -87.5t-20.5 -84.5l19 -553q-2 -6 -10.5 -20.5t-19.5 -30t-24.5 -28t-25.5 -12.5q-18 8 -60 -1q-20 -4 -44 -4q-26 0 -58 5 q-16 2 -24.5 8.5t-11.5 13.5t-5 14t-6 12q-12 12 -16 28l4 299l8 275q-2 6 0 12t0 35q5 17 5 35t-5 35q-10 36 -10 83q0 8 -5 17.5t-5 19.5t-5 27q0 2 1 4t-3 11t-15 32t-38 70q-23 23 -35 44t-30 50q-20 29 -29.5 46t-13.5 40l-8 12q-7 12 -16 30.5t-16.5 41.5t-7.5 43z " />
<glyph unicode="Z" horiz-adv-x="1245" d="M61 171v17q0 35 1 49.5t1 38.5q0 6 2.5 27t2.5 37q-10 -6 6 9.5t39.5 37t45 40.5t25.5 22q6 4 34 33.5t59.5 62.5t56 58.5t24.5 21.5l22 21q22 22 50.5 49.5t55 52t36.5 30.5q35 57 80 97t76 83q-41 6 -75 7h-67q-34 0 -71 1t-82 11q-33 0 -59.5 13.5t-55.5 6.5l-22 -4 q-14 0 -35 5.5t-40 16.5t-33.5 29.5t-14.5 45.5q0 4 4 41.5t8 87.5q2 23 24.5 37t47.5 22q29 8 65 14q4 0 25.5 -6t26.5 -10q8 2 14 6t14 4l27 -3q27 -3 72 -6t107.5 -6t135.5 -3q10 4 47 1t81 -9.5t86 -11.5q23 -3 41 -3q14 0 24 2q-8 0 2 -1t28.5 -1t39 -1t36.5 -3 q35 -10 67 -38.5t32 -90.5q0 -4 5 -30q1 -6 1 -14q0 -26 -13 -71q-6 -35 -35.5 -70.5t-69.5 -73.5t-84 -76t-81 -75q-29 -31 -78 -77.5t-96 -93t-81 -82t-34 -46.5q0 -8 33 -17t91.5 -16.5t136.5 -8.5h15q73 0 156 10q29 -16 46.5 -26.5t27.5 -21t14.5 -23.5t4.5 -38 q0 -4 -2 -35.5t-7 -72.5q0 -12 -10 -23.5t-24.5 -24t-29.5 -24.5t-28 -27h-18q-147 10 -227 15.5t-117 7.5t-44 2h-9q-16 -4 -44 -4t-56.5 1t-53.5 3t-37 4q-15 -1 -39 -1h-25q-42 1 -86 4t-80 5t-46 2q-27 0 -48.5 17.5t-42.5 38.5q-2 10 -2 21z" />
<glyph unicode="[" horiz-adv-x="880" d="M53 1264q0 10 2 14t2 10q0 4 -2 12.5t-2 20.5q0 18 24.5 41.5t39.5 28.5h4q10 4 25.5 5t50.5 5q8 2 13 3l15 3q10 2 29.5 4t56.5 4q39 -4 111 -1t141.5 3t122.5 -4t55 -22q0 -2 16.5 -15.5t18.5 -23.5q0 -4 1 -19.5t1 -34t1 -34t1 -19.5q0 -6 -8 -20.5t-18.5 -29.5 t-19.5 -27l-9 -11l-332 -12l-20 -31l16 -700q2 -12 5 -28.5t9.5 -34t16.5 -30t26 -14.5h19q6 0 22.5 -5t22.5 -5q2 0 32.5 1t67.5 2t67 2t28 3q10 -6 20 0t12 6q23 0 38.5 -10t23.5 -24.5t11 -26.5t3 -17q0 -8 -2 -45.5t-6 -117.5q-2 -23 -32 -38.5t-50 -29.5q-25 -6 -40 -8 t-42 -2t-77 -1t-146 -5q-18 -4 -51 -6.5t-39 -2.5q8 0 -12.5 0t-48 1.5t-54.5 2.5t-31 1t-16 7t-27.5 19t-27 26.5t-11.5 28.5q0 59 4.5 118t-12.5 108q0 6 -4 14t-4 14q0 47 -2 65.5t-2 29.5q0 16 5 35.5t-7 31.5v191v41v60v64q0 32 -2 50q0 2 -2 6t0 14q-6 8 -7 33t-1 52 v52q0 25 -7 33q0 29 1 40t1 16.5t-1 10.5t-3 21q2 27 -1 49.5t-3 51.5z" />
<glyph unicode="\" horiz-adv-x="1169" d="M70 1201.5q-2 17.5 8 25.5q27 18 53.5 34.5t48 27.5t32.5 17.5t9 6.5l4 4q12 4 44 -1t44 -20q6 -8 6 -15t5 -11q6 -6 5 -2t3 0q4 -6 9 -8.5t11 -8.5q4 -6 12.5 -22.5t12.5 -22.5l5 -5q1 -1 7 -3q-2 -4 3 -8t22 -21q6 -10 10 -20t10 -19q4 -6 5 -3t2 3t7.5 -6t22.5 -28 l100 -142q8 -8 9.5 -12t3.5 -4l196 -242q2 -4 0 -5t2 -5q4 -10 19.5 -22.5t21.5 -22.5q6 -6 17.5 -22.5t42.5 -53.5q4 -6 6 -15t6 -13q23 -47 62.5 -91.5t80.5 -91.5q8 -10 9.5 -28.5t-1 -36t-5.5 -30.5t-5 -15q-12 -12 -26 -8q4 -8 2 -10.5t-4 -6.5q-12 -8 -17 -4 q0 -2 -1 -3t-1 -3v-4q-31 -27 -37 -34t-14 -13q-4 -4 -26.5 -19.5t-37.5 -23.5q-16 6 -41.5 32.5t-54 62.5t-58.5 78t-54.5 77.5t-42 62.5t-21.5 35l-500 645q-2 6 -10 21.5t-14 35t-8 37z" />
<glyph unicode="]" d="M55 1184q0 8 2 46t6 118q2 23 3.5 40t21.5 31l299 17q41 0 54.5 -1t9.5 -3q18 4 51 6t39 2q10 0 20 -2t55 -2h23q16 0 20 -11q4 8 12.5 9.5t14.5 1.5q2 0 15.5 -7.5t28.5 -19.5t26.5 -26.5t11.5 -28.5q0 -59 -4 -117.5t12 -108.5q0 -4 1 -19t1 -32.5t1 -34t1 -18.5 l25 -637q-2 -10 -2 -22.5t6 -22.5q2 -27 3 -65.5t2 -76.5t1 -68v-36q0 -18 -24.5 -41.5t-38.5 -27.5h-4q2 2 -54.5 -10.5t-136.5 -14.5q-39 2 -110.5 0t-141 -2t-123 4t-55.5 23q0 2 -16.5 15t-18.5 24v30q0 29 1 63t1 62v33q0 6 6 14t15.5 15.5t16.5 12.5l7 5l332 12l21 31 l-13 660q-2 12 -5 28.5t-9 33.5t-17.5 29.5t-25.5 14.5h-19q-6 0 -22 5t-23 5q-2 0 -32.5 -1t-67.5 -2t-66.5 -2t-27.5 -3q-8 -2 -13.5 0t-11.5 2q-10 0 -5 -4t-3 -4q-23 0 -38 10t-23.5 24.5t-11.5 27t-3 16.5z" />
<glyph unicode="^" horiz-adv-x="1169" d="M251 1226.5q-1 12.5 1 18.5q0 6 22.5 22.5t49 36t49 35t22.5 17.5q4 0 22.5 8t40 18.5t38 18.5t16.5 10q2 -2 11 2t18.5 9t17.5 9.5t10 2.5q2 2 12.5 1t22.5 -2t21.5 -1t7.5 0l272 -154q10 -20 22.5 -29.5t24.5 -27.5q-6 -12 -14 -31t-16 -23q-10 -2 -24.5 -3t-29 -1 t-26 -1t-13.5 -5q-51 0 -81.5 -1t-57 -3t-57.5 -4t-82 -2h-21h-35h-38h-27l-104 2q-6 0 -26.5 10t-23.5 15l-12 8l-8 4q-2 0 -4 2q4 10 3 12t-1 10q-2 4 -3 16.5z" />
<glyph unicode="_" horiz-adv-x="995" d="M94 158v27q0 24 2 38q18 12 72.5 16.5t115 3.5t111.5 -3t62 -2l370 18q4 0 18.5 -3t30 -8t29 -12.5t13.5 -19.5q-6 -61 -14.5 -99t-17.5 -59.5t-18.5 -31t-15.5 -9.5q-16 -2 -27.5 -2t-21.5 -2l-78 -12q-12 10 -20 8q-6 0 -9.5 -4t-9.5 -6l-164 -2q-4 0 -4 3t-6 1 q-4 -2 -9 -4t-9 0q0 4 -11.5 1t-17.5 -3q-4 0 -20.5 1t-55.5 -3q-6 0 -13 2t-11 2q-41 10 -89.5 4t-97.5 -8q-12 0 -24.5 8t-23.5 18.5t-18.5 19.5t-7.5 11q-4 10 -3 15.5t1 15.5q6 18 -1 40t-7 40z" />
<glyph unicode="`" horiz-adv-x="808" d="M61.5 1353.5q6.5 26.5 10.5 55.5l8 47q4 4 6 7t4 5q4 4 16.5 7.5t22.5 9.5q8 6 14.5 9t20.5 9q59 -10 91 -15t46 -9t17.5 -6.5t7.5 -4.5q8 -2 49 -8t90 -10l153 -27q0 2 5 2h16q6 0 11 -6t5 -8q0 -6 19.5 -4t30.5 0q35 -6 46 -16.5t9 -35t-11.5 -66.5t-11.5 -111 q-10 -10 -22.5 -26.5t-20.5 -18.5q-12 2 -45 8t-67.5 12t-64.5 12t-36 9q-6 2 -18 4l-25 4q-12 2 -22 3l-10 1l-39 6q-16 6 -20.5 4t-16.5 4q-4 0 -19.5 4t-35 9.5t-37 9.5t-25.5 6l-6 2q-33 8 -42 10t-20 6q-4 4 -14 -1t-20 9q-6 2 -23.5 16.5t-17.5 20.5q-15 35 -8.5 61.5 z" />
<glyph unicode="a" horiz-adv-x="1042" d="M68 88q0 12 8 62.5t21.5 120t29.5 151.5t31.5 159.5t29 143.5t21.5 102q6 25 12 76t16.5 113.5t23.5 129t32.5 121t44 89.5t57.5 35q29 0 94.5 -2.5t135.5 -10.5l2 -6q12 -16 18 -25.5t8 -17.5t3 -14t6 -15q41 -72 52 -117.5t19 -68.5q31 -109 47.5 -166t24.5 -84 q8 -31 12 -33q4 -16 7 -32.5t10 -30.5q0 4 1 -1t1 -3l147 -565q-2 -4 4 -21.5t13.5 -37t13.5 -39t6 -27.5q0 -29 -14.5 -43.5t-34 -19.5t-39 -4t-29.5 1q-33 0 -68.5 3t-60.5 44q-18 29 -27.5 63t-20.5 66.5t-26.5 61t-46.5 49.5q-4 0 -8 2t-24.5 3t-64.5 1t-126 -6 q-6 0 -14 3t-10 7q-16 -41 -23.5 -91t-15.5 -95l-2 -4v-11q0 -59 -32 -81.5t-89 -22.5h-68q-8 0 -25.5 6t-36 16.5t-32.5 26.5t-14 39zM430 580q0 -31 21 -31q4 -1 11 0q15 2 35.5 4t40 4t25.5 2h60q12 0 16 8v19q0 18 -16.5 77.5t-37 128t-39 129t-20.5 83.5 q-12 -47 -17 -72t-8 -37t-3 -15v-8q-6 -35 -23.5 -90t-30.5 -107q-14 -62 -14 -95z" />
<glyph unicode="b" horiz-adv-x="1132" d="M43 1358q16 16 33.5 38.5t38.5 22.5h49q25 -4 79 -3q36 0 86 1q41 1 89 2q96 0 219 -6q18 4 56 -7t83 -34.5t94.5 -55.5t90 -70t68.5 -78t32 -78l8 -156q-18 -43 -57 -91t-79 -88t-70 -67l-29 -26q0 -10 25.5 -33t56 -53.5t58 -69.5t32.5 -82q1 -13 1 -26q0 -46 -17 -91 q-22 -57 -61.5 -108.5t-93 -92t-110.5 -67.5q2 -2 -2 -1t-6 -1q-49 -29 -91 -38t-51 -9h-403q-6 6 -20.5 22.5t-28.5 35t-26 32.5l-11 14q-2 4 -1 21.5t1 21.5q0 10 3 18.5t1 18.5q2 106 2 194q0 110 -3 191q-5 145 -13 230t-16 126q-5 26 -4 49q0 13 1 25zM348 1085 l14 -161q2 -6 9.5 -18.5t15.5 -18.5q8 -16 20.5 -20.5t25.5 -4.5t23.5 1t14.5 -1h91q34 0 53.5 -1t29.5 -1t21 2l-9 273q-14 6 -43.5 6t-63.5 -1q-17 -1 -33 -1t-32 1q-31 1 -47 7q-27 -8 -45 -9t-29.5 -4.5t-14.5 -13.5q-2 -6 -2 -17q0 -8 1 -18zM424 465.5 q0 -19.5 6 -53.5q2 -13 2 -29q0 -26 -6 -59q4 -35 7 -42.5t3 -11.5q16 0 33.5 -2t28.5 -2q10 0 29.5 3t23.5 3l39 -2q6 0 17 1t28 -1q-10 59 -13.5 88t-3.5 43.5t1.5 19.5t-1.5 15q-6 43 -10 49.5t-20 6.5q-18 6 -31.5 7t-24.5 1q-8 0 -14 1t-16 1q-49 0 -63.5 -8.5 t-14.5 -28z" />
<glyph unicode="c" horiz-adv-x="972" d="M61 362q0 14 1 17.5t1 13.5v543q0 49 3.5 67.5t10.5 34t22.5 42t41.5 91.5q2 4 4 4.5t2 4.5l127 129q18 23 20.5 25.5t20.5 6.5l160 43q10 4 10 -1t13 6l46 -2q11 0 22 1q34 1 40 1q16 0 55 -26t80 -61.5t76 -73.5t45 -63q8 -16 15.5 -36.5t11.5 -38.5v-205 q-8 -29 -27 -45l-37 -33q-16 -4 -26.5 1t-22.5 5q-8 0 -30 -1l-43 -2q-22 -1 -36 -2l-16 -1q-23 0 -38 16.5t-24 38t-14.5 43t-5.5 33.5q4 27 1 28t-1 5q0 6 2 19.5t7 27.5q2 12 -4.5 12t-2.5 21q4 14 -11 21t-36.5 10t-43 2t-29.5 -7q-18 -12 -23 -30l-8 -37l-12 -662 q-4 -23 8 -26l24 -9q8 2 30 3t44.5 2t38.5 3.5t12 8.5q4 10 1 8t-3 4t-2 9t2 11q6 0 7 26t0 57.5t-3 62.5t-2 41q0 18 17.5 37.5t27.5 25.5q29 6 45.5 8.5t26.5 2.5h19q9 0 26 2q29 -4 50 -4h38q12 0 24.5 -17.5t22.5 -40t17.5 -44t7.5 -32.5l-8 -219q-10 -29 -21.5 -59.5 t-29 -60t-43 -57.5t-66.5 -48q-4 -4 -12.5 -7t-18.5 -7q-29 -10 -62.5 -24.5t-41.5 -14.5q-27 0 -56.5 4t-35.5 4h-46l-65 6q-23 10 -30 11t-27 14q-18 12 -51 36.5t-65 54.5t-57.5 59.5t-29.5 47.5l-6 27q-2 6 -10.5 16.5t-17.5 22.5t-17.5 29t-8.5 40z" />
<glyph unicode="d" horiz-adv-x="1120" d="M84 226q4 44 4 50q2 106 4 248t4 279t4 246.5t6 152.5q2 10 5.5 10t3.5 9q2 8 -4.5 33.5t-6.5 37.5q0 2 15.5 17.5t36 33t44 33t42.5 21.5q43 12 90 12q18 0 36 -2q67 -6 156 -16q14 -4 32.5 -5.5t41.5 -7.5q43 -4 58.5 -16t37.5 -19q53 -10 108.5 -56t103.5 -107.5 t84 -128t50 -117.5l-26 -510q-6 -72 -38 -144.5t-85 -136t-126 -109.5t-163 -63q-16 0 -15 -3q0 -1 -3 -1q-4 0 -13 2l-321 25h-7q-3 0 -14 2q-8 0 -16 -2t-18 -2q-55 6 -79 48t-30 92q-4 30 -4 58q0 18 2 36zM387 317l2 -24l33 -2q8 -4 14 0t13 2q10 0 18 -5t16 -5h22 q19 0 43.5 2t47 4t33.5 4l37 739q-4 2 -10.5 4t-12.5 2q-8 3 -16 4q-12 0 -25 -7q-23 -11 -51 -7q-61 4 -91 5t-32 -15l-37 -408z" />
<glyph unicode="e" horiz-adv-x="983" d="M84 53q4 55 4 103.5t2 52.5q4 14 5 18t-5 21q8 55 9 104t1 125q2 2 2 18.5t-1 38t-1 46.5v47q2 0 2 22v57q0 34 -1 71.5t-1 64.5v20q0 18 -2 42t-2 48v41q2 41 5 54.5t-1 17.5q0 23 -2 47.5t0 52.5q4 0 4 10.5t-2 22.5t-3 23.5t-1 15.5v63q2 8 11.5 21.5t21.5 26 t25.5 20.5t25.5 8l47 -6q8 -2 55.5 -2t113 1t139 2t136 1t104.5 1t44 1q4 0 17.5 -10t27 -23.5t23.5 -27t10 -19.5q0 -4 -1 -19t-1 -33.5t-1 -35t-1 -18.5q-2 -10 -18.5 -23.5t-16.5 -15.5q-2 -12 -29.5 -18.5t-70.5 -9.5t-96 -3h-105h-95q-44 0 -71 -2q0 -39 -1 -67.5 t-1 -34.5q-18 -27 -10 -44.5t8 -27.5q-4 -12 -4 -16v-17l-8 -80q4 -4 0 -25.5t-8 -27.5q0 -8 9 -12t18 -5t14.5 0t-0.5 1l301 -4q16 -2 46.5 -3t47.5 -5q6 0 9 4t9 4t24.5 -16.5t33.5 -26.5q4 -14 5 -32.5t1 -36.5v-31q0 -13 4 -19q0 -8 1 -11t1 -10q-2 -6 -19.5 -26.5 t-31.5 -36.5q-43 2 -99.5 3t-107.5 2t-89 2t-40 1l-43 2q-4 0 -15.5 1t-24.5 2t-24.5 0t-11.5 -3q-25 4 -25 -5t-2 -13q2 -18 7.5 -45t5.5 -35q0 -4 -2 -20.5t-4.5 -37t-4.5 -42t-4 -35.5q-2 -4 -2 -8q0 -2 -2 -3l45 -8l363 -6q16 -4 31 -4q14 0 21 4t17 -8q4 -6 24.5 -12 t33.5 -31l-6 -45v-29q0 -16 1 -30.5t1 -23.5t0 -5l-2 -19q-23 -18 -43.5 -40.5t-44.5 -24.5q-80 -4 -188.5 -4t-209 1t-171 4t-74.5 3q-6 0 -17.5 6t-23 15.5t-18.5 18.5t-7 15z" />
<glyph unicode="f" horiz-adv-x="1060" d="M59 1296q0 6 25 33t41 49l41 2q20 2 27.5 -3t23.5 3h33h10h13q9 0 26.5 1t50.5 5q4 -4 48 -3t108.5 4.5t138.5 7.5t136.5 8t102.5 5h21q17 0 15 -1q31 2 52 -15.5t34.5 -41t19.5 -44t6 -24.5q1 -16 2 -28q0 -6 -1 -11q-1 -14 -8 -26.5t-24.5 -27.5t-50.5 -42q-6 -2 -47 0 t-93 3t-103.5 1t-77.5 -6q-14 -4 -61.5 -1t-82.5 7q-23 -10 -25.5 -9t-10.5 -5q-10 0 -15.5 -7.5t-6.5 -16.5t-1 -17v-11v-21q0 -17 1 -41t3 -50.5t4 -44.5q4 -16 27.5 -35t44.5 -16q6 0 37.5 -1.5t77 -2.5t96.5 -1t95 1t73.5 3.5t34.5 8.5l36 2q12 -29 26.5 -54.5 t16.5 -48.5v-7q0 -3 1 -13t2.5 -29.5t1.5 -54.5q-2 -18 -32 -43t-50 -33q-21 -3 -55 -3h-17q-45 1 -94 3t-91 3t-63 -3q0 2 -16.5 1t-39 -1t-46 -1t-37.5 1q-4 0 -14.5 -3t-8.5 -13l9 -199l4 -297q-4 -23 -22.5 -53.5t-29.5 -48.5h-28q-18 -4 -49 -4t-58.5 1t-45 2t-9.5 1 v-2q-29 -2 -40 1t-19.5 13t-19.5 28.5t-36 49.5l-14 805z" />
<glyph unicode="g" horiz-adv-x="1148" d="M109 1004q16 49 35.5 86.5t37 63.5t29.5 39l12 13q-2 12 20.5 34t51.5 42q33 23 72 49q25 10 50 24.5t55 25t64 15.5q13 2 27 2q23 0 49 -5l107 -2q27 0 45 -13.5t57 -27.5q39 -27 77 -64t70.5 -78t55.5 -84t29 -82l8 -120q2 -29 2 -39.5t-7 -18.5t-25.5 -24.5 t-55.5 -59.5l-12 -2q-2 -2 -15.5 -2t-32 1t-37 3t-28.5 2q-47 31 -74 70q-4 8 -3 11t2 11.5t1 29t-4 63.5l-6 120q-4 4 -9 6.5t-7 6.5q0 8 -66 11h-20q-66 0 -193 -15q-16 2 -25.5 1t-16.5 -3t-16.5 -5.5t-25.5 -7.5q-2 -10 -4 -25.5t-2 -21.5l37 -696l2 -59q0 -8 4 -23.5 t16.5 -31t32 -28t49.5 -14.5q8 2 36 -1t68 -4q20 -1 42 -0.5t47 0.5q49 1 100 11q6 6 6 17q-2 6 -6 10t-4 8q0 16 -2 26.5t10 26.5l-4 82v7l-13 1q-13 1 -33.5 0t-45.5 -3.5t-47 -6.5q-10 0 -20.5 2t-20.5 -2q2 0 -5 7.5t-16.5 17.5t-17.5 20.5t-8 18.5l-4 76q0 6 -2 3t-2 3 q-2 20 20.5 45.5t40.5 32.5q2 -4 17.5 3t50.5 11q20 4 53 2t69.5 -6t76.5 -8t77 -4q29 -25 50.5 -38.5t25.5 -47.5l2 -119l2 -107v-12q0 -48 -29 -96q-33 -55 -83 -102.5t-107.5 -83t-102.5 -50.5q-35 2 -69 3q-26 0 -52 -2h-19q-51 0 -101 14q-41 4 -78 19t-72 67 q-23 12 -59.5 43.5t-73.5 76.5t-64.5 96.5t-29.5 100.5l-12 336q0 20 2 51t2 102z" />
<glyph unicode="h" horiz-adv-x="1198" d="M95 1147v15q0 30 3 65q4 43 19.5 77.5t50.5 38.5q8 0 18.5 -3t61.5 1q8 6 31.5 0t62.5 2q6 -6 17.5 -14t22.5 -19.5t17.5 -22.5t1.5 -21l19 -271q-2 -10 -3 -29.5t-1 -37.5v-34v-20q0 -10 18.5 -16t41 -9t43 -4t24.5 -1q6 0 6 5t4 5l117 8q2 0 12 -1t23.5 0t26.5 5t22 15 q6 -8 12 12t6 35q2 -10 0 25.5t-5 84.5t-6 94.5t-3 51.5q0 25 2 38t-4 31q0 31 22.5 60.5t44.5 44.5q20 4 45 8q20 3 45 3q33 0 74 -5q33 -4 50.5 -15.5t26.5 -28.5t12 -36.5t3 -38.5l37 -1052q0 -6 -7 -31t-19.5 -52.5t-25.5 -50t-26 -22.5l-100 -6q-10 0 -23.5 -4 t-21.5 -7h-5q-33 0 -52 25q-20 27 -50 57l-8 254q5 41 5 89q0 16 -1 32v22q0 53 9 99q-10 -4 -23.5 0t-38.5 6q-12 1 -28.5 1t-37.5 -1q-42 -2 -110 -14q-10 10 -19.5 4t-19.5 -8q-8 0 -13 4t-16 2q-6 0 -15 -2t-17.5 -7t-13.5 -11.5t1 -14.5l6 -422q-4 -18 -3 -41.5t-3 -46 t-16 -40t-39 -23.5q-39 -10 -62.5 -13.5t-38 -3.5t-21.5 2t-9 2q-45 -4 -62.5 6.5t-44.5 26.5q-12 6 -12 21l-33 698l-6 381q0 6 -1 43z" />
<glyph unicode="i" horiz-adv-x="577" d="M106 115l13 227q4 72 10 115t10 82q2 35 -4 55t-6 29q0 55 1 108t1 96v72q0 29 -2 35l16 311q0 27 -1 46.5t4.5 38t21.5 36.5t53 45q37 -2 56.5 -3t29.5 -1t12.5 1t4.5 3q25 -4 49 -20.5t43.5 -38t33 -44t17.5 -36.5l-25 -1114q-4 -10 -12 -33t-18.5 -45.5t-22.5 -39.5 t-22 -17q-6 0 -7.5 -3.5t-11.5 -3.5q-6 0 -24.5 5.5t-26.5 5.5q-23 0 -55.5 2t-63 10t-52.5 26.5t-22 49.5z" />
<glyph unicode="j" d="M45 516l6 66q2 8 1 22t3 29q16 6 38 17.5t38 8.5q8 4 14.5 4.5t14.5 4.5q4 2 18.5 2t33.5 -3t38.5 -7.5t34.5 -8.5q51 -31 61 -73.5t10 -85.5t5.5 -80t46.5 -56q6 -8 13 -10t17 -6q14 3 29 3q20 0 41 -5q12 -3 24 -3q24 0 48 11q4 4 7 -1t13 5q4 4 6 8t2 11 q12 156 18.5 238.5t9.5 120.5t4 43t1 3v50q0 17 1 42t3 68l6 129q-6 4 -14 7t-19 7q-12 2 -31.5 7.5t-57 9.5t-101 8t-164.5 6q-29 -4 -51.5 5t-46.5 3q-8 0 -17.5 11.5t-18.5 24.5t-15 25l-6 11q0 8 2 24.5t5 36t5 38t2 28.5q0 8 12 17t29 20q18 10 41 20q2 0 4 1t19 2 q9 1 24 1t37 -1q43 -1 127 -9q29 -4 63 -5h11q35 0 102 5l22 -2q23 -2 52.5 -5t58.5 -6t39 -5l11 1q11 1 24.5 3t27 3t17.5 1q8 -2 20.5 -2t28.5 -4q25 -29 50.5 -64t41.5 -63l-72 -817q-10 -129 -113.5 -212t-283.5 -122h-19q-15 0 -35 -1t-39 -1h-32q-23 4 -31 6t-16 2 q-4 4 -7 9t-5 3q-37 4 -70 32t-59.5 63.5t-48 69.5t-37.5 52q-27 23 -40 61q-10 29 -10 51q0 7 1 13q0 2 -3.5 14.5t-8.5 26.5t-8 26.5t-3 16.5z" />
<glyph unicode="k" horiz-adv-x="1290" d="M104 1313q2 14 11.5 39.5t20.5 50t24.5 43t25.5 18.5q18 0 47 1q6 0 13 1q29 0 82 -4q27 -16 53.5 -46t38.5 -58l31 -428q39 33 88 81t100 103t101.5 111.5t94.5 101.5t77.5 72.5t52.5 30.5q35 0 52 2t27 0q6 -6 24.5 -23.5t38 -37t36 -40t16.5 -39.5q0 -43 -23 -74 q-26 -34 -63 -66t-76 -68.5t-63 -90.5l227 -866q0 -14 -6 -24.5t-16.5 -19.5t-21.5 -19.5t-21 -24.5h-125q-8 0 -22.5 12t-28 29.5t-23.5 36t-10 30.5q2 -8 -3 4.5t-13.5 32t-14.5 41t-6 33.5q-10 12 -22.5 52t-23.5 81t-18.5 72t-7.5 26q-23 70 -40 148t-52 147 q-12 0 -14 -1t-15 -1q-6 0 -32.5 -23.5t-60.5 -57t-70.5 -69.5t-63.5 -63l6 -452q6 -12 0 -22.5t-17 -19.5t-24.5 -18.5t-21.5 -21.5h-109q-6 0 -18.5 -1t-25.5 -2l-26 -2q-4 0 -9 -1q-8 0 -13 2q-10 16 -34.5 40.5t-26.5 45.5z" />
<glyph unicode="l" horiz-adv-x="1013" d="M106 1220.5q0 49.5 7 90.5q2 10 4 27.5t-2 31.5q2 20 28.5 44t40.5 28q16 4 31.5 4t52.5 4q16 4 30.5 3t31.5 -3q10 -10 23.5 0t35.5 10q14 0 25.5 -15t18.5 -34.5t12.5 -37t7.5 -23.5v-838q0 -12 1 -29.5t4 -35t11 -31t25 -15.5l20 -2q6 0 16.5 -5t16.5 -5q2 0 50 -1 t105 -1h105q47 0 45 2l33 4q25 0 40 -12t23 -27.5t11.5 -29t3.5 -17.5q-2 -8 -6.5 -47t-8.5 -125q-2 -12 -11 -21.5t-23.5 -17.5t-29 -15t-26.5 -15q-23 -2 -41 -2.5t-52 -1.5t-91.5 -2t-155.5 -3q-43 2 -56 3t-9 3q-20 -2 -54 -3t-43 -1q-10 0 -20 2t-57 5q-10 0 -12.5 1 t-18.5 1h-43q-4 0 -17.5 9t-28 22.5t-25.5 28.5t-11 30q2 63 8 124q2 18 2 35q0 40 -10 76q0 6 -5 15.5t-5 15.5q1 34 1 54v16q-1 18 -1 28t5 30.5t1 33.5q0 6 -1 32.5t-3 60.5t-3 67.5t-1 56.5q0 6 4 10t4 12v14v25q0 14 1 27.5t3 19.5q0 -2 -12 29q1 25 1 54v30 q-1 47 -3.5 97t-2.5 99.5z" />
<glyph unicode="m" horiz-adv-x="1206" d="M59 729q-1 11 -1 25.5t1 31.5q2 35 11 97q2 12 3 36.5t1 57.5v70v71q-10 35 -12 77v18q0 37 4 90q0 4 7 10t15 13t14.5 13.5t6.5 10.5q0 8 16 11t31 11q18 4 48 0q20 -3 42 -3q11 0 22 1l13 -2q43 -37 96 -89t104 -108.5t93 -113t63 -103.5q8 4 9 7.5t7 7.5q10 20 32 60 t45.5 87t47 96.5t39.5 92.5q12 27 37 38t41 21q12 10 22.5 12t26.5 2q10 -8 20.5 -8t22.5 3t26.5 4t30.5 -3h21q6 0 19.5 -14t25.5 -32.5t21.5 -35t7.5 -20.5l-23 -1147q2 -16 -17.5 -41t-33.5 -45l-57 -4q-43 2 -61.5 0t-27 -3t-10.5 -2t-10 3q-16 6 -39.5 34.5t-28.5 55.5 l5 635q4 18 4 51t4 45q-2 12 -3 13t-5 -1q-25 -31 -43.5 -65.5t-37 -71.5t-43 -74t-63.5 -67l-18 -2q-12 -4 -26.5 -2t-27 6t-19.5 8t-5 4q-23 12 -45.5 38t-43 54.5t-35.5 58t-23 52.5q-6 6 -9.5 7t-11.5 11q-6 10 -6 12.5t-14 10.5q-4 -6 -5 -13v-16l17 -151l6 -521 q0 -10 -2 -33.5t-11.5 -49t-25.5 -44t-47 -18.5q-10 0 -11 -1t-10 -1h-28l-17 2q-4 0 -7 1t-10 1t-24 -1l-49 -3q-10 4 -14 8t-16 19q-16 10 -29.5 14t-20.5 20q6 74 6.5 110t-0.5 53.5t-2.5 21.5t1.5 14v27q2 18 3 26t1 16.5t-1 24t-2 50t-2 97.5q0 21 -1 46q0 50 2 117 q0 18 -2.5 31t-4.5 36z" />
<glyph unicode="n" horiz-adv-x="1179" d="M51 1294q0 31 24.5 57.5t57.5 26.5q10 0 36 -3t55.5 -6t59 -5t48.5 0q18 -4 36.5 -19.5t34 -34t26.5 -37t15 -28.5q10 -16 22.5 -38.5t24 -42t19.5 -35t8 -19.5q0 -10 11.5 -24.5t37 -45t65.5 -87t97 -150.5l-18 469q0 8 7 24.5t18.5 33t25.5 28.5t31 12l19 1q19 1 48 1 h61q32 0 56 -2q8 -6 19.5 -18.5t20.5 -27.5t16 -31.5t11 -26.5l27 -1055q-2 -6 -15.5 -20.5t-28.5 -27.5t-28.5 -23.5t-19.5 -10.5l-68 2q-88 92 -172 197.5t-153.5 202t-119.5 173t-71 111.5q-2 -4 -2 -3t0 -5v-15q0 -3 -1 -3.5t-1 -2.5v-10v-41l-20 -567q-10 -25 -35 -42 t-47 -36h-15q-53 0 -80.5 -1t-41 -3t-17.5 -3t-8 -1q-6 0 -17.5 12t-21.5 28.5t-18.5 33t-10.5 22.5z" />
<glyph unicode="o" horiz-adv-x="1103" d="M66 1038q4 23 14 55.5t33 55.5q8 27 36.5 57.5t65.5 61t77 56.5t68 44q29 2 49.5 8t39 12.5t39 11.5t49.5 5q2 0 17 1t32.5 2t32 2t18.5 1q66 0 123 -30.5t104 -81t85 -112t63.5 -124t39 -118.5t13.5 -93l-10 -371q-4 -53 -31 -116.5t-70 -125t-99 -115.5t-124 -91 q-14 -12 -29.5 -18.5t-37 -10.5t-51 -7t-72.5 -11q2 2 -5.5 1t-19.5 -3t-24.5 -3t-18.5 -1q-25 4 -36 8t-20 11t-23.5 18.5t-45.5 29.5q-4 6 -46 30.5t-91 63.5t-89 91.5t-40 115.5q0 23 -2 51.5t-2 65.5v235zM414 1112l14 -500q2 -18 -2 -49t-8 -57v-211q20 -8 49 -14.5 t59.5 -9.5t60 -4t54.5 -1q10 0 10 -3t4 -5l4 31q2 10 1 12t-1 14l15 371q0 27 -1 49.5t-1 59.5v98q0 61 4 166q0 37 -1 37t-3 -4q-23 8 -46.5 13t-45 7t-35 2t-13.5 2q-6 0 -22 -2t-34.5 -3t-36 -1t-25.5 2z" />
<glyph unicode="p" horiz-adv-x="983" d="M84 1174q0 20 10 40q12 25 29.5 46.5t35 38t27.5 22.5l62 8q29 7 99 7h19h25q79 0 195 5q3 0 6 1q23 0 45 -14q25 -15 49 -28q10 -4 38 -11t44 -17q106 -57 154.5 -132t54.5 -165v-5q0 -41 -35 -94q-37 -56 -85 -106.5t-94 -85.5t-61 -37l-139 -39q-31 -8 -57.5 -7t-45 3 t-30.5 4t-14 -2q4 -12 3 -21.5t1 -19.5l26 -479q0 -10 -9 -25.5t-21.5 -31t-26.5 -29.5l-22 -23q-12 -4 -32 -5t-42 -1h-44h-34q-10 0 -23.5 15.5t-25.5 35t-22 37.5l-11 23q4 20 0 56t-10 124q-2 33 -2 36v10q0 7 -2 35t-6 110q-4 14 -5.5 63t-3.5 109.5t-3 122t-1 100.5 q0 6 5.5 12t-7.5 10l-10 172q6 12 6 31t-2 37t-5 34q-3 17 -3 30zM401 935q0 -22 2 -30q0 -10 4.5 -25.5t10.5 -30.5t13 -26.5t15 -13.5q-1 -4 6 -4q4 0 10 1q17 3 47 9t69.5 14.5t83.5 14.5q5 12 4 18v3q-2 5 -2 22l-7 184q-6 12 -7 19q0 2 -1 2q-2 0 -8 -9l-233 -10 q0 -10 -6 -20q-4 -7 -3 -15q0 -27 1 -64t1 -39z" />
<glyph unicode="q" horiz-adv-x="1183" d="M35 899q6 68 45 138.5t94 135t116.5 114.5t115.5 75h61h7h19q15 0 46.5 2t93.5 8q45 0 90 -37t85 -86t70.5 -97t47.5 -73q23 -35 33 -88t10 -100v-553q0 -4 9 -10t21.5 -12.5t24.5 -10.5t20 0h13q57 -57 67.5 -99t10.5 -93q0 -14 -4.5 -39t-15.5 -49.5t-30.5 -43 t-50.5 -18.5q-8 0 -36.5 2t-51.5 2q-10 -2 -38.5 0t-61.5 4t-62.5 3t-44.5 -1h-100q-43 -3 -62 -3h-9q-17 1 -31.5 3t-44 3t-105.5 1h-33l-12 5q-55 8 -109.5 51t-97.5 103.5t-68.5 126t-23.5 118.5zM375 985l31 -496q4 -41 7 -67.5t5 -46t4 -35.5t6 -37q10 4 19.5 2 t17.5 -4q-10 0 7 0t45 1t57.5 4t43.5 13q6 12 10.5 43t5.5 68t1 75t-1 66.5t-2 40.5q-1 10 3 18q3 5 3 14q0 5 -1 11q-4 6 -5 6.5t-1 4.5l-13 385q-4 6 -15 9t-60 5q-27 -8 -50.5 -13t-60.5 -12q-20 -4 -38.5 -15t-18.5 -40z" />
<glyph unicode="r" horiz-adv-x="1140" d="M68 1241q0 27 13 54.5t33.5 51t44 39t46.5 17.5q29 0 37 2t16 2q9 -2 24 -2q18 0 46 3q49 5 110.5 13.5t129.5 14.5q51 5 98 4h30q12 0 30.5 -7.5t37 -16.5t36 -18t27.5 -14q37 -23 86.5 -60.5t73.5 -78.5q12 -23 23.5 -55.5t19.5 -64t14.5 -55t6.5 -26.5l2 -131 q0 -23 -32 -66.5t-69 -90.5t-68.5 -88t-31.5 -56q0 -14 19.5 -55t50 -95t64.5 -113.5t64.5 -113t50 -91.5t19.5 -48q0 -8 -8 -20.5t-18.5 -25.5t-21.5 -24l-17 -18h-15q-14 -8 -40.5 -9t-54 0t-53.5 5t-40 4l-72 62q-4 12 -16 34.5t-16 38.5q-2 4 -17.5 37t-33 75t-33 80 t-15.5 54q0 4 -6 16.5t-14 26.5t-15.5 26.5t-9.5 16.5q-10 23 -19.5 47.5t-33.5 46.5q-29 0 -54 8q-12 3 -27 3q-17 0 -38 -5q-31 -29 -32 -53t1 -57l11 -371q-4 -29 -31 -52.5t-37 -41.5q-14 -4 -40 -4h-50q-25 0 -44.5 1t-21.5 1q-18 0 -37.5 15.5t-35 38t-25.5 47 t-10 42.5q0 6 -2 20.5t-6 24.5q0 2 2 11.5t4 43t4 100.5t2 182.5t-4 290.5t-12 427zM406 1122l8 -299q-2 -14 8 -29.5t33 -13.5h42h9h-1q-1 0 9 0q6 2 4 1t-2 -5q0 6 4 4l15 -7q10 -5 26 -8q7 -1 16 -1q11 0 25 2q6 2 25.5 2t40 1t38 5t19.5 17l8 352q-4 4 -6 16t-18 10 l-54 5h-6h-209q-18 -4 -25 -24t-9 -28z" />
<glyph unicode="s" horiz-adv-x="1097" d="M86 215q0 31 1 45t9 24.5t26.5 24t53.5 41.5l492 -16q25 0 36 17.5t14 41t2 48t-1 38.5q0 12 -1 41t-5 35l-342 4q-123 53 -203 149.5t-80 217.5q0 33 2 62.5t2 62.5q0 31 42 82t95.5 101t102.5 87t65 37q12 6 42 6h87q57 0 149.5 2t231.5 14q12 0 27.5 -11t30 -26.5 t27 -32t20.5 -26.5v-141q-35 -35 -48.5 -54.5t-22.5 -28.5t-20.5 -11t-41.5 -2q-20 0 -66.5 1t-97.5 2t-94 1h-56q-47 0 -69.5 1t-32.5 -1t-16.5 -6.5t-20.5 -12.5q0 4 -2 -35t-4 -139q31 2 48 -6t56 -10q129 0 223.5 -38t157 -97.5t92 -130t29.5 -136.5v-110q0 -31 -36 -76 t-82 -86t-88 -70.5t-52 -29.5q-4 0 -23.5 -5.5t-40 -12.5t-37.5 -12l-18 -5q-117 4 -193.5 5t-123.5 1t-71.5 -1t-39 -2t-23 -2t-22.5 1q-33 29 -51.5 49t-26.5 38.5t-10 40t-2 52.5z" />
<glyph unicode="t" horiz-adv-x="1026" d="M39 1149q0 14 3 47t-1 43q-5 18 -5 35q0 27 14 51q24 39 59 68l26 -2q0 2 34 3t84 3t107.5 3t107.5 2t85 1h37h133q68 0 139 8q29 -12 58.5 -31.5t56.5 -42.5v-61q0 -23 1 -33t2 -14t1 -6q-4 -12 -13.5 -34t-22.5 -43.5t-27.5 -38.5t-24.5 -24q-6 2 -45 1t-85 -4t-85 -6 t-43 -3l16 -975q4 -12 -5 -29.5t-24.5 -36t-32 -33.5t-26.5 -22q-12 -6 -34.5 -4t-36.5 -2l-72 -2q-6 6 -18.5 16.5t-24.5 22.5t-21.5 23.5t-9.5 21.5l-12 656l6 374q-4 -2 -14 -2h-21q-15 4 -36 5q-18 0 -40 -4q-25 -4 -52 -4q-23 0 -46 3q-8 4 -34.5 14.5t-49.5 26.5 q-8 17 -8 29z" />
<glyph unicode="u" horiz-adv-x="1036" d="M47 174v90q2 12 2 31v36v26q0 9 0 3q4 25 3 32t-1 34v61q0 8 6 28t2 17v36v38q0 18 1 31.5t1 17.5q0 6 5.5 29t5.5 29q0 10 -3 12t-3 8q0 8 3 7t3 8q2 8 -1 6t-3 2q0 49 1 90t1 47q0 12 1 37.5t3 50.5t3 42t1 15q0 10 2 38t-2 44q0 8 2 16.5t2 16.5q0 2 9 10t23.5 18.5 t31 23t30.5 22.5l113 -8q18 -31 32.5 -48.5t25.5 -32t17.5 -28.5t6.5 -35l-21 -409l-2 -306q4 2 25.5 -4t52.5 -13t64.5 -14t62.5 -8.5t46 6t13 27.5l45 742q0 2 10.5 17t25 31.5t26.5 30t18 13.5q18 8 44 -2t59 -8q8 -2 17 -5.5t36 1.5q23 -14 39 -49t29 -56l-15 -915 q-6 -33 -26.5 -60.5t-44 -49t-41.5 -34.5l-19 -12q-7 -1 -12 -1h-4q-6 1 -22.5 3t-53.5 5t-107 3q-10 -2 -35.5 -1t-33.5 3l-228 6q-12 4 -30.5 3t-39 -3t-43 -2t-42.5 4q-35 25 -60.5 70t-56.5 86z" />
<glyph unicode="v" horiz-adv-x="1126" d="M55 1346q0 6 5.5 24.5t16.5 39t26.5 36.5t35.5 16q6 0 7 -5t12 -5q10 -4 26.5 -5t34 -1t31.5 1t20 1q14 0 26.5 -10.5t23 -22.5t17.5 -24.5t11 -18.5q8 -16 15.5 -27.5t13.5 -21.5t9 -22.5t3 -30.5q0 -53 4 -90t10.5 -68t15.5 -59.5t19 -65.5q4 0 3 1t-1 -7 q16 -84 25.5 -133t13.5 -76t6 -39t4.5 -23.5t5.5 -28.5t11 -54q4 -8 7 -13.5t7 -9.5l8 6q0 -2 9.5 17.5t23.5 48.5t29.5 60.5t25.5 51.5q20 70 35 104t25 51.5t18 26.5t19 27q27 49 41 110.5t23 116t16.5 94.5t21.5 48q10 10 26.5 21.5t22.5 11.5t27.5 -5t38.5 -5 q16 6 27.5 0.5t29.5 -5.5q20 -20 40 -42.5t30 -38.5q0 -8 -3 -20.5t-7 -25.5l-8 -21q-3 -9 -3 -13q-18 -59 -26.5 -89t-12.5 -44.5t-4 -18.5v-8q0 -14 -8 -40t-18.5 -50.5t-19.5 -43t-11 -18.5q-4 -29 -13.5 -57.5t-20.5 -61t-23.5 -72.5t-22.5 -89q0 -4 -9 -38t-22.5 -87 t-32 -120t-39 -131.5t-40 -122.5t-37.5 -95q-14 -12 -39 -22.5t-56.5 -16.5t-67.5 -9q-22 -2 -42 -2q-14 0 -27 1q-43 90 -79.5 171t-72.5 180t-74 232.5t-85 327.5q-14 55 -28.5 130t-24.5 143.5t-17.5 119t-7.5 54.5z" />
<glyph unicode="w" horiz-adv-x="1378" d="M111 1001v21q4 55 6 85t3 44t1 19.5t-1 10.5t-1 14t2 36q2 23 -2 54.5t-4 37.5q0 2 8 13.5t20 25.5l25 29q12 14 22 26q51 0 71 -2t26 -2q27 -4 44 1q12 4 30 4q7 0 16 -1q8 -10 22.5 -22.5t26.5 -27.5t20.5 -30.5t6.5 -27.5l-19 -645l4 -240q18 16 47 52t58.5 72 t55.5 62.5t38 26.5l27 -2q18 0 45.5 2t42.5 0l182 -201q2 -8 7 -15t7 -9q0 4 -1 11t-1 35.5t1 88t7 168.5l-8 313l2 244q0 2 -1 6t-3 11t-1 19.5t5 32.5q6 23 26 42l34 34h12q4 -4 10 -3t19 1q10 0 20 -6l12 2q12 2 27 3l29 2q14 1 18 1h17q9 0 10 -2q10 -4 26.5 -18.5 t30.5 -31.5t23.5 -34.5t7.5 -30.5l-21 -1261q-2 -10 -18.5 -25.5t-34.5 -31.5q-23 -18 -49 -37q-49 2 -86 2h-84q-23 4 -42.5 25.5t-36.5 49t-32.5 55t-29.5 42.5q0 2 -5.5 10t-37.5 49l-123 162q-4 -2 -3 -2t-1 -8q0 -6 -34 -50t-82 -101.5t-99.5 -116t-83.5 -93.5 q-14 -16 -38 -23t-44 -18l-45 -4q-16 -2 -30.5 -2t-16.5 2q-4 0 -9 2q-6 2 -4 4q-4 2 -13 15.5t-18.5 31t-17.5 33t-8 21.5l-6 305q0 4 4 5t4 7q2 6 -3 20.5t-3 24.5q0 49 1 69.5t2 28t1 9.5v18q0 55 -1 95t3 57q-4 94 -8 170q-2 33 -3 63.5t-2 56t-1 41.5z" />
<glyph unicode="x" horiz-adv-x="1081" d="M31 1292q14 18 20 36t29 22l59 6q14 4 36 7t42 4q10 1 20 1t19 -1q18 -1 27 -7q63 -37 98 -83t58.5 -95t45 -97.5t58.5 -85.5q29 47 48 105.5t43.5 112t61.5 92.5t101 45q37 10 76 11h12q37 0 90 -5q16 -18 26.5 -42t12.5 -30q0 -4 -18.5 -49t-43 -108.5t-51.5 -131 t-45 -116.5q0 -4 -15.5 -39t-34 -79t-32.5 -85t-12 -57q2 -23 24.5 -71t55 -106.5t70.5 -123t70 -118.5t53 -93q24 -43 24 -52q0 -16 -13 -32q-15 -18 -32 -43l-154 2q-10 -4 -22 -8q-7 -2 -14 -1h-9q-10 2 -12 10.5t-10 14.5q-49 31 -83 70t-60.5 83t-50.5 89t-50 86 q-25 -41 -48.5 -90.5t-50 -96.5t-60.5 -86t-79 -57l-47 -6q-16 2 -28.5 2t-42.5 4q-6 -4 -9.5 -1t-13.5 3q-10 16 -21.5 34.5t-21.5 39.5l217 577l-180 377q-4 8 -16.5 28.5t-27 48.5t-28.5 57.5t-20 54.5q-14 23 -21.5 30.5t-17.5 28.5z" />
<glyph unicode="y" horiz-adv-x="913" d="M33 1339q-2 16 3 18.5t1 6.5q4 16 16.5 25.5t20.5 13.5l12 4q6 2 12 2h16h30h34h25q31 0 57.5 -20.5t49 -53t40 -70.5t30.5 -73t22.5 -60.5t13.5 -33.5q4 -10 6 -13.5t8 -13.5q23 33 55.5 83t79.5 108q8 4 15.5 16t18.5 29.5t29.5 39t51.5 44.5h22h22h40h45h39 q4 0 12 -6.5t15.5 -15.5t12.5 -18.5t5 -15.5q0 -8 -26.5 -54t-62.5 -104.5t-73 -118t-55 -95.5q-20 -37 -48 -78l-56 -82q-28 -41 -48 -83t-26 -83l-21 -553q-2 -6 -11 -20.5t-22.5 -27.5t-27 -24.5t-25.5 -11.5q-2 0 -26.5 1t-53 3t-54.5 4t-28 2q-20 16 -34 43 q-10 16 -17.5 21.5t-5.5 15.5l25 299l26 258v15q0 6 2 12t2 35v39q0 12 -1 24t-7 29.5t-17.5 54.5t-31.5 101.5t-51 170.5q-6 10 -14.5 38t-19.5 61t-24.5 63.5t-27.5 48.5z" />
<glyph unicode="z" horiz-adv-x="1310" d="M73 265q-1 6 -2 14q0 26 13 71q20 27 52 63t68 75.5t74.5 79.5t75.5 77q29 31 78 78t96 93t81 82t34 46q0 4 -11 9t-26 10l-37 8q-8 0 -12 -1t-10 -1q6 0 -13.5 4t-62.5 8t-108.5 4t-151.5 -8q-29 25 -46.5 36t-27.5 18t-14 18.5t-4 35.5q0 4 2 36t6 73q0 12 10 23.5 t24.5 23.5t30 24.5t27.5 26.5l92 -6q8 0 27.5 -2t34.5 -6q14 2 46 1t68.5 -3t74.5 -3h15q29 0 52 3q18 0 49 -4t67.5 -8t72.5 -6.5t63 2.5l200 -7q6 -2 10.5 -1t10.5 1q27 0 52.5 -17t37.5 -38q2 -10 2 -21v-18q0 -35 -1 -49t-1 -39q0 -6 -2 -26.5t-2 -36.5q11 10 11 9 t-11 -12q-23 -24 -71 -73t-110.5 -110.5t-119 -119t-99.5 -97.5t-49 -44q-12 -8 -33.5 -32.5t-44 -53.5t-45 -54.5t-38.5 -31.5q14 0 58 -3t93 -6t90 -6t53 -3q35 0 72 -8.5t66 -8.5q14 0 34.5 -5t40 -16t34 -29.5t14.5 -45.5q0 -4 -4.5 -42t-8.5 -87q-4 -23 -25.5 -37 t-45.5 -22q-29 -8 -66 -15q-18 0 -40.5 3t-39.5 3q-6 0 -15 4.5t-20 0.5q-16 -8 -28.5 -2t-34 13t-60.5 10q-7 1 -14 1q-37 0 -94 -12q-6 0 -16.5 2t-19.5 4t-15 2t-6 -4q-10 2 -70.5 8t-196.5 6q-20 0 -36.5 6t-67.5 11q-31 29 -55 41l-41 20q-16 8 -25.5 20.5t-9.5 43.5 q0 3 -5 29z" />
<glyph unicode="{" horiz-adv-x="761" d="M16 668v32v43l9 13q8 10 9 8t13 10q2 2 9 8t30 17h18q10 -2 14.5 -1t14.5 1q4 0 6 -2t13 2h47v135q0 37 2 65.5t2 51.5q0 49 28.5 100t64.5 93t67.5 69.5t37.5 27.5q-4 0 4.5 2.5t14.5 6.5q25 18 36 31.5t18 21.5t16.5 11t29.5 3h32q17 0 23 -6h50q4 0 10 -6t12 -6 q2 -2 7 -3t12 -5q10 -6 10 -31l-6 -45q-10 -43 -3 -70.5t3 -23.5v-80q-4 -2 -4 -5t-9 -3q-39 0 -93 -6.5t-89 -22.5v-211q8 -16 8 -30.5t-4 -49.5l-117 -121q63 -41 86 -75.5t23 -86.5v-108q0 -59 2 -131q6 2 20.5 2t30 -1t28.5 -3t17 -2q14 4 30.5 3t37.5 -3 q29 -4 44 -11.5t15 -46.5v-36v-77q0 -42 -1 -77t-1 -37q-2 -4 -21 -4h-41q-22 0 -40 1l-19 1q-25 10 -41 10q-10 8 -20 8t-20 5q-12 2 -37 10t-25 4q-25 18 -56.5 43.5t-62 55.5t-54.5 60.5t-30 57.5q-18 23 -26 55.5t-13 55.5l7 196q-8 2 -15 2h-10h-4q-31 4 -40 4h-17 q-10 8 -21.5 14.5t-13.5 14.5q-16 12 -31.5 22.5t-24.5 30.5q-2 11 -2 19z" />
<glyph unicode="|" horiz-adv-x="577" d="M156 1376q0 35 15 55.5t37.5 29.5t46.5 11.5t40 2.5q6 0 19.5 5t17.5 5q8 0 9 -3t5 -3q8 0 16.5 -19.5t16.5 -45t14 -50.5t8 -35l19 -1237q-4 -16 -4 -40.5t-3 -48t-10.5 -42t-25.5 -24.5q-4 4 -50 4t-100 -4q-27 29 -37 69.5t-11 83.5t2 84t3 70l-12 121q2 8 2 55v114 q0 67 -1 142.5t-1 136.5q0 8 5 30.5t3 61.5q-4 43 -8 111.5t-8 148.5z" />
<glyph unicode="}" horiz-adv-x="761" d="M18 1182v37v76q0 42 1 77t1 37q2 4 22 4h41q22 0 40 -1l18 -1q25 -10 41 -10q10 -8 20.5 -8t20.5 -4q12 -2 37 -10.5t25 -4.5q25 -18 55.5 -50t62 -66.5t61.5 -68.5t48 -56q10 -12 11 -23.5t-2 -22t-6 -21.5t-1 -24l6 -192q8 -2 15 -2h10l55 -33q16 -12 31.5 -22.5 t23.5 -30.5l7 -21q2 -8 1 -17t-6 -13l-43 -45l-98 -54v-135q0 -37 -2 -65.5t-2 -51.5q0 -49 -28.5 -100t-64.5 -93t-68 -69.5t-38 -27.5q4 0 -4 -2t-14 -7q-25 -18 -36 -31.5t-19.5 -21.5t-16.5 -11t-28 -3h-32q-17 0 -24 6h-8q-4 0 -10 6t-12 6q-2 2 -7.5 3t-11.5 5 q-4 2 -5 7.5t-2 22t0 50t3 90.5v80q4 2 4 5.5t8 3.5q39 0 73 6t69 22v170q-8 16 -8.5 30.5t4.5 49.5l116 121q-63 41 -85.5 75.5t-22.5 86.5v129q0 80 -2 151q-6 -2 -20.5 -2t-30 1t-28.5 3t-18 2q-18 -4 -39.5 -5t-40 5t-32 19.5t-15.5 38.5z" />
<glyph unicode="~" horiz-adv-x="1103" d="M81 720q-1 1 1 5q-8 45 9.5 90t56 81t98 58.5t137.5 22.5q55 0 94 -5t67.5 -22.5t51 -50.5t47.5 -88l4 -104q18 0 27.5 -5.5t14.5 -5.5t6 10.5t1 41.5l-14 124q27 33 38 49.5t20.5 23.5t22.5 8t42 1t47 -1t35.5 -9t36 -24.5t45.5 -47.5q4 -8 5 -15t0 -18.5t-3 -28.5 t-2 -46l-5 -15q-5 -15 -11.5 -35t-11.5 -36t-5 -21q0 -10 -26.5 -33.5t-64.5 -48t-79 -43t-68 -18.5q-47 0 -98 8t-92 33t-67.5 69t-26.5 117v27q0 4 -21.5 2t-25.5 -2q-2 -12 -2 -22v-21l3 -7q3 -7 8 -16.5t8 -19.5t3 -12q0 -27 -2 -38t-10 -18.5t-25.5 -19.5t-48.5 -43 h-131q-8 8 -22.5 19.5t-29 23.5t-24.5 24.5t-10 24.5l-2 74q0 2 -1 3z" />
<glyph unicode="&#xa1;" horiz-adv-x="538" d="M92 -49l23 819q-2 10 7 26.5t23.5 32t31 27.5t26.5 16q35 6 59 5q14 -2 31 -5q25 0 38 -5t24.5 -14t26.5 -23.5t48 -32.5v-402q0 -94 -5 -145t-9 -83t-4 -56.5t10 -65.5q8 -6 8 -18q0 -4 -1 -29t-1 -54.5t-1 -53t-1 -25.5q-2 0 -24.5 -3t-48 -5t-48 -4.5t-24.5 -2.5 q-4 -4 -15.5 -8t-25 -9t-25.5 -8t-18 -3q-8 0 -24.5 15.5t-33 37t-31 43t-16.5 33.5zM113 1180v92q35 25 48 40t40 15q4 0 9 -2t9 -4q2 0 14.5 1t26.5 2t26.5 2t14.5 1q8 0 18 -10q4 4 6.5 5t4.5 5q4 -4 4 -5t4 -5h8q4 4 4 6t6 2l12 -9q11 -9 24.5 -20.5t24.5 -21.5t11 -12 v-58q0 -6 6 -24.5t6 -26.5q0 -16 -6 -27.5t-14 -22.5t-17.5 -23.5t-15.5 -32.5h-16q-4 4 -7.5 6t-5.5 4q-14 -14 -23 -18.5t-24.5 -3.5t-44 4t-80.5 3q-23 0 -37 15.5t-22 38t-11 45.5t-3 39z" />
<glyph unicode="&#xa2;" horiz-adv-x="972" d="M45 104q23 29 35 43l18 22q6 7 8.5 8t4.5 3q4 2 13 14.5t19 28.5q-20 23 -22 41l-6 25q-2 6 -10.5 16t-17.5 22.5t-17.5 29t-8.5 38.5q0 14 1 17.5t1 11.5v528q0 47 3.5 64.5t10.5 33t22.5 42t41.5 90.5q2 2 4 2t2 4l125 127q18 20 20.5 23t20.5 8l160 43q10 2 10 -2.5 t11 4.5h108q14 0 41 -17l29 35q35 -35 39 -26.5t-21 40.5q4 0 7 11.5t8 15.5q14 16 29.5 14t38 -14t54 -31.5t76.5 -34.5q6 -8 14.5 -18t6.5 -14q-6 -6 -18.5 -22.5t-26 -33t-25.5 -30t-16 -15.5q-2 -4 -8.5 -11t-10.5 -13q12 -16 22.5 -28.5t14.5 -22.5q8 -16 15.5 -37 t11.5 -37v-199q-8 -29 -26.5 -45t-37.5 -31q-16 -4 -26.5 1.5t-20.5 5.5q-8 0 -30 -1l-43 -3q-22 -1 -36 -2l-16 -1q-23 0 -38 15.5t-24.5 37t-14.5 42t-5 32.5q4 25 1 26t-1 5q0 6 2 19.5t6 27.5q2 10 -4 11t-2 20q4 14 -11 21.5t-36.5 10.5t-42 2t-28.5 -7 q-18 -12 -22.5 -31t-8.5 -35l-12 -643q-4 -20 8 -25l24 -8q8 2 30 3l43 2q22 1 38 3t12 6q4 10 1 8.5t-3 4.5t-2 9t2 11q6 0 7 24.5t0 56.5t-3 60.5t-2 38.5q0 18 17.5 38t27.5 24q29 6 45.5 8t26.5 2h19q9 0 26 2q29 -4 49 -4h37q12 0 24.5 -16.5t22.5 -38t17.5 -43 t7.5 -31.5l-9 -213q-10 -29 -21 -57.5t-28.5 -58t-43 -56.5t-64.5 -47q-4 -4 -12.5 -6t-18.5 -6q-29 -10 -62.5 -24.5t-41.5 -14.5q-27 0 -56.5 4t-36.5 4h-43l-65 6q-23 10 -30 11t-27 14q-2 0 -7 4l-39 -39v-2q-14 -16 -18 -21l-8 -8q-4 -2 -4 -7t-10 -7 q-4 -4 -18.5 -10.5t-18.5 -4.5q-25 0 -42.5 8.5t-33.5 16.5l-31 14q-4 4 -4 7q-2 4 0 11t0 13q-2 2 -8 9t-14.5 16.5t-14.5 18.5t-6 13z" />
<glyph unicode="&#xa3;" horiz-adv-x="1030" d="M59 76q4 10 6.5 23.5t2.5 19.5t-3.5 6t-3.5 6v43l9 12q6 -14 12 -10t14 14.5t16.5 22.5t18.5 16h59l17 172q-25 2 -68 2t-69 5q-4 35 -2 66.5t6 57.5q6 31 12 58q4 4 8 -2h101l-50 399q2 4 5.5 4t3.5 8q0 6 -5.5 8.5t-5.5 10.5q2 88 27 142t62.5 90t83.5 57.5t90 44.5 q4 -4 6 -8.5t6 -8.5q-2 8 8 11.5t-10 3.5q8 12 21.5 16t25.5 10l8 -2q4 -12 24.5 -2t32.5 10q6 0 18.5 -4t31 -6t41 1t47.5 18q8 0 41.5 -14.5t62.5 -24.5q-6 -8 -2 -19q4 4 6 15q6 -2 11.5 -9.5t9.5 -11.5q2 4 4 5t2 5q41 -23 66.5 -49t43 -56t28.5 -60.5t22 -59.5l8 -178 q0 -10 -7.5 -25.5t-17.5 -31t-22.5 -25.5t-24.5 -10t-16 12q-10 -8 -26.5 -10t-34 -2t-31 2t-17.5 2q-6 0 -19.5 -2t-41.5 -6l-11 10q4 4 5 12q-8 0 -13 -10q-20 33 -32.5 39t-12.5 24q0 6 2 35t2 37q0 4 3 14.5t8 14.5q-2 2 0 7t-7 5q-6 0 -6 -2t-4 -6q0 4 -3 8t-14.5 9 t-37 11.5t-70.5 12.5l8 4l-6 4q-12 -4 -32.5 -16.5t-16.5 -34.5l35 -424l270 4q14 0 21.5 -2t7.5 -29q0 -12 3 -39.5t2 -56.5t-9 -50.5t-29 -21.5h-43q-27 0 -41 9q-2 -4 -2 -9q-45 4 -88 3t-90 -3q2 -23 -2 -51.5t-8 -54.5q-6 -31 -15 -62l476 4q33 0 51 -12t28.5 -30.5 t13.5 -40t3 -37.5q0 -14 -3 -37t-13.5 -44.5t-29 -36.5t-48.5 -15q-14 0 -19.5 5t-9.5 -5q-33 2 -77 3t-122 2t-201.5 3t-318.5 6l6 6l-10 -6q-31 4 -40 4h-17l-91 82z" />
<glyph unicode="&#xa5;" d="M61 596q4 8 6.5 18.5t5.5 26.5t9 46t20 79q4 4 9 -2l165 2q0 2 -2 13.5t-20 65.5t-58 168.5t-114 325.5l12 9l-8 16q35 10 90 17.5t139 7.5q-2 -2 5.5 -25t21.5 -57.5t30.5 -75.5t31 -78t22.5 -65.5t6 -36.5q0 4 7 8t-3 -6q4 0 27.5 23.5t59.5 64.5t80 98t87 123h10 q8 8 10.5 18.5t18.5 10.5h168q4 0 12.5 -6.5t15.5 -15.5t12 -18.5t5 -15.5q0 -8 -26.5 -54t-62.5 -104.5t-73 -118t-55 -95.5q-25 -47 -60.5 -95.5t-66.5 -99.5l295 6q16 0 23.5 -3t7.5 -38q0 -14 3 -49t1 -72t-10.5 -64.5t-28.5 -27.5h-44q-28 0 -42 10q-2 -4 -2 -10 q-53 4 -118 2t-140 -4l-17 -434q-2 -6 -11 -20.5t-22.5 -27.5t-26.5 -24.5t-26 -11.5q6 0 -13 1t-47 2t-56.5 3t-44.5 4q-12 4 -19.5 17.5t-13.5 27t-11.5 24.5t-13.5 11l25 299l14 135q-33 4 -67.5 7.5t-69.5 7.5z" />
<glyph unicode="&#xa6;" horiz-adv-x="577" d="M156 1376q0 35 15 55.5t37.5 29.5t46.5 11.5t40 2.5q6 0 19.5 5t17.5 5q8 0 9 -3t5 -3q8 0 16.5 -19.5t16.5 -45t14 -50.5t8 -35l9 -483l-66 -49l-96 18l-68 74v16l-16 260zM172 365q2 8 2 63v129l82 37l104 -6l54 -45l6 -451q-4 -16 -4 -40.5t-3 -48t-10.5 -42 t-25.5 -24.5q-4 4 -50 4t-100 -4q-27 29 -37 69.5t-11 83.5t2 84t3 70z" />
<glyph unicode="&#xa7;" horiz-adv-x="1255" d="M68 707v90q0 14 16 35.5t43 45t57.5 46t61.5 41.5q-31 37 -67 76.5t-36 76.5v92q0 16 17.5 39t45 46.5t60.5 46t62.5 41t52 29.5t31.5 11q4 0 24.5 4.5t42 9.5t39.5 9l19 4h485q2 0 3 -1t3 -1q35 -25 53.5 -41t27.5 -31.5t11 -32t2 -40.5q0 -25 -1 -37.5t-9 -20.5 t-27.5 -18t-56.5 -35l-510 12q-27 0 -38 -14t-15 -33.5t-3 -39t1 -30.5q0 -10 20.5 -28.5t24.5 -28.5l24 -4l334 -2q63 -23 117.5 -53.5t93.5 -69.5t61.5 -83t22.5 -93q0 -70 -54 -135.5t-132 -116.5q16 -18 38.5 -36.5t43 -39t35 -42t14.5 -44.5q0 -68 -51 -133 t-123 -115.5t-148.5 -78t-128.5 -21.5h-10l-371 -18q-14 0 -29.5 9t-30.5 21.5t-29 25.5l-21 22v114q37 29 51 44.5t23.5 23.5t21.5 9t43 1h27q23 0 52.5 -1t57 -2t39.5 -1q12 -4 31.5 -4t41 1t42 3t35.5 2q49 0 71.5 -1t33.5 0t18.5 4t23.5 9q0 -4 -8 29t-6 115h-13 q-11 0 -24.5 1t-26 2t-14.5 1q-8 0 -6 2l-27 8q-10 0 -19 -1t-24 -1h-18q-135 0 -233.5 30.5t-163 79t-95 106t-30.5 110.5zM386 705.5q1 -19.5 1 -31.5v-23q0 -14 2 -24q33 -2 71 -3t54 -1q12 -4 30.5 -4.5t40 2t43 3.5t36.5 1h71q23 0 34 1t17.5 4t22.5 9q0 -4 2 27.5 t4 115.5l-373 11q-27 0 -38 -14.5t-15 -34t-3 -39z" />
<glyph unicode="&#xa8;" horiz-adv-x="1042" d="M125 1233q0 8 7 27.5t7 25.5v60q0 2 11.5 13t24.5 23.5t26 21.5l12 9l145 -4q4 2 9.5 4t9.5 2q27 0 42 -15.5t50 -41.5v-98q0 -16 -3 -41t-11.5 -47.5t-22.5 -39t-39 -16.5q-59 0 -89 -2t-46 -3t-27.5 1t-31.5 8h-17q-6 20 -16 33.5t-19.5 26t-15.5 24t-6 29.5zM539 1329 q0 23 17 49.5t34 53.5l45 4q18 2 35.5 3t27.5 3q16 2 46 -2t51 -2q0 -2 10 -6.5t23.5 -10.5t24.5 -13t13 -15q4 -25 8.5 -61t4.5 -56v-109q-16 -10 -32 -28.5t-24 -18.5q-10 -2 -33.5 -4t-49 -4t-48 -5t-30.5 -7q-8 0 -18.5 6t-20.5 14q-4 4 -3 4t-8 0q-23 0 -37 31t-22 69 t-11 69.5t-3 35.5z" />
<glyph unicode="&#xa9;" horiz-adv-x="1499" d="M61 1100q12 31 24.5 75t32 89t48.5 86t76 63q0 -4 2 -6t4 -6q4 6 10 13t12 9l9 -14q4 10 -3 18q31 12 70 27.5t47 15.5q10 0 25.5 -2t30 -5t25.5 -6t13 -3q2 2 1 5t10 3q8 0 10 -4t6 -6q-2 -4 4 -3t6 7q6 4 10.5 5t14.5 1l31 -1q31 -1 75.5 -3t97 -4t96.5 -4t73 -3l28 -1 q8 8 13 6l-7 -6q-2 -2 0 -6l17 14q14 -6 28.5 -10t24.5 -19q-16 0 -22 -4q0 -4 4 -8q2 4 -2.5 6t6.5 2q6 0 7 -4t5 -6q4 4 6 8t6 8q70 6 129.5 -17.5t101.5 -63t66.5 -91t26.5 -98.5q0 -10 -3 -6t-3 -6q0 -2 2 -5t16 -10l-8 9q10 -4 15 -20.5t5 -20.5q-4 2 -2 -17.5t5.5 -42 t5.5 -43t0 -20.5l10 -10h2q2 0 2 1t2 1h4q-4 -8 -7 -7t-5 5q-4 -4 -4 -7v-2q16 -2 11 -28.5t-5 -42.5q0 -10 -6 -12.5t-6 -8.5q0 -8 4 -8t6 -4l-17 -545q0 -8 -22.5 -46t-53 -79t-62.5 -74.5t-50 -33.5h-29q-20 -12 -41.5 -24.5t-31.5 -6.5q-2 -4 -2 -10q-66 2 -84.5 3 t-26.5 1q-4 6 -4 11t-4 9q-4 -4 -3 -7t-1 -9q-10 -8 -29.5 -3t-26.5 13q-2 -4 -1 -6t-1 -6h-34q0 4 3 9t-6 9q-2 -4 -2 -9t-4 -9q-8 0 -12 8l-3 -6q-1 -2 -9 -2q-4 0 -18.5 1t-33 3t-35 3t-24.5 1l6 6v13q-10 -6 -10 -19q-31 4 -40 -5t-17 -9q23 35 12.5 39t-14.5 -29v2h-2 q-2 0 -2 1t-2 1q-8 0 -5 -6h-24q-23 0 -49.5 -1t-50 -1t-27.5 2q-2 -4 -27.5 -3t-54.5 3q-37 2 -80 4q-47 0 -96 28.5t-89 75t-64.5 103.5t-24.5 117zM279 1180q8 -4 12 -15.5t4 -19.5q0 -2 2 -64.5t4 -154.5t6 -200t6 -200t4 -154.5t2 -64.5q6 2 26 -3t46.5 -11t59 -11.5 t67.5 -2.5q2 0 15.5 1t29 3t27.5 4t10 4q4 4 8 -2q33 -2 36 -7.5t20 -5.5h24l2 -2q4 -4 6 -4q4 -2 6 -4q6 -16 7.5 -7t1.5 17q14 4 29.5 1t27.5 -6t19.5 -2t5.5 16q8 -23 11 -27t5 0t7 11t18 7q8 0 6 -8t4 8q8 -4 16 0.5t23.5 7.5t42 3t75.5 -11v-6q0 -4 -2 -7t-4 -3t-4 8 q4 -23 11.5 -18.5t3.5 26.5q23 0 45 2.5t53 -2.5v-9q0 -5 2 -9q2 4 2 18q2 0 6 3q4 0 7 1t7 1q6 0 14.5 -3.5t8.5 -5.5v-2q0 -6 2 -8l2 2l4 2l-10 930q4 27 -12.5 32t-32.5 9l-8 -4q2 -2 8 -2q2 0 2 -2h-55h-107q-61 0 -132 1t-133.5 2t-106.5 1h-54h-31q-27 0 -59.5 1 t-59.5 1h-32q-12 0 -5 -5t-1 -5q-10 0 -6 5t-7 5q-8 0 -9 -8t-7 -8q0 4 -1 5t-1 3v2l-4 -12q2 -2 4 1t2 -8q0 -6 2 -9t-2 -13q-4 4 -4 7t-8 3q-10 0 -8 -7t-2 -11zM401 627v305q2 2 4.5 2t2.5 4t-3.5 5t-3.5 5q0 8 9.5 22.5t21.5 14.5v2l-2 4q-4 -10 -8 0h6q2 0 6 4 q-2 0 -2 2t-4 -2q0 10 12 17l-6 -4q8 2 10 4q2 0 2 2q0 4 -2 3t-2 3q0 12 19.5 29.5t46.5 35t53.5 33t40.5 21.5q4 -4 5 -6.5t5 -4.5q-2 0 0 2q0 4 9 5q6 0 4 -2.5t-2 -4.5q2 2 2 7h-15q8 10 17.5 11t17.5 5l14 -6q0 -2 -8 6l232 -12q-2 -4 -2 -13l3 3l5 6q4 0 7 -4.5 t7 -6.5q0 2 2 2t2 2q63 -23 85 -58.5t38 -68.5l6 -100q0 -6 -5 -17.5t-13 -22.5t-18.5 -20.5t-18.5 -9.5h-22q-17 0 -38.5 -1t-45 -2t-37.5 -1l-7 7q2 2 3 6q-6 0 -9 -6q-35 41 -34 57q0 4 1 9t1 9t2 9.5t6 7.5q-2 0 -1 3t-3 3t-4 -1t-5 -3q6 14 -4 19t-27.5 5t-36 -1 t-28.5 3h4l-4 4q-10 -4 -19 -6t-5 -16l8 -322q12 -12 16 -18t13.5 -9t28 -2t57.5 5q-2 2 -4.5 3t6.5 5q0 -6 2 -10q4 4 5 9t5 5q8 0 9 1t-15 7q-4 12 -5 16.5t-1 7.5v8v17q0 6 3 19.5t11 28t20.5 24.5t28.5 10q20 -2 43 -4q18 -2 42 -4t50 0q14 -8 27.5 -18t19.5 -27v-149 q-4 -20 -20 -41q-8 -14 -35 -36t-58.5 -42.5t-61 -34.5t-44.5 -14q-4 0 -4 3t-4 5q0 -2 -1 -3t1 -5q-10 -6 -17.5 -3t-23.5 8t-49 9t-96 -2q6 4 -0.5 8t-25.5 13.5t-53 29t-79 55.5q0 2 3 2.5t5 2.5l-8 4l-4 -4q-20 37 -32.5 52t-18.5 23.5t-8.5 18.5t-2.5 39z" />
<glyph unicode="&#xaa;" horiz-adv-x="1042" d="M68 88q0 12 8 62.5t21.5 120t29.5 151.5t31.5 159.5t29 143.5t21.5 102q6 25 12 76t16.5 113.5t23.5 129t32.5 121t44 89.5t57.5 35q29 0 94.5 -2.5t135.5 -10.5l2 -6q12 -16 18 -25.5t8 -17.5t3 -14t6 -15q41 -72 52 -117.5t19 -68.5q31 -109 47.5 -166t24.5 -84 q8 -31 12 -33q4 -16 7 -32.5t10 -30.5q0 4 1 -1t1 -3l147 -565q-2 -4 4 -21.5t13.5 -37t13.5 -39t6 -27.5q0 -29 -14.5 -43.5t-34 -19.5t-39 -4t-29.5 1q-33 0 -68.5 3t-60.5 44q-18 29 -27.5 63t-20.5 66.5t-26.5 61t-46.5 49.5q-4 0 -8 2t-24.5 3t-64.5 1t-126 -6 q-6 0 -14 3t-10 7q-16 -41 -23.5 -91t-15.5 -95l-2 -4v-11q0 -59 -32 -81.5t-89 -22.5h-68q-8 0 -25.5 6t-36 16.5t-32.5 26.5t-14 39zM430 580q0 -31 21 -31q4 -1 11 0q15 2 35.5 4t40 4t25.5 2h60q12 0 16 8v19q0 18 -16.5 77.5t-37 128t-39 129t-20.5 83.5 q-12 -47 -17 -72t-8 -37t-3 -15v-8q-6 -35 -23.5 -90t-30.5 -107q-14 -62 -14 -95z" />
<glyph unicode="&#xab;" horiz-adv-x="899" d="M54 395.5q1 10.5 2 22.5t1 21.5t0 6.5l154 273q20 10 29.5 22.5t27.5 24.5q12 -6 30.5 -14.5t23.5 -16.5q4 -16 8 -41.5t2 -50.5q0 -51 1 -81t3 -49t3 -34.5t-1 -36.5l4 -77q2 -8 1 -68.5t-3 -157.5q0 -6 -10.5 -26.5t-14.5 -22.5l-8 -12q-8 -12 -6 -12q-10 4 -12 3 t-10 -1q-4 -2 -16.5 -3.5t-18.5 1.5q-6 0 -22.5 22.5t-36 49t-35 49t-17.5 22.5q0 4 -8 22.5t-18.5 40t-18.5 38t-10 16.5q2 2 -2 11t-9.5 18.5t-9.5 17.5t-2 10q-2 2 -1 12.5zM465 348q0 -2 0 7v22v22q0 10 2 13q-2 2 2 10t9 17.5t9.5 17.5t4.5 12q33 66 73.5 143.5 t100.5 137.5q14 2 30.5 4t26.5 -6q-2 0 6 -13q4 -6 6 -12q2 0 6 -11.5t8.5 -25.5t7.5 -26.5t3 -14.5l-15 -301q-4 -2 0.5 -11t-0.5 -11q0 -18 -5 -27.5t-3 -26.5q0 -4 1 -10t0 -19.5t-2 -36t-3 -59.5q-4 -2 -5 -13t-2 -25.5t-3 -30t-4 -23.5q-4 -8 -22.5 -15t-30.5 -13 q-18 12 -26.5 25t-29.5 24z" />
<glyph unicode="&#xac;" horiz-adv-x="909" d="M82 592q-2 12 2 22q2 6 1 8.5t-1 8.5v43l8 12q6 4 12 10q8 8 17 13q8 10 15 13t18 7h18q4 0 8 -1t21 1q2 0 7 -2t11 2h316q2 -4 4 0q18 0 37.5 2t48.5 -2q0 -6 1 -2t3 2q2 0 4 2q2 0 5 1t7 1q6 0 12.5 -3t6.5 -5q0 8 18 -3t42 -33.5t42 -53.5t18 -62q0 -84 -12 -122.5 t-2 -47.5q-2 -2 -4 -3t4 -1q-4 -31 -4 -40v-17l-18 -15q-6 -5 -13 -22q-6 -16 -21.5 -35.5t-19.5 -19.5q-10 0 -22.5 -2t-22.5 2q-6 2 -8 1t-8 -1h-43l-12 8q-4 6 -11 12q-12 12 -12 17q-10 8 -13 15t-7 17v19q0 4 1 8t-1 21q0 2 2 7t-2 11v104l-297 5q-2 2 -3.5 4t-1.5 -4 q-31 4 -39 4h-18l-15 18q-5 6 -22 12q-16 6 -35.5 21.5t-19.5 19.5q0 11 -2 23z" />
<glyph unicode="&#xad;" horiz-adv-x="909" d="M145 598v33v43l6 6l3 6q8 10 9 8t13 11q2 2 9.5 8t29.5 16h18q10 -2 14.5 -1t14.5 1q4 0 6 -2t13 2h208h46q2 -2 34.5 0t55.5 0q6 0 28.5 2t30.5 2q33 0 51.5 -12t28.5 -30.5t13 -40t3 -38.5q0 -14 -3 -36.5t-13 -44t-28.5 -37t-49.5 -15.5q-14 0 -16 1t-13 -1 q-66 2 -84 3t-26 1q-16 4 -39 0t-31 2h-35h-8h-24q-4 0 -18.5 1t-33 3.5t-35 3.5t-24.5 1h-4q-31 4 -40 4h-17q-10 8 -21.5 14t-13.5 14q-16 12 -31.5 22.5t-24.5 31.5q-2 10 -2 18z" />
<glyph unicode="&#xae;" horiz-adv-x="1499" d="M39 1051q8 33 17.5 78t25.5 91t43 88t72 68q0 -4 2 -6t4 -6q4 6 10 14t12 13l8 -15q4 10 -2 19q29 14 67 31.5t46 19.5q10 0 25.5 -2t30 -4t25.5 -4t13 -2q2 4 1 6t10 4q8 2 10 -2t6 -6q-2 -4 4 -3t6 7q6 4 10 5t15 3l30 1q31 1 76 2t97.5 2t96.5 2t72 2l29 1q8 8 12 8 q-8 -10 -6 -14l17 18q14 -6 28.5 -10t24.5 -16q-14 0 -23 -6q2 -2 2 -3t5 -5q2 4 -3.5 6t5.5 2q6 2 8 -2t6 -6q4 6 5 10t5 8q70 12 130.5 -8.5t105.5 -58.5t72.5 -87t33.5 -96q2 -10 -2 -6t-2 -6q0 -2 2 -4t16 -6l-8 6q10 -2 16.5 -18.5t6.5 -20.5q-4 2 -1 -17.5t7 -42 t8 -43t2 -20.5l12 -10h3q2 0 2 1t2 1h4q-4 -8 -7.5 -7t-5.5 5q-4 -4 -4 -6v-3q8 0 11.5 -8t3.5 -19t-1 -23.5t-1 -20.5q0 -10 -6.5 -12.5t-6.5 -8.5q2 -8 6.5 -8t6.5 -4l20 -543q0 -8 -19.5 -47t-47 -83t-57 -79.5t-48.5 -35.5l-29 -5q-18 -12 -38.5 -26.5t-30.5 -7.5 q-2 -4 -2 -11q-66 -2 -84.5 -2t-26.5 -2q-4 6 -4 11.5t-6 9.5q-2 -4 -1 -7t-1 -10q-10 -10 -29.5 -6t-25.5 13q-2 -4 -1 -6.5t-1 -6.5l-35 -2q0 4 3 8t-5 9q-2 -4 -2 -9.5t-4 -9.5q-8 0 -13 8l-3 -6q-1 -2 -9 -2h-19h-32h-35h-25l6 6v13q-10 -6 -10 -19q-31 0 -40 -9t-17 -9 q10 18 11 27.5t-2 11.5t-7 -5.5t-4 -23.5v2h-6q-8 0 -4 -6q-2 0 -24.5 -2t-49.5 -4t-50.5 -4t-27.5 0q-2 -4 -27.5 -4t-54.5 -3q-37 -2 -80 -2q-47 -4 -98 22t-93 70t-71 99t-33 115zM250 1147q8 -4 12 -15.5t6 -19.5q0 -2 7.5 -64.5t16.5 -153.5t19.5 -198.5t19.5 -198.5 t15 -153.5t6 -64.5q6 2 25.5 -1.5t46.5 -8.5t59.5 -7t67.5 2q2 0 15.5 2t28.5 5t27.5 6.5t10.5 5.5q4 4 8 -2q16 0 24.5 -1t12.5 -3.5t7 -3.5t11 -1l25 2l2 -2q4 -4 6 -4q4 -2 6 -4q8 -16 8 -6v18q14 6 29.5 3t29 -5t20.5 -1t3 16q10 -23 13.5 -26t5.5 1l6 12q4 8 16 9 q8 0 6 -8.5t5 8.5q8 -2 16 2t22.5 8t42 6t76.5 -4q2 -4 -2 -14.5t-8 4.5q6 -23 12 -18t2 28q23 2 45.5 5t53.5 1v-9q0 -5 2 -9q2 4 2 18q2 0 6 2q8 4 14 4t14.5 -2t8.5 -4v-2q0 -6 2 -8l2 2l4 2l-76 928q2 27 -14.5 29.5t-32.5 7.5l-8 -5q2 -2 8 -2q2 0 2 -2q-10 -2 -54 -5 t-106.5 -6t-132 -7t-132 -8t-106.5 -7t-55 -3q-4 0 -30.5 -2.5t-59.5 -3.5t-60.5 -3t-31.5 -2q-12 0 -5 -5t-1 -5q-10 0 -6 5t-6 5q-8 -4 -9.5 -11t-7.5 -9q0 4 -1 5t-1 3v2l-4 -12q2 -2 4 1t2 -7q2 -6 5 -9.5t-1 -13.5q-4 4 -4 7t-8 3q-10 0 -8 -7t-2 -11zM375 1032 q-2 14 6 30.5t21.5 31t28.5 24.5t30 12q18 0 23 1.5t10 1.5q4 0 4 -2.5t4 -2.5t2 2.5t2 2.5t4 -1.5t2 -3.5q12 4 43 9.5t71 11.5t82 11t78 7q14 2 36 -6t44.5 -21.5t42 -27.5t29.5 -27q16 -27 43 -47t27 -24l22 -176q2 -12 -16.5 -31t-42 -38t-42 -36.5t-18.5 -25.5 q0 -10 29 -52.5t64.5 -90.5t65.5 -89t32 -49q0 -10 -16.5 -27.5t-24.5 -23.5l-10 -2l-99 -4q-4 0 -9 3t-5 -5h-10l-49 30l-2 9l-13 16q-6 8 -10 14q8 2 6 4t-10 -2q0 2 -10.5 15.5t-22.5 31t-22.5 34t-10.5 24.5q0 2 -14 19.5t-14 19.5q0 4 1 3t3 -1q0 8 -6 2 q-10 14 -15.5 28.5t-21.5 24.5q2 0 2 1t2 1l2 2l-4 4q-8 -4 -16.5 -9t-10.5 -5q-6 0 -11 1t-11 3q0 -2 2 -2q4 0 4 4t-2 2t-2 2t1 3t3 1q-2 0 -4 1t-6 1q-2 -2 -3 -2t-1 -4t2 -2t2 -2l-2 -4l-25 -4v2v4q-23 -16 -24 -29.5t3 -32.5l17 -176q-4 -16 -19.5 -30.5t-23.5 -24.5 l-12 -2l2 4q-2 2 -4.5 2t-6.5 4q6 0 7 4q-8 8 -9 11q4 2 7.5 4t7.5 4v10q0 -2 -4 -10l-5 4q0 -4 -6 -4q0 2 9 10q-4 8 -11 10q-2 0 -2 -6q-4 4 -9 1t-7 -3v-6q2 2 3 4t5 4q-2 -4 -6 -11t-4 -9l2 -2q4 4 2 10q4 2 4 3t4 3q8 0 8 -10q0 -2 -3 -4t1 -13q-2 2 -5 3t-5 6v-13 q-2 0 -6 -2l-12 -6h4q0 -4 -2 -1t-2 7l-5 4q-2 -4 -1 -8t-1 -8h-28q-4 0 -8 -2q2 0 2 2l-4 2q-4 0 -1 -2t-2 -2q-12 0 -25 7t-23.5 19.5t-18.5 25.5t-8 24q-2 4 -3 12t-3 14q0 2 2 15.5t1 72t-8.5 177t-27.5 329.5zM600 946l8 -117q0 -14 23 -14q18 2 24 2h7l-2 1q-1 1 6 1 q4 0 2 0t-2 -4q0 2 2 2t4 2l4 -4q-4 0 -2 -4q4 4 4 6q2 0 4 2l4 -4q4 2 3 3t3 1h25h12h4q4 0 3 1t1 1q2 -6 8.5 -2t10.5 0v-6h-2l2 -4q4 4 6 5l6 3h-10l4 4l8 2q2 -4 3 -5t7 -5q2 2 0 2t2 0t3 -1t1 -1q0 4 -2 4t-2 4q0 2 2 4t2 4l-4 134q0 4 -3 8t-5 8v-2l-4 -4h-10v6 q-6 -4 -6 -8l4 4l-21 -4q4 4 2 8q-4 0 -4 -8h-14q-4 0 -1 2t-1 2t-4 -2t-4 -2t-7.5 1t-7.5 -3q0 -2 2 0t-2 -2q-4 0 -3 2t-3 2t-3 -2t-3 -2t-2 2t-2 2t-8 -2t-8 -2l-13 4q-4 0 -2 -2t-2 -2t-3 2t-3 2q-4 -4 -7 -5t-18 -1q-10 -2 -15 -8.5t-1 -10.5z" />
<glyph unicode="&#xb0;" horiz-adv-x="679" d="M63 1262q6 33 15 57q4 23 9 40t3 17q2 0 6 9.5t8.5 21.5t8.5 21.5t6 9.5t10 4t17.5 10t16.5 10t9 4l26 4q26 4 55.5 8.5t55 7.5t25.5 5h94l6 -8q2 2 0 6q31 -4 62.5 -27.5t56.5 -56.5t39 -69t12 -62l-12 -223q-8 -72 -43 -109t-94 -63h-154q-4 0 -9 -2.5t-9 -2.5 q-8 0 -13 5l-2 -5h-8q-4 0 -25.5 1.5t-21.5 3.5q-6 -6 -8 -7q-25 0 -44.5 17.5t-33.5 40t-25.5 46t-19.5 36.5q-14 18 -13 48t1 54zM272 1176q4 -29 6.5 -37.5t6.5 -22.5q-2 2 21.5 0t39.5 2q0 -2 2 -2h6h-2h4q2 0 4 2v-2h5q2 0 1 1t3 1t8 -2q2 0 5 2t9 4q4 4 0 11 q0 8 1 25.5t3 39t2 43.5v41q-2 0 -10 -2t-31 -2v4q-8 -2 -27.5 -5t-27.5 1q-23 -4 -22 -18z" />
<glyph unicode="&#xb1;" horiz-adv-x="1179" d="M48 912.5q1 21.5 5 39.5q0 25 5 38.5t14.5 24.5t24 26.5t32.5 48.5h305q2 20 4 33.5t2 25.5l-8 68q0 25 -5 39t-5 24q0 2 1 27.5t1 54.5t1 53.5t1 26.5q2 0 20.5 3t41 5t41 4t20.5 2q14 10 38.5 16.5t45.5 12.5q8 0 24.5 -15.5t33 -37t30.5 -43t16 -33.5l-6 -279 q23 -2 44.5 -4t33.5 -2l27 8q6 0 19 -3t26 5q6 8 18 9q2 0 27.5 -1.5t54.5 -1.5t53.5 -1t26.5 -1q0 -2 3 -24.5t5 -48t4 -48t2 -24.5q2 -4 2 -25q6 -6 16.5 -27.5t10.5 -31.5q0 -8 -15.5 -18.5t-37 -19.5t-43 -16t-33.5 -9l-254 6l-6 -262q2 -10 -7.5 -26.5t-23.5 -32 t-30.5 -29t-26.5 -15.5h-90q-25 0 -34 5t-16.5 14.5t-19.5 24t-45 32.5v297l-266 8q-10 -2 -26.5 1t-32 9t-29 16.5t-15.5 20.5q-6 29 -5 50.5zM207 219q-2 12 2 23q2 6 1 8t-1 8v43q4 4 5 6l3 6q6 4 12 11q8 8 17 12q8 10 15 13t18 7h18q4 0 8 -1t21 1q2 0 7 -2t11 2h209 h106q2 -4 5 0q18 0 37.5 2t48.5 -2q0 -6 1 -2t3 2q2 0 4 2q2 0 5 1t7 1q6 0 12 -3t6 -5q0 -4 11.5 -3t27 3t28.5 5t19 3q16 0 23.5 -3t7.5 -38q0 -14 3 -48.5t1 -71.5t-10 -65t-29 -28h-44q-28 0 -42 11q-2 -4 -2 -11q-78 6 -136 5.5t-103 13.5q-2 -4 -1 -6t-1 -6l-179 8 q-2 2 -3 4t-1 -4q-31 4 -40 4h-17l-15 18q-5 6 -22 13q-16 6 -35.5 21.5t-19.5 19.5q0 10 -2 22z" />
<glyph unicode="&#xb2;" d="M39 199q0 8 2 24.5t2 24.5q0 4 1 19.5t3 36t4 42t6 37.5q6 4 17.5 14.5t23.5 22.5l23 22l16 17q18 18 35.5 36.5t34.5 39.5q10 6 30.5 28.5t36.5 32.5q0 -2 12.5 9t30.5 30l39 39q20 20 35 37q16 8 40 29.5t51.5 46t56 50t55.5 42.5l16 206q0 10 -8 13.5t-6 7.5 q-6 0 -43 -1t-77 -1h-73q-33 0 -32 2l-25 -6q0 -8 -6 -27.5t-6 -30.5v-65q0 -29 -18.5 -63.5t-59.5 -45.5q-29 -2 -56.5 2t-45.5 9q-2 2 -11 14l-18 28q-10 15 -18.5 28.5t-8.5 15.5q0 4 3 40.5t7.5 78.5t7.5 78t3 40q0 14 16.5 36t35.5 42t36.5 36.5t21.5 18.5 q14 4 36 11.5t41.5 13.5t33.5 11t18 5q6 0 21.5 -1t32 -2t32 -2t23.5 1q12 0 29.5 -2t36 -3t34 -2t21.5 -1h28q4 -2 13.5 -6t7.5 -2q61 -29 113.5 -74t89.5 -98.5t57.5 -110.5t20.5 -110q0 -72 -32 -136.5t-80 -121t-103.5 -104.5t-103.5 -87t-80 -69.5t-32 -51.5 q0 -8 9.5 -15t17.5 -7t10 3t13 3q6 0 19 -2t28 -6q16 -4 52 -6.5t93 -28.5q12 -2 19.5 -4t23.5 -6q14 -14 19.5 -28.5t5.5 -16.5q0 -4 13 -11.5t1 -27.5q-10 -18 -23.5 -43t-23.5 -41q-2 -2 -8 -13.5t-14.5 -25t-16.5 -23.5t-14 -10h-66l-18 -4q-12 0 -23.5 4t-36 9t-68.5 6 t-120 -5q-14 0 -30.5 1t-41 3t-60.5 4t-91 4h-19q-2 2 -17.5 14.5t-33.5 28t-32.5 30t-14.5 20.5z" />
<glyph unicode="&#xb3;" d="M20 1090q0 14 13.5 41.5t31 55t34 49t22.5 24.5q8 20 25.5 40.5t34 37t30.5 27.5t16 11q6 0 32 11.5t48 21.5q41 12 92.5 23.5t102.5 11.5l63 2q6 2 37 -11.5t53 -27.5q0 -2 12.5 -5t22.5 -7q123 -80 185.5 -188.5t62.5 -219.5q0 -8 -6 -26.5t-15.5 -37t-20.5 -32.5 t-24 -17q-29 -16 -53 -27t-24 -28q0 -12 31.5 -31.5t70.5 -55.5t70.5 -93t31.5 -143q0 -51 -6 -109.5t-27.5 -115t-60.5 -108.5t-104 -89l-142 -49q-47 2 -108.5 -5.5t-118.5 -9.5q-18 -4 -35 -6q-14 -2 -28.5 -3t-22.5 -1q-4 0 -14 4t-20.5 9t-19.5 11.5t-9 10.5l-17 11 q-16 11 -37.5 25.5t-41 32t-27.5 29.5q-25 20 -45.5 45t-24.5 47q-4 12 -9 38l-10 51q-5 26 -9.5 45.5t-4.5 21.5v22v62q0 14 -4 24q31 25 53.5 38.5t51.5 13.5q45 0 98 -6q-2 -2 16.5 -4.5t22.5 1.5t11 -2t17 -16l18 -20q9 -10 15 -15l15 -198q-4 4 4 -7.5t16 -5.5 q16 4 18.5 3t14.5 8l74 4q6 0 9 -3.5t9 -3.5q20 0 35.5 3.5t30 6.5t31 3t38.5 -8l54 57q-4 92 -7.5 120.5t-3.5 35.5v12q0 25 -2 49.5t-2 46.5q-10 6 -14 7t-17 -3q-51 0 -78.5 -2t-42 -4t-21.5 -4t-19 0t-25.5 15.5t-25 29.5t-18.5 30.5t-7 20.5q0 33 -3 62.5t-3 60.5 q0 4 12 17.5t26.5 27.5t26.5 26l13 11q10 0 24 1t29 1q4 0 16 -9t41 -1q4 10 8 18t4 17q0 6 -4 11t-4 9q0 61 -2 105.5t-2 50.5q0 10 -5 24.5t-5 28.5q0 6 -5 10t-16 -4q-20 2 -28 2t-25.5 -1t-54.5 -2t-115 -1q-10 0 -17 3t-20 -1q-10 -10 -10 -24v-27l14 -221 q-10 -16 -27.5 -32.5t-33.5 -37.5q-20 -4 -47 -4h-51q-25 0 -44.5 2t-25.5 6q-43 39 -50 83t-9 91q-2 37 -5.5 63t-3.5 32z" />
<glyph unicode="&#xb4;" horiz-adv-x="835" d="M47 1348q4 8 5 9t3 5q16 14 25.5 30.5t32.5 28.5l22 4q14 8 27.5 6.5t21.5 4.5l121 20q4 -2 8 0q20 4 57.5 9t92.5 18q2 4 19.5 7t36 5t33.5 4t13 2q0 2 4 4q2 2 6.5 2t8.5 2q6 2 13 -1t9 -5q0 -6 17.5 2t27.5 11q35 6 48.5 -0.5t20.5 -30t14 -66.5t30 -108 q-6 -12 -13.5 -31.5t-13.5 -24.5q-16 -10 -44.5 -14t-47.5 2v-10q-37 -6 -58.5 -8t-33.5 -4t-18 -2h-13q-41 -6 -54 -11.5t-22 -1.5l-38 -8q0 2 -21.5 -1t-48.5 -7t-52.5 -8t-33.5 -2h-6q-14 -8 -26.5 -9.5t-25 1t-23.5 2.5t-26 -5q-6 0 -26.5 7.5t-24.5 13.5q-6 16 -14 27 l-17 24q4 10 4.5 25.5t-1.5 23.5q-2 4 -5.5 5t-5.5 5z" />
<glyph unicode="&#xb6;" horiz-adv-x="1456" d="M92 1006q0 45 1 87t12.5 80.5t37 74.5t76.5 69q-10 -25 -11 -28t15 16q-6 -12 2 -15q6 4 7 3t4 -1l9 13.5t9 7.5t9 -2t13 6q2 -6 2.5 -13.5t10.5 -11.5q-4 16 5 36t23 22q25 16 12.5 12t-30.5 -12q135 18 196.5 26t82 10.5t16.5 -3t-2 -11.5v6q0 6 -2 15q0 -2 2 -4 q4 -4 10 -5q6 0 12.5 4.5t16.5 4.5q4 0 14 -5.5t23 -9.5l-9 11q8 0 12.5 -2.5t10.5 2.5q-10 4 -10 14q2 4 9 5t11 -3q-4 -2 -4 2t0 -6t10 -21q12 4 32 -10t36 -35.5t28.5 -43t12.5 -31.5q0 -6 -4 -5.5t-4 -5.5q0 -8 4 -12t2 -8q-4 2 -4 3t-2 3l-2 2q0 -4 2 -7t2 -11t3 -12.5 t3 -20.5q-2 0 -3 -1t-3 -1h-2q18 -270 24 -447.5t6 -283t-4 -148.5t-6 -47l8 -6q2 -10 2 -33.5t5 -44.5q-2 -4 -10.5 -23.5t-19.5 -40t-23.5 -37t-22.5 -16.5q-8 0 -12.5 1t-8.5 10q4 4 4 6t2 4q-2 2 -4 5t-10 3q-6 0 -4 -3t-2 -5q4 -4 7 -10.5t3 -10.5q-4 0 -5 4.5t-7 4.5 t-7 -4.5t-9 -4.5q-2 0 -14.5 6.5t-16.5 6.5t1 -3.5t-1 -3.5q-4 0 -8 5.5t-21 5.5q8 4 10 8t4 6q-2 2 -6 3t-4 5q4 4 7 4t3 11v4q0 2 -6 18q-2 0 -3 -2t-5 -4v-7q0 -5 4 -9q-4 0 -5 -2.5t-7 -4.5q2 2 -4 9l-2 -7q0 -6 4 -7t4 -7q0 -10 3 -11t3 -11h-14q-4 4 -3 6t-7 2 q-6 0 -4.5 -1t1.5 -24h-12q-10 8 -23.5 20.5t-27.5 28t-24.5 29.5t-10.5 25l-6 479q0 8 -4 13t-4 16q4 14 0 19t-9 5t-8.5 -5t3.5 -13q0 16 -2.5 19t-4.5 -1t-4 -11t-2 -9q-4 0 -10 6t-11 10t-8.5 2t1.5 -16q-6 10 -12.5 8t-16.5 -10q-6 8 -16.5 4t-14.5 -4q-8 0 -9 3t-7 3 t-4 -3t-4 -3l-35 41q-2 -4 -2 -9q0 -2 -2 -2q-16 2 -54 34t-79 78t-72 99.5t-31 96.5zM954 1311q0 31 21.5 49t52.5 26.5t63.5 10.5t55.5 2q8 0 26.5 5t24.5 5q10 0 11 -3t8 -3q10 0 22 -17.5t22.5 -40t18.5 -45t12 -32.5l25 -1114q-4 -16 -17.5 -38t-33 -43.5t-44 -38 t-48.5 -20.5q-2 2 -5 2h-12h-30q-19 0 -56 -2q-37 27 -53.5 45.5t-21.5 37t-4 38t1 45.5l-16 312q2 6 2 34v72q0 43 -1 96.5t-1 108.5q0 8 6 28.5t4 55.5q-4 39 -10 82t-10 114z" />
<glyph unicode="&#xb7;" horiz-adv-x="520" d="M100 735v103q14 10 29.5 26.5t22.5 18.5q10 6 17 6t28 4q16 4 29.5 3t41.5 3q8 0 19.5 2t19.5 2q6 0 16.5 -6t20.5 -14q4 0 3 -2t5 -2q23 0 37 -30t21.5 -64.5t10.5 -66.5t3 -34q0 -23 -17.5 -47.5t-31.5 -48.5q-23 -2 -43 -4q-16 -2 -33.5 -3t-28.5 -3q-16 -2 -33.5 1 t-56.5 3q0 2 -10 6l-22.5 9t-23.5 12t-13 16q-4 23 -7.5 57.5t-3.5 52.5z" />
<glyph unicode="&#xb9;" horiz-adv-x="720" d="M76 1194q4 4 9 21.5t10 39t12.5 44t15.5 38.5l170 6q-2 0 17.5 -1t47 -2t57.5 -1h52q14 10 35.5 3t32.5 -3q6 2 22 -13t33.5 -36.5t32 -44t16.5 -35.5l-23 -1089q2 -10 -7 -26.5t-23.5 -32t-30.5 -29t-27 -15.5q-14 -2 -23 0t-18.5 3.5t-20.5 1.5t-30 -5q-25 0 -38 5.5 t-24.5 14.5t-26.5 23.5t-48 32.5v402q0 70 3 115.5t6 76.5t6 50.5t3 33.5l2 285v27q0 22 7 38l-7 4q-12 -2 -32.5 6.5t-73.5 0.5h-74l-34 33q-15 16 -29 28z" />
<glyph unicode="&#xba;" horiz-adv-x="1103" d="M66 1038q4 23 14 55.5t33 55.5q8 27 36.5 57.5t65.5 61t77 56.5t68 44q29 2 49.5 8t39 12.5t39 11.5t49.5 5q2 0 17 1t32.5 2t32 2t18.5 1q66 0 123 -30.5t104 -81t85 -112t63.5 -124t39 -118.5t13.5 -93l-10 -371q-4 -53 -31 -116.5t-70 -125t-99 -115.5t-124 -91 q-14 -12 -29.5 -18.5t-37 -10.5t-51 -7t-72.5 -11q2 2 -5.5 1t-19.5 -3t-24.5 -3t-18.5 -1q-25 4 -36 8t-20 11t-23.5 18.5t-45.5 29.5q-4 6 -46 30.5t-91 63.5t-89 91.5t-40 115.5q0 23 -2 51.5t-2 65.5v235zM414 1112l14 -500q2 -18 -2 -49t-8 -57v-211q20 -8 49 -14.5 t59.5 -9.5t60 -4t54.5 -1q10 0 10 -3t4 -5l4 31q2 10 1 12t-1 14l15 371q0 27 -1 49.5t-1 59.5v98q0 61 4 166q0 37 -1 37t-3 -4q-23 8 -46.5 13t-45 7t-35 2t-13.5 2q-6 0 -22 -2t-34.5 -3t-36 -1t-25.5 2z" />
<glyph unicode="&#xbb;" horiz-adv-x="899" d="M113 135l10 301q4 2 -1 11.5t-1 11.5q0 18 5 27.5t3 25.5q0 4 -1 10t-1 19.5t1 36t3 59.5q4 2 5 14.5t2 26.5l2 29q1 14 3 24q4 8 22.5 15.5t31.5 13.5q18 -12 26 -25.5t31 -23.5l149 -273q0 2 0 -7v-21v-23q0 -10 -2 -12q2 -2 -1 -10.5t-8 -18.5t-9 -19.5t-4 -11.5 q-33 -66 -72 -144.5t-98 -137.5q-14 -2 -30.5 -4t-26.5 6q-2 0 -2 2l-5 8q-4 6 -6 12q-2 0 -6 11.5t-9 26t-8 25.5t-3 15zM524 490v157q0 6 10.5 27.5t14.5 23.5q2 6 6 13q2 2 2 4t2 4q0 2 2 4q12 -4 14.5 -3t10.5 1q4 2 15 3t17 -1q6 0 23.5 -21.5t37 -49t36 -49 t18.5 -21.5q0 -4 8.5 -22.5t18.5 -40t18 -38t10 -16.5q0 -4 4.5 -12.5t9.5 -17.5t9 -16t2 -9q2 -2 1 -12.5t-2 -23t-1 -21.5t0 -7l-149 -276q-18 -10 -27.5 -22.5t-28.5 -24.5q-12 6 -30.5 14t-22.5 16q-6 16 -10 42t-2 50q0 51 -2 80t-4.5 48.5t-3.5 35t-1 37.5l-4 76 q-2 8 -2 68z" />
<glyph unicode="&#xbf;" d="M31 156v135q0 2 5 13t12 23.5t16.5 26t15.5 21.5q59 68 127.5 103.5t128.5 64.5q27 4 44 2t35.5 -4t44 -3t66.5 7q2 -2 21 -2h40q22 0 38 -1t16 -5q0 4 -1 40.5t-3 79.5q-2 51 -2 113q0 29 3 59.5t44 42.5l16 7q20 0 50 -2.5t59 -4.5t50.5 -4t25.5 2q23 -29 47 -58.5 t24 -57.5q0 -4 -3 -6.5t-3 -10.5q0 -6 3 -8t3 -6q-4 -51 -5 -91t-2 -74t-1 -64.5t-2 -63.5q4 -4 9 -28.5t5 -30.5q0 -37 -8 -46.5t-45 -27.5q-12 2 -59 1t-100.5 -2t-99.5 -2t-56 3q-2 0 -36 1t-76 3t-77.5 5t-44.5 5q-4 0 -8 -2t-7 -8t-1 -20q0 -14 4 -32t0 -59 q0 -6 -5 -13t-5 -15q0 -4 1 -14.5t4 -21.5t10 -20.5t20 -7.5q27 -4 51 1t63 1q6 -2 44 0t88.5 6.5t105.5 9.5t100 8t69.5 3t14.5 -6q16 0 30.5 -17.5t27.5 -17.5q0 -14 2 -42t3 -56.5t2 -51t1 -24.5q0 -10 -2 -15.5t-6.5 -9.5t-11.5 -10t-17 -18q-14 -10 -35.5 -7t-38.5 -2 q0 2 -32.5 1t-81 -2t-105.5 -3t-106.5 -5t-82 -4t-34.5 -1h-29h-27q-14 0 -26 2q-33 0 -85 38t-101.5 89t-84 105.5t-34.5 85.5zM596 1075v92q0 14 3 38t11 45.5t23.5 37t38.5 15.5q55 0 83.5 2t44 3t26 -1t30.5 -9h16q6 -20 14.5 -32.5t16.5 -23.5t14.5 -22.5t6.5 -27.5 q0 -8 -6.5 -26.5t-6.5 -24.5v-58q0 -2 -11 -12t-24.5 -21.5t-24.5 -20.5l-11 -9l-156 -2q-27 2 -40 17t-48 40z" />
<glyph unicode="&#xc0;" horiz-adv-x="1042" d="M61 76q0 6 4.5 12t4.5 12q0 35 11 46.5t15 25.5l119 401q4 10 11 24.5t10 20.5l77 220q8 16 15.5 46.5t27.5 59.5l13 25q8 16 8 20q0 6 6 13.5t8 11.5q18 10 19.5 14t7.5 8q10 -2 14 -6t8 8q43 2 72 3t50.5 2t37.5 1h35q31 0 54.5 -26.5t42 -66.5t31.5 -90t22.5 -96 t15.5 -85t12 -57q6 -29 19.5 -78t27.5 -107.5t29.5 -121t28 -116t20.5 -90t8 -47.5q0 -16 -13 -27t-30.5 -20.5t-35 -13.5t-23.5 -4t-20.5 3t-22.5 3q-6 0 -21.5 -3t-19.5 -3q-66 0 -94.5 25.5t-24.5 64.5q-8 35 -15.5 73t-21.5 66q-2 -4 -10 -5t-12 -1h-158 q-29 -16 -41 -37.5t-18.5 -46t-12.5 -50.5t-22 -46q-12 -16 -36 -23.5t-50.5 -10.5t-52.5 -3h-39q-10 0 -25.5 3t-30 11.5t-25 23t-10.5 34.5zM186 1350q8 10 12.5 24.5t6.5 22.5q0 4 -4 5t0 7l8 47q4 4 6 7t4 5q2 -2 4 -2l4 -4q16 12 25.5 19.5t15.5 11.5t11.5 6t13.5 4 l22 -4q14 -2 24.5 -5t27.5 -3l98 -21q29 -10 59.5 -12t69.5 -8l49 -8q-4 2 13.5 -1t39 -7t39 -7.5t13.5 -3.5q0 2 4 2h16q6 0 11 -6t5 -8v-2q0 -2 2 -4q4 4 20.5 4t27.5 -2q35 -6 46 -16.5t9 -35t-11.5 -66.5t-11.5 -111q-10 -10 -22.5 -26.5t-20.5 -18.5q-16 0 -44.5 6 t-45.5 16q0 -4 -1 -5t-1 -5q-49 12 -78.5 17t-49 8.5t-35 6.5t-33.5 9l-39 6q-10 2 -17.5 2t-19.5 6q-4 0 -20.5 4t-42 11.5t-57.5 15.5t-65 16q-8 -2 -9 0t-3 5t-6 4t-16 -1q-6 2 -23.5 16.5t-17.5 20.5q-4 16 -6 29q-2 4 -2.5 10t-2.5 10q-2 7 -2 9zM451 461q2 0 5 -1 t7 -1h22q6 0 17.5 -1t24 -3t21.5 -4t9 -5q4 4 9 1t14 2q6 6 -2.5 36.5t-22.5 69.5t-27.5 77t-15.5 60q-2 -12 -12.5 -44t-20.5 -68.5t-19 -68.5t-9 -40v-10z" />
<glyph unicode="&#xc1;" horiz-adv-x="1042" d="M61 76q0 23 5.5 37t11.5 23t11 17.5t7 18.5l119 401q4 8 7 21.5t14 23.5l77 220q8 16 18.5 53t45.5 98q0 6 6 13.5t8 11.5l41 14q2 2 5 4t3 6q43 2 72 3t50.5 2t37.5 1h35q31 0 54.5 -26.5t42 -66.5t31.5 -90t22.5 -96t15.5 -85t12 -57q6 -29 19.5 -78t27.5 -107.5 t29.5 -121t28 -116t20.5 -90t8 -47.5q0 -16 -13 -27t-30.5 -20.5t-35 -13.5t-23.5 -4t-20.5 3t-22.5 3q-6 0 -21.5 -3t-19.5 -3q-55 0 -86 17.5t-31 60.5q0 10 -2 12q-8 35 -15.5 73t-21.5 66q-2 -4 -10 -5t-12 -1h-35q-2 0 -13.5 3t-39.5 -3q-25 6 -36.5 6t-16.5 -1t-8 -3 t-9 -2q-29 -16 -41 -37.5t-18.5 -46t-12.5 -50.5t-22 -46q-12 -16 -36 -23.5t-50.5 -10.5t-52.5 -3h-39q-10 0 -25.5 3t-30 11.5t-25 23t-10.5 34.5zM170 1307q4 8 5 9t3 5q8 14 24.5 28.5t33.5 30.5l22 4q2 -4 3 0.5t3 1.5l43 9l176 30q14 -4 25.5 0.5t28.5 8.5l53 8 q8 6 24.5 8t33 3t28.5 2t12 5q0 2 4 4q2 2 6 2t9 2q6 2 13 -1t9 -5v-2q0 -2 2 -4q4 4 19.5 11.5t23.5 7.5q35 6 48.5 -0.5t20.5 -30t14 -66.5t30 -108q-6 -12 -13.5 -31.5t-13.5 -24.5q-16 -10 -45 -14t-47 2v-10q-37 -6 -58.5 -8t-33.5 -4t-19 -2h-12q-23 -4 -40 -12.5 t-36 -0.5l-39 -8q-10 8 -15 -2t-19 -2q-4 -2 -20.5 -4t-36 -4t-38 -4t-26.5 -2h-6q-35 -4 -44.5 -5t-19.5 -1q-12 -4 -17 -3.5t-20 -1.5q-6 0 -26.5 7.5t-24.5 13.5q-6 16 -14 27l-17 24q4 10 4 25.5t-2 23.5q-2 4 -5 5t-5 6zM451 461q2 0 5 -1t7 -1h22q6 0 17.5 -1t24 -3 t21.5 -4t9 -5q6 2 11 1t8.5 -3t5.5 -2t2 9q0 6 -8.5 32.5t-17.5 57t-16 55.5t-7 27q0 4 -2.5 12t-20.5 57q-2 -12 -12.5 -44t-20.5 -68.5t-19 -68.5t-9 -40v-10z" />
<glyph unicode="&#xc2;" d="M61 76q0 6 4.5 12t4.5 12q0 2 2 12.5t7 21.5t13 21.5t19 12.5l-15 4l137 453l11 26q8 20 24.5 62.5t44.5 124.5q8 16 16.5 38.5t20.5 41.5q0 18 13.5 33.5t13.5 37.5q0 6 6 13.5t8 11.5l31 22q2 2 10 0t8 2q43 2 72 3t50.5 2t37.5 1h35q31 0 54.5 -26.5t42 -66.5 t31.5 -90t22.5 -96t15.5 -85t12 -57q6 -29 19.5 -78t27.5 -107.5t29.5 -121t28 -116t20.5 -90t8 -47.5q0 -16 -13 -27t-30.5 -20.5t-35 -13.5t-23.5 -4t-20.5 3t-22.5 3q-6 0 -21.5 -3t-19.5 -3q-55 0 -86 17.5t-31 60.5q0 10 -4 29.5t-10 40.5l-13 43q-6 22 -12 38 q-2 -4 -10 -5t-12 -1q-57 6 -83 6t-37 -1t-16.5 -3t-21.5 -2q-29 -16 -41 -37.5t-18.5 -46t-12.5 -50.5t-22 -46q-12 -16 -36 -23.5t-50.5 -10.5t-52.5 -3h-39q-10 0 -25.5 3t-30 11.5t-25 23t-10.5 34.5zM189 1247.5q-1 12.5 1 18.5q0 6 23 22.5t49.5 35.5t49 34.5 t22.5 17.5q4 0 22.5 8.5t40 18.5t38 18.5t16.5 10.5q2 -2 11 2t18 9t17.5 9t10.5 2q2 2 12 1t22.5 -2t21.5 -1t7 0l273 -154q10 -20 22.5 -29t24.5 -28q-6 -12 -14.5 -30.5t-16.5 -22.5q-16 -4 -46 -5t-46 5q0 -4 -1 -5t1 -5q-74 -2 -95.5 -2t-29.5 2q-10 -6 -23.5 -5t-42 3 t-77.5 2t-131 -11h-7h-43q-10 0 -20 2q-12 -6 -15 0.5t-20 -0.5q-6 0 -26.5 10.5t-22.5 14.5l-12 8l-8 4q-2 0 -5 2q4 10 3.5 12.5t-0.5 10.5q-3 4 -4 16.5zM451 461q2 0 5 -1t7 -1h22q6 0 17.5 -1t24 -3t21.5 -4t9 -5q4 4 7 2t14 -2q4 8 -5.5 39t-21.5 70t-24.5 77 t-14.5 60q-2 -12 -12.5 -44t-20.5 -68.5t-19 -68.5t-9 -40v-10z" />
<glyph unicode="&#xc3;" horiz-adv-x="1042" d="M61 76q0 29 13.5 52.5t21.5 43.5l217 666q0 8 10.5 32.5t22.5 50t21.5 46t9.5 22.5q0 6 6 13.5t8 11.5l33 18q2 2 9 2t7 4q43 2 72 3t50.5 2t37.5 1h35q31 0 54.5 -26.5t42 -66.5t31.5 -90t22.5 -96t15.5 -85t12 -57q6 -29 19.5 -78t27.5 -107.5t29.5 -121t28 -116 t20.5 -90t8 -47.5q0 -16 -13 -27t-30.5 -20.5t-35 -13.5t-23.5 -4t-20.5 3t-22.5 3q-6 0 -21.5 -3t-19.5 -3q-55 0 -86 17.5t-31 60.5q0 20 -13.5 69.5t-25.5 81.5q-2 -4 -10 -5t-12 -1h-158q-29 -16 -41 -37.5t-18.5 -46t-12.5 -50.5t-22 -46q-12 -16 -36 -23.5 t-50.5 -10.5t-52.5 -3h-39q-10 0 -25.5 3t-30 11.5t-25 23t-10.5 34.5zM121 1228.5q-4 20.5 0 31.5q-6 41 9 81.5t50 72.5t88.5 52.5t122.5 20.5q49 0 85 -5t61.5 -20.5t46 -45.5t43.5 -79l4 -94q14 0 23.5 -4t13.5 -5t5 8t1 38l-12 113q25 29 35 44t18 21t20.5 7t36.5 1 q25 0 42 -1t32.5 -8t32 -22.5t41.5 -41.5v-99l-5 -14q-4 -14 -10 -30.5t-10 -32t-4 -19.5q0 -10 -24.5 -30.5t-58.5 -43t-71 -39t-61 -16.5q-43 0 -88 7t-83 29.5t-61.5 62.5t-23.5 106v24q0 4 -19.5 2t-23.5 -2q-2 -10 -2 -19v-19l3 -7q3 -6 7 -15t7 -17.5t3 -10.5 q0 -25 -2 -34t-9 -17t-23.5 -19.5t-43.5 -37.5h-116q-8 6 -21.5 16t-26 21.5t-21.5 24t-9 22.5q2 22 -2 42.5zM451 461q2 0 5 -1t7 -1h22q6 0 18 -2l22 -4q11 -2 20.5 -4.5t11.5 -2.5q10 2 11 3h12q0 12 -9.5 42.5t-21.5 66.5t-22.5 73t-14.5 61q-2 -12 -12.5 -44 t-20.5 -68.5t-19 -68.5t-9 -40v-10z" />
<glyph unicode="&#xc4;" horiz-adv-x="1042" d="M61 76q0 6 3.5 12t5.5 12q4 14 13 38t13 34l119 401q6 10 11 23.5t10 21.5l77 220q-4 6 6.5 29.5t23.5 51t27.5 55t20.5 40.5q14 16 26.5 18t22.5 6q43 2 72 3t50.5 2t37.5 1h35q31 0 54.5 -26.5t42 -66.5t31.5 -90t22.5 -96t15.5 -85t12 -57q6 -29 19.5 -78t27.5 -107.5 t29.5 -121t28 -116t20.5 -90t8 -47.5q0 -16 -13 -27t-30.5 -20.5t-35 -13.5t-23.5 -4t-20.5 3t-22.5 3q-6 0 -21.5 -3t-19.5 -3q-66 0 -94.5 25.5t-24.5 64.5q-8 35 -15.5 73t-21.5 66q-2 -4 -10 -5t-12 -1h-35q-31 0 -60.5 3t-62.5 -3q-29 -16 -41 -37.5t-18.5 -46 t-12.5 -50.5t-22 -46q-12 -16 -36 -23.5t-50.5 -10.5t-52.5 -3h-39q-10 0 -25.5 3t-30 11.5t-25 23t-10.5 34.5zM63 1233q0 8 7.5 27.5t7.5 25.5v60q0 2 11 13t24.5 23.5t25.5 21.5l13 9q8 0 11 2t9 0q51 2 80 2h42q13 0 16 -1t5 -1q27 0 42.5 -15.5t50.5 -41.5v-98 q0 -16 -3.5 -41t-11.5 -47.5t-22.5 -39t-38.5 -16.5q-55 0 -84 -5t-46.5 -7t-26.5 0t-23 16q-2 -2 -6.5 1t-8.5 -1h-16q-6 20 -16.5 33.5t-19.5 26t-15.5 24t-6.5 29.5zM451 461q2 0 5 -1t7 -1h22q6 0 17.5 -1t24 -3t21.5 -4t9 -5l10 2.5t13 -4.5q10 8 6 32t-14.5 51.5 t-22.5 56t-17 47.5q-4 16 -10 29.5t-10 31.5q2 12 -7 -17.5t-21.5 -71.5t-22.5 -83t-10 -49v-10zM641 1329q0 23 17.5 49.5t33.5 53.5q6 4 19 8q10 4 31.5 5t58.5 -3q14 2 31.5 -2t35.5 -8q8 -2 24.5 -3.5t32 -5.5t29 -11t15.5 -19q4 -25 8 -61t4 -56v-109 q-12 -25 -28.5 -29.5t-30.5 -7.5q-6 -4 -10.5 -6t-17.5 -5t-43 -8t-87 -11q-8 0 -18.5 6t-20.5 14l-10 4q-23 0 -37 31t-22.5 69t-11.5 69.5t-3 35.5z" />
<glyph unicode="&#xc5;" horiz-adv-x="1042" d="M61 76q0 6 4.5 12t4.5 12q0 4 5 16.5t11 26l10 22.5t0 7l137 453v-2q0 -2 1.5 -2t1.5 -3l77 220q8 16 16.5 52t43.5 95q-23 20 -39.5 49t-28.5 43q-12 16 -11 39t1 43l-6 119q8 25 14 45q4 16 8 30.5t2 14.5q2 0 5.5 7t8.5 16.5t8 17.5t5 8t10 3t16.5 8.5t15.5 8.5t9 3 l24 3q24 3 52.5 6t52 6t23.5 5q70 -4 82 -4t10 2q31 -4 59.5 -22.5t52 -44t37 -54t11.5 -51.5l-11 -178q-6 -41 -25.5 -67.5t-49.5 -45.5q25 -37 41 -92t28.5 -110.5t20.5 -102.5t14 -67q6 -29 19.5 -78t27.5 -107.5t29.5 -121t28 -116t20.5 -90t8 -47.5q0 -16 -13 -27 t-30.5 -20.5t-35 -13.5t-23.5 -4t-20.5 3t-22.5 3q-6 0 -21.5 -3t-19.5 -3q-55 0 -86 17.5t-31 60.5q0 6 -4 26.5t-10 45t-13.5 47t-11.5 32.5q-16 -2 -17 -4t-5 -2h-158q-29 -16 -41 -37.5t-18.5 -46t-12.5 -50.5t-22 -46q-12 -16 -36 -23.5t-50.5 -10.5t-52.5 -3h-39 q-10 0 -25.5 3t-30 11.5t-25 23t-10.5 34.5zM451 461q2 0 5 -1t7 -1h22q6 0 17.5 -1t24 -3t21.5 -4t9 -5q6 6 8 6.5t3 -0.5l3 -3q2 -2 7 2q6 8 -1.5 37.5t-20.5 66.5t-26.5 75t-17.5 62q-2 -12 -12.5 -44t-20.5 -68.5t-19 -68.5t-9 -40v-10zM483 1208q4 -23 6.5 -30t6.5 -17 h15h29q15 0 28.5 1t17.5 3q8 -4 11 15.5t3 44.5v46q0 22 2 23q-2 0 -6 -2t-6 2q0 2 -10.5 2t-24.5 -1t-26.5 -2t-16.5 -3q-23 -4 -23 -14z" />
<glyph unicode="&#xc6;" horiz-adv-x="1525" d="M-41 88q4 12 25.5 62.5t53.5 120t69.5 151.5t73.5 159.5t67 143.5t49 102q12 25 32.5 76t48.5 113.5t58.5 129t64.5 121t68.5 89.5t67.5 35q29 0 93.5 -2.5t131.5 -10.5v-6q0 -2 2 -4q55 0 142.5 1t169 2t141 2t61.5 1q4 0 17.5 -10t27 -23.5t23.5 -27t10 -19.5 q0 -4 -1 -19t-1 -33.5t-1 -35t-1 -18.5q-2 -10 -18.5 -23.5t-16.5 -15.5q-2 -12 -29.5 -18.5t-70.5 -9.5t-96 -3h-105h-95q-44 0 -71 -2q0 -39 -1 -67.5t-1 -34.5q-18 -27 -10 -44.5t8 -27.5q-4 -12 -4 -16v-17l-8 -80q4 -4 0 -25.5t-8 -27.5q0 -8 8 -11t16 -5t14.5 -1 t4.5 1l299 -4q16 -2 47 -3t47 -5q6 0 9 4t9 4t24.5 -16.5t33.5 -26.5q4 -14 5 -32.5t1 -36.5v-31q0 -13 4 -19q0 -8 1 -11t1 -10q-2 -6 -19.5 -26.5t-31.5 -36.5q-43 2 -99.5 3t-107.5 2t-89 2t-40 1l-43 2q-4 0 -15.5 1t-24.5 2t-24.5 0t-11.5 -3q-25 4 -24.5 -5t-1.5 -13 q2 -18 7 -45t5 -35l-15 -135q-2 -4 -2 -8q0 -2 -2 -3l45 -8l363 -6q16 -4 31 -4q14 0 21 4t18 -8q4 -6 24.5 -12t32.5 -31l-6 -45v-28q0 -15 1 -29.5t1 -23.5t0 -7l-2 -19q-23 -18 -43.5 -40.5t-44.5 -24.5q-80 -4 -188.5 -4t-209 1t-171 4t-74.5 3q-6 0 -17.5 6t-23 15.5 t-18.5 18.5t-7 15q0 10 1 21.5t1 21.5q-4 27 -4 55.5t-3 54t-11.5 49.5t-28.5 40q-4 0 -8 2t-23.5 3t-63.5 1t-128 -6q-6 0 -13.5 3t-9.5 7q-27 -41 -47 -91t-41 -95q-4 -4 -3 -4t-3 -11q-16 -59 -54 -81.5t-95 -22.5h-66q-8 0 -24.5 6t-32 16.5t-24.5 26.5t-3 39z M453.5 587q-13.5 -38 9.5 -38l16 1q16 1 37 3t39 4t25 2h59q10 0 18 8l2 8q0 14 -1 26.5t1 25.5q2 0 3 22v57q0 34 -1.5 71.5t-1.5 64.5v19q0 17 -2 40t-2 46v40q-23 -41 -33 -62.5t-15 -31.5t-6 -13t-3 -8q-16 -35 -47 -90t-57.5 -106t-40 -89z" />
<glyph unicode="&#xc7;" horiz-adv-x="972" d="M63 715l19 323q2 45 7 66.5t15.5 40t28 46.5t45.5 87q61 57 89 84t41.5 37t20.5 14t25 19q16 12 58.5 20t88.5 12t85 3t49 -5q4 4 7 2t5 -2q16 0 53 -27.5t77 -65.5t73 -78t41 -64l13 -39t9 -39l-8 -143q-8 -29 -27.5 -44.5t-37.5 -29.5h-15q-2 6 -20.5 8t-44 2t-51 -1 t-43.5 -1q-43 4 -61.5 27.5t-18.5 46.5q4 27 2 27.5t0 5.5q4 16 13 30.5t7 30.5q-2 14 -7 26.5t-18.5 19.5t-39 9t-68.5 -4q-23 -10 -33 -32.5t-14 -32.5l-22 -443q-4 -23 7 -28t23 -9q12 0 32.5 -1t41 -1t37 2t20.5 11q12 10 7 31.5t-5 33.5q0 8 -1 28.5t1 26.5q0 8 3 13.5 t9.5 9.5t15.5 12t19 25l19 12q29 -4 42 -7t19 -5q29 -4 48.5 -4t54.5 2h22q12 0 23.5 -18.5t20.5 -41t15.5 -45t6.5 -32.5l-15 -119q-14 -59 -75.5 -105.5t-126.5 -70.5q-29 -10 -64 -22.5t-43 -12.5q-16 -4 -33.5 2t-17.5 -2q-2 -8 -2 -17v-16q-6 2 7 0t33.5 -6t43 -9 t35.5 -12q12 -4 27.5 -15t27.5 -25.5t20.5 -30t6.5 -25.5l-17 -123q-4 -27 -18 -47t-30.5 -34.5t-34 -20.5t-25.5 -6q-2 0 -23.5 -1t-25.5 -1q-18 0 -50 4t-65 7t-56.5 5t-25.5 0q-6 8 -8 9t-2 8l1 19q1 19 1 42v43v25q4 0 10 2t10 2t27.5 -2t50.5 -4.5t48.5 -2.5t21.5 2 q0 8 2 9.5t2 5.5q4 18 5 22t-3 4q-25 -2 -55.5 -1t-55 3.5t-41 3.5t-14.5 -1q-2 10 -8 23t-6 24q0 35 2 75.5t12 75.5q-10 4 -16.5 3t-34.5 5q-23 8 -54.5 33t-59.5 54.5t-47 59.5t-19 50q-8 33 -27 71t-19 89z" />
<glyph unicode="&#xc8;" d="M84 53q4 55 4 103.5t2 52.5q4 14 5 18t-5 21q8 55 9 104t1 125q-6 57 -6 129t4 125q0 8 -1 31.5t-2 51.5t-1 53v36v64q2 8 11.5 21t21.5 25.5t25.5 20.5t25.5 8l47 -6q8 -2 55.5 -2t113 1t139 2t136 1t104.5 1t44 1q4 0 17.5 -10t26.5 -23.5t23.5 -26.5t10.5 -19 q0 -4 -1 -19.5t-1 -34t-1 -35t-1 -18.5q-2 -10 -18.5 -23.5t-16.5 -15.5q-2 -12 -29.5 -18t-70.5 -9.5t-97 -3.5h-104h-95q-44 0 -71 -2v-116q2 -6 2 -9.5t17 0.5l262 -4q10 0 36.5 -3t36.5 1q14 -4 27.5 -2t26 1t23.5 -8t24 -28l8 -16q2 -4 1 -5t-2 -1t1 -4q-6 -10 -4 -10 t2 -5q2 -2 1 -13t-3 -27.5t-2 -33t6 -28.5q-2 -6 -19.5 -26.5t-31.5 -36.5q-43 2 -93.5 3t-94.5 2t-75.5 2t-33.5 1l-43 2q-39 -6 -51.5 -12.5t-26.5 -6.5q-2 -10 -1 -16t1 -15v-27q0 -17 -2 -54q2 -2 0 -2t0 -4l-4 -5l45 -8l338 -6q29 -4 46 -1t23 -7l7 -6q6 4 23.5 -13.5 t27.5 -23.5l-6 -127q2 2 3 -1t-1 -5l-2 -19q-23 -18 -43.5 -40.5t-44.5 -24.5q-80 -4 -188.5 -4t-209 1t-171 4t-74.5 3q-6 0 -17.5 6t-23 15.5t-18.5 18.5t-7 15zM184 1353.5q6 26.5 11 55.5l8 47q4 4 6 7t4 5q4 4 16.5 7.5t22.5 9.5q8 6 14 9t21 9q59 -10 91 -15t46 -9 t17 -6.5t8 -4.5q8 -2 49 -8t90 -10l153 -27q0 2 4 2h17q6 0 11 -6t5 -8q0 -6 19.5 -4t29.5 0q35 -6 46.5 -16.5t9.5 -35t-11.5 -66.5t-11.5 -111q-10 -10 -22.5 -26.5t-20.5 -18.5q-12 2 -45 8t-67.5 12t-64.5 12t-36 9q-6 2 -18 4l-25 4q-12 2 -22 3l-11 1l-39 6 q-16 6 -20 4t-16 4q-4 0 -19.5 4t-35 9.5t-37 9.5t-25.5 6l-6 2q-33 8 -42 10t-20 6q-4 4 -14 -1t-21 9q-6 2 -23 16.5t-17 20.5q-15 35 -9 61.5z" />
<glyph unicode="&#xc9;" d="M84 53q4 55 4 103.5t2 52.5q4 14 2 18t-2 21q4 12 5 77.5t0 145.5t0 153.5t5 102.5q0 10 -5 41t1 63q0 12 -2 37t0 35v64q2 8 11.5 21t21.5 25.5t25.5 20.5t25.5 8l47 -6q8 -2 55.5 -2t113 1t139 2t136 1t104.5 1t44 1q4 0 17.5 -10t26.5 -23.5t23.5 -26.5t10.5 -19 q0 -4 -1 -19.5t-1 -34t-1 -35t-1 -18.5q-2 -10 -18.5 -23.5t-16.5 -15.5q-2 -12 -29.5 -18t-70.5 -9.5t-97 -3.5h-104h-95q-44 0 -71 -2v-116q14 -8 19 -9q98 -4 149 -6t75.5 -3t29.5 -1h8q2 -2 17 -1t35.5 2t38 3t21.5 2q6 0 29 -9t33 -30q8 -14 10 -24t0 -21.5t-4 -24 t0 -30.5q-4 -12 1 -19.5t1 -23.5q-4 -23 -20.5 -35t-30.5 -28q-43 2 -93.5 3t-94.5 2t-75.5 2t-33.5 1l-43 2q-39 -6 -51.5 -12.5t-26.5 -6.5q-2 -10 -1 -16t1 -15v-27q0 -17 -2 -54q-4 -8 13.5 -12.5t27.5 -6.5l338 -6q20 -6 28.5 -3t30.5 3q14 -10 32.5 -14t35.5 -37 l-4 -88q4 -6 -1 -19.5t1 -25.5l-2 -19q-23 -18 -43.5 -40.5t-44.5 -24.5q-80 -4 -188.5 -4t-209 1t-171 4t-74.5 3q-6 0 -17.5 6t-23 15.5t-18.5 18.5t-7 15zM190 1348q8 27 17.5 34t19.5 17l13 9q4 3 16 13l29 6l22 3l250 45l152 26q0 2 4 4q2 2 6 2t8 2q6 2 13.5 -1 t9.5 -5q0 -6 17 2t28 11q35 6 48 -0.5t20 -30t14.5 -66.5t29.5 -108q-6 -12 -13 -31.5t-13 -24.5q-8 -6 -23 -8l-29 -4q-14 -2 -25 -4t-16 -6q-37 -6 -58 -8t-33.5 -4t-18.5 -2h-12q-20 -4 -58.5 -14.5t-91.5 -10.5q-4 -2 -20.5 -4t-36 -4t-38 -4t-26.5 -2l-106 -11 q-6 0 -26.5 7.5t-24.5 13.5q-23 29 -26 56.5t-13 53.5z" />
<glyph unicode="&#xca;" d="M84 53q4 55 4 103.5t2 52.5q4 16 6 45t3 65.5t1 77.5v80q-6 57 -6 129t4 125q0 8 -1 31.5t-2 51.5t-1 53v36v64q2 8 11.5 21t21.5 25.5t25.5 20.5t25.5 8l47 -6q8 -2 55.5 -2t113 1t139 2t136 1t104.5 1t44 1q4 0 17.5 -10t26.5 -23.5t23.5 -26.5t10.5 -19q0 -4 -1 -19.5 t-1 -34t-1 -35t-1 -18.5q-2 -10 -18.5 -23.5t-16.5 -15.5q-2 -12 -29.5 -18t-70.5 -9.5t-97 -3.5h-104h-95q-44 0 -71 -2v-116q2 -6 2 -9.5t17 0.5l262 -4q10 0 36.5 -3t36.5 1q2 0 4.5 -1t6.5 1q10 -10 14 -4t14 6q6 0 29 -9t33 -30q4 -6 4 -23v-39v-44q0 -23 4 -37 q-2 -6 -19.5 -26.5t-31.5 -36.5q-43 2 -93.5 3t-94.5 2t-75.5 2t-33.5 1l-43 2q-39 -6 -51.5 -12.5t-26.5 -6.5q-2 -10 -1 -16t1 -15v-27q0 -17 -2 -54q2 -2 0 -2t0 -4q-2 -2 2 -4.5t39 -8.5l338 -6q35 4 39 2t20 -2q6 -2 6 -3t4 -5l7 -6q6 4 23.5 -13.5t27.5 -23.5l-6 -127 q2 2 3 -1t-1 -5l-2 -19q-23 -18 -43.5 -40.5t-44.5 -24.5q-80 -4 -188.5 -4t-209 1t-171 4t-74.5 3q-6 0 -17.5 6t-23 15.5t-18.5 18.5t-7 15zM189 1247.5q-1 12.5 1 18.5q0 6 23 22.5t49.5 35.5t49 34.5t22.5 17.5q4 0 22.5 8.5t40 18.5t38 18.5t16.5 10.5q2 -2 11 2t18 9 t17.5 9t10.5 2q2 2 12 1t22.5 -2t21.5 -1t7 0l273 -154q10 -20 22.5 -29t24.5 -28q-6 -12 -14.5 -30.5t-16.5 -22.5q-16 -4 -36.5 -5t-55.5 -5q-51 0 -84 -1t-71 -3.5t-93 -4.5t-151 -2h-7q-16 -4 -36.5 1.5t-61.5 0.5q-6 0 -26.5 10.5t-22.5 14.5l-12 8l-8 4q-2 0 -5 2 q4 10 3.5 12.5t-0.5 10.5q-3 4 -4 16.5z" />
<glyph unicode="&#xcb;" d="M63 1253q0 8 7.5 27.5t7.5 26.5v59q0 2 11 13.5t24.5 23.5t25.5 21l13 10q4 0 8 -1t19.5 -1t46 1t89.5 3q27 0 42.5 -15.5t50.5 -42.5v-98q0 -16 -3.5 -41t-11.5 -47.5t-22.5 -38.5t-38.5 -16q-59 0 -89 -2t-46.5 -3.5t-27.5 1t-32 8.5h-16q-6 20 -16.5 33.5t-19.5 25.5 t-15.5 23.5t-6.5 29.5zM84 53q4 55 4 103.5t2 52.5q4 16 6 45t3 65.5t1 77.5v80q-6 57 -6 129t4 125q0 8 -1 31.5t-2 51.5t-1 53v36v64q2 8 11.5 21t21.5 25.5t25.5 20.5t25.5 8l47 -6q8 -2 55.5 -2t113 1t139 2t136 1t104.5 1t44 1q4 0 17.5 -10t26.5 -23.5t23.5 -26.5 t10.5 -19q0 -4 -1 -19.5t-1 -34t-1 -35t-1 -18.5q-2 -10 -18.5 -23.5t-16.5 -15.5q-2 -12 -29.5 -18t-70.5 -9.5t-97 -3.5h-104h-95q-44 0 -71 -2v-116q2 -6 2 -9.5t17 0.5l262 -4q10 0 36.5 -3t36.5 1q2 0 4.5 -1t6.5 1q10 -10 14 -4t14 6q6 0 29 -9t33 -30q4 -6 4 -23v-39 v-44q0 -23 4 -37q-2 -6 -19.5 -26.5t-31.5 -36.5q-43 2 -93.5 3t-94.5 2t-75.5 2t-33.5 1l-43 2q-39 -6 -51.5 -12.5t-26.5 -6.5q-2 -10 -1 -16t1 -15v-27q0 -17 -2 -54q2 -2 0 -2t0 -4q-2 -2 2 -4.5t39 -8.5l338 -6q35 4 39 2t20 -2q6 -2 6 -3t4 -5l7 -6q6 4 23.5 -13.5 t27.5 -23.5l-6 -127q2 2 3 -1t-1 -5l-2 -19q-23 -18 -43.5 -40.5t-44.5 -24.5q-80 -4 -188.5 -4t-209 1t-171 4t-74.5 3q-6 0 -17.5 6t-23 15.5t-18.5 18.5t-7 15zM539 1350q0 23 17 49t34 53q4 2 30.5 4t60.5 2h65h49q0 -2 10 -6t23.5 -10t24.5 -13.5t13 -15.5 q4 -25 8.5 -60.5t4.5 -56.5v-108q-16 -10 -32 -28.5t-24 -18.5q-10 0 -22.5 -3t-32.5 -3l-106 -15q-18 0 -26.5 12.5t-23.5 12.5q-23 0 -37 30.5t-22 68.5t-11 70t-3 36z" />
<glyph unicode="&#xcc;" horiz-adv-x="753" d="M41 1353.5q6 26.5 10 55.5l8 47q4 4 6.5 7t4.5 5q4 4 16 7.5t23 9.5q8 6 14 9t20 9q59 -10 91 -15t46.5 -9t17.5 -6.5t7 -4.5q8 -2 49 -8t90 -10l154 -27q0 2 4 2h16q6 0 11.5 -6t5.5 -8q0 -6 19.5 -4t29.5 0q35 -6 46 -16.5t9 -35t-11 -66.5t-11 -111 q-10 -10 -22.5 -26.5t-20.5 -18.5q-12 2 -45 8t-68 12t-64.5 12t-35.5 9q-6 2 -19 4l-24 4q-12 2 -23 3l-10 1l-39 6q-16 6 -20 4t-17 4q-4 0 -19.5 4t-34.5 9.5t-36.5 9.5t-25.5 6l-7 2q-33 8 -42 10t-19 6q-4 4 -14.5 -1t-20.5 9q-6 2 -23.5 16.5t-17.5 20.5 q-14 35 -8 61.5zM209 74l12 227q8 35 11.5 165t15.5 368q0 27 -1 46t4 37.5t21.5 37t53.5 44.5q37 -2 56 -3t29.5 -1t12.5 1t4 3q25 -4 49.5 -20t44 -37.5t32.5 -44.5t17 -37l-24 -743q-4 -10 -12.5 -33t-18.5 -45.5t-22.5 -39.5t-22.5 -17q-6 0 -7 -3.5t-11 -3.5 q-6 0 -24.5 5.5t-27.5 5.5q-23 0 -55.5 2t-63 10t-52 26.5t-21.5 49.5z" />
<glyph unicode="&#xcd;" horiz-adv-x="753" d="M37 1348q4 8 5 9t3 5q16 14 25.5 30.5t31.5 28.5l23 4q14 8 27.5 6.5t21.5 4.5l121 20q4 -2 8 0q20 4 57 9t93 18q2 4 19 7t35.5 5t34 4t13.5 2q0 2 4 4q2 2 6 2t8 2q6 2 13.5 -1t9.5 -5q0 -6 17.5 2t27.5 11q35 6 48 -0.5t20.5 -30t14.5 -66.5t30 -108 q-6 -12 -13.5 -31.5t-13.5 -24.5q-16 -10 -45 -14t-47 2v-10q-37 -6 -58.5 -8t-34 -4t-18.5 -2h-12q-20 -4 -33.5 -7.5t-26 -6.5t-24.5 -5t-31 -2q0 2 -23.5 -1t-60.5 -8t-83 -11.5t-95 -8.5q-6 0 -26.5 7.5t-24.5 13.5q-18 25 -22.5 39t-5.5 28.5t-3 34t-16 56.5zM209 74 l12 227q8 35 11.5 165t15.5 368q0 27 -1 46t4 37.5t21.5 37t53.5 44.5q37 -2 56 -3t29.5 -1t12.5 1t4 3q25 -4 49.5 -20t44 -37.5t32.5 -44.5t17 -37l-24 -743q-4 -10 -12.5 -33t-18.5 -45.5t-22.5 -39.5t-22.5 -17q-6 0 -7 -3.5t-11 -3.5q-6 0 -24.5 5.5t-27.5 5.5 q-23 0 -55.5 2t-63 10t-52 26.5t-21.5 49.5z" />
<glyph unicode="&#xce;" horiz-adv-x="753" d="M46 1247.5q-1 12.5 1 18.5q0 6 22.5 22.5t49 35.5t49 34.5t22.5 17.5q4 0 22.5 8.5t40 18.5t38 18.5t16.5 10.5q2 -2 11.5 2t18.5 9t17 9t11 2q2 2 12 1t22.5 -2t21.5 -1t7 0l272 -154q10 -20 22.5 -29t25.5 -28q-6 -12 -14.5 -30.5t-16.5 -22.5q-16 -4 -37 -5t-55 -5 q-51 0 -84 -1t-71 -3.5t-93 -4.5t-152 -2h-6q-16 -4 -36.5 1.5t-61.5 0.5q-6 0 -26.5 10.5t-22.5 14.5l-13 8l-8 4q-2 0 -4 2q4 10 3 12.5t-1 10.5q-2 4 -3 16.5zM209 74l12 227q8 35 11.5 165t15.5 368q0 27 -1 46t4 37.5t21.5 37t53.5 44.5q37 -2 56 -3t29.5 -1t12.5 1 t4 3q25 -4 49.5 -20t44 -37.5t32.5 -44.5t17 -37l-24 -743q-4 -10 -12.5 -33t-18.5 -45.5t-22.5 -39.5t-22.5 -17q-6 0 -7 -3.5t-11 -3.5q-6 0 -24.5 5.5t-27.5 5.5q-23 0 -55.5 2t-63 10t-52 26.5t-21.5 49.5z" />
<glyph unicode="&#xcf;" horiz-adv-x="753" d="M-18 1233q0 8 7 27.5t7 25.5v60q0 2 11 13t24.5 23.5t25.5 21.5l13 9l145 -4q4 2 9 4t9 2q27 0 42.5 -15.5t50.5 -41.5v-98q0 -16 -3.5 -41t-11.5 -47.5t-22.5 -39t-38.5 -16.5q-59 0 -89 -2t-46.5 -3t-27.5 1t-32 8h-16q-6 20 -16.5 33.5t-19.5 26t-15 24t-6 29.5z M209 74l12 227q8 35 11.5 165t15.5 368q0 27 -1 46t4 37.5t21.5 37t53.5 44.5q37 -2 56 -3t29.5 -1t12.5 1t4 3q25 -4 49.5 -20t44 -37.5t32.5 -44.5t17 -37l-24 -743q-4 -10 -12.5 -33t-18.5 -45.5t-22.5 -39.5t-22.5 -17q-6 0 -7 -3.5t-11 -3.5q-6 0 -24.5 5.5t-27.5 5.5 q-23 0 -55.5 2t-63 10t-52 26.5t-21.5 49.5zM395 1329q0 23 17.5 49.5t33.5 53.5l46 4q18 2 35.5 3t27.5 3q16 2 46 -2t50 -2q0 -2 10.5 -6.5t23.5 -10.5t24.5 -13t13.5 -15q4 -25 8 -61t4 -56v-109q-16 -10 -31.5 -28.5t-23.5 -18.5q-10 -2 -33.5 -4t-49.5 -4t-48.5 -5 t-30.5 -7q-8 0 -18.5 6t-20.5 14q-4 4 -3 4t-7 0q-23 0 -37 31t-22.5 69t-11.5 69.5t-3 35.5z" />
<glyph unicode="&#xd0;" horiz-adv-x="1120" d="M4 766v27q0 23 2 36q10 10 33.5 14.5t52.5 4.5q0 72 -1 136.5t-3 119.5q0 6 -4 50t2 94t29.5 92t79.5 49q12 0 28.5 -1.5t26.5 -1.5l319 23q12 8 14.5 2t18.5 -2q90 -16 163 -62.5t126 -109.5t85 -137t38 -144l26 -510q-14 -53 -50 -118.5t-84 -127t-103 -107.5t-109 -56 q-12 -6 -28.5 -13.5t-33 -13.5t-28.5 -9t-14 -3q-4 -4 -11.5 -4t-29.5 -4q-20 -2 -61.5 -5t-87.5 -6.5t-89 -2.5t-69 8q-18 6 -42 21t-44.5 32.5t-36 32t-15.5 18.5q0 12 6.5 38t4.5 34q0 8 -3 8t-6 10q-2 20 -4 62.5t-3 97.5t-2 122.5t-1 139.5q-10 -2 -18 -3t-19 -1 q-8 0 -16 8t-15.5 19.5t-12.5 20.5t-5 11q-2 10 -2 29q6 18 1 41t-5 41zM387 1063l2 -209l96 8q2 0 12.5 -3t20.5 -8t18.5 -13.5t8.5 -18.5q-4 -59 -8.5 -98t-10.5 -60.5t-12 -30.5t-12 -9q-12 -2 -19.5 -2.5t-11.5 -2.5l-53 -12q-8 10 -12 8l22 -250q2 -16 31.5 -15t91.5 5 q18 2 36.5 -2t37.5 -10q4 2 6 0t12 2q6 0 12.5 2t10.5 4l-37 739q-10 2 -33 4.5t-47.5 4.5t-43.5 2h-22q-8 0 -16 -5.5t-18 -5.5q-6 -2 -12.5 2.5t-14.5 0.5l-33 -3z" />
<glyph unicode="&#xd1;" horiz-adv-x="1179" d="M61 946q0 27 25 48.5t59 21.5q10 0 36 -2t56.5 -4t61.5 -3t51 -1q14 -4 39 -20.5t50.5 -43.5t52 -64.5t47.5 -86.5q0 -10 48 -47t120 -113q6 -4 9 -7l7 -8q4 -4 11 -9t22 -13l-21 334q0 6 7.5 20.5t19.5 27.5t26.5 23.5t30.5 10.5t19 -4q12 4 36.5 11t51 10t50 0 t36.5 -17q20 -10 38.5 -40t28.5 -46l27 -889q-2 -6 -15.5 -17.5t-28.5 -23.5t-29.5 -20.5t-18.5 -8.5q-43 0 -78 -5t-72 5q-55 51 -107 104.5t-105.5 110t-110 117.5t-121.5 129q-10 6 -10 -10l16 -418q-10 -20 -74.5 -34.5t-214.5 -35.5q-6 0 -16 10.5t-21.5 23.5 t-19.5 25.5t-10 18.5zM161 1214.5q-1 2.5 1 14.5q-6 41 9 82t50 72.5t88 52t123 20.5q49 0 85 -5t61.5 -20.5t46 -45t43.5 -78.5l4 -95q14 0 23.5 -4t13.5 -5t5 8.5t1 37.5l-13 185q25 2 36.5 3t19.5 1t19 -1t36 -1h42q17 0 31.5 -1t31 -5.5t40.5 -12.5l9 -22l-6 -131 l-5 -15q-4 -14 -10 -30.5t-10 -32t-4 -19.5q0 -10 -24.5 -30.5t-58.5 -43t-71 -39t-61 -16.5q-43 0 -88 7.5t-83 30t-61.5 62.5t-23.5 105v25q0 4 -19.5 2t-23.5 -2q-2 -10 -2 -20v-19l3 -6q3 -6 7 -15.5t7 -17.5t3 -10v-35v-18q0 -7 -1 -18t-3 -38h-254q-16 14 -15 38t1 46 q2 31 1 41t-2 13t-2 5.5z" />
<glyph unicode="&#xd2;" horiz-adv-x="1103" d="M66 358l12 197v72q0 37 2 65.5t2 50.5q0 49 35 100.5t79 94.5t83.5 70.5t48.5 27.5q10 0 25.5 12.5t35 25.5t41 25.5t43.5 12.5q12 0 49 -5t70 -1h8q29 0 58.5 -14.5t58.5 -24.5l14 -8q68 -37 124 -91.5t99 -115.5t70 -124.5t31 -117.5l10 -43q0 -37 -13.5 -95 t-39 -122.5t-63.5 -129t-85 -117t-104.5 -85t-122.5 -32.5q-4 0 -18.5 1t-32 2t-32.5 2t-17 1q-33 -2 -101 22q-14 2 -44 9.5t-32 5.5q-29 18 -68.5 43.5t-76.5 56.5t-65.5 61.5t-36.5 57.5q-23 23 -33 55t-14 55zM225 1415.5q6 26.5 11 54.5l8 48q4 4 6 7t4 5q4 4 16.5 7 t22.5 9q8 6 14 9.5t21 9.5q59 -10 91 -15.5t46 -9.5t17 -6t7 -4q8 -2 49.5 -8t90.5 -11l153 -26q0 2 4 2h17q6 0 11 -6t5 -8q0 -6 19.5 -4.5t29.5 -0.5q35 -6 46.5 -16t9.5 -34.5t-11.5 -66.5t-11.5 -112q-10 -10 -22.5 -26.5t-20.5 -18.5q-12 2 -45 8t-67.5 12.5 t-64.5 12.5t-36 8t-18 4l-25 4q-12 2 -22 3l-11 1l-39 6q-16 6 -20 4t-16 5q-4 0 -19.5 4t-35 9t-37 9t-25.5 6l-6 2q-33 8 -42.5 10.5t-19.5 6.5q-4 4 -14 -1t-21 9q-6 2 -23.5 16.5t-17.5 20.5q-14 35 -8 61.5zM414 285q49 0 124.5 3t137.5 5v45q-2 70 -3 99.5t-2 40.5 t-1 18.5t-1 32t-3 81t-7 166.5q0 12 1.5 14.5t-1.5 12.5q-6 23 -7 22h-11q-25 0 -54.5 -1t-60 -4t-59.5 -9t-49 -14v-211q4 -33 7 -73t3 -56z" />
<glyph unicode="&#xd3;" horiz-adv-x="1103" d="M66 358l12 197v72q0 37 2 65.5t2 50.5q0 49 35 100.5t79 94.5t83.5 70.5t48.5 27.5q10 0 25.5 12.5t35 25.5t41 25.5t43.5 12.5q12 0 49 -5t70 -1h8q29 0 58.5 -14.5t58.5 -24.5l14 -8q68 -37 124 -91.5t99 -115.5t70 -124.5t31 -117.5l10 -43q0 -37 -13.5 -95 t-39 -122.5t-63.5 -129t-85 -117t-104.5 -85t-122.5 -32.5q-4 0 -18.5 1t-32 2t-32.5 2t-17 1q-33 -2 -101 22q-14 2 -44 9.5t-32 5.5q-29 18 -68.5 43.5t-76.5 56.5t-65.5 61.5t-36.5 57.5q-23 23 -33 55t-14 55zM190 1389q6 12 12.5 19t13.5 13t17.5 15.5t22.5 25.5 q10 2 14 1t15 5l22 2l303 54q18 6 44 10t52.5 7t50 7t38.5 8q35 6 48 0t20 -29.5t14.5 -66.5t29.5 -108q-6 -12 -13 -32t-13 -24q-18 -12 -73.5 -20t-114 -15.5t-102.5 -12.5t-40 -9q-16 4 -17.5 1t-17.5 -5q-4 -2 -20.5 -4t-36 -4t-38 -4t-26.5 -2h-6q-35 -4 -44 -5.5 t-19 -1.5t-17.5 -3t-19.5 -1q-6 0 -26.5 7.5t-24.5 13.5q-18 25 -22.5 39t-5.5 28.5t-3.5 34t-16.5 56.5zM414 285q49 0 124.5 3t137.5 5v45q-2 70 -3 99.5t-2 40.5t-1 18.5t-1 32t-3 81t-7 166.5q0 12 1.5 14.5t-1.5 12.5q-6 23 -7 22h-11q-25 0 -54.5 -1t-60 -4t-59.5 -9 t-49 -14v-211q4 -33 7 -73t3 -56z" />
<glyph unicode="&#xd4;" horiz-adv-x="1136" d="M66 358l12 197v72q0 37 2 65.5t2 50.5q0 49 35 100.5t79 94.5t83.5 70.5t48.5 27.5q10 0 25.5 12.5t35 25.5t41 25.5t43.5 12.5q12 0 49 -5t70 -1h8q29 0 58.5 -14.5t58.5 -24.5l14 -8q68 -37 124 -91.5t99 -115.5t70 -124.5t31 -117.5l10 -43q0 -37 -13.5 -95 t-39 -122.5t-63.5 -129t-85 -117t-104.5 -85t-122.5 -32.5q-4 0 -18.5 1t-32 2t-32.5 2t-17 1q-33 -2 -101 22q-14 2 -44 9.5t-32 5.5q-29 18 -68.5 43.5t-76.5 56.5t-65.5 61.5t-36.5 57.5q-23 23 -33 55t-14 55zM190 1307q0 6 23 22.5t49.5 35.5t49 34.5t22.5 17.5 q4 0 22.5 8.5t40 18.5t38 18t16.5 11q2 -2 11 2t18 9t17.5 9t10.5 2q2 2 12 1t22.5 -2t21.5 -1t7 0l273 -154q10 -20 22.5 -29.5t24.5 -27.5q-6 -12 -14.5 -30.5t-16.5 -22.5q-23 -6 -82 -8t-133 -3t-150.5 -2.5t-132.5 -7.5h-43q-10 0 -20 2q-8 0 -15.5 1t-19.5 -1 q-6 0 -26.5 10.5t-22.5 14.5q-12 12 -16 19.5t-5 14.5t-1.5 16.5t-2.5 21.5zM414 285q49 0 124.5 3t137.5 5v45q-2 70 -3 99.5t-2 40.5t-1 18.5t-1 32t-3 81t-7 166.5q0 12 1.5 14.5t-1.5 12.5q-6 23 -7 22h-11q-25 0 -54.5 -1t-60 -4t-59.5 -9t-49 -14v-211q4 -33 7 -73 t3 -56z" />
<glyph unicode="&#xd5;" horiz-adv-x="1103" d="M66 358l12 197v72q0 37 2 65.5t2 50.5q0 49 35 100.5t79 94.5t83.5 70.5t48.5 27.5q10 0 25.5 12.5t35 25.5t41 25.5t43.5 12.5q12 0 49 -5t70 -1h8q29 0 58.5 -14.5t58.5 -24.5l14 -8q68 -37 124 -91.5t99 -115.5t70 -124.5t31 -117.5l10 -43q0 -37 -13.5 -95 t-39 -122.5t-63.5 -129t-85 -117t-104.5 -85t-122.5 -32.5q-4 0 -18.5 1t-32 2t-32.5 2t-17 1q-33 -2 -101 22q-14 2 -44 9.5t-32 5.5q-29 18 -68.5 43.5t-76.5 56.5t-65.5 61.5t-36.5 57.5q-23 23 -33 55t-14 55zM121 1341q-6 41 9 82t50 73t88.5 52.5t122.5 20.5 q49 0 85 -5t61.5 -20.5t46 -45.5t43.5 -79l4 -94q14 0 23.5 -4t13.5 -5t5 8t1 38l-12 160q29 8 40 14t18 8t17.5 3t34.5 1q25 0 42 -1t32.5 -5t31 -10t40.5 -19l2 -137l-5 -14q-4 -14 -10 -30.5t-10 -32t-4 -19.5q0 -10 -24.5 -30.5t-58.5 -43t-71 -39t-61 -16.5 q-43 0 -88 7t-83 29.5t-61.5 62.5t-23.5 106v24q0 4 -19.5 2t-23.5 -2q-2 -10 -2 -19v-20l3 -6q3 -6 7 -15t7 -17.5t3 -10.5q0 -25 -1 -37t-4 -21t-6 -19.5t-5 -30.5h-240q-16 14 -16 38v46q2 31 2 43t-1 17t-2 6t-1 7zM414 285q49 0 124.5 3t137.5 5v45q-2 70 -3 99.5 t-2 40.5t-1 18.5t-1 32t-3 81t-7 166.5q0 12 1.5 14.5t-1.5 12.5q-6 23 -7 22h-11q-25 0 -54.5 -1t-60 -4t-59.5 -9t-49 -14v-211q4 -33 7 -73t3 -56z" />
<glyph unicode="&#xd6;" horiz-adv-x="1103" d="M43 1233q0 8 7 27.5t7 25.5v60q0 2 13.5 16t30 27.5t29.5 20.5t13 -5l119 10q8 0 14 -6q4 2 9.5 4t9.5 2q27 0 42 -15.5t50 -41.5v-98q0 -16 -3 -41t-11 -47.5t-22.5 -39t-39.5 -16.5q-59 0 -88.5 -2t-48 -3t-33 1t-41.5 8q-6 20 -16 33.5t-19.5 26t-15.5 24t-6 29.5z M66 358l12 197v72q0 37 2 65.5t2 50.5q0 49 35 100.5t79 94.5t83.5 70.5t48.5 27.5h17q7 0 3 8q31 18 45.5 32t23.5 22t20.5 11t35.5 3q12 0 59.5 -8t141.5 -19q8 0 19.5 -7t23.5 -11l14 -8q68 -37 124 -91.5t99 -115.5t70 -124.5t31 -117.5l10 -43q0 -37 -13.5 -95 t-39 -122.5t-63.5 -129t-85 -117t-104.5 -85t-122.5 -32.5q-4 0 -18.5 1t-32 2t-32.5 2t-17 1q-27 10 -50 10q-4 -6 -24.5 1t-26.5 11q-14 2 -44 9.5t-32 5.5q-29 18 -68.5 43.5t-76.5 56.5t-65.5 61.5t-36.5 57.5q-23 23 -33 55t-14 55zM414 285q20 6 43.5 3t42 -6t32 -5.5 t17.5 8.5q2 -10 17.5 -2t25.5 8q6 0 21.5 -1t32 1t28.5 7t12 15q0 8 -5 12.5t-5 12.5l-21 496q-4 -2 -4 -5.5t-10 -3.5q-25 0 -54.5 -1t-60 -4t-59.5 -9t-49 -14zM702 1329q0 23 17.5 49.5t34.5 53.5l45 4q18 2 35.5 3t27.5 3q12 6 25.5 5t27 -5t25.5 -7t18 3 q0 -2 10.5 -6.5t24 -10.5t24.5 -13t13 -15q4 -25 8 -61t4 -56v-109q-16 -10 -31.5 -28.5t-23.5 -18.5h-201l-10 4q-23 0 -37 31t-22 69t-11.5 69.5t-3.5 35.5z" />
<glyph unicode="&#xd7;" horiz-adv-x="1179" d="M129 942q0 2 11.5 17.5t25.5 32t25.5 30.5t13.5 16q4 16 16 39t23 41q6 6 28.5 6t50 -3t52 -8t35.5 -11l192 -203q16 16 32.5 28.5t27.5 22.5l12 25q4 4 15 11t16 22q-2 10 8 18q2 2 20.5 19.5t40 38t38.5 37.5l17 18q2 0 19.5 -14.5t38 -31t37 -30.5t18.5 -16 q4 -2 19 -17q10 0 31.5 -7t29.5 -15q6 -6 2 -24.5t-13.5 -40t-19.5 -42t-16 -31.5l-182 -174l180 -190q8 -6 13 -24.5t6 -40t-1 -41t-8 -29.5q-37 -33 -63 -64q-18 -18 -28.5 -20t-22 -1t-30 2t-55.5 -7l-211 208l-192 -182q-6 -10 -19.5 -19t-30 -15.5t-31.5 -8.5t-26 4 q-23 16 -38 31.5t-25 32.5q-18 18 -23.5 29.5t-6.5 26.5t-3 36.5t-10 58.5l215 215q-12 16 -21 27l-16 20l-53 41q-18 16 -31.5 23.5t-21.5 13.5q-2 2 -19.5 20.5t-38 40t-37 39t-16.5 19.5z" />
<glyph unicode="&#xd8;" horiz-adv-x="1103" d="M26 268.5q1 18.5 9 28.5l61 74q-6 23 -12 47t-6 47v235l-12 338q4 23 14 55.5t33 55.5q8 27 36.5 57.5t65.5 61t77 56.5t68 44q29 2 49.5 8t39 12.5t39 11.5t49.5 5q2 0 17 1t32.5 2t32 2t18.5 1q49 0 93 -18.5t85 -49.5l6 13q6 6 11.5 8t9.5 8q4 4 6 11.5t12 17.5 q12 14 44 19t44 1l4 -4q25 -14 33 -21t18.5 -14.5t30 -18.5t62.5 -32q10 -8 8 -25.5t-8 -37t-14.5 -34.5t-10.5 -22l-80 -104q35 -74 54.5 -143.5t19.5 -112.5l-10 -371q-4 -53 -31 -116.5t-70 -125t-99 -115.5t-124 -91q-14 -12 -29.5 -18.5t-37 -10.5t-51 -7t-72.5 -11 q2 2 -5.5 1t-19.5 -3t-24.5 -3t-18.5 -1q-25 4 -36 8t-20 11t-23.5 18.5t-45.5 29.5q-4 4 -31.5 18.5t-62.5 38.5q-37 -41 -55 -47q-14 8 -37 23.5t-27 19.5q-8 6 -14 13.5t-37 33.5q-4 10 -6 8.5t-12 6.5q-6 4 -12.5 9t-16.5 15q-2 2 -5 15.5t-5 31t-1 36zM414 1112l8 -293 l29 39q10 10 18 20.5t18 24.5q14 16 26.5 25.5t21.5 36.5q25 16 56.5 54t59.5 79q-20 6 -40.5 9t-38 4t-29 2t-11.5 3q-6 0 -22 -2t-34.5 -3t-36 -1t-25.5 2zM418 295q20 -8 49 -14.5t59.5 -9.5t60 -4t54.5 -1q10 0 10 -3t4 -5l4 31q2 10 1 12t-1 14l15 367l-166 -219 l-90 -137v-31z" />
<glyph unicode="&#xd9;" horiz-adv-x="1169" d="M125 100v90q0 8 1 64.5t3 124t3 131t3 86.5q-4 39 -1 90t6 97t7.5 79t4.5 37q0 2 9 11.5t23.5 21.5t30.5 26.5t29 26.5h112q18 -29 34 -43t26 -25.5t16 -22.5t6 -34q4 2 4 -35t-2 -95t-5 -126.5t-5 -128t-4 -99.5l-2 -40l65 -19q31 0 46.5 -1t29 -2t31.5 -2t55 -1 q6 0 9.5 3t5.5 3q12 4 13 2t9 15l39 563q0 4 10.5 20.5t23.5 34t25.5 31.5t18.5 14l16 2q16 2 41 3.5t51.5 1.5t42.5 -5q23 -12 42.5 -45.5t31.5 -54.5l-6 -733q-6 -33 -26.5 -62.5t-43 -53t-41.5 -38.5l-18 -14q-4 0 -30.5 -1t-65.5 -2t-83 -3t-83 -4t-64.5 -4t-27.5 -4 l-189 -13h-26q-29 -2 -37 0t-25 -6q-2 -4 -11 -1t-11 -1q-35 20 -60.5 61t-56.5 80zM225 1415.5q6 26.5 11 54.5l8 48q4 4 6 7t4 5q4 4 16.5 7t22.5 9q8 6 14 9.5t21 9.5q59 -10 91 -15.5t46 -9.5t17 -6t7 -4q8 -2 49.5 -8t90.5 -11l153 -26q0 2 4 2h17q6 0 11 -6t5 -8 q0 -6 19.5 -4.5t29.5 -0.5q35 -6 46.5 -16t9.5 -34.5t-11.5 -66.5t-11.5 -112q-10 -10 -22.5 -26.5t-20.5 -18.5q-12 2 -45 8t-67.5 12.5t-64.5 12.5t-36 8t-18 4l-25 4q-12 2 -22 3l-11 1l-39 6q-16 6 -20 4t-16 5q-4 0 -19.5 4t-35 9t-37 9t-25.5 6l-6 2q-33 8 -42.5 10.5 t-19.5 6.5q-4 4 -14 -1t-21 9q-6 2 -23.5 16.5t-17.5 20.5q-14 35 -8 61.5z" />
<glyph unicode="&#xda;" horiz-adv-x="1169" d="M125 100v90q0 8 1 64.5t3 124t3 131t3 86.5q-4 39 -1 90t6 97t7.5 79t4.5 37q0 2 9 11.5t23.5 21.5t30.5 26.5t29 26.5h112q18 -29 34 -43t26 -25.5t16 -22.5t6 -34q4 2 4 -35t-2 -95t-5 -126.5t-5 -128t-4 -99.5l-2 -40l65 -19q31 0 46.5 -1t29 -2t31.5 -2t55 -1 q6 0 9.5 3t5.5 3q12 4 13 2t9 15l39 563q0 4 10.5 20.5t23.5 34t25.5 31.5t18.5 14l16 2q16 2 41 3.5t51.5 1.5t42.5 -5q23 -12 42.5 -45.5t31.5 -54.5l-6 -733q-6 -33 -26.5 -62.5t-43 -53t-41.5 -38.5l-18 -14q-4 0 -30.5 -1t-65.5 -2t-83 -3t-83 -4t-64.5 -4t-27.5 -4 l-189 -13h-26q-29 -2 -37 0t-25 -6q-2 -4 -11 -1t-11 -1q-35 20 -60.5 61t-56.5 80zM219 1348q4 8 5 9t3 5q16 14 25.5 30.5t32.5 28.5l22 4q14 8 27.5 6.5t21.5 4.5l121 20q4 -2 8 0q20 4 57.5 9t92.5 18q2 4 19.5 7t36 5t33.5 4t13 2q0 2 4 4q2 2 6.5 2t8.5 2q6 2 13 -1 t9 -5q0 -6 17.5 2t27.5 11q35 6 48.5 -0.5t20.5 -30t14 -66.5t30 -108q-6 -12 -13.5 -31.5t-13.5 -24.5q-16 -10 -44.5 -14t-47.5 2v-10q-37 -6 -58.5 -8t-33.5 -4t-18 -2h-13q-20 -4 -33.5 -7.5t-25.5 -6.5t-24.5 -5t-30.5 -2q0 2 -24 -1t-60.5 -8t-82.5 -11.5t-96 -8.5 q-6 0 -26.5 7.5t-24.5 13.5q-18 25 -22 39t-5 28.5t-3.5 34t-16.5 56.5z" />
<glyph unicode="&#xdb;" horiz-adv-x="1169" d="M125 100v90q0 8 1 64.5t3 124t3 131t3 86.5q-4 39 -1 90t6 97t7.5 79t4.5 37q0 2 9 11.5t23.5 21.5t30.5 26.5t29 26.5h112q18 -29 34 -43t26 -25.5t16 -22.5t6 -34q4 2 4 -35t-2 -95t-5 -126.5t-5 -128t-4 -99.5l-2 -40l65 -19q31 0 46.5 -1t29 -2t31.5 -2t55 -1 q6 0 9.5 3t5.5 3q12 4 13 2t9 15l39 563q0 4 10.5 20.5t23.5 34t25.5 31.5t18.5 14l16 2q16 2 41 3.5t51.5 1.5t42.5 -5q23 -12 42.5 -45.5t31.5 -54.5l-6 -733q-6 -33 -26.5 -62.5t-43 -53t-41.5 -38.5l-18 -14q-4 0 -30.5 -1t-65.5 -2t-83 -3t-83 -4t-64.5 -4t-27.5 -4 l-189 -13h-26q-29 -2 -37 0t-25 -6q-2 -4 -11 -1t-11 -1q-35 20 -60.5 61t-56.5 80zM251 1226.5q-1 12.5 1 18.5q0 6 22.5 22.5t49 36t49 35t22.5 17.5q4 0 22.5 8t40 18.5t38 18.5t16.5 10q2 -2 11 2t18.5 9t17.5 9.5t10 2.5q2 2 12.5 1t22.5 -2t21.5 -1t7.5 0l272 -154 q10 -20 22.5 -29.5t24.5 -27.5q-6 -12 -14 -31t-16 -23q-16 -4 -34 -5t-59 -5q-51 0 -83.5 -1t-70.5 -3t-93.5 -4t-151.5 -2q-20 -2 -34 -2h-23q-10 0 -20.5 2t-26.5 2q-6 0 -26.5 10t-23.5 15l-12 8l-8 4q-2 0 -4 2q4 10 3 12t-1 10q-2 4 -3 16.5z" />
<glyph unicode="&#xdc;" horiz-adv-x="1169" d="M125 100l10 496q0 2 1 9t3 14.5t3 13.5t-1 4q8 14 8.5 43t-2 55.5t-3.5 43t3 3.5v14v24v27v19q0 8 2.5 16.5t2.5 16.5q0 2 9 11.5t23.5 21.5t30.5 26.5t29 26.5h112q18 -29 34 -43t26 -25.5t16 -22.5t6 -34q4 2 4 -35t-2 -95t-5 -126.5t-5 -128t-4 -99.5l-2 -40l242 -19 q14 -8 22 17l39 563q0 4 10.5 20.5t23.5 34t25.5 31.5t18.5 14h24h47q26 0 50 1t35 1q23 -12 40 -45.5t29 -54.5l-6 -733q-6 -33 -26.5 -62.5t-43 -53t-41.5 -38.5l-18 -14q23 0 -3 0t-75 -1t-111.5 -3t-112.5 -3t-77 -3t-6 -4q-10 -4 -20.5 -6.5t-16.5 -2.5l-231 -16 q-35 20 -60.5 61t-56.5 80zM125 1233q0 8 7 27.5t7 25.5v60q0 2 11.5 13t24.5 23.5t26 21.5l12 9q8 0 8 -2t4 -6h8l144 10q27 0 42 -15.5t50 -41.5v-98q0 -16 -3 -41t-11.5 -47.5t-22.5 -39t-39 -16.5q-59 0 -89 -2t-46 -3t-27.5 1t-31.5 8h-17q-6 20 -16 33.5t-19.5 26 t-15.5 24t-6 29.5zM702 1329q0 23 17.5 49.5t34.5 53.5l23 2q24 2 54.5 3t59.5 1t39 -6q2 4 17.5 4t32.5 -5.5t32.5 -15.5t17.5 -22q4 -25 8 -61t4 -56v-109q-16 -10 -31.5 -27.5t-23.5 -19.5v2q8 2 -10.5 1t-47 -4t-59 -8t-45.5 -11q-8 0 -18 6t-21 14q-4 4 -3 4t-7 0 q-23 0 -37 31t-22 69t-11.5 69.5t-3.5 35.5z" />
<glyph unicode="&#xdd;" d="M123 995q6 14 15 20.5t20 10.5q6 2 11 4t11 2q18 4 53 3t52 3q45 2 85 -29.5t70.5 -72.5t51 -78t26.5 -45q0 -12 17 -20q16 12 24 33.5t8 23.5q16 23 39 46.5t45 64.5q8 8 9.5 16t4.5 19.5t10 23.5t25 27l7 4q8 6 11 12t17 8q8 0 28.5 -1t47.5 -4t56.5 -5t56.5 -2 q10 0 28.5 -15.5t18.5 -23.5q0 -6 -22.5 -52t-54.5 -104.5t-63.5 -115t-48.5 -84.5q-16 -31 -41.5 -63t-49 -64.5t-42 -66.5t-20.5 -64l18 -359q-2 -4 -10 -15.5t-19.5 -22.5t-24.5 -20t-26 -9q-18 4 -59 -3.5t-100 3.5q-16 0 -24.5 5t-11.5 10t-5 10t-7 9q-12 10 -16 23 l4 227l8 127q-2 4 0 8t0 27q10 27 0 64.5t-10 72.5q0 6 -5 13.5t-5 15.5t-4 20q0 2 1 3t-3 8.5t-15.5 25t-35.5 51.5q-23 16 -35.5 33t-30.5 39q-20 23 -29.5 36t-13.5 30l-7 19q-7 19 -16.5 45t-16.5 51.5t-7 41.5zM154 1303q4 6 5 7t3 5q16 12 25.5 27.5t31.5 27.5l21 2 q14 8 27.5 6t21.5 4l121 19q4 -2 8 0q20 4 56 8t91 16q2 2 19.5 5.5t36 5.5t34 4t13.5 2q0 2 4 4q2 2 6 2t8 2q14 0 21 -6q0 -6 17 1t28 9q35 6 48 1t20 -26.5t14.5 -60.5t29.5 -98q-6 -12 -13 -29.5t-13 -21.5q-16 -8 -45 -12.5t-48 1.5v-10q-72 -10 -91 -11t-29 -1 q-41 -6 -54.5 -11.5t-21.5 -0.5l-39 -7q0 2 -21.5 -1t-48 -7t-51 -7t-33.5 -3h-6q-29 -14 -51.5 -7t-48.5 -1q-6 0 -25.5 6t-23.5 12q-6 14 -15 25q-4 4 -7 8t-5 8q-4 4 -4 6q4 8 4 22.5t-2 20.5q-2 4 -5 5t-5 6z" />
<glyph unicode="&#xde;" horiz-adv-x="983" d="M51 174l6 78v293q0 16 3 26.5t-1 20.5v88q4 25 6.5 38t3.5 27.5t1 36.5v65q0 42 1 110.5t3 177.5q0 12 1 30.5t1 37t1 34.5t1 23q0 10 10 32.5t24.5 45t32 39t29.5 12.5q4 4 17.5 10t17.5 4q4 0 8 -2t17.5 -3t39 -2t72.5 -1l43 -131l-10 -154h90q51 0 117 4q27 0 49 -10 t45 -27q6 0 17 -7l23 -14l22 -15q11 -7 20 -9q102 -66 145 -143.5t43 -167.5q0 -43 -41 -96.5t-92 -99.5t-100 -77.5t-64 -33.5q-16 -6 -37.5 -8.5t-55.5 -3.5t-81 -3t-114 -8v-41v-194q0 -10 -10.5 -24.5t-25 -30t-28.5 -28t-22 -20.5h-13q-35 -12 -72.5 -6t-66.5 10 q-10 0 -22.5 17.5t-23.5 38t-19.5 39t-10.5 22.5zM373 692q0 -29 13 -57.5t13 -38.5l39 2l9 3q3 1 16.5 3t47.5 4l101 6q8 -6 15 -2q0 8 3 16.5t7 30t8 62.5t10 119q0 4 -11 12t-15 10l-240 -4q-10 -10 -11 -19.5t-1 -19.5q-4 -76 -4 -97v-30z" />
<glyph unicode="&#xdf;" horiz-adv-x="2136" d="M80 973v110q0 31 36 76t82 86t88 71t52 30q4 0 23.5 5t40 12t37.5 12l18 5q174 -6 265 -6t132 1t51 3t25 0q33 -29 51 -49t26.5 -38.5t10.5 -40t2 -52.5t-1 -45t-9.5 -24.5t-26.5 -23.5t-53 -42l-492 16q-25 0 -36 -17.5t-14 -41t-2 -48t1 -38.5q0 -12 1 -41t5 -35 l342 -4q123 -53 203 -149.5t80 -217.5q0 -84 -52.5 -165.5t-125 -143t-149.5 -96.5t-126 -27q-4 0 -1 3t-9 -3l-356 -22q-12 0 -27.5 11t-30 26.5t-27 32t-20.5 26.5v141q35 35 48.5 54.5t22.5 28.5t20.5 11.5t41.5 2.5q4 0 25.5 -1t49.5 -2l55 -3q28 -1 40 -1q51 -4 85 6.5 t59 -4.5q47 0 69.5 -1t32.5 1.5t15.5 5.5t21.5 13v-10q0 8 1 19t2 30.5t2 52.5t1 82q-8 4 -24.5 11t-20.5 7q-10 0 -19.5 -1t-23.5 -1q-4 4 -8 3t-8 -3q-129 0 -223.5 38t-157 97.5t-92 130t-29.5 136.5zM1111 248.5q-1 21.5 1 52.5t3 45t9.5 23.5t27.5 21.5t56 41l492 -43 q25 0 36 16.5t16 40t5 48.5v38q0 12 1 41t-3 35l-340 23q-123 59 -196.5 158.5t-67.5 222.5q4 84 61.5 162.5t133 136t153.5 88.5t127 20q0 -4 7 -3t3 3l357 2q12 0 26.5 -12t27.5 -28.5t25.5 -33t20.5 -26.5l-8 -141q-37 -33 -51.5 -51.5t-23.5 -27.5t-20.5 -10t-41.5 -1 q-4 0 -27 2t-50.5 4t-54 5t-38.5 5q-18 4 -30.5 2t-31.5 -2q-4 0 -14 5l-14 7q-8 2 -25.5 -3t-28.5 -3q-78 10 -108.5 2t-30.5 -4q0 -8 -2 -19.5t-4 -32t-5 -52t-5 -80.5q8 -4 23.5 -12.5t19.5 -8.5q14 0 21 -3t38 1q129 -6 221 -49t151.5 -105.5t85 -134t23.5 -137.5 l-6 -110q-2 -31 -40 -74t-86 -82t-91 -65.5t-53 -26.5q-4 0 -23.5 -4t-41 -10.5t-40.5 -10.5l-18 -4l-465 25q2 2 -2 0t-4 2q-31 31 -48.5 52t-24.5 39.5t-8 40z" />
<glyph unicode="&#xe0;" horiz-adv-x="1042" d="M61 76q0 6 4.5 12t4.5 12q0 35 11 46.5t15 25.5l119 401q4 10 11 24.5t10 20.5l77 220q8 16 15.5 46.5t27.5 59.5l13 25q8 16 8 20q0 6 6 13.5t8 11.5q18 10 19.5 14t7.5 8q10 -2 14 -6t8 8q43 2 72 3t50.5 2t37.5 1h35q31 0 54.5 -26.5t42 -66.5t31.5 -90t22.5 -96 t15.5 -85t12 -57q6 -29 19.5 -78t27.5 -107.5t29.5 -121t28 -116t20.5 -90t8 -47.5q0 -16 -13 -27t-30.5 -20.5t-35 -13.5t-23.5 -4t-20.5 3t-22.5 3q-6 0 -21.5 -3t-19.5 -3q-66 0 -94.5 25.5t-24.5 64.5q-8 35 -15.5 73t-21.5 66q-2 -4 -10 -5t-12 -1h-158 q-29 -16 -41 -37.5t-18.5 -46t-12.5 -50.5t-22 -46q-12 -16 -36 -23.5t-50.5 -10.5t-52.5 -3h-39q-10 0 -25.5 3t-30 11.5t-25 23t-10.5 34.5zM186 1350q8 10 12.5 24.5t6.5 22.5q0 4 -4 5t0 7l8 47q4 4 6 7t4 5q2 -2 4 -2l4 -4q16 12 25.5 19.5t15.5 11.5t11.5 6t13.5 4 l22 -4q14 -2 24.5 -5t27.5 -3l98 -21q29 -10 59.5 -12t69.5 -8l49 -8q-4 2 13.5 -1t39 -7t39 -7.5t13.5 -3.5q0 2 4 2h16q6 0 11 -6t5 -8v-2q0 -2 2 -4q4 4 20.5 4t27.5 -2q35 -6 46 -16.5t9 -35t-11.5 -66.5t-11.5 -111q-10 -10 -22.5 -26.5t-20.5 -18.5q-16 0 -44.5 6 t-45.5 16q0 -4 -1 -5t-1 -5q-49 12 -78.5 17t-49 8.5t-35 6.5t-33.5 9l-39 6q-10 2 -17.5 2t-19.5 6q-4 0 -20.5 4t-42 11.5t-57.5 15.5t-65 16q-8 -2 -9 0t-3 5t-6 4t-16 -1q-6 2 -23.5 16.5t-17.5 20.5q-4 16 -6 29q-2 4 -2.5 10t-2.5 10q-2 7 -2 9zM451 461q2 0 5 -1 t7 -1h22q6 0 17.5 -1t24 -3t21.5 -4t9 -5q4 4 9 1t14 2q6 6 -2.5 36.5t-22.5 69.5t-27.5 77t-15.5 60q-2 -12 -12.5 -44t-20.5 -68.5t-19 -68.5t-9 -40v-10z" />
<glyph unicode="&#xe1;" horiz-adv-x="1042" d="M61 76q0 23 5.5 37t11.5 23t11 17.5t7 18.5l119 401q4 8 7 21.5t14 23.5l77 220q8 16 18.5 53t45.5 98q0 6 6 13.5t8 11.5l41 14q2 2 5 4t3 6q43 2 72 3t50.5 2t37.5 1h35q31 0 54.5 -26.5t42 -66.5t31.5 -90t22.5 -96t15.5 -85t12 -57q6 -29 19.5 -78t27.5 -107.5 t29.5 -121t28 -116t20.5 -90t8 -47.5q0 -16 -13 -27t-30.5 -20.5t-35 -13.5t-23.5 -4t-20.5 3t-22.5 3q-6 0 -21.5 -3t-19.5 -3q-55 0 -86 17.5t-31 60.5q0 10 -2 12q-8 35 -15.5 73t-21.5 66q-2 -4 -10 -5t-12 -1h-35q-2 0 -13.5 3t-39.5 -3q-25 6 -36.5 6t-16.5 -1t-8 -3 t-9 -2q-29 -16 -41 -37.5t-18.5 -46t-12.5 -50.5t-22 -46q-12 -16 -36 -23.5t-50.5 -10.5t-52.5 -3h-39q-10 0 -25.5 3t-30 11.5t-25 23t-10.5 34.5zM170 1307q4 8 5 9t3 5q8 14 24.5 28.5t33.5 30.5l22 4q2 -4 3 0.5t3 1.5l43 9l176 30q14 -4 25.5 0.5t28.5 8.5l53 8 q8 6 24.5 8t33 3t28.5 2t12 5q0 2 4 4q2 2 6 2t9 2q6 2 13 -1t9 -5v-2q0 -2 2 -4q4 4 19.5 11.5t23.5 7.5q35 6 48.5 -0.5t20.5 -30t14 -66.5t30 -108q-6 -12 -13.5 -31.5t-13.5 -24.5q-16 -10 -45 -14t-47 2v-10q-37 -6 -58.5 -8t-33.5 -4t-19 -2h-12q-23 -4 -40 -12.5 t-36 -0.5l-39 -8q-10 8 -15 -2t-19 -2q-4 -2 -20.5 -4t-36 -4t-38 -4t-26.5 -2h-6q-35 -4 -44.5 -5t-19.5 -1q-12 -4 -17 -3.5t-20 -1.5q-6 0 -26.5 7.5t-24.5 13.5q-6 16 -14 27l-17 24q4 10 4 25.5t-2 23.5q-2 4 -5 5t-5 6zM451 461q2 0 5 -1t7 -1h22q6 0 17.5 -1t24 -3 t21.5 -4t9 -5q6 2 11 1t8.5 -3t5.5 -2t2 9q0 6 -8.5 32.5t-17.5 57t-16 55.5t-7 27q0 4 -2.5 12t-20.5 57q-2 -12 -12.5 -44t-20.5 -68.5t-19 -68.5t-9 -40v-10z" />
<glyph unicode="&#xe2;" d="M61 76q0 6 4.5 12t4.5 12q0 2 2 12.5t7 21.5t13 21.5t19 12.5l-15 4l137 453l11 26q8 20 24.5 62.5t44.5 124.5q8 16 16.5 38.5t20.5 41.5q0 18 13.5 33.5t13.5 37.5q0 6 6 13.5t8 11.5l31 22q2 2 10 0t8 2q43 2 72 3t50.5 2t37.5 1h35q31 0 54.5 -26.5t42 -66.5 t31.5 -90t22.5 -96t15.5 -85t12 -57q6 -29 19.5 -78t27.5 -107.5t29.5 -121t28 -116t20.5 -90t8 -47.5q0 -16 -13 -27t-30.5 -20.5t-35 -13.5t-23.5 -4t-20.5 3t-22.5 3q-6 0 -21.5 -3t-19.5 -3q-55 0 -86 17.5t-31 60.5q0 10 -4 29.5t-10 40.5l-13 43q-6 22 -12 38 q-2 -4 -10 -5t-12 -1q-57 6 -83 6t-37 -1t-16.5 -3t-21.5 -2q-29 -16 -41 -37.5t-18.5 -46t-12.5 -50.5t-22 -46q-12 -16 -36 -23.5t-50.5 -10.5t-52.5 -3h-39q-10 0 -25.5 3t-30 11.5t-25 23t-10.5 34.5zM189 1247.5q-1 12.5 1 18.5q0 6 23 22.5t49.5 35.5t49 34.5 t22.5 17.5q4 0 22.5 8.5t40 18.5t38 18.5t16.5 10.5q2 -2 11 2t18 9t17.5 9t10.5 2q2 2 12 1t22.5 -2t21.5 -1t7 0l273 -154q10 -20 22.5 -29t24.5 -28q-6 -12 -14.5 -30.5t-16.5 -22.5q-16 -4 -46 -5t-46 5q0 -4 -1 -5t1 -5q-74 -2 -95.5 -2t-29.5 2q-10 -6 -23.5 -5t-42 3 t-77.5 2t-131 -11h-7h-43q-10 0 -20 2q-12 -6 -15 0.5t-20 -0.5q-6 0 -26.5 10.5t-22.5 14.5l-12 8l-8 4q-2 0 -5 2q4 10 3.5 12.5t-0.5 10.5q-3 4 -4 16.5zM451 461q2 0 5 -1t7 -1h22q6 0 17.5 -1t24 -3t21.5 -4t9 -5q4 4 7 2t14 -2q4 8 -5.5 39t-21.5 70t-24.5 77 t-14.5 60q-2 -12 -12.5 -44t-20.5 -68.5t-19 -68.5t-9 -40v-10z" />
<glyph unicode="&#xe3;" horiz-adv-x="1042" d="M61 76q0 29 13.5 52.5t21.5 43.5l217 666q0 8 10.5 32.5t22.5 50t21.5 46t9.5 22.5q0 6 6 13.5t8 11.5l33 18q2 2 9 2t7 4q43 2 72 3t50.5 2t37.5 1h35q31 0 54.5 -26.5t42 -66.5t31.5 -90t22.5 -96t15.5 -85t12 -57q6 -29 19.5 -78t27.5 -107.5t29.5 -121t28 -116 t20.5 -90t8 -47.5q0 -16 -13 -27t-30.5 -20.5t-35 -13.5t-23.5 -4t-20.5 3t-22.5 3q-6 0 -21.5 -3t-19.5 -3q-55 0 -86 17.5t-31 60.5q0 20 -13.5 69.5t-25.5 81.5q-2 -4 -10 -5t-12 -1h-158q-29 -16 -41 -37.5t-18.5 -46t-12.5 -50.5t-22 -46q-12 -16 -36 -23.5 t-50.5 -10.5t-52.5 -3h-39q-10 0 -25.5 3t-30 11.5t-25 23t-10.5 34.5zM121 1228.5q-4 20.5 0 31.5q-6 41 9 81.5t50 72.5t88.5 52.5t122.5 20.5q49 0 85 -5t61.5 -20.5t46 -45.5t43.5 -79l4 -94q14 0 23.5 -4t13.5 -5t5 8t1 38l-12 113q25 29 35 44t18 21t20.5 7t36.5 1 q25 0 42 -1t32.5 -8t32 -22.5t41.5 -41.5v-99l-5 -14q-4 -14 -10 -30.5t-10 -32t-4 -19.5q0 -10 -24.5 -30.5t-58.5 -43t-71 -39t-61 -16.5q-43 0 -88 7t-83 29.5t-61.5 62.5t-23.5 106v24q0 4 -19.5 2t-23.5 -2q-2 -10 -2 -19v-19l3 -7q3 -6 7 -15t7 -17.5t3 -10.5 q0 -25 -2 -34t-9 -17t-23.5 -19.5t-43.5 -37.5h-116q-8 6 -21.5 16t-26 21.5t-21.5 24t-9 22.5q2 22 -2 42.5zM451 461q2 0 5 -1t7 -1h22q6 0 18 -2l22 -4q11 -2 20.5 -4.5t11.5 -2.5q10 2 11 3h12q0 12 -9.5 42.5t-21.5 66.5t-22.5 73t-14.5 61q-2 -12 -12.5 -44 t-20.5 -68.5t-19 -68.5t-9 -40v-10z" />
<glyph unicode="&#xe4;" horiz-adv-x="1042" d="M61 76q0 29 13.5 52.5t21.5 43.5l217 666q0 8 10.5 32.5t22.5 50t21.5 46t9.5 22.5q0 6 6 13.5t8 11.5l33 18q2 2 9 2t7 4q43 2 72 3t50.5 2t37.5 1h35q31 0 54.5 -26.5t42 -66.5t31.5 -90t22.5 -96t15.5 -85t12 -57q6 -29 19.5 -78t27.5 -107.5t29.5 -121t28 -116 t20.5 -90t8 -47.5q0 -16 -13 -27t-30.5 -20.5t-35 -13.5t-23.5 -4t-20.5 3t-22.5 3q-6 0 -21.5 -3t-19.5 -3q-55 0 -86 17.5t-31 60.5q0 20 -13.5 69.5t-25.5 81.5q-2 -4 -10 -5t-12 -1h-158q-29 -16 -41 -37.5t-18.5 -46t-12.5 -50.5t-22 -46q-12 -16 -36 -23.5 t-50.5 -10.5t-52.5 -3h-39q-10 0 -25.5 3t-30 11.5t-25 23t-10.5 34.5zM63 1233q0 8 7.5 27.5t7.5 25.5v60q0 2 11 13t24.5 23.5t25.5 21.5l13 9q8 0 8 -2t4 -6l26 2q29 8 56.5 10t68.5 -2q27 0 42.5 -15.5t50.5 -41.5v-98q0 -16 -3.5 -41t-11.5 -47.5t-22.5 -39 t-38.5 -16.5q-55 0 -85 -3t-46.5 -4t-26.5 3t-24 18q-2 -2 -5.5 -4t-7.5 -6h-16q-6 20 -16.5 33.5t-19.5 26t-15.5 24t-6.5 29.5zM451 461q2 0 5 -1t7 -1h22q6 0 18 -2l22 -4q11 -2 20.5 -4.5t11.5 -2.5q10 2 11 3h12q0 12 -9.5 42.5t-21.5 66.5t-22.5 73t-14.5 61 q-2 -12 -12.5 -44t-20.5 -68.5t-19 -68.5t-9 -40v-10zM641 1329q0 23 17.5 49.5t33.5 53.5l45 4q18 2 36 3t28 3q16 0 35.5 -2t60.5 -2q0 -2 10.5 -6.5t23.5 -10.5t24.5 -13t13.5 -15q4 -25 8 -61t4 -56v-109q-16 -10 -32.5 -31.5t-22.5 -15.5q-2 2 -7.5 3t-7.5 -9l-106 -10 v5q0 1 -8 1q-6 0 -15.5 -5t-17.5 -5q-18 0 -26.5 12t-22.5 12q-23 0 -37 31t-22.5 69t-11.5 69.5t-3 35.5z" />
<glyph unicode="&#xe5;" horiz-adv-x="1042" d="M61 76q0 29 13.5 52.5t21.5 43.5l217 666q0 8 10.5 32.5t22.5 50t21.5 46t9.5 22.5v6q-27 18 -42.5 49t-29.5 48q-12 16 -11 38.5t1 43.5l-6 118q8 25 14 45q4 16 8 30.5t2 14.5q2 0 5.5 7.5t8.5 16.5t8 17.5t5 8.5t10 3t16.5 8t15.5 8t9 3l24 3q24 3 52.5 6t52 6.5 t23.5 5.5h88q6 -4 4 -2q31 -4 59.5 -22.5t52 -44.5t37 -54.5t11.5 -51.5l-11 -178q-6 -43 -27.5 -70.5t-56.5 -45.5q27 -35 45.5 -91.5t30.5 -114t21.5 -107.5t15.5 -70q6 -29 19.5 -78t27.5 -107.5t29.5 -121t28 -116t20.5 -90t8 -47.5q0 -16 -13 -27t-30.5 -20.5 t-35 -13.5t-23.5 -4t-20.5 3t-22.5 3q-6 0 -21.5 -3t-19.5 -3q-55 0 -86 17.5t-31 60.5q0 20 -13.5 69.5t-25.5 81.5q-2 -4 -10 -5t-12 -1h-158q-29 -16 -41 -37.5t-18.5 -46t-12.5 -50.5t-22 -46q-12 -16 -36 -23.5t-50.5 -10.5t-52.5 -3h-39q-10 0 -25.5 3t-30 11.5 t-25 23t-10.5 34.5zM451 461q2 0 5 -1t7 -1h22q6 0 18 -2l22 -4q11 -2 20.5 -4.5t11.5 -2.5q10 2 11 3h12q0 12 -9.5 42.5t-21.5 66.5t-22.5 73t-14.5 61q-2 -12 -12.5 -44t-20.5 -68.5t-19 -68.5t-9 -40v-10zM483 1223q4 -23 6.5 -30t6.5 -17q-2 0 21.5 0t35.5 2q0 -2 2 -2 h4h4q2 0 4 2q2 -4 5 -2t10 0q2 0 8 1t6 3v18q0 18 2 42t3 44.5t1 24.5q-2 0 -16.5 -2t-73.5 -2q-23 -4 -23 -15z" />
<glyph unicode="&#xe6;" horiz-adv-x="1525" d="M-41 88q4 12 25.5 62.5t53.5 120t69.5 151.5t73.5 159.5t67 143.5t49 102q12 25 32.5 76t48.5 113.5t58.5 129t64.5 121t68.5 89.5t67.5 35q29 0 93.5 -2.5t131.5 -10.5v-6q0 -2 2 -4q55 0 142.5 1t169 2t141 2t61.5 1q4 0 17.5 -10t27 -23.5t23.5 -27t10 -19.5 q0 -4 -1 -19t-1 -33.5t-1 -35t-1 -18.5q-2 -10 -18.5 -23.5t-16.5 -15.5q-2 -12 -29.5 -18.5t-70.5 -9.5t-96 -3h-105h-95q-44 0 -71 -2q0 -39 -1 -67.5t-1 -34.5q-18 -27 -10 -44.5t8 -27.5q-4 -12 -4 -16v-17l-8 -80q4 -4 0 -25.5t-8 -27.5q0 -8 8 -11t16 -5t14.5 -1 t4.5 1l299 -4q16 -2 47 -3t47 -5q6 0 9 4t9 4t24.5 -16.5t33.5 -26.5q4 -14 5 -32.5t1 -36.5v-31q0 -13 4 -19q0 -8 1 -11t1 -10q-2 -6 -19.5 -26.5t-31.5 -36.5q-43 2 -99.5 3t-107.5 2t-89 2t-40 1l-43 2q-4 0 -15.5 1t-24.5 2t-24.5 0t-11.5 -3q-25 4 -24.5 -5t-1.5 -13 q2 -18 7 -45t5 -35l-15 -135q-2 -4 -2 -8q0 -2 -2 -3l45 -8l363 -6q16 -4 31 -4q14 0 21 4t18 -8q4 -6 24.5 -12t32.5 -31l-6 -45v-28q0 -15 1 -29.5t1 -23.5t0 -7l-2 -19q-23 -18 -43.5 -40.5t-44.5 -24.5q-80 -4 -188.5 -4t-209 1t-171 4t-74.5 3q-6 0 -17.5 6t-23 15.5 t-18.5 18.5t-7 15q0 10 1 21.5t1 21.5q-4 27 -4 55.5t-3 54t-11.5 49.5t-28.5 40q-4 0 -8 2t-23.5 3t-63.5 1t-128 -6q-6 0 -13.5 3t-9.5 7q-27 -41 -47 -91t-41 -95q-4 -4 -3 -4t-3 -11q-16 -59 -54 -81.5t-95 -22.5h-66q-8 0 -24.5 6t-32 16.5t-24.5 26.5t-3 39z M453.5 587q-13.5 -38 9.5 -38l16 1q16 1 37 3t39 4t25 2h59q10 0 18 8l2 8q0 14 -1 26.5t1 25.5q2 0 3 22v57q0 34 -1.5 71.5t-1.5 64.5v19q0 17 -2 40t-2 46v40q-23 -41 -33 -62.5t-15 -31.5t-6 -13t-3 -8q-16 -35 -47 -90t-57.5 -106t-40 -89z" />
<glyph unicode="&#xe7;" horiz-adv-x="972" d="M49 993q-2 45 0 67.5t10.5 42t22.5 49.5t39 91l119 135q4 6 6 6t6 5q12 6 19.5 12t27.5 10q33 23 56.5 33t42 14t32.5 5t29 7q23 8 58.5 7.5t49.5 -0.5q16 0 56.5 -23.5t83.5 -57.5t79.5 -70t47.5 -58q10 -18 18 -38t12 -38l8 -145q-4 -29 -22.5 -46.5t-34.5 -31.5 q-31 -6 -60.5 -9.5t-54 -4.5t-41 0t-18.5 1q-43 0 -63.5 21.5t-24.5 44.5q2 27 -1 28t-1 5q2 6 4 19t4 30l-33 41q-12 2 -37.5 2t-46.5 -2l-55 -60l25 -442q-4 -23 8 -27t26 -6l5 4l118 19v65q0 8 -3 29t-1 27q-4 18 9.5 24t29.5 39q4 4 6 8t13 9q29 4 59.5 4t56 -1t45 -2 t25.5 3q12 0 25.5 -16.5t25.5 -38t20.5 -43t8.5 -31.5l-2 -121q-10 -29 -20.5 -51.5t-27 -44t-42 -42t-64.5 -42.5q-10 -6 -16 -6.5t-15 -8.5q-27 -12 -60.5 -29.5t-41.5 -17.5q-14 -4 -32.5 0t-18.5 -4v-16v-13q0 -4 2 -4h9q9 0 19.5 -2t20.5 -2h10q27 0 40.5 -1t20.5 -3 t15 -6t25 -8q2 -4 10 -15.5t18.5 -23.5t17.5 -23.5t7 -17.5l-4 -123q0 -27 -12.5 -49.5t-27.5 -37.5t-31.5 -24.5t-24.5 -9.5q-2 0 -24 -3t-26 -3q-18 -2 -51 -2h-65q-33 0 -57 -1l-23 -1q-6 8 -8 8t-2 6q0 2 -1 20.5t-3.5 42t-5.5 43t-3 23.5q4 2 9.5 7.5t9.5 5.5 q4 2 24.5 1t45 -2.5t47 -1.5t30.5 7q0 8 2 9t2 5q4 18 0 23q-2 2 -4 2q-27 0 -55.5 -3.5t-53 -5.5t-40 -4t-13.5 2q-4 10 -11 21.5t-9 21.5q2 -4 1 15.5t-3 46t-3 53.5t3 37q-2 20 -4 19t-17 -5q-12 -2 -13 -4t-17 -6q-25 6 -59 26.5t-64.5 47t-53 54.5t-22.5 48 q-8 18 -18.5 35.5t-20.5 33t-16 30t-4 26.5q4 6 -0.5 12t-1.5 17z" />
<glyph unicode="&#xe8;" d="M84 53q4 55 4 103.5t2 52.5q4 14 5 18t-5 21q8 55 9 104t1 125q-6 57 -6 129t4 125q0 8 -1 31.5t-2 51.5t-1 53v36v64q2 8 11.5 21t21.5 25.5t25.5 20.5t25.5 8l47 -6q8 -2 55.5 -2t113 1t139 2t136 1t104.5 1t44 1q4 0 17.5 -10t26.5 -23.5t23.5 -26.5t10.5 -19 q0 -4 -1 -19.5t-1 -34t-1 -35t-1 -18.5q-2 -10 -18.5 -23.5t-16.5 -15.5q-2 -12 -29.5 -18t-70.5 -9.5t-97 -3.5h-104h-95q-44 0 -71 -2v-116q2 -6 2 -9.5t17 0.5l262 -4q10 0 36.5 -3t36.5 1q14 -4 27.5 -2t26 1t23.5 -8t24 -28l8 -16q2 -4 1 -5t-2 -1t1 -4q-6 -10 -4 -10 t2 -5q2 -2 1 -13t-3 -27.5t-2 -33t6 -28.5q-2 -6 -19.5 -26.5t-31.5 -36.5q-43 2 -93.5 3t-94.5 2t-75.5 2t-33.5 1l-43 2q-39 -6 -51.5 -12.5t-26.5 -6.5q-2 -10 -1 -16t1 -15v-27q0 -17 -2 -54q2 -2 0 -2t0 -4l-4 -5l45 -8l338 -6q29 -4 46 -1t23 -7l7 -6q6 4 23.5 -13.5 t27.5 -23.5l-6 -127q2 2 3 -1t-1 -5l-2 -19q-23 -18 -43.5 -40.5t-44.5 -24.5q-80 -4 -188.5 -4t-209 1t-171 4t-74.5 3q-6 0 -17.5 6t-23 15.5t-18.5 18.5t-7 15zM184 1353.5q6 26.5 11 55.5l8 47q4 4 6 7t4 5q4 4 16.5 7.5t22.5 9.5q8 6 14 9t21 9q59 -10 91 -15t46 -9 t17 -6.5t8 -4.5q8 -2 49 -8t90 -10l153 -27q0 2 4 2h17q6 0 11 -6t5 -8q0 -6 19.5 -4t29.5 0q35 -6 46.5 -16.5t9.5 -35t-11.5 -66.5t-11.5 -111q-10 -10 -22.5 -26.5t-20.5 -18.5q-12 2 -45 8t-67.5 12t-64.5 12t-36 9q-6 2 -18 4l-25 4q-12 2 -22 3l-11 1l-39 6 q-16 6 -20 4t-16 4q-4 0 -19.5 4t-35 9.5t-37 9.5t-25.5 6l-6 2q-33 8 -42 10t-20 6q-4 4 -14 -1t-21 9q-6 2 -23 16.5t-17 20.5q-15 35 -9 61.5z" />
<glyph unicode="&#xe9;" d="M84 53q4 55 4 103.5t2 52.5q4 14 5 18t-5 21q8 55 9 104t1 125q-6 57 -6 129t4 125q0 8 -1 31.5t-2 51.5t-1 53v36v64q2 8 11.5 21t21.5 25.5t25.5 20.5t25.5 8l47 -6q8 -2 55.5 -2t113 1t139 2t136 1t104.5 1t44 1q4 0 17.5 -10t26.5 -23.5t23.5 -26.5t10.5 -19 q0 -4 -1 -19.5t-1 -34t-1 -35t-1 -18.5q-2 -10 -18.5 -23.5t-16.5 -15.5q-2 -12 -29.5 -18t-70.5 -9.5t-97 -3.5h-104h-95q-44 0 -71 -2v-116q2 -6 2 -9.5t17 0.5l262 -4q10 0 36.5 -3t36.5 1q14 -4 27.5 -2t26 1t23.5 -8t24 -28l8 -16q2 -4 1 -5t-2 -1t1 -4q-6 -10 -4 -10 t2 -5q2 -2 1 -13t-3 -27.5t-2 -33t6 -28.5q-2 -6 -19.5 -26.5t-31.5 -36.5q-43 2 -93.5 3t-94.5 2t-75.5 2t-33.5 1l-43 2q-39 -6 -51.5 -12.5t-26.5 -6.5q-2 -10 -1 -16t1 -15v-27q0 -17 -2 -54q2 -2 0 -2t0 -4l-4 -5l45 -8l338 -6q29 -4 46 -1t23 -7l7 -6q6 4 23.5 -13.5 t27.5 -23.5l-6 -127q2 2 3 -1t-1 -5l-2 -19q-23 -18 -43.5 -40.5t-44.5 -24.5q-80 -4 -188.5 -4t-209 1t-171 4t-74.5 3q-6 0 -17.5 6t-23 15.5t-18.5 18.5t-7 15zM209 1348q4 8 5 9t3 5q16 14 25.5 30.5t31.5 28.5l23 4q14 8 27.5 6.5t21.5 4.5l121 20q4 -2 8 0q20 4 57 9 t93 18q2 4 19.5 7t35.5 5t33.5 4t13.5 2q0 2 4 4q2 2 6 2t8 2q6 2 13.5 -1t9.5 -5q0 -6 17.5 2t27.5 11q35 6 48 -0.5t20.5 -30t14.5 -66.5t30 -108q-6 -12 -13.5 -31.5t-13.5 -24.5q-16 -10 -45 -14t-47 2v-10q-37 -6 -58.5 -8t-34 -4t-18.5 -2h-12q-20 -4 -33.5 -7.5 t-26 -6.5t-24.5 -5t-31 -2q0 2 -23.5 -1t-60 -8t-83 -11.5t-95.5 -8.5q-6 0 -26.5 7.5t-24.5 13.5q-18 25 -22.5 39t-5.5 28.5t-3 34t-16 56.5z" />
<glyph unicode="&#xea;" d="M84 53q4 55 4 103.5t2 52.5q4 16 6 45t3 65.5t1 77.5v80q-6 57 -6 129t4 125q0 8 -1 31.5t-2 51.5t-1 53v36v64q2 8 11.5 21t21.5 25.5t25.5 20.5t25.5 8l47 -6q8 -2 55.5 -2t113 1t139 2t136 1t104.5 1t44 1q4 0 17.5 -10t26.5 -23.5t23.5 -26.5t10.5 -19q0 -4 -1 -19.5 t-1 -34t-1 -35t-1 -18.5q-2 -10 -18.5 -23.5t-16.5 -15.5q-2 -12 -29.5 -18t-70.5 -9.5t-97 -3.5h-104h-95q-44 0 -71 -2v-116q2 -6 2 -9.5t17 0.5l262 -4q10 0 36.5 -3t36.5 1q2 0 4.5 -1t6.5 1q10 -10 14 -4t14 6q6 0 29 -9t33 -30q4 -6 4 -23v-39v-44q0 -23 4 -37 q-2 -6 -19.5 -26.5t-31.5 -36.5q-43 2 -93.5 3t-94.5 2t-75.5 2t-33.5 1l-43 2q-39 -6 -51.5 -12.5t-26.5 -6.5q-2 -10 -1 -16t1 -15v-27q0 -17 -2 -54q2 -2 0 -2t0 -4q-2 -2 2 -4.5t39 -8.5l338 -6q35 4 39 2t20 -2q6 -2 6 -3t4 -5l7 -6q6 4 23.5 -13.5t27.5 -23.5l-6 -127 q2 2 3 -1t-1 -5l-2 -19q-23 -18 -43.5 -40.5t-44.5 -24.5q-80 -4 -188.5 -4t-209 1t-171 4t-74.5 3q-6 0 -17.5 6t-23 15.5t-18.5 18.5t-7 15zM189 1247.5q-1 12.5 1 18.5q0 6 23 22.5t49.5 35.5t49 34.5t22.5 17.5q4 0 22.5 8.5t40 18.5t38 18.5t16.5 10.5q2 -2 11 2t18 9 t17.5 9t10.5 2q2 2 12 1t22.5 -2t21.5 -1t7 0l273 -154q10 -20 22.5 -29t24.5 -28q-6 -12 -14.5 -30.5t-16.5 -22.5q-16 -4 -36.5 -5t-55.5 -5q-51 0 -84 -1t-71 -3.5t-93 -4.5t-151 -2h-7q-16 -4 -36.5 1.5t-61.5 0.5q-6 0 -26.5 10.5t-22.5 14.5l-12 8l-8 4q-2 0 -5 2 q4 10 3.5 12.5t-0.5 10.5q-3 4 -4 16.5z" />
<glyph unicode="&#xeb;" d="M63 1253q0 8 7.5 27.5t7.5 26.5v59q0 2 11 13.5t24.5 23.5t25.5 21l13 10q4 0 8 -1t19.5 -1t46 1t89.5 3q27 0 42.5 -15.5t50.5 -42.5v-98q0 -16 -3.5 -41t-11.5 -47.5t-22.5 -38.5t-38.5 -16q-59 0 -89 -2t-46.5 -3.5t-27.5 1t-32 8.5h-16q-6 20 -16.5 33.5t-19.5 25.5 t-15.5 23.5t-6.5 29.5zM84 53q4 55 4 103.5t2 52.5q4 16 6 45t3 65.5t1 77.5v80q-6 57 -6 129t4 125q0 8 -1 31.5t-2 51.5t-1 53v36v64q2 8 11.5 21t21.5 25.5t25.5 20.5t25.5 8l47 -6q8 -2 55.5 -2t113 1t139 2t136 1t104.5 1t44 1q4 0 17.5 -10t26.5 -23.5t23.5 -26.5 t10.5 -19q0 -4 -1 -19.5t-1 -34t-1 -35t-1 -18.5q-2 -10 -18.5 -23.5t-16.5 -15.5q-2 -12 -29.5 -18t-70.5 -9.5t-97 -3.5h-104h-95q-44 0 -71 -2v-116q2 -6 2 -9.5t17 0.5l262 -4q10 0 36.5 -3t36.5 1q2 0 4.5 -1t6.5 1q10 -10 14 -4t14 6q6 0 29 -9t33 -30q4 -6 4 -23v-39 v-44q0 -23 4 -37q-2 -6 -19.5 -26.5t-31.5 -36.5q-43 2 -93.5 3t-94.5 2t-75.5 2t-33.5 1l-43 2q-39 -6 -51.5 -12.5t-26.5 -6.5q-2 -10 -1 -16t1 -15v-27q0 -17 -2 -54q2 -2 0 -2t0 -4q-2 -2 2 -4.5t39 -8.5l338 -6q35 4 39 2t20 -2q6 -2 6 -3t4 -5l7 -6q6 4 23.5 -13.5 t27.5 -23.5l-6 -127q2 2 3 -1t-1 -5l-2 -19q-23 -18 -43.5 -40.5t-44.5 -24.5q-80 -4 -188.5 -4t-209 1t-171 4t-74.5 3q-6 0 -17.5 6t-23 15.5t-18.5 18.5t-7 15zM539 1350q0 23 17 49t34 53q4 2 30.5 4t60.5 2h65h49q0 -2 10 -6t23.5 -10t24.5 -13.5t13 -15.5 q4 -25 8.5 -60.5t4.5 -56.5v-108q-16 -10 -32 -28.5t-24 -18.5q-10 0 -22.5 -3t-32.5 -3l-106 -15q-18 0 -26.5 12.5t-23.5 12.5q-23 0 -37 30.5t-22 68.5t-11 70t-3 36z" />
<glyph unicode="&#xec;" horiz-adv-x="753" d="M41 1353.5q6 26.5 10 55.5l8 47q4 4 6.5 7t4.5 5q4 4 16 7.5t23 9.5q8 6 14 9t20 9q59 -10 91 -15t46.5 -9t17.5 -6.5t7 -4.5q8 -2 49 -8t90 -10l154 -27q0 2 4 2h16q6 0 11.5 -6t5.5 -8q0 -6 19.5 -4t29.5 0q35 -6 46 -16.5t9 -35t-11 -66.5t-11 -111 q-10 -10 -22.5 -26.5t-20.5 -18.5q-12 2 -45 8t-68 12t-64.5 12t-35.5 9q-6 2 -19 4l-24 4q-12 2 -23 3l-10 1l-39 6q-16 6 -20 4t-17 4q-4 0 -19.5 4t-34.5 9.5t-36.5 9.5t-25.5 6l-7 2q-33 8 -42 10t-19 6q-4 4 -14.5 -1t-20.5 9q-6 2 -23.5 16.5t-17.5 20.5 q-14 35 -8 61.5zM209 74l12 227q8 35 11.5 165t15.5 368q0 27 -1 46t4 37.5t21.5 37t53.5 44.5q37 -2 56 -3t29.5 -1t12.5 1t4 3q25 -4 49.5 -20t44 -37.5t32.5 -44.5t17 -37l-24 -743q-4 -10 -12.5 -33t-18.5 -45.5t-22.5 -39.5t-22.5 -17q-6 0 -7 -3.5t-11 -3.5 q-6 0 -24.5 5.5t-27.5 5.5q-23 0 -55.5 2t-63 10t-52 26.5t-21.5 49.5z" />
<glyph unicode="&#xed;" horiz-adv-x="753" d="M37 1348q4 8 5 9t3 5q16 14 25.5 30.5t31.5 28.5l23 4q14 8 27.5 6.5t21.5 4.5l121 20q4 -2 8 0q20 4 57 9t93 18q2 4 19 7t35.5 5t34 4t13.5 2q0 2 4 4q2 2 6 2t8 2q6 2 13.5 -1t9.5 -5q0 -6 17.5 2t27.5 11q35 6 48 -0.5t20.5 -30t14.5 -66.5t30 -108 q-6 -12 -13.5 -31.5t-13.5 -24.5q-16 -10 -45 -14t-47 2v-10q-37 -6 -58.5 -8t-34 -4t-18.5 -2h-12q-20 -4 -33.5 -7.5t-26 -6.5t-24.5 -5t-31 -2q0 2 -23.5 -1t-60.5 -8t-83 -11.5t-95 -8.5q-6 0 -26.5 7.5t-24.5 13.5q-18 25 -22.5 39t-5.5 28.5t-3 34t-16 56.5zM209 74 l12 227q8 35 11.5 165t15.5 368q0 27 -1 46t4 37.5t21.5 37t53.5 44.5q37 -2 56 -3t29.5 -1t12.5 1t4 3q25 -4 49.5 -20t44 -37.5t32.5 -44.5t17 -37l-24 -743q-4 -10 -12.5 -33t-18.5 -45.5t-22.5 -39.5t-22.5 -17q-6 0 -7 -3.5t-11 -3.5q-6 0 -24.5 5.5t-27.5 5.5 q-23 0 -55.5 2t-63 10t-52 26.5t-21.5 49.5z" />
<glyph unicode="&#xee;" horiz-adv-x="753" d="M46 1247.5q-1 12.5 1 18.5q0 6 22.5 22.5t49 35.5t49 34.5t22.5 17.5q4 0 22.5 8.5t40 18.5t38 18.5t16.5 10.5q2 -2 11.5 2t18.5 9t17 9t11 2q2 2 12 1t22.5 -2t21.5 -1t7 0l272 -154q10 -20 22.5 -29t25.5 -28q-6 -12 -14.5 -30.5t-16.5 -22.5q-16 -4 -37 -5t-55 -5 q-51 0 -84 -1t-71 -3.5t-93 -4.5t-152 -2h-6q-16 -4 -36.5 1.5t-61.5 0.5q-6 0 -26.5 10.5t-22.5 14.5l-13 8l-8 4q-2 0 -4 2q4 10 3 12.5t-1 10.5q-2 4 -3 16.5zM209 74l12 227q8 35 11.5 165t15.5 368q0 27 -1 46t4 37.5t21.5 37t53.5 44.5q37 -2 56 -3t29.5 -1t12.5 1 t4 3q25 -4 49.5 -20t44 -37.5t32.5 -44.5t17 -37l-24 -743q-4 -10 -12.5 -33t-18.5 -45.5t-22.5 -39.5t-22.5 -17q-6 0 -7 -3.5t-11 -3.5q-6 0 -24.5 5.5t-27.5 5.5q-23 0 -55.5 2t-63 10t-52 26.5t-21.5 49.5z" />
<glyph unicode="&#xef;" horiz-adv-x="753" d="M-18 1233q0 8 7 27.5t7 25.5v60q0 2 11 13t24.5 23.5t25.5 21.5l13 9l145 -4q4 2 9 4t9 2q27 0 42.5 -15.5t50.5 -41.5v-98q0 -16 -3.5 -41t-11.5 -47.5t-22.5 -39t-38.5 -16.5q-59 0 -89 -2t-46.5 -3t-27.5 1t-32 8h-16q-6 20 -16.5 33.5t-19.5 26t-15 24t-6 29.5z M209 74l12 227q8 35 11.5 165t15.5 368q0 27 -1 46t4 37.5t21.5 37t53.5 44.5q37 -2 56 -3t29.5 -1t12.5 1t4 3q25 -4 49.5 -20t44 -37.5t32.5 -44.5t17 -37l-24 -743q-4 -10 -12.5 -33t-18.5 -45.5t-22.5 -39.5t-22.5 -17q-6 0 -7 -3.5t-11 -3.5q-6 0 -24.5 5.5t-27.5 5.5 q-23 0 -55.5 2t-63 10t-52 26.5t-21.5 49.5zM395 1329q0 23 17.5 49.5t33.5 53.5l46 4q18 2 35.5 3t27.5 3q16 2 46 -2t50 -2q0 -2 10.5 -6.5t23.5 -10.5t24.5 -13t13.5 -15q4 -25 8 -61t4 -56v-109q-16 -10 -31.5 -28.5t-23.5 -18.5q-10 -2 -33.5 -4t-49.5 -4t-48.5 -5 t-30.5 -7q-8 0 -18.5 6t-20.5 14q-4 4 -3 4t-7 0q-23 0 -37 31t-22.5 69t-11.5 69.5t-3 35.5z" />
<glyph unicode="&#xf0;" horiz-adv-x="1120" d="M4 766v27q0 23 2 36q10 10 33.5 14.5t52.5 4.5q0 72 -1 136.5t-3 119.5q0 6 -4 50t2 94t29.5 92t79.5 49q12 0 28.5 -1.5t26.5 -1.5l319 23q12 8 14.5 2t18.5 -2q90 -16 163 -62.5t126 -109.5t85 -137t38 -144l26 -510q-14 -53 -50 -118.5t-84 -127t-103 -107.5t-109 -56 q-12 -6 -28.5 -13.5t-33 -13.5t-28.5 -9t-14 -3q-4 -4 -11.5 -4t-29.5 -4q-20 -2 -61.5 -5t-87.5 -6.5t-89 -2.5t-69 8q-18 6 -42 21t-44.5 32.5t-36 32t-15.5 18.5q0 12 6.5 38t4.5 34q0 8 -3 8t-6 10q-2 20 -4 62.5t-3 97.5t-2 122.5t-1 139.5q-10 -2 -18 -3t-19 -1 q-8 0 -16 8t-15.5 19.5t-12.5 20.5t-5 11q-2 10 -2 29q6 18 1 41t-5 41zM387 1063l2 -209l96 8q2 0 12.5 -3t20.5 -8t18.5 -13.5t8.5 -18.5q-4 -59 -8.5 -98t-10.5 -60.5t-12 -30.5t-12 -9q-12 -2 -19.5 -2.5t-11.5 -2.5l-53 -12q-8 10 -12 8l22 -250q2 -16 31.5 -15t91.5 5 q18 2 36.5 -2t37.5 -10q4 2 6 0t12 2q6 0 12.5 2t10.5 4l-37 739q-10 2 -33 4.5t-47.5 4.5t-43.5 2h-22q-8 0 -16 -5.5t-18 -5.5q-6 -2 -12.5 2.5t-14.5 0.5l-33 -3z" />
<glyph unicode="&#xf1;" horiz-adv-x="1179" d="M61 946q0 27 25 48.5t59 21.5q12 0 39 -1t56.5 -2t59.5 -3t50 -4q27 -18 60.5 -34t44.5 -52q2 -4 8 -15q10 -14 23.5 -32.5t24.5 -35t19.5 -29.5t8.5 -17q0 -10 48 -47t120 -113q4 -2 8 -6t14 -9q10 -10 27 -22l-21 334q0 6 7.5 20.5t19.5 27.5t26.5 23.5t30.5 10.5 q31 0 86.5 -2t106.5 2q20 -10 38.5 -40t28.5 -46l27 -889q-2 -6 -15.5 -17.5t-28.5 -23.5t-29.5 -20.5t-18.5 -8.5h-56q-23 -2 -49 -2t-45 2q-55 51 -107 104.5t-105.5 110t-110 117.5t-121.5 129q-10 6 -10 -10l16 -418q-6 -10 -21.5 -18.5t-34 -15.5t-38 -14t-31.5 -16 h-12h-29q-12 0 -29 5q-4 -4 -30 -9q-12 -2 -27 -2h-37q-6 0 -16 10.5t-21.5 23.5t-19.5 25.5t-10 18.5zM162 1229q-6 41 9 82t50 72.5t88 52t123 20.5q49 0 85 -5t61.5 -20.5t46 -45t43.5 -78.5l4 -95q14 0 23.5 -4t13.5 -5t5 8.5t1 37.5l-13 172q23 6 33 8.5t19.5 4.5 t21.5 2h37q33 -4 64.5 -1t62.5 1l23 -25l-2 -147l-5 -15q-4 -14 -10 -30.5t-10 -32t-4 -19.5q0 -10 -24.5 -30.5t-58.5 -43t-71 -39t-61 -16.5q-43 0 -88 7.5t-83 30t-61.5 62.5t-23.5 105v25q0 4 -19.5 2t-23.5 -2q-2 -10 -2 -20v-19l3 -6q3 -6 7 -15.5t7 -17.5t3 -10 q0 -25 1 -36t2 -18.5t-1 -18.5t-8 -36h-246q-16 14 -18 38t-2 46q2 31 2 42t-1 15.5t-2 5.5t-1 11z" />
<glyph unicode="&#xf2;" horiz-adv-x="1103" d="M66 358l12 197v72q0 37 2 65.5t2 50.5q0 49 35 100.5t79 94.5t83.5 70.5t48.5 27.5q10 0 25.5 12.5t35 25.5t41 25.5t43.5 12.5q12 0 49 -5t70 -1h8q29 0 58.5 -14.5t58.5 -24.5l14 -8q68 -37 124 -91.5t99 -115.5t70 -124.5t31 -117.5l10 -43q0 -37 -13.5 -95 t-39 -122.5t-63.5 -129t-85 -117t-104.5 -85t-122.5 -32.5q-4 0 -18.5 1t-32 2t-32.5 2t-17 1q-33 -2 -101 22q-14 2 -44 9.5t-32 5.5q-29 18 -68.5 43.5t-76.5 56.5t-65.5 61.5t-36.5 57.5q-23 23 -33 55t-14 55zM225 1415.5q6 26.5 11 54.5l8 48q4 4 6 7t4 5q4 4 16.5 7 t22.5 9q8 6 14 9.5t21 9.5q59 -10 91 -15.5t46 -9.5t17 -6t7 -4q8 -2 49.5 -8t90.5 -11l153 -26q0 2 4 2h17q6 0 11 -6t5 -8q0 -6 19.5 -4.5t29.5 -0.5q35 -6 46.5 -16t9.5 -34.5t-11.5 -66.5t-11.5 -112q-10 -10 -22.5 -26.5t-20.5 -18.5q-12 2 -45 8t-67.5 12.5 t-64.5 12.5t-36 8t-18 4l-25 4q-12 2 -22 3l-11 1l-39 6q-16 6 -20 4t-16 5q-4 0 -19.5 4t-35 9t-37 9t-25.5 6l-6 2q-33 8 -42.5 10.5t-19.5 6.5q-4 4 -14 -1t-21 9q-6 2 -23.5 16.5t-17.5 20.5q-14 35 -8 61.5zM414 285q49 0 124.5 3t137.5 5v45q-2 70 -3 99.5t-2 40.5 t-1 18.5t-1 32t-3 81t-7 166.5q0 12 1.5 14.5t-1.5 12.5q-6 23 -7 22h-11q-25 0 -54.5 -1t-60 -4t-59.5 -9t-49 -14v-211q4 -33 7 -73t3 -56z" />
<glyph unicode="&#xf3;" horiz-adv-x="1103" d="M66 358l12 197v72q0 37 2 65.5t2 50.5q0 49 35 100.5t79 94.5t83.5 70.5t48.5 27.5q10 0 25.5 12.5t35 25.5t41 25.5t43.5 12.5q12 0 49 -5t70 -1h8q29 0 58.5 -14.5t58.5 -24.5l14 -8q68 -37 124 -91.5t99 -115.5t70 -124.5t31 -117.5l10 -43q0 -37 -13.5 -95 t-39 -122.5t-63.5 -129t-85 -117t-104.5 -85t-122.5 -32.5q-4 0 -18.5 1t-32 2t-32.5 2t-17 1q-33 -2 -101 22q-14 2 -44 9.5t-32 5.5q-29 18 -68.5 43.5t-76.5 56.5t-65.5 61.5t-36.5 57.5q-23 23 -33 55t-14 55zM190 1389q6 12 12.5 19t13.5 13t17.5 15.5t22.5 25.5 q10 2 14 1t15 5l22 2l303 54q18 6 44 10t52.5 7t50 7t38.5 8q35 6 48 0t20 -29.5t14.5 -66.5t29.5 -108q-6 -12 -13 -32t-13 -24q-18 -12 -73.5 -20t-114 -15.5t-102.5 -12.5t-40 -9q-16 4 -17.5 1t-17.5 -5q-4 -2 -20.5 -4t-36 -4t-38 -4t-26.5 -2h-6q-35 -4 -44 -5.5 t-19 -1.5t-17.5 -3t-19.5 -1q-6 0 -26.5 7.5t-24.5 13.5q-18 25 -22.5 39t-5.5 28.5t-3.5 34t-16.5 56.5zM414 285q49 0 124.5 3t137.5 5v45q-2 70 -3 99.5t-2 40.5t-1 18.5t-1 32t-3 81t-7 166.5q0 12 1.5 14.5t-1.5 12.5q-6 23 -7 22h-11q-25 0 -54.5 -1t-60 -4t-59.5 -9 t-49 -14v-211q4 -33 7 -73t3 -56z" />
<glyph unicode="&#xf4;" horiz-adv-x="1136" d="M66 358l12 197v72q0 37 2 65.5t2 50.5q0 49 35 100.5t79 94.5t83.5 70.5t48.5 27.5q10 0 25.5 12.5t35 25.5t41 25.5t43.5 12.5q12 0 49 -5t70 -1h8q29 0 58.5 -14.5t58.5 -24.5l14 -8q68 -37 124 -91.5t99 -115.5t70 -124.5t31 -117.5l10 -43q0 -37 -13.5 -95 t-39 -122.5t-63.5 -129t-85 -117t-104.5 -85t-122.5 -32.5q-4 0 -18.5 1t-32 2t-32.5 2t-17 1q-33 -2 -101 22q-14 2 -44 9.5t-32 5.5q-29 18 -68.5 43.5t-76.5 56.5t-65.5 61.5t-36.5 57.5q-23 23 -33 55t-14 55zM190 1307q0 6 23 22.5t49.5 35.5t49 34.5t22.5 17.5 q4 0 22.5 8.5t40 18.5t38 18t16.5 11q2 -2 11 2t18 9t17.5 9t10.5 2q2 2 12 1t22.5 -2t21.5 -1t7 0l273 -154q10 -20 22.5 -29.5t24.5 -27.5q-6 -12 -14.5 -30.5t-16.5 -22.5q-23 -6 -82 -8t-133 -3t-150.5 -2.5t-132.5 -7.5h-43q-10 0 -20 2q-8 0 -15.5 1t-19.5 -1 q-6 0 -26.5 10.5t-22.5 14.5q-12 12 -16 19.5t-5 14.5t-1.5 16.5t-2.5 21.5zM414 285q49 0 124.5 3t137.5 5v45q-2 70 -3 99.5t-2 40.5t-1 18.5t-1 32t-3 81t-7 166.5q0 12 1.5 14.5t-1.5 12.5q-6 23 -7 22h-11q-25 0 -54.5 -1t-60 -4t-59.5 -9t-49 -14v-211q4 -33 7 -73 t3 -56z" />
<glyph unicode="&#xf5;" horiz-adv-x="1103" d="M66 358l12 197v72q0 37 2 65.5t2 50.5q0 49 35 100.5t79 94.5t83.5 70.5t48.5 27.5q10 0 25.5 12.5t35 25.5t41 25.5t43.5 12.5q12 0 49 -5t70 -1h8q29 0 58.5 -14.5t58.5 -24.5l14 -8q68 -37 124 -91.5t99 -115.5t70 -124.5t31 -117.5l10 -43q0 -37 -13.5 -95 t-39 -122.5t-63.5 -129t-85 -117t-104.5 -85t-122.5 -32.5q-4 0 -18.5 1t-32 2t-32.5 2t-17 1q-33 -2 -101 22q-14 2 -44 9.5t-32 5.5q-29 18 -68.5 43.5t-76.5 56.5t-65.5 61.5t-36.5 57.5q-23 23 -33 55t-14 55zM121 1341q-6 41 9 82t50 73t88.5 52.5t122.5 20.5 q49 0 85 -5t61.5 -20.5t46 -45.5t43.5 -79l4 -94q14 0 23.5 -4t13.5 -5t5 8t1 38l-12 160q29 8 40 14t18 8t17.5 3t34.5 1q25 0 42 -1t32.5 -5t31 -10t40.5 -19l2 -137l-5 -14q-4 -14 -10 -30.5t-10 -32t-4 -19.5q0 -10 -24.5 -30.5t-58.5 -43t-71 -39t-61 -16.5 q-43 0 -88 7t-83 29.5t-61.5 62.5t-23.5 106v24q0 4 -19.5 2t-23.5 -2q-2 -10 -2 -19v-20l3 -6q3 -6 7 -15t7 -17.5t3 -10.5q0 -25 -1 -37t-4 -21t-6 -19.5t-5 -30.5h-240q-16 14 -16 38v46q2 31 2 43t-1 17t-2 6t-1 7zM414 285q49 0 124.5 3t137.5 5v45q-2 70 -3 99.5 t-2 40.5t-1 18.5t-1 32t-3 81t-7 166.5q0 12 1.5 14.5t-1.5 12.5q-6 23 -7 22h-11q-25 0 -54.5 -1t-60 -4t-59.5 -9t-49 -14v-211q4 -33 7 -73t3 -56z" />
<glyph unicode="&#xf6;" horiz-adv-x="1103" d="M43 1233q0 8 7 27.5t7 25.5v60q0 2 11.5 13t24.5 23.5t26 21.5l12 9l145 -4q4 2 9.5 4t9.5 2q27 0 42 -15.5t50 -41.5v-98q0 -16 -3 -41t-11 -47.5t-22.5 -39t-39.5 -16.5q-59 0 -88.5 -2t-48 -3t-33 1t-41.5 8q-16 18 -36.5 48t-20.5 65zM66 358l12 197v72q0 37 2 65.5 t2 50.5q0 49 35 100.5t79 94.5t83.5 70.5t48.5 27.5q10 0 25.5 12.5t35 25.5t41 25.5t43.5 12.5q12 0 49 -5t70 -1h8q29 0 58.5 -14.5t58.5 -24.5l14 -8q68 -37 124 -91.5t99 -115.5t70 -124.5t31 -117.5l10 -43q0 -37 -13.5 -95t-39 -122.5t-63.5 -129t-85 -117t-104.5 -85 t-122.5 -32.5q-4 0 -18.5 1t-32 2t-32.5 2t-17 1q-33 -2 -101 22q-14 2 -44 9.5t-32 5.5q-29 18 -68.5 43.5t-76.5 56.5t-65.5 61.5t-36.5 57.5q-23 23 -33 55t-14 55zM414 285q49 0 124.5 3t137.5 5v45q-2 70 -3 99.5t-2 40.5t-1 18.5t-1 32t-3 81t-7 166.5q0 12 1.5 14.5 t-1.5 12.5q-6 23 -7 22h-11q-25 0 -54.5 -1t-60 -4t-59.5 -9t-49 -14v-211q4 -33 7 -73t3 -56zM702 1329q0 23 17.5 49.5t34.5 53.5q-2 0 23.5 2t59 4t68.5 2t53 -2q0 -2 10.5 -6.5t24 -10.5t24.5 -13t13 -15q4 -25 8 -61t4 -56v-109q-16 -10 -31.5 -28.5t-23.5 -18.5 q-6 -2 -7 -2t-7 -4q-4 -6 -24.5 -7t-46.5 -1h-48q-23 0 -29 -6q-8 0 -18 6t-21 14l-10 4q-23 0 -37 31t-22 69t-11.5 69.5t-3.5 35.5z" />
<glyph unicode="&#xf7;" horiz-adv-x="909" d="M82 592q-2 12 2 22q2 6 1 8.5t-1 8.5v43q4 4 5 6l3 6q6 4 12 10q8 8 17 13q8 10 15 13t18 7h18q4 0 8 -1t21 1q2 0 7 -2t11 2h209h107q2 -4 4 0q18 0 37.5 2t48.5 -2q0 -6 1 -2t3 2q2 0 4 2q2 0 5 1t7 1q6 0 12.5 -3t6.5 -5q0 -4 11 -3t26.5 3t28.5 5t20 3q16 0 23 -3 t7 -38q0 -14 3 -49t1 -71.5t-10 -64.5t-29 -28h-44q-28 0 -42 10q-2 -4 -2 -10q-78 6 -136 5t-103 14q-2 -4 -1 -6.5t-1 -6.5l-178 9q-2 2 -3.5 4t-1.5 -4q-31 4 -39 4h-18l-15 18q-5 6 -22 12q-16 6 -35.5 21.5t-19.5 19.5q0 11 -2 23zM231 172q0 8 6.5 26.5t6.5 24.5v58 q0 2 11 12t24.5 21.5t24.5 20.5l11 9l156 2q27 0 40 -15.5t48 -39.5v-92q0 -16 -3 -39t-11 -45.5t-22.5 -38t-37.5 -15.5q-55 0 -83.5 -2t-44 -3t-25.5 1t-31 9h-16q-6 20 -15.5 32.5t-17.5 23.5t-14.5 22.5t-6.5 27.5zM246 1126q0 23 17.5 47.5t31.5 49.5q2 2 24.5 3t51 0 t55.5 -2t37 -1q8 2 23.5 1t30.5 -5.5t27.5 -12.5t14.5 -20q4 -23 7 -57.5t3 -53.5v-102q-4 -12 -16 -21.5t-39 -15.5q0 -2 -3 -4t-14.5 -5t-34 -6t-61.5 -10l-84 21q-23 0 -37 29.5t-21 64.5t-10 65.5t-3 34.5z" />
<glyph unicode="&#xf8;" horiz-adv-x="1103" d="M26 268.5q1 18.5 9 28.5l61 74q-6 23 -12 47t-6 47v235l-12 338q4 23 14 55.5t33 55.5q8 27 36.5 57.5t65.5 61t77 56.5t68 44q29 2 49.5 8t39 12.5t39 11.5t49.5 5q2 0 17 1t32.5 2t32 2t18.5 1q49 0 93 -18.5t85 -49.5l6 13q6 6 11.5 8t9.5 8q4 4 6 11.5t12 17.5 q12 14 44 19t44 1l4 -4q25 -14 33 -21t18.5 -14.5t30 -18.5t62.5 -32q10 -8 8 -25.5t-8 -37t-14.5 -34.5t-10.5 -22l-80 -104q35 -74 54.5 -143.5t19.5 -112.5l-10 -371q-4 -53 -31 -116.5t-70 -125t-99 -115.5t-124 -91q-14 -12 -29.5 -18.5t-37 -10.5t-51 -7t-72.5 -11 q2 2 -5.5 1t-19.5 -3t-24.5 -3t-18.5 -1q-25 4 -36 8t-20 11t-23.5 18.5t-45.5 29.5q-4 4 -31.5 18.5t-62.5 38.5q-37 -41 -55 -47q-14 8 -37 23.5t-27 19.5q-8 6 -14 13.5t-37 33.5q-4 10 -6 8.5t-12 6.5q-6 4 -12.5 9t-16.5 15q-2 2 -5 15.5t-5 31t-1 36zM414 1112l8 -293 l29 39q10 10 18 20.5t18 24.5q14 16 26.5 25.5t21.5 36.5q25 16 56.5 54t59.5 79q-20 6 -40.5 9t-38 4t-29 2t-11.5 3q-6 0 -22 -2t-34.5 -3t-36 -1t-25.5 2zM418 295q20 -8 49 -14.5t59.5 -9.5t60 -4t54.5 -1q10 0 10 -3t4 -5l4 31q2 10 1 12t-1 14l15 367l-166 -219 l-90 -137v-31z" />
<glyph unicode="&#xf9;" horiz-adv-x="1169" d="M125 100v90q0 8 1 64.5t3 124t3 131t3 86.5q-4 39 -1 90t6 97t7.5 79t4.5 37q0 2 9 11.5t23.5 21.5t30.5 26.5t29 26.5h112q18 -29 34 -43t26 -25.5t16 -22.5t6 -34q4 2 4 -35t-2 -95t-5 -126.5t-5 -128t-4 -99.5l-2 -40l65 -19q31 0 46.5 -1t29 -2t31.5 -2t55 -1 q6 0 9.5 3t5.5 3q12 4 13 2t9 15l39 563q0 4 10.5 20.5t23.5 34t25.5 31.5t18.5 14l16 2q16 2 41 3.5t51.5 1.5t42.5 -5q23 -12 42.5 -45.5t31.5 -54.5l-6 -733q-6 -33 -26.5 -62.5t-43 -53t-41.5 -38.5l-18 -14q-4 0 -30.5 -1t-65.5 -2t-83 -3t-83 -4t-64.5 -4t-27.5 -4 l-189 -13h-26q-29 -2 -37 0t-25 -6q-2 -4 -11 -1t-11 -1q-35 20 -60.5 61t-56.5 80zM225 1333.5q6 26.5 11 55.5l8 47q4 4 6 7t4 5q4 4 16.5 7t22.5 9q8 6 14 9.5t21 9.5q59 -10 91 -15.5t46 -9.5t17 -6t7 -4q8 -2 49.5 -8t90.5 -10l153 -27q0 2 4 2h17q6 0 11 -6t5 -8 q0 -6 19.5 -4t29.5 -1q35 -6 46.5 -16t9.5 -34.5t-11.5 -66.5t-11.5 -112q-10 -10 -22.5 -26.5t-20.5 -18.5q-12 2 -45 8t-67.5 12.5t-64.5 12.5t-36 8t-18 4l-25 4q-12 2 -22 3l-11 1l-39 6q-16 6 -20 4.5t-16 4.5q-4 0 -19.5 4t-35 9t-37 9t-25.5 6l-6 2q-33 8 -42.5 10.5 t-19.5 6.5q-4 4 -14 -1t-21 9q-6 2 -23.5 16.5t-17.5 20.5q-14 35 -8 61.5z" />
<glyph unicode="&#xfa;" horiz-adv-x="1169" d="M125 100v90q0 8 1 64.5t3 124t3 131t3 86.5q-4 39 -1 90t6 97t7.5 79t4.5 37q0 2 9 11.5t23.5 21.5t30.5 26.5t29 26.5h112q18 -29 34 -43t26 -25.5t16 -22.5t6 -34q4 2 4 -35t-2 -95t-5 -126.5t-5 -128t-4 -99.5l-2 -40l65 -19q31 0 46.5 -1t29 -2t31.5 -2t55 -1 q6 0 9.5 3t5.5 3q12 4 13 2t9 15l39 563q0 4 10.5 20.5t23.5 34t25.5 31.5t18.5 14l16 2q16 2 41 3.5t51.5 1.5t42.5 -5q23 -12 42.5 -45.5t31.5 -54.5l-6 -733q-6 -33 -26.5 -62.5t-43 -53t-41.5 -38.5l-18 -14q-4 0 -30.5 -1t-65.5 -2t-83 -3t-83 -4t-64.5 -4t-27.5 -4 l-189 -13h-26q-29 -2 -37 0t-25 -6q-2 -4 -11 -1t-11 -1q-35 20 -60.5 61t-56.5 80zM219 1348q4 8 5 9t3 5q16 14 25.5 30.5t32.5 28.5l22 4q14 8 27.5 6.5t21.5 4.5l121 20q4 -2 8 0q20 4 57.5 9t92.5 18q2 4 19.5 7t36 5t33.5 4t13 2q0 2 4 4q2 2 6.5 2t8.5 2q6 2 13 -1 t9 -5q0 -6 17.5 2t27.5 11q35 6 48.5 -0.5t20.5 -30t14 -66.5t30 -108q-6 -12 -13.5 -31.5t-13.5 -24.5q-16 -10 -44.5 -14t-47.5 2v-10q-37 -6 -58.5 -8t-33.5 -4t-18 -2h-13q-20 -4 -33.5 -7.5t-25.5 -6.5t-24.5 -5t-30.5 -2q0 2 -24 -1t-60.5 -8t-82.5 -11.5t-96 -8.5 q-6 0 -26.5 7.5t-24.5 13.5q-18 25 -22 39t-5 28.5t-3.5 34t-16.5 56.5z" />
<glyph unicode="&#xfb;" horiz-adv-x="1169" d="M125 100v90q0 8 1 64.5t3 124t3 131t3 86.5q-4 39 -1 90t6 97t7.5 79t4.5 37q0 2 9 11.5t23.5 21.5t30.5 26.5t29 26.5h112q18 -29 34 -43t26 -25.5t16 -22.5t6 -34q4 2 4 -35t-2 -95t-5 -126.5t-5 -128t-4 -99.5l-2 -40l65 -19q31 0 46.5 -1t29 -2t31.5 -2t55 -1 q6 0 9.5 3t5.5 3q12 4 13 2t9 15l39 563q0 4 10.5 20.5t23.5 34t25.5 31.5t18.5 14l16 2q16 2 41 3.5t51.5 1.5t42.5 -5q23 -12 42.5 -45.5t31.5 -54.5l-6 -733q-6 -33 -26.5 -62.5t-43 -53t-41.5 -38.5l-18 -14q-4 0 -30.5 -1t-65.5 -2t-83 -3t-83 -4t-64.5 -4t-27.5 -4 l-189 -13h-26q-29 -2 -37 0t-25 -6q-2 -4 -11 -1t-11 -1q-35 20 -60.5 61t-56.5 80zM251 1226.5q-1 12.5 1 18.5q0 6 22.5 22.5t49 36t49 35t22.5 17.5q4 0 22.5 8t40 18.5t38 18.5t16.5 10q2 -2 11 2t18.5 9t17.5 9.5t10 2.5q2 2 12.5 1t22.5 -2t21.5 -1t7.5 0l272 -154 q10 -20 22.5 -29.5t24.5 -27.5q-6 -12 -14 -31t-16 -23q-16 -4 -34 -5t-59 -5q-51 0 -83.5 -1t-70.5 -3t-93.5 -4t-151.5 -2q-20 -2 -34 -2h-23q-10 0 -20.5 2t-26.5 2q-6 0 -26.5 10t-23.5 15l-12 8l-8 4q-2 0 -4 2q4 10 3 12t-1 10q-2 4 -3 16.5z" />
<glyph unicode="&#xfc;" horiz-adv-x="1169" d="M125 100v90q0 8 1 64.5t3 124t3 131t3 86.5q-4 39 -1 90t6 97t7.5 79t4.5 37q0 2 9 11.5t23.5 21.5t30.5 26.5t29 26.5h112q18 -29 34 -43t26 -25.5t16 -22.5t6 -34q4 2 4 -35t-2 -95t-5 -126.5t-5 -128t-4 -99.5l-2 -40l65 -19q31 0 46.5 -1t29 -2t31.5 -2t55 -1 q6 0 9.5 3t5.5 3q12 4 13 2t9 15l39 563q0 4 10.5 20.5t23.5 34t25.5 31.5t18.5 14l16 2q16 2 41 3.5t51.5 1.5t42.5 -5q23 -12 42.5 -45.5t31.5 -54.5l-6 -733q-6 -33 -26.5 -62.5t-43 -53t-41.5 -38.5l-18 -14q-4 0 -30.5 -1t-65.5 -2t-83 -3t-83 -4t-64.5 -4t-27.5 -4 l-189 -13h-26q-29 -2 -37 0t-25 -6q-2 -4 -11 -1t-11 -1q-35 20 -60.5 61t-56.5 80zM125 1233q0 8 7 27.5t7 25.5v60q0 2 11.5 13t24.5 23.5t26 21.5l12 9l131 2q10 -8 16.5 -4t16.5 4q27 0 42 -15.5t50 -41.5v-98q0 -16 -3 -41t-11.5 -47.5t-22.5 -39t-39 -16.5 q-59 0 -89 -2t-46 -3t-27.5 1t-31.5 8h-17q-6 20 -16 33.5t-19.5 26t-15.5 24t-6 29.5zM702 1329q0 23 17.5 49.5t34.5 53.5l45 4q18 2 35.5 3t27.5 3h28q13 0 28 4l40 -8q0 -2 10.5 -6.5t24 -10.5t24.5 -13t13 -15q4 -25 8 -61t4 -56v-109q-16 -10 -31.5 -28.5t-23.5 -18.5 h-201l-10 4q-23 0 -37 31t-22 69t-11.5 69.5t-3.5 35.5z" />
<glyph unicode="&#xfd;" d="M82 995q6 14 15 20.5t20 10.5q6 2 11 4t11 2q18 4 53 3t52 3q45 2 85 -29.5t70.5 -72.5t51 -78t26.5 -45q0 -12 17 -20q16 12 24 33.5t8 23.5q16 23 39 46.5t45 64.5q8 8 9.5 16t4.5 19.5t10 23.5t25 27l7 4q8 6 11 12t17 8q8 0 28.5 -1t47.5 -4t56.5 -5t56.5 -2 q10 0 28.5 -15.5t18.5 -23.5q0 -6 -22.5 -52t-54.5 -104.5t-63.5 -115t-48.5 -84.5q-16 -31 -41.5 -63t-49 -64.5t-42 -66.5t-20.5 -64l18 -359q-2 -4 -10 -15.5t-19.5 -22.5t-24.5 -20t-26 -9q-18 4 -59 -3.5t-100 3.5q-16 0 -24.5 5t-11.5 10t-5 10t-7 9q-12 10 -16 23 l4 227l8 127q-2 4 0 8t0 27q10 27 0 64.5t-10 72.5q0 6 -5 13.5t-5 15.5t-4 20q0 2 1 3t-3 8.5t-15.5 25t-35.5 51.5q-23 16 -35.5 33t-30.5 39q-20 23 -29.5 36t-13.5 30l-7 19q-7 19 -16.5 45t-16.5 51.5t-7 41.5zM154 1305q4 6 5 7t3 5q16 10 25.5 23.5t31.5 23.5l23 2 q14 6 27.5 5t21.5 3l121 17h8q20 4 56 8t91 14q2 2 19.5 5t36 4t34 3t13.5 2l4 3q2 2 6 2t8 2q6 2 13.5 -1t9.5 -3q0 -6 17 1t28 7q35 6 48 1t20 -23.5t14.5 -53.5t29.5 -86q-6 -10 -13 -25.5t-13 -17.5q-16 -8 -45 -11t-47 1v-9q-37 -4 -58.5 -7t-34 -4t-18.5 -1h-12 q-41 -4 -54.5 -8t-21.5 0l-39 -6q0 2 -21.5 0t-48 -6t-51 -7.5t-33.5 -3.5h-6q-29 -12 -51 -6t-49 -2q-6 0 -26.5 6.5t-24.5 10.5q-6 12 -15 20l-16 21q4 8 4 20t-2 19q-2 4 -5 4t-5 4z" />
<glyph unicode="&#xfe;" horiz-adv-x="983" d="M51 174l6 78v293q0 16 3 26.5t-1 20.5v88q4 25 6.5 38t3.5 27.5t1 36.5v65q0 42 1 110.5t3 177.5q0 12 1 30.5t1 37t1 34.5t1 23q0 10 10 32.5t24.5 45t32 39t29.5 12.5q4 4 17.5 10t17.5 4q4 0 8 -2t17.5 -3t39 -2t72.5 -1l43 -131l-10 -154h90q51 0 117 4q27 0 49 -10 t45 -27q6 0 17 -7l23 -14l22 -15q11 -7 20 -9q102 -66 145 -143.5t43 -167.5q0 -43 -41 -96.5t-92 -99.5t-100 -77.5t-64 -33.5q-16 -6 -37.5 -8.5t-55.5 -3.5t-81 -3t-114 -8v-41v-194q0 -10 -10.5 -24.5t-25 -30t-28.5 -28t-22 -20.5h-13q-35 -12 -72.5 -6t-66.5 10 q-10 0 -22.5 17.5t-23.5 38t-19.5 39t-10.5 22.5zM373 692q0 -29 13 -57.5t13 -38.5l39 2l9 3q3 1 16.5 3t47.5 4l101 6q8 -6 15 -2q0 8 3 16.5t7 30t8 62.5t10 119q0 4 -11 12t-15 10l-240 -4q-10 -10 -11 -19.5t-1 -19.5q-4 -76 -4 -97v-30z" />
<glyph unicode="&#xff;" d="M123 995q6 14 15 20.5t20 10.5q6 2 11 4t11 2q18 4 53 3t52 3q45 2 85 -29.5t70.5 -72.5t51 -78t26.5 -45q0 -12 17 -20q16 12 24 33.5t8 23.5q16 23 39 46.5t45 64.5q8 8 9.5 16t4.5 19.5t10 23.5t25 27l7 4q8 6 11 12t17 8q8 0 28.5 -1t47.5 -4t56.5 -5t56.5 -2 q10 0 28.5 -15.5t18.5 -23.5q0 -6 -22.5 -52t-54.5 -104.5t-63.5 -115t-48.5 -84.5q-16 -31 -41.5 -63t-49 -64.5t-42 -66.5t-20.5 -64l18 -359q-2 -4 -10 -15.5t-19.5 -22.5t-24.5 -20t-26 -9q-18 4 -59 -3.5t-100 3.5q-16 0 -24.5 5t-11.5 10t-5 10t-7 9q-12 10 -16 23 l4 227l8 127q-2 4 0 8t0 27q10 27 0 64.5t-10 72.5q0 6 -5 13.5t-5 15.5t-4 20q0 2 1 3t-3 8.5t-15.5 25t-35.5 51.5q-23 16 -35.5 33t-30.5 39q-20 23 -29.5 36t-13.5 30l-7 19q-7 19 -16.5 45t-16.5 51.5t-7 41.5zM211 1296q0 8 7 27.5t7 26.5v59q0 2 11.5 13.5t24.5 23.5 t26 21l12 10l145 -4q4 2 9.5 4t9.5 2q27 0 42 -15.5t50 -42.5v-98q0 -16 -3 -41t-11.5 -47.5t-22.5 -38.5t-39 -16q-59 0 -89 -2t-46 -3t-27.5 1t-31.5 8h-17q-6 20 -16 33.5t-19.5 25.5t-15.5 23.5t-6 29.5zM625 1393q0 23 17 49t34 53l45 4q18 2 35.5 3t27.5 3q16 2 46 -2 t51 -2q0 -2 10 -6t23.5 -10t24.5 -13.5t13 -15.5q4 -25 8.5 -60.5t4.5 -56.5v-108q-16 -10 -31.5 -28.5t-24.5 -18.5q-10 -2 -33.5 -4t-49 -4t-48 -5.5t-30.5 -7.5q-8 0 -18.5 6.5t-20.5 14.5q-4 4 -3 4t-8 0q-23 0 -37 30.5t-22 68.5t-11 70t-3 36z" />
<glyph unicode="&#x152;" horiz-adv-x="1542" d="M66 1038q4 23 14 55.5t33 55.5q8 27 36.5 57.5t65.5 61t77 56.5t68 44q29 2 49.5 8t39 12.5t39 11.5t49.5 5q2 0 17 1t32.5 2t32 2t18.5 1q47 0 88 -20q4 4 8 4t75 3t171 4t208.5 1t188.5 -4q25 -2 45.5 -24.5t42.5 -41.5l6 -151q-2 -12 -12 -25.5t-47 -13.5 q-16 -10 -30.5 -11.5t-37.5 -1.5l-362 -6l-41 -6v-12q2 -14 1 -36l-2 -43q-1 -22 -1 -38v-20v-46q0 -30 14 -36q2 0 7 -5l10 -10q0 -2 11 -3t24.5 0t24.5 2t15 1l43 2q2 0 40 1.5t89.5 2.5t107.5 2t99 3q14 -16 32 -37t20 -27q0 2 -1 -19.5t-3.5 -48t-4.5 -49t-4 -22.5 q-10 -8 -30.5 -25.5t-26.5 -17.5t-11 1t-18 1l-84 -2l-342 6q-6 -4 -5 -13t5 -14q4 -6 8.5 -27.5t-0.5 -25.5l5 -12v-30q0 -22 2 -48l4 -53q2 -27 4 -41q0 -6 1 -35t1 -68q27 -2 71 -2h95h104q53 0 96 -3t71 -9t30 -18q0 -2 16.5 -15.5t18.5 -23.5q0 -4 1 -19.5t1 -34t1 -34 t1 -19.5q0 -6 -10.5 -19t-23.5 -26.5t-26.5 -24t-17.5 -10.5q-2 0 -44 1t-104.5 1t-136.5 1.5t-139.5 2.5t-112.5 0t-55 -1l-47 -7q-14 -2 -35 15q-14 -12 -29.5 -18.5t-37 -9.5t-51 -6t-70.5 -11q2 2 -5.5 1t-19.5 -3t-24.5 -3t-18.5 -1q-25 4 -36 8t-20 11t-23.5 18.5 t-45.5 29.5q-4 6 -46 30.5t-91 63.5t-89 91.5t-40 115.5q0 23 -2 51.5t-2 65.5v235zM414 1112l14 -500q2 -18 -2 -49t-8 -57v-211q20 -8 49 -14.5t59.5 -9.5t60 -4t54.5 -1q10 0 10 -3t4 -5l4 31q2 10 1 12t-1 14l15 371q0 27 -1 49.5t-1 59.5v98q0 61 4 166q0 37 -1 37 t-3 -4q-23 8 -46.5 13t-45 7t-35 2t-13.5 2q-6 0 -22 -2t-34.5 -3t-36 -1t-25.5 2z" />
<glyph unicode="&#x153;" horiz-adv-x="1542" d="M66 1038q4 23 14 55.5t33 55.5q8 27 36.5 57.5t65.5 61t77 56.5t68 44q29 2 49.5 8t39 12.5t39 11.5t49.5 5q2 0 17 1t32.5 2t32 2t18.5 1q47 0 88 -20q4 4 8 4t75 3t171 4t208.5 1t188.5 -4q25 -2 45.5 -24.5t42.5 -41.5l6 -151q-2 -12 -12 -25.5t-47 -13.5 q-16 -10 -30.5 -11.5t-37.5 -1.5l-362 -6l-41 -6v-12q2 -14 1 -36l-2 -43q-1 -22 -1 -38v-20v-46q0 -30 14 -36q2 0 7 -5l10 -10q0 -2 11 -3t24.5 0t24.5 2t15 1l43 2q2 0 40 1.5t89.5 2.5t107.5 2t99 3q14 -16 32 -37t20 -27q0 2 -1 -19.5t-3.5 -48t-4.5 -49t-4 -22.5 q-10 -8 -30.5 -25.5t-26.5 -17.5t-11 1t-18 1l-84 -2l-342 6q-6 -4 -5 -13t5 -14q4 -6 8.5 -27.5t-0.5 -25.5l5 -12v-30q0 -22 2 -48l4 -53q2 -27 4 -41q0 -6 1 -35t1 -68q27 -2 71 -2h95h104q53 0 96 -3t71 -9t30 -18q0 -2 16.5 -15.5t18.5 -23.5q0 -4 1 -19.5t1 -34t1 -34 t1 -19.5q0 -6 -10.5 -19t-23.5 -26.5t-26.5 -24t-17.5 -10.5q-2 0 -44 1t-104.5 1t-136.5 1.5t-139.5 2.5t-112.5 0t-55 -1l-47 -7q-14 -2 -35 15q-14 -12 -29.5 -18.5t-37 -9.5t-51 -6t-70.5 -11q2 2 -5.5 1t-19.5 -3t-24.5 -3t-18.5 -1q-25 4 -36 8t-20 11t-23.5 18.5 t-45.5 29.5q-4 6 -46 30.5t-91 63.5t-89 91.5t-40 115.5q0 23 -2 51.5t-2 65.5v235zM414 1112l14 -500q2 -18 -2 -49t-8 -57v-211q20 -8 49 -14.5t59.5 -9.5t60 -4t54.5 -1q10 0 10 -3t4 -5l4 31q2 10 1 12t-1 14l15 371q0 27 -1 49.5t-1 59.5v98q0 61 4 166q0 37 -1 37 t-3 -4q-23 8 -46.5 13t-45 7t-35 2t-13.5 2q-6 0 -22 -2t-34.5 -3t-36 -1t-25.5 2z" />
<glyph unicode="&#x178;" d="M123 975q6 14 15 20t20 11q6 2 11 4t11 2q18 4 53 3t52 3q45 2 85 -30t70.5 -73t51 -77.5t26.5 -44.5q0 -12 17 -21q16 12 24 33.5t8 23.5q16 23 39 46.5t45 64.5q8 8 9.5 16.5t4.5 19.5t10 23.5t25 26.5l7 4q8 6 11 12.5t17 8.5q8 0 28.5 -1t47.5 -4.5t56.5 -5.5 t56.5 -2q10 0 28.5 -15t18.5 -24q0 -6 -22.5 -52t-54.5 -104.5t-63.5 -114.5t-48.5 -85q-16 -31 -41.5 -62.5t-49 -64.5t-42 -66.5t-20.5 -64.5l18 -358q-2 -4 -10 -15.5t-19.5 -23t-24.5 -20.5t-26 -9q-18 4 -59 -3t-100 3q-16 0 -24.5 5t-11.5 10.5t-5 10.5t-7 9 q-12 10 -16 22l4 228l8 127q-2 4 0 8t0 27q10 27 0 64.5t-10 72.5q0 6 -5 13t-5 15t-4 21q0 2 1 3t-3 8t-15.5 24.5t-35.5 52.5q-23 16 -35.5 32.5t-30.5 39.5q-20 23 -29.5 36t-13.5 29l-7 20q-7 19 -16.5 44.5t-16.5 51.5t-7 42zM131 1243q0 8 7 27.5t7 25.5v60 q0 2 11.5 13t25 23.5t25.5 21.5l12 9l146 -4q4 2 9 4t9 2q27 0 42 -15t50 -42v-98q0 -16 -3 -41t-11 -47.5t-22.5 -39t-39.5 -16.5q-59 0 -88.5 -2t-46 -3t-28 1t-31.5 8h-17q-6 20 -16 34t-19.5 26t-15.5 23.5t-6 29.5zM545 1339q0 23 17.5 49.5t33.5 53.5l45 4 q18 2 35.5 3t28.5 3q16 2 45.5 -2t50.5 -2q0 -2 10 -6t23.5 -10.5t24.5 -13.5t13 -15q4 -25 8.5 -60.5t4.5 -56.5v-108q-16 -10 -31.5 -29t-24.5 -19q-10 -2 -33.5 -4t-49 -4t-48 -5t-30.5 -7q-8 0 -18.5 6t-20.5 14q-4 4 -3 4.5t-8 0.5q-23 0 -37 30.5t-22 68.5t-11 69.5 t-3 35.5z" />
<glyph unicode="&#x2c6;" horiz-adv-x="753" d="M46 1247.5q-1 12.5 1 18.5q0 6 22.5 22.5t49 35.5t49 34.5t22.5 17.5q4 0 22.5 8.5t40 18.5t38 18.5t16.5 10.5q2 -2 11.5 2t18.5 9t17 9t11 2q2 2 12 1t22.5 -2t21.5 -1t7 0l272 -154q10 -20 22.5 -29t25.5 -28q-6 -12 -14.5 -30.5t-16.5 -22.5q-16 -4 -37 -5t-55 -5 q-51 0 -84 -1t-71 -3.5t-93 -4.5t-152 -2h-6q-16 -4 -36.5 1.5t-61.5 0.5q-6 0 -26.5 10.5t-22.5 14.5l-13 8l-8 4q-2 0 -4 2q4 10 3 12.5t-1 10.5q-2 4 -3 16.5z" />
<glyph unicode="&#x2dc;" horiz-adv-x="819" d="M-445 329q-1 1 1 5q-8 45 9.5 90t56 81t98 58.5t137.5 22.5q55 0 94 -5t67.5 -22.5t51 -50.5t47.5 -88l4 -104q18 0 27.5 -5.5t14.5 -5.5t6 10.5t1 41.5l-14 124q27 33 38 49.5t20.5 23.5t22.5 8t42 1t47 -1t35.5 -9t36 -24.5t45.5 -47.5q4 -8 5 -15t0 -18.5t-3 -28.5 t-2 -46l-5 -15q-5 -15 -11.5 -35t-11.5 -36t-5 -21q0 -10 -26.5 -33.5t-64.5 -48t-79 -43t-68 -18.5q-47 0 -98 8t-92 33t-67.5 69t-26.5 117v27q0 4 -21.5 2t-25.5 -2q-2 -12 -2 -22v-21l3 -7q3 -7 8 -16.5t8 -19.5t3 -12q0 -27 -2 -38t-10 -18.5t-25.5 -19.5t-48.5 -43 h-131q-8 8 -22.5 19.5t-29 23.5t-24.5 24.5t-10 24.5l-2 74q0 2 -1 3z" />
<glyph unicode="&#x2013;" horiz-adv-x="976" d="M63 598v33v43l6 6l3 6q8 10 9 8t13 11q2 2 9.5 8t29.5 16h19q10 -2 14 -1t14 1q2 0 15.5 -1t30.5 -1h33q15 0 22 2h331h45q2 -2 35 0t56 0q6 0 28.5 2t30.5 2q33 0 51.5 -12t28.5 -30.5t13 -40t3 -38.5q0 -14 -3 -36.5t-13 -44t-28.5 -37t-49.5 -15.5q-14 0 -16 1t-13 -1 q-66 2 -84 3t-26 1q-16 4 -39 0t-31 2h-35h-8h-25q-4 0 -37.5 1t-74.5 3.5t-77 3.5t-44 1h-4q-16 2 -37.5 3t-43.5 1h-38h-20q-10 8 -21.5 14t-13.5 14q-16 12 -31.5 22.5t-23.5 31.5q-3 10 -3 18z" />
<glyph unicode="&#x2014;" horiz-adv-x="1505" d="M145 598v33v43l6 6l3 6q8 10 9 8t13 11q2 2 9.5 8t29.5 16h18q10 -2 14.5 -1t14.5 1q2 0 15.5 -1t30.5 -1h33q15 0 21 2l752 10h45q2 -2 35 0t55 0q6 0 28.5 2t31.5 2q33 0 51 -12t28.5 -30.5t13.5 -40t3 -37.5q0 -14 -3 -37t-13.5 -44.5t-29 -37t-48.5 -15.5 q-14 0 -16.5 1.5t-12.5 -1.5q-66 2 -84 3.5t-27 1.5q-16 4 -38.5 -0.5t-30.5 2.5h-35h-8h-25h-50h-119q-71 0 -153.5 -1t-154.5 -1h-122h-54h-4q-16 2 -38 3t-43 1h-38h-20q-10 8 -21.5 14t-13.5 14q-16 12 -31.5 22.5t-24.5 31.5q-2 10 -2 18z" />
<glyph unicode="&#x2018;" horiz-adv-x="540" d="M82 1024q8 90 14 162q4 61 8.5 112.5t6.5 55.5q0 2 13 23.5t37.5 46t57.5 44t74 19.5q41 -2 65 -2h38q13 0 18.5 -1t5.5 -3q2 -4 4 -21.5t3 -39t1 -40t-2 -22.5q-6 -14 -20 -19q-4 -2 -22.5 -2t-41.5 -2q-27 -2 -59 -4l-9 -53q-4 -20 -6 -36.5t0 -20.5t21.5 -6.5 t42.5 -4.5q27 -2 59 -4q6 -6 15 -12q4 -4 9 -8t7 -2q2 0 2 -34t-1 -75t-3 -75.5t-4 -34.5l-37 -19l-33 -16l-106 12q-41 4 -76 7t-37 1q-4 -4 -11 8.5t-16 26.5q-8 16 -18 39z" />
<glyph unicode="&#x2019;" horiz-adv-x="540" d="M84 1015.5q0 18.5 2 22.5q6 14 20 19q2 0 21.5 1t42.5 3q27 2 59 4q4 29 9 51q4 20 6 37.5t0 22.5q-2 2 -21.5 5t-42.5 5q-27 2 -59 4q-8 6 -15 12q-14 10 -16 10t-2 34t1 75t3 76t4 35t13.5 6t23.5 12l33 16l106 -12q41 -4 75 -8t38 0q4 2 10 -9.5t15 -25.5 q8 -16 20 -39q-8 -90 -14 -162q-4 -61 -9.5 -112t-5.5 -56q0 -4 -13 -24.5t-37.5 -45t-57.5 -44t-74 -19.5q-82 2 -103.5 1t-23.5 5q-2 2 -4 20.5t-3 40t-1 40z" />
<glyph unicode="&#x201a;" horiz-adv-x="540" d="M84 -172q0 18 2 22q6 14 20 19q2 0 21.5 1t42.5 3q27 2 59 4q4 29 9 51q4 20 6 38t0 22q-2 2 -21.5 5t-42.5 5q-27 2 -59 4q-8 6 -15 12q-14 10 -16 11q-2 0 -2 33.5t1 74.5t3 76t4 35t13.5 6t23.5 12l33 17l106 -13q41 -4 75 -8t38 0q4 2 10 -9t15 -26q8 -16 20 -39 q-8 -90 -14 -161q-4 -61 -9.5 -112.5t-5.5 -55.5t-13 -24.5t-37.5 -45.5t-57.5 -44.5t-74 -19.5q-82 2 -103.5 1t-23.5 6q-2 2 -4 20.5t-3 40t-1 39.5z" />
<glyph unicode="&#x201c;" horiz-adv-x="1036" d="M80 1333q0 2 11 21.5t30.5 42t50.5 43t72 24.5q80 8 101.5 12.5t23.5 -1.5q2 -2 7 -19.5t9 -39t6 -40t0 -22.5q-4 -16 -16 -21q-4 -2 -22.5 -5t-41.5 -7l-57 -12q-2 -23 -2 -41v-30q0 -13 2 -15q2 -4 22.5 -5t42.5 -4q27 -2 60 -2q6 -6 14 -10q6 -4 11.5 -7t7.5 -1 q2 0 6 -29.5t9 -66.5t7 -69t0 -34q-4 -2 -14 -9t-21 -17l-28 -25q-59 0 -109 -2q-41 -2 -75.5 -3t-36.5 -3q-4 -4 -11.5 5t-17.5 24q-10 14 -25 36q-4 90 -8 162q-4 61 -6 113.5t-2 56.5zM541 1044q8 90 14 162q4 61 8 112.5t6 55.5q0 2 13.5 23.5t38 46t57.5 44t74 19.5 q41 -2 65 -2h38q13 0 18.5 -1t5.5 -3q2 -4 4 -21.5t3 -39t1 -40t-2 -22.5q-6 -14 -21 -18q-4 -2 -22.5 -2t-40.5 -2q-27 -2 -60 -4l-8 -54q-4 -20 -6 -36.5t0 -20.5t21.5 -6t42.5 -4q27 -2 59 -4q6 -6 14 -13q4 -4 9.5 -8t7.5 -2q2 0 2 -33.5t-1 -74.5t-3 -76t-5 -35 l-36 -18l-33 -17l-107 13q-41 4 -75.5 7t-36.5 1q-4 -4 -11.5 8t-15.5 27t-18 38z" />
<glyph unicode="&#x201d;" horiz-adv-x="1036" d="M84 995.5q0 18.5 2 22.5q6 14 20 18q2 0 21.5 1t42.5 3q27 2 59 4q4 29 9 52q4 20 6 37.5t0 21.5q-2 2 -21.5 5t-42.5 5q-27 2 -59 4q-8 6 -15 13q-14 10 -16 10t-2 34t1 74.5t3 75.5t4 35t13.5 6t23.5 13l33 16l106 -12q41 -4 75 -8.5t38 -0.5q4 2 10 -9t15 -25 q8 -16 20 -39q-8 -90 -14 -162q-4 -61 -9.5 -112.5t-5.5 -55.5t-13 -24.5t-37.5 -45t-57.5 -44t-74 -19.5q-82 2 -103.5 1t-23.5 5q-2 2 -4 20.5t-3 40t-1 40zM537 1367q-2 32 0 34q2 0 13 8t21 18l29 25q59 0 109 2q41 2 74.5 2t37.5 4q2 4 10.5 -7t18.5 -23q10 -16 24 -35 l9 -164q4 -61 6 -112.5t2 -55.5t-11.5 -22.5t-31 -41t-50 -43t-71.5 -24.5q-80 -8 -101.5 -12.5t-23.5 2.5q-2 2 -7 19t-9 38.5t-6 40t0 22.5q4 16 16 21q2 0 21.5 4t41.5 8l58 12q2 23 2 41v29q0 12 -2 17q-4 2 -23.5 4t-42.5 4q-27 2 -59 2q-6 6 -14 10q-16 8 -19 8 q-2 0 -6 30t-9 66.5t-7 68.5z" />
<glyph unicode="&#x201e;" horiz-adv-x="1036" d="M84 -172q0 18 2 22q6 14 20 19q2 0 21.5 1t42.5 3q27 2 59 4q4 29 9 51q4 20 6 38t0 22q-2 2 -21.5 5t-42.5 5q-27 2 -59 4q-8 6 -15 12q-14 10 -16 11q-2 0 -2 33.5t1 74.5t3 76t4 35t13.5 6t23.5 12l33 17l106 -13q41 -4 75 -8t38 0q4 2 10 -9t15 -26q8 -16 20 -39 q-8 -90 -14 -161q-4 -61 -9.5 -112.5t-5.5 -55.5t-13 -24.5t-37.5 -45.5t-57.5 -44.5t-74 -19.5q-82 2 -103.5 1t-23.5 6q-2 2 -4 20.5t-3 40t-1 39.5zM537 199.5q-2 31.5 0 33.5q2 0 13 8.5t21 18.5l29 25q59 0 109 2q41 2 74.5 2t37.5 4q2 4 10.5 -7.5t18.5 -23.5 q10 -16 24 -35l9 -164q4 -61 6 -112t2 -55t-11.5 -22.5t-31 -41t-50 -43t-71.5 -25.5q-80 -8 -101.5 -12t-23.5 2q-2 2 -7 19.5t-9 39t-6 40t0 22.5q4 16 16 21q2 0 21.5 4t41.5 8l58 12q2 23 2 41v29q0 12 -2 16q-4 2 -23.5 4t-42.5 4q-27 2 -59 2q-6 6 -14 11q-16 8 -19 8 q-2 0 -6 29.5t-9 66.5t-7 68.5z" />
<glyph unicode="&#x2022;" d="M238 774q0 35 29.5 76t49.5 82q35 2 70 6q29 2 58.5 4t46.5 4q16 6 38.5 5t42.5 3l66 -12q0 -4 17.5 -10t38 -15.5t38 -20.5t19.5 -24q6 -39 12 -95t6 -89v-166q-23 -18 -48.5 -43.5t-35.5 -29.5q-43 -16 -72.5 -20.5t-56.5 -4.5t-56.5 -1t-70.5 -7q-10 -2 -27.5 8 t-33.5 25l-13 4q-37 0 -60.5 48t-35.5 107.5t-17 109.5t-5 56z" />
<glyph unicode="&#x2026;" horiz-adv-x="1560" d="M100 162v102q14 10 29.5 26.5t22.5 18.5q10 6 17 6t28 4q16 4 29.5 3.5t41.5 3.5q8 0 19.5 2t19.5 2q6 0 16.5 -6.5t20.5 -14.5q4 0 3 -2t5 -2q23 0 37 -29.5t21.5 -64.5t10.5 -66.5t3 -33.5q0 -23 -17.5 -47.5t-31.5 -49.5q-23 -2 -43 -4q-16 -2 -33.5 -3t-28.5 -3 q-16 -2 -33.5 1t-56.5 3q0 2 -10 6t-22.5 9.5t-23.5 12.5t-13 15q-4 23 -7.5 58t-3.5 53zM621 162v102q14 10 29.5 26.5t21.5 18.5q10 6 17 6t28 4q16 4 29.5 3.5t41.5 3.5q8 0 19.5 2t19.5 2q6 0 16.5 -6.5t20.5 -14.5q4 0 3 -2t5 -2q23 0 37.5 -29.5t21.5 -64.5t10 -66.5 t3 -33.5q0 -23 -17.5 -47.5t-31.5 -49.5q-23 -2 -43 -4q-16 -2 -33.5 -3t-27.5 -3q-16 -2 -34 1t-57 3q0 2 -10 6t-22.5 9.5t-23.5 12.5t-13 15q-4 23 -7 58t-3 53zM1141 162v102q14 10 29.5 26.5t21.5 18.5q10 6 17.5 6t27.5 4q16 4 29.5 3.5t42.5 3.5q8 0 19 2t20 2 q6 0 16 -6.5t20 -14.5q4 0 3 -2t6 -2q23 0 37 -29.5t21 -64.5t10 -66.5t3 -33.5q0 -23 -17 -47.5t-32 -49.5q-23 -2 -43 -4q-16 -2 -33.5 -3t-27.5 -3q-16 -2 -33.5 1t-56.5 3q0 2 -10.5 6t-22.5 9.5t-23.5 12.5t-13.5 15q-4 23 -7 58t-3 53z" />
<glyph unicode="&#x2039;" horiz-adv-x="458" d="M76 348q0 -2 0 7v22v22q0 10 2 13q-2 2 2 10t9 17.5t9 17.5t4 12q33 66 74 143.5t100 137.5q6 2 18.5 1t16.5 -3q8 -2 10.5 -3.5t12.5 3.5q-2 0 6 -13q4 -6 6 -12q2 0 6 -11.5t8.5 -25.5t7.5 -26.5t3 -14.5q-4 -123 -8.5 -193.5t-7.5 -108.5t-5 -52.5t-2 -22.5 q0 -4 1 -10t0 -19.5t-2 -36t-3 -59.5q-4 -2 -5 -13t-2 -25.5t-3 -30t-4 -23.5q-4 -8 -22.5 -15t-31.5 -13q-18 12 -26 25t-29 24z" />
<glyph unicode="&#x203a;" horiz-adv-x="579" d="M164 610q0 6 10 26.5t14 22.5l9 13q2 2 2 4t2 4q0 2 2 4q10 -4 12 -3t10 1q4 2 16.5 3t18.5 -1q6 0 22.5 -22.5t36 -49t35 -49t17.5 -22.5q0 -4 8 -22.5t18.5 -40t18.5 -38t10 -16.5q-2 -4 2 -12.5t9 -17.5t9.5 -17t2.5 -10q2 -2 1 -12.5t-2.5 -23t-1.5 -21.5t0 -7 l-153 -272q-20 -10 -29.5 -22.5t-27.5 -24.5q-12 6 -31 14t-23 16l-9 37q-5 20 -1 55q0 51 -1 85t-3 82.5t-3 125t-1 211.5z" />
<glyph unicode="&#x20ac;" horiz-adv-x="1167" d="M29 477v105l14 51h131l2 129v6h-90l-49 35v90v63v56h151v78q18 49 41 85.5t41.5 61.5t30.5 37l12 12q0 12 22.5 32.5t51.5 39.5q33 23 76 45q8 0 7 -2t1 -2q10 16 33.5 19t40.5 12l-4 4h2l4 -2h5q3 0 3 6q0 4 -1 2t-5 0l12 6q-2 -4 0 -8q4 0 7 3t-1 7q6 -4 13.5 -2 t13.5 4l-2 -2q-2 0 -2 -1t-2 -1q6 0 23.5 -1t38 -1t36.5 3t19 9q0 -4 3 -3t5 -1h387q2 -8 12 -18l-4 -9q-8 6 -10 5q2 -4 15 -13.5t22 -17.5q-4 0 -6.5 -35t-3.5 -76t-1 -77.5t-2 -39.5q-4 2 -11 -2l-14 -8q-7 -4 -14.5 -6t-9.5 2h-22h-57h-73q-40 0 -74 1t-57 1h-26 q0 4 2 6t2 6q-2 0 -8 -6l-4 6l-4 -6q2 0 7 -6t11 -8v-2q-8 2 -16.5 5t-18.5 -1q0 10 -2 12q-2 -2 -3 -7t-9 -5q-4 0 -2 3t-2 3q-6 0 -6 -3t-2 1q2 4 4 6t0 6q-12 -8 -15 -16q-4 4 -3 5t-5 1q-8 0 -4 -3t-4 -3q-4 0 -1 3t-3 3t-2 -3t0 -3q-8 0 -4 3t-2 3t-5 -1t1 -5 q-4 4 -6.5 8t-6.5 8q-2 -6 -8 -8l10 -4q-18 -4 -40.5 -6t-28.5 -2t-16.5 5t-14.5 9q-4 -4 -9 -7t-11 -3q-2 -2 -3 0q-2 0 -2 8q0 6 1 6t6 2l-13 2q4 -8 -4 -18q-4 8 0 16q-6 6 -10 7q-6 -10 0 -23h-39v-26q0 -19 2 -41.5t3 -42t1 -21.5t16.5 -4t34.5 -2h35h21l43 2 q2 0 23.5 1t54 2t72.5 2t83 3q14 -16 31.5 -36.5t19.5 -26.5q0 -6 -1 -9.5t-1 -11.5q2 -4 -2 -6t-6 -4l4 -4q2 -2 4 -8q0 -6 -1 -11.5t-1 -11.5q2 -6 -2 -4t-8 0l8 -4q4 -2 6 -8q0 -8 -2 -11.5t0 -9.5q-14 0 -16 2l-4 -8q2 -2 16 4q-2 -4 6 -12q-6 -10 -13 -12.5t-15 -12.5 q2 -2 6 0t10 2q-14 -10 -32.5 -26.5t-24.5 -16.5t-9.5 4t-9.5 4q-6 -2 -7 -3l-3 -3l-2 6q0 6 -4 9q-4 -4 -8 -4t-8 -5q6 0 12 -6q-16 4 -43 5t-31 -1q-6 0 -4 -1t4 -5l-205 -14q-4 2 -8 6q-8 6 -6 8l-6 8q0 -2 -6 -5t2 -7q-4 -2 -4 -4t-7 -2q-4 0 -6 -16.5t-2 -36t2 -35.5 l2 -16q39 -4 99.5 1t118 8t99.5 0t44 -22q0 -2 16.5 -15t18.5 -24q0 -4 1 -19t1 -33.5t1 -34t1 -19.5q0 -6 -11.5 -19.5t-27 -26.5t-27.5 -24l-12 -10l-270 -4l-45 -16l8 -54q-2 -6 1 -19t7 -25.5t9 -18.5t9 4q6 0 13.5 -3t26 -8t54 -9.5t99.5 -4.5q2 2 5 4t3 7l365 -7 l20 -202q-8 -25 -16 -45q-8 -16 -20.5 -30.5t-28.5 -12.5q-10 2 -47 1t-86.5 -1t-103.5 -1t-101 0t-81 3t-42 8q0 4 -2 10t-20.5 16.5t-61.5 25.5t-125 38v8q0 4 4 6q-12 4 -43 33t-64.5 72t-63.5 93t-38 97h-129z" />
<glyph unicode="&#x2122;" horiz-adv-x="1521" d="M33 1237q0 4 1 32.5t3 57.5q-8 27 7 47.5t38 36.5l16 -2h25q78 -2 139 -2q27 0 50.5 -1t43.5 -1h43q23 0 44.5 -6t45.5 2q25 2 39 2h43q18 -8 37 -19.5t35 -23.5q-4 -45 -2 -53.5t2 -10.5q-2 -8 -9 -24.5t-15.5 -32.5t-17.5 -30.5t-15 -16.5h-117q-29 6 -29 -18l-10 -494 q4 -14 -19.5 -35.5t-37.5 -30.5q-16 0 -29.5 -6t-36.5 4h-47q-8 8 -25.5 23.5t-19.5 26.5l6 362l15 166h-23h-10q-6 0 -19.5 1t-19.5 1h-16q-9 0 -58 4q-4 4 -20.5 9t-30.5 16q-6 6 -6 16zM742 1032q-1 12 0 31.5t8 54.5q2 12 2 51v80q-6 20 -6.5 43t2.5 60q0 4 13 12t13 12 t10.5 6t20.5 7q10 4 28.5 0.5t40.5 -0.5l9 -3q27 -20 60.5 -48.5t66 -59.5t59.5 -62.5t39 -56.5q4 2 5 3t5 3q6 12 19.5 34t29 48.5t30.5 54t26 50.5q8 16 23 22l26 10q8 6 14 7.5t17 1.5q12 -8 26 -3t37 1h12q4 0 12.5 -8.5t16.5 -17.5t14 -19.5t4 -12.5l-14 -635 q2 -10 -10 -23t-23 -24l-35 -2h-39q-11 0 -16.5 -1t-6.5 -2t-7 1q-10 4 -24.5 19.5t-18.5 31.5l4 289q2 10 2 28.5t2 24.5l-2 9h-2q-16 -16 -27.5 -37t-24 -41.5t-27.5 -40t-40 -37.5h-12q-16 -4 -34.5 2t-14.5 6q-29 16 -55.5 52t-36.5 61l-15 10q-4 4 -3 6t-9 6 q-2 -2 -2 -16l10 -84l4 -225q0 -6 -1 -19.5t-7 -27t-17.5 -23.5t-29.5 -10q-6 0 -7 -1t-5 -1h-19l-10 2q-6 0 -11 1t-46 -3q-6 4 -8.5 5t-10.5 9q-10 4 -18 7t-13 14q2 39 3.5 59t0.5 29.5t-2.5 12.5t1.5 7v14q2 16 2 20.5t-1 18t-1 49.5v121q0 10 -2.5 17.5t-3.5 19.5z" />
<glyph unicode="&#xe000;" horiz-adv-x="1370" d="M0 1370h1370v-1370h-1370v1370z" />
<glyph unicode="&#xfb01;" horiz-adv-x="1638" d="M59 1296q0 6 25 33t41 49l41 2q20 2 27.5 -3t23.5 3h33h10h13q9 0 26.5 1t50.5 5q4 -4 48 -3t108.5 4.5t138.5 7.5t136.5 8t102.5 5t36 -1q31 2 52 -15.5t34.5 -41t19.5 -44t6 -24.5q2 -25 1 -39t-8 -26.5t-24.5 -27.5t-50.5 -42q-6 -2 -47 0t-93 3t-103.5 1t-77.5 -6 q-14 -4 -61.5 -1t-82.5 7q-23 -10 -25.5 -9t-10.5 -5q-10 0 -15.5 -7.5t-6.5 -16.5t-1 -17v-11v-21q0 -17 1 -41t3 -50.5t4 -44.5q4 -16 27.5 -35t44.5 -16q6 0 37.5 -1.5t77 -2.5t96.5 -1t95 1t73.5 3.5t34.5 8.5l36 2q12 -29 26.5 -54.5t16.5 -48.5v-7q0 -3 1 -13 t2.5 -29.5t1.5 -54.5q-2 -18 -32 -43t-50 -33q-27 -4 -72 -3t-94 3t-91 3t-63 -3q0 2 -16.5 1t-39 -1t-46 -1t-37.5 1q-4 0 -14.5 -3t-8.5 -13l9 -199l4 -297q-4 -23 -22.5 -53.5t-29.5 -48.5h-28q-18 -4 -49 -4t-58.5 1t-45 2t-9.5 1v-2q-29 -2 -40 1t-19.5 13t-19.5 28.5 t-36 49.5l-14 805zM1167 115l13 227q4 72 10 115t10 82q2 35 -4 55t-6 29q0 55 1 108t1 96v72q0 29 -2 35l16 311q0 27 -1 46.5t4 38t21.5 36.5t53.5 45q37 -2 56.5 -3t29.5 -1t12 1t4 3q25 -4 49.5 -20.5t44 -38t33 -44t17.5 -36.5l-25 -1114q-4 -10 -12 -33t-18.5 -45.5 t-22.5 -39.5t-22 -17q-6 0 -7.5 -3.5t-11.5 -3.5q-6 0 -24.5 5.5t-26.5 5.5q-23 0 -55.5 2t-63.5 10t-52.5 26.5t-21.5 49.5z" />
<glyph unicode="&#xfb02;" horiz-adv-x="2091" d="M59 1296q0 6 25 33t41 49l41 2q20 2 27.5 -3t23.5 3h33h10h13q9 0 26.5 1t50.5 5q4 -4 48 -3t108.5 4.5t138.5 7.5t136.5 8t102.5 5t36 -1q31 2 52 -15.5t34.5 -41t19.5 -44t6 -24.5q2 -25 1 -39t-8 -26.5t-24.5 -27.5t-50.5 -42q-6 -2 -47 0t-93 3t-103.5 1t-77.5 -6 q-14 -4 -61.5 -1t-82.5 7q-23 -10 -25.5 -9t-10.5 -5q-10 0 -15.5 -7.5t-6.5 -16.5t-1 -17v-11v-21q0 -17 1 -41t3 -50.5t4 -44.5q4 -16 27.5 -35t44.5 -16q6 0 37.5 -1.5t77 -2.5t96.5 -1t95 1t73.5 3.5t34.5 8.5l36 2q12 -29 26.5 -54.5t16.5 -48.5v-7q0 -3 1 -13 t2.5 -29.5t1.5 -54.5q-2 -18 -32 -43t-50 -33q-27 -4 -72 -3t-94 3t-91 3t-63 -3q0 2 -16.5 1t-39 -1t-46 -1t-37.5 1q-4 0 -14.5 -3t-8.5 -13l9 -199l4 -297q-4 -23 -22.5 -53.5t-29.5 -48.5h-28q-18 -4 -49 -4t-58.5 1t-45 2t-9.5 1v-2q-29 -2 -40 1t-19.5 13t-19.5 28.5 t-36 49.5l-14 805zM1167 1220.5q0 49.5 7 90.5q2 10 4 27.5t-2 31.5q2 20 28.5 44t40.5 28q16 4 31.5 4t52.5 4q16 4 30.5 3t31.5 -3q10 -10 23 0t36 10q14 0 25.5 -15t18.5 -34.5t12 -37t7 -23.5v-838q0 -12 1.5 -29.5t4.5 -35t11 -31t24 -15.5l21 -2q6 0 16.5 -5t16.5 -5 q2 0 50 -1t105 -1h105q47 0 45 2l33 4q25 0 40 -12t23 -27.5t11 -29t3 -17.5q-2 -8 -6 -47t-8 -125q-2 -12 -11 -21.5t-23.5 -17.5t-29 -15t-26.5 -15q-23 -2 -41 -2.5t-52 -1.5t-91.5 -2t-155.5 -3q-43 2 -56.5 3t-9.5 3q-20 -2 -54 -3t-42 -1q-10 0 -20.5 2t-57.5 5 q-10 0 -12 1t-18 1h-43q-4 0 -17.5 9t-28 22.5t-25.5 28.5t-11 30q2 63 8 123.5t-8 111.5q0 6 -5 15.5t-5 15.5q2 51 1 69.5t-1 28.5t5 30.5t1 33.5q0 6 -1 32.5t-3 60.5t-3.5 67.5t-1.5 56.5q0 6 4.5 10t4.5 12v14v25q0 14 1 27.5t3 19.5q0 -2 -13 29q2 37 1 84t-3 97 t-2 99.5z" />
<glyph unicode="&#xfb03;" horiz-adv-x="2699" d="M2228 115l13 227q4 72 10 115t10 82q2 35 -4 55t-6 29q0 55 1 108t1 96v72q0 29 -2 35l16 311q0 27 -1 46.5t4.5 38t21.5 36.5t53 45q37 -2 56.5 -3t29.5 -1t12.5 1t4.5 3q25 -4 49 -20.5t43.5 -38t33 -44t17.5 -36.5l-25 -1114q-4 -10 -12 -33t-18.5 -45.5t-22.5 -39.5 t-22 -17q-6 0 -7.5 -3.5t-11.5 -3.5q-6 0 -24.5 5.5t-26.5 5.5q-23 0 -55.5 2t-63 10t-52.5 26.5t-22 49.5zM1120 1296q0 6 25 33t41 49l41 2q20 2 27.5 -3t23.5 3h33h10h13q9 0 26.5 1t50.5 5q4 -4 48 -3t108.5 4.5t138.5 7.5t136.5 8t102.5 5h21q17 0 15 -1q31 2 52 -15.5 t34.5 -41t19.5 -44t6 -24.5q1 -16 2 -28q0 -6 -1 -11q-1 -14 -8 -26.5t-24.5 -27.5t-50.5 -42q-6 -2 -47 0t-93 3t-103.5 1t-77.5 -6q-14 -4 -61.5 -1t-82.5 7q-23 -10 -25.5 -9t-10.5 -5q-10 0 -15.5 -7.5t-6.5 -16.5t-1 -17v-11v-21q0 -17 1 -41t3 -50.5t4 -44.5 q4 -16 27.5 -35t44.5 -16q6 0 37.5 -1.5t77 -2.5t96.5 -1t95 1t73.5 3.5t34.5 8.5l36 2q12 -29 26.5 -54.5t16.5 -48.5v-7q0 -3 1 -13t2.5 -29.5t1.5 -54.5q-2 -18 -32 -43t-50 -33q-21 -3 -55 -3h-17q-45 1 -94 3t-91 3t-63 -3q0 2 -16.5 1t-39 -1t-46 -1t-37.5 1 q-4 0 -14.5 -3t-8.5 -13l9 -199l4 -297q-4 -23 -22.5 -53.5t-29.5 -48.5h-28q-18 -4 -49 -4t-58.5 1t-45 2t-9.5 1v-2q-29 -2 -40 1t-19.5 13t-19.5 28.5t-36 49.5l-14 805zM59 1296q0 6 25 33t41 49l41 2q20 2 27.5 -3t23.5 3h33h10h13q9 0 26.5 1t50.5 5q4 -4 48 -3 t108.5 4.5t138.5 7.5t136.5 8t102.5 5h21q17 0 15 -1q31 2 52 -15.5t34.5 -41t19.5 -44t6 -24.5q1 -16 2 -28q0 -6 -1 -11q-1 -14 -8 -26.5t-24.5 -27.5t-50.5 -42q-6 -2 -47 0t-93 3t-103.5 1t-77.5 -6q-14 -4 -61.5 -1t-82.5 7q-23 -10 -25.5 -9t-10.5 -5 q-10 0 -15.5 -7.5t-6.5 -16.5t-1 -17v-11v-21q0 -17 1 -41t3 -50.5t4 -44.5q4 -16 27.5 -35t44.5 -16q6 0 37.5 -1.5t77 -2.5t96.5 -1t95 1t73.5 3.5t34.5 8.5l36 2q12 -29 26.5 -54.5t16.5 -48.5v-7q0 -3 1 -13t2.5 -29.5t1.5 -54.5q-2 -18 -32 -43t-50 -33q-21 -3 -55 -3 h-17q-45 1 -94 3t-91 3t-63 -3q0 2 -16.5 1t-39 -1t-46 -1t-37.5 1q-4 0 -14.5 -3t-8.5 -13l9 -199l4 -297q-4 -23 -22.5 -53.5t-29.5 -48.5h-28q-18 -4 -49 -4t-58.5 1t-45 2t-9.5 1v-2q-29 -2 -40 1t-19.5 13t-19.5 28.5t-36 49.5l-14 805z" />
<glyph unicode="&#xfb04;" horiz-adv-x="3135" d="M2228 1220.5q0 49.5 7 90.5q2 10 4 27.5t-2 31.5q2 20 28.5 44t40.5 28q16 4 31.5 4t52.5 4q16 4 30.5 3t31.5 -3q10 -10 23.5 0t35.5 10q14 0 25.5 -15t18.5 -34.5t12.5 -37t7.5 -23.5v-838q0 -12 1 -29.5t4 -35t11 -31t25 -15.5l20 -2q6 0 16.5 -5t16.5 -5q2 0 50 -1 t105 -1h105q47 0 45 2l33 4q25 0 40 -12t23 -27.5t11.5 -29t3.5 -17.5q-2 -8 -6.5 -47t-8.5 -125q-2 -12 -11 -21.5t-23.5 -17.5t-29 -15t-26.5 -15q-23 -2 -41 -2.5t-52 -1.5t-91.5 -2t-155.5 -3q-43 2 -56 3t-9 3q-20 -2 -54 -3t-43 -1q-10 0 -20 2t-57 5q-10 0 -12.5 1 t-18.5 1h-43q-4 0 -17.5 9t-28 22.5t-25.5 28.5t-11 30q2 63 8 124q2 18 2 35q0 40 -10 76q0 6 -5 15.5t-5 15.5q1 34 1 54v16q-1 18 -1 28t5 30.5t1 33.5q0 6 -1 32.5t-3 60.5t-3 67.5t-1 56.5q0 6 4 10t4 12v14v25q0 14 1 27.5t3 19.5q0 -2 -12 29q1 25 1 54v30 q-1 47 -3.5 97t-2.5 99.5zM1120 1296q0 6 25 33t41 49l41 2q20 2 27.5 -3t23.5 3h33h10h13q9 0 26.5 1t50.5 5q4 -4 48 -3t108.5 4.5t138.5 7.5t136.5 8t102.5 5h21q17 0 15 -1q31 2 52 -15.5t34.5 -41t19.5 -44t6 -24.5q1 -16 2 -28q0 -6 -1 -11q-1 -14 -8 -26.5 t-24.5 -27.5t-50.5 -42q-6 -2 -47 0t-93 3t-103.5 1t-77.5 -6q-14 -4 -61.5 -1t-82.5 7q-23 -10 -25.5 -9t-10.5 -5q-10 0 -15.5 -7.5t-6.5 -16.5t-1 -17v-11v-21q0 -17 1 -41t3 -50.5t4 -44.5q4 -16 27.5 -35t44.5 -16q6 0 37.5 -1.5t77 -2.5t96.5 -1t95 1t73.5 3.5 t34.5 8.5l36 2q12 -29 26.5 -54.5t16.5 -48.5v-7q0 -3 1 -13t2.5 -29.5t1.5 -54.5q-2 -18 -32 -43t-50 -33q-21 -3 -55 -3h-17q-45 1 -94 3t-91 3t-63 -3q0 2 -16.5 1t-39 -1t-46 -1t-37.5 1q-4 0 -14.5 -3t-8.5 -13l9 -199l4 -297q-4 -23 -22.5 -53.5t-29.5 -48.5h-28 q-18 -4 -49 -4t-58.5 1t-45 2t-9.5 1v-2q-29 -2 -40 1t-19.5 13t-19.5 28.5t-36 49.5l-14 805zM59 1296q0 6 25 33t41 49l41 2q20 2 27.5 -3t23.5 3h33h10h13q9 0 26.5 1t50.5 5q4 -4 48 -3t108.5 4.5t138.5 7.5t136.5 8t102.5 5h21q17 0 15 -1q31 2 52 -15.5t34.5 -41 t19.5 -44t6 -24.5q1 -16 2 -28q0 -6 -1 -11q-1 -14 -8 -26.5t-24.5 -27.5t-50.5 -42q-6 -2 -47 0t-93 3t-103.5 1t-77.5 -6q-14 -4 -61.5 -1t-82.5 7q-23 -10 -25.5 -9t-10.5 -5q-10 0 -15.5 -7.5t-6.5 -16.5t-1 -17v-11v-21q0 -17 1 -41t3 -50.5t4 -44.5q4 -16 27.5 -35 t44.5 -16q6 0 37.5 -1.5t77 -2.5t96.5 -1t95 1t73.5 3.5t34.5 8.5l36 2q12 -29 26.5 -54.5t16.5 -48.5v-7q0 -3 1 -13t2.5 -29.5t1.5 -54.5q-2 -18 -32 -43t-50 -33q-21 -3 -55 -3h-17q-45 1 -94 3t-91 3t-63 -3q0 2 -16.5 1t-39 -1t-46 -1t-37.5 1q-4 0 -14.5 -3t-8.5 -13 l9 -199l4 -297q-4 -23 -22.5 -53.5t-29.5 -48.5h-28q-18 -4 -49 -4t-58.5 1t-45 2t-9.5 1v-2q-29 -2 -40 1t-19.5 13t-19.5 28.5t-36 49.5l-14 805z" />
</font>
</defs>
</svg>
