<?xml version="1.0" standalone="no"?>
<!DOCTYPE svg PUBLIC "-//W3C//DTD SVG 1.1//EN" "http://www.w3.org/Graphics/SVG/1.1/DTD/svg11.dtd" >
<svg xmlns="http://www.w3.org/2000/svg">
<metadata></metadata>
<defs>
<font id="AFBatterseaRegular" horiz-adv-x="854" >
<font-face units-per-em="2048" ascent="1638" descent="-410" />
<missing-glyph horiz-adv-x="512" />
<glyph unicode="&#xfb01;" horiz-adv-x="858" d="M51 903v107h119v88q2 111 43 162t94 67q33 8 64.5 8t59.5 -6t50.5 -15t36.5 -18l-55 -92q-74 27 -120 2.5t-42 -131.5l2 -65h451l2 -1010h-133l-2 901h-318v-901h-135v903h-117z" />
<glyph unicode="&#xfb02;" horiz-adv-x="983" d="M51 903v107h119v88q2 111 43 162t94 67q33 8 64.5 8t59.5 -6t50.5 -15t36.5 -18l-55 -92q-74 27 -120 2.5t-42 -131.5l2 -65h320v235l131 76v-1122q0 -45 17 -66.5t44 -27t55.5 6t51.5 33.5l30 -102q-35 -27 -70.5 -42t-101.5 -15q-29 0 -56.5 8t-51 31.5t-37.5 64.5 t-14 107l2 704h-320v-901h-135v903h-117z" />
<glyph horiz-adv-x="0" />
<glyph horiz-adv-x="2048" />
<glyph unicode=" "  horiz-adv-x="512" />
<glyph unicode="&#x09;" horiz-adv-x="512" />
<glyph unicode="&#xa0;" horiz-adv-x="512" />
<glyph unicode="!" horiz-adv-x="423" d="M102 90q0 43 32 74t77 31q47 0 79 -31t32 -74q0 -45 -32 -75.5t-79 -30.5q-45 0 -77 30.5t-32 75.5zM127 1319h174l-43 -985l-90 2z" />
<glyph unicode="&#x22;" horiz-adv-x="692" d="M102 1319h181l-47 -461h-86zM410 1319h180l-47 -461h-86z" />
<glyph unicode="#" horiz-adv-x="1765" d="M102 324l31 125h356l107 419h-352l30 127h355l82 320h133l-80 -320h403l82 320h135l-81 -320h360l-31 -127h-362l-107 -419h385l-28 -125h-390l-79 -322h-136l82 322h-405l-82 -322h-133l80 322h-355zM625 449h403l109 419h-406z" />
<glyph unicode="$" horiz-adv-x="870" d="M61 111l80 102q53 -53 126 -82t134 -29q59 0 110.5 17.5t86.5 52.5q23 23 39 52.5t23.5 63.5t4.5 67.5t-16 64.5q-23 51 -67.5 88t-96.5 67q-72 43 -149.5 80t-138.5 95q-49 47 -80 108.5t-33 147.5q-2 66 18.5 122t60.5 99t97 70.5t129 35.5v183h103v-183 q104 -6 167.5 -42t104.5 -79l-82 -92q-51 49 -108.5 75t-131.5 26q-53 0 -94 -17.5t-68.5 -46.5t-42 -66.5t-12.5 -78.5q2 -68 40 -116t92.5 -86t114.5 -67.5t110 -60.5q59 -35 109 -80t81 -106q64 -131 23 -256q-35 -106 -116 -168t-187 -80v-187h-103v181 q-119 4 -196.5 37.5t-131.5 87.5z" />
<glyph unicode="%" horiz-adv-x="1683" d="M102 985v59q0 154 81 224.5t223 70.5q141 0 223 -70.5t82 -224.5v-59q0 -152 -82 -222.5t-223 -70.5t-222.5 69.5t-81.5 223.5zM240 991q0 -98 45 -142t123 -44t121.5 44t43.5 142v47q0 98 -44 143.5t-121 45.5q-78 0 -123 -45t-45 -144v-47zM530 0l480 1317h137 l-477 -1317h-140zM973 279v61q0 152 81 222.5t222 70.5t223 -70.5t82 -222.5v-61q0 -152 -82 -222.5t-223 -70.5t-222 70.5t-81 222.5zM1110 285q0 -98 45 -142.5t123 -44.5t122 44t44 143v49q0 98 -44 142t-122 44t-123 -44t-45 -142v-49z" />
<glyph unicode="&#x26;" horiz-adv-x="1198" d="M102 338q0 57 10.5 109.5t40 99.5t84 92t142.5 92q-23 31 -40 51.5t-28 32.5q-12 14 -20 25q-12 16 -28.5 43.5t-31 59.5t-23.5 62.5t-7 53.5q8 135 95 207.5t232 72.5q55 0 99.5 -13t78 -34.5t60.5 -48t49 -55.5l-96 -88q-12 20 -32.5 41.5t-47.5 38t-55.5 28 t-55.5 11.5q-29 0 -60.5 -7.5t-57 -27t-43 -52t-17.5 -83.5q0 -25 14.5 -56.5t38 -66.5t53 -72t58.5 -74l582 -717l-101 -81l-145 172q-45 -49 -86 -81t-86 -51.5t-94 -27.5t-109 -8q-180 0 -276.5 91t-96.5 261zM250 336q0 -59 18.5 -102.5t50 -72t71.5 -43t83 -14.5 q82 0 152.5 35t132.5 117l-299 377q-47 -31 -86 -56.5t-66.5 -57.5t-42 -75t-14.5 -108z" />
<glyph unicode="'" horiz-adv-x="385" d="M102 1319h181l-47 -461h-86z" />
<glyph unicode="(" horiz-adv-x="661" d="M102 547q0 113 17.5 209t45.5 175t63.5 141.5t72.5 109.5q86 113 199 178l110 -41q-96 -88 -172 -203q-33 -49 -63.5 -110.5t-55 -133t-39 -153.5t-14.5 -174t14.5 -175t39 -155t55.5 -133.5t63 -110.5q76 -117 172 -204l-110 -41q-113 70 -199 182q-37 49 -72.5 111.5 t-63.5 141.5t-45.5 175t-17.5 211z" />
<glyph unicode=")" horiz-adv-x="661" d="M51 -233q96 88 172 204q33 49 63.5 110.5t55.5 133.5t39 155t14 175t-14 174t-39 153.5t-55.5 133t-63.5 110.5q-76 115 -172 203l111 41q111 -66 198 -178q37 -47 73 -109.5t63.5 -141.5t45 -175t17.5 -209q0 -115 -17.5 -211t-45 -175t-63.5 -141.5t-73 -111.5 q-88 -113 -198 -182z" />
<glyph unicode="*" horiz-adv-x="827" d="M102 1030l37 115l219 -72v246h113v-246l219 68l35 -115l-221 -61l158 -195l-93 -76l-157 197l-154 -191l-90 74l158 189z" />
<glyph unicode="+" horiz-adv-x="1013" d="M102 651v127h342v342h127v-342h340v-127h-340v-340h-127v340h-342z" />
<glyph unicode="," horiz-adv-x="442" d="M102 -172q12 8 30 23.5t34 37t27.5 46t11.5 53.5q-45 4 -67.5 34.5t-22.5 59.5q0 45 32.5 79t77.5 34q47 0 81 -37t34 -90q0 -63 -18.5 -109.5t-47 -81.5t-61.5 -60.5t-61 -43.5z" />
<glyph unicode="-" horiz-adv-x="806" d="M102 647v131h603v-131h-603z" />
<glyph unicode="." horiz-adv-x="423" d="M102 90q0 43 32 74t77 31q47 0 79 -31t32 -74q0 -45 -32 -75.5t-79 -30.5q-45 0 -77 30.5t-32 75.5z" />
<glyph unicode="/" horiz-adv-x="821" d="M102 0l480 1319h137l-477 -1319h-140z" />
<glyph unicode="0" horiz-adv-x="976" d="M102 287v747q0 74 34 131.5t88.5 95t123 57t139.5 19.5q72 0 141.5 -19.5t124 -57t88 -95t33.5 -131.5v-747q0 -74 -33.5 -131.5t-88 -95t-124 -57t-141.5 -19.5t-140 19.5t-122.5 57t-88.5 95t-34 131.5zM240 293q0 -53 26.5 -90t65.5 -60.5t82 -34t75 -10.5 q33 0 77 10.5t82 34t64.5 60.5t26.5 90v735q0 53 -26.5 90t-64.5 60.5t-82 34t-77 10.5t-75.5 -10.5t-81.5 -34t-65.5 -60.5t-26.5 -90v-735z" />
<glyph unicode="1" horiz-adv-x="899" d="M102 1042l332 277h133v-1190h230v-129h-596v129h235v1018l-250 -203z" />
<glyph unicode="2" horiz-adv-x="915" d="M102 1200q12 18 41 42t73 45.5t99.5 36.5t118.5 15q70 0 133.5 -19.5t110.5 -56t74.5 -90t27.5 -120.5v-199q0 -78 -48 -153.5t-103 -149.5l-324 -422h508v-129h-684v117l350 456q76 98 120 165t44 139v147q0 55 -20.5 91t-53 57.5t-70.5 30.5t-73 9q-57 0 -130 -27.5 t-118 -82.5z" />
<glyph unicode="3" horiz-adv-x="911" d="M102 109l74 100q47 -47 113.5 -75t124.5 -28q43 0 88 13.5t83 41t62.5 73t24.5 108.5v92q0 98 -72 155.5t-225 57.5v125q137 0 197.5 48t60.5 143v69q0 49 -17.5 84t-46 56.5t-64.5 31.5t-73 10q-29 0 -60.5 -9t-60 -23.5t-53.5 -31.5t-39 -32l-76 94q10 16 37 39 t65 42.5t86 32.5t103 13q70 0 131.5 -18t107.5 -55t71.5 -93.5t25.5 -132.5v-69q0 -102 -47 -172t-137 -80q59 -6 102 -35t69.5 -66.5t39 -79.5t12.5 -75v-139q0 -84 -33 -146.5t-86 -105.5t-120.5 -64.5t-137.5 -21.5q-121 0 -205 34.5t-125 88.5z" />
<glyph unicode="4" horiz-adv-x="1081" d="M102 449l545 870h148l2 -858h182v-121l-182 -2v-338h-131v338h-539zM250 459h416v715q-4 -20 -11 -41q-10 -37 -30 -72z" />
<glyph unicode="5" horiz-adv-x="909" d="M102 82l64 113q49 -39 122.5 -62.5t145.5 -23.5q35 0 76 13t77 40.5t60.5 69.5t24.5 98v190q0 49 -19.5 85t-50.5 60.5t-69.5 36t-75.5 11.5q-111 0 -199 -74l-96 51v629h612l-20 -129h-459v-395q41 25 85 34t81 9q68 0 131 -20.5t110.5 -61.5t76 -100.5t28.5 -135.5 v-205q0 -72 -29.5 -132t-82 -104t-121 -68.5t-144.5 -24.5q-117 0 -195.5 27.5t-132.5 68.5z" />
<glyph unicode="6" horiz-adv-x="935" d="M102 283v735q0 74 31 133t82 101t117.5 63.5t138.5 21.5q115 0 193.5 -38.5t119.5 -86.5l-69 -106q-47 49 -115 78.5t-123 29.5q-47 0 -90 -12t-75.5 -38.5t-52 -65.5t-19.5 -92v-238q47 35 118.5 57.5t137.5 22.5q70 0 132 -19.5t107 -57.5t72 -94t27 -132v-256 q0 -74 -31 -131.5t-81 -95t-116.5 -57t-138.5 -19.5q-80 0 -146.5 19.5t-114.5 57t-76 93t-28 127.5zM240 299q0 -53 20.5 -90t53 -59.5t73.5 -34t82 -11.5q35 0 75 10.5t73.5 34t56 59.5t22.5 87v244q0 51 -20.5 87t-51 57.5t-68.5 30.5t-73 9q-49 0 -93 -15.5t-79 -31.5 q-39 -23 -71 -47v-330z" />
<glyph unicode="7" horiz-adv-x="919" d="M102 1194l29 127l684 -2l2 -141l-416 -1178h-151l428 1194h-576z" />
<glyph unicode="8" horiz-adv-x="983" d="M102 317v68q0 35 11.5 80t37 89t67.5 80t104 52q-45 10 -79 40t-56.5 69t-34 81t-11.5 76v72q0 78 31 137.5t81 99t111.5 60t122.5 20.5t125 -19t115 -59t84 -99.5t33 -139.5v-72q0 -35 -11.5 -78t-34 -81.5t-58 -68.5t-85.5 -38q61 -12 104.5 -48t70 -80t39 -91 t12.5 -82v-63q0 -88 -32 -152t-86 -104.5t-125 -60t-146 -19.5q-78 0 -149 19.5t-124 59t-85 103t-32 149.5zM240 319q0 -51 20.5 -91t55 -67.5t79.5 -43t97 -15.5q106 0 178.5 57.5t72.5 159.5v91q0 49 -21.5 88t-57 65.5t-81.5 39.5t-94 13q-47 0 -92 -14t-79.5 -39.5 t-56 -64.5t-21.5 -88v-91zM279 948q0 -47 18 -84t49 -62.5t69 -39.5t77 -14t76.5 14t68.5 39.5t49.5 62.5t18.5 84v90q0 47 -19.5 83t-50.5 59.5t-69 35t-74 11.5q-35 0 -73 -11.5t-69 -35t-51 -59.5t-20 -83v-90z" />
<glyph unicode="9" horiz-adv-x="935" d="M102 770v266q0 74 31 131.5t82 95t117.5 57t138.5 19.5q70 0 135.5 -20.5t115.5 -60t81 -97t31 -129.5v-743q0 -74 -31 -131.5t-81 -95t-116.5 -57t-138.5 -19.5q-125 0 -214 36.5t-130 83.5l74 103q53 -49 125.5 -78t150.5 -29q33 0 73 11.5t72.5 35t55 60.5t22.5 90 v256q-25 -18 -57.5 -33.5t-68 -25t-69.5 -14.5t-59 -5q-70 0 -132 17.5t-108 53.5t-73 91t-27 131zM240 776q0 -51 20.5 -85t52 -53.5t70.5 -27.5t74 -8q33 0 67.5 8t67.5 20.5t59.5 26t44.5 25.5v338q0 51 -22.5 89t-56 63.5t-73.5 38t-75 12.5t-76 -11.5t-74.5 -34 t-56 -59.5t-22.5 -88v-254z" />
<glyph unicode=":" horiz-adv-x="423" d="M102 92q0 43 32 74t77 31q47 0 79 -31t32 -74q0 -45 -32 -75.5t-79 -30.5q-45 0 -77 30.5t-32 75.5zM102 920q0 43 32 73.5t77 30.5q47 0 79 -30.5t32 -73.5q0 -45 -32 -76t-79 -31q-45 0 -77 30.5t-32 76.5z" />
<glyph unicode="&#x3c;" horiz-adv-x="1294" d="M102 715l486 493h182l-434 -430h856v-127h-850l434 -452h-188z" />
<glyph unicode="=" horiz-adv-x="1013" d="M102 328v129h809v-129h-809zM102 741v129h809v-129h-809z" />
<glyph unicode="&#x3e;" horiz-adv-x="1294" d="M102 651v127h856l-434 430h183l485 -493l-485 -516h-189l434 452h-850z" />
<glyph unicode="?" horiz-adv-x="907" d="M141 1198q18 25 48 50.5t70 45t88 32.5t104 13q90 0 160.5 -28.5t116.5 -81.5t65.5 -127t5.5 -162q-16 -92 -61.5 -146.5t-100.5 -95.5q-29 -23 -55.5 -43t-49 -43.5t-36 -54.5t-13.5 -70v-141h-135v129q0 92 33 152.5t92 109.5q33 27 66.5 50.5t61.5 53t46.5 66.5 t18.5 88q0 61 -19.5 104.5t-49.5 69t-65.5 37t-70.5 11.5q-88 0 -146.5 -37t-93.5 -78zM301 92q0 43 32 74t77 31q47 0 77.5 -31t30.5 -74q0 -45 -30.5 -75.5t-77.5 -30.5q-45 0 -77 30.5t-32 75.5z" />
<glyph unicode="@" horiz-adv-x="1523" d="M102 651q0 145 51.5 270.5t141.5 216.5t212 143t263 52q174 0 298 -59.5t203 -149.5t114.5 -197.5t35.5 -203.5q0 -80 -24.5 -158t-69.5 -138t-107.5 -98t-138.5 -38q-55 0 -103 22.5t-69 71.5q-33 -39 -90 -66.5t-131 -27.5q-43 0 -86 14t-75.5 43t-54 71t-21.5 95v250 q0 131 73.5 197.5t182.5 66.5q47 0 98 -18.5t96 -53.5l57 54h64v-527q0 -33 19.5 -55t48.5 -25q49 -2 86.5 29t65.5 79t42 105.5t14 108.5q0 94 -33.5 184t-100 159t-164 111t-224.5 42q-137 0 -239.5 -48.5t-171 -127t-103.5 -179t-35 -204.5t35 -206t105.5 -180.5 t177 -127t248.5 -48.5q106 0 207.5 36t179.5 106h166q-113 -131 -255.5 -193.5t-295.5 -62.5q-141 0 -267.5 44t-220.5 129t-149.5 209t-55.5 283zM584 530q0 -59 37.5 -87.5t83.5 -28.5q45 0 79.5 14t59.5 31q29 20 49 47v325q-33 18 -66 35q-29 14 -58.5 25.5t-53.5 11.5 q-53 0 -92 -38t-39 -97v-238z" />
<glyph unicode="A" horiz-adv-x="983" d="M31 0l375 1319h192l375 -1319h-154l-106 403h-432l-107 -403h-143zM313 532h367l-166 625h-35z" />
<glyph unicode="B" horiz-adv-x="935" d="M102 0v1319h381q72 0 132.5 -20.5t104.5 -59.5t68.5 -94t24.5 -125v-74q0 -35 -10 -71.5t-30.5 -70.5t-51.5 -58.5t-74 -34.5q57 -12 97 -40t65 -63t35 -75.5t10 -77.5v-136q0 -80 -30.5 -140t-83 -100t-119 -59.5t-138.5 -19.5h-381zM236 129h202q45 0 93.5 8t88 29.5 t65.5 59.5t26 98v116q0 37 -15.5 73t-42 63.5t-64.5 44t-83 16.5h-268zM236 1190l2 -422h206q45 0 86 9t72 31.5t49.5 61.5t18.5 101v45q0 174 -211 174h-223z" />
<glyph unicode="C" horiz-adv-x="837" d="M82 276v736q0 74 30.5 134t83 103t121 66.5t142.5 23.5q113 0 197.5 -37.5t125.5 -87.5l-71 -104q-25 27 -55.5 46.5t-64.5 31.5t-68 18t-60 6q-41 0 -84 -12t-78 -38.5t-58.5 -65.5t-23.5 -92v-709q0 -53 26.5 -90t66.5 -59.5t83 -33t78 -10.5q27 0 63.5 6.5t76.5 18.5 t79 29.5t70 40.5l45 -115q-59 -41 -147.5 -69.5t-206.5 -28.5q-72 0 -138.5 18t-119 55t-83 92.5t-30.5 126.5z" />
<glyph unicode="D" horiz-adv-x="985" d="M102 0v1319l416 -2q74 0 143.5 -25.5t123 -71.5t86 -111t32.5 -144v-588q0 -80 -32.5 -149.5t-87 -120t-124 -79t-141.5 -28.5h-416zM236 125h262q45 0 92 18.5t86 52t64.5 83t25.5 110.5v559q0 63 -25.5 109.5t-65.5 77t-87 45t-88 14.5h-264v-1069z" />
<glyph unicode="E" horiz-adv-x="886" d="M102 0l2 1321h695l-31 -125h-530v-451h501v-124h-501v-492h598l-21 -129h-713z" />
<glyph unicode="F" horiz-adv-x="829" d="M102 0v1319h697l-29 -125h-532v-449h501v-124h-501v-621h-136z" />
<glyph unicode="G" horiz-adv-x="937" d="M82 279v714q0 72 29.5 135.5t81 110.5t121 73.5t149.5 26.5q100 0 190 -35.5t148 -91.5l-72 -110q-68 59 -138.5 83.5t-119.5 24.5q-47 0 -92 -14t-80 -42t-57.5 -69t-22.5 -96v-678q0 -53 21.5 -91t56.5 -61.5t80 -34.5t92 -11t113.5 20.5t117.5 61.5v356h-196v123h332 v-674l-107 49q-66 -29 -134.5 -47t-150.5 -18q-72 0 -137 19.5t-115.5 56t-80 92t-29.5 127.5z" />
<glyph unicode="H" horiz-adv-x="1056" d="M102 0v1319h131v-574h590v574h131v-1319h-133l2 621h-590v-621h-131z" />
<glyph unicode="I" horiz-adv-x="333" d="M102 0v1319h129v-1319h-129z" />
<glyph unicode="J" horiz-adv-x="350" d="M0 -266q12 12 31.5 37.5t39 63.5t33 91.5t13.5 120.5v1272h131v-1309q0 -49 -15.5 -102t-39 -99.5t-50 -83t-51.5 -55.5z" />
<glyph unicode="K" horiz-adv-x="980" d="M102 0l2 1319h134v-590l526 590h176l-479 -549l475 -768h-168l-408 678l-122 -119v-559z" />
<glyph unicode="L" horiz-adv-x="776" d="M102 0v1319h136v-1192h528l-29 -127h-635z" />
<glyph unicode="M" horiz-adv-x="1411" d="M102 1319h123l490 -1133l471 1133h123v-1319h-135v889q0 20 2 43.5t6 46.5q4 25 10 49l-424 -1022h-129l-432 1022q4 -27 8 -49q4 -20 6 -44t2 -42v-893h-119z" />
<glyph unicode="N" horiz-adv-x="1155" d="M102 0v1319h134l647 -1012q20 -31 30 -63q6 -16 9 -31v1106h131v-1319h-121l-721 1118q6 -16 12 -37q4 -16 8.5 -36.5t4.5 -40.5v-1004h-134z" />
<glyph unicode="O" horiz-adv-x="946" d="M82 289v747q0 74 35 131.5t90 95t125.5 57t142.5 19.5t141.5 -19.5t125 -57t89 -95t33.5 -131.5v-747q0 -74 -33.5 -131.5t-89 -95t-125 -57t-141.5 -19.5t-142.5 19.5t-125.5 57t-90 95t-35 131.5zM219 299q0 -53 27.5 -90t67.5 -60.5t84 -34t79 -10.5q33 0 76 10.5 t82 34t65.5 60.5t26.5 90v731q0 53 -26.5 89t-65.5 58.5t-82 32t-76 9.5q-35 0 -79 -9.5t-84 -32t-67.5 -58.5t-27.5 -89v-731z" />
<glyph unicode="P" horiz-adv-x="917" d="M102 1319h383q72 0 138.5 -19.5t119 -59.5t83 -100.5t30.5 -140.5v-114q0 -53 -20.5 -112.5t-60.5 -110t-103.5 -83t-149.5 -32.5h-282v-547h-136zM240 678l249 2q45 0 86 11t72 38t48.5 68t17.5 102v90q0 59 -22.5 98t-58.5 61.5t-81 32t-90 9.5h-221v-512z" />
<glyph unicode="Q" horiz-adv-x="964" d="M82 287v749q0 74 34 130.5t88 94t122.5 57t140.5 19.5t141.5 -19.5t123.5 -57t88 -94t34 -130.5v-749q0 -98 -63.5 -167t-196.5 -122l289 -139l-74 -113l-379 242q-70 6 -132 27.5t-110.5 59.5t-77 91t-28.5 121zM213 293q0 -53 27.5 -89t67.5 -59.5t84 -34t77 -10.5 t77 10.5t84 34t66.5 59.5t26.5 89v737q0 51 -26.5 88t-66.5 60.5t-84 34t-77 10.5t-77 -10.5t-84 -34t-67.5 -60.5t-27.5 -88v-737z" />
<glyph unicode="R" horiz-adv-x="913" d="M102 1319h363q72 0 138.5 -19.5t118.5 -59.5t83 -100.5t31 -140.5v-114q0 -53 -16.5 -106.5t-49.5 -97.5t-84 -76t-123 -44l350 -561h-161l-334 547h-178v-547h-136zM240 676h204q45 0 89.5 12t80 39t57 69t21.5 103v96q0 59 -22.5 97t-58.5 60t-81 30t-90 8h-200v-514z " />
<glyph unicode="S" horiz-adv-x="870" d="M61 111l80 102q53 -53 126 -82t134 -29q59 0 110.5 17.5t86.5 52.5q23 23 39 52q15 30 23 64q5 24 6 48q0 10 -1 20q-3 34 -16 64q-23 51 -67.5 88t-96.5 67q-72 43 -149.5 80t-138.5 95q-49 47 -80 108.5t-33 147.5v10q0 66 24 122q26 60 72.5 104t114 68.5t151.5 24.5 q63 0 111.5 -10t87.5 -27.5t67.5 -39t51.5 -46.5l-82 -92q-51 49 -108.5 75t-131.5 26q-53 0 -94 -17.5t-68.5 -46.5t-41.5 -67q-13 -33 -13 -68v-10q2 -68 40 -116t92.5 -86t114.5 -67.5t110 -60.5q59 -35 109 -80t81 -106q39 -80 39 -157q0 -50 -16 -99 q-41 -127 -148.5 -190.5t-240.5 -63.5q-127 0 -209 35.5t-136 89.5z" />
<glyph unicode="T" horiz-adv-x="776" d="M10 1194v127h756l-21 -127h-286v-1194h-137v1194h-312z" />
<glyph unicode="U" horiz-adv-x="976" d="M102 289v1030h140v-1024q0 -53 26.5 -90t65.5 -59.5t83 -33t77 -10.5t75.5 10.5t81.5 33t64.5 59.5t25.5 90v1024h133v-1030q0 -74 -33.5 -131.5t-88 -95t-124 -57t-141.5 -19.5t-140 19.5t-122.5 57t-88.5 95t-34 131.5z" />
<glyph unicode="V" horiz-adv-x="827" d="M20 1319h148l246 -1110l252 1110h141l-326 -1319h-145z" />
<glyph unicode="W" horiz-adv-x="1382" d="M20 1319h148l246 -1110l209 915l-48 195h148l242 -1098l256 1098h141l-326 -1319h-145l-203 872l-207 -872h-145z" />
<glyph unicode="X" horiz-adv-x="903" d="M20 0l345 647l-308 674h150l229 -530l271 530h145l-344 -655l323 -666h-153l-240 524l-262 -524h-156z" />
<glyph unicode="Y" d="M20 1319h146l246 -643q8 -25 12 -43q2 -10 4 -21q2 12 4 23q2 10 5 20.5t7 20.5l248 643h142l-340 -832v-487h-134v487z" />
<glyph unicode="Z" horiz-adv-x="823" d="M41 1196l20 123h687v-125l-551 -1067h585l-32 -127h-705v125l549 1071h-553z" />
<glyph unicode="[" horiz-adv-x="528" d="M51 -373v1694l375 -2v-133h-242v-1426h242v-133h-375z" />
<glyph unicode="\" horiz-adv-x="821" d="M102 1319h138l479 -1319h-139z" />
<glyph unicode="]" horiz-adv-x="528" d="M102 -240h242v1426h-242l2 133l373 2v-1694h-373z" />
<glyph unicode="^" horiz-adv-x="700" d="M102 1114l142 205h213l141 -205l-115 -2l-133 139l-133 -139z" />
<glyph unicode="_" horiz-adv-x="878" d="M102 -70h674v-118h-674v118z" />
<glyph unicode="`" horiz-adv-x="522" d="M102 1319l177 -2l141 -205l-115 -2z" />
<glyph unicode="a" horiz-adv-x="860" d="M68 217q-5 31 -5 61q0 40 9 78q16 66 59 118t108.5 84t149.5 32h221l-2 125q0 53 -16.5 90t-42 60.5t-59 34.5t-68.5 11q-59 0 -124 -25.5t-110 -84.5l-67 92q41 59 122 97t191 38q141 0 225 -86t84 -240v-524q0 -39 15.5 -71.5t40.5 -59.5l-72 -65q-20 10 -44 26.5 t-54 63.5q-49 -45 -121 -66.5t-135 -21.5q-55 0 -105.5 12t-90.5 39.5t-68.5 72t-40.5 109.5zM194 312q-2 -14 -3 -29q0 -47 25 -93q32 -60 108 -81q35 -11 71 -11q37 0 77 12q76 24 136 74v287h-223q-86 0 -133.5 -48.5t-57.5 -110.5z" />
<glyph unicode="b" horiz-adv-x="880" d="M41 55q25 18 41 41t16 62v1163h131v-369q20 18 52 31.5t67 23t69 14.5t56 5q70 0 129.5 -20.5t103.5 -59.5t68.5 -98.5t24.5 -134.5v-416q0 -74 -29 -131t-76 -97t-110.5 -61.5t-132.5 -21.5q-80 0 -141.5 16t-110.5 47q-31 -43 -93 -65zM227 168q66 -47 124.5 -57.5 t99.5 -10.5q35 0 72.5 13.5t68.5 39t51.5 64.5t20.5 90v408q0 51 -16.5 88t-44.5 61.5t-62.5 35.5t-71.5 11q-49 0 -119.5 -22.5t-120.5 -69.5v-618v-7.5t-2 -25.5z" />
<glyph unicode="c" horiz-adv-x="796" d="M82 281v419q0 76 27.5 136.5t75.5 102.5t112.5 64.5t138.5 22.5q63 0 115.5 -16.5t89.5 -36.5q43 -23 78 -53l-72 -109q-29 25 -61 45q-29 16 -66 30.5t-78 14.5q-94 0 -158.5 -56.5t-64.5 -162.5v-391q0 -53 21.5 -89t55.5 -58.5t74 -32t74 -9.5q55 0 125 24t129 69 l58 -109q-53 -35 -134 -67.5t-198 -32.5q-70 0 -132.5 18.5t-108.5 55t-73.5 92t-27.5 129.5z" />
<glyph unicode="d" horiz-adv-x="880" d="M82 276v437q0 76 24.5 135t68.5 98t103.5 59.5t129.5 20.5q45 0 116.5 -16.5t126.5 -57.5v367h131v-1161q0 -39 16.5 -61.5t41.5 -41.5l-66 -71q-61 23 -92 65q-102 -63 -264 -63q-72 0 -132.5 18.5t-106.5 54t-71.5 90t-25.5 127.5zM217 287q0 -51 18.5 -87t48 -57.5 t66.5 -32t72 -10.5q41 0 103 10.5t128 57.5q-2 20 -2 25.5v7.5v618q-49 47 -120.5 69.5t-120.5 22.5q-37 0 -71 -11t-61.5 -35.5t-44 -61.5t-16.5 -88v-428z" />
<glyph unicode="e" horiz-adv-x="866" d="M82 301v401q0 76 29.5 136.5t81 102.5t117 64.5t136.5 22.5q61 0 122 -18.5t109 -58.5t77.5 -104.5t29.5 -156.5v-219h-565v-131q0 -115 66.5 -173t160.5 -58q72 0 142.5 25.5t134.5 72.5l55 -117q-57 -41 -141 -73.5t-201 -32.5q-78 0 -142.5 19.5t-111.5 59t-73.5 99 t-26.5 139.5zM219 590h428v129q0 53 -21.5 89t-53 58.5t-65.5 32.5t-58 10q-39 0 -80 -12t-74 -39t-54.5 -65.5t-21.5 -90.5v-112z" />
<glyph unicode="f" horiz-adv-x="538" d="M51 903v107h119l-2 108q0 74 32.5 124t83.5 74q43 19 92 19q11 0 22 -1q61 -5 120 -38l-35 -112q-31 18 -63.5 24t-58 -4t-42 -37.5t-16.5 -79.5v-77h199l-27 -107h-172v-903h-135v903h-117z" />
<glyph unicode="g" horiz-adv-x="847" d="M51 608v119q0 74 30 130t79 94t114.5 57.5t137.5 19.5q51 0 102 -10t98 -41q27 39 74 73.5t78 47.5l84 -88q-43 -16 -82 -49t-59 -70q27 -29 44 -73t17 -91v-137q0 -80 -38 -141.5t-96.5 -99.5t-129.5 -54q-46 -11 -90 -11q-22 0 -43 3l-105 -170q72 37 165 48q31 4 62 4 q59 0 113 -15q82 -21 136 -80q53 -58 53 -159v-7q-2 -57 -31 -106.5t-80 -86.5t-124 -58.5t-161 -21.5q-49 0 -99 11.5t-96 28t-85 38t-66 43.5l66 115q23 -16 50.5 -34.5t62 -35t75.5 -28t90 -11.5q117 0 182.5 40t69.5 104q1 8 1 15q0 42 -20 67q-24 30 -61 42.5t-80 13.5 h-17q-33 0 -62 -3q-25 -2 -53.5 -10t-57.5 -17.5t-56.5 -19.5t-47.5 -17l-93 103l154 229q-29 6 -63.5 24.5t-66.5 54.5t-53.5 90t-21.5 130zM190 598q0 -51 20.5 -87t52.5 -59.5t70 -33.5t73 -10t73.5 10t72.5 32.5t56.5 58.5t22.5 87v125q0 51 -20.5 87t-52.5 59.5 t-70.5 34.5t-73.5 11t-75 -11t-73 -33.5t-54.5 -59.5t-21.5 -88v-123z" />
<glyph unicode="h" horiz-adv-x="905" d="M102 0v1319h129v-391q12 14 39 30.5t64 32t80 25.5t90 10q135 0 217 -78t82 -225v-723h-131v727q0 98 -56.5 140t-148.5 42q-16 0 -45 -8t-62.5 -23.5t-67.5 -37t-59 -49.5v-791h-131z" />
<glyph unicode="i" horiz-adv-x="382" d="M82 1309q0 43 31.5 74.5t76.5 31.5q47 0 79 -31.5t32 -74.5q0 -45 -31.5 -76t-79.5 -31q-45 0 -76.5 31t-31.5 76zM123 0v1008h133v-1008h-133z" />
<glyph unicode="j" horiz-adv-x="385" d="M72 -266q25 27 40 59.5t15 69.5v1147h133v-1145q0 -25 -10 -53.5t-27.5 -56t-39 -50t-44.5 -35.5zM84 1309q0 43 31.5 74.5t79.5 31.5q45 0 76.5 -31.5t31.5 -74.5q0 -45 -31.5 -76t-76.5 -31q-47 0 -79 31t-32 76z" />
<glyph unicode="k" horiz-adv-x="878" d="M102 0v1319h134v-729l421 420h179l-422 -412l454 -598h-168l-381 516l-86 -86v-430h-131z" />
<glyph unicode="l" horiz-adv-x="462" d="M102 197v1124h131v-1137q0 -45 17.5 -63.5t44.5 -18.5t55.5 14.5t50.5 37.5l31 -105q-20 -20 -62 -41.5t-108 -21.5q-29 0 -57.5 8t-51 31.5t-37 64.5t-14.5 107z" />
<glyph unicode="m" horiz-adv-x="1456" d="M61 954l93 56q23 -10 42 -31t35 -64q53 49 116 80t157 31q88 0 154.5 -32.5t105.5 -98.5q49 66 129 98.5t158 32.5q137 0 220 -78t83 -227v-721h-137v702q0 98 -46.5 152.5t-138.5 54.5q-23 0 -53.5 -7t-63 -22.5t-63.5 -38t-53 -50.5q6 -35 6 -70v-721h-137v702 q0 98 -56.5 152.5t-148.5 54.5q-16 0 -44 -8t-58.5 -23.5t-61.5 -37t-49 -47.5v-793h-133v821q0 41 -15.5 74t-40.5 59z" />
<glyph unicode="n" horiz-adv-x="927" d="M61 954l93 56q23 -10 42 -29.5t35 -62.5q53 49 131 78.5t173 29.5q135 0 212.5 -78t77.5 -227v-721h-137v702q0 98 -46 152.5t-138 54.5q-18 0 -52 -8t-71 -23.5t-72 -37t-59 -47.5v-793h-133v821q0 41 -15.5 74t-40.5 59z" />
<glyph unicode="o" d="M61 293v430q0 76 30 132t81 95t116.5 58.5t137.5 19.5t138.5 -19.5t116.5 -58.5t81 -95t31 -132v-430q0 -76 -31 -133.5t-81 -96t-116.5 -58t-138.5 -19.5t-137.5 19.5t-116.5 58t-81 96t-30 133.5zM199 299q0 -53 22.5 -90t57 -60.5t74.5 -35t75 -11.5t75 11.5t73.5 35 t56 60.5t22.5 90v418q0 51 -22.5 89t-56 61.5t-73.5 34.5t-75 11t-75 -11t-74.5 -34.5t-57 -61.5t-22.5 -89v-418z" />
<glyph unicode="p" horiz-adv-x="913" d="M61 956l109 64q14 -8 32.5 -30.5t28.5 -61.5q14 20 42 37.5t63 31t75 21.5t81 8q70 0 132 -17.5t108 -53t72.5 -89t26.5 -127.5v-450q0 -76 -28.5 -132.5t-76.5 -94t-111.5 -56t-133.5 -18.5q-51 0 -113.5 11t-107.5 44v-369h-135v1141q0 39 -19.5 76t-44.5 65zM258 803 q2 -20 2 -26.5v-10.5v-586q41 -39 102.5 -57.5t126.5 -18.5q37 0 74 10.5t65.5 34t47 59.5t18.5 87v426q0 51 -19.5 87t-50 59.5t-67.5 33.5t-72 10q-20 0 -49.5 -6t-62.5 -19.5t-63.5 -34t-51.5 -48.5z" />
<glyph unicode="q" horiz-adv-x="909" d="M82 289v430q0 74 26.5 130t72.5 96t107.5 60.5t133.5 20.5q78 0 139.5 -22.5t120.5 -59.5q4 14 25.5 33.5t35.5 28.5l105 -74q-35 -29 -46 -55.5t-11 -65.5v-1137h-138v375q-66 -41 -131 -52t-116 -11q-70 0 -129.5 18.5t-102.5 56t-67.5 95t-24.5 133.5zM219 295 q0 -51 18.5 -87t49 -59.5t67.5 -35t74 -11.5q76 0 138.5 28t86.5 56v598l2 37q-68 51 -129 69.5t-102 18.5q-35 0 -72 -11t-66.5 -34.5t-48 -60.5t-18.5 -88v-420z" />
<glyph unicode="r" horiz-adv-x="573" d="M61 940l97 70q6 -4 17 -13.5t22.5 -28t18.5 -46t7 -68.5q6 31 23.5 61.5t46.5 55t66.5 40t84.5 15.5q53 0 84 -12.5t45 -20.5l-49 -135q-45 29 -88 29t-80 -18.5t-65.5 -51.5t-44.5 -69v-748h-133v825q0 49 -16.5 77t-35.5 38z" />
<glyph unicode="s" horiz-adv-x="794" d="M61 115l74 102q47 -51 111.5 -81t122.5 -30q41 0 72.5 5.5t60.5 19.5q35 16 60.5 45t33.5 68q6 29 0 57.5t-23 56.5q-16 29 -44.5 49.5t-61.5 35t-69 24.5t-66 22q-98 35 -163 95.5t-69 167.5q-1 9 -1 17q1 51 21 97q24 54 68 88q49 41 106.5 57.5t129.5 16.5 q111 0 184.5 -40t114.5 -99l-80 -82q-31 43 -90 75.5t-119 32.5q-92 0 -143 -37.5t-59 -89.5q-2 -9 -2 -18q0 -42 32 -85q39 -52 127 -79q80 -25 148.5 -54.5t128.5 -88.5q37 -39 54 -95q13 -43 13 -86q0 -13 -1 -26q-5 -57 -31.5 -110.5t-77.5 -88.5q-45 -33 -103.5 -52 t-144.5 -19q-113 0 -192 38.5t-122 90.5z" />
<glyph unicode="t" horiz-adv-x="561" d="M31 901v109h135v231l133 57v-288h242l-21 -109h-221v-717q0 -45 17.5 -63.5t44 -18.5t55 14.5t51.5 37.5l31 -105q-20 -20 -62.5 -41.5t-107.5 -21.5q-29 0 -57.5 8t-51 31.5t-37 64.5t-14.5 107l-2 704h-135z" />
<glyph unicode="u" horiz-adv-x="901" d="M102 283v727h129v-709q0 -102 49.5 -151.5t133.5 -49.5q39 0 104.5 15.5t130.5 56.5q-2 10 -3 17.5t-1 11.5v10v799h131v-830q0 -39 19.5 -73.5t44.5 -63.5l-86 -59q-14 8 -37 30.5t-35 44.5q-66 -39 -132.5 -56t-146.5 -17q-141 0 -221 72.5t-80 224.5z" />
<glyph unicode="v" horiz-adv-x="753" d="M20 1010h136l188 -746q4 -14 5 -33.5t5 -37.5q2 -23 6 -46q2 25 7 48q4 20 7 40.5t7 36.5l215 738h137l-311 -1010h-123z" />
<glyph unicode="w" horiz-adv-x="1265" d="M20 1010h136l188 -746q4 -14 5 -33.5t5 -37.5q2 -23 6 -46q2 25 7 48q4 20 7 40.5t7 36.5l184 621l-33 117h130l194 -746q4 -14 5 -33.5t5 -37.5q2 -23 6 -46q2 25 7 48q4 20 7 40.5t7 36.5l215 738h137l-311 -1010h-123l-170 623q-4 16 -6 30.5t-6 26.5q-4 14 -6 29 q-2 -14 -5 -29q-2 -12 -3 -24.5t-5 -22.5l-190 -633h-121z" />
<glyph unicode="x" horiz-adv-x="782" d="M0 0l307 522l-282 490h153l203 -369l209 369h147l-282 -490l307 -522h-156l-225 395l-229 -395h-152z" />
<glyph unicode="y" horiz-adv-x="786" d="M0 1010h152l204 -793q4 -16 6.5 -34.5t2.5 -35.5q0 -18 -3 -36l246 899h148l-346 -1170q-23 -72 -75 -118t-108 -56l-47 82q33 16 60.5 42t40.5 65l45 145h-37z" />
<glyph unicode="z" horiz-adv-x="724" d="M41 121l475 774h-473l20 117h601l12 -101l-492 -788h521l-25 -123h-619z" />
<glyph unicode="{" horiz-adv-x="704" d="M51 547l176 241v359q0 76 28 133t75 96t110.5 62.5t134.5 34.5l27 -91q-49 -20 -94 -42.5t-78 -53.5t-52.5 -74t-19.5 -104v-344l-153 -217l153 -219v-342q0 -61 19.5 -105.5t53.5 -76t78 -54t93 -43.5l-27 -90q-72 10 -135 33.5t-110 62.5t-75 95.5t-28 134.5v360z" />
<glyph unicode="|" horiz-adv-x="344" d="M102 0v1319h140v-1319h-140z" />
<glyph unicode="}" horiz-adv-x="704" d="M102 -293q49 20 93.5 43t78 54.5t54 75.5t20.5 106v342l152 219l-152 217v344q0 61 -19.5 104t-53 74t-77.5 53.5t-96 42.5l27 91q72 -10 135.5 -34t110.5 -63t74.5 -96t27.5 -133v-359l176 -241l-176 -244v-360q0 -78 -27.5 -134.5t-74.5 -95.5t-110.5 -62.5 t-135.5 -33.5z" />
<glyph unicode="~" horiz-adv-x="714" d="M102 1231q16 53 63.5 79.5t102.5 26.5q37 0 77 -25.5t73 -41.5q35 -16 67.5 -13t69.5 64l57 -82q-23 -51 -68.5 -81t-107.5 -19q-31 6 -65.5 29.5t-70.5 41t-73 12.5t-71 -59z" />
<glyph unicode="&#xa1;" horiz-adv-x="423" d="M102 1235q0 45 32 75.5t77 30.5q47 0 79 -30.5t32 -75.5q0 -43 -32 -74t-79 -31q-45 0 -77 31t-32 74zM127 -2l41 924l90 2l43 -926h-174z" />
<glyph unicode="&#xa2;" horiz-adv-x="878" d="M102 281v440q0 68 24 121t63.5 91t94 60.5t115.5 30.5v193h111v-193q92 -10 159.5 -51t96.5 -82l-82 -84q-41 53 -105.5 79.5t-121.5 26.5q-35 0 -73 -11t-70.5 -34.5t-53 -61.5t-20.5 -91v-424q0 -53 21.5 -89t55 -58.5t73.5 -32t75 -9.5q55 0 124.5 24t129.5 69 l57 -109q-47 -31 -110.5 -58.5t-155.5 -37.5v-193h-111v191q-63 6 -117.5 26.5t-94.5 57.5t-62.5 89t-22.5 120z" />
<glyph unicode="&#xa3;" horiz-adv-x="1185" d="M102 0v127h238v528h-197v121l197 -2v264q0 74 26.5 130.5t73.5 95.5t110.5 58t135.5 19q113 0 181.5 -40.5t113.5 -96.5l-84 -82q-96 104 -209 105q-35 0 -71.5 -11.5t-69.5 -34t-53.5 -60.5t-20.5 -89v-256h463v-121h-461v-528h608l-41 -127h-940z" />
<glyph unicode="&#xa4;" horiz-adv-x="1157" d="M209 616q0 82 30.5 153t84 124t125 84t151.5 31q82 0 152.5 -31t124 -84t84 -124t30.5 -153q0 -80 -30.5 -151.5t-84 -124.5t-124 -84t-152.5 -31q-80 0 -151.5 31t-125 84t-84 125t-30.5 151zM342 616q0 -53 20.5 -100t55.5 -82t82 -55.5t100 -20.5t100.5 20.5t82 55.5 t55 82t20.5 100t-20.5 100.5t-55 83.5t-82 56.5t-100.5 20.5t-100 -20.5t-82 -56.5t-55.5 -83t-20.5 -101z" />
<glyph unicode="&#xa5;" horiz-adv-x="1128" d="M102 1319h142l299 -631l22 -88l21 88l299 631h141l-225 -465h119v-121h-179l-110 -231v-35h291v-121h-291v-346h-133v346h-283v121h283v35l-111 229l-172 2v121h113z" />
<glyph unicode="&#xa6;" horiz-adv-x="425" d="M139 193h142v-564h-142v564zM139 328v991h142v-991h-142z" />
<glyph unicode="&#xa7;" horiz-adv-x="858" d="M102 -293l58 109q51 -49 108.5 -69.5t106.5 -20.5q82 0 145.5 42t77.5 119q10 57 -13.5 102.5t-65.5 81t-91 62.5t-92 51q-88 47 -146.5 117t-58.5 178q0 94 57.5 170t184.5 105q-117 78 -159 159.5t-42 143.5q0 123 77 201.5t224 78.5q106 0 161.5 -29.5t100.5 -82.5 l-67 -86q-49 51 -94.5 70.5t-104.5 19.5q-41 0 -72.5 -15.5t-53 -39t-32 -52t-10.5 -57.5q0 -37 14.5 -68.5t38 -59.5t52 -51.5t59.5 -43.5q55 -39 113.5 -81t102.5 -93.5t64.5 -113.5t2.5 -142q-16 -59 -65.5 -114.5t-131.5 -78.5q47 -31 73.5 -50t43.5 -42 q55 -68 71.5 -147.5t-10.5 -151.5q-37 -106 -130 -163.5t-210 -57.5q-106 0 -169.5 28.5t-117.5 71.5zM270 477q0 -72 50.5 -121t121.5 -49q72 0 122 49t50 121t-50 121t-122 49t-122 -49t-50 -121z" />
<glyph unicode="&#xa8;" horiz-adv-x="641" d="M102 1251q0 35 25 59.5t59 24.5q35 0 59.5 -24.5t24.5 -59.5t-24.5 -58.5t-59.5 -23.5t-59.5 24t-24.5 58zM373 1251q0 35 23.5 59.5t58.5 24.5t59.5 -24.5t24.5 -59.5t-25 -58.5t-59 -23.5q-35 0 -58.5 24t-23.5 58z" />
<glyph unicode="&#xa9;" horiz-adv-x="1595" d="M102 662q0 139 54.5 262t149.5 215t221 145t272 53q143 0 270 -53t221 -145t148.5 -215t54.5 -262t-54.5 -262.5t-148.5 -215.5t-221 -145t-270 -53q-145 0 -271.5 53t-221.5 145t-149.5 215t-54.5 263zM225 662q0 -115 45 -216.5t123 -177t182.5 -119t223.5 -43.5 t222 43.5t181 119t123 177t45 216.5t-45 216t-123 175.5t-181 119t-222 44.5t-223.5 -44.5t-182.5 -119t-123 -176t-45 -215.5zM494 514v295q0 63 27.5 112.5t70.5 83t97 50t108 16.5q39 0 77.5 -9t73.5 -25.5t63.5 -37t47.5 -43.5l-80 -106q-84 94 -184 94q-31 0 -62 -12 t-53.5 -32.5t-36.5 -45.5t-14 -51v-271q0 -41 16.5 -69.5t42 -46t55 -25.5t54.5 -8q16 0 41.5 4t54.5 13.5t57.5 25.5t53.5 41l51 -117q-57 -47 -127 -69.5t-148 -22.5q-57 0 -109.5 16.5t-91 49t-62 81t-23.5 109.5z" />
<glyph unicode="&#xaa;" horiz-adv-x="700" d="M102 569v76h496v-76h-496zM113 852q-6 41 6 80t36.5 69.5t60.5 49t81 18.5h141v78q0 63 -40 91t-81 28q-35 0 -71.5 -16.5t-61.5 -47.5l-59 41q25 35 76 63.5t118 28.5q86 0 142.5 -46t56.5 -138v-326q0 -23 9.5 -43t25.5 -37l-43 -38q-12 6 -26.5 16t-32.5 39 q-27 -29 -71 -40t-83 -11q-66 0 -120 31.5t-64 109.5zM193 877q0 -37 23.5 -60.5t49.5 -32.5q43 -12 88 2.5t84 38.5v174l-123 -2q-59 0 -90.5 -33.5t-31.5 -86.5z" />
<glyph unicode="&#xab;" horiz-adv-x="1308" d="M102 516l486 494h182l-469 -496l475 -514h-188zM532 516l486 494h182l-469 -496l475 -514h-188z" />
<glyph unicode="&#xac;" horiz-adv-x="991" d="M102 651v127h787l-4 -467h-127v340h-656z" />
<glyph unicode="&#xad;" horiz-adv-x="806" d="M102 647v131h603v-131h-603z" />
<glyph unicode="&#xae;" horiz-adv-x="1595" d="M102 662q0 139 54.5 262t149.5 215t221 145t272 53q143 0 270 -53t221 -145t148.5 -215t54.5 -262t-54.5 -262.5t-148.5 -215.5t-221 -145t-270 -53q-145 0 -271.5 53t-221.5 145t-149.5 215t-54.5 263zM225 662q0 -115 45 -216.5t123 -177t182.5 -119t223.5 -43.5 t222 43.5t181 119t123 177t45 216.5t-45 216t-123 175.5t-181 119t-222 44.5t-223.5 -44.5t-182.5 -119t-123 -176t-45 -215.5zM553 279l2 778h276q43 0 84 -12.5t74 -37t52.5 -63.5t19.5 -92v-45q0 -61 -34 -118.5t-107 -80.5l204 -329h-141l-188 315h-123v-315h-119z M672 709h149q47 0 83 24.5t36 81.5v35q0 55 -36 74.5t-87 19.5h-143z" />
<glyph unicode="&#xb0;" horiz-adv-x="794" d="M102 1038q0 61 22.5 115.5t62.5 95.5t94.5 64.5t115.5 23.5t114.5 -23.5t93.5 -64.5t63.5 -95.5t23.5 -115.5t-23.5 -116.5t-63.5 -95.5t-93 -63.5t-115 -23.5q-61 0 -115.5 23.5t-94.5 63.5t-62.5 95.5t-22.5 116.5zM223 1038q0 -74 51.5 -125t122.5 -51q72 0 123 51 t51 125q0 37 -13 69t-36.5 55.5t-55.5 37.5t-69 14t-68.5 -14t-55 -37.5t-37 -55.5t-13.5 -69z" />
<glyph unicode="&#xb1;" horiz-adv-x="1110" d="M102 -98h906v-140h-906v140zM143 537v127h342v340h127v-340h340v-127h-340v-342h-127v342h-342z" />
<glyph unicode="&#xb4;" horiz-adv-x="522" d="M102 1112l142 205l176 2l-203 -209z" />
<glyph unicode="&#xb6;" horiz-adv-x="1069" d="M121 935q4 99 51 185t140.5 143.5t232.5 57.5h422v-1692h-144v924h-209v-924h-143v920q-119 0 -197.5 57.5t-117.5 143.5t-35 185zM614 674h209v514h-209v-514z" />
<glyph unicode="&#xb8;" horiz-adv-x="548" d="M102 -315l37 71q14 -10 49 -23.5t64 -13.5q96 0 96 52q0 18 -15.5 30.5t-35.5 12.5h-123l10 192h82l-2 -117h64q59 0 88.5 -35.5t29.5 -76.5q0 -74 -58 -104.5t-134 -30.5q-37 0 -78 11t-74 32z" />
<glyph unicode="&#xb9;" horiz-adv-x="948" />
<glyph unicode="&#xba;" horiz-adv-x="700" d="M102 569v76h496v-76h-496zM127 893v266q0 45 18.5 80t48 57.5t69.5 34.5t83 12t82 -12t69.5 -34.5t49 -57.5t18.5 -80v-266q0 -45 -18.5 -80t-49 -57.5t-69.5 -34.5t-82 -12t-83 12t-69.5 34.5t-48 57.5t-18.5 80zM209 897q0 -31 13.5 -53.5t35 -36.5t45 -21.5t45.5 -7.5 q20 0 44 7.5t44.5 21.5t33.5 36.5t13 53.5v258q0 31 -13 53.5t-33.5 37t-44 21.5t-44.5 7q-23 0 -46 -7t-44.5 -21.5t-35 -37t-13.5 -53.5v-258z" />
<glyph unicode="&#xbb;" horiz-adv-x="1308" d="M102 0l476 514l-469 496h182l485 -494l-485 -516h-189zM532 0l476 514l-469 496h182l485 -494l-485 -516h-189z" />
<glyph unicode="&#xbf;" horiz-adv-x="907" d="M106 381q16 92 62.5 146.5t101.5 95.5q27 20 54.5 41.5t50 46t36 54.5t13.5 71v141h135v-131q0 -92 -32.5 -152.5t-92.5 -107.5q-33 -27 -65.5 -50.5t-59 -52t-43 -65.5t-16.5 -88q0 -61 17.5 -104.5t49 -70t74.5 -39t92 -12.5q57 0 119 26t105 79l98 -68 q-23 -29 -55.5 -57.5t-74.5 -50t-92.5 -34.5t-105.5 -13q-100 0 -186 37.5t-135 113.5q-35 51 -47.5 114.5t-2.5 129.5zM387 1231q0 43 32 73.5t79 30.5q45 0 76.5 -30.5t31.5 -73.5q0 -45 -31.5 -76t-76.5 -31q-47 0 -79 31t-32 76z" />
<glyph unicode="&#xc0;" horiz-adv-x="1007" d="M31 0h143l107 403h432l106 -403h154l-375 1319h-192zM313 532l166 625h35l166 -625h-367zM373 1679h176l141 -206l-115 -3z" />
<glyph unicode="&#xc1;" horiz-adv-x="1112" d="M39 0h143l107 403h432l106 -403h154l-375 1319h-192zM322 532l165 625h35l166 -625h-366zM387 1473l141 206h177l-203 -209z" />
<glyph unicode="&#xc2;" horiz-adv-x="1007" d="M31 0h143l107 403h432l106 -403h154l-375 1319h-192zM279 1452l141 205h213l141 -205l-115 -2l-133 139l-133 -139zM313 532l166 625h35l166 -625h-367z" />
<glyph unicode="&#xc3;" horiz-adv-x="1007" d="M31 0h143l107 403h432l106 -403h154l-375 1319h-192zM293 1579q16 53 63 80t103 27q37 0 76.5 -26t72.5 -42q35 -16 68 -13t69 64l58 -82q-23 -51 -69 -80.5t-107 -19.5q-31 6 -66 29.5t-70.5 41t-72.5 12.5t-72 -59zM313 532l166 625h35l166 -625h-367z" />
<glyph unicode="&#xc4;" horiz-adv-x="1007" d="M31 0h143l107 403h432l106 -403h154l-375 1319h-192zM309 1546q0 35 24.5 58.5t59.5 23.5t59.5 -23.5t24.5 -58.5t-24.5 -59.5t-59.5 -24.5t-59.5 24.5t-24.5 59.5zM313 532l166 625h35l166 -625h-367zM584 1546q0 35 24.5 58.5t59.5 23.5t59.5 -23.5t24.5 -58.5 t-25 -59.5t-59 -24.5q-35 0 -59.5 24.5t-24.5 59.5z" />
<glyph unicode="&#xc5;" horiz-adv-x="1007" d="M31 0l403 1270q-41 25 -66.5 66.5t-25.5 93.5q0 78 53.5 131t130.5 53q78 0 131.5 -53.5t53.5 -130.5q0 -51 -26 -94.5t-67 -65.5l379 -1270h-151l-119 408h-426l-125 -408h-145zM332 526h366l-176 631zM432 1430q0 -39 27.5 -67t66.5 -28t67 28t28 67t-28 66.5t-67 27.5 t-66.5 -28t-27.5 -66z" />
<glyph unicode="&#xc6;" horiz-adv-x="1480" d="M-61 0l665 1317l791 2l-31 -125h-530v-449h499v-124h-499v-492h596l-21 -129h-711l-2 408h-405l-195 -408h-157zM342 526h356l-2 699z" />
<glyph unicode="&#xc7;" horiz-adv-x="868" d="M82 276v736q0 74 29.5 134t81 102t118 64.5t138.5 22.5q113 0 207 -30.5t137 -83.5l-68 -107q-23 27 -57.5 46.5t-72.5 32.5t-75 19.5t-63 6.5q-35 0 -76 -13.5t-77 -41t-60.5 -67.5t-24.5 -93v-709q0 -53 26.5 -90t66.5 -59.5t83 -33t78 -10.5q27 0 63.5 6.5t76.5 18.5 t79 29.5t70 40.5l45 -115q-57 -41 -143 -66.5t-199 -29.5v-97h63q59 0 88 -35.5t29 -76.5q0 -74 -58.5 -104.5t-133.5 -30.5q-35 0 -76 11t-74 32l35 71q14 -10 50 -23.5t65 -13.5q96 0 96 52q0 18 -15.5 30.5t-37.5 12.5h-129l14 176q-61 8 -115.5 29.5t-95.5 57.5 t-64.5 86t-23.5 113z" />
<glyph unicode="&#xc8;" horiz-adv-x="937" d="M102 0h713l21 129h-598v492h501v124h-501v451h530l31 125h-695zM254 1681l176 -2l141 -206l-114 -3z" />
<glyph unicode="&#xc9;" horiz-adv-x="886" d="M102 0h713l21 129h-598v492h501v124h-501v451h530l31 125h-695zM358 1473l142 206l176 2l-203 -211z" />
<glyph unicode="&#xca;" horiz-adv-x="937" d="M102 0h713l21 129h-598v492h501v124h-501v451h530l31 125h-695zM203 1452l141 205h213l141 -205l-114 -2l-133 139l-134 -139z" />
<glyph unicode="&#xcb;" horiz-adv-x="937" d="M102 0h713l21 129h-598v492h501v124h-501v451h530l31 125h-695zM227 1546q0 35 24.5 58.5t59.5 23.5t59.5 -23.5t24.5 -58.5t-24.5 -59.5t-59.5 -24.5t-59.5 24.5t-24.5 59.5zM502 1546q0 35 24.5 58.5t59.5 23.5t59.5 -23.5t24.5 -58.5t-24.5 -59.5t-59.5 -24.5 t-59.5 24.5t-24.5 59.5z" />
<glyph unicode="&#xcc;" horiz-adv-x="397" d="M74 1681l176 -2l141 -206l-115 -3zM133 2v1317h133v-1319z" />
<glyph unicode="&#xcd;" horiz-adv-x="409" d="M78 1473l141 206l176 2l-202 -211zM141 2v1317h133l-2 -1319z" />
<glyph unicode="&#xce;" horiz-adv-x="411" d="M-41 1452l141 205h213l142 -205l-115 -2l-133 139l-133 -139zM139 0l2 1317h131v-1317h-133z" />
<glyph unicode="&#xcf;" horiz-adv-x="411" d="M0 1546q0 35 24.5 58.5t59.5 23.5t59.5 -23.5t24.5 -58.5t-24.5 -59.5t-59.5 -24.5t-59.5 24.5t-24.5 59.5zM147 2v1317h134v-1319zM274 1546q0 35 25 58.5t59 23.5q35 0 59.5 -23.5t24.5 -58.5t-24.5 -59.5t-59.5 -24.5t-59.5 24.5t-24.5 59.5z" />
<glyph unicode="&#xd1;" horiz-adv-x="1155" d="M102 0h134v1004q0 20 -4.5 40.5t-8.5 36.5q-6 20 -12 37l721 -1118h121v1319h-131v-1106q-2 14 -9 31q-10 33 -30 63l-647 1012h-134v-1319zM334 1579q16 53 63 80t103 27q37 0 76.5 -26t72.5 -42q35 -16 68 -13t69 64l58 -82q-23 -51 -69 -80.5t-107 -19.5 q-31 6 -66 29.5t-70.5 41t-72.5 12.5t-72 -59z" />
<glyph unicode="&#xd2;" horiz-adv-x="946" d="M82 289q0 -74 35 -131.5t90 -95t125.5 -57t142.5 -19.5t141.5 19.5t125 57t89 95t33.5 131.5v747q0 74 -33.5 131.5t-89 95t-125 57t-141.5 19.5t-142.5 -19.5t-125.5 -57t-90 -95t-35 -131.5v-747zM219 299v731q0 53 27.5 89t67.5 58.5t84 32t79 9.5q33 0 76 -9.5 t82 -32t65.5 -58.5t26.5 -89v-731q0 -53 -26.5 -90t-65.5 -60.5t-82 -34t-76 -10.5q-35 0 -79 10.5t-84 34t-67.5 60.5t-27.5 90zM299 1683l176 -2l141 -206l-114 -2z" />
<glyph unicode="&#xd3;" horiz-adv-x="946" d="M82 289q0 -74 35 -131.5t90 -95t125.5 -57t142.5 -19.5t141.5 19.5t125 57t89 95t33.5 131.5v747q0 74 -33.5 131.5t-89 95t-125 57t-141.5 19.5t-142.5 -19.5t-125.5 -57t-90 -95t-35 -131.5v-747zM219 299v731q0 53 27.5 89t67.5 58.5t84 32t79 9.5q33 0 76 -9.5 t82 -32t65.5 -58.5t26.5 -89v-731q0 -53 -26.5 -90t-65.5 -60.5t-82 -34t-76 -10.5q-35 0 -79 10.5t-84 34t-67.5 60.5t-27.5 90zM358 1475l142 206l176 2l-203 -210z" />
<glyph unicode="&#xd4;" horiz-adv-x="946" d="M82 289q0 -74 35 -131.5t90 -95t125.5 -57t142.5 -19.5t141.5 19.5t125 57t89 95t33.5 131.5v747q0 74 -33.5 131.5t-89 95t-125 57t-141.5 19.5t-142.5 -19.5t-125.5 -57t-90 -95t-35 -131.5v-747zM219 299v731q0 53 27.5 89t67.5 58.5t84 32t79 9.5q33 0 76 -9.5 t82 -32t65.5 -58.5t26.5 -89v-731q0 -53 -26.5 -90t-65.5 -60.5t-82 -34t-76 -10.5q-35 0 -79 10.5t-84 34t-67.5 60.5t-27.5 90zM244 1452l141 205h213l141 -205l-114 -2l-133 139l-134 -139z" />
<glyph unicode="&#xd5;" horiz-adv-x="946" d="M82 289q0 -74 35 -131.5t90 -95t125.5 -57t142.5 -19.5t141.5 19.5t125 57t89 95t33.5 131.5v747q0 74 -33.5 131.5t-89 95t-125 57t-141.5 19.5t-142.5 -19.5t-125.5 -57t-90 -95t-35 -131.5v-747zM219 299v731q0 53 27.5 89t67.5 58.5t84 32t79 9.5q33 0 76 -9.5 t82 -32t65.5 -58.5t26.5 -89v-731q0 -53 -26.5 -90t-65.5 -60.5t-82 -34t-76 -10.5q-35 0 -79 10.5t-84 34t-67.5 60.5t-27.5 90zM231 1579q16 53 63.5 80t102.5 27q37 0 77 -26t73 -42q35 -16 67.5 -13t69.5 64l57 -82q-23 -51 -68.5 -80.5t-107.5 -19.5q-31 6 -65.5 29.5 t-70.5 41t-73 12.5t-71 -59z" />
<glyph unicode="&#xd6;" horiz-adv-x="946" d="M82 289q0 -74 35 -131.5t90 -95t125.5 -57t142.5 -19.5t141.5 19.5t125 57t89 95t33.5 131.5v747q0 74 -33.5 131.5t-89 95t-125 57t-141.5 19.5t-142.5 -19.5t-125.5 -57t-90 -95t-35 -131.5v-747zM219 299v731q0 53 27.5 89t67.5 58.5t84 32t79 9.5q33 0 76 -9.5 t82 -32t65.5 -58.5t26.5 -89v-731q0 -53 -26.5 -90t-65.5 -60.5t-82 -34t-76 -10.5q-35 0 -79 10.5t-84 34t-67.5 60.5t-27.5 90zM227 1546q0 35 24.5 58.5t59.5 23.5t59.5 -23.5t24.5 -58.5t-24.5 -59.5t-59.5 -24.5t-59.5 24.5t-24.5 59.5zM502 1546q0 35 24.5 58.5 t59.5 23.5t59.5 -23.5t24.5 -58.5t-24.5 -59.5t-59.5 -24.5t-59.5 24.5t-24.5 59.5z" />
<glyph unicode="&#xd7;" horiz-adv-x="1187" d="M92 0l422 535l-375 475h160l295 -373l295 373h160l-375 -475l422 -535h-162l-340 432l-340 -432h-162z" />
<glyph unicode="&#xd8;" horiz-adv-x="946" d="M82 289v743q0 74 35 131.5t90 95t125.5 57t142.5 19.5q55 0 109.5 -11t103.5 -34l68 158l92 -37l-76 -176q41 -37 66.5 -87t25.5 -116v-743q0 -74 -33.5 -131.5t-89 -95t-125 -57t-141.5 -19.5q-123 0 -225 51l-62 -137l-86 37l66 155q-41 37 -63.5 86t-22.5 111z M219 295q0 -33 10 -59l410 940q-41 23 -84 34t-78 11t-79 -10.5t-84 -34t-67.5 -60.5t-27.5 -90v-731zM299 154q41 -29 91 -41.5t87 -12.5q33 0 76 10.5t82 34t65.5 60.5t26.5 90v731q0 20 -4 37.5t-10 34.5z" />
<glyph unicode="&#xd9;" horiz-adv-x="976" d="M102 289q0 -74 34 -131.5t88.5 -95t123 -57t139.5 -19.5q72 0 141.5 19.5t124 57t88 95t33.5 131.5v1030h-133v-1024q0 -53 -25.5 -90t-64.5 -59.5t-82 -33t-75 -10.5q-33 0 -77 10.5t-83 33t-65.5 59.5t-26.5 90v1024h-140v-1030zM319 1683l177 -2l141 -206l-115 -2z " />
<glyph unicode="&#xda;" horiz-adv-x="976" d="M102 289q0 -74 34 -131.5t88.5 -95t123 -57t139.5 -19.5q72 0 141.5 19.5t124 57t88 95t33.5 131.5v1030h-133v-1024q0 -53 -25.5 -90t-64.5 -59.5t-82 -33t-75 -10.5q-33 0 -77 10.5t-83 33t-65.5 59.5t-26.5 90v1024h-140v-1030zM358 1475l142 206l176 2l-203 -210z " />
<glyph unicode="&#xdb;" horiz-adv-x="976" d="M102 289q0 -74 34 -131.5t88.5 -95t123 -57t139.5 -19.5q72 0 141.5 19.5t124 57t88 95t33.5 131.5v1030h-133v-1024q0 -53 -25.5 -90t-64.5 -59.5t-82 -33t-75 -10.5q-33 0 -77 10.5t-83 33t-65.5 59.5t-26.5 90v1024h-140v-1030zM223 1454l142 205h213l141 -205 l-115 -2l-133 139l-133 -139z" />
<glyph unicode="&#xdc;" horiz-adv-x="976" d="M102 287v1032l138 -2v-1026q0 -53 26.5 -89t65.5 -58.5t82 -33t75 -10.5q33 0 77 10.5t82 34t64.5 59.5t26.5 87v1028h135v-1032q0 -74 -33.5 -130.5t-88 -94t-124 -57t-141.5 -19.5t-140 19.5t-122.5 57t-88.5 94t-34 130.5zM260 1546q0 35 24.5 58.5t59.5 23.5 t59.5 -23.5t24.5 -58.5t-24.5 -59.5t-59.5 -24.5t-59.5 24.5t-24.5 59.5zM537 1546q0 35 23.5 58.5t57.5 23.5q35 0 59.5 -23.5t24.5 -58.5t-24.5 -59.5t-59.5 -24.5t-58 24.5t-23 59.5z" />
<glyph unicode="&#xdf;" horiz-adv-x="899" d="M102 2v1194h58q35 57 104.5 101t175.5 44q147 0 233.5 -90t86.5 -231q0 -125 -35 -194.5t-100 -104.5q55 -14 93 -47t59.5 -71t30.5 -78t9 -70v-140q0 -74 -24.5 -134t-67.5 -104t-103.5 -70.5t-132.5 -31.5l-65 95q49 2 95 18t82 46t57.5 74t21.5 103v142 q0 43 -17.5 78.5t-47 61t-67.5 41t-81 15.5v101q41 14 70.5 34.5t48 52t28 76.5t9.5 109q0 49 -16.5 87t-44 63.5t-61.5 39t-71 13.5q-53 0 -90 -17.5t-59 -38.5q-27 -25 -43 -55v-1112h-136z" />
<glyph unicode="&#xe0;" horiz-adv-x="858" d="M68 217q-12 72 4 138.5t59 118.5t108.5 84t149.5 32h221l-2 125q0 53 -16.5 90t-42 60.5t-59 34.5t-68.5 11q-59 0 -124 -25.5t-110 -84.5l-67 92q41 59 122 97t191 38q141 0 225 -86t84 -240v-524q0 -39 15.5 -71.5t40.5 -59.5l-72 -65q-20 10 -44 26.5t-54 63.5 q-49 -45 -121 -66.5t-135 -21.5q-55 0 -105.5 12t-90.5 39.5t-68.5 72t-40.5 109.5zM193.5 311.5q-9.5 -61.5 22.5 -121t108 -81.5q72 -23 148.5 1.5t135.5 73.5v287h-223q-86 0 -134 -49t-57.5 -110.5zM246 1319l176 -2l141 -205l-114 -2z" />
<glyph unicode="&#xe1;" horiz-adv-x="858" d="M68 217q-12 72 4 138.5t59 118.5t108.5 84t149.5 32h221l-2 125q0 53 -16.5 90t-42 60.5t-59 34.5t-68.5 11q-59 0 -124 -25.5t-110 -84.5l-67 92q41 59 122 97t191 38q141 0 225 -86t84 -240v-524q0 -39 15.5 -71.5t40.5 -59.5l-72 -65q-20 10 -44 26.5t-54 63.5 q-49 -45 -121 -66.5t-135 -21.5q-55 0 -105.5 12t-90.5 39.5t-68.5 72t-40.5 109.5zM193.5 311.5q-9.5 -61.5 22.5 -121t108 -81.5q72 -23 148.5 1.5t135.5 73.5v287h-223q-86 0 -134 -49t-57.5 -110.5zM307 1112l142 205l176 2l-203 -209z" />
<glyph unicode="&#xe2;" horiz-adv-x="858" d="M68 217q12 -66 40.5 -110t68.5 -71.5t90 -39.5t106 -12q63 0 135 21.5t121 66.5q31 -47 54.5 -63.5t43.5 -26.5l72 65q-25 27 -40.5 59.5t-15.5 71.5v524q0 154 -84 240t-225 86q-111 0 -191.5 -38t-121.5 -97l67 -92q45 59 109.5 84.5t124.5 25.5q35 0 68.5 -11 t59 -34.5t42 -60.5t16.5 -90l2 -125h-221q-84 0 -149.5 -32t-108.5 -84t-59.5 -118.5t-3.5 -138.5zM193.5 311.5q9.5 61.5 57.5 110.5t134 49h223v-287q-59 -49 -136 -73.5t-148 -1.5q-76 23 -108 82t-22.5 120.5zM203 1114l141 205h213l141 -205l-114 -2l-133 139 l-134 -139z" />
<glyph unicode="&#xe3;" horiz-adv-x="858" d="M68 217q-12 72 4 138.5t59 118.5t108.5 84t149.5 32h221l-2 125q0 53 -16.5 90t-42 60.5t-59 34.5t-68.5 11q-59 0 -124 -25.5t-110 -84.5l-67 92q41 59 122 97t191 38q141 0 225 -86t84 -240v-524q0 -39 15.5 -71.5t40.5 -59.5l-72 -65q-20 10 -44 26.5t-54 63.5 q-49 -45 -121 -66.5t-135 -21.5q-55 0 -105.5 12t-90.5 39.5t-68.5 72t-40.5 109.5zM188 1231q16 53 63.5 79.5t102.5 26.5q37 0 77 -25.5t73 -41.5q35 -16 67.5 -13t69.5 64l57 -82q-23 -51 -68.5 -81t-107.5 -19q-31 6 -65.5 29.5t-70.5 41t-73 12.5t-71 -59zM193.5 311.5 q-9.5 -61.5 22.5 -121t108 -81.5q72 -23 148.5 1.5t135.5 73.5v287h-223q-86 0 -134 -49t-57.5 -110.5z" />
<glyph unicode="&#xe4;" horiz-adv-x="858" d="M68 217q-12 72 4 138.5t59 118.5t108.5 84t149.5 32h221l-2 125q0 53 -16.5 90t-42 60.5t-59 34.5t-68.5 11q-59 0 -124 -25.5t-110 -84.5l-67 92q41 59 122 97t191 38q141 0 225 -86t84 -240v-524q0 -39 15.5 -71.5t40.5 -59.5l-72 -65q-20 10 -44 26.5t-54 63.5 q-49 -45 -121 -66.5t-135 -21.5q-55 0 -105.5 12t-90.5 39.5t-68.5 72t-40.5 109.5zM193.5 311.5q-9.5 -61.5 22.5 -121t108 -81.5q72 -23 148.5 1.5t135.5 73.5v287h-223q-86 0 -134 -49t-57.5 -110.5zM221 1251q0 35 24.5 59.5t59.5 24.5t59.5 -24.5t24.5 -59.5 t-24.5 -58.5t-59.5 -23.5t-59.5 24t-24.5 58zM492 1251q0 35 23.5 59.5t57.5 24.5q35 0 59.5 -24.5t24.5 -59.5t-24.5 -58.5t-59.5 -23.5t-58 24t-23 58z" />
<glyph unicode="&#xe5;" horiz-adv-x="858" d="M68 217q12 -66 40.5 -110t68.5 -71.5t90 -39.5t106 -12q63 0 135 21.5t121 66.5q31 -47 54.5 -63.5t43.5 -26.5l72 65q-25 27 -40.5 59.5t-15.5 71.5v524q0 154 -84 240t-225 86q-111 0 -191.5 -38t-121.5 -97l67 -92q45 59 109.5 84.5t124.5 25.5q35 0 68.5 -11 t59 -34.5t42 -60.5t16.5 -90l2 -125h-221q-84 0 -149.5 -32t-108.5 -84t-59.5 -118.5t-3.5 -138.5zM193.5 311.5q9.5 61.5 57.5 110.5t134 49h223v-287q-59 -49 -136 -73.5t-148 -1.5q-76 23 -108 82t-22.5 120.5zM258 1272q0 39 14.5 73.5t40 60.5t60.5 41t73 15 q39 0 74 -15t61.5 -41t41 -60.5t14.5 -73.5t-14.5 -74t-41 -60.5t-61.5 -41t-74 -15.5t-73.5 15.5t-60 41t-40 60.5t-14.5 74zM358 1272q0 -37 26 -63.5t62 -26.5q39 0 65 26.5t26 63.5t-26 63.5t-65 26.5q-37 0 -62.5 -26.5t-25.5 -63.5z" />
<glyph unicode="&#xe6;" horiz-adv-x="1392" d="M66 223q-12 72 7 138.5t62 116.5t104.5 81t135.5 31h233v145q0 47 -19.5 81t-49 55.5t-65.5 30.5t-68 9q-57 0 -119 -25.5t-103 -78.5l-98 70q41 57 126 104t198 47q86 0 155.5 -27.5t114.5 -85.5q51 57 128 85t163 28q61 0 122.5 -18.5t109.5 -59.5t78 -104.5t30 -155.5 v-219h-568v-172q0 -53 22.5 -90t56.5 -61.5t74 -36t75 -11.5q27 0 62.5 7.5t72.5 19.5t74 29.5t65 38.5l60 -109q-57 -41 -139.5 -71.5t-198.5 -30.5q-82 0 -160 28.5t-115 87.5q-31 -35 -72.5 -56t-86 -34.5t-87.5 -18.5t-73 -5q-55 0 -105.5 13t-91.5 41t-69.5 73 t-40.5 110zM199 264q0 -63 38.5 -101t84.5 -52q37 -10 73.5 -9.5t73.5 12t71.5 29t67.5 37.5v291h-200q-100 0 -154.5 -54.5t-54.5 -152.5zM743 590h431v129q0 53 -22 91t-53.5 61.5t-66.5 35t-59 11.5q-35 0 -75 -12.5t-75 -37t-57.5 -62.5t-22.5 -89v-127z" />
<glyph unicode="&#xe7;" horiz-adv-x="817" d="M82 281v440q0 76 28.5 132t77 95t113 58.5t135.5 19.5q55 0 104.5 -12.5t89.5 -31.5t69.5 -44t45.5 -47l-81 -84q-41 53 -105.5 79.5t-122.5 26.5q-35 0 -72.5 -11t-70.5 -34.5t-53.5 -61.5t-20.5 -91v-424q0 -53 21.5 -89t55.5 -58.5t74 -32t74 -9.5q55 0 125 24t129 69 l58 -109q-51 -35 -127 -65.5t-185 -34.5v-97h64q59 0 88 -35.5t29 -76.5q0 -74 -58.5 -104.5t-134.5 -30.5q-37 0 -78 11t-73 32l36 71q14 -10 50 -23.5t65 -13.5q94 0 94 52q0 18 -14 30.5t-37 12.5h-123l13 176q-59 6 -111.5 27.5t-90.5 58.5t-59.5 88t-21.5 117z" />
<glyph unicode="&#xe8;" horiz-adv-x="866" d="M82 301v401q0 76 29.5 136.5t81 102.5t117 64.5t136.5 22.5q61 0 122 -18.5t109 -58.5t77.5 -104.5t29.5 -156.5v-219h-565v-131q0 -115 66.5 -173t160.5 -58q72 0 142.5 25.5t134.5 72.5l55 -117q-57 -41 -141 -73.5t-201 -32.5q-78 0 -142.5 19.5t-111.5 59t-73.5 99 t-26.5 139.5zM219 590h428v129q0 53 -21.5 89t-53 58.5t-65.5 32.5t-58 10q-39 0 -80 -12t-74 -39t-54.5 -65.5t-21.5 -90.5v-112zM266 1319l176 -2l142 -205l-115 -2z" />
<glyph unicode="&#xe9;" horiz-adv-x="866" d="M82 301v401q0 76 29.5 136.5t81 102.5t117 64.5t136.5 22.5q61 0 122 -18.5t109 -58.5t77.5 -104.5t29.5 -156.5v-219h-565v-131q0 -115 66.5 -173t160.5 -58q72 0 142.5 25.5t134.5 72.5l55 -117q-57 -41 -141 -73.5t-201 -32.5q-78 0 -142.5 19.5t-111.5 59t-73.5 99 t-26.5 139.5zM219 590h428v129q0 53 -21.5 89t-53 58.5t-65.5 32.5t-58 10q-39 0 -80 -12t-74 -39t-54.5 -65.5t-21.5 -90.5v-112zM307 1112l142 205l176 2l-203 -209z" />
<glyph unicode="&#xea;" horiz-adv-x="866" d="M82 301q0 -80 26.5 -139.5t73.5 -99t111.5 -59t142.5 -19.5q117 0 201 32.5t141 73.5l-55 117q-63 -47 -134 -72.5t-143 -25.5q-94 0 -160.5 58t-66.5 173v131h565v219q0 92 -29.5 156.5t-77.5 104.5t-108.5 58.5t-122.5 18.5q-72 0 -137 -22.5t-116.5 -64.5t-81 -102.5 t-29.5 -136.5v-401zM203 1114l141 205h213l141 -205l-114 -2l-133 139l-134 -139zM219 590v112q0 51 21.5 90t54.5 66t74 39t80 12q25 0 58.5 -10t65 -32.5t53 -58.5t21.5 -89v-129h-428z" />
<glyph unicode="&#xeb;" horiz-adv-x="866" d="M82 301v401q0 76 29.5 136.5t81 102.5t117 64.5t136.5 22.5q61 0 122 -18.5t109 -58.5t77.5 -104.5t29.5 -156.5v-219h-565v-131q0 -115 66.5 -173t160.5 -58q72 0 142.5 25.5t134.5 72.5l55 -117q-57 -41 -141 -73.5t-201 -32.5q-78 0 -142.5 19.5t-111.5 59t-73.5 99 t-26.5 139.5zM219 590h428v129q0 53 -21.5 89t-53 58.5t-65.5 32.5t-58 10q-39 0 -80 -12t-74 -39t-54.5 -65.5t-21.5 -90.5v-112zM223 1251q0 35 24.5 59.5t59.5 24.5t59.5 -24.5t24.5 -59.5t-24.5 -58.5t-59.5 -23.5t-59.5 24t-24.5 58zM494 1251q0 35 23.5 59.5 t57.5 24.5q35 0 59.5 -24.5t24.5 -59.5t-24.5 -58.5t-59.5 -23.5t-58 24t-23 58z" />
<glyph unicode="&#xec;" horiz-adv-x="413" d="M20 1319l177 -2l141 -205l-115 -2zM137 2l2 1008h131v-1010z" />
<glyph unicode="&#xed;" horiz-adv-x="413" d="M102 1112l142 205l176 2l-203 -209zM141 2v1008h133v-1010z" />
<glyph unicode="&#xee;" horiz-adv-x="407" d="M-39 1114l141 205h213l142 -205l-115 -2l-133 139l-133 -139zM143 2v1008h131v-1010z" />
<glyph unicode="&#xef;" horiz-adv-x="395" d="M-18 1251q0 35 24.5 59.5t59.5 24.5t59.5 -24.5t24.5 -59.5t-25 -58.5t-59 -23.5q-35 0 -59.5 24t-24.5 58zM135 2v1008h131v-1010zM252 1251q0 35 23.5 59.5t58.5 24.5t59.5 -24.5t24.5 -59.5t-24.5 -58.5t-59.5 -23.5t-58.5 24t-23.5 58z" />
<glyph unicode="&#xf1;" horiz-adv-x="927" d="M61 954l93 56q23 -10 42 -29.5t35 -62.5q53 49 131 78.5t173 29.5q135 0 212.5 -78t77.5 -227v-721h-137v702q0 98 -46 152.5t-138 54.5q-18 0 -52 -8t-71 -23.5t-72 -37t-59 -47.5v-793h-133v821q0 41 -15.5 74t-40.5 59zM225 1231q16 53 63.5 79.5t102.5 26.5 q37 0 77 -25.5t73 -41.5q35 -16 67.5 -13t69.5 64l57 -82q-23 -51 -68.5 -81t-107.5 -19q-31 6 -65.5 29.5t-70.5 41t-73 12.5t-71 -59z" />
<glyph unicode="&#xf2;" d="M61 293v430q0 76 30 132t81 95t116.5 58.5t137.5 19.5t138.5 -19.5t116.5 -58.5t81 -95t31 -132v-430q0 -76 -31 -133.5t-81 -96t-116.5 -58t-138.5 -19.5t-137.5 19.5t-116.5 58t-81 96t-30 133.5zM199 299q0 -53 22.5 -90t57 -60.5t74.5 -35t75 -11.5t75 11.5t73.5 35 t56 60.5t22.5 90v418q0 51 -22.5 89t-56 61.5t-73.5 34.5t-75 11t-75 -11t-74.5 -34.5t-57 -61.5t-22.5 -89v-418zM225 1319l176 -2l142 -205l-115 -2z" />
<glyph unicode="&#xf3;" d="M61 293v430q0 76 30 132t81 95t116.5 58.5t137.5 19.5t138.5 -19.5t116.5 -58.5t81 -95t31 -132v-430q0 -76 -31 -133.5t-81 -96t-116.5 -58t-138.5 -19.5t-137.5 19.5t-116.5 58t-81 96t-30 133.5zM199 299q0 -53 22.5 -90t57 -60.5t74.5 -35t75 -11.5t75 11.5t73.5 35 t56 60.5t22.5 90v418q0 51 -22.5 89t-56 61.5t-73.5 34.5t-75 11t-75 -11t-74.5 -34.5t-57 -61.5t-22.5 -89v-418zM307 1112l142 205l176 2l-203 -209z" />
<glyph unicode="&#xf4;" d="M61 293q0 -76 30 -133.5t81 -96t116.5 -58t137.5 -19.5t138.5 19.5t116.5 58t81 96t31 133.5v430q0 76 -31 132t-81 95t-116.5 58.5t-138.5 19.5t-137.5 -19.5t-116.5 -58.5t-81 -95t-30 -132v-430zM180 1116l142 205h213l141 -205l-115 -2l-133 139l-133 -139zM199 299 v418q0 51 22.5 89t57 61.5t74.5 34.5t75 11t75 -11t73.5 -34.5t56 -61.5t22.5 -89v-418q0 -53 -22.5 -90t-56 -60.5t-73.5 -35t-75 -11.5t-75 11.5t-74.5 35t-57 60.5t-22.5 90z" />
<glyph unicode="&#xf5;" d="M61 293v430q0 76 30 132t81 95t116.5 58.5t137.5 19.5t138.5 -19.5t116.5 -58.5t81 -95t31 -132v-430q0 -76 -31 -133.5t-81 -96t-116.5 -58t-138.5 -19.5t-137.5 19.5t-116.5 58t-81 96t-30 133.5zM172 1231q16 53 63.5 79.5t102.5 26.5q37 0 77 -25.5t72 -41.5 q35 -16 68 -13t70 64l57 -82q-23 -51 -69 -81t-107 -19q-31 6 -65.5 29.5t-70.5 41t-73 12.5t-72 -59zM199 299q0 -53 22.5 -90t57 -60.5t74.5 -35t75 -11.5t75 11.5t73.5 35t56 60.5t22.5 90v418q0 51 -22.5 89t-56 61.5t-73.5 34.5t-75 11t-75 -11t-74.5 -34.5t-57 -61.5 t-22.5 -89v-418z" />
<glyph unicode="&#xf6;" d="M61 293v430q0 76 30 132t81 95t116.5 58.5t137.5 19.5t138.5 -19.5t116.5 -58.5t81 -95t31 -132v-430q0 -76 -31 -133.5t-81 -96t-116.5 -58t-138.5 -19.5t-137.5 19.5t-116.5 58t-81 96t-30 133.5zM199 299q0 -53 22.5 -90t57 -60.5t74.5 -35t75 -11.5t75 11.5t73.5 35 t56 60.5t22.5 90v418q0 51 -22.5 89t-56 61.5t-73.5 34.5t-75 11t-75 -11t-74.5 -34.5t-57 -61.5t-22.5 -89v-418zM217 1251q0 35 24.5 59.5t59.5 24.5t59.5 -24.5t24.5 -59.5t-24.5 -58.5t-59.5 -23.5t-59.5 24t-24.5 58zM487 1251q0 35 24 59.5t58 24.5q35 0 59.5 -24.5 t24.5 -59.5t-24.5 -58.5t-59.5 -23.5t-58.5 24t-23.5 58z" />
<glyph unicode="&#xf7;" horiz-adv-x="831" d="M102 524v129h627v-129h-627zM324 311q0 35 26.5 59.5t61.5 24.5q37 0 62.5 -24.5t25.5 -59.5t-25.5 -60.5t-62.5 -25.5q-35 0 -61.5 25.5t-26.5 60.5zM324 868q0 35 26.5 59.5t61.5 24.5q37 0 62.5 -24.5t25.5 -59.5t-25.5 -60.5t-62.5 -25.5q-35 0 -61.5 26t-26.5 60z " />
<glyph unicode="&#xf8;" d="M61 293v432q0 76 30 132t81 95t116.5 58.5t137.5 19.5q61 0 120.5 -15.5t106.5 -43.5l62 112l67 -34l-69 -125q37 -37 58.5 -87.5t21.5 -111.5v-432q0 -76 -31 -133.5t-81 -96t-116.5 -58t-138.5 -19.5q-113 0 -207 47l-67 -115l-68 35l74 123q-45 39 -71 92t-26 125z M199 299q0 -55 26 -98l367 657q-35 29 -80 43t-84 14q-35 0 -75 -11t-74.5 -34.5t-57 -61.5t-22.5 -89v-420zM281 145q35 -23 73.5 -33t73.5 -10t75 11.5t73.5 35t56 60.5t22.5 90v420q0 20 -4 37.5t-10 34.5z" />
<glyph unicode="&#xf9;" horiz-adv-x="901" d="M102 283v727h129v-709q0 -102 49.5 -151.5t133.5 -49.5q39 0 104.5 15.5t130.5 56.5q-2 10 -3 17.5t-1 11.5v10v799h131v-830q0 -39 19.5 -73.5t44.5 -63.5l-86 -59q-14 8 -37 30.5t-35 44.5q-66 -39 -132.5 -56t-146.5 -17q-141 0 -221 72.5t-80 224.5zM225 1319l176 -2 l142 -205l-115 -2z" />
<glyph unicode="&#xfa;" horiz-adv-x="901" d="M102 283v727h129v-709q0 -102 49.5 -151.5t133.5 -49.5q39 0 104.5 15.5t130.5 56.5q-2 10 -3 17.5t-1 11.5v10v799h131v-830q0 -39 19.5 -73.5t44.5 -63.5l-86 -59q-14 8 -37 30.5t-35 44.5q-66 -39 -132.5 -56t-146.5 -17q-141 0 -221 72.5t-80 224.5zM307 1112 l142 205l176 2l-203 -209z" />
<glyph unicode="&#xfb;" horiz-adv-x="901" d="M102 283q0 -152 80 -224.5t221 -72.5q80 0 146.5 17t132.5 56q12 -23 34.5 -45t37.5 -30l86 59q-25 29 -44.5 63.5t-19.5 73.5v830h-131v-799v-10q0 -4 1 -11.5t3 -17.5q-66 -41 -131 -56.5t-104 -15.5q-84 0 -133.5 49.5t-49.5 151.5v709h-129v-727zM182 1114l142 205 h213l141 -205l-115 -2l-133 139l-133 -139z" />
<glyph unicode="&#xfc;" horiz-adv-x="901" d="M102 283v727h129v-709q0 -102 49.5 -151.5t133.5 -49.5q39 0 104.5 15.5t130.5 56.5q-2 10 -3 17.5t-1 11.5v10v799h131v-830q0 -39 19.5 -73.5t44.5 -63.5l-86 -59q-14 8 -37 30.5t-35 44.5q-66 -39 -132.5 -56t-146.5 -17q-141 0 -221 72.5t-80 224.5zM219 1251 q0 35 24.5 59.5t59.5 24.5t59.5 -24.5t24.5 -59.5t-24.5 -58.5t-59.5 -23.5t-59.5 24t-24.5 58zM489 1251q0 35 24 59.5t58 24.5q35 0 59.5 -24.5t24.5 -59.5t-24.5 -58.5t-59.5 -23.5t-58.5 24t-23.5 58z" />
<glyph unicode="&#xfe;" horiz-adv-x="1265" />
<glyph unicode="&#xff;" horiz-adv-x="786" d="M0 1010h152l204 -793q4 -16 6.5 -34.5t2.5 -35.5q0 -18 -3 -36l246 899h148l-346 -1170q-23 -72 -75 -118t-108 -56l-47 82q33 16 60.5 42t40.5 65l45 145h-37zM160 1251q0 35 24.5 59.5t59.5 24.5t59.5 -24.5t24.5 -59.5t-24.5 -58.5t-59.5 -23.5t-59.5 24t-24.5 58z M430 1251q0 35 23.5 59.5t58.5 24.5t59.5 -24.5t24.5 -59.5t-24.5 -58.5t-59.5 -23.5t-58.5 24t-23.5 58z" />
<glyph unicode="&#x152;" horiz-adv-x="1484" d="M82 313v691q0 74 30.5 131t81 98t118 62.5t141.5 21.5l946 2l-33 -127l-530 2v-449h501v-124h-501l2 -492h596l-23 -129h-958q-74 0 -141.5 15.5t-118 52t-81 96t-30.5 149.5zM219 346q0 -49 15.5 -90t42 -70.5t60.5 -45t71 -15.5h294v1065h-276q-35 0 -72 -11.5 t-66.5 -36t-49 -62.5t-19.5 -89v-645z" />
<glyph unicode="&#x153;" horiz-adv-x="1437" d="M61 293v424q0 76 30 133t81 97t116.5 60.5t137.5 20.5q78 0 158 -21.5t147 -93.5q37 53 113 84t174 31q61 0 121.5 -18.5t108.5 -59.5t78 -104.5t30 -155.5v-219h-565v-172q0 -53 22.5 -90t56 -61.5t73.5 -36t75 -11.5q27 0 62.5 7.5t72.5 19.5t74 29.5t65 38.5l58 -109 q-57 -41 -139.5 -71.5t-198.5 -30.5q-78 0 -130.5 15t-84.5 36q-37 23 -62 53q-68 -57 -153.5 -79.5t-161.5 -22.5q-72 0 -136.5 19.5t-113.5 58t-79 96t-30 133.5zM199 311q0 -53 22.5 -92t57 -65.5t74.5 -39t75 -12.5q53 0 95 11.5t71 27.5q33 18 57 41v631q-20 27 -53 49 q-29 18 -71 34.5t-99 16.5q-35 0 -75 -11t-74.5 -34.5t-57 -61.5t-22.5 -89v-406zM791 590h428v129q0 53 -21.5 91t-53.5 61.5t-66 35t-58 11.5q-35 0 -75 -12.5t-74.5 -37t-57 -62.5t-22.5 -89v-127z" />
<glyph unicode="&#x178;" d="M20 1319l340 -832v-487h134v487l340 832h-142l-248 -643q-4 -10 -7 -20.5t-5 -20.5t-4 -23q-2 10 -4 21q-4 18 -12 43l-246 643h-146zM221 1505q0 35 24.5 58.5t59.5 23.5t59.5 -23.5t24.5 -58.5t-24.5 -59.5t-59.5 -24.5t-59.5 24.5t-24.5 59.5zM496 1505 q0 35 24.5 58.5t59.5 23.5t59.5 -23.5t24.5 -58.5t-25 -59.5t-59 -24.5q-35 0 -59.5 24.5t-24.5 59.5z" />
<glyph unicode="&#x2c6;" horiz-adv-x="700" d="M102 1452l142 205h213l141 -205l-115 -2l-133 139l-133 -139z" />
<glyph unicode="&#x2dc;" horiz-adv-x="753" d="M102 1563l220 133l139 -78l129 51l61 -78l-184 -118l-168 100l-145 -78z" />
<glyph unicode="&#x2000;" horiz-adv-x="848" />
<glyph unicode="&#x2001;" horiz-adv-x="1696" />
<glyph unicode="&#x2002;" horiz-adv-x="848" />
<glyph unicode="&#x2003;" horiz-adv-x="1696" />
<glyph unicode="&#x2004;" horiz-adv-x="565" />
<glyph unicode="&#x2005;" horiz-adv-x="424" />
<glyph unicode="&#x2006;" horiz-adv-x="282" />
<glyph unicode="&#x2007;" horiz-adv-x="282" />
<glyph unicode="&#x2008;" horiz-adv-x="212" />
<glyph unicode="&#x2009;" horiz-adv-x="339" />
<glyph unicode="&#x200a;" horiz-adv-x="94" />
<glyph unicode="&#x2010;" horiz-adv-x="806" d="M102 647v131h603v-131h-603z" />
<glyph unicode="&#x2011;" horiz-adv-x="806" d="M102 647v131h603v-131h-603z" />
<glyph unicode="&#x2012;" horiz-adv-x="806" d="M102 647v131h603v-131h-603z" />
<glyph unicode="&#x2013;" horiz-adv-x="1011" d="M102 653v129h807v-129h-807z" />
<glyph unicode="&#x2014;" horiz-adv-x="1202" d="M102 653v129h998v-129h-998z" />
<glyph unicode="&#x2018;" horiz-adv-x="446" d="M102 1047q0 63 19.5 109t48.5 81t61.5 60.5t61.5 43.5l51 -55q-12 -8 -29.5 -23.5t-34 -37t-27.5 -47t-11 -52.5q45 -4 67.5 -34.5t22.5 -59.5q0 -45 -33 -78.5t-80 -33.5q-45 0 -81 36.5t-36 90.5z" />
<glyph unicode="&#x2019;" horiz-adv-x="446" d="M102 975q12 8 30 23.5t34 37t27.5 46t11.5 53.5q-45 4 -67.5 34.5t-22.5 59.5q0 45 32.5 78.5t77.5 33.5q47 0 83 -37t36 -90q0 -63 -19.5 -109t-48 -81t-62.5 -60.5t-62 -43.5z" />
<glyph unicode="&#x201a;" horiz-adv-x="442" d="M102 -172q12 8 30 23.5t34 37t27.5 46t11.5 53.5q-45 4 -67.5 34.5t-22.5 59.5q0 45 32.5 79t77.5 34q47 0 81 -37t34 -90q0 -63 -18.5 -109.5t-47 -81.5t-61.5 -60.5t-61 -43.5z" />
<glyph unicode="&#x201c;" horiz-adv-x="753" d="M102 1047q0 63 19.5 109t48.5 81t61.5 60.5t61.5 43.5l51 -55q-12 -8 -29.5 -23.5t-34 -37t-27.5 -47t-11 -52.5q45 -4 67.5 -34.5t22.5 -59.5q0 -45 -33 -78.5t-80 -33.5q-45 0 -81 36.5t-36 90.5zM410 1047q0 63 19.5 109t48 81t61 60.5t61.5 43.5l51 -55 q-12 -8 -29.5 -23.5t-34 -37t-27.5 -47t-11 -52.5q45 -4 67.5 -34.5t22.5 -59.5q0 -45 -33 -78.5t-80 -33.5q-45 0 -80.5 36.5t-35.5 90.5z" />
<glyph unicode="&#x201d;" horiz-adv-x="753" d="M102 975q12 8 30 23.5t34 37t27.5 46t11.5 53.5q-45 4 -67.5 34.5t-22.5 59.5q0 45 32.5 78.5t77.5 33.5q47 0 83 -37t36 -90q0 -63 -19.5 -109t-48 -81t-62.5 -60.5t-62 -43.5zM410 975q12 8 29.5 23.5t33.5 37t27.5 46t11.5 53.5q-45 4 -67.5 34.5t-22.5 59.5 q0 45 32.5 78.5t77.5 33.5q47 0 83 -37t36 -90q0 -63 -19.5 -109t-48 -81t-62.5 -60.5t-62 -43.5z" />
<glyph unicode="&#x201e;" horiz-adv-x="729" d="M102 -172q12 8 30 23.5t34 37t27.5 46t11.5 53.5q-45 4 -67.5 34.5t-22.5 59.5q0 45 32.5 79t77.5 34q47 0 81 -37t34 -90q0 -63 -18.5 -109.5t-47 -81.5t-61.5 -60.5t-61 -43.5zM389 -172q12 8 29.5 23.5t34 37t28 46t11.5 53.5q-45 4 -68 34.5t-23 59.5q0 45 33 79 t78 34q47 0 81 -37t34 -90q0 -63 -18.5 -109.5t-47.5 -81.5t-61.5 -60.5t-61.5 -43.5z" />
<glyph unicode="&#x2022;" horiz-adv-x="612" d="M102 821q0 43 16.5 80t44 64.5t64.5 44t78 16.5q86 0 145.5 -59.5t59.5 -145.5q0 -41 -16.5 -77.5t-44 -64.5t-64.5 -44.5t-80 -16.5q-41 0 -78 16.5t-64.5 44.5t-44 64.5t-16.5 77.5z" />
<glyph unicode="&#x2026;" horiz-adv-x="1181" d="M102 92q0 43 32 74t77 31q47 0 79 -31t32 -74q0 -45 -32 -75.5t-79 -30.5q-45 0 -77 30.5t-32 75.5zM481 92q0 43 32 74t79 31q45 0 76.5 -31t31.5 -74q0 -45 -31.5 -75.5t-76.5 -30.5q-47 0 -79 30.5t-32 75.5zM862 92q0 43 32 74t77 31t76.5 -31t31.5 -74 q0 -45 -31.5 -75.5t-76.5 -30.5t-77 30.5t-32 75.5z" />
<glyph unicode="&#x202f;" horiz-adv-x="339" />
<glyph unicode="&#x2039;" horiz-adv-x="694" d="M102 948l314 371h176l-299 -375l299 -375h-176z" />
<glyph unicode="&#x203a;" horiz-adv-x="694" d="M102 569l299 375l-299 375h177l313 -371l-313 -379h-177z" />
<glyph unicode="&#x205f;" horiz-adv-x="424" />
<glyph unicode="&#x2122;" horiz-adv-x="1525" d="M102 942v113h514l-53 -113h-160v-680h-120v680h-181zM680 262v793h100l273 -623l264 623h106v-793h-118v479l-205 -475h-96l-211 479v-483h-113z" />
<glyph unicode="&#xe000;" horiz-adv-x="1013" d="M0 0v1014h1014v-1014h-1014z" />
</font>
</defs>
</svg>
